<svg xmlns="http://www.w3.org/2000/svg" viewBox="0 0 509.77 148.77"><defs><style>.cls-1{fill:#fff;}</style></defs><g id="katman_2" data-name="katman 2"><g id="Layer_1" data-name="Layer 1"><path class="cls-1" d="M56.34,130.72l.72-.73a4.5,4.5,0,0,0,.46-5.84L21.27,74.38,57.52,24.62a4.5,4.5,0,0,0-.46-5.84l-.72-.73L0,74.38Z"/><path class="cls-1" d="M451.52,132.63l-.75-.76a4.66,4.66,0,0,1-.47-6l37.48-51.45L450.3,22.93a4.67,4.67,0,0,1,.47-6l.75-.75,58.25,58.24Z"/><rect class="cls-1" x="2.47" y="71.09" width="149.9" height="6.59" transform="translate(-9.27 137.72) rotate(-80.01)"/><path class="cls-1" d="M117.24,89.37a9.3,9.3,0,0,1-2.17-4.74v23.61H101.64V38.61a13.4,13.4,0,0,1,1.77-.25c1-.09,1.91-.14,2.77-.14q8.88,0,8.89,7.9V81.47a11.15,11.15,0,0,1,2.56-4.93l10.47-12a14,14,0,0,1,3.71-3.2,8,8,0,0,1,3.9-.94,13.4,13.4,0,0,1,8.49,3.36L128.1,82.36l18.47,24.49a13.39,13.39,0,0,1-7.8,2.38,13.59,13.59,0,0,1-6-1.14,14.09,14.09,0,0,1-4.59-4Z"/><path class="cls-1" d="M195.26,84.63a30.4,30.4,0,0,1-2.81,13.53,19.55,19.55,0,0,1-8,8.65,25.2,25.2,0,0,1-12.5,2.91q-11.05,0-17.13-6.62t-6.08-18.17a27.68,27.68,0,0,1,3-13.18,20.8,20.8,0,0,1,8.29-8.65,24.77,24.77,0,0,1,12.3-3q11.06,0,17,6.47T195.26,84.63Zm-13.53.1q0-14.31-9.58-14.32a8.38,8.38,0,0,0-7.41,3.85q-2.56,3.85-2.56,10.57,0,7.11,2.51,11A8.16,8.16,0,0,0,172,99.65Q181.73,99.65,181.73,84.73Z"/><path class="cls-1" d="M239.7,108.24a3.38,3.38,0,0,1-2.66-1.09,4.22,4.22,0,0,1-1-3,13.73,13.73,0,0,1-5.48,3.8,20.16,20.16,0,0,1-7.66,1.43q-9.09,0-14-6.12T204,85.52a35.09,35.09,0,0,1,2.42-13.77,19,19,0,0,1,6.86-8.65,18.16,18.16,0,0,1,10.28-3A17.34,17.34,0,0,1,230,61.33a14.14,14.14,0,0,1,5,3.35V38.61a10,10,0,0,1,1.73-.25c1-.09,2-.14,2.81-.14q8.9,0,8.89,7.9v62.12ZM217.78,84.83q0,8,2.52,11.61t7.85,3.6a9.1,9.1,0,0,0,5-1.23,3.77,3.77,0,0,0,1.93-3.31V73.28a10.13,10.13,0,0,0-3.26-2.13,10,10,0,0,0-4-.84Q217.78,70.31,217.78,84.83Z"/><path class="cls-1" d="M274,65.87a15.71,15.71,0,0,1,5.73-4.15,18.81,18.81,0,0,1,7.7-1.58q8.79,0,13.63,6.12t4.84,17.58q0,12.55-5.18,19.21t-14.37,6.67a18.3,18.3,0,0,1-5.14-.69,16.61,16.61,0,0,1-4.25-1.88,7.49,7.49,0,0,1-2.46-2.17v24.79H261.13V61.52l1.19-.19a24.71,24.71,0,0,1,3.26-.2Q272.89,61.13,274,65.87Zm17.88,18.27q0-13.92-9.88-13.93a9.61,9.61,0,0,0-5.43,1.34,4.22,4.22,0,0,0-2,3.7V96.19a10,10,0,0,0,3.36,2.12,11,11,0,0,0,4.15.84Q291.85,99.15,291.85,84.14Z"/><path class="cls-1" d="M330.07,45.72A6.84,6.84,0,0,1,328,50.81a7.6,7.6,0,0,1-10.32,0,6.9,6.9,0,0,1-2-5.09,7,7,0,0,1,2-5.13,7.24,7.24,0,0,1,12.4,5.13Zm-.1,63.11c-.46.26-2,.4-4.74.4q-4.65,0-6.67-2t-2-6.22V61.52a14.25,14.25,0,0,1,1.77-.24,27.61,27.61,0,0,1,2.77-.15q8.88,0,8.89,7.8Z"/><path class="cls-1" d="M356,108.83a17.27,17.27,0,0,1-4.94.4q-8.49,0-8.49-8.2V38.61a13.69,13.69,0,0,1,1.78-.25c1-.09,1.91-.14,2.76-.14q8.89,0,8.89,7.8Z"/><path class="cls-1" d="M412.23,84.63a30.26,30.26,0,0,1-2.81,13.53,19.49,19.49,0,0,1-8,8.65,25.16,25.16,0,0,1-12.49,2.91q-11.07,0-17.14-6.62t-6.07-18.17a27.68,27.68,0,0,1,3-13.18A20.82,20.82,0,0,1,377,63.1a24.76,24.76,0,0,1,12.29-3q11.06,0,17,6.47T412.23,84.63Zm-13.53.1q0-14.31-9.57-14.32a8.38,8.38,0,0,0-7.41,3.85q-2.57,3.85-2.57,10.57,0,7.11,2.52,11a8.16,8.16,0,0,0,7.26,3.86Q398.71,99.65,398.7,84.73Z"/><path class="cls-1" d="M423.59,101.13a27.65,27.65,0,0,1-1.09-8.5V46.81l1.49-.2a28.63,28.63,0,0,1,3.06-.2q8.88,0,8.89,7.9v6.92h13.82V71.3H435.94V92.44q0,6.91,5.63,6.91a9.41,9.41,0,0,0,4.05-1,12.72,12.72,0,0,0,3.55-2.47,26.05,26.05,0,0,1,2.42,4,6.79,6.79,0,0,1,.64,2.67,4.67,4.67,0,0,1-2.07,3.55,14.89,14.89,0,0,1-5.29,2.62,24.55,24.55,0,0,1-7,.94Q426.75,109.72,423.59,101.13Z"/></g></g></svg>