<svg width="18" height="14" viewBox="0 0 18 14" fill="none" xmlns="http://www.w3.org/2000/svg">
<path d="M10.2572 5.89164L11.9369 9.89078L15.7798 0.731149C15.8675 0.51402 16.0161 0.328143 16.2068 0.196775C16.3907 0.0710893 16.607 0.00395137 16.8284 0.00385913C16.9783 0.00660964 17.1266 0.0359847 17.2667 0.0906705C17.4124 0.146275 17.5455 0.231608 17.6578 0.341461C17.7659 0.446492 17.8514 0.573271 17.9091 0.713787C17.9674 0.855578 17.9982 1.00758 17.9997 1.16135C18.0031 1.3231 17.9722 1.48368 17.9091 1.63207L13.0176 13.2591C12.9286 13.4767 12.7785 13.6625 12.5861 13.793C12.3937 13.9235 12.1678 13.9928 11.9369 13.9922C11.7005 13.9937 11.4686 13.9268 11.268 13.7992C11.0674 13.6687 10.9121 13.477 10.824 13.2514L9.00083 8.90691L7.17195 13.2668C7.08239 13.484 6.93209 13.6694 6.73986 13.7997C6.54764 13.9301 6.32202 13.9998 6.09125 13.9999C5.85409 14.0033 5.62108 13.9362 5.42053 13.807C5.22204 13.6765 5.06717 13.4874 4.97654 13.2649L0.0963726 1.63785C0.033623 1.49118 0.000833986 1.33298 1.4477e-05 1.17293C-0.000767549 1.02015 0.0301417 0.868928 0.0907048 0.72922C0.152834 0.585822 0.239892 0.455101 0.347658 0.343389C0.459056 0.23093 0.592273 0.143529 0.738747 0.0868114C0.874748 0.0316922 1.01943 0.00227726 1.16574 0C1.38513 0.00123171 1.59933 0.0683205 1.78167 0.192916C1.97556 0.322701 2.12691 0.508831 2.21621 0.727292L6.05724 9.88692L9.91149 0.727292C10.0052 0.510218 10.1596 0.326299 10.3555 0.198703C10.5449 0.0726171 10.7661 0.00558204 10.9922 0.00578723C11.1421 0.00853774 11.2904 0.0379128 11.4305 0.0925986C11.5725 0.147837 11.7013 0.233333 11.8084 0.343389C11.9136 0.449685 11.9971 0.576239 12.054 0.715718C12.1128 0.857211 12.1424 1.00958 12.1409 1.16328C12.1405 1.32524 12.1077 1.48542 12.0445 1.63399L10.2572 5.89164Z" fill="url(#paint0_linear_596_791)"/>
<defs>
<linearGradient id="paint0_linear_596_791" x1="0" y1="7.1182" x2="18" y2="7.1182" gradientUnits="userSpaceOnUse">
<stop stop-color="#18BEE2"/>
<stop offset="1" stop-color="#64D2EA" stop-opacity="0.73"/>
</linearGradient>
</defs>
</svg>
