<svg width="714" height="494" viewBox="0 0 714 494" fill="none" xmlns="http://www.w3.org/2000/svg">
<g clip-path="url(#clip0_150_6152)">
<path d="M113.554 473.235C136.381 454.506 139.333 423.003 136.1 395.157C135.556 390.508 135.672 385.561 133.099 381.656C130.526 377.751 125.083 375.385 121.026 377.701C117.661 379.621 116.474 383.774 114.791 387.265C112.548 391.914 108.969 395.902 104.615 398.615C101.745 400.402 98.117 401.643 95.0163 400.286C90.7776 398.4 89.8375 392.89 89.4911 388.258C88.8479 379.621 88.1882 370.984 87.5449 362.331C87.1986 357.698 86.8192 352.966 85.005 348.681C83.1908 344.395 79.6448 340.59 75.0927 339.713C70.5406 338.853 65.2464 341.847 64.6691 346.464C64.4382 348.383 64.9825 350.319 65.0154 352.238C65.0484 354.174 64.3063 356.374 62.5085 357.069C60.6778 357.764 58.6986 356.606 57.1978 355.365C51.986 351.08 48.209 345.322 44.663 339.581C41.117 333.839 37.637 327.949 32.8375 323.217C28.0381 318.468 21.6388 314.928 14.9096 315.11C8.18044 315.292 1.36882 319.974 0.197812 326.625C-0.973194 333.293 3.43045 339.614 8.0485 344.544C14.9096 351.874 22.8263 358.211 31.4686 363.274C33.0354 364.184 34.7177 365.177 35.4269 366.848C36.6969 369.859 33.992 373.168 30.9903 374.442C27.5927 375.881 23.7829 375.832 20.1709 376.56C16.5589 377.288 12.7325 379.207 11.6275 382.731C10.0936 387.629 14.4973 392.262 18.703 395.19C27.1144 401.047 36.532 405.448 46.4278 408.145C49.9738 409.105 53.6847 409.899 56.6535 412.067C59.6222 414.234 61.6344 418.255 60.2325 421.663C58.8141 425.071 54.5918 426.478 50.9469 426.114C47.2854 425.75 43.9044 424.079 40.3584 423.086C33.7282 421.216 25.4651 422.341 21.7872 428.182C19.3792 432.021 19.5441 437.083 21.2759 441.286C22.9912 445.489 26.0754 448.963 29.308 452.156C40.5893 463.275 54.5754 471.829 69.9139 475.717C85.2524 479.605 99.189 479.854 113.587 473.252" fill="#27AC75"/>
<path d="M115.55 493.901C113.621 482.931 110.107 470.075 104.78 456.359C99.486 442.626 92.4105 428.033 84.4773 413.043C82.4817 409.304 80.519 405.597 78.5728 401.957C76.6266 398.317 74.6969 394.727 72.5858 391.319C68.3966 384.485 63.8445 378.231 59.3419 372.424C54.8393 366.616 50.3367 361.272 46.098 356.292C41.8428 351.328 37.802 346.778 33.9262 342.774C26.2074 334.749 19.2309 329.025 14.2829 325.285C11.809 323.399 9.84632 322.009 8.49389 321.083C7.83417 320.636 7.32289 320.289 6.96004 320.04C6.61369 319.809 6.41577 319.709 6.41577 319.709C6.41577 319.709 6.5807 319.858 6.91056 320.107C7.27341 320.371 7.7682 320.735 8.41143 321.215C9.73087 322.175 11.6606 323.614 14.118 325.517C19.0165 329.322 25.927 335.08 33.5798 343.121C37.4227 347.125 41.4305 351.692 45.6527 356.672C49.8749 361.652 54.3445 367.013 58.8142 372.821C63.3003 378.628 67.8194 384.866 71.9921 391.666C74.0867 395.058 75.9999 398.632 77.9461 402.288C79.8923 405.928 81.8549 409.634 83.8506 413.374C91.7672 428.364 98.8428 442.908 104.17 456.607C109.514 470.29 113.076 483.08 115.055 494" fill="#E0E0E0"/>
<path d="M72.4044 391.269C72.4044 391.269 72.5364 390.557 72.6683 389.25C72.8002 387.943 72.9322 386.057 73.0641 383.724C73.328 379.058 73.4929 372.589 73.6579 365.474C73.8228 358.343 74.0867 351.907 74.466 347.258C74.6475 344.925 74.8124 343.055 74.9443 341.748C75.0763 340.457 75.1258 339.729 75.0763 339.713C75.0268 339.713 74.8948 340.424 74.6804 341.715C74.466 343.005 74.2186 344.892 73.9712 347.208C73.4764 351.857 73.1136 358.327 72.9487 365.458C72.8002 372.523 72.6683 378.909 72.5528 383.707C72.4869 385.941 72.4209 387.794 72.3714 389.234C72.3384 390.541 72.3384 391.269 72.3714 391.269H72.4044Z" fill="#E0E0E0"/>
<path d="M11.3307 385.097C11.3307 385.097 11.5451 385.131 11.9574 385.147C12.4522 385.147 13.046 385.147 13.7552 385.147C15.3055 385.147 17.5651 385.147 20.3359 385.213C25.8941 385.329 33.5798 385.776 42.0077 386.636C50.4522 387.513 58.0555 388.638 63.5312 389.631C66.269 390.094 68.4791 390.541 70.0129 390.839C70.7056 390.971 71.2994 391.087 71.7777 391.17C72.19 391.236 72.4044 391.269 72.4044 391.236C72.4044 391.219 72.2065 391.137 71.8107 391.021C71.3324 390.888 70.7716 390.74 70.0789 390.558C68.5615 390.177 66.368 389.647 63.6301 389.118C58.1709 388.009 50.5511 386.802 42.0737 385.925C33.6128 385.064 25.9105 384.7 20.3359 384.7C17.5486 384.684 15.289 384.767 13.7387 384.849C13.0295 384.899 12.4357 384.932 11.9409 384.982C11.5286 385.015 11.3142 385.048 11.3142 385.081L11.3307 385.097Z" fill="#E0E0E0"/>
<path d="M104.021 455.3C104.021 455.3 104.153 455.052 104.351 454.539C104.566 453.96 104.846 453.215 105.192 452.289C105.918 450.337 106.891 447.491 108.062 443.95C110.388 436.885 113.323 427.024 116.408 416.087C119.492 405.167 122.345 395.29 124.555 388.192C125.66 384.717 126.551 381.855 127.211 379.786C127.507 378.86 127.738 378.099 127.92 377.503C128.068 376.974 128.151 376.692 128.118 376.692C128.101 376.692 127.986 376.941 127.788 377.453C127.573 378.033 127.293 378.777 126.947 379.704C126.221 381.656 125.248 384.502 124.077 388.043C121.751 395.108 118.816 404.969 115.731 415.905C112.647 426.825 109.794 436.703 107.584 443.801C106.479 447.276 105.588 450.138 104.928 452.206C104.632 453.133 104.401 453.894 104.219 454.489C104.071 455.019 103.988 455.3 104.021 455.3Z" fill="#E0E0E0"/>
<path d="M21.9685 436.405C21.9685 436.405 22.2489 436.504 22.7932 436.653C23.4199 436.802 24.2116 436.984 25.1846 437.216C27.3452 437.712 30.3305 438.39 33.9754 439.234C41.3973 440.938 51.623 443.437 62.9042 446.2C74.202 448.98 84.4441 451.395 91.899 452.984C95.6264 453.778 98.6446 454.39 100.739 454.787C101.729 454.969 102.537 455.118 103.147 455.217C103.708 455.317 103.988 455.35 104.005 455.317C104.005 455.3 103.724 455.217 103.18 455.068C102.57 454.919 101.778 454.737 100.789 454.506C98.6281 454.009 95.6429 453.331 91.9979 452.487C84.5761 450.783 74.3504 448.285 63.0692 445.505C51.7879 442.725 41.5292 440.31 34.0744 438.738C30.347 437.944 27.3287 437.331 25.2341 436.934C24.2445 436.752 23.4364 436.62 22.8261 436.504C22.2654 436.405 21.985 436.372 21.9685 436.405Z" fill="#E0E0E0"/>
<path d="M330.246 0.462623L211 36.4429L235.176 117.075L354.421 81.0946L330.246 0.462623Z" fill="white"/>
<path d="M354.419 81.0566C354.419 81.0566 354.237 80.5437 353.94 79.584C353.627 78.5913 353.198 77.1684 352.621 75.3318C351.466 71.576 349.801 66.116 347.673 59.1172C343.434 45.1031 337.332 25.0168 329.91 0.529457L330.339 0.761095C297.435 10.7215 256.005 23.2465 211.127 36.8304L211.408 36.3009C220.017 65.0405 228.197 92.3737 235.553 116.944L235.059 116.679C270.156 106.173 299.942 97.2547 320.971 90.9508C331.493 87.8237 339.822 85.3419 345.562 83.6377C348.415 82.7939 350.609 82.1486 352.126 81.7019C352.852 81.4868 353.413 81.3379 353.825 81.2055C354.204 81.0897 354.419 81.0566 354.419 81.0566C354.419 81.0566 354.254 81.1227 353.874 81.2386C353.479 81.3709 352.934 81.5364 352.225 81.7515C350.724 82.2148 348.564 82.8766 345.776 83.7535C340.07 85.5073 331.79 88.0388 321.334 91.2486C300.272 97.6517 270.436 106.735 235.289 117.424L234.91 117.539L234.795 117.159C227.422 92.5888 219.209 65.2721 210.583 36.5325L210.451 36.1189L210.863 35.9865C255.774 22.4854 297.221 10.01 330.141 0.0992732L330.471 0L330.57 0.330911C337.876 24.9507 343.863 45.1528 348.052 59.233C350.114 66.2152 351.714 71.6753 352.819 75.4146C353.347 77.2511 353.759 78.6575 354.039 79.6337C354.303 80.5768 354.435 81.0566 354.435 81.0566H354.419Z" fill="#E0E0E0"/>
<path d="M330.24 0.430176C330.24 0.430176 330.19 0.56254 330.075 0.794178C329.927 1.07545 329.745 1.40636 329.514 1.82C328.97 2.77964 328.228 4.07019 327.288 5.72475C325.292 9.16622 322.455 14.0471 318.959 20.0697C311.817 32.2141 301.971 48.9582 291.019 67.6216L290.838 67.936L290.492 67.8036C289.337 67.3569 288.1 66.877 286.847 66.3807C265.901 58.1906 246.934 50.7617 233.145 45.3678C226.334 42.6544 220.809 40.4538 216.9 38.8985C215.036 38.1374 213.568 37.5418 212.496 37.0951C212.034 36.8965 211.655 36.7311 211.358 36.6153C211.111 36.4994 210.979 36.4333 210.979 36.4167C210.979 36.4167 211.127 36.4333 211.391 36.5325C211.704 36.6483 212.084 36.7807 212.562 36.9462C213.651 37.3433 215.135 37.8893 217.015 38.6007C220.941 40.0898 226.499 42.2076 233.36 44.8053C247.181 50.1495 266.181 57.4792 287.16 65.5865C288.414 66.0663 289.651 66.5627 290.805 67.0094L290.277 67.1914C301.328 48.5942 311.256 31.8998 318.447 19.7885C322.043 13.8321 324.946 8.98422 326.991 5.57584C327.98 3.95437 328.772 2.68037 329.349 1.75382C329.597 1.35673 329.811 1.02582 329.976 0.777632C330.124 0.56254 330.207 0.446721 330.207 0.463267L330.24 0.430176Z" fill="#E0E0E0"/>
<path d="M677.171 322.489C677.171 322.489 669.452 314.812 654.361 333.988C639.27 353.165 632.722 364.664 632.722 364.664C632.722 364.664 628.962 368.568 626.488 365.028C623.997 361.487 621.457 352.354 615.949 352.817C610.242 353.28 607.257 358.972 606.531 368.072C605.789 377.156 603.464 397.01 603.233 398.814C603.018 400.567 601.517 402.933 599.439 400.799C597.361 398.665 586.591 380.432 578.279 386.074C569.966 391.716 572.061 417.378 572.242 420.19C572.424 423.003 571.665 424.029 570.28 424.443C568.878 424.856 565.843 418.387 562.561 413.324C559.295 408.261 554.611 402.983 550.076 406.64C545.556 410.296 540.757 428.281 552.17 461.323L558.454 476.28L574.551 478.58C609.302 481.392 625.449 472.243 627.857 466.932C630.248 461.62 623.981 458.394 618.274 456.491C612.568 454.572 605.575 453.232 605.624 451.776C605.674 450.32 606.482 449.327 609.236 448.798C611.99 448.268 637.291 443.884 640.655 434.403C644.02 424.922 623.733 419.016 621.161 417.543C618.571 416.054 620.484 414.019 622.134 413.374C623.816 412.712 642.387 405.465 650.98 402.487C659.573 399.492 664.323 395.174 663.333 389.515C662.393 384.055 652.943 383.873 648.902 382.334C644.861 380.812 647.698 376.179 647.698 376.179C647.698 376.179 657.148 366.93 671.893 347.473C686.638 328.015 677.022 322.34 677.022 322.34" fill="#EBEBEB"/>
<path d="M663.63 339.647C663.63 339.647 663.548 339.796 663.366 340.061C663.152 340.358 662.871 340.756 662.525 341.235C661.733 342.311 660.628 343.816 659.226 345.719C656.357 349.607 652.134 355.2 646.89 362.083C636.417 375.849 621.771 394.744 605.492 415.525C589.263 436.323 574.568 455.135 563.897 468.818C558.635 475.618 554.347 481.144 551.346 485.016C549.878 486.886 548.74 488.358 547.915 489.401C547.536 489.864 547.239 490.244 547.008 490.526C546.793 490.774 546.694 490.906 546.678 490.89C546.678 490.89 546.76 490.741 546.942 490.476C547.156 490.178 547.437 489.781 547.783 489.301C548.575 488.226 549.68 486.72 551.082 484.817C553.951 480.929 558.174 475.337 563.402 468.454C573.875 454.688 588.521 435.793 604.799 415.012C621.029 394.231 635.707 375.402 646.378 361.735C651.64 354.935 655.928 349.409 658.93 345.537C660.397 343.668 661.535 342.195 662.36 341.153C662.739 340.689 663.036 340.309 663.267 340.028C663.482 339.779 663.581 339.647 663.597 339.664L663.63 339.647Z" fill="#E0E0E0"/>
<path d="M618.984 365.739C619.099 365.739 619.347 367.377 619.594 370.074C619.841 372.771 620.056 376.494 620.204 380.597C620.303 384.552 620.402 388.125 620.485 391.12C620.55 393.817 620.6 395.472 620.485 395.488C620.369 395.488 620.105 393.85 619.874 391.153C619.66 388.456 619.478 384.734 619.33 380.63C619.198 376.676 619.066 373.102 618.967 370.107C618.885 367.41 618.835 365.739 618.967 365.739H618.984Z" fill="#E0E0E0"/>
<path d="M621.886 396.067C621.87 395.836 629.49 394.992 638.907 394.214C648.341 393.42 655.994 392.973 656.01 393.221C656.027 393.453 648.407 394.297 638.973 395.075C629.556 395.869 621.886 396.315 621.87 396.067H621.886Z" fill="#E0E0E0"/>
<path d="M594.524 427.983C594.557 427.868 596.223 428.165 598.912 428.695C601.6 429.208 605.327 429.919 609.451 430.581C613.574 431.243 617.318 431.739 620.039 432.103C622.76 432.451 624.443 432.682 624.426 432.815C624.426 432.93 622.711 432.914 619.973 432.715C617.235 432.517 613.458 432.12 609.302 431.441C605.162 430.78 601.435 429.969 598.78 429.307C596.108 428.629 594.491 428.116 594.524 428V427.983Z" fill="#E0E0E0"/>
<path d="M585.882 401.13C585.998 401.097 586.591 402.553 587.482 404.935C588.373 407.318 589.527 410.627 590.764 414.317C592.001 417.99 593.073 421.332 593.815 423.781C594.557 426.23 594.953 427.735 594.838 427.785C594.722 427.818 594.129 426.362 593.238 423.979C592.347 421.597 591.193 418.288 589.956 414.598C588.719 410.925 587.647 407.583 586.905 405.134C586.162 402.702 585.767 401.18 585.882 401.13Z" fill="#E0E0E0"/>
<path d="M558.141 426.229C558.256 426.196 559.015 428.066 560.153 431.11C561.291 434.171 562.808 438.407 564.441 443.089C566.074 447.788 567.492 452.057 568.498 455.168C569.488 458.278 570.049 460.214 569.933 460.247C569.818 460.28 569.059 458.41 567.921 455.366C566.783 452.322 565.266 448.07 563.633 443.371C562 438.672 560.582 434.403 559.576 431.292C558.586 428.182 558.025 426.246 558.141 426.213V426.229Z" fill="#E0E0E0"/>
<path d="M569.9 459.354C569.917 459.238 572.061 459.552 575.492 460.098C578.922 460.628 583.672 461.373 588.933 462.067C594.195 462.762 598.961 463.308 602.425 463.672C605.888 464.053 608.016 464.301 608.016 464.417C608.016 464.533 605.855 464.5 602.375 464.285C598.895 464.069 594.096 463.623 588.818 462.928C583.54 462.233 578.807 461.389 575.393 460.694C571.978 459.999 569.884 459.47 569.917 459.354H569.9Z" fill="#E0E0E0"/>
<path d="M604.428 159.79L600.52 288.107L693.992 290.972L697.9 162.655L604.428 159.79Z" fill="#F5F5F5"/>
<path d="M587.203 176.832L583.295 305.148L676.767 308.013L680.675 179.696L587.203 176.832Z" fill="white"/>
<path d="M676.759 308.012C676.759 308.012 676.759 307.797 676.759 307.383C676.759 306.953 676.775 306.357 676.792 305.563C676.825 303.942 676.891 301.592 676.957 298.548C677.122 292.409 677.352 283.491 677.649 272.191C678.292 249.606 679.2 217.574 680.272 179.685L680.651 180.082C652.497 179.238 620.715 178.278 587.185 177.253L587.63 176.839C586.146 224.771 584.76 269.13 583.639 305.149L583.293 304.785C611.562 305.729 634.883 306.506 651.161 307.052C659.293 307.333 665.675 307.565 670.046 307.714C672.207 307.797 673.872 307.863 675.027 307.913C676.148 307.962 676.759 308.012 676.759 308.012C676.759 308.012 676.214 308.012 675.109 308.012C673.971 307.979 672.339 307.946 670.194 307.896C665.84 307.78 659.49 307.615 651.392 307.416C635.064 306.953 611.661 306.308 583.293 305.513H582.946V305.149C584.018 269.13 585.338 224.771 586.773 176.839V176.409H587.218C620.748 177.451 652.53 178.444 680.668 179.304H681.063V179.701C679.826 217.706 678.787 249.821 678.045 272.455C677.666 283.706 677.352 292.608 677.138 298.713C677.023 301.725 676.94 304.041 676.874 305.646C676.841 306.407 676.808 306.986 676.792 307.416C676.775 307.813 676.759 307.995 676.759 307.995V308.012Z" fill="#E0E0E0"/>
<path d="M644.152 206.538C644.152 206.77 633.976 206.654 621.424 206.273C608.873 205.893 598.714 205.38 598.73 205.148C598.73 204.917 608.906 205.033 621.457 205.413C633.992 205.794 644.168 206.307 644.152 206.538Z" fill="#E0E0E0"/>
<path d="M668.38 218.434C668.38 218.666 652.695 218.385 633.382 217.789C614.052 217.194 598.4 216.532 598.4 216.284C598.4 216.035 614.085 216.333 633.415 216.929C652.745 217.524 668.397 218.186 668.397 218.434H668.38Z" fill="#E0E0E0"/>
<path d="M668.034 230.066C668.034 230.297 652.349 230.016 633.036 229.421C613.706 228.825 598.054 228.163 598.054 227.915C598.054 227.683 613.739 227.965 633.069 228.56C652.399 229.156 668.05 229.818 668.05 230.066H668.034Z" fill="#E0E0E0"/>
<path d="M667.671 241.697C667.671 241.929 651.986 241.648 632.673 241.052C613.343 240.456 597.691 239.794 597.691 239.546C597.691 239.315 613.376 239.596 632.706 240.192C652.036 240.787 667.688 241.449 667.688 241.697H667.671Z" fill="#E0E0E0"/>
<path d="M667.325 253.329C667.325 253.561 651.64 253.279 632.326 252.684C612.997 252.088 597.345 251.426 597.345 251.178C597.345 250.946 613.03 251.228 632.359 251.823C651.689 252.419 667.341 253.081 667.341 253.329H667.325Z" fill="#E0E0E0"/>
<path d="M666.962 264.96C666.962 265.192 651.277 264.911 631.963 264.315C612.634 263.719 596.982 263.058 596.982 262.809C596.982 262.578 612.667 262.859 631.996 263.455C651.326 264.05 666.978 264.712 666.978 264.96H666.962Z" fill="#E0E0E0"/>
<path d="M666.615 276.592C666.615 276.823 650.931 276.542 631.617 275.946C612.287 275.351 596.635 274.689 596.635 274.441C596.635 274.209 612.32 274.49 631.65 275.086C650.98 275.682 666.632 276.344 666.632 276.592H666.615Z" fill="#E0E0E0"/>
<path d="M633.893 287.23C633.893 287.462 625.465 287.396 615.075 287.082C604.684 286.767 596.273 286.32 596.273 286.072C596.273 285.841 604.701 285.907 615.091 286.221C625.482 286.536 633.893 286.982 633.893 287.23Z" fill="#E0E0E0"/>
<path d="M402.985 91.5389L373.738 165.232L465.615 201.929L494.863 128.236L402.985 91.5389Z" fill="white"/>
<path d="M494.857 128.244C494.857 128.244 494.709 128.195 494.412 128.079C494.115 127.963 493.686 127.798 493.125 127.566C491.987 127.119 490.321 126.457 488.144 125.597C483.79 123.86 477.407 121.328 469.326 118.118C453.179 111.682 430.221 102.549 402.925 91.6787L403.123 91.596C394.431 113.535 384.453 138.668 373.897 165.29L373.798 165.075C407.807 178.675 439.424 191.299 465.664 201.806L465.483 201.889C474.323 179.701 481.646 161.302 486.775 148.446C489.348 142.01 491.36 136.98 492.729 133.539C493.422 131.818 493.95 130.511 494.296 129.618C494.659 128.724 494.857 128.261 494.857 128.261C494.857 128.261 494.692 128.708 494.346 129.601C493.999 130.495 493.488 131.802 492.812 133.522C491.459 136.964 489.464 142.01 486.94 148.43C481.844 161.319 474.554 179.767 465.747 202.004L465.697 202.137L465.565 202.087C439.308 191.614 407.691 178.99 373.683 165.422L373.534 165.356L373.6 165.207C384.172 138.602 394.15 113.453 402.859 91.5298L402.908 91.3975L403.04 91.4471C430.353 102.384 453.327 111.6 469.474 118.069C477.523 121.312 483.889 123.86 488.227 125.597C490.387 126.474 492.053 127.136 493.175 127.599C493.735 127.831 494.148 127.996 494.445 128.112C494.725 128.228 494.873 128.294 494.873 128.294L494.857 128.244Z" fill="#E0E0E0"/>
<path d="M404.248 97.5096L378.686 161.918L464.112 196.039L489.675 131.63L404.248 97.5096Z" fill="#EBEBEB"/>
<path d="M379.026 162.129L424.745 134.002L433.288 166.431L451.15 158.059L464.444 196.246L379.026 162.129Z" fill="#E0E0E0"/>
<path d="M453.031 139.611C451.546 143.334 447.341 145.154 443.63 143.665C439.919 142.176 438.104 137.956 439.589 134.234C441.073 130.511 445.279 128.691 448.99 130.18C452.701 131.669 454.515 135.888 453.031 139.611Z" fill="#E0E0E0"/>
<path d="M163.38 209.83C163.38 209.83 164.023 210.26 165.343 210.161C165.986 210.078 166.794 209.797 167.454 209.102C168.08 208.424 168.542 207.332 169.202 206.256C171.758 201.789 175.403 195.403 179.889 187.527C181.027 185.558 182.215 183.49 183.452 181.322C184.079 180.247 184.705 179.138 185.349 178.03C185.662 177.467 186.041 176.905 186.223 176.359C186.404 175.796 186.421 175.167 186.272 174.588C186.124 174.009 185.794 173.48 185.332 173.083C184.887 172.719 184.211 172.404 183.633 172.073C182.429 171.395 181.209 170.717 179.972 170.022C177.481 168.632 174.942 167.192 172.319 165.72C161.846 159.813 150.334 153.344 138.245 146.544C136.909 145.766 135.078 146.279 134.237 147.553C133.379 149.025 132.521 150.481 131.68 151.937C129.982 154.866 128.316 157.745 126.666 160.574C123.368 166.233 120.201 171.693 117.166 176.905C116.787 177.55 116.408 178.195 116.045 178.841C115.666 179.436 115.501 180.065 115.517 180.727C115.55 181.372 115.781 182.017 116.193 182.497C116.573 183.01 117.183 183.275 117.826 183.655C120.3 185.062 122.708 186.418 125.034 187.742C129.668 190.389 134.006 192.838 137.964 195.088C145.815 199.589 152.181 203.229 156.651 205.793C158.811 207.051 160.51 208.043 161.714 208.738C162.258 209.069 162.687 209.317 163.017 209.516C163.314 209.698 163.462 209.797 163.446 209.814C163.446 209.814 163.281 209.748 162.968 209.599C162.621 209.417 162.176 209.185 161.615 208.887C160.395 208.225 158.663 207.282 156.469 206.074C151.967 203.576 145.551 200.002 137.651 195.618C133.676 193.401 129.338 190.968 124.671 188.354C122.345 187.047 119.921 185.69 117.447 184.301C116.87 183.953 116.111 183.639 115.6 182.977C115.072 182.365 114.775 181.554 114.742 180.743C114.709 179.933 114.956 179.089 115.369 178.427C115.748 177.782 116.111 177.136 116.49 176.491C119.508 171.279 122.659 165.803 125.941 160.128C127.574 157.298 129.256 154.403 130.938 151.474C131.796 150.002 132.653 148.529 133.528 147.023C134.583 145.402 136.925 144.74 138.657 145.749C150.73 152.566 162.225 159.069 172.698 164.992C175.304 166.481 177.861 167.92 180.335 169.327C181.572 170.022 182.792 170.717 183.996 171.395C184.59 171.759 185.184 172.007 185.81 172.504C186.388 173 186.8 173.662 186.981 174.373C187.163 175.085 187.13 175.846 186.915 176.541C186.668 177.252 186.272 177.765 185.975 178.328C185.332 179.436 184.689 180.545 184.062 181.604C182.809 183.755 181.605 185.806 180.45 187.775C175.865 195.585 172.138 201.922 169.515 206.372C168.823 207.448 168.377 208.49 167.668 209.235C166.942 209.946 166.068 210.227 165.392 210.277C164.699 210.327 164.188 210.178 163.875 210.029C163.561 209.896 163.413 209.781 163.413 209.781L163.38 209.83Z" fill="#E0E0E0"/>
<path d="M154.672 175.912L158.828 183.324L150.251 183.473L141.675 183.639L146.095 176.077L150.515 168.516L154.672 175.912Z" fill="#E0E0E0"/>
<path d="M714 491.37C714 491.618 556.244 491.833 361.692 491.833C167.14 491.833 9.35156 491.634 9.35156 491.37C9.35156 491.105 167.074 490.906 361.692 490.906C556.31 490.906 714 491.105 714 491.37Z" fill="#263238"/>
<path d="M183.766 386.255L133.957 336.073L158.993 289.944C184.029 257.796 237.038 259.864 237.038 259.864C237.038 259.864 273.108 256.373 315.199 264.596C357.305 272.819 353.908 300.765 353.908 300.765L359.548 404.29L365.601 488.59L210.319 491.733L183.766 386.255Z" fill="#142C5B"/>
<path d="M267.418 486.885L128.332 488.59C94.9175 489.003 72.619 454.142 86.9184 423.83L146.392 313.19L200.555 349.922L163.611 426.842L276.209 428.86L267.435 486.869L267.418 486.885Z" fill="#142C5B"/>
<path d="M348.943 283.955L460.552 456.822L395.437 461.091C395.437 461.091 356.547 399.624 357.437 400.898C359.021 403.198 348.943 283.955 348.943 283.955Z" fill="#142C5B"/>
<path d="M197.752 359.865C197.752 359.865 197.784 359.551 197.9 358.972C198.065 358.31 198.246 357.483 198.494 356.474C199.005 354.306 199.764 351.162 200.539 347.241C201.314 343.336 202.155 338.654 202.716 333.409C203.244 328.181 203.574 322.357 202.782 316.367C201.891 310.394 199.648 304.967 197.026 300.45C194.387 295.917 191.435 292.194 188.746 289.266C186.058 286.337 183.683 284.153 181.984 282.714C180.302 281.258 179.329 280.497 179.378 280.43C179.395 280.414 179.659 280.579 180.137 280.91C180.615 281.258 181.341 281.737 182.199 282.449C183.963 283.822 186.421 285.957 189.192 288.852C191.962 291.747 195.014 295.47 197.719 300.053C200.423 304.62 202.732 310.13 203.64 316.251C204.448 322.373 204.085 328.247 203.524 333.508C202.914 338.77 202.007 343.469 201.149 347.374C200.291 351.278 199.45 354.405 198.824 356.556C198.51 357.632 198.263 358.459 198.081 359.022C197.9 359.584 197.784 359.865 197.752 359.865Z" fill="#263238"/>
<path d="M193.282 365.822C193.282 365.822 192.985 366.732 192.326 368.32C191.666 369.909 190.66 372.192 189.406 374.988C186.883 380.597 183.304 388.307 179.181 396.745C175.057 405.184 171.165 412.745 168.279 418.172C166.844 420.885 165.656 423.069 164.799 424.575C163.957 426.081 163.463 426.891 163.413 426.858C163.364 426.825 163.743 425.965 164.502 424.41C165.326 422.738 166.415 420.538 167.734 417.874C170.522 412.232 174.266 404.687 178.405 396.332C182.463 387.943 186.124 380.365 188.862 374.69C190.148 372.026 191.22 369.809 192.029 368.138C192.787 366.599 193.233 365.756 193.282 365.772V365.822Z" fill="#263238"/>
<path d="M267.418 486.885C267.418 486.885 267.418 486.786 267.418 486.588C267.435 486.356 267.451 486.075 267.484 485.744C267.567 484.95 267.682 483.841 267.814 482.451C268.144 479.506 268.589 475.32 269.183 470.042C270.42 459.354 272.152 444.281 274.197 426.527L274.593 426.974C262.074 426.974 248.154 426.991 233.508 427.007C205.454 426.958 180.071 426.908 161.632 426.875C152.478 426.825 145.056 426.776 139.844 426.743C137.321 426.709 135.342 426.676 133.923 426.66C133.28 426.643 132.769 426.627 132.39 426.61C132.043 426.61 131.862 426.577 131.862 426.56C131.862 426.544 132.043 426.527 132.39 426.511C132.785 426.511 133.297 426.478 133.923 426.461C135.342 426.445 137.321 426.412 139.844 426.379C145.04 426.345 152.478 426.296 161.632 426.246C180.071 426.213 205.454 426.163 233.508 426.114C248.154 426.114 262.074 426.147 274.593 426.147H275.038L274.988 426.594C272.811 444.33 270.981 459.387 269.678 470.075C269.001 475.337 268.474 479.523 268.094 482.468C267.896 483.858 267.748 484.95 267.649 485.744C267.6 486.091 267.55 486.356 267.517 486.588C267.484 486.77 267.468 486.869 267.451 486.869L267.418 486.885Z" fill="#263238"/>
<path d="M164.584 428.033C164.469 428.099 163.512 426.693 161.813 424.542C160.115 422.407 157.575 419.578 154.391 416.881C151.208 414.184 148.009 412.149 145.617 410.825C143.226 409.485 141.675 408.79 141.725 408.658C141.758 408.559 143.407 409.072 145.898 410.279C148.388 411.487 151.703 413.473 154.936 416.219C158.168 418.966 160.692 421.911 162.292 424.161C163.908 426.428 164.667 427.967 164.584 428.016V428.033Z" fill="#263238"/>
<path d="M361.874 438.986C361.874 438.986 361.775 438.489 361.659 437.563C361.544 436.554 361.395 435.18 361.197 433.443C360.818 429.869 360.307 424.691 359.763 418.271C358.641 405.448 357.338 387.728 356.167 368.121C355.013 348.515 354.204 330.762 353.743 317.906C353.512 311.469 353.347 306.274 353.281 302.684C353.248 300.946 353.231 299.557 353.215 298.547C353.215 297.604 353.215 297.108 353.248 297.108C353.281 297.108 353.33 297.604 353.38 298.547C353.429 299.573 353.512 300.946 353.611 302.684C353.792 306.357 354.039 311.536 354.353 317.906C354.98 330.762 355.87 348.498 357.025 368.105C358.179 387.695 359.383 405.431 360.356 418.254C360.851 424.608 361.247 429.77 361.527 433.443C361.659 435.18 361.758 436.554 361.824 437.579C361.89 438.523 361.907 439.019 361.874 439.019V438.986Z" fill="#263238"/>
<path d="M272.069 447.606C272.069 447.606 299.827 439.582 308.997 437.232C312.576 436.322 327.898 444.43 338.487 451.164C338.487 451.164 353.067 459.834 351.879 462.514C350.576 465.459 345.199 464.847 336.639 460.81C336.639 460.81 339.625 469.529 333.753 469.331C333.753 469.331 336.672 478.745 331.164 479.721C325.655 480.697 324.369 468.685 319.503 468.024C314.654 467.378 304.61 466.716 304.61 466.716C304.61 466.716 296.248 480.598 289.783 481.574C283.301 482.551 268.309 480.797 268.309 480.797L272.053 447.59L272.069 447.606Z" fill="#FFBE9D"/>
<path d="M319.437 449.526C319.569 449.327 323.033 451.296 327.189 453.927C331.345 456.557 334.611 458.841 334.479 459.056C334.347 459.254 330.883 457.285 326.727 454.655C322.571 452.024 319.305 449.741 319.437 449.526Z" fill="#EB996E"/>
<path d="M317.805 454.887C317.904 454.672 322.027 456.359 327.008 458.676C331.989 460.975 335.947 463.027 335.848 463.242C335.749 463.457 331.626 461.77 326.645 459.453C321.664 457.153 317.706 455.102 317.805 454.887Z" fill="#EB996E"/>
<path d="M320.773 467.858C320.806 467.627 323.61 467.809 327.041 468.288C330.471 468.752 333.225 469.331 333.192 469.562C333.16 469.794 330.356 469.612 326.925 469.132C323.495 468.669 320.74 468.09 320.773 467.858Z" fill="#EB996E"/>
<path d="M235.983 160.459C236.626 162.593 235.9 165.075 234.201 166.498C232.502 167.937 229.93 168.218 227.95 167.226C224.19 165.306 223.712 160.111 224.454 155.942C225.196 151.772 226.598 147.338 224.866 143.483C223.53 140.538 220.644 138.668 218.401 136.352C214.476 132.315 212.397 126.424 213.354 120.865C214.311 115.306 218.467 110.309 223.877 108.803C229.402 107.248 236.213 108.952 240.32 104.948C243.305 102.036 243.487 97.2712 245.796 93.8132C249.375 88.4194 256.945 87.5755 263.344 88.4525C269.744 89.3294 276.242 91.381 282.509 89.8257C287.738 88.5186 292.042 84.8621 296.941 82.6119C307.562 77.731 321.153 80.3782 329.185 88.8826C337.233 97.387 339.13 111.136 333.72 121.527C331.774 125.266 328.838 128.642 324.962 130.23" fill="#263238"/>
<path d="M267.797 297.125C285.511 297.108 299.794 282.565 299.563 264.795L299.151 234.384C299.151 234.384 324.616 231.82 326.315 206.505C327.997 181.19 326.777 122.784 326.777 122.784C298.227 108.588 264.251 110.987 237.978 129.088L234.086 131.769L235.982 265.688C236.23 283.144 250.414 297.158 267.814 297.125H267.797Z" fill="#FFBE9D"/>
<path d="M320.08 168.616C315.594 167.722 315.627 161.915 320.13 161.087C320.328 161.054 320.542 161.054 320.74 161.087C325.226 161.981 325.193 167.788 320.691 168.616C320.493 168.649 320.278 168.649 320.08 168.616Z" fill="#263238"/>
<path d="M325.028 160.542C324.616 160.955 322.241 158.904 318.761 158.705C315.281 158.44 312.659 160.161 312.296 159.698C312.114 159.483 312.56 158.722 313.698 157.944C314.819 157.166 316.716 156.471 318.893 156.604C321.054 156.753 322.851 157.696 323.857 158.622C324.896 159.549 325.226 160.376 325.012 160.558L325.028 160.542Z" fill="#263238"/>
<path d="M284.802 161.385C286.468 162.543 286.88 164.843 285.726 166.514C284.571 168.185 282.278 168.599 280.613 167.441C278.947 166.283 278.535 163.983 279.689 162.312C280.844 160.641 283.136 160.227 284.802 161.385Z" fill="#263238"/>
<path d="M287.094 161.551C286.682 161.964 284.307 159.913 280.827 159.714C277.347 159.45 274.725 161.17 274.362 160.707C274.18 160.492 274.626 159.731 275.764 158.953C276.885 158.176 278.782 157.481 280.959 157.613C283.12 157.762 284.917 158.705 285.923 159.632C286.962 160.558 287.292 161.385 287.094 161.567V161.551Z" fill="#263238"/>
<path d="M299.464 191.084C299.464 190.803 301.625 190.489 305.154 190.191C306.078 190.141 306.787 189.976 306.886 189.479C307.084 188.933 306.787 187.941 306.375 186.832C305.6 184.483 304.824 182.084 304.016 179.585C300.767 169.277 298.557 160.789 299.068 160.624C299.596 160.459 302.647 168.682 305.896 178.99C306.655 181.504 307.397 183.904 308.107 186.27C308.387 187.345 308.948 188.603 308.403 190.092C308.107 190.836 307.364 191.333 306.754 191.465C306.144 191.614 305.633 191.581 305.187 191.581C301.658 191.515 299.464 191.333 299.448 191.068L299.464 191.084Z" fill="#263238"/>
<path d="M287.969 194.327C292.422 196.395 297.732 198.976 304.758 200.234C304.758 200.234 300.338 206.521 293.213 203.444C285.808 200.25 287.985 194.327 287.985 194.327H287.969Z" fill="white"/>
<path d="M299.2 234.004C299.2 234.004 283.169 234.434 266.792 222.819C266.792 222.819 273.587 241.482 298.903 240.572L299.2 234.004Z" fill="#EB996E"/>
<path d="M326.942 129.171C326.942 129.171 311.702 136.948 291.482 127.302C278.221 120.981 262.833 118.069 259.518 120.783C256.203 123.496 255.741 137.097 242.811 141.316C242.811 141.316 244.212 167.209 233.888 166.481C223.563 165.753 229.237 125.498 229.237 125.498L254.191 112.659L281.586 106.917L307.562 110.078L327.717 115.19L326.958 129.171H326.942Z" fill="#263238"/>
<path d="M235.768 158.159C235.356 157.944 218.698 152.053 218.302 169.41C217.906 186.766 235.356 183.573 235.405 183.076C235.438 182.58 235.768 158.159 235.768 158.159Z" fill="#FFBE9D"/>
<path d="M230.276 176.392C230.276 176.392 229.963 176.59 229.451 176.822C228.957 177.037 228.099 177.169 227.192 176.822C225.378 176.11 223.91 173.165 223.893 170.038C223.893 168.45 224.24 166.961 224.833 165.736C225.394 164.479 226.235 163.618 227.159 163.47C228.083 163.271 228.726 163.85 228.924 164.346C229.138 164.843 229.023 165.174 229.122 165.207C229.171 165.256 229.501 164.926 229.369 164.198C229.303 163.85 229.105 163.436 228.709 163.089C228.297 162.742 227.703 162.559 227.06 162.609C225.724 162.675 224.504 163.883 223.86 165.223C223.151 166.58 222.706 168.268 222.706 170.038C222.739 173.529 224.454 176.855 226.928 177.632C228.132 177.98 229.155 177.632 229.699 177.235C230.243 176.822 230.342 176.441 230.276 176.408V176.392Z" fill="#EB996E"/>
<path d="M226.961 103.84C226.862 103.641 229.699 102.83 232.964 104.055C236.23 105.263 237.846 107.744 237.648 107.827C237.467 108.009 235.686 105.957 232.667 104.865C229.666 103.707 226.994 104.088 226.961 103.84Z" fill="#263238"/>
<path d="M237.368 93.4494C237.665 93.466 237.203 97.106 237.797 101.441C238.391 105.826 240.436 108.87 240.205 109.002C240.122 109.068 239.496 108.39 238.753 107.083C238.028 105.792 237.253 103.823 236.939 101.573C236.312 97.0233 237.187 93.4164 237.351 93.4494H237.368Z" fill="#263238"/>
<path d="M308.437 152.202C308.338 152.004 309.08 151.408 310.482 150.829C311.884 150.25 313.962 149.77 316.287 149.787C318.613 149.82 320.674 150.349 322.06 150.945C323.445 151.54 324.187 152.153 324.088 152.368C323.874 152.831 320.542 151.524 316.271 151.507C311.999 151.425 308.634 152.665 308.437 152.202Z" fill="#263238"/>
<path d="M269.859 148.563C269.76 148.364 270.502 147.768 271.904 147.189C273.306 146.61 275.384 146.13 277.71 146.147C280.035 146.18 282.097 146.709 283.482 147.305C284.868 147.901 285.61 148.513 285.511 148.728C285.297 149.191 281.965 147.884 277.693 147.868C273.422 147.785 270.057 149.026 269.859 148.563Z" fill="#263238"/>
<path d="M305.451 154.933C305.451 154.933 305.501 155.313 305.517 155.958C305.534 156.686 305.567 157.613 305.6 158.755C305.633 159.979 305.649 161.435 305.682 163.106C305.682 164.777 305.781 166.73 306.507 168.732C307.199 170.717 308.387 172.769 310.152 174.506C311.933 176.21 314.258 177.633 316.963 178.262C318.316 178.576 319.734 178.742 321.186 178.626C322.637 178.56 324.105 178.262 325.507 177.716C328.327 176.673 330.883 174.638 332.615 171.941C334.265 169.377 335.007 166.382 334.941 163.47C334.941 160.508 334.941 157.646 334.957 154.916L335.353 155.313C326.711 155.23 319.322 155.164 313.945 155.115C311.372 155.065 309.294 155.032 307.727 154.999C307.068 154.982 306.507 154.966 306.045 154.949C305.666 154.949 305.451 154.916 305.435 154.899C305.402 154.866 306.144 154.833 307.562 154.8C309.096 154.767 311.141 154.734 313.681 154.684C319.107 154.635 326.595 154.569 335.353 154.486H335.749V154.883C335.749 157.613 335.749 160.475 335.765 163.437C335.864 166.448 335.073 169.675 333.324 172.372C331.494 175.217 328.772 177.385 325.787 178.46C324.303 179.039 322.752 179.337 321.219 179.403C319.685 179.503 318.184 179.337 316.765 178.99C313.912 178.311 311.471 176.789 309.64 174.969C307.81 173.116 306.606 170.965 305.913 168.864C305.204 166.763 305.138 164.744 305.187 163.007C305.22 161.303 305.253 159.813 305.27 158.556C305.303 157.431 305.336 156.521 305.352 155.793C305.369 155.164 305.402 154.866 305.418 154.883L305.451 154.933Z" fill="#263238"/>
<path d="M265.01 154.072C265.01 154.072 265.06 154.453 265.076 155.098C265.093 155.826 265.126 156.753 265.159 157.894C265.192 159.119 265.208 160.575 265.241 162.246C265.241 163.917 265.34 165.869 266.066 167.871C266.759 169.857 267.946 171.908 269.711 173.646C271.492 175.35 273.818 176.773 276.522 177.401C277.875 177.716 279.293 177.881 280.745 177.765C282.196 177.699 283.664 177.401 285.066 176.855C287.886 175.813 290.442 173.778 292.174 171.081C293.824 168.516 294.566 165.522 294.5 162.61C294.5 159.648 294.5 156.786 294.516 154.056L294.912 154.453C286.27 154.37 278.881 154.304 273.504 154.254C270.931 154.205 268.853 154.171 267.286 154.138C266.627 154.122 266.066 154.105 265.604 154.089C265.225 154.089 265.01 154.056 264.994 154.039C264.961 154.006 265.703 153.973 267.121 153.94C268.655 153.907 270.7 153.874 273.24 153.824C278.666 153.774 286.154 153.708 294.912 153.625H295.308V154.023C295.308 156.753 295.308 159.615 295.324 162.577C295.423 165.588 294.632 168.814 292.883 171.511C291.053 174.357 288.331 176.525 285.346 177.6C283.862 178.179 282.311 178.477 280.778 178.543C279.244 178.642 277.743 178.477 276.324 178.129C273.471 177.451 271.03 175.929 269.199 174.109C267.369 172.256 266.165 170.105 265.472 168.004C264.763 165.902 264.697 163.884 264.746 162.146C264.779 160.442 264.812 158.953 264.829 157.696C264.862 156.571 264.895 155.661 264.911 154.933C264.928 154.304 264.961 154.006 264.977 154.023L265.01 154.072Z" fill="#263238"/>
<path d="M305.814 156.141C305.814 156.372 303.258 156.571 300.124 156.571C296.99 156.571 294.434 156.372 294.434 156.141C294.434 155.909 296.99 155.71 300.124 155.71C303.258 155.71 305.814 155.909 305.814 156.141Z" fill="#263238"/>
<path d="M233.476 156.372C233.476 156.14 240.535 155.925 249.243 155.892C257.951 155.859 265.01 156.041 265.01 156.273C265.01 156.504 257.951 156.719 249.243 156.752C240.535 156.786 233.476 156.604 233.476 156.372Z" fill="#263238"/>
<path d="M550.373 176.922L501.273 159.235L452.651 176.69C446.45 179.636 441.007 181.389 441.007 187.197V216.085C441.007 236.139 446.252 256.026 457.022 273.564C466.093 288.323 480.129 303.528 501.751 313.191C521.625 306.722 536.453 289.448 545.524 274.69C556.294 257.135 561.538 237.264 561.538 217.21V191.234C561.538 182.961 557.168 178.924 550.373 176.939V176.922Z" fill="#142C5B"/>
<g opacity="0.3">
<path d="M501.751 296.413C484.648 288.769 473.532 276.476 466.357 264.795C457.83 250.913 453.69 235.195 453.69 219.311V199.059C453.69 194.476 456.445 190.175 461.937 187.61L501.289 172.851V159.234L452.651 176.69C447.555 178.924 441.007 181.389 441.007 187.196V216.085C441.007 236.138 446.252 256.026 457.022 273.564C466.093 288.323 480.129 303.528 501.751 313.191V296.43V296.413Z" fill="black"/>
</g>
<g opacity="0.4">
<path d="M501.751 313.174C505.198 312.016 508.365 310.692 511.4 309.021C519.547 304.57 526.507 298.448 531.818 292.906C537.755 286.718 542.176 280.017 546.018 273.763C556.788 256.208 562.033 236.336 561.555 215.737L561.588 191.895C561.555 180.016 555.485 179.139 550.389 176.905L501.289 159.218V172.835L541.12 187.842C546.596 190.406 549.366 194.708 549.366 199.291V219.543C549.366 235.41 545.227 251.128 536.7 265.026C529.525 276.708 518.887 288.753 501.784 296.397V313.157L501.751 313.174Z" fill="black"/>
</g>
<path opacity="0.5" d="M514.302 218.021L514.352 214.116C514.352 207.067 508.629 201.326 501.603 201.326C494.577 201.326 488.854 207.067 488.854 214.099L488.804 218.07C485.357 218.583 482.718 221.545 482.718 225.135V248.133C482.718 252.088 485.918 255.298 489.843 255.298H513.643C517.585 255.298 520.784 252.088 520.784 248.133V225.135C520.784 221.396 517.931 218.335 514.302 218.004V218.021ZM505.017 242.409H498.799L499.772 237.908C498.7 237.23 497.974 236.039 497.974 234.682C497.974 232.581 499.673 230.876 501.768 230.876C503.862 230.876 505.561 232.581 505.561 234.682C505.561 236.006 504.901 237.164 503.879 237.842C504.324 239.596 505.017 242.425 505.017 242.425V242.409ZM511.565 217.988H491.559L491.608 214.116C491.608 208.59 496.094 204.089 501.603 204.089C507.111 204.089 511.598 208.59 511.598 214.099L511.548 217.988H511.565Z" fill="white"/>
<path d="M461.64 217.739C461.525 217.739 461.195 216.233 460.898 213.735C460.601 211.237 460.387 207.762 460.502 203.924C460.551 202.004 460.683 200.184 460.848 198.53C461.013 196.875 461.31 195.336 461.953 194.178C462.58 193.02 463.454 192.325 464.098 192.011C464.757 191.696 465.186 191.713 465.186 191.763C465.268 191.878 463.52 192.209 462.498 194.46C461.986 195.535 461.755 196.974 461.64 198.612C461.508 200.25 461.409 202.054 461.36 203.957C461.244 207.762 461.36 211.204 461.508 213.685C461.64 216.184 461.772 217.723 461.64 217.739Z" fill="white"/>
<path d="M462.366 230.314C462.135 230.314 461.92 229.139 461.887 227.667C461.855 226.194 462.019 225.003 462.267 225.003C462.498 225.003 462.712 226.178 462.745 227.65C462.778 229.123 462.613 230.314 462.366 230.314Z" fill="white"/>
<path d="M410.561 349.425L355.821 485.248H257.094V491.369H551.131L611.265 349.425H410.561Z" fill="#263238"/>
<path d="M494.247 429.605C492.268 436.438 486.495 440.757 481.349 439.267C476.204 437.762 473.647 431.011 475.626 424.178C477.605 417.345 483.378 413.026 488.524 414.515C493.67 416.021 496.226 422.772 494.247 429.605Z" fill="#FAFAFA"/>
</g>
<defs>
<clipPath id="clip0_150_6152">
<rect width="714" height="494" fill="white"/>
</clipPath>
</defs>
</svg>
