<svg width="366" height="208" viewBox="0 0 366 208" fill="none" xmlns="http://www.w3.org/2000/svg">
<g clip-path="url(#clip0_155_926)">
<path d="M102.21 8.92436C103.701 8.30064 104.761 6.76176 104.767 4.94891C104.779 2.57646 102.979 0.641197 100.754 0.629539C98.5296 0.617881 96.7183 2.53566 96.7125 4.9081C96.7067 6.73844 97.7725 8.29481 99.2809 8.92436C93.0842 9.85701 93.3637 16.6013 93.3637 16.6013L108.017 16.6712C108.017 16.6712 108.349 9.85701 102.21 8.93019V8.92436Z" fill="#E0E0E0"/>
<path d="M340.153 44.3886L333.351 37.0673L335.553 35.0154L340.247 40.0751L350.107 30.3638L352.215 32.5089L340.153 44.3886Z" fill="#F5F5F5"/>
<path d="M241.571 84.4055C241.571 79.4041 236.318 76.2331 230.96 78.7396C229.749 79.305 228.747 80.2668 228.141 81.4443C226.796 84.0557 227.39 87.0402 228.613 89.5176L232.783 100.092C233.383 101.613 235.544 101.607 236.132 100.08L240.22 89.4535C241.635 86.2183 241.577 84.4113 241.577 84.4113L241.571 84.4055ZM236.54 88.7598C232.94 90.8525 229.289 86.9819 231.263 83.1581C231.525 82.6509 231.927 82.2254 232.405 81.9456C236.004 79.8471 239.655 83.7235 237.681 87.5474C237.419 88.0545 237.017 88.48 236.54 88.7598Z" fill="#EBEBEB"/>
<path d="M303.509 157.048C292.286 146.789 291.646 130.525 294.086 116.32C294.494 113.947 294.575 111.4 296.002 109.471C297.435 107.535 300.306 106.48 302.327 107.78C304.004 108.859 304.505 111.027 305.274 112.863C306.299 115.311 308.028 117.456 310.201 118.978C311.628 119.975 313.462 120.721 315.093 120.103C317.329 119.258 317.964 116.448 318.273 114.076C318.849 109.657 319.426 105.239 319.997 100.814C320.305 98.4419 320.626 96.0229 321.68 93.8778C322.734 91.7326 324.667 89.8673 327.032 89.5526C329.402 89.2378 332.046 90.9224 332.209 93.3065C332.279 94.2975 331.942 95.2767 331.872 96.2677C331.802 97.2586 332.122 98.4128 333.025 98.815C333.945 99.223 334.993 98.6809 335.809 98.0922C338.61 96.0404 340.712 93.1899 342.698 90.3395C344.69 87.4891 346.641 84.5628 349.244 82.2603C351.848 79.9578 355.237 78.3199 358.697 78.5997C362.156 78.8795 365.534 81.4792 365.942 84.9301C366.355 88.3926 363.921 91.5053 361.405 93.9186C357.672 97.4918 353.42 100.523 348.825 102.884C347.998 103.309 347.101 103.77 346.688 104.609C345.954 106.119 347.253 107.897 348.761 108.631C350.468 109.465 352.436 109.546 354.276 110.024C356.117 110.497 358.033 111.592 358.499 113.434C359.151 115.993 356.752 118.249 354.509 119.631C350.013 122.405 345.04 124.399 339.88 125.506C338.028 125.903 336.094 126.206 334.504 127.238C332.914 128.269 331.767 130.281 332.396 132.064C333.025 133.854 335.162 134.693 337.055 134.606C338.948 134.524 340.742 133.761 342.588 133.341C346.053 132.566 350.275 133.376 352.005 136.477C353.141 138.517 352.908 141.111 351.906 143.221C350.904 145.331 349.221 147.033 347.468 148.578C341.347 153.976 333.91 157.975 325.908 159.543C317.906 161.111 310.725 160.843 303.497 157.054" fill="#EBEBEB"/>
<path d="M304.4 162.83C305.699 157.252 305.373 155.532 308.494 148.631C311.604 141.723 315.652 134.431 320.148 126.952C321.278 125.087 322.396 123.245 323.497 121.426C324.598 119.613 325.693 117.818 326.875 116.127C329.222 112.735 331.738 109.651 334.219 106.795C336.7 103.939 339.163 101.316 341.481 98.8849C343.805 96.4542 346.018 94.2275 348.121 92.2864C352.314 88.3867 356.07 85.6412 358.72 83.8575C360.048 82.9598 361.096 82.3011 361.818 81.8581C362.168 81.6483 362.442 81.4851 362.64 81.3626C362.826 81.2519 362.925 81.2053 362.925 81.2053C362.925 81.2053 362.838 81.2752 362.657 81.3976C362.465 81.5259 362.197 81.7007 361.859 81.9222C361.155 82.3827 360.118 83.0647 358.802 83.9741C356.175 85.7928 352.454 88.5558 348.295 92.4729C346.21 94.4198 344.015 96.6524 341.697 99.089C339.39 101.531 336.939 104.154 334.469 107.011C332 109.867 329.496 112.945 327.16 116.326C325.99 118.01 324.9 119.794 323.8 121.613C322.699 123.431 321.581 125.273 320.451 127.139C315.955 134.617 311.907 141.886 308.791 148.77C305.658 155.643 305.967 157.333 304.639 162.889" fill="#E0E0E0"/>
<path d="M326.974 116.104C326.974 116.104 326.921 115.731 326.892 115.061C326.863 114.39 326.846 113.417 326.84 112.21C326.828 109.803 326.927 106.48 327.044 102.82C327.16 99.1531 327.195 95.8363 327.137 93.4406C327.108 92.2398 327.079 91.2721 327.044 90.596C327.015 89.9256 327.009 89.5526 327.032 89.5526C327.055 89.5526 327.108 89.9198 327.183 90.5901C327.259 91.2605 327.335 92.2281 327.393 93.4347C327.521 95.8363 327.521 99.1647 327.405 102.837C327.282 106.469 327.178 109.756 327.096 112.222C327.073 113.37 327.049 114.326 327.032 115.067C327.015 115.737 326.997 116.11 326.974 116.11V116.104Z" fill="#E0E0E0"/>
<path d="M358.592 114.653C358.592 114.653 358.481 114.67 358.266 114.659C358.009 114.647 357.707 114.629 357.34 114.612C356.536 114.565 355.383 114.501 353.944 114.466C351.079 114.373 347.113 114.385 342.745 114.589C338.371 114.804 334.428 115.171 331.58 115.521C330.154 115.684 329.006 115.853 328.214 115.964C327.853 116.011 327.55 116.052 327.3 116.087C327.09 116.11 326.979 116.116 326.974 116.104C326.974 116.092 327.078 116.063 327.288 116.011C327.539 115.958 327.836 115.894 328.191 115.819C328.977 115.667 330.124 115.457 331.545 115.259C334.388 114.845 338.342 114.437 342.727 114.221C347.107 114.011 351.085 114.041 353.956 114.204C355.389 114.274 356.553 114.379 357.351 114.466C357.718 114.513 358.015 114.548 358.272 114.583C358.481 114.612 358.592 114.635 358.592 114.647V114.653Z" fill="#E0E0E0"/>
<path d="M308.919 148.106C308.919 148.106 308.855 147.972 308.768 147.704C308.669 147.395 308.547 147.01 308.395 146.526C308.075 145.506 307.656 144.014 307.155 142.166C306.153 138.47 304.924 133.323 303.637 127.628C302.35 121.927 301.162 116.78 300.224 113.073C299.758 111.254 299.374 109.768 299.094 108.684C298.972 108.194 298.867 107.798 298.792 107.489C298.727 107.215 298.698 107.069 298.71 107.063C298.722 107.063 298.774 107.197 298.861 107.465C298.955 107.769 299.077 108.159 299.228 108.643C299.549 109.663 299.968 111.155 300.469 113.003C301.471 116.699 302.699 121.846 303.987 127.547C305.274 133.242 306.462 138.395 307.399 142.102C307.865 143.921 308.25 145.407 308.529 146.491C308.651 146.981 308.756 147.377 308.832 147.686C308.896 147.96 308.925 148.106 308.914 148.112L308.919 148.106Z" fill="#E0E0E0"/>
<path d="M351.679 140.697C351.679 140.697 351.533 140.744 351.248 140.796C350.928 140.855 350.514 140.924 350.002 141.018C348.872 141.21 347.323 141.478 345.418 141.805C341.551 142.475 336.216 143.466 330.334 144.573C324.446 145.681 319.1 146.637 315.221 147.243C313.282 147.546 311.709 147.779 310.62 147.919C310.108 147.984 309.688 148.036 309.362 148.077C309.077 148.106 308.925 148.118 308.919 148.106C308.919 148.094 309.065 148.059 309.35 148.007C309.671 147.949 310.084 147.873 310.597 147.785C311.721 147.593 313.276 147.325 315.18 146.998C319.047 146.328 324.382 145.337 330.27 144.23C336.158 143.122 341.499 142.166 345.383 141.56C347.323 141.257 348.895 141.024 349.984 140.884C350.497 140.82 350.916 140.767 351.242 140.726C351.527 140.697 351.679 140.685 351.685 140.697H351.679Z" fill="#E0E0E0"/>
<path d="M1.19395 85.513C1.19395 85.513 4.66502 81.5609 12.5739 90.287C20.4829 99.0132 24.0238 104.318 24.0238 104.318C24.0238 104.318 25.9632 106.066 27.0406 104.283C28.118 102.499 29.0441 98.0223 31.7114 98.0572C34.4778 98.0922 36.1027 100.733 36.7608 105.075C37.4189 109.424 39.201 118.896 39.3699 119.747C39.533 120.587 40.3309 121.671 41.2627 120.575C42.1945 119.479 46.778 110.357 50.9712 112.793C55.1644 115.23 55.0072 127.64 55.013 128.998C55.0188 130.356 55.4149 130.828 56.1021 130.98C56.7893 131.132 58.0415 127.92 59.4509 125.378C60.8603 122.837 62.9394 120.138 65.2457 121.747C67.552 123.356 70.4523 131.843 66.0494 148.112L63.516 155.515L55.8342 157.153C39.1777 159.659 31.0883 155.8 29.7546 153.323C28.4209 150.851 31.3387 149.091 34.0235 147.978C36.7084 146.87 40.0397 145.99 39.9698 145.29C39.8999 144.591 39.4747 144.142 38.1294 143.979C36.7841 143.816 24.449 142.551 22.5096 138.097C20.5702 133.65 30.1506 130.135 31.3503 129.336C32.5442 128.538 31.56 127.617 30.7446 127.36C29.9118 127.098 20.7216 124.236 16.4818 123.082C12.242 121.933 9.81339 120.01 10.0929 117.258C10.3667 114.6 14.9152 114.198 16.8079 113.329C18.7007 112.461 17.1865 110.333 17.1865 110.333C17.1865 110.333 12.3235 106.2 4.57183 97.3344C-3.17984 88.4684 1.26383 85.4197 1.26383 85.4197" fill="#EBEBEB"/>
<path d="M8.2876 93.3123C8.2876 93.3123 8.34584 93.359 8.43902 93.4639C8.54385 93.5805 8.68363 93.732 8.86417 93.9302C9.24855 94.3558 9.79017 94.962 10.4832 95.7373C11.8926 97.3228 13.9135 99.5961 16.4004 102.4C21.4264 108.019 28.3569 115.76 36.0096 124.312C43.6855 132.857 50.5986 140.627 55.5547 146.287C58.0124 149.12 60.0101 151.411 61.402 153.014C62.0776 153.807 62.6017 154.425 62.9744 154.856C63.1433 155.06 63.2773 155.217 63.3763 155.34C63.4636 155.451 63.5102 155.509 63.5044 155.509C63.4986 155.509 63.4462 155.462 63.353 155.357C63.2482 155.241 63.1084 155.089 62.9278 154.891C62.5493 154.466 62.0018 153.859 61.3146 153.084C59.9052 151.498 57.8843 149.225 55.3975 146.421C50.4005 140.796 43.4642 133.049 35.7824 124.504C28.1065 115.964 21.1935 108.194 16.2373 102.528C13.7796 99.6952 11.782 97.3986 10.39 95.8014C9.71446 95.0086 9.19031 94.3907 8.81758 93.9594C8.64868 93.7554 8.51473 93.598 8.41572 93.4756C8.32836 93.3648 8.28177 93.3065 8.2876 93.3065V93.3123Z" fill="#E0E0E0"/>
<path d="M30.669 104.376C30.7156 104.376 30.7389 105.18 30.7738 106.48C30.8146 107.862 30.8728 109.611 30.931 111.552C30.9951 113.534 31.0417 115.329 31.0359 116.629C31.0359 117.282 31.0184 117.806 30.9951 118.168C30.9718 118.529 30.9485 118.733 30.9252 118.733C30.8786 118.733 30.867 117.929 30.8204 116.635C30.768 115.253 30.6981 113.499 30.6224 111.563C30.5583 109.581 30.535 107.786 30.5525 106.48C30.5641 105.827 30.5758 105.303 30.5991 104.941C30.6224 104.58 30.6399 104.376 30.6631 104.376H30.669Z" fill="#E0E0E0"/>
<path d="M30.2787 119.054C30.2787 119.135 26.5747 119.153 22.0029 119.089C17.4311 119.025 13.7329 118.902 13.7329 118.821C13.7329 118.739 17.4369 118.721 22.0087 118.786C26.5747 118.85 30.2787 118.972 30.2787 119.054V119.054Z" fill="#E0E0E0"/>
<path d="M44.5241 133.492C44.5241 133.492 44.3436 133.591 43.9942 133.72C43.6447 133.848 43.138 134.017 42.5032 134.221C41.2394 134.617 39.4748 135.13 37.5005 135.585C35.5261 136.046 33.7207 136.372 32.4045 136.57C31.7464 136.669 31.2164 136.739 30.8437 136.78C30.4768 136.821 30.2671 136.832 30.2671 136.809C30.2613 136.768 31.065 136.611 32.3696 136.36C33.6683 136.11 35.4621 135.754 37.4306 135.294C39.3991 134.839 41.1637 134.367 42.445 134.023C43.7204 133.673 44.5125 133.457 44.53 133.498L44.5241 133.492Z" fill="#E0E0E0"/>
<path d="M47.8029 120.289C47.8437 120.301 47.6864 121.041 47.4069 122.236C47.1215 123.431 46.708 125.069 46.2363 126.882C45.7645 128.695 45.3161 130.327 44.9783 131.505C44.6405 132.682 44.4134 133.405 44.3726 133.399C44.3318 133.387 44.4891 132.647 44.7686 131.452C45.0482 130.257 45.4675 128.619 45.9392 126.806C46.411 124.999 46.8594 123.361 47.1972 122.184C47.535 121.006 47.7621 120.284 47.8029 120.289Z" fill="#E0E0E0"/>
<path d="M62.0018 131.435C62.0018 131.435 61.9785 131.68 61.8795 132.111C61.7572 132.601 61.6116 133.207 61.4369 133.918C61.0525 135.439 60.4992 137.538 59.8703 139.852C59.2413 142.166 58.6531 144.259 58.2163 145.763C58.0066 146.468 57.8261 147.063 57.6805 147.546C57.5465 147.966 57.465 148.193 57.4417 148.188C57.4242 148.188 57.465 147.943 57.564 147.511C57.6863 147.022 57.8319 146.415 58.0066 145.704C58.391 144.183 58.9443 142.084 59.5732 139.77C60.2022 137.456 60.7904 135.369 61.2272 133.86C61.4369 133.154 61.6174 132.56 61.763 132.076C61.897 131.656 61.9785 131.429 62.0018 131.435Z" fill="#E0E0E0"/>
<path d="M57.4415 147.756C57.4415 147.756 57.2027 147.861 56.7484 148.001C56.3 148.141 55.6419 148.327 54.8324 148.543C53.2075 148.98 50.9478 149.534 48.4318 150.047C45.9159 150.56 43.6154 150.939 41.9498 151.172C41.117 151.289 40.4414 151.37 39.9697 151.423C39.5037 151.469 39.2417 151.487 39.2358 151.469C39.2358 151.446 39.4863 151.394 39.9522 151.306C40.4763 151.213 41.1344 151.096 41.9149 150.962C43.5689 150.677 45.8577 150.269 48.3678 149.756C50.8779 149.248 53.1434 148.724 54.7799 148.345C55.5545 148.164 56.201 148.013 56.7193 147.896C57.1794 147.791 57.4357 147.745 57.4415 147.768V147.756Z" fill="#E0E0E0"/>
<path d="M28.9218 99.0248C28.9218 99.0248 29.2595 99.0598 29.7429 98.7334C29.9701 98.5643 30.2205 98.2787 30.3311 97.8765C30.3894 97.6725 30.3836 97.451 30.3836 97.2003C30.3836 96.9497 30.3836 96.6874 30.3836 96.4076C30.4069 94.1575 30.436 90.9282 30.4709 86.9528C30.4826 85.956 30.4942 84.9067 30.5059 83.8167C30.5117 83.2746 30.5175 82.715 30.5233 82.1496C30.5233 81.864 30.5525 81.5725 30.5 81.3218C30.4476 81.0595 30.3195 80.8147 30.1331 80.6224C29.9468 80.43 29.7022 80.2959 29.4343 80.2435C29.178 80.2027 28.8577 80.226 28.5607 80.2201C27.955 80.2201 27.3376 80.2201 26.7145 80.2201C25.4623 80.2201 24.1811 80.2201 22.859 80.226C17.5825 80.226 11.7819 80.2318 5.69586 80.2376C4.99699 80.226 4.38547 80.8322 4.33888 81.52C4.32723 82.2662 4.31559 83.0123 4.29811 83.7468C4.27482 85.2332 4.25735 86.6905 4.23405 88.1302C4.18746 91.004 4.14669 93.7728 4.10592 96.4134C4.10592 96.7457 4.09428 97.0721 4.08845 97.3985C4.07098 97.7133 4.14087 97.9989 4.29811 98.2554C4.45536 98.5061 4.68249 98.7042 4.9504 98.8033C5.21247 98.9199 5.51532 98.8849 5.83564 98.8908C7.08778 98.8908 8.29916 98.8908 9.46978 98.8966C11.8168 98.9024 14.0008 98.9083 15.9926 98.9141C19.9703 98.9316 23.191 98.9491 25.439 98.9607C26.5398 98.9724 27.4017 98.984 28.0074 98.9899C28.2869 98.9957 28.5083 99.0015 28.6771 99.0074C28.8286 99.0074 28.9043 99.019 28.9043 99.0248C28.9043 99.0307 28.8286 99.0365 28.6771 99.0423C28.5141 99.0423 28.2928 99.054 28.0074 99.0598C27.4017 99.0656 26.5398 99.0773 25.439 99.089C23.191 99.1006 19.9645 99.1181 15.9926 99.1356C13.995 99.1414 11.811 99.1473 9.46978 99.1531C8.29916 99.1531 7.08196 99.1531 5.83564 99.1589C5.53861 99.1589 5.18918 99.1939 4.85721 99.054C4.53107 98.9316 4.25152 98.6926 4.06516 98.3953C3.87879 98.098 3.79143 97.7308 3.81473 97.3927C3.81473 97.0663 3.82055 96.7398 3.82638 96.4076C3.86132 93.767 3.89626 90.9982 3.93703 88.1244C3.9545 86.6905 3.9778 85.2274 3.99527 83.7409C4.00692 82.9948 4.01856 82.2428 4.03604 81.4909C4.09428 80.6632 4.82809 79.9229 5.69004 79.9345C11.7761 79.9345 17.5767 79.9403 22.8532 79.9462C24.1694 79.9462 25.4565 79.9462 26.7087 79.952C27.3318 79.952 27.9492 79.952 28.5548 79.952C28.8635 79.9637 29.1431 79.9287 29.4809 79.9812C29.8012 80.0394 30.0924 80.2085 30.3137 80.4358C30.535 80.6632 30.6806 80.9546 30.7446 81.2636C30.8029 81.5783 30.7621 81.864 30.7679 82.1438C30.7563 82.7092 30.7505 83.2629 30.7388 83.8109C30.7214 84.9009 30.7039 85.9443 30.6864 86.9469C30.6107 90.9282 30.5466 94.1517 30.5059 96.4017C30.5 96.6815 30.4942 96.9439 30.4884 97.1945C30.4884 97.4393 30.4884 97.6842 30.4185 97.894C30.2962 98.3254 30.0283 98.611 29.7837 98.78C29.5333 98.9432 29.3061 99.0015 29.1547 99.019C29.0033 99.0365 28.9276 99.019 28.9276 99.019L28.9218 99.0248Z" fill="#1C3871"/>
<path d="M18.3048 87.9437L21.4846 89.879L18.2349 91.7851L14.9851 93.697L15.055 89.8557L15.1249 86.0143L18.3048 87.9437Z" fill="#1C3871"/>
<path d="M312.909 32.2291C314.947 31.3723 316.398 29.2679 316.409 26.7906C316.421 23.5438 313.969 20.8973 310.923 20.8799C307.883 20.8682 305.402 23.4855 305.39 26.7381C305.379 29.2388 306.84 31.3723 308.902 32.2291C300.422 33.5057 300.807 42.7332 300.807 42.7332L320.859 42.8264C320.859 42.8264 321.319 33.4999 312.909 32.2291Z" fill="#27AC75"/>
<path d="M194.06 11.4464L161.539 14.5347L163.619 36.476L196.139 33.3877L194.06 11.4464Z" fill="white"/>
<path d="M196.139 33.3891C196.139 33.3891 196.116 33.2492 196.086 32.9811C196.057 32.7071 196.017 32.3166 195.964 31.8153C195.859 30.7835 195.708 29.2971 195.516 27.3968C195.137 23.5787 194.601 18.1169 193.943 11.46L194.077 11.5708C185.102 12.4335 173.804 13.5177 161.562 14.6894C161.527 14.7243 161.818 14.3746 161.696 14.5261V14.5436V14.5669L161.702 14.6136V14.7068L161.725 14.8875L161.76 15.2548L161.83 15.9834C161.877 16.4672 161.923 16.951 161.97 17.4349C162.063 18.4025 162.15 19.3585 162.243 20.3086C162.424 22.2089 162.599 24.08 162.773 25.9162C163.117 29.5885 163.449 33.121 163.764 36.4611L163.612 36.3387C173.175 35.4585 181.288 34.7123 187.024 34.1819C189.89 33.9254 192.161 33.7214 193.728 33.5815C194.497 33.5174 195.096 33.4649 195.516 33.4299C195.714 33.4124 195.865 33.4008 195.982 33.395C196.086 33.3891 196.145 33.3833 196.145 33.3891C196.145 33.3891 196.098 33.4008 195.999 33.4124C195.888 33.4241 195.743 33.4416 195.551 33.4649C195.137 33.5057 194.549 33.5698 193.792 33.6514C192.231 33.8088 189.971 34.0362 187.123 34.3218C181.369 34.8872 173.227 35.68 163.635 36.6185L163.496 36.6301L163.484 36.4902C163.164 33.1501 162.826 29.6177 162.476 25.9454C162.302 24.1092 162.121 22.238 161.941 20.3378C161.847 19.3876 161.76 18.4316 161.667 17.464C161.62 16.9802 161.574 16.4964 161.527 16.0126L161.457 15.2839L161.422 14.9167L161.405 14.736V14.6427L161.393 14.5961V14.5728V14.5611C161.271 14.701 161.562 14.3513 161.533 14.3862C173.775 13.2379 185.073 12.1712 194.054 11.326L194.176 11.3143L194.188 11.4367C194.794 18.1285 195.294 23.6254 195.644 27.4609C195.807 29.3554 195.941 30.836 196.028 31.8561C196.069 32.3457 196.098 32.7304 196.121 32.9986C196.139 33.2551 196.145 33.3833 196.145 33.3833L196.139 33.3891Z" fill="#1C3871"/>
<path d="M194.06 11.4484C194.06 11.4484 193.978 11.5649 193.809 11.7748C193.617 12.0021 193.361 12.2994 193.04 12.6666C192.342 13.4594 191.369 14.5669 190.175 15.9251C187.706 18.6881 184.322 22.4712 180.554 26.6915L180.467 26.7847L180.356 26.7148C180.082 26.5399 179.785 26.3534 179.488 26.161C174.526 22.9783 170.042 20.0929 166.757 17.9886C165.155 16.9452 163.851 16.0942 162.919 15.4821C162.488 15.1965 162.144 14.9633 161.882 14.7884C161.649 14.6252 161.527 14.5378 161.533 14.5261C161.533 14.5145 161.673 14.5903 161.917 14.736C162.185 14.8992 162.54 15.1149 162.983 15.383C163.932 15.9718 165.254 16.7995 166.873 17.8079C170.17 19.8947 174.672 22.751 179.651 25.9045C179.948 26.0911 180.245 26.2834 180.519 26.4583L180.327 26.4875C184.124 22.2905 187.531 18.5249 190.018 15.7794C191.247 14.4445 192.243 13.3603 192.953 12.585C193.285 12.2295 193.559 11.9438 193.763 11.7282C193.949 11.5358 194.054 11.4367 194.06 11.4425V11.4484Z" fill="#1C3871"/>
<path d="M121.761 37.6327C121.715 37.6327 121.767 36.8574 121.435 35.5226C121.278 34.858 120.957 34.0711 120.462 33.2376C119.962 32.4098 119.245 31.5413 118.267 30.8126C117.294 30.084 116.071 29.472 114.656 29.2213C113.252 28.9823 111.674 29.0289 110.166 29.606C109.409 29.8683 108.675 30.2705 108.005 30.7718C107.324 31.2673 106.712 31.8794 106.2 32.5847C105.151 33.9837 104.557 35.779 104.54 37.6327C104.557 39.4864 105.145 41.2817 106.2 42.6807C106.706 43.3919 107.324 44.0039 108.005 44.4994C108.675 45.0007 109.409 45.4029 110.166 45.6652C111.668 46.2423 113.252 46.2831 114.656 46.0499C116.065 45.8051 117.294 45.1872 118.267 44.4586C119.239 43.7241 119.962 42.8614 120.462 42.0278C120.957 41.1943 121.278 40.4074 121.435 39.7428C121.773 38.408 121.715 37.6327 121.761 37.6385C121.761 37.6385 121.767 37.6852 121.767 37.7784C121.767 37.8892 121.767 38.0232 121.767 38.1923C121.767 38.373 121.755 38.6003 121.715 38.8626C121.68 39.1249 121.645 39.4339 121.552 39.772C121.412 40.454 121.103 41.2584 120.614 42.1153C120.119 42.9722 119.397 43.864 118.407 44.6276C117.417 45.3854 116.164 46.0266 114.714 46.2948C113.27 46.5512 111.639 46.5163 110.084 45.9275C109.298 45.6594 108.541 45.2513 107.848 44.7325C107.143 44.2254 106.502 43.59 105.978 42.8614C104.889 41.4158 104.272 39.5563 104.254 37.6385C104.272 35.7208 104.889 33.8613 105.978 32.4157C106.508 31.6812 107.143 31.0516 107.848 30.5445C108.541 30.0257 109.298 29.6177 110.084 29.3495C111.645 28.7666 113.276 28.7258 114.714 28.9823C116.164 29.2504 117.417 29.8916 118.407 30.6494C119.397 31.413 120.119 32.3049 120.614 33.1618C121.103 34.0187 121.412 34.8289 121.552 35.5051C121.645 35.8432 121.68 36.1463 121.715 36.4144C121.761 36.6767 121.767 36.9041 121.767 37.0848C121.767 37.2538 121.767 37.3879 121.767 37.4986C121.767 37.5919 121.767 37.6385 121.761 37.6385V37.6327Z" fill="#263238"/>
<path d="M133.427 52.1413C133.38 52.2113 130.311 50.2294 126.566 47.7171C122.821 45.2047 119.828 43.1062 119.874 43.0363C119.921 42.9663 122.99 44.9482 126.735 47.4606C130.474 49.9729 133.473 52.0714 133.427 52.1355V52.1413Z" fill="#263238"/>
<path d="M159.168 68.1656L152.372 60.8442L154.573 58.7924L159.267 63.852L169.127 54.1407L171.236 56.2859L159.168 68.1656Z" fill="#27AC75"/>
<path d="M350.007 61.1531C350.007 61.1531 350.118 61.1531 350.339 61.1531C350.45 61.1531 350.59 61.159 350.747 61.1648C350.91 61.1823 351.096 61.2114 351.306 61.2406C352.139 61.3805 353.408 61.7186 354.713 62.7328C355.988 63.7238 357.293 65.4725 357.573 67.8333C357.631 68.422 357.631 69.0283 357.631 69.6462C357.631 70.2699 357.631 70.9111 357.631 71.5756C357.631 72.8988 357.637 74.3036 357.642 75.7725C357.642 77.2473 357.648 78.792 357.654 80.4067C357.654 81.2169 357.654 82.0388 357.654 82.8782C357.677 83.7118 357.631 84.6036 357.398 85.4547C356.955 87.1684 355.866 88.7948 354.288 89.8615C353.502 90.3919 352.605 90.7883 351.644 90.9923C350.683 91.2138 349.681 91.1672 348.703 91.1789C340.788 91.1789 332.023 91.1905 322.705 91.1964L322.809 91.1497C320.94 93.0209 318.954 95.0086 316.945 97.0255L316.688 97.2819V96.9147C316.688 96.0753 316.688 95.1718 316.688 94.2625C316.688 93.1608 316.688 92.0649 316.688 91.0448L316.84 91.1964C316.205 91.1964 315.559 91.208 314.912 91.1264C314.266 91.0506 313.643 90.8758 313.043 90.6426C311.843 90.1704 310.795 89.3718 309.979 88.4042C309.181 87.4191 308.622 86.2533 308.372 85.0292C308.261 84.4171 308.215 83.7876 308.22 83.1813C308.22 82.5751 308.22 81.9689 308.22 81.3685C308.22 78.9611 308.22 76.6003 308.22 74.2919C308.22 73.1378 308.22 71.9953 308.22 70.8644C308.244 69.7336 308.162 68.6202 308.325 67.501C308.5 66.3935 308.914 65.3384 309.519 64.4291C310.125 63.5198 310.923 62.762 311.82 62.2024C312.717 61.637 313.718 61.2756 314.732 61.124C315.757 60.9783 316.753 61.0482 317.725 61.0307C321.633 61.0366 325.267 61.0424 328.581 61.0482C335.203 61.0657 340.555 61.0832 344.259 61.0948C346.099 61.1065 347.526 61.1182 348.511 61.124C348.988 61.1298 349.355 61.1357 349.617 61.1415C349.867 61.1415 349.996 61.159 349.996 61.159C349.996 61.159 349.867 61.1706 349.617 61.1765C349.361 61.1765 348.994 61.1823 348.511 61.1939C347.526 61.1998 346.099 61.2114 344.259 61.2231C340.555 61.2347 335.209 61.2522 328.581 61.2697C325.267 61.2697 321.627 61.2814 317.725 61.2872C316.753 61.3047 315.745 61.2406 314.767 61.3863C313.788 61.5379 312.821 61.8876 311.954 62.4355C311.086 62.9835 310.317 63.7121 309.735 64.5923C309.152 65.4725 308.75 66.4868 308.587 67.5535C308.43 68.6144 308.512 69.7452 308.494 70.8761C308.494 72.0069 308.494 73.1494 308.494 74.3036C308.494 76.6119 308.494 78.9785 308.494 81.3801C308.523 82.5809 308.413 83.8109 308.64 84.9825C308.884 86.16 309.42 87.2792 310.183 88.2293C310.969 89.1562 311.977 89.9256 313.13 90.3803C313.707 90.6076 314.306 90.7708 314.924 90.8466C315.535 90.9282 316.17 90.9166 316.811 90.9166H316.962V91.0681C316.962 92.0882 316.962 93.1841 316.962 94.2858C316.962 95.1951 316.962 96.0986 316.962 96.938L316.706 96.8331C318.721 94.8162 320.701 92.8343 322.576 90.9632L322.623 90.9166H322.687C332 90.9224 340.771 90.9282 348.685 90.934C349.675 90.934 350.648 90.9749 351.574 90.765C352.5 90.5668 353.368 90.1879 354.131 89.675C355.656 88.649 356.716 87.081 357.153 85.4197C357.38 84.5861 357.427 83.7468 357.41 82.9015C357.41 82.0621 357.41 81.2344 357.41 80.43C357.41 78.8153 357.415 77.2706 357.421 75.7959C357.421 74.3211 357.427 72.9221 357.433 71.5989C357.433 70.9344 357.433 70.2932 357.433 69.6695C357.439 69.0457 357.439 68.4454 357.386 67.8741C357.124 65.5599 355.86 63.8345 354.614 62.8436C353.344 61.8293 352.092 61.4737 351.265 61.3222C351.056 61.2872 350.869 61.2522 350.712 61.2347C350.555 61.2231 350.421 61.2173 350.31 61.2056C350.095 61.1881 349.984 61.1765 349.984 61.1765L350.007 61.1531Z" fill="#263238"/>
<path d="M326.91 77.1074C326.91 77.1074 326.875 76.9558 326.799 76.711C326.723 76.472 326.548 76.1223 326.182 75.86C325.826 75.5977 325.256 75.4578 324.714 75.6618C324.172 75.8541 323.706 76.4312 323.712 77.1016C323.706 77.7719 324.172 78.349 324.714 78.5414C325.261 78.7512 325.832 78.6113 326.182 78.3432C326.548 78.0809 326.723 77.7311 326.799 77.4921C326.875 77.2473 326.88 77.0957 326.91 77.0957C326.927 77.0957 326.962 77.2473 326.91 77.5213C326.863 77.7894 326.706 78.1916 326.31 78.5122C325.925 78.8328 325.267 79.031 324.615 78.7978C323.968 78.588 323.398 77.9001 323.409 77.0957C323.404 76.2913 323.968 75.6035 324.615 75.3936C325.267 75.1605 325.925 75.3587 326.31 75.6793C326.706 75.9999 326.863 76.4079 326.91 76.6702C326.956 76.9442 326.921 77.0957 326.91 77.0957V77.1074Z" fill="#263238"/>
<path d="M334.632 77.0316C334.632 77.0316 334.603 76.8801 334.522 76.6352C334.446 76.3962 334.271 76.0465 333.904 75.7842C333.549 75.5219 332.978 75.382 332.437 75.586C331.895 75.7784 331.429 76.3554 331.435 77.0258C331.429 77.6961 331.895 78.2732 332.437 78.4656C332.984 78.6754 333.555 78.5355 333.904 78.2674C334.271 78.0051 334.446 77.6553 334.522 77.4163C334.597 77.1715 334.603 77.02 334.632 77.02C334.65 77.02 334.685 77.1715 334.632 77.4455C334.586 77.7136 334.428 78.1158 334.032 78.4364C333.648 78.757 332.99 78.9552 332.338 78.7221C331.691 78.5122 331.12 77.8244 331.132 77.02C331.126 76.2155 331.691 75.5277 332.338 75.3179C332.99 75.0847 333.648 75.2829 334.032 75.6035C334.428 75.9241 334.586 76.3321 334.632 76.5944C334.679 76.8684 334.644 77.02 334.632 77.02V77.0316Z" fill="#263238"/>
<path d="M342.349 77.0316C342.349 77.0316 342.32 76.8801 342.238 76.6352C342.162 76.3962 341.988 76.0465 341.621 75.7842C341.266 75.5219 340.695 75.382 340.153 75.586C339.611 75.7784 339.146 76.3554 339.151 77.0258C339.146 77.6961 339.611 78.2732 340.153 78.4656C340.701 78.6754 341.271 78.5355 341.621 78.2674C341.988 78.0051 342.162 77.6553 342.238 77.4163C342.314 77.1715 342.32 77.02 342.349 77.02C342.366 77.02 342.401 77.1715 342.349 77.4455C342.302 77.7136 342.145 78.1158 341.749 78.4364C341.364 78.757 340.706 78.9552 340.054 78.7221C339.408 78.5122 338.837 77.8244 338.849 77.02C338.843 76.2155 339.408 75.5277 340.054 75.3179C340.706 75.0847 341.364 75.2829 341.749 75.6035C342.145 75.9241 342.302 76.3321 342.349 76.5944C342.395 76.8684 342.36 77.02 342.349 77.02V77.0316Z" fill="#263238"/>
<path d="M265.117 29.8217C265.088 29.8217 265.048 29.4603 265.001 28.7841C264.983 28.446 264.954 28.0263 264.861 27.5425C264.785 27.0529 264.716 26.4875 264.535 25.8696C264.261 24.6221 263.696 23.1415 262.799 21.5677C261.897 20.0055 260.592 18.3675 258.804 16.9627C257.022 15.5754 254.768 14.3746 252.159 13.8616C249.562 13.3603 246.621 13.3778 243.802 14.3804C242.387 14.8409 241.012 15.5462 239.742 16.4497C239.09 16.8753 238.514 17.4174 237.908 17.9362C237.36 18.5132 236.79 19.0787 236.312 19.7374C234.303 22.2847 233.126 25.5956 233.01 29.0289C232.958 32.4681 233.971 35.8257 235.858 38.4721C236.301 39.1541 236.848 39.7487 237.36 40.3491C237.937 40.897 238.484 41.4683 239.119 41.9229C240.342 42.8906 241.676 43.6658 243.074 44.1904C245.84 45.3271 248.775 45.4903 251.396 45.1173C254.034 44.7267 256.341 43.6425 258.187 42.3426C260.039 41.0311 261.425 39.4572 262.398 37.9358C263.364 36.4086 264.005 34.963 264.337 33.7272C264.547 33.121 264.646 32.5614 264.745 32.0717C264.861 31.5879 264.914 31.1741 264.943 30.836C265.024 30.1598 265.077 29.8042 265.112 29.81C265.141 29.81 265.147 30.1714 265.123 30.8535C265.123 31.1974 265.1 31.6229 265.007 32.1184C264.931 32.6138 264.861 33.1909 264.675 33.8205C264.384 35.097 263.784 36.6068 262.823 38.204C261.856 39.7953 260.458 41.4566 258.56 42.8556C256.667 44.2429 254.273 45.4087 251.518 45.8517C248.781 46.2773 245.7 46.1374 242.777 44.9599C241.303 44.4178 239.894 43.6075 238.595 42.5991C237.925 42.1153 237.343 41.5207 236.737 40.9436C236.19 40.3083 235.613 39.6845 235.142 38.9676C233.144 36.1871 232.061 32.6313 232.119 28.9998C232.235 25.3741 233.493 21.8766 235.619 19.1952C236.126 18.5016 236.731 17.907 237.308 17.3008C237.943 16.7528 238.554 16.1874 239.247 15.7386C240.587 14.7943 242.037 14.054 243.534 13.5818C246.51 12.5501 249.597 12.5559 252.305 13.1155C255.036 13.6926 257.372 14.975 259.194 16.4497C261.023 17.942 262.339 19.6674 263.23 21.3054C264.11 22.9492 264.64 24.4881 264.867 25.7763C265.024 26.4117 265.071 26.9946 265.117 27.4959C265.181 27.9972 265.187 28.4169 265.17 28.7608C265.158 29.4486 265.135 29.8042 265.106 29.8042L265.117 29.8217Z" fill="#1C3871"/>
<path d="M261.862 19.6441C261.897 19.6965 261.606 19.9472 261.035 20.3727C260.726 20.5942 260.377 20.8449 259.987 21.1247C259.777 21.2646 259.561 21.4278 259.323 21.5793C259.066 21.7134 258.798 21.8533 258.519 21.999C256.341 23.2581 252.887 24.5463 248.95 24.4123C248.461 24.389 247.978 24.3715 247.5 24.3482C247.028 24.2724 246.568 24.2024 246.108 24.1325C245.881 24.0917 245.654 24.0625 245.433 24.0217C245.217 23.9634 244.996 23.9051 244.786 23.8469C244.361 23.7303 243.936 23.6254 243.534 23.4971C241.938 22.9433 240.558 22.2905 239.475 21.626C237.291 20.3086 236.231 19.1078 236.312 19.0262C236.4 18.9271 237.588 19.9297 239.783 21.0722C240.872 21.6493 242.235 22.2147 243.779 22.7102C244.169 22.8209 244.576 22.9084 244.984 23.0133C245.188 23.0658 245.398 23.1182 245.607 23.1707C245.823 23.2057 246.038 23.2348 246.254 23.2698C246.69 23.3339 247.133 23.398 247.582 23.468C248.036 23.4855 248.496 23.5029 248.962 23.5263C252.707 23.6545 256.026 22.5295 258.228 21.4453C258.507 21.3229 258.781 21.2063 259.037 21.0955C259.282 20.9673 259.509 20.8274 259.724 20.7108C260.138 20.4835 260.505 20.2794 260.837 20.0987C261.454 19.7723 261.815 19.6149 261.85 19.6616L261.862 19.6441Z" fill="#1C3871"/>
<path d="M235.817 39.4514C235.782 39.3989 236.074 39.1483 236.644 38.7228C236.953 38.5013 237.302 38.2506 237.693 37.9708C237.902 37.8309 238.118 37.6677 238.357 37.5161C238.613 37.3821 238.881 37.2422 239.16 37.0964C241.338 35.8374 244.786 34.5491 248.729 34.6832C249.218 34.7065 249.702 34.724 250.179 34.7473C250.651 34.8231 251.111 34.893 251.571 34.963C251.798 35.0038 252.025 35.0329 252.247 35.0737C252.462 35.132 252.683 35.1903 252.893 35.2486C253.318 35.3652 253.743 35.4701 254.145 35.5984C255.741 36.1521 257.121 36.805 258.205 37.4695C260.388 38.7869 261.448 39.9877 261.367 40.0693C261.28 40.1684 260.091 39.1658 257.896 38.0233C256.807 37.4462 255.444 36.8808 253.901 36.3853C253.51 36.2745 253.103 36.1871 252.695 36.0822C252.491 36.0297 252.282 35.9773 252.072 35.9248C251.856 35.8898 251.641 35.8607 251.425 35.8257C250.989 35.7616 250.546 35.6975 250.098 35.6275C249.643 35.61 249.183 35.5925 248.717 35.5692C244.973 35.441 241.653 36.566 239.451 37.6502C239.172 37.7726 238.898 37.8892 238.642 38C238.397 38.1282 238.17 38.2681 237.955 38.3847C237.541 38.612 237.174 38.816 236.842 38.9967C236.225 39.3232 235.864 39.4805 235.829 39.4339L235.817 39.4514Z" fill="#1C3871"/>
<path d="M265.106 30.2006C265.1 30.4454 257.808 30.4687 248.822 30.2531C239.83 30.0374 232.55 29.6585 232.556 29.4078C232.561 29.163 239.853 29.1397 248.839 29.3554C257.826 29.5711 265.106 29.95 265.1 30.2006H265.106Z" fill="#1C3871"/>
<path d="M248.082 45.7002C247.838 45.6944 247.815 38.3963 248.03 29.4078C248.246 20.4135 248.624 13.1271 248.875 13.133C249.119 13.1388 249.142 20.431 248.927 29.4253C248.711 38.4138 248.333 45.7002 248.082 45.6944V45.7002Z" fill="#1C3871"/>
<path d="M248.082 45.671C248.018 45.7643 246.23 44.546 244.157 41.7947C243.132 40.419 242.06 38.647 241.251 36.5077C240.441 34.3742 239.935 31.8561 239.993 29.2096C240.039 26.5516 240.709 24.0684 241.635 21.9816C242.561 19.8889 243.732 18.181 244.815 16.8578C247.005 14.2055 248.816 13.0339 248.874 13.1271C248.962 13.2262 247.325 14.5611 245.31 17.2483C244.314 18.589 243.243 20.2853 242.392 22.308C241.542 24.3307 240.93 26.6973 240.89 29.2213C240.837 31.7511 241.292 34.1527 242.031 36.2221C242.771 38.2914 243.749 40.0401 244.681 41.4275C246.562 44.2021 248.181 45.5719 248.088 45.671H248.082Z" fill="#1C3871"/>
<path d="M249.241 13.1388C249.305 13.0455 251.093 14.2638 253.167 17.0152C254.192 18.3908 255.263 20.1629 256.073 22.3022C256.882 24.4356 257.389 26.9538 257.331 29.6002C257.284 32.2583 256.615 34.7415 255.689 36.8283C254.763 38.9209 253.592 40.6289 252.509 41.9521C250.319 44.6043 248.508 45.776 248.449 45.6827C248.362 45.5836 249.999 44.2487 252.014 41.5615C253.01 40.2208 254.081 38.5246 254.931 36.5019C255.782 34.4792 256.393 32.1125 256.434 29.5885C256.486 27.0587 256.032 24.6571 255.293 22.5878C254.553 20.5184 253.574 18.7697 252.643 17.3824C250.761 14.6077 249.142 13.2379 249.236 13.1388H249.241Z" fill="#1C3871"/>
<path d="M232.573 53.6861C232.573 53.6861 232.503 53.7094 232.375 53.7385C232.236 53.7735 232.049 53.8201 231.799 53.8784C231.28 54.0008 230.529 54.1757 229.539 54.4089C227.547 54.8635 224.635 55.5339 220.885 56.3966L220.768 56.4258L220.803 56.3092C221.683 53.1323 222.76 49.2443 223.989 44.8025L224.012 44.7209H224.094V44.7267L224 44.8783C221.665 41.1418 219.889 36.3095 219.627 30.8418C219.563 29.4778 219.586 28.0846 219.72 26.6682C219.93 25.2633 220.052 23.8119 220.465 22.3896C220.757 20.9381 221.321 19.5392 221.834 18.0994C222.16 17.4057 222.486 16.712 222.818 16.0067C222.97 15.6453 223.173 15.3131 223.377 14.9808C223.575 14.6427 223.779 14.3046 223.977 13.9665C225.637 11.291 227.769 8.79029 230.331 6.65684C232.888 4.51755 235.916 2.82711 239.195 1.66129C245.753 -0.670351 253.475 -0.635377 260.371 2.25003C266.649 4.88479 271.704 9.6938 274.803 15.2781C277.837 20.9207 278.949 27.2977 278.134 33.121C277.441 38.9792 274.902 44.2079 271.582 48.2242C268.193 52.1996 264.093 55.0851 259.952 56.6764C255.823 58.326 251.763 58.8623 248.251 58.7574C244.722 58.7224 241.734 57.9705 239.399 57.166C237.058 56.3441 235.357 55.4231 234.233 54.7645C233.674 54.4264 233.255 54.1641 232.987 53.9717C232.748 53.8085 232.637 53.7269 232.567 53.6802C232.637 53.7269 232.754 53.7968 232.993 53.9426C233.284 54.1291 233.703 54.3856 234.268 54.712C235.398 55.3532 237.104 56.2567 239.44 57.0553C241.769 57.8364 244.745 58.5709 248.257 58.5883C251.752 58.6758 255.782 58.1278 259.876 56.4782C263.982 54.881 268.041 52.0073 271.396 48.061C274.675 44.0739 277.179 38.886 277.86 33.086C278.658 27.3152 277.546 21.0081 274.547 15.4238C271.471 9.89199 266.469 5.13544 260.255 2.52983C253.435 -0.326434 245.782 -0.361409 239.294 1.94109C236.044 3.09525 233.045 4.76238 230.512 6.87834C227.972 8.98265 225.858 11.46 224.21 14.1064C224.012 14.4445 223.808 14.7768 223.61 15.109C223.412 15.4413 223.208 15.7677 223.057 16.1233C222.731 16.817 222.405 17.5106 222.079 18.1926C221.566 19.6149 221.007 21.0023 220.716 22.4421C220.302 23.8527 220.18 25.2867 219.97 26.6798C219.831 28.0846 219.807 29.4661 219.865 30.8185C220.11 36.2396 221.863 41.0369 224.164 44.7617L224.268 44.9308L224.07 44.9133L224.175 44.8433C222.929 49.2793 221.834 53.1615 220.943 56.3383L220.856 56.2509C224.612 55.4173 227.53 54.7703 229.522 54.3331C230.512 54.1174 231.269 53.9542 231.787 53.8435C232.038 53.791 232.23 53.7502 232.369 53.721C232.503 53.6919 232.573 53.6861 232.573 53.6861V53.6861Z" fill="#263238"/>
<path d="M257.11 67.6993C254.262 68.3638 252.439 71.2492 251.827 74.1113C251.222 76.9734 251.519 79.9462 251.245 82.8608C250.971 85.7753 249.952 88.8706 247.5 90.4677C248.315 90.7009 249.125 90.9399 249.94 91.1731C249.469 92.6886 248.432 94.0235 247.075 94.8454C248.018 95.5799 249.212 95.9879 250.406 95.9821C248.974 96.361 248.572 98.4128 249.37 99.6661C250.162 100.919 251.67 101.514 253.109 101.881C254.803 102.312 256.615 102.54 258.292 102.039C260.651 101.333 262.415 99.258 263.318 96.9614C264.221 94.6647 264.384 92.1582 264.454 89.6925C264.628 83.5194 264.267 77.2823 262.695 71.3075C262.316 69.8619 261.786 68.3288 260.557 67.4777C259.329 66.6267 257.232 66.9706 256.859 68.4221" fill="#27AC75"/>
<path d="M321.487 156.803C320.812 154.227 316.875 139.712 313.351 130.234C309.444 119.712 301.389 117.544 301.389 117.544C283.247 111.348 266.946 111.313 249.538 117.352C248.979 117.526 248.438 117.707 247.919 117.911C247.902 117.917 247.884 117.923 247.861 117.929C234.949 123 233.616 136.652 233.616 136.652L228.188 169.779C228.13 170.041 228.089 170.309 228.06 170.571L228.007 170.886H228.031C227.821 173.999 229.609 177.047 232.468 178.365C240.051 181.856 247.285 181.029 253.505 178.458L248.985 185.045H302.793L299.193 176.336L300.387 171.102L308.721 181.139C309.717 182.34 311.057 183.215 312.559 183.646C322.169 184.765 323.724 170.443 321.913 162.107" fill="#1C3871"/>
<path d="M287.394 113.93C287.394 113.93 278.716 157.637 275.653 157.31C272.59 156.984 258.251 114.752 258.251 114.752C258.251 114.752 276.585 109.855 287.394 113.924V113.93Z" fill="#FFBE9D"/>
<path d="M262.771 117.159C262.724 112.129 262.584 106.83 262.584 106.83C262.584 106.83 256.102 105.792 254.71 97.3461C253.382 89.2903 254.594 70.6546 254.594 70.6546C263.889 66.7957 274.949 69.2614 281.64 76.6877L281.343 117.561C281.308 122.306 277.202 126.054 272.13 125.979C267.005 125.903 262.817 121.957 262.771 117.165V117.159Z" fill="#FFBE9D"/>
<path d="M256.743 84.7552C256.725 85.3265 257.197 85.8161 257.797 85.8453C258.391 85.8744 258.892 85.4314 258.909 84.8601C258.927 84.2889 258.455 83.7992 257.861 83.7701C257.261 83.741 256.766 84.184 256.749 84.7552H256.743Z" fill="#263238"/>
<path d="M255.316 83.98C255.45 84.1198 256.271 83.5078 257.436 83.502C258.601 83.4786 259.463 84.079 259.585 83.9333C259.649 83.8692 259.509 83.6127 259.136 83.3446C258.77 83.0764 258.141 82.82 257.413 82.8258C256.685 82.8316 256.079 83.1056 255.729 83.3795C255.374 83.6593 255.252 83.9158 255.322 83.9741L255.316 83.98Z" fill="#263238"/>
<path d="M268.536 85.3206C268.519 85.8919 268.991 86.3815 269.59 86.4107C270.185 86.4398 270.685 85.9968 270.703 85.4255C270.72 84.8543 270.249 84.3646 269.655 84.3355C269.055 84.3064 268.56 84.7494 268.542 85.3206H268.536Z" fill="#263238"/>
<path d="M267.488 84.3297C267.622 84.4696 268.443 83.8575 269.608 83.8517C270.773 83.8284 271.635 84.4288 271.757 84.283C271.821 84.2189 271.681 83.9624 271.309 83.6943C270.942 83.4262 270.313 83.1697 269.585 83.1755C268.857 83.1813 268.251 83.4553 267.902 83.7293C267.546 84.0091 267.424 84.2656 267.494 84.3238L267.488 84.3297Z" fill="#263238"/>
<path d="M263.307 93.015C263.307 92.9509 262.584 92.8285 261.408 92.6828C261.111 92.6536 260.826 92.5953 260.779 92.3913C260.709 92.1756 260.831 91.855 260.971 91.5053C261.245 90.7825 261.536 90.0247 261.839 89.232C263.044 85.991 263.912 83.3329 263.778 83.2863C263.65 83.2396 262.567 85.8277 261.361 89.0629C261.07 89.8615 260.796 90.6251 260.534 91.3537C260.424 91.6918 260.232 92.0766 260.389 92.5254C260.47 92.7469 260.692 92.9101 260.884 92.9568C261.076 93.015 261.245 93.015 261.39 93.0267C262.573 93.085 263.307 93.085 263.312 93.015H263.307Z" fill="#263238"/>
<path d="M262.584 106.83C262.584 106.83 268.268 107.162 273.883 103.741C273.883 103.741 271.175 109.57 262.712 108.829L262.584 106.836V106.83Z" fill="#EB996E"/>
<path d="M263.819 95.8247C264.233 95.2651 264.966 94.9561 265.7 95.0319C266.207 95.0844 266.719 95.3234 267.028 95.7373C267.337 96.1453 267.407 96.734 267.127 97.1304C266.813 97.5734 266.16 97.6842 265.601 97.5268C265.042 97.3694 264.564 97.008 264.104 96.6466C263.976 96.5475 263.848 96.4426 263.767 96.3027C263.685 96.1628 263.668 95.9821 263.767 95.8655" fill="#EB996E"/>
<path d="M266.743 93.802C266.55 93.7903 266.556 95.0611 265.479 95.9646C264.401 96.8739 263.05 96.7398 263.044 96.9147C263.027 96.9963 263.347 97.1595 263.918 97.1712C264.477 97.1887 265.292 97.0022 265.951 96.4484C266.609 95.8946 266.888 95.1543 266.929 94.6355C266.976 94.1051 266.83 93.7903 266.743 93.802V93.802Z" fill="#263238"/>
<path d="M277.092 69.8735C274.081 74.3386 265.974 79.0194 260.132 80.1794C260.802 79.2642 264.36 76.9792 265.03 76.0698C262.409 78.1042 258.653 80.8264 255.135 81.0654C254.722 81.0945 254.268 81.1004 253.918 80.8963C253.446 80.6224 253.342 80.0686 253.278 79.579C253.015 77.5155 253.091 73.9714 253.388 71.9137C253.679 69.856 254.588 67.7983 256.341 66.3935C258.566 64.6098 261.792 64.1202 264.838 63.9919C267.389 63.887 270.027 63.9919 272.374 64.8721C274.727 65.7523 276.754 67.5419 277.132 69.7278" fill="#27AC75"/>
<path d="M287.08 90.322C287.464 88.1245 287.767 86.0435 287.825 84.6561C288 80.2901 289.304 64.5224 274.296 66.0846L275.146 70.3224C275.146 70.3224 272.351 80.1386 278.792 86.7546C278.792 86.7546 276.958 100.581 281.442 105.052C281.442 105.052 286.253 95.0319 287.086 90.322" fill="#27AC75"/>
<path d="M278.594 86.0318C279.497 85.8511 280.452 85.8686 281.314 86.1892C282.176 86.5098 282.939 87.1451 283.317 87.9845C283.696 88.8239 283.667 89.8149 283.358 90.6892C283.05 91.5578 282.485 92.3214 281.832 92.9742C281.361 93.4406 280.831 93.8719 280.196 94.0759C279.567 94.28 278.821 94.2217 278.315 93.7961" fill="#FFBE9D"/>
<path d="M279.13 91.5112C279.025 91.5461 279.421 92.0882 280.248 91.8609C280.644 91.756 281.029 91.4004 281.262 90.9632C281.495 90.5202 281.646 90.0306 281.704 89.4593C281.757 88.8939 281.628 88.2935 281.314 87.868C281.017 87.4366 280.528 87.1801 280.12 87.1743C279.27 87.1626 279.008 87.7514 279.107 87.7689C279.177 87.8388 279.503 87.5299 280.062 87.6639C280.598 87.7572 281.122 88.4917 281.017 89.4069C280.924 90.3395 280.569 91.1906 280.074 91.4062C279.561 91.6744 279.188 91.4354 279.13 91.5112V91.5112Z" fill="#EB996E"/>
<path d="M248.985 157.87C248.904 157.87 248.834 154.436 248.834 150.199C248.834 145.961 248.904 142.527 248.985 142.527C249.067 142.527 249.137 145.961 249.137 150.199C249.137 154.436 249.067 157.87 248.985 157.87Z" fill="#263238"/>
<path d="M270.854 142.219C270.854 142.219 263.3 142.3 262.823 143.973C262.031 146.754 263.446 161.979 263.446 161.979L270.406 164.293C270.406 164.293 273.76 163.518 272.211 157.059C270.662 150.601 267.61 145.43 267.61 145.43C267.61 145.43 276.859 145.687 276.596 143.623C276.34 141.554 270.848 142.219 270.848 142.219H270.854Z" fill="#FFBE9D"/>
<path d="M267.849 146.713C268.262 146.631 277.511 145.868 276.928 147.348C276.346 148.829 267.849 149.196 267.849 149.196V146.713Z" fill="#FFBE9D"/>
<path d="M297.545 124.312L296.404 153.206L292.187 164.293L266.282 164.83L265.234 129.045L297.545 124.312Z" fill="#263238"/>
<path d="M262.223 152.402C262.223 152.402 262.118 152.466 261.908 152.565C261.664 152.676 261.355 152.81 260.977 152.979C260.126 153.346 258.956 153.848 257.529 154.46C254.57 155.695 250.546 157.374 246.102 159.234C243.866 160.155 241.74 161.029 239.795 161.828C237.85 162.615 236.108 163.326 234.757 164.148C233.4 164.946 232.468 165.844 231.938 166.543C231.408 167.243 231.21 167.703 231.181 167.686C231.17 167.686 231.222 167.569 231.321 167.354C231.414 167.138 231.589 166.835 231.845 166.473C232.352 165.739 233.278 164.795 234.647 163.961C235.998 163.104 237.757 162.37 239.684 161.565C241.624 160.761 243.749 159.875 245.98 158.948C250.441 157.124 254.477 155.474 257.441 154.256C258.886 153.679 260.068 153.206 260.93 152.868C261.32 152.723 261.635 152.6 261.885 152.507C262.106 152.425 262.223 152.39 262.223 152.402V152.402Z" fill="#263238"/>
<path d="M270.79 163.722C270.79 163.722 270.604 163.984 270.225 164.416C269.847 164.847 269.276 165.465 268.548 166.194C267.103 167.663 265.001 169.592 262.596 171.615C260.185 173.632 257.919 175.363 256.259 176.575C255.426 177.182 254.745 177.66 254.268 177.986C253.79 178.307 253.522 178.481 253.51 178.464C253.499 178.446 253.743 178.242 254.198 177.893C254.698 177.508 255.345 177.007 256.131 176.406C257.762 175.153 259.998 173.393 262.404 171.382C264.809 169.365 266.923 167.464 268.402 166.042C269.148 165.337 269.736 164.742 270.144 164.34C270.551 163.932 270.778 163.71 270.796 163.728L270.79 163.722Z" fill="#263238"/>
<path d="M309.805 182.212C309.741 182.265 305.938 177.91 301.319 172.477C296.695 167.045 292.997 162.597 293.061 162.545C293.125 162.492 296.922 166.847 301.552 172.279C306.176 177.712 309.875 182.154 309.811 182.212H309.805Z" fill="#263238"/>
<path d="M317.131 161.216C317.131 161.216 316.823 161.128 316.287 160.918C315.751 160.708 314.988 160.382 314.05 159.962C312.175 159.123 309.624 157.858 306.904 156.29C304.185 154.716 301.826 153.131 300.16 151.924C299.327 151.324 298.663 150.816 298.215 150.461C297.767 150.105 297.522 149.895 297.534 149.878C297.545 149.861 297.813 150.035 298.285 150.362C298.803 150.717 299.473 151.184 300.282 151.743C301.977 152.903 304.348 154.454 307.056 156.022C309.764 157.59 312.291 158.872 314.138 159.764C315.029 160.184 315.763 160.539 316.333 160.808C316.852 161.052 317.137 161.198 317.131 161.216V161.216Z" fill="#263238"/>
<path d="M303.724 154.879C303.643 154.891 303.189 151.807 302.711 147.989C302.233 144.171 301.913 141.076 301.995 141.064C302.076 141.053 302.53 144.136 303.008 147.954C303.486 151.767 303.806 154.868 303.724 154.879Z" fill="#263238"/>
<path d="M281.809 91.4529C281.809 91.4529 281.739 91.5928 281.57 91.8201C281.372 92.0882 281.128 92.4147 280.831 92.811C280.149 93.6971 279.229 94.8862 278.146 96.2968L278.122 96.1103C279.415 97.1246 280.906 98.3021 282.496 99.5495C282.63 99.6544 282.764 99.7593 282.892 99.8643L282.677 99.8876C284.074 98.1388 285.367 96.5125 286.462 95.1427L286.486 95.3176C285.332 94.3791 284.366 93.5863 283.638 92.9917C283.329 92.7294 283.067 92.5079 282.857 92.3272C282.683 92.1698 282.589 92.0824 282.595 92.0766C282.601 92.0649 282.712 92.1349 282.904 92.2689C283.125 92.4321 283.399 92.6362 283.725 92.8752C284.471 93.4464 285.461 94.21 286.643 95.1135L286.742 95.1893L286.666 95.2884C285.583 96.6699 284.302 98.3021 282.921 100.068L282.828 100.185L282.712 100.092C282.584 99.9867 282.45 99.8817 282.316 99.7768C280.737 98.5177 279.252 97.3344 277.965 96.3085L277.86 96.2269L277.942 96.122C279.06 94.7463 280.004 93.5746 280.708 92.7061C281.029 92.3272 281.291 92.0125 281.506 91.7618C281.692 91.5461 281.797 91.4354 281.809 91.4412V91.4529Z" fill="#263238"/>
<path d="M292.921 162.113C288.687 162.032 283.049 161.192 280.417 160.773C275.519 159.991 275.571 159.543 275.74 158.983C276.206 157.479 284.406 160.032 282.939 158.453C281.465 156.873 272.578 156.5 273.137 154.949C273.859 152.927 282.397 155.76 283.137 155.946C283.853 156.127 284.144 155.06 283.469 154.932C282.496 154.739 272.351 152.495 273.038 150.502C273.422 149.394 275.333 150.321 275.333 150.321C275.333 150.321 284.692 153.131 284.989 152.175C285.286 151.207 279.846 149.371 277.965 148.881C276.113 148.397 275.566 147.313 276.439 146.666C277.033 146.223 282.811 147.581 284.657 148.112C286.503 148.636 291.541 150.175 289.619 147.383C289.59 147.336 289.566 147.296 289.537 147.249C287.569 144.556 286.946 141.822 287.301 140.913C287.65 140.021 288.902 140.079 289.374 140.919C289.462 141.047 289.531 141.193 289.566 141.367C289.578 141.437 289.613 141.531 289.636 141.612C289.98 142.504 290.725 143.687 291.337 144.579C291.913 145.425 292.63 146.171 293.457 146.777C294.412 147.476 296.829 150.03 297.557 150.478" fill="#FFBE9D"/>
<path d="M119.6 127.745C114.149 127.646 109.735 123.28 109.572 117.824C109.432 113.283 109.333 108.905 109.333 108.905C109.333 108.905 100.999 108.13 100.387 99.8759C99.7757 91.6219 100.038 72.5666 100.038 72.5666C109.339 67.8683 120.451 68.5736 129.082 74.4144L130.363 75.2829L130.008 117.602C129.961 123.291 125.285 127.85 119.6 127.745V127.745Z" fill="#B78876"/>
<path d="M109.123 94.7929C109.123 94.7055 108.412 94.6064 107.259 94.519C106.962 94.5073 106.724 94.4548 106.689 94.2916C106.625 94.1168 106.718 93.7903 106.852 93.4289C107.096 92.6595 107.347 91.8784 107.609 91.0623C108.645 87.6931 109.35 84.9184 109.181 84.866C109.012 84.8135 108.028 87.5007 106.991 90.8699C106.747 91.6918 106.514 92.4788 106.281 93.254C106.194 93.6038 106.013 94.0177 106.194 94.5015C106.293 94.7405 106.537 94.9037 106.735 94.9445C106.933 94.9911 107.102 94.9795 107.248 94.9795C108.401 94.9503 109.117 94.8862 109.123 94.7988V94.7929Z" fill="#263238"/>
<path d="M112.891 95.8247C110.597 96.8973 109.531 97.2179 107.417 97.7891C107.417 97.7891 108.873 99.8293 111.202 98.8092C113.619 97.7541 112.891 95.8189 112.891 95.8189V95.8247Z" fill="white"/>
<path d="M109.31 108.789C109.31 108.789 114.551 108.894 119.88 105.064C119.88 105.064 117.702 111.167 109.42 110.928L109.31 108.789V108.789Z" fill="#A36957"/>
<path d="M129.903 85.4897C129.903 84.8252 130.427 84.2597 131.091 84.2422C132.629 84.2014 135.15 84.8135 135.389 89.0629C135.727 95.1368 129.886 93.6213 129.868 93.4522C129.851 93.3182 129.886 87.8563 129.903 85.4955V85.4897Z" fill="#B78876"/>
<path d="M131.208 91.0623C131.208 91.0623 131.318 91.1323 131.499 91.2022C131.679 91.2722 131.982 91.313 132.291 91.1731C132.92 90.8991 133.403 89.8499 133.368 88.754C133.351 88.2002 133.211 87.6814 132.99 87.2559C132.78 86.8246 132.477 86.5273 132.151 86.4865C131.825 86.4282 131.609 86.638 131.545 86.8129C131.475 86.9878 131.516 87.1043 131.487 87.116C131.47 87.1335 131.353 87.0227 131.388 86.7663C131.406 86.6439 131.47 86.4981 131.604 86.3699C131.743 86.2416 131.953 86.1717 132.18 86.1834C132.652 86.1892 133.095 86.5972 133.339 87.0635C133.607 87.5299 133.782 88.1128 133.799 88.7365C133.828 89.9606 133.263 91.1439 132.401 91.447C131.982 91.5811 131.615 91.4762 131.423 91.3421C131.225 91.2022 131.184 91.0681 131.208 91.0565V91.0623Z" fill="#A36957"/>
<path d="M102.618 86.5622C102.641 87.1568 103.16 87.6231 103.777 87.6173C104.394 87.6056 104.878 87.1218 104.86 86.5273C104.837 85.9327 104.318 85.4664 103.701 85.4722C103.084 85.4838 102.6 85.9735 102.618 86.5622Z" fill="#263238"/>
<path d="M100.719 85.4372C100.871 85.5713 101.668 84.8834 102.874 84.8018C104.074 84.7027 105 85.2565 105.122 85.0991C105.18 85.0292 105.023 84.7785 104.615 84.522C104.219 84.2714 103.555 84.044 102.804 84.1023C102.053 84.1606 101.447 84.4812 101.104 84.7902C100.754 85.0991 100.649 85.3731 100.719 85.4314V85.4372Z" fill="#263238"/>
<path d="M114.574 86.3524C114.598 86.9469 115.116 87.4133 115.733 87.4074C116.351 87.3958 116.834 86.912 116.817 86.3174C116.793 85.7228 116.275 85.2565 115.658 85.2623C115.04 85.274 114.557 85.7636 114.574 86.3524Z" fill="#263238"/>
<path d="M112.926 85.4372C113.078 85.5713 113.881 84.8834 115.081 84.8018C116.281 84.7027 117.207 85.2565 117.329 85.0991C117.387 85.0292 117.23 84.7785 116.822 84.522C116.426 84.2714 115.762 84.044 115.011 84.1023C114.26 84.1606 113.654 84.4812 113.311 84.7902C112.961 85.0991 112.856 85.3731 112.926 85.4314V85.4372Z" fill="#263238"/>
<path d="M120.888 69.7161C119.764 72.2634 120.329 75.4636 122.262 77.4688C123.077 78.314 124.097 78.9552 124.801 79.8879C126.263 81.829 126.024 84.4987 126.252 86.9178C126.356 88.037 126.618 89.2261 127.44 89.9897C128.261 90.7533 129.798 90.8058 130.375 89.8382C130.55 89.5467 130.614 89.2028 130.678 88.8705C131.184 86.1775 131.691 83.4845 132.198 80.7914C132.576 78.7745 132.955 76.6994 132.605 74.6767C132.198 72.3101 130.753 70.1475 128.732 68.8592C126.712 67.571 124.137 67.1863 121.825 67.8158" fill="#263238"/>
<path d="M122.151 68.0082C119.35 67.4719 117.778 66.5742 115.797 65.6824C113.817 64.7905 111.575 64.3708 109.484 64.9654C108.075 65.3676 106.741 66.2128 105.285 66.1953C103.847 66.1837 102.554 65.321 101.174 64.8896C99.304 64.3009 97.2191 64.5107 95.4719 65.4725C94.1149 66.2186 92.8977 67.5535 92.7812 69.1798C92.6647 70.812 94.1207 72.4966 95.5767 72.0361C94.0567 72.5665 93.4335 74.8107 94.1964 76.3147C94.9594 77.8186 96.7182 78.5006 98.3023 78.2499C99.8806 77.9993 101.284 76.9675 102.414 75.7434C102.449 77.5621 104.272 78.8387 105.955 78.7862C107.644 78.7337 109.17 77.7195 110.562 76.6761C111.954 75.6326 113.363 74.496 115.017 74.1287C116.17 73.8723 117.364 74.0063 118.535 73.8723C119.705 73.7324 120.952 73.2252 121.517 72.106C122.081 70.9869 124.324 69.7103 123.147 69.6753" fill="#263238"/>
<path d="M105.571 76.9559C105.571 76.9559 105.774 77.1249 106.194 77.2881C106.613 77.4513 107.283 77.5154 108.063 77.2823C108.448 77.1715 108.861 76.9967 109.269 76.7518C109.676 76.507 110.09 76.1981 110.533 75.8716C110.975 75.551 111.447 75.2129 111.994 74.939C112.536 74.665 113.177 74.4843 113.823 74.4785C115.122 74.4552 116.292 74.8049 117.352 74.7116C118.418 74.6534 119.257 74.0646 119.729 73.4176C120.218 72.7764 120.387 72.1177 120.433 71.6688C120.48 71.22 120.433 70.9635 120.462 70.9577C120.474 70.9577 120.492 71.016 120.515 71.1384C120.544 71.2608 120.556 71.4415 120.55 71.6747C120.538 72.141 120.393 72.8463 119.897 73.54C119.653 73.8839 119.321 74.2278 118.89 74.496C118.465 74.7641 117.929 74.939 117.37 74.9856C116.24 75.0964 115.052 74.7524 113.823 74.7816C112.583 74.7816 111.563 75.4753 110.684 76.099C110.241 76.4137 109.816 76.7227 109.385 76.9675C108.954 77.2182 108.517 77.3814 108.11 77.4863C107.289 77.702 106.566 77.6029 106.141 77.393C105.926 77.2881 105.78 77.1774 105.687 77.0957C105.6 77.0083 105.553 76.9617 105.565 76.9559H105.571Z" fill="#263238"/>
<path d="M121.307 65.1286C121.394 65.1461 121.208 66.0263 121.476 67.0639C121.726 68.1073 122.309 68.7951 122.233 68.8534C122.186 68.9175 121.452 68.2705 121.179 67.1396C120.893 66.0146 121.237 65.0936 121.307 65.1286V65.1286Z" fill="#263238"/>
<path d="M124.411 65.0004C124.475 65.0645 123.724 65.7815 123.159 66.8948C122.582 68.0023 122.443 69.0283 122.355 69.0166C122.279 69.0166 122.285 67.9266 122.891 66.7549C123.485 65.5774 124.37 64.9362 124.411 65.0004Z" fill="#263238"/>
<path d="M163.35 151.434L176.029 184.083H156.623L147.579 160.843L163.35 151.434Z" fill="#B78876"/>
<path d="M94.6275 124.924C94.6275 124.924 77.9244 142.149 70.6853 142.149C68.3207 142.149 66.4687 113.458 66.4396 105.186C67.0861 103.671 67.3714 103.088 68.0645 102.213C68.7168 101.391 69.3399 100.546 70.1611 99.8934C71.157 99.1006 72.5256 98.098 73.44 97.7774C74.5698 97.3811 74.663 95.8305 73.638 95.5216C72.613 95.2126 69.4739 96.2327 66.6609 98.9024C63.8538 101.566 64.6924 95.6032 64.9603 93.4231C65.2282 91.243 65.7407 84.4754 65.135 83.875C64.2498 83.0006 63.12 83.8109 62.9045 85.991C62.6832 88.2002 61.5766 94.6763 60.4351 94.5131C59.3053 94.3499 60.8195 83.2746 60.8195 83.2746C60.8195 83.2746 61.5242 80.9488 60.208 80.7156C57.8376 80.2901 57.098 92.1582 57.0514 93.289C57.0223 94.0759 55.7701 93.9361 55.8459 93.0967C55.9274 92.2281 57.6105 82.0738 55.1994 81.6192C53.3474 81.2694 54.5005 91.3829 52.9805 93.324C51.4604 95.2651 52.8931 85.548 51.111 85.2857C50.4471 85.1866 49.9346 85.2099 49.9171 90.8874C49.9054 93.9419 51.0819 98.5527 50.6276 104.428C51.3964 121.776 50.5461 170.49 69.835 164.719C91.0458 158.365 105.536 144.463 105.536 144.463L94.6217 124.929L94.6275 124.924Z" fill="#B78876"/>
<path d="M141.44 140.365C141.44 140.365 141.528 140.604 141.632 141.053C141.737 141.496 141.871 142.149 142.017 142.947C142.32 144.55 142.669 146.783 142.943 149.266C143.217 151.743 143.356 153.999 143.415 155.631C143.444 156.447 143.455 157.112 143.45 157.567C143.45 158.021 143.438 158.278 143.415 158.278C143.391 158.278 143.368 158.027 143.333 157.572C143.298 157.054 143.252 156.412 143.199 155.643C143.088 154.017 142.914 151.772 142.64 149.295C142.366 146.824 142.046 144.591 141.801 142.982C141.685 142.224 141.586 141.583 141.51 141.07C141.446 140.621 141.417 140.365 141.434 140.365H141.44Z" fill="#263238"/>
<path d="M91.7971 184.083L145.214 184.357L143.415 173.072C144.242 165.302 143.333 156.978 143.333 156.978L146.036 164.317L168.114 153.265C168.114 153.265 160.089 131.843 153.368 124.591C144.877 115.422 129.606 116.337 129.606 116.337L119.286 123.356L109.787 116.658C109.787 116.658 102.239 117.346 95.1109 120.931L94.6217 121.071V121.175C89.0249 124.108 81.0345 131.242 73.4167 138.173L82.2051 146.736L91.9427 155.812C91.9427 155.812 93.5851 155.625 93.6084 155.742C93.7714 156.704 91.7971 184.089 91.7971 184.089V184.083Z" fill="#1C3871"/>
<path opacity="0.2" d="M141.697 136.943L148.953 162.854L146.041 164.311L143.339 156.972C143.339 156.972 140.712 141.612 141.703 136.943H141.697Z" fill="black"/>
<path d="M109.205 116.53V113.732C109.205 113.732 117.545 113.085 119.234 122.948C119.234 122.948 121.954 113.732 130.043 112.811L131.196 117.118C131.196 117.118 127.364 129.121 126.805 129.22C126.246 129.325 119.228 131.376 119.228 131.376L115.163 130.455L110.644 125.308L109.193 116.53H109.205Z" fill="#1C3871"/>
<path d="M131.394 116.786C131.394 116.786 131.243 116.973 130.934 117.276C130.631 117.579 130.189 118.016 129.664 118.576C128.622 119.695 127.259 121.339 126.048 123.338C125.791 123.752 125.558 124.172 125.331 124.574L125.197 124.819L125.069 124.574C124.143 122.843 123.328 121.31 122.699 120.126C122.542 119.864 122.361 119.654 122.163 119.52C121.971 119.386 121.767 119.328 121.604 119.316C121.266 119.293 121.109 119.433 121.097 119.403C121.086 119.403 121.231 119.217 121.61 119.205C121.79 119.205 122.023 119.252 122.25 119.386C122.478 119.526 122.687 119.747 122.868 120.015C123.526 121.117 124.365 122.662 125.337 124.428H125.075C125.296 124.02 125.535 123.6 125.791 123.175C127.02 121.152 128.418 119.514 129.513 118.424C130.06 117.876 130.532 117.462 130.858 117.183C131.19 116.909 131.382 116.769 131.4 116.78L131.394 116.786Z" fill="#263238"/>
<path d="M108.663 117.282C108.663 117.282 108.821 117.422 109.059 117.701C109.298 117.987 109.642 118.401 110.055 118.92C110.888 119.951 112.018 121.397 113.247 123C113.317 123.087 113.381 123.175 113.445 123.256L113.194 123.274C113.637 122.446 113.678 121.502 113.882 120.674C114.068 119.846 114.458 119.094 115.035 118.727C115.611 118.372 116.2 118.395 116.537 118.535C116.712 118.599 116.817 118.698 116.887 118.762C116.951 118.832 116.98 118.873 116.968 118.879C116.951 118.902 116.817 118.739 116.497 118.64C116.182 118.541 115.646 118.558 115.145 118.896C114.65 119.24 114.313 119.928 114.144 120.727C113.957 121.525 113.94 122.493 113.456 123.408L113.346 123.612L113.2 123.426C113.136 123.344 113.072 123.256 113.002 123.169C111.768 121.566 110.667 120.103 109.881 119.036C109.485 118.5 109.17 118.069 108.96 117.76C108.751 117.456 108.64 117.282 108.658 117.27L108.663 117.282Z" fill="#263238"/>
<path d="M114.592 184.083C114.592 184.083 114.586 184.031 114.592 183.926C114.592 183.803 114.604 183.652 114.609 183.459C114.633 183.028 114.668 182.434 114.708 181.676C114.807 180.108 114.947 177.875 115.122 175.13C115.5 169.58 116.025 161.956 116.601 153.533C117.213 145.11 117.766 137.485 118.174 131.936C118.389 129.19 118.564 126.964 118.686 125.396C118.75 124.644 118.803 124.049 118.838 123.618C118.855 123.431 118.873 123.28 118.884 123.157C118.896 123.052 118.907 123 118.913 123C118.913 123 118.919 123.052 118.913 123.157C118.913 123.28 118.902 123.431 118.896 123.624C118.873 124.055 118.838 124.65 118.797 125.407C118.698 126.975 118.558 129.208 118.383 131.953C118.005 137.503 117.481 145.127 116.904 153.55C116.293 161.973 115.739 169.592 115.332 175.141C115.116 177.887 114.941 180.114 114.819 181.682C114.755 182.434 114.703 183.028 114.668 183.459C114.65 183.646 114.633 183.798 114.621 183.92C114.609 184.025 114.598 184.077 114.592 184.077V184.083Z" fill="#263238"/>
<path d="M95.4196 132.227C95.4196 132.227 95.4196 132.56 95.3672 133.154C95.3148 133.801 95.2508 134.652 95.1692 135.672C95.012 137.8 94.8489 140.738 94.6684 143.991C94.4878 147.243 94.2898 150.187 94.0743 152.315C93.9695 153.375 93.8647 154.238 93.7773 154.827C93.6899 155.416 93.6317 155.742 93.6084 155.742C93.5851 155.742 93.6084 155.41 93.6608 154.815C93.7132 154.168 93.7773 153.323 93.8588 152.297C94.0161 150.169 94.1791 147.232 94.3597 143.979C94.5402 140.726 94.7382 137.783 94.9537 135.661C95.0586 134.6 95.1634 133.737 95.2508 133.148C95.3381 132.56 95.3963 132.233 95.4196 132.233V132.227Z" fill="#263238"/>
<path d="M118.645 121.543C118.645 121.543 115.78 125.285 116.199 125.85C116.619 126.41 118.645 129.115 118.645 129.115H120.387C120.387 129.115 122.017 124.533 121.598 123.95C121.179 123.367 118.645 121.543 118.645 121.543V121.543Z" fill="#27AC75"/>
<path d="M123.043 120.528L119.88 123.006L121.092 125.326L124.347 122.93L123.043 120.528Z" fill="#27AC75"/>
<path d="M113.753 122.091L116.636 124.504L118.238 122.091L114.592 119.322L113.753 122.091Z" fill="#27AC75"/>
<path d="M118.646 129.115L114.243 168.549L118.57 182.264L124.347 168.671L120.544 128.643L118.646 129.115Z" fill="#27AC75"/>
<path d="M149.408 121.782C149.408 121.782 149.233 121.589 148.837 121.391C148.452 121.193 147.777 121.053 147.026 121.286C146.268 121.514 145.5 122.108 144.772 122.878C144.032 123.635 143.31 124.568 142.71 125.635C141.504 127.78 141.044 130.012 140.963 131.61C140.864 133.218 141.073 134.215 141.009 134.227C140.986 134.227 140.934 133.982 140.858 133.533C140.794 133.084 140.73 132.42 140.747 131.604C140.776 129.972 141.207 127.681 142.442 125.489C143.059 124.399 143.799 123.449 144.568 122.685C145.319 121.916 146.14 121.304 146.961 121.082C147.783 120.855 148.493 121.047 148.889 121.286C149.093 121.409 149.221 121.531 149.303 121.624C149.378 121.718 149.413 121.776 149.402 121.782H149.408Z" fill="#263238"/>
<path d="M191.031 72.9862C187.304 75.2771 184.712 79.1068 183.169 83.2105C181.631 87.3084 181.049 91.6977 180.595 96.0578C179.395 107.559 178.987 119.141 179.389 130.7C193.506 132.49 207.728 134.279 221.921 133.312C219.458 117.089 217.903 100.884 219.871 84.5978" fill="#263238"/>
<path d="M222.737 207.819L212.463 187.015L216.389 171.801C216.849 175.025 217.256 177.823 217.256 177.823L239.3 176.657C240.121 176.616 240.727 175.876 240.61 175.06L236.301 144.626C236.301 144.626 234.92 130.508 221.572 125.262C221.572 125.262 221.531 125.25 221.514 125.238C220.978 125.029 220.419 124.836 219.842 124.661C201.84 118.412 184.98 118.453 166.221 124.859C166.221 124.859 157.887 127.104 153.845 137.987C149.804 148.87 145.68 164.865 145.68 164.865L164.398 171.481L164.521 168.315L168.656 184.147L159.582 207.207L191.235 207.988L222.737 207.808V207.819Z" fill="#27AC75"/>
<path d="M145.715 164.684L143.613 174.623C141.807 183.162 148.126 191.929 156.792 192.914L202.86 197.648C213.086 198.808 222.259 191.3 223.156 181.04L165.068 175.497L165.435 169.918L145.715 164.69V164.684Z" fill="#27AC75"/>
<path d="M203.331 174.827L206.907 174.162C206.907 174.162 215.387 164.876 216.977 164.742C218.287 164.631 225.503 164.701 228.013 164.731C228.491 164.731 228.875 165.127 228.875 165.605C228.875 166.077 228.502 166.462 228.036 166.479L219.51 166.812L219.469 167.499L228.007 167.61C228.875 167.674 229.434 169.056 226.65 169.301L219.51 169.557V170L226.749 171.014C227.116 171.067 228.077 171.253 228.089 171.621C228.089 171.621 228.526 172.53 226.464 172.786C225.753 172.874 219.469 172.664 219.469 172.664L219.714 173.229L226.219 174.634C226.691 174.739 227.006 175.188 226.942 175.666C226.872 176.156 226.435 176.505 225.94 176.459L218.986 175.812L212.166 181.268H203.046L203.331 174.815V174.827Z" fill="#FFBE9D"/>
<path d="M180.688 120.4C180.688 120.4 189.662 166.334 192.825 165.995C195.987 165.657 210.821 121.986 210.821 121.986C210.821 121.986 191.858 116.192 180.682 120.4H180.688Z" fill="#FAFAFA"/>
<path d="M220.407 164.859C220.326 164.859 220.256 161.694 220.256 157.782C220.256 153.871 220.326 150.706 220.407 150.706C220.489 150.706 220.558 153.871 220.558 157.782C220.558 161.694 220.489 164.859 220.407 164.859Z" fill="#263238"/>
<path d="M165.307 165.156C165.266 165.156 165.342 164.375 165.493 163.122C165.65 161.868 165.883 160.137 166.157 158.231C166.437 156.325 166.705 154.6 166.914 153.352C167.124 152.105 167.275 151.341 167.316 151.347C167.357 151.353 167.281 152.134 167.13 153.387C166.972 154.64 166.74 156.372 166.466 158.278C166.186 160.184 165.918 161.909 165.709 163.151C165.499 164.392 165.348 165.168 165.307 165.162V165.156Z" fill="#263238"/>
<path d="M191.235 208C191.235 208 191.218 207.854 191.206 207.574C191.206 207.266 191.194 206.858 191.188 206.356C191.183 205.295 191.188 203.762 191.229 201.868C191.299 198.079 191.503 192.85 191.765 187.079C192.027 181.303 192.266 176.08 192.388 172.291C192.446 170.426 192.487 168.898 192.522 167.808C192.54 167.301 192.551 166.899 192.557 166.59C192.569 166.31 192.58 166.165 192.592 166.165C192.604 166.165 192.609 166.31 192.621 166.59C192.621 166.899 192.633 167.307 192.639 167.808C192.644 168.869 192.639 170.402 192.598 172.297C192.528 176.086 192.324 181.314 192.062 187.091C191.8 192.862 191.561 198.091 191.439 201.874C191.381 203.739 191.34 205.266 191.305 206.356C191.287 206.863 191.276 207.266 191.27 207.574C191.258 207.854 191.247 208 191.235 208Z" fill="#263238"/>
<path d="M210.745 121.892C210.745 121.892 210.774 122.091 210.844 122.464C210.908 122.837 211.042 123.379 211.304 124.049C211.561 124.72 211.957 125.507 212.469 126.393C212.97 127.284 213.605 128.275 214.123 129.47C214.63 130.654 215.084 132.088 214.822 133.644C214.7 134.413 214.356 135.165 213.884 135.842C213.418 136.518 212.836 137.136 212.242 137.742C211.048 138.96 209.784 140.231 208.748 141.752C207.717 143.262 206.954 145.086 206.948 147.028C206.948 147.995 207.169 148.928 207.565 149.791C207.944 150.659 208.416 151.493 208.695 152.408C208.835 152.862 208.917 153.34 208.882 153.824C208.847 154.302 208.689 154.769 208.439 155.165C207.932 155.964 207.181 156.477 206.5 156.984C203.757 159.006 201.287 160.831 199.202 162.364C197.135 163.874 195.452 165.104 194.269 165.972C193.699 166.38 193.244 166.707 192.918 166.94C192.773 167.039 192.656 167.12 192.563 167.185C192.481 167.237 192.441 167.266 192.435 167.26C192.435 167.26 192.47 167.22 192.545 167.161C192.633 167.091 192.749 166.998 192.883 166.893C193.204 166.648 193.646 166.31 194.199 165.879C195.37 164.993 197.03 163.74 199.074 162.195C201.147 160.644 203.605 158.802 206.331 156.762C207.006 156.255 207.728 155.742 208.189 155.013C208.416 154.652 208.55 154.238 208.585 153.807C208.614 153.375 208.544 152.932 208.41 152.501C208.148 151.633 207.676 150.811 207.286 149.919C206.878 149.039 206.634 148.042 206.639 147.033C206.645 145.011 207.443 143.128 208.497 141.589C209.557 140.033 210.838 138.756 212.038 137.549C213.232 136.36 214.333 135.09 214.572 133.603C214.834 132.128 214.409 130.729 213.925 129.558C213.43 128.374 212.813 127.383 212.324 126.48C211.829 125.582 211.444 124.778 211.2 124.096C210.949 123.414 210.838 122.854 210.792 122.475C210.763 122.289 210.757 122.143 210.751 122.044C210.751 121.945 210.751 121.898 210.751 121.898L210.745 121.892Z" fill="#263238"/>
<path d="M192.79 165.529C192.79 165.529 192.743 165.529 192.65 165.512C192.54 165.488 192.406 165.465 192.237 165.436C191.876 165.36 191.346 165.232 190.682 165.01C189.365 164.562 187.473 163.716 185.562 162.067C184.607 161.251 183.67 160.225 182.843 159.001C182.021 157.771 181.323 156.331 180.862 154.728C180.391 153.131 180.169 151.37 180.257 149.563C180.292 148.66 180.443 147.733 180.624 146.829C180.787 145.932 180.938 144.982 180.699 144.101C180.583 143.664 180.327 143.285 179.995 143C179.651 142.72 179.232 142.545 178.801 142.399C178.37 142.254 177.921 142.131 177.485 141.956C177.048 141.781 176.646 141.513 176.302 141.193C175.638 140.522 175.272 139.642 175.103 138.785C174.922 137.922 174.916 137.054 174.963 136.226C175.266 132.915 176.034 130.012 176.873 127.652C177.718 125.291 178.638 123.478 179.319 122.26C179.663 121.653 179.942 121.187 180.146 120.878C180.239 120.738 180.315 120.622 180.373 120.528C180.426 120.453 180.455 120.412 180.461 120.418C180.461 120.418 180.443 120.464 180.402 120.546C180.35 120.645 180.28 120.762 180.199 120.913C180.012 121.228 179.75 121.706 179.424 122.318C178.778 123.548 177.892 125.367 177.077 127.722C176.267 130.071 175.528 132.974 175.242 136.238C175.202 137.054 175.213 137.893 175.388 138.721C175.551 139.549 175.9 140.365 176.512 140.977C176.827 141.268 177.188 141.513 177.601 141.676C178.009 141.845 178.451 141.962 178.9 142.114C179.342 142.259 179.803 142.446 180.193 142.766C180.577 143.087 180.868 143.53 180.996 144.02C181.259 144.999 181.084 145.972 180.927 146.882C180.74 147.797 180.6 148.683 180.56 149.575C180.472 151.353 180.682 153.078 181.142 154.646C182.027 157.811 183.85 160.283 185.714 161.903C187.583 163.547 189.441 164.41 190.734 164.894C191.386 165.127 191.905 165.279 192.26 165.372C192.423 165.413 192.557 165.448 192.662 165.477C192.755 165.5 192.796 165.517 192.796 165.523L192.79 165.529Z" fill="#263238"/>
<path d="M217.029 174.891L178.44 173.643L178.498 186.461L204.048 192.087L222.026 194.96C233.202 194.96 242.136 184.695 240.406 173.649L240.36 173.661L217.029 174.897V174.891Z" fill="#27AC75"/>
<path d="M227.652 174.64C227.652 174.64 227.477 174.663 227.151 174.675C226.796 174.687 226.318 174.698 225.718 174.716C224.443 174.739 222.649 174.774 220.442 174.809C215.987 174.873 209.831 174.949 203.028 174.885C196.226 174.815 190.07 174.57 185.621 174.273C183.396 174.121 181.596 173.981 180.356 173.853C179.756 173.789 179.284 173.742 178.929 173.707C178.603 173.672 178.434 173.649 178.434 173.637C178.434 173.626 178.609 173.632 178.935 173.649C179.29 173.672 179.768 173.702 180.367 173.737C181.608 173.824 183.407 173.935 185.632 174.057C190.082 174.302 196.232 174.518 203.028 174.582C209.825 174.646 215.981 174.605 220.436 174.593C222.643 174.593 224.437 174.593 225.713 174.593C226.312 174.599 226.79 174.605 227.145 174.611C227.471 174.617 227.646 174.628 227.646 174.634L227.652 174.64Z" fill="#263238"/>
<path d="M178.108 174.827L174.532 174.162C174.532 174.162 166.052 164.876 164.462 164.742C163.152 164.631 155.936 164.701 153.426 164.731C152.948 164.731 152.564 165.127 152.564 165.605C152.564 166.077 152.937 166.462 153.403 166.479L161.929 166.812L161.97 167.499L153.432 167.61C152.564 167.674 152.005 169.056 154.789 169.301L161.929 169.557V170L154.69 171.014C154.323 171.067 153.362 171.253 153.35 171.621C153.35 171.621 152.913 172.53 154.975 172.786C155.686 172.874 161.97 172.664 161.97 172.664L161.725 173.229L155.22 174.634C154.748 174.739 154.433 175.188 154.498 175.666C154.567 176.156 155.004 176.505 155.499 176.459L162.453 175.812L169.273 181.268H178.393L178.108 174.815V174.827Z" fill="#FFBE9D"/>
<path d="M221.339 194.75C221.339 194.75 221.188 194.75 220.902 194.721C220.588 194.686 220.174 194.646 219.656 194.587C218.573 194.465 217.006 194.267 215.072 193.999C211.211 193.462 205.882 192.617 200.041 191.475C194.199 190.326 188.946 189.096 185.167 188.134C183.274 187.651 181.754 187.243 180.7 186.945C180.199 186.8 179.797 186.683 179.494 186.596C179.22 186.514 179.075 186.461 179.08 186.456C179.08 186.444 179.232 186.473 179.511 186.537C179.82 186.613 180.228 186.706 180.734 186.829C181.824 187.097 183.349 187.464 185.219 187.925C189.01 188.834 194.264 190.029 200.099 191.177C205.935 192.32 211.246 193.2 215.102 193.789C217.006 194.074 218.555 194.307 219.668 194.471C220.186 194.552 220.594 194.611 220.908 194.663C221.193 194.71 221.339 194.739 221.339 194.75V194.75Z" fill="#263238"/>
<path d="M178.842 186.514C178.801 186.514 178.661 185.826 178.51 184.689C178.353 183.553 178.189 181.979 178.102 180.23C178.015 178.481 178.015 176.896 178.05 175.753C178.09 174.605 178.154 173.9 178.195 173.906C178.242 173.906 178.248 174.617 178.265 175.759C178.283 176.902 178.318 178.481 178.405 180.218C178.492 181.956 178.626 183.529 178.725 184.672C178.824 185.809 178.888 186.514 178.848 186.52L178.842 186.514Z" fill="#263238"/>
<path d="M183.064 187.015C183.064 187.015 182.982 186.846 182.895 186.526C182.802 186.205 182.691 185.744 182.575 185.162C182.336 184.007 182.085 182.387 181.975 180.58C181.864 178.779 181.917 177.141 182.016 175.963C182.062 175.374 182.12 174.897 182.173 174.57C182.225 174.244 182.26 174.063 182.283 174.069C182.33 174.069 182.278 174.803 182.231 175.975C182.184 177.152 182.173 178.773 182.278 180.562C182.388 182.352 182.598 183.961 182.784 185.121C182.971 186.281 183.11 186.998 183.064 187.009V187.015Z" fill="#263238"/>
<path d="M179.494 175.952C179.529 175.987 179.302 176.15 179.313 176.517C179.313 176.692 179.383 176.908 179.546 177.036C179.704 177.17 179.966 177.176 180.187 177.047C180.408 176.919 180.536 176.692 180.501 176.488C180.472 176.284 180.315 176.115 180.169 176.022C179.855 175.829 179.605 175.946 179.593 175.899C179.558 175.882 179.826 175.648 180.268 175.835C180.472 175.922 180.705 176.115 180.775 176.441C180.851 176.768 180.647 177.141 180.338 177.316C180.036 177.496 179.61 177.49 179.366 177.257C179.121 177.036 179.075 176.733 179.098 176.511C179.162 176.039 179.494 175.922 179.494 175.957V175.952Z" fill="#263238"/>
<path d="M186.512 188.916C186.512 188.916 186.372 188.933 186.116 188.927C185.854 188.921 185.475 188.927 184.98 188.927C183.996 188.945 182.575 189.044 180.839 189.318C179.104 189.592 177.059 190.058 174.811 190.658C172.563 191.253 170.1 191.976 167.462 192.547C164.829 193.118 162.255 193.445 159.908 193.369C157.561 193.299 155.47 192.839 153.816 192.203C152.156 191.562 150.939 190.775 150.17 190.145C149.786 189.831 149.501 189.574 149.326 189.382C149.139 189.195 149.052 189.096 149.058 189.09C149.081 189.061 149.46 189.463 150.246 190.052C151.026 190.641 152.249 191.393 153.892 191.999C155.534 192.6 157.602 193.031 159.92 193.089C162.237 193.153 164.783 192.821 167.403 192.25C170.024 191.679 172.488 190.967 174.747 190.384C177.007 189.796 179.063 189.353 180.816 189.102C182.569 188.851 184.002 188.787 184.992 188.805C185.487 188.816 185.871 188.834 186.127 188.857C186.384 188.881 186.523 188.892 186.523 188.904L186.512 188.916Z" fill="#263238"/>
<path d="M203.488 125.81C204.409 120.686 205.469 115.311 205.469 115.311C205.469 115.311 212.259 115.376 215.142 107.005C217.891 99.019 219.877 79.8121 219.877 79.8121C211.065 74.2628 199.365 74.8632 191.258 81.2752L184.491 123C183.704 127.844 187.24 132.379 192.429 133.178C197.67 133.988 202.621 130.689 203.494 125.81H203.488Z" fill="#FFBE9D"/>
<path d="M214.822 94.1984C214.74 94.7871 214.175 95.201 213.564 95.1252C212.952 95.0494 212.521 94.5131 212.603 93.9302C212.684 93.3415 213.249 92.9276 213.861 93.0034C214.472 93.0792 214.909 93.6155 214.822 94.1984Z" fill="#263238"/>
<path d="M216.831 93.2774C216.668 93.3998 215.94 92.6303 214.752 92.4263C213.57 92.2048 212.591 92.6595 212.486 92.4904C212.434 92.4147 212.62 92.1815 213.046 91.9716C213.465 91.7618 214.152 91.6044 214.892 91.7385C215.631 91.8726 216.208 92.2573 216.511 92.5954C216.825 92.9393 216.907 93.2249 216.825 93.2774H216.831Z" fill="#263238"/>
<path d="M202.627 92.2631C202.545 92.8518 201.98 93.2657 201.369 93.1899C200.757 93.1141 200.326 92.5779 200.408 91.995C200.489 91.4062 201.054 90.9923 201.666 91.0681C202.277 91.1439 202.714 91.6802 202.627 92.2631Z" fill="#263238"/>
<path d="M204.362 91.5228C204.199 91.6452 203.471 90.8758 202.283 90.6717C201.101 90.4502 200.122 90.9049 200.017 90.7359C199.965 90.6601 200.151 90.4269 200.577 90.2171C200.996 90.0072 201.683 89.8498 202.423 89.9839C203.162 90.118 203.739 90.5027 204.048 90.8408C204.362 91.1847 204.444 91.4703 204.362 91.5228V91.5228Z" fill="#263238"/>
<path d="M207.123 101.1C207.128 101.03 207.891 101.036 209.114 101.094C209.423 101.118 209.72 101.106 209.807 100.908C209.918 100.704 209.848 100.354 209.761 99.975C209.604 99.1881 209.44 98.3662 209.272 97.5035C208.608 93.9944 208.183 91.1264 208.322 91.1031C208.462 91.0798 209.12 93.9011 209.784 97.4102C209.941 98.2729 210.093 99.1006 210.233 99.8876C210.285 100.255 210.413 100.68 210.18 101.106C210.058 101.316 209.807 101.444 209.604 101.461C209.4 101.485 209.225 101.461 209.074 101.444C207.856 101.298 207.111 101.17 207.117 101.1H207.123Z" fill="#263238"/>
<path d="M205.469 115.311C205.469 115.311 199.616 114.664 194.485 110.205C194.485 110.205 196.238 116.617 204.997 117.328L205.469 115.317V115.311Z" fill="#EB996E"/>
<path d="M206.115 103.875C205.789 103.233 205.096 102.79 204.339 102.744C203.815 102.709 203.25 102.866 202.859 103.228C202.475 103.595 202.3 104.178 202.516 104.627C202.755 105.134 203.407 105.355 204.001 105.297C204.595 105.233 205.148 104.947 205.678 104.656C205.824 104.574 205.975 104.493 206.08 104.364C206.185 104.236 206.237 104.055 206.156 103.921" fill="#EB996E"/>
<path d="M203.483 101.304C203.675 101.327 203.453 102.616 204.397 103.729C205.335 104.842 206.738 104.941 206.715 105.122C206.715 105.204 206.365 105.32 205.783 105.233C205.212 105.151 204.414 104.825 203.838 104.143C203.261 103.461 203.104 102.662 203.156 102.126C203.203 101.578 203.401 101.287 203.488 101.304H203.483Z" fill="#263238"/>
<path d="M197.07 75.1139C199.371 80.191 206.82 86.3699 212.58 88.5616C212.056 87.5124 208.823 84.5687 208.299 83.5194C210.623 86.0434 213.977 89.471 217.524 90.3278C217.944 90.4269 218.404 90.5144 218.794 90.3686C219.324 90.1705 219.528 89.6225 219.673 89.1387C220.302 87.081 220.832 83.4495 220.89 81.3044C220.949 79.1534 220.384 76.9034 218.835 75.1663C216.872 72.9571 213.669 71.902 210.588 71.2433C208.002 70.6896 205.3 70.3398 202.749 70.8353C200.198 71.3249 197.822 72.7997 197.059 74.9623" fill="#263238"/>
<path d="M183.349 94.2392C183.332 91.9308 183.384 89.7566 183.571 88.3343C184.153 83.8517 185.545 67.5535 200.582 71.7447L198.981 75.9183C198.981 75.9183 200.134 86.4107 192.417 92.0416C192.417 92.0416 192.452 102.511 187.106 106.288C187.106 106.288 183.378 99.1881 183.349 94.2333" fill="#263238"/>
<path d="M192.743 91.3304C191.852 90.9923 190.88 90.8466 189.942 91.0215C189.004 91.1964 188.119 91.7152 187.589 92.5079C187.059 93.3007 186.919 94.3149 187.083 95.2593C187.246 96.1977 187.688 97.0721 188.242 97.8532C188.638 98.4128 189.109 98.9433 189.715 99.258C190.321 99.5728 191.089 99.6427 191.683 99.2988" fill="#FFBE9D"/>
<path d="M191.247 96.8215C191.346 96.8739 190.851 97.3636 190.047 96.9847C189.663 96.804 189.331 96.3784 189.168 95.8946C189.005 95.3991 188.935 94.8745 188.981 94.2858C189.022 93.7029 189.261 93.1141 189.657 92.7352C190.035 92.3447 190.577 92.1698 190.99 92.2339C191.858 92.368 192.021 93.015 191.922 93.015C191.841 93.0733 191.561 92.7061 190.967 92.7411C190.408 92.7411 189.744 93.3998 189.698 94.3499C189.633 95.3175 189.843 96.2502 190.309 96.5533C190.787 96.9147 191.206 96.7398 191.253 96.8273L191.247 96.8215Z" fill="#EB996E"/>
<path d="M191.235 99.2697C188.899 113.207 190.804 127.453 191.217 141.583C191.258 142.936 191.27 144.358 190.652 145.564C189.721 147.389 187.56 148.275 185.516 148.403C183.472 148.531 181.445 148.053 179.406 147.884C179.185 146.526 178.964 145.174 178.748 143.822C178.067 145.384 177.391 146.946 176.71 148.508C177.607 138.593 178.591 128.689 179.657 118.791" fill="#263238"/>
</g>
<defs>
<clipPath id="clip0_155_926">
<rect width="366" height="208" fill="white"/>
</clipPath>
</defs>
</svg>
