<svg width="549" height="559" viewBox="0 0 549 559" fill="none" xmlns="http://www.w3.org/2000/svg">
<g clip-path="url(#clip0_145_81)">
<path d="M485.363 469.071C474.09 480.78 463.422 488.331 454.995 494.297C355.931 564.426 238.713 543.983 213.8 538.99C177.012 531.619 105.903 517.369 54.4921 457.719C-23.2894 367.475 -11.1778 225.298 49.1542 131.445C60.191 114.278 118.484 18.9936 236.964 3.71404C308.668 -5.53273 392.251 13.1181 452.781 63.1506C579.836 168.174 570.791 380.337 485.363 469.071Z" fill="url(#paint0_linear_145_81)"/>
<path d="M527.872 198.908C527.872 200.06 527.826 201.205 527.723 202.336C526.693 214.754 520.072 225.913 510.237 233.234C503.367 238.359 494.915 241.598 485.714 242.083C461.432 243.364 441.2 225.066 441.2 201.185C441.2 188.847 446.602 177.715 455.175 169.835C456.475 168.636 457.855 167.513 459.297 166.474C466.726 161.113 475.885 157.949 485.712 157.949C509.271 157.949 527.868 176.287 527.868 198.908H527.872Z" fill="#27AC75"/>
<path d="M527.397 95.1574C527.397 96.3087 527.35 97.454 527.247 98.5852C526.217 111.004 519.596 122.162 509.762 129.483C502.891 134.608 494.44 137.847 485.238 138.333C460.956 139.613 440.724 121.315 440.724 97.4338C440.724 85.0961 446.126 73.9641 454.699 66.0844C455.999 64.8847 457.379 63.7616 458.821 62.7232C466.25 57.3618 475.409 54.1982 485.236 54.1982C508.796 54.1982 527.392 72.5365 527.392 95.1574H527.397Z" fill="#27AC75"/>
<path d="M429.766 202.647H429.746L425.704 202.59C424.96 202.58 424.365 201.969 424.375 201.225C424.385 200.481 424.972 199.906 425.741 199.896L429.782 199.953C430.526 199.963 431.121 200.574 431.111 201.318C431.101 202.056 430.5 202.647 429.764 202.647H429.766Z" fill="white"/>
<path d="M417.836 202.479H417.816L409.927 202.368C409.183 202.358 408.588 201.747 408.598 201.003C408.608 200.265 409.209 199.675 409.945 199.675H409.965L417.854 199.785C418.598 199.796 419.193 200.406 419.183 201.15C419.173 201.888 418.572 202.479 417.836 202.479V202.479ZM402.058 202.257H402.038L394.149 202.147C393.405 202.136 392.81 201.524 392.82 200.782C392.83 200.04 393.469 199.459 394.185 199.453L402.074 199.564C402.818 199.574 403.413 200.187 403.403 200.929C403.393 201.667 402.792 202.257 402.056 202.257H402.058ZM386.28 202.036H386.26L378.371 201.925C377.627 201.915 377.032 201.304 377.042 200.56C377.054 199.816 377.68 199.237 378.408 199.231L386.296 199.342C387.041 199.352 387.635 199.963 387.625 200.707C387.615 201.445 387.014 202.036 386.278 202.036H386.28Z" fill="white"/>
<path d="M370.501 201.816H370.48L366.439 201.759C365.695 201.749 365.1 201.138 365.11 200.394C365.122 199.65 365.743 199.054 366.475 199.066L370.517 199.122C371.261 199.132 371.856 199.743 371.846 200.487C371.836 201.225 371.235 201.816 370.499 201.816H370.501Z" fill="white"/>
<path d="M58.6948 173.686C58.6827 175.574 57.142 177.096 55.2525 177.082C53.3649 177.07 51.8424 175.529 51.8565 173.64C51.8686 171.753 53.4093 170.233 55.2988 170.245C57.1864 170.257 58.7089 171.797 58.6948 173.686Z" fill="#91B3FA"/>
<path d="M58.5821 173.687C58.57 175.511 57.0798 176.981 55.2547 176.969C53.4297 176.957 51.9597 175.467 51.9718 173.642C51.9839 171.818 53.4741 170.348 55.2991 170.36C57.1241 170.372 58.5942 171.862 58.5821 173.687Z" fill="#91B3FA"/>
<path d="M58.6948 194.412C58.6827 196.299 57.142 197.822 55.2525 197.807C53.3649 197.795 51.8424 196.255 51.8565 194.366C51.8686 192.478 53.4093 190.958 55.2988 190.97C57.1864 190.982 58.7089 192.523 58.6948 194.412Z" fill="#91B3FA"/>
<path d="M58.5821 194.41C58.57 196.235 57.0798 197.705 55.2547 197.693C53.4297 197.681 51.9597 196.191 51.9718 194.366C51.9839 192.541 53.4741 191.071 55.2991 191.083C57.1241 191.095 58.5942 192.585 58.5821 194.41Z" fill="#91B3FA"/>
<path d="M58.6948 215.136C58.6827 217.023 57.142 218.543 55.2525 218.531C53.3649 218.519 51.8424 216.978 51.8565 215.089C51.8686 213.202 53.4093 211.682 55.2988 211.694C57.1864 211.706 58.7089 213.246 58.6948 215.136Z" fill="#91B3FA"/>
<path d="M58.5821 215.136C58.57 216.961 57.0798 218.43 55.2547 218.418C53.4297 218.406 51.9597 216.916 51.9718 215.091C51.9839 213.267 53.4741 211.797 55.2991 211.809C57.1241 211.821 58.5942 213.311 58.5821 215.136Z" fill="#91B3FA"/>
<path d="M63.9561 173.509L63.9722 174.092C64.0146 175.668 64.9987 176.919 66.2026 176.925L157.78 177.064C159.022 177.07 160.032 175.751 160.03 174.122C160.028 172.525 159.052 171.223 157.834 171.19L66.2409 170.468C64.9543 170.434 63.9097 171.823 63.9561 173.509Z" fill="white"/>
<path d="M63.9561 194.132L63.9722 194.714C64.0146 196.291 64.9987 197.541 66.2026 197.547L157.78 197.687C159.022 197.693 160.032 196.374 160.03 194.745C160.028 193.148 159.052 191.845 157.834 191.813L66.2409 191.091C64.9543 191.057 63.9097 192.446 63.9561 194.132Z" fill="white"/>
<path d="M63.9561 214.757L63.9722 215.339C64.0146 216.916 64.9987 218.166 66.2026 218.172L157.78 218.311C159.022 218.317 160.032 216.999 160.03 215.369C160.028 213.773 159.052 212.47 157.834 212.438L66.2409 211.716C64.9543 211.682 63.9097 213.071 63.9561 214.757V214.757Z" fill="white"/>
<path d="M528.677 307.373C528.677 308.525 528.631 309.67 528.528 310.801C527.497 323.22 520.877 334.378 511.042 341.699C504.172 346.824 495.72 350.063 486.518 350.549C462.237 351.829 442.004 333.531 442.004 309.65C442.004 297.312 447.407 286.18 455.979 278.3C457.28 277.101 458.659 275.978 460.101 274.939C467.53 269.578 476.69 266.414 486.516 266.414C510.076 266.414 528.673 284.753 528.673 307.373H528.677Z" fill="#27AC75"/>
<path d="M509.592 410.558C505.472 397.956 498.218 386.753 488.712 377.674C476.691 366.193 461.067 358.108 443.622 354.888C443.622 354.888 420.979 350.974 396.137 344.576C388.02 342.485 379.335 344.237 372.825 349.238C355.469 362.572 322.879 379.932 271.684 378.761C225.309 377.7 198.655 363.822 184.207 351.875C177.483 346.316 168.221 344.338 159.616 346.699C140.913 351.829 125.355 354.888 125.355 354.888C94.1158 360.656 54.3972 382.019 45.0665 410.558C36.127 437.901 27.004 482.927 26.03 520.608C25.6771 534.308 37.3571 545.618 51.9753 545.618H502.683C517.301 545.618 528.981 534.308 528.628 520.608C527.654 482.927 518.531 437.901 509.592 410.558V410.558Z" fill="#4F52FF"/>
<path d="M271.686 381.094C334.811 382.634 379.069 357.307 391.939 343.848C366.346 335.92 332.921 322.314 332.522 311.033L328.668 202.362H227L223.147 311.033C222.719 323.074 183.757 338.802 159.618 346.899C169.939 360.086 211.856 379.636 271.686 381.094V381.094Z" fill="url(#paint1_linear_145_81)"/>
<path d="M188.665 105.991C188.665 105.991 203.295 264.454 246.023 281.486C246.023 281.486 280.694 296.417 309.656 279.524C309.656 279.524 357.427 236.055 353.993 107.199C353.993 107.199 357.947 32.5371 275.554 26.3571C179.012 19.1186 188.667 105.993 188.667 105.993L188.665 105.991Z" fill="url(#paint2_linear_145_81)"/>
<path d="M345.545 161.706C345.545 161.706 352.787 139.986 364.852 139.986C376.917 139.986 362.438 197.902 345.545 197.902V161.704V161.706Z" fill="url(#paint3_linear_145_81)"/>
<path d="M204.532 156.751C204.532 156.751 194.576 138.359 182.618 139.986C170.661 141.613 187.79 200.08 204.532 197.803V156.751Z" fill="url(#paint4_linear_145_81)"/>
<path d="M201.835 146.109C197.199 148.166 191.793 145.872 190.063 141.105C187.018 132.721 182.341 119.978 178.552 110.239C172.385 94.3832 139.785 74.1214 174.146 34.4788C208.506 -5.16374 227.966 37.8622 250.836 26.4801C273.706 15.0981 301.019 -11.3296 324.807 5.40774C348.594 22.1451 332.736 38.0013 340.665 42.4069C348.594 46.8125 360.93 23.9073 369.74 54.7406C376.556 78.5955 365.453 122.515 360.079 141.17C358.774 145.7 353.617 147.862 349.469 145.617C347.281 144.434 345.838 142.234 345.626 139.754C345.031 132.725 343.631 117.151 341.546 99.6679C338.709 75.8776 316.992 108.838 274.644 113.504C232.296 118.168 235.821 95.2643 215.556 95.2643C207.008 95.2643 206.748 125.081 207.034 137.933C207.113 141.458 205.058 144.68 201.835 146.111V146.109Z" fill="#1D1D1D"/>
<path d="M189.337 123.97C189.337 123.97 189.446 123.9 189.585 123.775C189.692 123.678 189.875 123.454 189.998 123.124C190.25 122.446 190.21 121.238 189.694 119.797C189.22 118.266 188.611 116.496 187.697 114.516C186.82 112.522 185.66 110.344 184.299 108.019C182.956 105.685 181.409 103.196 179.766 100.551C178.128 97.9016 176.406 95.0808 174.825 92.0201C173.248 88.9775 171.813 85.6163 170.939 82.1019C170.036 78.4907 169.604 74.8008 169.669 71.0646C169.768 67.3405 170.34 63.6346 171.347 60.106C172.339 56.5714 173.859 53.2546 175.674 50.2665C177.467 47.2964 179.679 44.645 181.968 42.4331C184.261 40.2011 186.715 38.4126 189.083 36.9649C191.46 35.5253 193.781 34.4647 195.878 33.6622C196.409 33.4767 196.923 33.2972 197.417 33.1238C197.915 32.9585 198.405 32.8315 198.869 32.6924C199.795 32.402 200.672 32.2306 201.452 32.0431C203.025 31.7145 204.271 31.5189 205.128 31.4543C205.981 31.3676 206.435 31.3233 206.435 31.3233C206.621 31.3051 206.786 31.4402 206.804 31.6237C206.822 31.7971 206.705 31.9524 206.538 31.9867L206.518 31.9907C206.518 31.9907 206.078 32.0814 205.253 32.2508C204.842 32.3355 204.334 32.4282 203.747 32.5956C203.16 32.7569 202.475 32.8859 201.731 33.1319C200.986 33.3719 200.154 33.5997 199.28 33.9505C198.841 34.1199 198.379 34.2772 197.913 34.4728C197.449 34.6764 196.969 34.8861 196.473 35.1039C194.503 35.9971 192.343 37.1423 190.139 38.6163C187.925 40.0761 185.697 41.9028 183.567 44.0482C181.434 46.2097 179.488 48.6958 177.774 51.5327C176.092 54.3535 174.698 57.4808 173.734 60.7976C172.77 64.1164 172.212 67.6107 172.103 71.1231C172.024 74.6214 172.375 78.1842 173.16 81.495C173.355 82.3196 173.629 83.2371 173.849 84.0133C174.134 84.8239 174.394 85.6385 174.694 86.4369C175.021 87.2253 175.307 88.0238 175.65 88.798C176.003 89.5662 176.328 90.3405 176.699 91.0906C178.149 94.1029 179.77 96.9318 181.329 99.6175C182.89 102.301 184.392 104.846 185.672 107.261C186.945 109.681 188.03 111.955 188.836 114.038C189.679 116.105 190.238 118.008 190.631 119.522C191.091 121.087 191.097 122.499 190.704 123.404C190.502 123.858 190.248 124.144 190.018 124.325C189.819 124.479 189.736 124.517 189.732 124.525C189.579 124.632 189.369 124.595 189.262 124.442C189.155 124.291 189.191 124.079 189.345 123.972L189.337 123.97Z" fill="#91B3FA"/>
<path d="M193.652 125.66C193.632 125.66 193.61 125.66 193.588 125.654C193.404 125.62 193.285 125.442 193.319 125.261C195.148 115.681 190.397 106.491 185.804 97.6012C181.351 88.9855 176.745 80.0755 177.891 70.6231C179.498 57.3578 191.819 48.2602 200.948 42.5722C201.105 42.4755 201.313 42.5218 201.412 42.6791C201.511 42.8364 201.462 43.0441 201.305 43.1429C192.293 48.7583 180.133 57.7227 178.56 70.7017C177.441 79.9505 181.996 88.7658 186.403 97.2907C191.049 106.281 195.854 115.577 193.981 125.386C193.951 125.547 193.809 125.66 193.65 125.66H193.652Z" fill="#91B3FA"/>
<path d="M255.48 91.4817C255.48 91.4817 255.523 91.6007 255.605 91.8326C255.696 92.0564 255.795 92.4253 255.991 92.8367C256.352 93.6573 257.021 94.861 258.171 96.1354C258.731 96.7866 259.457 97.4117 260.274 98.0448C261.123 98.6376 262.063 99.2586 263.164 99.7405C265.327 100.755 268.026 101.428 270.938 101.41C273.91 101.41 277.082 100.749 280.278 99.5369C283.475 98.3291 286.691 96.6132 289.899 94.6393C291.533 93.6472 293.146 92.6229 294.78 91.5704C296.411 90.4998 298.054 89.4049 299.702 88.2798C303.001 86.0357 306.341 83.7169 309.757 81.4849C313.175 79.2589 316.666 77.1095 320.265 75.2565C323.865 73.4136 327.557 71.8349 331.284 70.746C332.205 70.4476 333.153 70.2581 334.073 70.0121C335 69.7641 335.908 69.5826 336.854 69.4234C338.713 69.1229 340.578 68.9556 342.407 69.0725C344.232 69.1774 346.025 69.5544 347.636 70.248C347.838 70.3307 348.039 70.4174 348.233 70.5182L348.523 70.6654L348.669 70.738L348.741 70.7743L348.778 70.7924L348.852 70.8368C349.195 71.0505 349.534 71.2642 349.869 71.4739C350.203 71.6736 350.548 71.9901 350.879 72.2422C351.226 72.5002 351.514 72.7886 351.794 73.0789C352.389 73.6314 352.853 74.2685 353.331 74.8674C353.748 75.5065 354.176 76.1195 354.495 76.7687C354.858 77.3958 355.114 78.0471 355.394 78.6661C355.628 79.3012 355.862 79.9162 356.041 80.5231C356.775 82.9507 357.112 85.1162 357.338 86.8946C357.568 88.673 357.638 90.0764 357.699 91.0301C357.745 91.9838 357.77 92.4939 357.77 92.4939C357.78 92.6794 357.634 92.8367 357.449 92.8468C357.271 92.8548 357.118 92.7238 357.098 92.5483V92.5423C357.098 92.5423 357.042 92.0402 356.935 91.0966C356.814 90.157 356.652 88.7758 356.354 87.0418C356.051 85.3118 355.618 83.2129 354.809 80.9365C354.39 79.8073 353.902 78.6197 353.228 77.4724C352.918 76.8796 352.51 76.3373 352.117 75.7666C351.671 75.2424 351.24 74.6799 350.697 74.2101C350.441 73.958 350.179 73.71 349.893 73.5144C349.598 73.3088 349.368 73.0769 349.016 72.8793C348.675 72.6797 348.33 72.476 347.981 72.2724L347.511 72.0546C347.342 71.9699 347.164 71.9014 346.985 71.8328C345.563 71.2703 343.972 70.9779 342.316 70.9295C340.659 70.867 338.931 71.0303 337.182 71.3449C336.323 71.5022 335.416 71.6957 334.54 71.9458C333.659 72.1958 332.752 72.3893 331.869 72.6918C328.291 73.7685 324.722 75.3049 321.219 77.1236C317.71 78.9322 314.252 81.001 310.856 83.1907C307.458 85.3764 304.11 87.6669 300.785 89.8949C299.123 91.0119 297.462 92.1027 295.808 93.1714C294.14 94.2299 292.485 95.2764 290.839 96.216C287.528 98.1617 284.186 99.8595 280.825 101.051C277.475 102.247 274.071 102.884 270.946 102.819C267.759 102.755 264.938 101.918 262.666 100.767C261.514 100.212 260.53 99.5207 259.651 98.8574C258.8 98.1537 258.052 97.4601 257.475 96.7443C256.295 95.3308 255.654 94.0263 255.293 93.0927C255.103 92.635 255.031 92.2882 254.948 92.0523C254.875 91.8164 254.839 91.6954 254.839 91.6954C254.785 91.518 254.884 91.3285 255.061 91.274C255.232 91.2216 255.416 91.3144 255.476 91.4817H255.48Z" fill="#91B3FA"/>
<path d="M247.848 233.091C265.836 256.7 283.495 253.615 306.298 233.091C287.901 236.918 266.245 238.134 247.848 233.091V233.091Z" fill="white"/>
<path d="M289.718 145.585C289.718 147.509 291.597 148.878 293.422 148.271C302.271 145.329 325.184 139.391 342.498 149.62C342.498 149.62 332.82 127.366 291.529 142.946C290.436 143.359 289.718 144.416 289.718 145.585V145.585Z" fill="url(#paint5_linear_145_81)"/>
<path d="M260.002 145.585C260.002 147.509 258.122 148.878 256.297 148.271C247.448 145.329 224.536 139.391 207.222 149.62C207.222 149.62 216.899 127.366 258.191 142.946C259.284 143.359 260.002 144.416 260.002 145.585V145.585Z" fill="url(#paint6_linear_145_81)"/>
<path d="M191.023 113C189.163 113 187.655 111.492 187.655 109.632V85.3179C187.655 78.8536 192.914 73.5931 199.381 73.5931H216.212C218.071 73.5931 219.58 75.1013 219.58 76.9603C219.58 78.8193 218.071 80.3275 216.212 80.3275H199.381C196.631 80.3275 194.39 82.5656 194.39 85.3179V109.632C194.39 111.492 192.882 113 191.023 113V113Z" fill="white"/>
<path d="M354.176 113C352.317 113 350.809 111.492 350.809 109.632V85.3179C350.809 82.5656 348.57 80.3275 345.817 80.3275H328.987C327.128 80.3275 325.619 78.8193 325.619 76.9603C325.619 75.1013 327.128 73.5931 328.987 73.5931H345.817C352.283 73.5931 357.544 78.8516 357.544 85.3179V109.632C357.544 111.492 356.035 113 354.176 113Z" fill="white"/>
<path d="M216.212 305.399H199.381C192.916 305.399 187.655 300.141 187.655 293.675V269.36C187.655 267.501 189.163 265.993 191.023 265.993C192.882 265.993 194.39 267.501 194.39 269.36V293.675C194.39 296.427 196.629 298.665 199.381 298.665H216.212C218.071 298.665 219.58 300.173 219.58 302.032C219.58 303.891 218.071 305.399 216.212 305.399Z" fill="white"/>
<path d="M345.819 305.399H328.989C327.13 305.399 325.621 303.891 325.621 302.032C325.621 300.173 327.13 298.665 328.989 298.665H345.819C348.57 298.665 350.81 296.427 350.81 293.675V269.36C350.81 267.501 352.319 265.993 354.178 265.993C356.037 265.993 357.546 267.501 357.546 269.36V293.675C357.546 300.139 352.287 305.399 345.819 305.399Z" fill="white"/>
<path d="M341.373 294.167H203.6C200.88 294.167 198.666 291.953 198.666 289.233V89.1589C198.666 86.439 200.88 84.2251 203.6 84.2251H341.375C344.095 84.2251 346.31 86.439 346.31 89.1589V289.233C346.31 291.953 344.095 294.167 341.375 294.167H341.373ZM203.6 86.2454C201.993 86.2454 200.686 87.552 200.686 89.1589V289.233C200.686 290.84 201.993 292.146 203.6 292.146H341.375C342.982 292.146 344.289 290.84 344.289 289.233V89.1589C344.289 87.552 342.982 86.2454 341.375 86.2454H203.6Z" fill="white"/>
<path d="M83.7023 282.526C83.7023 282.526 77.5195 285.533 76.3821 288.989C75.4706 291.761 68.6324 292.118 67.9569 297.568C67.608 300.383 65.5249 302.637 62.7218 303.067C55.7384 304.137 44.9779 307.763 43.2558 319.885C41.941 329.137 46.6598 332.646 51.6105 333.86C55.2464 334.751 57.6622 338.287 56.9282 341.959C56.2224 345.48 57.275 349.55 63.3752 352.768C77.0456 359.981 90.6958 335.682 90.6958 335.682L93.4928 293.257L83.7003 282.531L83.7023 282.526Z" fill="#1C3871"/>
<path d="M158.084 272.469C158.084 272.469 130.789 315.634 98.3345 323.972C98.3345 323.972 104.658 341.981 109.541 344.042C109.541 344.042 149.469 310.731 159.731 278.603L158.084 272.469Z" fill="url(#paint7_linear_145_81)"/>
<path d="M27.5143 548.552L26.629 555.822C26.4616 557.201 25.3747 558.292 23.9933 558.45C21.6621 558.716 17.9214 558.988 14.2613 558.603C12.6541 558.433 11.6115 556.806 12.1015 555.268C12.9929 552.461 14.6263 548.247 16.9796 545.767H25.046C26.5382 545.767 27.6937 547.072 27.5122 548.552H27.5143Z" fill="#1C3871"/>
<path d="M90.6959 463.377L92.0571 471.386C92.0571 471.386 87.4976 517.565 86.6869 536.036C86.5599 538.932 87.31 541.795 88.8285 544.263L96.7577 557.137L76.608 545.249L76.2067 542.791L79.5059 538.256L75.1843 486.524C74.9302 483.485 75.5574 480.437 76.9912 477.745L81.1595 469.916L90.6959 463.379V463.377Z" fill="url(#paint8_linear_145_81)"/>
<path d="M98.0846 559H91.6537C90.4498 559 89.3144 558.448 88.5804 557.494C86.5759 554.889 82.4218 549.808 80.4375 549.677C77.7635 549.497 78.1063 559 78.1063 559H76.608L74.7104 547.191C74.2324 544.219 75.7106 541.277 78.3785 539.883C78.3785 539.883 78.9896 544.402 82.3028 546.402C85.616 548.4 95.7877 555.558 95.7877 555.558C95.7877 555.558 97.0339 555.381 98.4012 555.627C100.43 555.994 100.148 558.998 98.0846 558.998V559Z" fill="#1C3871"/>
<path d="M63.0988 467.18C63.0988 467.18 36.3872 517.841 32.1403 529.409C27.8934 540.976 26.4071 550.626 26.3507 551.54C26.2619 552.967 24.4853 554.336 19.5891 554.336C17.0623 554.336 15.8241 553.324 15.2191 552.344C14.7029 551.507 14.6747 550.461 15.1102 549.58C16.6549 546.453 21.5593 536.462 23.3742 531.929C25.542 526.517 30.2064 501.997 32.7634 493.472C35.3204 484.947 38.2122 475.698 49.3518 467.18C49.3518 467.18 56.9987 459.691 63.0968 467.18H63.0988Z" fill="url(#paint9_linear_145_81)"/>
<path d="M79.9716 384.166C86.8623 354.972 69.4067 338.461 69.4067 338.461C80.4213 327.889 100.488 323.08 100.488 323.08C100.488 323.08 119.638 337.078 117.365 348.034C116.034 354.456 103.904 386.497 103.904 386.497C103.904 386.497 92.6902 391.804 79.9696 384.166H79.9716Z" fill="url(#paint10_linear_145_81)"/>
<path d="M64.696 398.619C67.5011 390.173 79.9736 384.166 79.9736 384.166C92.6922 391.804 103.908 386.497 103.908 386.497C103.908 386.497 106.423 396.109 104.687 405.043C102.951 413.975 92.059 471.386 92.059 471.386C74.8979 474.862 48.5049 467.887 48.5049 467.887C59.4348 448.484 61.8909 407.068 64.694 398.621L64.696 398.619Z" fill="#1C3871"/>
<path d="M87.9694 303.788L82.3673 328.948C81.8309 331.164 83.8515 330.801 86.092 330.379C89.7621 329.688 94.491 328.262 96.072 325.407C96.2333 325.117 96.314 324.788 96.3584 324.46L98.7642 307.013C98.9557 305.629 98.2076 304.284 96.9291 303.718L92.2849 301.659C90.4962 300.867 88.4272 301.887 87.9674 303.788H87.9694Z" fill="url(#paint11_linear_145_81)"/>
<path d="M69.4068 338.463C69.4068 338.463 15.3342 391.982 93.7529 370.619C93.7529 370.619 94.6463 363.854 93.4807 363.971C68.0516 366.508 57.4162 372.329 78.0861 352.287C78.8161 351.579 78.5903 348.903 78.1204 348C76.6886 345.25 73.4157 339.792 69.4068 338.463V338.463Z" fill="url(#paint12_linear_145_81)"/>
<path d="M98.6996 280.853C98.6996 280.853 104.663 284.89 107.226 295.169C109.789 305.448 105.624 309.136 101.355 308.91C97.0863 308.684 90.8974 307.363 85.5333 299.99C80.1712 292.614 90.8833 275.921 98.6996 280.853V280.853Z" fill="url(#paint13_linear_145_81)"/>
<path d="M90.9418 295.844C90.9418 295.844 88.7559 281.115 100.988 283.367L103.461 285.942C103.461 285.942 109.448 279.202 102.822 274.104C96.197 269.009 87.0014 270.314 81.9156 279.591C76.8298 288.868 74.9826 295.386 79.2457 301.151C83.5087 306.916 86.7151 301.972 86.7151 301.972C86.7151 301.972 84.759 296.981 86.3823 294.842C88.0057 292.701 90.0969 296.086 90.0969 296.086L90.9378 295.844H90.9418Z" fill="#132C5F"/>
<path d="M89.27 297.106C89.27 297.106 88.1911 289.527 84.3193 291.695C80.4475 293.86 85.7148 298.774 87.8261 300.445L89.27 297.106V297.106Z" fill="url(#paint14_linear_145_81)"/>
<path d="M157.896 281.355C157.979 282.246 154.668 282.861 153.613 279.065C153.903 277.417 154.418 270.199 155.682 269.078C162.413 263.105 174.416 256.389 174.416 256.389C175.759 258.438 173.999 259.789 173.999 259.789L168.007 263.831C168.633 265.9 169.544 267.731 169.647 270.094C169.726 271.882 169.064 273.635 167.876 274.994C166.685 276.357 165.079 278.115 163.631 279.45C160.893 281.976 157.898 281.355 157.898 281.355H157.896Z" fill="url(#paint15_linear_145_81)"/>
<path d="M161.151 278.413L160.235 278.036C160.356 277.74 163.232 270.753 164.624 269.302C165.152 268.751 165.408 268.277 165.384 267.898C165.372 267.693 165.271 267.489 165.077 267.281L160.229 269.874L158.088 273.227L157.253 272.693L159.534 269.122L165.212 266.086L165.468 266.293C166.043 266.763 166.34 267.267 166.374 267.836C166.416 268.513 166.077 269.217 165.341 269.985C164.293 271.08 161.962 276.439 161.153 278.411L161.151 278.413Z" fill="url(#paint16_linear_145_81)"/>
<path d="M90.5908 381.658L103.676 335.965C103.826 335.446 104.267 335.067 104.804 335.005C107.175 334.729 114.046 333.952 121.977 333.281C131.531 332.472 142.627 331.817 149.257 332.376C150.199 332.454 150.77 333.452 150.35 334.299C146.579 341.927 131.07 372.952 123.304 383.116C123.046 383.453 122.648 383.65 122.225 383.646L91.8633 383.364C90.98 383.356 90.3468 382.509 90.5908 381.658V381.658Z" fill="#1C3871"/>
<path d="M123.334 329.319L132.822 327.738C133.328 327.653 133.742 328.137 133.58 328.623L132.641 331.468C132.558 331.716 132.342 331.896 132.084 331.93L122.955 333.15C122.483 333.212 122.094 332.783 122.203 332.319L122.784 329.835C122.846 329.567 123.064 329.363 123.334 329.319V329.319Z" fill="#7D97F4"/>
<path d="M116.232 337.35L117.014 333.279C117.093 332.872 117.43 332.563 117.843 332.521L137.007 330.577C137.652 330.513 138.168 331.103 138.017 331.732L136.799 336.805C136.702 337.211 136.347 337.505 135.932 337.525L117.206 338.467C116.597 338.497 116.119 337.949 116.234 337.35H116.232Z" fill="#91B3FA"/>
<path d="M93.7527 370.619C93.7527 370.619 91.9297 363.124 92.6658 360.465C93.4018 357.805 94.8256 354.388 99.5746 355.148C104.324 355.908 109.926 357.908 109.926 357.908C109.926 357.908 109.643 361.372 106.034 360.255L108.272 361.987C108.272 361.987 107.951 364.759 104.904 363.279L106.986 365.576C106.986 365.576 105.677 367.854 103.434 366.393C101.192 364.931 100.117 371.524 93.7547 370.623L93.7527 370.619Z" fill="url(#paint17_linear_145_81)"/>
<path d="M481.85 324.306L463.402 303.712L468.541 299.113L482.076 314.225L502.355 293.533L507.281 298.36L481.85 324.306Z" fill="white"/>
<path d="M484.564 89.905C483.792 89.905 483.165 90.534 483.165 91.3043V93.2198H485.966V91.3043C485.966 90.532 485.338 89.905 484.566 89.905H484.564Z" fill="white"/>
<path d="M484.538 77.4099L468.994 82.5011V96.9882C468.994 107.04 477.389 112.974 484.538 115.187C491.687 112.974 500.082 107.04 500.082 96.9882V82.5011L484.538 77.4099V77.4099ZM489.099 102.344H479.974V93.2198H481.382V91.3043C481.382 89.5501 482.81 88.1246 484.562 88.1246C486.315 88.1246 487.742 89.5501 487.742 91.3043V93.2198H489.097V102.344H489.099Z" fill="white"/>
<path d="M486.758 182.3C478.605 182.3 471.973 188.932 471.973 197.084C471.973 200.558 473.185 203.749 475.199 206.276L466.274 215.2C465.298 216.176 465.298 217.761 466.274 218.737C466.762 219.225 467.403 219.469 468.042 219.469C468.682 219.469 469.323 219.225 469.811 218.737L478.942 209.607C481.213 211.028 483.887 211.865 486.758 211.865C494.911 211.865 501.544 205.233 501.544 197.082C501.544 188.93 494.911 182.298 486.758 182.298V182.3ZM486.758 206.865C481.364 206.865 476.976 202.477 476.976 197.084C476.976 191.69 481.364 187.303 486.758 187.303C492.153 187.303 496.541 191.69 496.541 197.084C496.541 202.477 492.153 206.865 486.758 206.865Z" fill="white"/>
</g>
<defs>
<linearGradient id="paint0_linear_145_81" x1="617.659" y1="708.634" x2="130.875" y2="103.996" gradientUnits="userSpaceOnUse">
<stop stop-color="#DAE3FE"/>
<stop offset="1" stop-color="#E9EFFD"/>
</linearGradient>
<linearGradient id="paint1_linear_145_81" x1="278.522" y1="406.529" x2="271.452" y2="248.953" gradientUnits="userSpaceOnUse">
<stop stop-color="#FEBBBA"/>
<stop offset="1" stop-color="#FF928E"/>
</linearGradient>
<linearGradient id="paint2_linear_145_81" x1="270.107" y1="278.026" x2="272.129" y2="-9.85566" gradientUnits="userSpaceOnUse">
<stop stop-color="#FEBBBA"/>
<stop offset="1" stop-color="#FF928E"/>
</linearGradient>
<linearGradient id="paint3_linear_145_81" x1="356.562" y1="278.633" x2="358.582" y2="-9.24877" gradientUnits="userSpaceOnUse">
<stop stop-color="#FEBBBA"/>
<stop offset="1" stop-color="#FF928E"/>
</linearGradient>
<linearGradient id="paint4_linear_145_81" x1="190.847" y1="277.47" x2="192.867" y2="-10.4102" gradientUnits="userSpaceOnUse">
<stop stop-color="#FEBBBA"/>
<stop offset="1" stop-color="#FF928E"/>
</linearGradient>
<linearGradient id="paint5_linear_145_81" x1="315.637" y1="152.191" x2="317.522" y2="133.532" gradientUnits="userSpaceOnUse">
<stop stop-color="#09005D"/>
<stop offset="1" stop-color="#1A0F91"/>
</linearGradient>
<linearGradient id="paint6_linear_145_81" x1="234.083" y1="152.191" x2="232.196" y2="133.532" gradientUnits="userSpaceOnUse">
<stop stop-color="#09005D"/>
<stop offset="1" stop-color="#1A0F91"/>
</linearGradient>
<linearGradient id="paint7_linear_145_81" x1="137.613" y1="292.941" x2="88.2608" y2="361.161" gradientUnits="userSpaceOnUse">
<stop stop-color="#FEBBBA"/>
<stop offset="1" stop-color="#FF928E"/>
</linearGradient>
<linearGradient id="paint8_linear_145_81" x1="93.2489" y1="613.602" x2="70.8729" y2="352.064" gradientUnits="userSpaceOnUse">
<stop stop-color="#FEBBBA"/>
<stop offset="1" stop-color="#FF928E"/>
</linearGradient>
<linearGradient id="paint9_linear_145_81" x1="48.2286" y1="617.493" x2="25.8486" y2="355.887" gradientUnits="userSpaceOnUse">
<stop stop-color="#FEBBBA"/>
<stop offset="1" stop-color="#FF928E"/>
</linearGradient>
<linearGradient id="paint10_linear_145_81" x1="158.868" y1="153.269" x2="125.538" y2="250.242" gradientUnits="userSpaceOnUse">
<stop stop-color="#FF928E"/>
<stop offset="1" stop-color="#FE7062"/>
</linearGradient>
<linearGradient id="paint11_linear_145_81" x1="95.703" y1="355.805" x2="91.4995" y2="325.052" gradientUnits="userSpaceOnUse">
<stop stop-color="#FEBBBA"/>
<stop offset="1" stop-color="#FF928E"/>
</linearGradient>
<linearGradient id="paint12_linear_145_81" x1="8.68953" y1="385.029" x2="103.604" y2="345.317" gradientUnits="userSpaceOnUse">
<stop stop-color="#FEBBBA"/>
<stop offset="1" stop-color="#FF928E"/>
</linearGradient>
<linearGradient id="paint13_linear_145_81" x1="103.324" y1="318.618" x2="80.0264" y2="247.462" gradientUnits="userSpaceOnUse">
<stop stop-color="#FEBBBA"/>
<stop offset="1" stop-color="#FF928E"/>
</linearGradient>
<linearGradient id="paint14_linear_145_81" x1="94.8117" y1="321.406" x2="71.5147" y2="250.249" gradientUnits="userSpaceOnUse">
<stop stop-color="#FEBBBA"/>
<stop offset="1" stop-color="#FF928E"/>
</linearGradient>
<linearGradient id="paint15_linear_145_81" x1="143.538" y1="297.227" x2="94.1874" y2="365.449" gradientUnits="userSpaceOnUse">
<stop stop-color="#FEBBBA"/>
<stop offset="1" stop-color="#FF928E"/>
</linearGradient>
<linearGradient id="paint16_linear_145_81" x1="157.251" y1="272.249" x2="166.374" y2="272.249" gradientUnits="userSpaceOnUse">
<stop stop-color="#FEBBBA"/>
<stop offset="1" stop-color="#FF928E"/>
</linearGradient>
<linearGradient id="paint17_linear_145_81" x1="92.4903" y1="362.87" x2="109.924" y2="362.87" gradientUnits="userSpaceOnUse">
<stop stop-color="#FEBBBA"/>
<stop offset="1" stop-color="#FF928E"/>
</linearGradient>
<clipPath id="clip0_145_81">
<rect width="549" height="559" fill="white"/>
</clipPath>
</defs>
</svg>
