<svg width="292" height="216" viewBox="0 0 292 216" fill="none" xmlns="http://www.w3.org/2000/svg">
<g clip-path="url(#clip0_155_680)">
<path d="M122.02 16.7576C122.02 16.7576 118.378 45.9545 112.397 52.5247C105.214 60.4069 100.002 59.2543 97.1018 63.3176C97.0965 63.3176 97.0965 63.3229 97.0965 63.3229C94.1965 59.2543 88.9848 60.4122 81.7956 52.5247C75.8099 45.9545 72.1782 16.7576 72.1782 16.7576C87.9457 9.08785 97.0965 0.499268 97.0965 0.499268H97.1018C97.3828 0.770151 106.497 9.21533 122.02 16.7576V16.7576Z" fill="#DBDBDB"/>
<path d="M122.02 16.7576C122.02 16.7576 118.378 45.9545 112.397 52.5247C105.214 60.4069 100.002 59.2543 97.1018 63.3176V0.504578C97.3828 0.770149 106.497 9.21533 122.02 16.7576Z" fill="#EBEBEB"/>
<path d="M118.155 19.1105C118.155 19.1105 115.08 43.7768 110.028 49.3273C103.957 55.9931 99.5512 55.0158 97.0965 58.4523C94.6471 55.0158 90.2413 55.9984 84.1655 49.3273C79.1129 43.7768 76.0432 19.1105 76.0432 19.1105C89.3612 12.6306 97.0965 5.37517 97.0965 5.37517C97.0965 5.37517 104.837 12.6359 118.155 19.1105V19.1105Z" fill="#DBDBDB"/>
<path d="M97.2503 5.51858V58.2452C97.1973 58.3089 97.1442 58.3779 97.0965 58.447C94.6471 55.0158 90.2413 55.9931 84.1655 49.3273C79.1129 43.7768 76.0432 19.1105 76.0432 19.1105C89.3612 12.6306 97.0912 5.37517 97.0912 5.37517C97.0912 5.37517 97.1442 5.42297 97.245 5.51858H97.2503Z" fill="#C7C7C7"/>
<path d="M104.678 30.9072H89.5256V42.7836H104.678V30.9072Z" fill="white"/>
<path d="M103.162 28.5118H101.619V27.1095C101.619 24.6132 99.5937 22.5842 97.0965 22.5842C94.5994 22.5842 92.5794 24.6132 92.5794 27.1095V33.2602H91.0366V27.1095C91.0366 23.7633 93.7564 21.0386 97.0965 21.0386C100.437 21.0386 103.156 23.7633 103.156 27.1095V28.5118H103.162Z" fill="white"/>
<path d="M97.7434 36.0699L98.3796 39.0868H95.6863L96.3225 36.0699C95.9408 35.8309 95.6863 35.4113 95.6863 34.9333C95.6863 34.179 96.2907 33.5842 97.0329 33.5842C97.7752 33.5842 98.3796 34.179 98.3796 34.9333C98.3796 35.4113 98.1251 35.8309 97.7434 36.0699V36.0699Z" fill="#DBDBDB"/>
<path d="M54.8096 167.023H3.28703L1.20874 125.955H56.8879L54.8096 167.023Z" fill="#DBDBDB"/>
<path d="M7.31641 130.497H50.7803L49.9956 144.752H8.23361L7.32171 130.497H7.31641ZM50.2448 131.001H7.85719L8.70547 144.248H49.5185L50.2448 131.001V131.001Z" fill="#C7C7C7"/>
<path d="M8.2019 148.285H48.999L48.3575 161.154H9.00247L8.2019 148.285ZM48.4688 148.789H8.73738L9.47963 160.65H47.8803L48.4688 148.789Z" fill="#C7C7C7"/>
<path d="M24.6479 135.734H32.5528L32.1075 139.17H25.0879L24.6426 135.734H24.6479ZM31.9802 136.238H25.2258L25.5386 138.666H31.6674L31.9802 136.238V136.238Z" fill="#C7C7C7"/>
<path d="M24.6479 153.001H32.5528L32.1075 156.438H25.0879L24.6426 153.001H24.6479ZM31.9802 153.506H25.2258L25.5386 155.933H31.6674L31.9802 153.506V153.506Z" fill="#C7C7C7"/>
<path d="M45.8496 167.018L46.4752 171.496L47.737 180.482H50.2077V167.018H45.8496Z" fill="#DBDBDB"/>
<path d="M45.8496 167.018L46.4752 171.496H50.2077V167.018H45.8496Z" fill="#C7C7C7"/>
<path d="M12.247 167.018L11.6214 171.496L10.3595 180.482H7.88892V167.018H12.247Z" fill="#DBDBDB"/>
<path d="M12.247 167.018L11.6214 171.496H7.88892V167.018H12.247Z" fill="#C7C7C7"/>
<path d="M184.294 34.9599C180.217 35.0342 174.279 35.1989 170.255 35.1989H170.022V34.9599L169.996 29.0164V28.7508H170.261C174.465 28.772 180.302 28.788 184.448 28.873C184.438 30.6735 184.332 33.1433 184.3 34.9599H184.294ZM184.294 34.9599C184.241 33.223 184.188 30.7213 184.151 29.0164L184.294 29.1598C180.233 29.2341 174.375 29.2713 170.255 29.2819L170.52 29.0164L170.494 34.9599L170.255 34.7208C174.226 34.7315 180.27 34.8749 184.294 34.9599Z" fill="#EBEBEB"/>
<path d="M176.464 42.4543C172.387 42.5286 166.449 42.6933 162.425 42.6933H162.191V42.4543L162.16 36.5108V36.2452H162.425C166.629 36.2665 172.466 36.2824 176.612 36.3674C176.602 38.1679 176.496 40.6378 176.464 42.4543ZM176.464 42.4543C176.411 40.7174 176.358 38.2157 176.321 36.5108L176.464 36.6542C172.403 36.7286 166.544 36.7657 162.425 36.7764L162.69 36.5108L162.663 42.4543L162.425 42.2153C166.396 42.2259 172.44 42.3693 176.464 42.4543Z" fill="#EBEBEB"/>
<path d="M192.125 36.5108H178.086V42.4543H192.125V36.5108Z" fill="#EBEBEB"/>
<path d="M24.4092 116.166H10.3701V122.11H24.4092V116.166Z" fill="#EBEBEB"/>
<path d="M79.7595 63.8487C75.6824 63.9231 69.7444 64.0877 65.7204 64.0877H65.4871V63.8487L65.4553 57.9052V57.6396H65.7204C69.9247 57.6609 75.762 57.6821 79.9079 57.7618C79.8973 59.5624 79.7913 62.0322 79.7595 63.8487V63.8487ZM79.7595 63.8487C79.7065 62.1119 79.6534 59.6102 79.6163 57.9052L79.7595 58.0486C75.6983 58.123 69.8399 58.1602 65.7204 58.1708L65.9855 57.9052L65.959 63.8487L65.7204 63.6097C69.6914 63.6203 75.7354 63.7637 79.7595 63.8487Z" fill="#EBEBEB"/>
<path d="M17.3896 6.20906C13.3126 6.28342 7.37458 6.44808 3.35054 6.44808H3.11726V6.20906L3.08545 0.265572V0H3.35054C7.55484 0.0212457 13.3921 0.03718 17.5381 0.122163C17.5275 1.92274 17.4214 4.39255 17.3896 6.20906V6.20906ZM17.3896 6.20906C17.3366 4.47223 17.2836 1.97054 17.2465 0.265572L17.3896 0.40898C13.3285 0.48334 7.47001 0.52052 3.35054 0.531143L3.61563 0.265572L3.58912 6.20906L3.35054 5.97005C7.32156 5.98067 13.3656 6.12408 17.3896 6.20906Z" fill="#EBEBEB"/>
<path d="M59.3587 216C91.7667 216 118.039 213.18 118.039 209.701C118.039 206.222 91.7667 203.401 59.3587 203.401C26.9506 203.401 0.678711 206.222 0.678711 209.701C0.678711 213.18 26.9506 216 59.3587 216Z" fill="#EBEBEB"/>
<path d="M0 180.482C84.7169 180.158 179.746 180.153 264.457 180.482C179.74 180.812 84.7116 180.806 0 180.482Z" fill="#263238"/>
<path d="M104.699 138.012C104.217 140.068 103.708 142.091 103.607 144.2C103.665 144.301 103.649 144.689 103.591 144.582C103.581 144.922 103.061 144.859 103.061 144.524C103.066 144.306 103.072 144.089 103.082 143.876C101.873 142.373 100.124 141.422 98.7029 140.116C97.5577 139.059 96.7359 137.8 96.3065 136.291C95.1295 132.233 96.2323 127.931 94.8167 123.884C93.5973 120.394 91.413 117.361 89.5626 114.196C87.6116 110.85 86.1695 107.339 86.0264 103.424C85.9097 100.423 86.2703 96.429 88.55 94.1823C90.9676 91.7975 93.9631 93.5874 95.8134 95.712C101.179 101.879 103.66 109.676 104.662 117.648C105.213 122.062 105.791 126.497 105.659 130.953C105.585 133.349 105.24 135.686 104.699 138.012V138.012Z" fill="#27AC75"/>
<path d="M103.628 145.82C103.904 141.651 103.888 137.476 103.48 133.322C103.485 133.306 103.501 133.296 103.501 133.274C103.57 129.896 103.835 126.534 103.702 123.151C103.559 119.475 103.024 115.874 102.218 112.289C102.207 112.246 102.144 112.257 102.154 112.3C102.817 115.794 103.199 119.364 103.326 122.922C103.395 124.829 103.379 126.741 103.278 128.648C103.246 129.27 103.188 129.896 103.146 130.518C103.146 130.518 103.146 130.518 103.146 130.512C101.788 121.005 98.284 111.986 93.1148 103.913C93.0459 103.801 92.8497 103.918 92.9186 104.035C96.6404 110.127 99.3868 116.814 101.083 123.756C98.5014 118.965 94.6046 115.03 91.7151 110.43C91.6992 110.403 91.6568 110.43 91.6727 110.457C94.2706 115.577 98.5597 119.619 101.295 124.665C101.773 126.72 102.16 128.797 102.446 130.89C102.844 133.758 103.029 136.642 103.066 139.531C101.497 136.589 99.8639 133.774 98.5756 130.661C98.5438 130.576 98.4218 130.635 98.4484 130.72C99.5405 133.954 101.014 137.433 103.071 140.19C103.082 142.235 103.024 144.285 102.902 146.325C102.578 151.779 101.651 157.165 101.221 162.604C101.211 162.769 101.439 162.785 101.47 162.631C102.6 157.139 103.246 151.408 103.618 145.815L103.628 145.82Z" fill="#263238"/>
<path d="M97.844 103.743C97.8281 103.706 97.7698 103.732 97.7857 103.769C98.7824 106.526 99.3444 109.32 100.06 112.14C100.092 112.268 100.278 112.241 100.267 112.108C99.9753 109.24 98.9521 106.383 97.844 103.743V103.743Z" fill="#263238"/>
<path d="M123.107 115.295C122.46 116.915 121.66 118.482 120.817 120.007C119.025 123.268 117.158 126.253 116.819 130.045C116.671 131.739 116.612 133.444 116.098 135.075C115.653 136.488 114.932 137.794 114.099 139.011C112.159 141.842 109.731 144.285 107.933 147.228C106.062 150.282 104.683 153.644 103.835 157.128C103.793 157.319 103.49 157.266 103.533 157.075C103.538 157.059 103.543 157.048 103.543 157.032C103.538 157.022 103.528 157.011 103.528 156.99C103.241 148.853 103.888 140.652 106.369 132.86C107.451 129.45 108.787 126.062 110.303 122.822C111.629 119.996 113.283 117.276 115.616 115.168C117.127 113.803 120.403 111.216 122.556 112.586C123.589 113.245 123.51 114.281 123.107 115.301V115.295Z" fill="#27AC75"/>
<path d="M114.942 133.737C113.548 136.121 111.899 138.342 110.224 140.535C109.439 141.566 108.638 142.585 107.854 143.616C107.483 144.104 107.069 144.588 106.724 145.108C106.936 144.253 107.149 143.398 107.366 142.543C108.416 138.432 109.423 134.284 110.982 130.332C112.509 126.471 114.534 122.837 116.623 119.258C116.676 119.162 116.527 119.093 116.469 119.189C114.751 122.014 113.012 124.84 111.57 127.82C110.764 129.487 110.086 131.198 109.492 132.94C110.192 129.201 111.035 125.615 112.259 121.998C112.27 121.966 112.222 121.945 112.212 121.977C110.717 125.525 109.64 129.514 109.338 133.359C109.338 133.365 109.338 133.37 109.343 133.375C108.994 134.432 108.67 135.5 108.368 136.573C107.09 141.125 105.966 145.724 104.922 150.34C104.938 147.291 105.129 144.301 105.706 141.289C105.717 141.22 105.616 141.204 105.6 141.273C104.848 144.37 104.503 147.631 104.816 150.813C104.423 152.566 104.036 154.324 103.665 156.082C102.865 159.832 101.884 163.651 101.417 167.459C101.407 167.56 101.545 167.576 101.566 167.485C102.122 165.435 102.456 163.305 102.912 161.229C103.368 159.141 103.84 157.064 104.323 154.982C105.028 151.955 105.765 148.938 106.518 145.921C107.021 144.816 107.992 143.834 108.723 142.904C109.524 141.884 110.324 140.87 111.098 139.834C112.546 137.906 113.876 135.909 115.006 133.774C115.032 133.726 114.958 133.694 114.932 133.742L114.942 133.737Z" fill="#263238"/>
<path d="M115.292 130.258C113.532 132.52 111.931 135.027 110.674 137.609C110.658 137.64 110.711 137.678 110.733 137.646C112.286 135.208 113.813 132.749 115.366 130.305C115.393 130.263 115.324 130.22 115.292 130.258V130.258Z" fill="#263238"/>
<path d="M80.7193 123.007C81.7743 124.824 82.9725 127.007 82.5219 129.185C82.2356 130.566 81.2283 131.686 81.0427 133.094C80.6345 136.201 83.7254 138.257 85.9627 139.723C91.5402 143.387 99.1853 146.654 100.203 154.143C100.24 154.409 100.702 154.34 100.665 154.085C100.665 154.069 100.659 154.053 100.654 154.037C100.665 154.021 100.68 154.016 100.68 153.994C101.401 150.202 101.386 146.335 100.574 142.559C99.742 138.697 98.0614 135.234 96.0785 131.846C92.7225 126.109 89.1703 120.235 84.0912 115.842C82.6862 114.626 79.8074 112.443 78.6887 115.184C77.6019 117.85 79.4204 120.798 80.7087 123.013L80.7193 123.007Z" fill="#27AC75"/>
<path d="M85.8195 135.171C89.5148 139.181 95.3945 141.427 98.5756 145.921C96.6881 139.037 93.5707 132.844 88.7673 127.469C88.6454 127.331 88.8362 127.134 88.9688 127.267C92.4838 130.651 95.0817 134.602 96.9797 138.894C96.1261 135.829 94.9333 132.935 93.5283 130.056C93.4753 129.949 93.629 129.854 93.6926 129.96C95.4793 133.014 96.6669 136.44 97.4092 139.898C101.603 150.069 101.99 161.999 101.115 172.717C101.105 172.871 100.871 172.876 100.877 172.717C101.115 164.267 100.983 155.673 98.9626 147.424C98.9202 147.254 98.8725 147.084 98.83 146.909C95.368 142.075 89.5148 139.834 85.7506 135.24C85.7135 135.197 85.7718 135.133 85.8142 135.176L85.8195 135.171Z" fill="#263238"/>
<path d="M84.9661 131.724C86.9065 133.508 88.8152 135.33 90.7609 137.115C90.7821 137.131 90.7556 137.168 90.7344 137.152C88.619 135.718 86.4718 133.822 84.8494 131.84C84.7858 131.761 84.8866 131.654 84.9661 131.724V131.724Z" fill="#263238"/>
<path d="M84.6586 123.995C86.4187 126.826 88.2691 129.482 90.464 132C90.4905 132.032 90.4481 132.079 90.4163 132.048C88.057 129.774 85.9681 127.023 84.5525 124.059C84.5207 123.99 84.6161 123.932 84.6586 124.001V123.995Z" fill="#263238"/>
<path d="M93.3958 180.27H110.399L108.108 157.351H96.0148L93.3958 180.27Z" fill="#455A64"/>
<path d="M95.5854 161.08H108.479L108.108 157.351H96.0149L95.5854 161.08Z" fill="#263238"/>
<path d="M93.9313 158.477H109.868V154.818H93.9313V158.477Z" fill="#455A64"/>
<path d="M249.771 24.2308L278.215 23.0251C283.374 22.8073 287.711 26.8758 287.828 32.0492L288.835 76.0703C288.946 80.8825 285.352 84.9723 280.569 85.4716C278.963 85.6415 277.765 87.0278 277.823 88.6425L281.397 181.614C281.64 187.95 276.731 193.299 270.401 193.58L161.73 198.414C160.023 198.488 158.581 197.15 158.533 195.439L153.725 34.0516C153.677 32.405 154.934 31.0135 156.572 30.8966L249.771 24.2308V24.2308Z" fill="#1C3871"/>
<g opacity="0.3">
<path d="M158.443 192.385L158.533 195.434L275.517 184.657L273.28 23.2322C273.28 23.2322 244.883 27.5451 244.364 27.5451C243.844 27.5451 158.438 192.385 158.438 192.385H158.443Z" fill="black"/>
</g>
<path d="M234.958 15.5625L268.911 13.491L272.415 180.806L152.924 192.948L135.328 26.5094L234.958 15.5625Z" fill="#EBEBEB"/>
<path d="M234.958 15.5625C234.958 15.5625 234.365 15.6369 233.198 15.775C232.032 15.9077 230.298 16.1043 228.034 16.3592C223.491 16.8638 216.8 17.6127 208.19 18.5688C190.959 20.4756 166.057 23.2269 135.338 26.6209L135.439 26.4934C140.163 71.0882 146.302 129.015 153.073 192.927L152.903 192.789C161.433 191.923 170.51 190.999 179.687 190.07C212.193 186.771 243.462 183.595 272.394 180.658L272.262 180.806C270.761 107.652 269.531 47.6489 268.831 13.491L268.906 13.5601C257.857 14.2187 249.369 14.7286 243.643 15.0685C240.78 15.2332 238.611 15.3607 237.153 15.4457C235.695 15.5306 234.953 15.5625 234.953 15.5625C234.953 15.5625 235.69 15.5041 237.148 15.4085C238.606 15.3129 240.774 15.1748 243.637 14.9942C249.363 14.6383 257.851 14.1072 268.9 13.4167H268.974V13.4857C269.706 47.6436 270.989 107.647 272.553 180.801V180.934L272.421 180.95C243.489 183.892 212.219 187.074 179.714 190.378C170.542 191.307 161.465 192.231 152.929 193.097L152.776 193.113L152.76 192.959C146.016 129.047 139.903 71.1148 135.2 26.52L135.19 26.4031L135.306 26.3925C166.03 23.041 190.938 20.3215 208.169 18.4413C216.784 17.5065 223.475 16.7841 228.018 16.2902C230.287 16.0458 232.021 15.8653 233.188 15.7378C234.354 15.6156 234.948 15.5625 234.948 15.5625H234.958Z" fill="#263238"/>
<path d="M129.39 20.9536L145.565 189.342L270.708 177.529L252.661 9.26845L129.39 20.9536Z" fill="white"/>
<path d="M129.39 20.9536C130.418 20.8527 177.938 16.3008 252.65 9.14629L252.772 9.13567L252.788 9.25783C257.862 56.4924 264.113 114.674 270.862 177.519L270.878 177.673L270.724 177.689C270.443 177.715 270.141 177.742 269.839 177.774C225.219 181.98 182.937 185.964 145.581 189.485L145.443 189.496L145.433 189.358C135.937 89.6517 129.512 22.1859 129.395 20.9589C129.512 22.1859 136.049 89.6463 145.708 189.331L145.555 189.204C182.911 185.672 225.193 181.678 269.812 177.466C270.114 177.439 270.422 177.407 270.698 177.381L270.56 177.551C263.832 114.706 257.597 56.5243 252.539 9.28439L252.677 9.39593C177.949 16.4017 130.423 20.858 129.39 20.9536V20.9536Z" fill="#263238"/>
<path d="M225.362 148.662C225.389 138.474 233.681 130.204 243.849 130.226C254.018 130.252 262.273 138.559 262.252 148.747C262.225 158.934 253.933 167.204 243.765 167.183C233.596 167.156 225.341 158.849 225.362 148.662V148.662ZM261.912 148.747C261.934 138.745 253.833 130.587 243.849 130.566C233.866 130.544 225.723 138.66 225.701 148.662C225.68 158.663 233.781 166.821 243.765 166.843C253.748 166.864 261.891 158.748 261.912 148.747V148.747Z" fill="#E0E0E0"/>
<path d="M227.467 148.667C227.488 139.781 234.72 132.568 243.595 132.589C252.465 132.611 259.664 139.855 259.643 148.747C259.622 157.633 252.39 164.846 243.515 164.824C234.645 164.803 227.446 157.558 227.467 148.667V148.667ZM257.268 148.736C257.284 141.162 251.15 134.985 243.584 134.963C236.024 134.948 229.858 141.093 229.837 148.672C229.821 156.246 235.955 162.424 243.521 162.445C251.081 162.461 257.247 156.315 257.268 148.736Z" fill="#E0E0E0"/>
<path d="M231.427 148.901C231.427 147.02 231.862 145.22 232.7 143.552L234.815 144.625C234.142 145.958 233.797 147.398 233.797 148.906C233.787 154.17 238.049 158.461 243.303 158.472C245.069 158.472 246.792 157.994 248.292 157.075L249.533 159.104C247.661 160.251 245.509 160.857 243.303 160.851C236.74 160.835 231.417 155.476 231.427 148.901Z" fill="#E0E0E0"/>
<path d="M237.832 138.352C239.523 137.471 241.432 137.003 243.351 137.008C249.915 137.024 255.237 142.384 255.227 148.959C255.227 151.206 254.591 153.394 253.398 155.285L251.388 154.016C252.343 152.502 252.846 150.754 252.852 148.954C252.862 143.69 248.6 139.399 243.346 139.388C241.787 139.388 240.297 139.744 238.929 140.461L237.832 138.352V138.352Z" fill="#E0E0E0"/>
<path d="M249.697 52.5885C249.708 52.6735 226.089 54.9786 196.955 57.7299C167.812 60.4866 144.187 62.6536 144.182 62.5687C144.171 62.4837 167.785 60.1838 196.929 57.4272C226.062 54.6706 249.692 52.5035 249.697 52.5885Z" fill="#263238"/>
<path d="M192.444 51.2659C192.454 51.3509 181.554 52.4504 168.103 53.7251C154.653 54.9999 143.742 55.9612 143.731 55.8763C143.72 55.7913 154.621 54.6918 168.071 53.4171C181.522 52.1476 192.433 51.181 192.438 51.2659H192.444Z" fill="#263238"/>
<path d="M250.159 59.4508C250.169 59.5358 226.55 61.841 197.417 64.5923C168.273 67.3489 144.648 69.516 144.643 69.431C144.632 69.346 168.246 67.0462 197.39 64.2896C226.523 61.5329 250.153 59.3659 250.159 59.4508V59.4508Z" fill="#263238"/>
<path d="M250.62 66.3079C250.63 66.3929 227.011 68.6981 197.878 71.4494C168.734 74.206 145.109 76.3731 145.104 76.2881C145.093 76.2031 168.707 73.898 197.851 71.1466C226.984 68.39 250.614 66.2229 250.62 66.3079V66.3079Z" fill="#263238"/>
<path d="M251.076 73.1703C251.086 73.2553 227.467 75.5604 198.334 78.3118C169.19 81.0684 145.565 83.2355 145.56 83.1505C145.549 83.0655 169.164 80.7656 198.307 78.009C227.441 75.2524 251.07 73.0853 251.076 73.1703V73.1703Z" fill="#263238"/>
<path d="M251.537 80.0327C251.548 80.1176 227.928 82.4228 198.795 85.1741C169.651 87.9308 146.027 90.0978 146.021 90.0128C146.011 89.9279 169.625 87.628 198.768 84.8714C227.902 82.1147 251.532 79.9477 251.537 80.0327V80.0327Z" fill="#263238"/>
<path d="M251.998 86.895C252.009 86.98 228.39 89.2852 199.256 92.0365C170.113 94.7931 146.488 96.9602 146.483 96.8752C146.472 96.7902 170.086 94.4904 199.23 91.7337C228.363 88.9771 251.993 86.81 251.998 86.895V86.895Z" fill="#263238"/>
<path d="M252.46 93.7521C252.47 93.8371 229.158 96.1104 200.407 98.8298C171.645 101.549 148.328 103.684 148.322 103.599C148.312 103.515 171.618 101.241 200.38 98.5218C229.132 95.8023 252.454 93.6671 252.46 93.7521Z" fill="#263238"/>
<path d="M211.8 106.951C211.806 107.036 197.74 108.374 180.377 109.941C163.014 111.508 148.932 112.709 148.927 112.624C148.921 112.539 162.987 111.2 180.35 109.633C197.708 108.066 211.79 106.866 211.8 106.951Z" fill="#263238"/>
<path d="M194.713 163.656C194.718 163.741 186.156 164.538 175.589 165.435C165.017 166.333 156.445 166.997 156.439 166.912C156.434 166.827 164.991 166.03 175.563 165.132C186.129 164.235 194.707 163.571 194.713 163.656Z" fill="black"/>
<path d="M178.267 170.21C178.272 170.295 173.469 170.773 167.536 171.278C161.603 171.782 156.789 172.122 156.779 172.037C156.773 171.952 161.577 171.474 167.509 170.97C173.442 170.465 178.256 170.125 178.261 170.21H178.267Z" fill="black"/>
<path d="M176.952 121.924C176.962 122.009 171.305 122.636 164.328 123.326C157.346 124.017 151.683 124.505 151.673 124.42C151.662 124.335 157.314 123.709 164.296 123.018C171.274 122.328 176.941 121.839 176.952 121.924Z" fill="#1C3871"/>
<path d="M215.845 121.164C215.845 121.164 215.883 121.175 215.952 121.202C216.02 121.223 216.126 121.265 216.248 121.345C216.503 121.488 216.853 121.759 217.235 122.179C218.003 123.018 218.926 124.457 219.721 126.47C220.49 128.478 221.216 131.107 221.009 134.204C220.951 134.974 220.824 135.765 220.591 136.562C220.347 137.354 220.039 138.145 219.647 138.926C218.868 140.493 217.781 142.022 216.37 143.361C214.965 144.694 213.269 145.878 211.302 146.68C209.34 147.461 207.113 147.929 204.828 147.7C200.28 147.307 195.635 144.285 193.461 139.568C192.905 138.405 192.576 137.115 192.433 135.803C192.263 134.491 192.406 133.115 192.846 131.83C193.281 130.555 194.029 129.307 195.206 128.515C195.789 128.122 196.468 127.873 197.173 127.777C197.878 127.692 198.604 127.788 199.277 128.027C200.629 128.494 201.78 129.482 202.522 130.72C203.27 131.957 203.651 133.386 203.81 134.825C204.113 137.709 203.673 140.7 202.549 143.446C201.43 146.192 199.638 148.64 197.348 150.425C195.063 152.21 192.3 153.267 189.522 153.58C186.744 153.893 183.918 153.458 181.49 152.268C179.057 151.084 177.095 149.156 175.775 146.951C174.444 144.742 173.781 142.214 173.84 139.77C173.877 138.554 174.062 137.338 174.529 136.238C174.979 135.144 175.637 134.124 176.549 133.397C177.445 132.664 178.632 132.276 179.756 132.446C180.88 132.6 181.861 133.232 182.582 134.023C183.293 134.825 183.796 135.792 184.003 136.801C184.21 137.81 184.178 138.83 184.003 139.792C183.643 141.72 182.794 143.398 181.898 144.891C180.997 146.388 179.984 147.695 178.945 148.826C177.906 149.958 176.835 150.914 175.801 151.726C174.752 152.523 173.749 153.187 172.811 153.718C170.934 154.796 169.349 155.381 168.267 155.726C167.186 156.071 166.597 156.188 166.597 156.188C166.597 156.188 166.741 156.135 167.016 156.055C167.292 155.965 167.716 155.864 168.246 155.667C169.317 155.306 170.887 154.701 172.747 153.617C173.681 153.081 174.672 152.406 175.711 151.609C176.734 150.792 177.789 149.835 178.818 148.704C179.847 147.573 180.843 146.272 181.729 144.784C182.609 143.302 183.441 141.635 183.786 139.749C183.955 138.814 183.982 137.821 183.786 136.849C183.584 135.877 183.102 134.953 182.413 134.183C181.718 133.428 180.785 132.834 179.73 132.69C178.675 132.536 177.567 132.897 176.718 133.593C175.854 134.289 175.218 135.272 174.783 136.334C174.333 137.401 174.152 138.581 174.121 139.776C174.068 142.166 174.714 144.641 176.029 146.803C177.328 148.964 179.247 150.85 181.628 152.003C184.003 153.16 186.771 153.591 189.501 153.277C192.226 152.969 194.935 151.928 197.173 150.181C199.415 148.433 201.176 146.032 202.273 143.329C203.376 140.625 203.81 137.683 203.514 134.857C203.36 133.45 202.989 132.063 202.273 130.879C201.568 129.695 200.465 128.754 199.193 128.314C198.556 128.09 197.878 128 197.22 128.08C196.563 128.165 195.932 128.399 195.386 128.765C194.283 129.503 193.557 130.693 193.138 131.925C192.714 133.168 192.571 134.491 192.735 135.771C192.873 137.051 193.191 138.304 193.732 139.446C195.847 144.062 200.407 147.047 204.86 147.44C207.098 147.668 209.287 147.217 211.222 146.452C213.163 145.671 214.838 144.503 216.227 143.196C217.622 141.879 218.703 140.376 219.477 138.836C219.864 138.065 220.177 137.279 220.421 136.504C220.649 135.723 220.781 134.942 220.845 134.188C221.068 131.134 220.363 128.515 219.615 126.513C218.846 124.5 217.945 123.066 217.197 122.216C216.826 121.791 216.487 121.515 216.243 121.366C215.999 121.207 215.851 121.175 215.856 121.164H215.845Z" fill="black"/>
<path d="M225.293 38.3061C225.293 38.3061 225.277 38.2051 225.256 38.0139C225.235 37.8174 225.203 37.5359 225.161 37.1694C225.076 36.4205 224.954 35.3317 224.8 33.9135C224.493 31.0719 224.042 26.9343 223.475 21.6972L223.576 21.7822C209.102 23.3119 185.875 25.7658 159.726 28.5224L159.864 28.3524C160.458 34.0516 161.036 39.618 161.593 44.9666L161.428 44.8338C179.645 42.9536 195.593 41.3123 206.992 40.1332C212.696 39.5542 217.261 39.0921 220.416 38.7735C221.985 38.6194 223.199 38.4973 224.032 38.4123C224.44 38.3751 224.753 38.3432 224.975 38.322C225.187 38.3007 225.304 38.2954 225.304 38.2954C225.304 38.2954 225.203 38.3114 224.996 38.3379C224.779 38.3645 224.472 38.3963 224.074 38.4441C223.247 38.5344 222.043 38.6672 220.49 38.8372C217.346 39.1771 212.797 39.6658 207.114 40.2819C195.688 41.4929 179.714 43.1926 161.46 45.1259L161.312 45.1419L161.296 44.9931C160.739 39.6392 160.156 34.0782 159.562 28.379L159.546 28.225L159.7 28.209C185.848 25.4949 209.086 23.0888 223.56 21.5857L223.655 21.575L223.666 21.6653C224.191 26.929 224.609 31.0931 224.896 33.9507C225.034 35.3582 225.14 36.4471 225.209 37.1907C225.24 37.5465 225.267 37.8227 225.283 38.0192C225.299 38.2051 225.304 38.2954 225.304 38.2954L225.293 38.3061Z" fill="#455A64"/>
<path d="M261.918 22.2655L231.83 74.4663H292L261.918 22.2655Z" fill="#27AC75"/>
<path d="M261.918 29.8237L238.367 70.6845H285.463L261.918 29.8237Z" stroke="#263238" stroke-width="2" stroke-miterlimit="10"/>
<path d="M259.532 41.6469H264.304L263.98 59.265H259.85L259.532 41.6469Z" fill="#263238"/>
<path d="M263.98 61.4692H259.855V65.6015H263.98V61.4692Z" fill="#263238"/>
<path d="M94.0536 208.729C92.919 209.111 60.3874 209.228 59.1415 208.447C58.6696 208.155 58.378 203.407 58.1819 197.665C58.1394 196.422 58.1076 195.142 58.0758 193.841L55.4355 176.456L77.1834 176.318L79.2352 193.708L79.1503 197.532C79.1503 197.532 91.6254 203.072 92.8978 204.07C94.1649 205.074 95.1776 208.346 94.043 208.729H94.0536Z" fill="#EB9481"/>
<path d="M94.0535 208.729C92.9189 209.111 60.3873 209.228 59.1414 208.447C58.5688 208.086 58.2507 201.155 58.0811 193.841L79.2457 193.703L79.1609 197.527C79.1609 197.527 91.6359 203.067 92.9083 204.065C94.1755 205.069 95.1881 208.341 94.0535 208.723V208.729Z" fill="white"/>
<path d="M94.0536 208.729C92.919 209.111 60.3874 209.228 59.1415 208.447C58.6696 208.155 58.3781 203.407 58.1819 197.665L79.1557 197.532C79.1557 197.532 91.6307 203.072 92.9031 204.071C94.1703 205.074 95.1829 208.346 94.0483 208.729H94.0536Z" fill="#455A64"/>
<path d="M93.5818 207.427C88.1263 207.31 66.1187 207.364 60.7215 207.666C60.6791 207.666 60.6791 207.698 60.7215 207.698C66.124 207.932 88.1316 207.698 93.5818 207.512C93.6985 207.512 93.6985 207.427 93.5818 207.422V207.427Z" fill="#263238"/>
<path d="M81.2765 198.063C79.0921 198.042 76.5632 198.823 75.2166 200.613C75.1635 200.682 75.2643 200.756 75.3279 200.724C77.3001 199.699 79.1717 198.934 81.3136 198.334C81.4673 198.292 81.4302 198.069 81.2765 198.063Z" fill="#263238"/>
<path d="M82.9625 198.717C80.7782 198.695 78.2492 199.476 76.9026 201.266C76.8496 201.335 76.9503 201.41 77.0139 201.378C78.9809 200.353 80.8577 199.588 82.9996 198.987C83.1534 198.945 83.1163 198.722 82.9625 198.717Z" fill="#263238"/>
<path d="M84.6483 199.37C82.464 199.349 79.935 200.129 78.5884 201.919C78.5354 201.988 78.6361 202.063 78.6997 202.031C80.6667 201.006 82.5435 200.241 84.6854 199.641C84.8339 199.598 84.8021 199.375 84.6483 199.37Z" fill="#263238"/>
<path d="M22.7183 93.7733C22.7183 93.7733 49.5929 142.793 50.2715 145.815C51.3107 150.457 56.851 197.033 56.851 197.033L80.6613 196.56C80.6613 196.56 75.28 155.412 70.9908 142.091C67.8999 132.494 42.9604 93.7733 42.9604 93.7733H22.7183V93.7733Z" fill="#263238"/>
<path d="M79.9562 192.47C76.1813 192.444 62.8103 192.29 57.7842 192.762C57.7471 192.762 57.7471 192.832 57.7842 192.837C59.5126 193.086 76.1813 192.699 79.9562 192.577C80.0251 192.577 80.0251 192.476 79.9562 192.47Z" fill="#37474F"/>
<path d="M28.6616 97.3532L34.8594 108.215L40.9776 119.119C43.0135 122.758 45.0176 126.412 47.011 130.077C48.9992 133.742 50.9874 137.407 52.8642 141.141C53.0922 141.613 53.3254 142.075 53.5428 142.559C53.7708 143.021 53.9563 143.573 54.0518 144.088C54.2638 145.124 54.4176 146.155 54.566 147.19C54.8682 149.257 55.1333 151.328 55.3931 153.394C55.9021 157.532 56.3952 161.675 56.8458 165.823L58.1606 178.262L59.3641 190.712L56.4323 165.865C55.9286 161.728 55.4514 157.585 54.9107 153.453C54.6456 151.386 54.3699 149.32 54.0624 147.259C53.9086 146.229 53.7496 145.199 53.5375 144.195C53.4368 143.685 53.2883 143.244 53.055 142.771C52.8483 142.304 52.6203 141.836 52.3923 141.369C48.6546 133.933 44.5881 126.646 40.633 119.311L28.6616 97.3532V97.3532Z" fill="#37474F"/>
<path d="M49.5081 143.982C45.0281 134.464 22.7183 93.7733 22.7183 93.7733H41.0889C42.9074 104.582 47.6419 132.717 49.5081 143.982Z" fill="#37474F"/>
<path d="M43.3846 216C42.1864 216.08 9.90931 207.555 8.90197 206.482C8.87016 206.445 8.84365 206.37 8.82775 206.259C8.7005 205.202 10.3494 201.229 11.5104 196.146C11.5847 195.822 12.1891 194.282 13.0426 192.194C15.386 186.468 19.5638 176.642 19.5638 176.642L40.6383 182.055L32.8765 197.681L31.8268 201.356C31.8268 201.356 42.4833 209.897 43.4589 211.188C44.4291 212.478 44.5828 215.904 43.3899 215.989L43.3846 216Z" fill="#EB9481"/>
<path d="M43.3844 216C42.1862 216.08 9.90906 207.555 8.90173 206.482C8.86992 206.445 8.84341 206.37 8.8275 206.259C8.70026 205.202 10.3491 201.229 11.5102 196.146C11.5844 195.822 12.1888 194.282 13.0424 192.194L32.8763 197.686L31.8266 201.362C31.8266 201.362 42.4831 209.902 43.4586 211.193C44.4289 212.484 44.5826 215.91 43.3897 215.995L43.3844 216Z" fill="white"/>
<path d="M43.3792 215.995C42.181 216.08 9.90381 207.549 8.90178 206.477C8.52005 206.073 9.35773 201.696 11.5049 196.146L31.8213 201.367C31.8213 201.367 42.4779 209.902 43.4534 211.198C44.4236 212.489 44.5721 215.915 43.3792 215.995V215.995Z" fill="#455A64"/>
<path d="M43.2572 214.614C38.0138 213.111 16.7166 207.55 11.4148 206.466C11.3724 206.455 11.3618 206.487 11.4042 206.498C16.5681 208.102 37.913 213.488 43.2307 214.704C43.342 214.731 43.3632 214.651 43.2519 214.619L43.2572 214.614Z" fill="#263238"/>
<path d="M33.7353 202.424C31.6305 201.845 28.9849 201.957 27.2247 203.343C27.1558 203.396 27.2353 203.492 27.3043 203.476C29.4674 202.987 31.4768 202.721 33.7035 202.69C33.8625 202.69 33.8838 202.461 33.7353 202.419V202.424Z" fill="#263238"/>
<path d="M35.1984 203.486C33.0936 202.907 30.4481 203.019 28.6879 204.405C28.6189 204.458 28.6985 204.554 28.7674 204.538C30.9305 204.049 32.9399 203.784 35.1666 203.752C35.3257 203.752 35.3469 203.523 35.1984 203.481V203.486Z" fill="#263238"/>
<path d="M36.6672 204.543C34.5624 203.964 31.9168 204.076 30.1566 205.462C30.0877 205.515 30.1672 205.611 30.2361 205.595C32.3993 205.106 34.4086 204.841 36.6354 204.809C36.7944 204.809 36.8156 204.58 36.6672 204.538V204.543Z" fill="#263238"/>
<path d="M33.274 201.415L9.66528 195.206C9.66528 195.206 33.3112 145.905 33.1309 142.83C32.9665 140.105 16.5735 116.188 15.6616 111.71C14.1771 104.38 17.7399 97.8366 21.1966 93.7786H42.9657C42.9657 93.7786 44.4077 102.882 43.3421 107.025C43.3421 107.025 40.898 108.061 40.3784 108.396C40.3784 108.396 55.4513 133.259 55.849 141.704C56.2466 150.197 33.2846 201.42 33.2846 201.42L33.274 201.415Z" fill="#263238"/>
<path d="M33.6559 197.155C30.2309 196.172 31.2277 196.406 27.7921 195.461C26.1115 194.999 15.0573 191.971 13.4138 191.817C13.3766 191.817 13.3607 191.87 13.3925 191.886C14.8982 192.566 26.0001 195.397 27.6914 195.827C31.1429 196.704 30.162 196.417 33.6241 197.256C33.6877 197.272 33.7142 197.176 33.6506 197.155H33.6559Z" fill="#37474F"/>
<path d="M43.8459 106.59C41.4972 107.418 39.2387 108.576 37.0862 109.787C37.0014 109.835 37.0597 109.963 37.1498 109.92C39.4296 108.927 41.757 107.971 43.9732 106.855C44.1481 106.77 44.0262 106.531 43.8459 106.595V106.59Z" fill="#37474F"/>
<path d="M40.9776 105.99C40.8026 106.42 40.6595 106.861 40.5428 107.307C40.4527 107.652 40.3255 108.029 40.3732 108.39C40.3838 108.459 40.4792 108.465 40.5163 108.417C40.7496 108.119 40.845 107.711 40.9723 107.36C41.1207 106.951 41.2798 106.547 41.4123 106.133C41.5024 105.862 41.0889 105.724 40.9776 105.99V105.99Z" fill="#37474F"/>
<path d="M40.9829 103.769C41.0784 103.392 41.1791 103.021 41.2798 102.649C41.3859 102.261 41.5237 101.879 41.5979 101.486C41.6085 101.422 41.7093 101.454 41.6934 101.512C41.5979 101.889 41.5555 102.282 41.4866 102.665C41.4177 103.047 41.3487 103.429 41.2692 103.812C41.1314 104.524 40.9405 105.235 40.7284 105.931C41.1049 105.878 41.4919 105.809 41.8153 105.597C42.1652 105.363 42.3402 104.933 42.478 104.55C42.6318 104.125 42.7696 103.69 42.9287 103.27C43.1036 102.803 43.3051 102.335 43.4005 101.841C43.4111 101.778 43.5119 101.81 43.496 101.868C43.2733 102.893 43.0559 103.913 42.6265 104.885C42.4568 105.267 42.3349 105.66 41.9584 105.846C41.5555 106.048 41.089 106.08 40.6489 106.101C40.5959 106.122 40.5217 106.101 40.5323 106.027C40.6489 105.267 40.7868 104.497 40.9776 103.759L40.9829 103.769Z" fill="#37474F"/>
<path d="M40.5747 108.417C41.5025 110.095 42.5682 111.71 43.5596 113.351C44.5298 114.955 45.4523 116.591 46.3589 118.232C48.188 121.552 49.8793 124.957 51.4221 128.414C52.1856 130.125 52.9119 131.856 53.5852 133.609C54.2639 135.362 54.9372 137.136 55.3613 138.974C55.7855 140.817 55.8862 142.676 55.5999 144.551C55.3083 146.447 54.7357 148.29 54.1578 150.117C52.8483 154.286 51.3956 158.424 49.5453 162.386C49.4817 162.519 49.2643 162.418 49.312 162.28C50.6003 158.637 51.9364 155.004 53.0975 151.312C54.2214 147.732 55.5522 144.019 54.9319 140.216C54.635 138.384 54.0253 136.615 53.3785 134.879C52.721 133.104 52.0106 131.352 51.2578 129.615C49.7733 126.194 48.1085 122.875 46.4066 119.56C45.4523 117.707 44.4503 115.874 43.4907 114.026C42.5205 112.162 41.5714 110.26 40.4846 108.459C40.4528 108.406 40.5376 108.364 40.5641 108.412L40.5747 108.417Z" fill="#37474F"/>
<path d="M22.7874 104.826C23.2274 104.752 23.8742 104.906 25.7882 104.773C26.3183 104.736 26.8432 104.635 27.3575 104.518C27.8717 104.401 28.3966 104.269 28.8155 103.923C29.5206 103.345 30.0561 102.42 30.4802 101.629C30.9468 100.758 31.4239 99.7646 31.6466 98.7926C31.6625 98.7342 31.7473 98.7608 31.7367 98.8192C31.636 99.3822 31.5777 99.9399 31.4345 100.498C31.2967 101.018 31.0952 101.528 30.8779 102.022C30.4696 102.941 29.9925 103.929 29.1707 104.55C28.3065 105.204 27.103 105.326 26.0585 105.395C25.4541 105.437 23.079 105.373 22.7608 105.034C22.7025 104.975 22.7078 104.842 22.7927 104.826H22.7874Z" fill="#37474F"/>
<path d="M14.4581 191.164C17.0189 184.45 30.883 154.717 33.5975 148.508C34.2443 147.02 35.0236 145.523 35.363 143.929C35.7288 142.192 35.1933 140.625 34.467 139.069C33.1256 136.212 31.5616 133.466 29.9074 130.778C28.248 128.085 26.4931 125.451 24.7647 122.806C23.047 120.182 21.2391 117.558 19.8341 114.748C18.4927 112.066 17.7452 109.198 18.1269 106.186C18.5087 103.196 19.8023 100.397 21.186 97.7516C21.5519 97.0558 21.9283 96.3653 22.2941 95.6695C22.3206 95.6164 22.4055 95.6695 22.3736 95.7173C20.8255 98.4846 19.3463 101.39 18.6306 104.497C18.2754 106.032 18.1216 107.62 18.286 109.192C18.4556 110.786 18.954 112.326 19.6114 113.776C20.8944 116.602 22.6864 119.204 24.3724 121.796C26.1008 124.447 27.861 127.076 29.5416 129.758C31.2329 132.456 32.8446 135.208 34.2443 138.065C34.8699 139.34 35.5485 140.668 35.7023 142.097C35.8666 143.664 35.3046 145.167 34.7002 146.585C32.0759 152.751 14.9724 190.489 14.596 191.249C14.5482 191.344 14.421 191.259 14.4581 191.164V191.164Z" fill="#37474F"/>
<path d="M47.997 69.5691C49.9427 73.4252 57.169 87.4527 61.8346 89.7207C69.257 93.3325 84.4148 89.9066 88.5873 89.009C90.4058 88.6159 88.0889 73.5368 86.122 73.813C84.7965 73.9989 69.6282 78.3064 68.1755 77.9931C66.7228 77.6797 57.9113 69.9091 52.8534 64.8526C48.0341 60.0404 43.8775 61.3948 47.997 69.5691Z" fill="#EB9481"/>
<path d="M94.4245 87.304C91.6516 88.8337 84.7593 89.7419 83.0151 89.3223C81.2708 88.9027 79.3356 77.2123 80.5922 75.8632C81.8487 74.5141 91.5774 70.079 94.7638 70.6314C97.9448 71.1838 97.3033 85.7212 94.4298 87.304H94.4245Z" fill="#EB9481"/>
<path d="M89.2767 88.3581L83.6079 87.0554L77.1474 115.27L82.8161 116.573L89.2767 88.3581Z" fill="#263238"/>
<path d="M86.2598 89.1152C86.2598 89.1152 93.942 47.1655 125.323 8.43987" stroke="#263238" stroke-width="3" stroke-miterlimit="10"/>
<path d="M92.8622 94.3763L88.1443 93.2921L87.9072 94.3274L92.6252 95.4117L92.8622 94.3763Z" fill="#263238"/>
<path d="M95.2336 93.1673L90.8826 92.1673L89.8844 96.5263L94.2355 97.5263L95.2336 93.1673Z" fill="#37474F"/>
<path d="M93.4119 97.3425L92.7556 97.1917L92.4083 98.7085L93.0646 98.8594L93.4119 97.3425Z" fill="#263238"/>
<path d="M95.7887 102.446L95.9392 101.788L94.4251 101.44L94.2746 102.098L95.7887 102.446Z" fill="#263238"/>
<path d="M94.928 102.245L94.2706 102.096L92.4097 98.7076L93.0671 98.8564L94.928 102.245Z" fill="#263238"/>
<path d="M98.8667 101.963L96.04 101.313L95.6749 102.908L98.5016 103.557L98.8667 101.963Z" fill="#37474F"/>
<path d="M90.3792 74.4238L92.8975 75.5285" stroke="#263238" stroke-miterlimit="10"/>
<path d="M95.697 60.4919L98.2154 61.5967" stroke="#263238" stroke-miterlimit="10"/>
<path d="M102.404 45.4659L104.678 47.0221" stroke="#263238" stroke-miterlimit="10"/>
<path d="M117.264 19.408L119.534 20.9642" stroke="#263238" stroke-miterlimit="10"/>
<path d="M109.068 32.2298L111.342 33.786" stroke="#263238" stroke-miterlimit="10"/>
<path d="M85.9788 90.305C85.9788 90.305 91.4449 82.9008 90.8564 74.6362C90.8564 74.6362 96.8103 66.7753 95.9302 60.5928C95.9302 60.5928 103.517 52.0149 102.648 45.6305C102.648 45.6305 108.866 41.4345 109.662 32.6334C109.662 32.6334 117.058 27.2583 117.885 19.8329C117.885 19.8329 124.12 16.4123 125.853 8.9657C125.853 8.9657 135.015 55.6107 171.83 71.5344" stroke="#263238" stroke-width="0.5" stroke-miterlimit="10"/>
<path d="M89.6953 70.7642C88.8577 72.2195 91.0473 72.3736 91.0473 72.3736C91.0473 72.3736 87.8397 72.91 87.5534 74.7478C87.283 76.5165 89.9392 76.6121 90.1301 76.6227C89.9604 76.6546 87.0232 77.2229 86.9278 79.0978C86.8271 81.0471 89.5098 80.6806 89.6847 80.6594C89.531 80.7391 87.5534 81.812 87.8026 83.2514C88.232 85.7265 93.3748 83.1239 95.2781 83.841C95.2781 83.841 94.4351 87.2031 94.4298 87.3093C94.4298 87.3093 99.3711 84.9351 100.193 82.3113C100.628 80.9303 99.4241 80.2504 99.4241 80.2504C99.4241 80.2504 101.105 79.6609 101.227 78.1896C101.285 77.4354 100.135 76.6652 100.135 76.6652C100.135 76.6652 101.46 76.1394 101.486 74.8221C101.513 73.7705 100.352 73.1597 100.352 73.1597C100.352 73.1597 101.391 72.0602 101.068 70.982C100.421 68.799 91.4979 67.657 89.7006 70.7748L89.6953 70.7642Z" fill="#EB9481"/>
<path d="M100.177 73.0322C100.209 73.0375 100.219 73.0003 100.193 72.9897C97.3512 71.8955 93.8892 71.5715 90.9308 72.3629C90.8354 72.3895 90.8354 72.5595 90.9467 72.5488C94.1543 72.3204 97.0172 72.3682 100.177 73.0375V73.0322Z" fill="#263238"/>
<path d="M100.177 76.6493C100.209 76.6546 100.225 76.6015 100.188 76.5855C97.2506 75.4754 93.3485 75.2152 90.0402 76.5271C89.9288 76.5749 89.8705 76.7289 90.003 76.6865C92.2669 75.98 97.3301 76.0331 100.172 76.6493H100.177Z" fill="#263238"/>
<path d="M89.4833 80.8293C92.7015 79.6927 95.9568 79.7033 99.3022 80.1973C99.3446 80.2026 99.3499 80.1389 99.3128 80.1282C97.7435 79.4431 95.5751 79.3475 93.8891 79.4218C92.2721 79.4909 90.8247 79.8786 89.4409 80.7231C89.3879 80.755 89.4144 80.8612 89.478 80.8347L89.4833 80.8293Z" fill="#263238"/>
<path d="M91.0473 72.3789C90.4429 72.5435 89.8438 72.7507 89.2871 73.0216C88.7357 73.2924 88.1896 73.6377 87.8768 74.1263C87.7231 74.3707 87.6542 74.6469 87.6966 74.9177C87.7443 75.1939 87.8556 75.4701 88.0306 75.6826C88.3752 76.1128 88.9902 76.3093 89.5363 76.32L90.9095 76.3518L89.6052 76.8033C89.0379 76.9998 88.4653 77.2866 87.9935 77.6531C87.5216 78.0196 87.1505 78.5136 87.124 79.05C87.0816 79.613 87.3573 80.1017 87.8875 80.2823C88.4017 80.4841 89.0485 80.4841 89.6264 80.3885L91.2329 80.1336L89.8014 80.8984C89.4144 81.1056 89.0273 81.3764 88.7039 81.6792C88.3805 81.9873 88.1048 82.3484 88.0253 82.7362C87.9405 83.1186 88.0677 83.5488 88.3699 83.7719C88.6827 84.0109 89.1546 84.0853 89.6052 84.1065C90.5277 84.1437 91.4767 83.9844 92.4205 83.8728C92.8923 83.8144 93.3695 83.7507 93.8466 83.7135C94.3185 83.6869 94.8222 83.6497 95.2728 83.825C94.8063 83.7029 94.3291 83.7878 93.8625 83.8463C93.396 83.9206 92.9294 84.0162 92.4629 84.1118C91.5298 84.303 90.586 84.4836 89.5999 84.4996C89.1122 84.4889 88.582 84.4624 88.1048 84.1437C87.6118 83.8144 87.4262 83.177 87.5428 82.6299C87.6595 82.0776 87.9935 81.6473 88.354 81.2915C88.7198 80.9409 89.1175 80.6541 89.5681 80.4045L89.7484 80.9143C89.0697 81.0259 88.3858 81.0578 87.6913 80.8081C87.352 80.686 87.0127 80.4363 86.8165 80.0911C86.6203 79.7458 86.562 79.3687 86.5832 78.9969C86.6415 78.2321 87.1505 77.6266 87.686 77.2229C88.2321 76.8139 88.8312 76.5271 89.4727 76.3146L89.5469 76.798C88.8524 76.7608 88.1631 76.4899 87.7284 75.911C87.5163 75.6242 87.405 75.2895 87.3626 74.9443C87.3202 74.5884 87.4368 74.2219 87.633 73.9457C88.0412 73.388 88.6456 73.0959 89.2288 72.8516C89.8226 72.6179 90.4376 72.4586 91.0579 72.3629L91.0473 72.3789Z" fill="#263238"/>
<path d="M82.1138 74.8115C82.1138 74.8115 90.3739 64.2046 92.9294 69.4682C93.6875 71.0351 94.944 78.3702 93.4808 78.6464C91.588 79.0075 90.4959 76.0438 90.1035 74.0785C90.1035 74.0785 87.8026 78.0833 84.542 77.3079C82.4955 76.8192 82.1191 74.8115 82.1191 74.8115H82.1138Z" fill="#EB9481"/>
<path d="M92.6908 69.0486C93.0831 69.6116 93.3217 70.2703 93.5338 70.9182C93.7458 71.5716 93.8943 72.2461 94.0162 72.9206C94.2442 74.2751 94.4298 75.6242 94.4192 77.0264C94.4139 77.3769 94.3873 77.7328 94.276 78.1099C94.2177 78.2958 94.1276 78.4923 93.9791 78.657C93.9049 78.742 93.836 78.8057 93.714 78.8748C93.608 78.9332 93.4966 78.9704 93.3906 78.9863C92.9612 79.0766 92.5529 78.9544 92.2136 78.7685C91.8796 78.5667 91.6092 78.3064 91.3759 78.0196C90.92 77.446 90.6231 76.7927 90.3951 76.1341C90.1565 75.4754 90.0081 74.8009 89.8702 74.121L90.3103 74.1901C90.024 74.6522 89.7059 75.0558 89.3507 75.4436C88.9954 75.826 88.6084 76.1819 88.1843 76.4846C87.7601 76.7874 87.2883 77.0317 86.7952 77.191C86.3022 77.361 85.7826 77.4301 85.2683 77.3982C85.7773 77.361 86.2756 77.2388 86.7369 77.037C87.1982 76.8405 87.617 76.559 88.004 76.2456C88.3911 75.9322 88.7463 75.5764 89.0591 75.1886C89.3719 74.8062 89.6635 74.3866 89.8914 73.9617L90.183 73.4252L90.3315 74.0307C90.4959 74.6841 90.6549 75.3374 90.8988 75.9535C91.1374 76.5696 91.4077 77.1804 91.816 77.6638C92.203 78.1418 92.765 78.5348 93.2793 78.4286C93.7405 78.3755 93.8572 77.6372 93.8837 76.9998C93.9155 76.3412 93.8784 75.6613 93.836 74.9868C93.7935 74.3122 93.7458 73.6377 93.661 72.9631C93.4701 71.63 93.2846 70.2702 92.6908 69.038V69.0486Z" fill="#263238"/>
<path d="M81.2604 74.7265L81.5308 92.0896C81.5308 92.0896 69.5806 93.3431 61.4106 90.3156C58.0439 89.0674 50.3405 76.3625 47.4934 70.0312C44.6464 63.7 45.887 58.3248 53.7866 65.1925C61.6863 72.0602 67.2796 77.4672 67.9582 77.6744C68.6369 77.8815 81.2551 74.7318 81.2551 74.7318L81.2604 74.7265Z" fill="#27AC75"/>
<path opacity="0.4" d="M81.2604 74.7265L81.5308 92.0896C81.5308 92.0896 69.5806 93.3431 61.4106 90.3156C58.0439 89.0674 50.3405 76.3625 47.4934 70.0312C44.6464 63.7 45.887 58.3248 53.7866 65.1925C61.6863 72.0602 67.2796 77.4672 67.9582 77.6744C68.6369 77.8815 81.2551 74.7318 81.2551 74.7318L81.2604 74.7265Z" fill="black"/>
<path d="M77.8195 76.7449C77.6498 77.8762 77.6498 79.05 77.5968 80.192C77.5438 81.3817 77.5226 82.5768 77.5014 83.7666C77.4801 84.9563 77.5438 89.726 77.5597 90.9211C77.5597 90.9742 77.6392 90.9742 77.6445 90.9211C77.7028 89.7313 77.9255 85.0041 77.9467 83.8356C77.9626 82.6671 77.9891 81.4933 77.9732 80.3248C77.9573 79.1403 77.9997 77.924 77.8672 76.7502C77.8672 76.7236 77.8248 76.713 77.8195 76.7449V76.7449Z" fill="#263238"/>
<path opacity="0.1" d="M57.01 86.0029C53.5056 81.3979 49.402 74.2805 47.4934 70.0261C45.6802 65.9841 45.5211 62.3351 47.7001 62.0058C47.8274 62.0058 47.8963 62.0058 47.8963 62.0058L57.01 86.0029Z" fill="black"/>
<path d="M49.2854 102.898C48.6651 103.339 19.4948 96.2378 19.3729 95.9988C19.3039 95.8607 18.7366 93.8105 19.8076 91.5744C23.8369 83.1664 35.7023 64.1462 42.4726 60.7681C44.3177 59.8492 48.9567 61.7348 49.9057 63.0626C50.5048 63.8965 51.2153 68.7034 51.6235 72.6232C52.2915 78.9863 51.5387 94.7825 50.6215 100.689C50.4094 102.064 49.3808 102.824 49.2801 102.893L49.2854 102.898Z" fill="#27AC75"/>
<g opacity="0.4">
<path d="M49.2854 102.898C48.6651 103.339 19.4948 96.2378 19.3729 95.9988C19.3039 95.8607 18.7366 93.8105 19.8076 91.5744C23.8369 83.1664 35.7023 64.1462 42.4726 60.7681C44.3177 59.8492 48.9567 61.7348 49.9057 63.0626C50.5048 63.8965 51.2153 68.7034 51.6235 72.6232C52.2915 78.9863 51.5387 94.7825 50.6215 100.689C50.4094 102.064 49.3808 102.824 49.2801 102.893L49.2854 102.898Z" fill="black"/>
</g>
<path d="M37.8759 72.2142C37.86 76.5324 40.0231 95.0906 42.0431 97.9694C45.7013 103.175 63.494 109.134 67.6135 110.233C69.4108 110.711 74.1877 96.2219 72.3056 95.5739C71.0385 95.1384 54.1576 91.346 53.0071 90.4059C51.8567 89.4658 46.5496 77.0317 44.3335 70.2224C42.2234 63.7425 37.9024 63.0573 37.8706 72.2142H37.8759Z" fill="#EB9481"/>
<path d="M88.7888 98.8192C89.1387 100.365 87.7284 101.193 87.7284 101.193C87.7284 101.193 88.6456 102.064 88.6934 103.281C88.7464 104.672 86.5939 105.368 86.5939 105.368C86.5939 105.368 87.3414 106.441 87.2619 107.732C87.1824 109.07 85.1094 110.085 85.1094 110.085C85.1094 110.085 85.2525 111.466 84.3883 112.533C82.9091 114.355 79.357 113.909 77.0931 113.654C74.8292 113.394 68.658 110.536 67.428 110.111L68.9655 95.558C68.9655 95.558 79.4365 93.8317 82.0502 94.5116C84.2558 95.0852 88.3912 97.0823 88.7888 98.8192V98.8192Z" fill="#EB9481"/>
<path d="M87.6489 100.949C85.454 99.7752 83.0311 99.3131 80.6347 98.7183C80.5817 98.7076 80.5605 98.7873 80.6135 98.8032C82.9993 99.3716 85.2419 100.402 87.6012 101.066C87.6648 101.082 87.7019 100.986 87.6436 100.954L87.6489 100.949Z" fill="#263238"/>
<path d="M86.5672 105.172C86.0635 104.922 85.475 104.837 84.9289 104.731C84.3404 104.614 83.7466 104.508 83.1528 104.412C81.9652 104.221 80.7723 104.051 79.5741 103.918C79.5211 103.913 79.4999 103.993 79.5529 104.003C80.7352 104.2 81.9175 104.412 83.0945 104.656C83.683 104.779 84.2715 104.906 84.8547 105.039C85.4008 105.161 85.9628 105.336 86.5301 105.336C86.6149 105.336 86.6467 105.214 86.5672 105.177V105.172Z" fill="#263238"/>
<path d="M85.0562 110.074C84.6268 109.84 84.0383 109.824 83.5611 109.755C83.0204 109.681 82.4743 109.596 81.9335 109.516C80.8466 109.352 79.7651 109.182 78.6835 108.98C78.6305 108.969 78.6093 109.054 78.6623 109.065C79.7545 109.277 80.8466 109.506 81.9441 109.708C82.4849 109.809 83.0204 109.904 83.5611 110C84.0224 110.079 84.5844 110.233 85.0509 110.133C85.0774 110.127 85.0774 110.09 85.0562 110.079V110.074Z" fill="#263238"/>
<path d="M69.363 94.4744L66.7811 111.131C66.7811 111.131 46.9737 104.837 41.2743 98.2402C38.9256 95.5208 36.7996 78.5189 37.351 71.5928C37.9024 64.6667 41.3856 61.2302 45.0067 71.0616C48.6278 80.8931 52.1853 89.5189 52.8587 89.7472C53.532 89.9703 69.363 94.4744 69.363 94.4744V94.4744Z" fill="#27AC75"/>
<path opacity="0.4" d="M69.363 94.4744L66.7811 111.131C66.7811 111.131 46.9737 104.837 41.2743 98.2402C38.9256 95.5208 36.7996 78.5189 37.351 71.5928C37.9024 64.6667 41.3856 61.2302 45.0067 71.0616C48.6278 80.8931 52.1853 89.5189 52.8587 89.7472C53.532 89.9703 69.363 94.4744 69.363 94.4744V94.4744Z" fill="black"/>
<path d="M46.7245 102.463C45.3249 101.586 41.9477 99.2441 41.0305 97.9003C40.5056 97.1301 40.3624 96.445 40.1451 95.5686C39.9065 94.6072 39.6732 93.6458 39.4664 92.6845C38.65 88.9293 38.1145 85.1422 37.8441 81.3127C37.6903 79.1509 37.6267 76.9839 37.6532 74.8115C37.6532 74.7796 37.6002 74.7796 37.5949 74.8115C37.473 76.5696 37.4253 78.333 37.4465 80.0911C37.404 79.8361 37.3616 79.5865 37.3245 79.3315C37.2238 78.641 37.1443 77.9452 37.1071 77.2441C37.1071 77.2123 37.0488 77.2176 37.0488 77.2494C37.0541 77.9612 37.1018 78.6782 37.2132 79.3846C37.2768 79.7724 37.3616 80.1601 37.4518 80.5372C37.4889 82.5662 37.6267 84.5898 37.86 86.6082C38.088 88.5893 38.3955 90.5599 38.809 92.5145C39.0105 93.4652 39.2332 94.416 39.4823 95.3561C39.7209 96.2591 39.9542 97.1886 40.4473 98.0065C41.391 99.5628 45.0121 101.735 46.6821 102.527C46.7246 102.548 46.7617 102.484 46.7245 102.463V102.463Z" fill="#263238"/>
<path d="M53.2086 89.7154C52.5883 89.657 52.3126 88.7381 52.0953 88.2653C51.8143 87.6545 51.5333 87.0437 51.2523 86.4382C50.7009 85.2378 50.1972 84.0109 49.6936 82.7893C49.28 81.7907 48.893 80.7815 48.5007 79.7671C48.3522 79.1191 48.2091 78.4711 48.0394 77.8231C48.0288 77.7859 47.9652 77.8018 47.9705 77.839C48.0659 78.2905 48.1719 78.742 48.278 79.1934C47.7849 77.9028 47.2972 76.6068 46.7829 75.3267C46.7723 75.2948 46.7246 75.3161 46.7352 75.348C47.3767 77.4672 48.0712 79.5599 48.84 81.6367C49.6034 83.6975 50.4252 85.769 51.4484 87.713C51.7082 88.2122 51.968 88.7328 52.2808 89.2002C52.5088 89.5348 52.7792 89.7632 53.1927 89.8004C53.2457 89.8004 53.2563 89.726 53.2033 89.7207L53.2086 89.7154Z" fill="#263238"/>
<path d="M66.1662 94.8675C65.8216 95.9616 65.636 97.1195 65.4081 98.2402C65.1695 99.4087 64.9627 100.583 64.7559 101.756C64.5492 102.93 63.8652 107.652 63.6956 108.831C63.6903 108.884 63.7645 108.895 63.7751 108.842C64.019 107.673 64.9786 103.042 65.1801 101.889C65.3815 100.737 65.5883 99.584 65.758 98.4261C65.9276 97.2576 66.1609 96.0625 66.2139 94.8781C66.2139 94.8515 66.1768 94.8356 66.1662 94.8622V94.8675Z" fill="#263238"/>
<path d="M47.1382 67.3011C45.8128 66.8656 44.0208 63.3866 43.7451 60.9221C43.7292 60.7521 44.5298 59.3871 45.4311 57.6768C45.9718 56.6358 46.5497 55.4673 47.0004 54.3625L53.2353 58.8825C53.2353 58.8825 51.6076 60.9221 50.8336 62.8555C50.7699 63.0201 50.7275 63.1742 50.6957 63.3282C50.6904 63.3494 50.6851 63.376 50.6745 63.4079C50.4624 64.3267 49.2165 67.9863 47.1382 67.3011V67.3011Z" fill="#EB9481"/>
<path d="M46.1362 56.2852C46.1468 58.0858 46.8308 61.0868 50.8389 62.8555C51.613 60.9221 53.2353 58.8878 53.2353 58.8878L47.0004 54.3731C46.7459 55.0052 46.4437 55.6532 46.1362 56.2905V56.2852Z" fill="#263238"/>
<path d="M46.4649 46.1138C45.2668 48.6208 45.5053 56.4127 47.1118 58.3886C49.4445 61.2514 53.8344 62.1544 56.4058 59.2172C58.8976 56.3702 58.4098 46.2148 56.5595 44.3611C53.8344 41.631 48.2304 42.4171 46.4649 46.1138V46.1138Z" fill="#EB9481"/>
<path d="M52.7157 51.659C52.7157 51.659 52.6733 51.6855 52.6786 51.7068C52.7263 52.2485 52.6945 52.8753 52.2174 53.0824C52.2015 53.0877 52.2068 53.1143 52.2227 53.1143C52.8165 52.9921 52.8536 52.1582 52.7157 51.6537V51.659Z" fill="#263238"/>
<path d="M52.2014 51.1225C51.3266 51.1066 51.3637 52.8594 52.1749 52.8753C52.9702 52.8859 52.933 51.1384 52.2014 51.1225Z" fill="#263238"/>
<path d="M55.8439 51.5474C55.8439 51.5474 55.8863 51.574 55.8863 51.5952C55.8757 52.137 55.9552 52.7637 56.4483 52.9337C56.4642 52.9337 56.4642 52.9656 56.4483 52.9656C55.8492 52.8912 55.7484 52.0626 55.8439 51.5474Z" fill="#263238"/>
<path d="M56.3211 50.9738C57.1906 50.8941 57.286 52.6469 56.4801 52.7159C55.6849 52.7903 55.5947 51.0375 56.3211 50.9738Z" fill="#263238"/>
<path d="M52.5196 50.9419C52.281 50.8888 52.0689 50.8038 51.8356 50.7295C51.5758 50.6445 51.3585 50.602 51.1782 50.3789C51.0828 50.2568 51.1146 50.0337 51.2206 49.9275C51.4751 49.6831 51.8197 49.7097 52.1431 49.8C52.4877 49.8956 52.7316 50.0602 52.9384 50.3577C53.1399 50.6445 52.8377 51.0163 52.5196 50.9473V50.9419Z" fill="#263238"/>
<path d="M57.1373 49.3219C56.8934 49.3538 56.6654 49.3432 56.4215 49.3485C56.1459 49.3538 55.9285 49.391 55.6846 49.237C55.5521 49.152 55.5096 48.9342 55.5733 48.7961C55.7323 48.4827 56.0663 48.3924 56.4003 48.3659C56.7609 48.3393 57.0419 48.4137 57.3388 48.6208C57.625 48.8227 57.4607 49.2741 57.1426 49.3166L57.1373 49.3219Z" fill="#263238"/>
<path d="M51.4275 57.2413C51.56 57.3635 51.6926 57.5334 51.8887 57.5441C52.0743 57.5547 52.2917 57.4644 52.4613 57.39C52.4772 57.3847 52.4931 57.4006 52.4878 57.4166C52.3553 57.629 52.069 57.7671 51.8145 57.73C51.5706 57.6981 51.4434 57.4909 51.3745 57.2679C51.3639 57.236 51.4063 57.2254 51.4275 57.2413V57.2413Z" fill="#263238"/>
<path d="M52.5513 55.0264C52.8747 55.4938 53.3306 55.7382 53.8237 55.8178C54.0411 55.855 54.269 55.855 54.497 55.8285C54.5394 55.8285 54.5871 55.8178 54.6243 55.8072C54.6614 55.8019 54.6985 55.7966 54.7462 55.786C54.8098 55.7753 54.8416 55.7222 54.8522 55.6585C54.8522 55.6585 54.8522 55.616 54.8469 55.6001V55.5469C54.8469 55.122 54.7833 54.4847 54.7833 54.4847C54.9424 54.559 55.7376 54.8883 55.7164 54.6652C55.5521 52.8434 55.3665 50.8145 54.8151 49.0404C54.7992 48.982 54.7091 48.9979 54.7144 49.0564C54.8045 50.8145 55.2021 52.546 55.3241 54.3094C55.0696 54.2244 54.6561 54.0597 54.4387 54.0704C54.3804 54.0916 54.5765 55.3079 54.5659 55.4938C54.5659 55.4938 54.5659 55.5045 54.5659 55.5151C53.8608 55.6266 53.32 55.4301 52.6202 54.9786C52.5778 54.9468 52.5354 54.9892 52.5725 55.0317L52.5513 55.0264Z" fill="#263238"/>
<path d="M54.1794 55.7222C54.1794 55.7222 53.7818 56.2002 53.2675 56.3543C53.0767 56.4127 52.8752 56.4233 52.6684 56.3543C52.2443 56.2162 52.2549 55.8178 52.3503 55.4832C52.4299 55.207 52.573 54.9733 52.573 54.9733C52.573 54.9733 53.1721 55.6 54.1794 55.7222V55.7222Z" fill="#263238"/>
<path d="M53.2617 56.3543C53.0708 56.4127 52.8694 56.4233 52.6626 56.3543C52.2384 56.2162 52.249 55.8178 52.3445 55.4832C52.8057 55.5575 53.2458 55.8975 53.2617 56.3543V56.3543Z" fill="#F291B8"/>
<path d="M45.3461 50.926L45.2983 52.0839C45.2983 52.0839 47.3024 52.392 47.5781 52.4982C47.8485 52.6044 50.2502 53.9748 51.5226 53.9695C52.742 53.9588 54.0463 53.7092 54.2954 53.4118C54.5499 53.1143 54.9369 52.7319 55.1914 52.8063C55.5732 52.9231 55.5785 53.3427 55.9337 53.4489C56.2147 53.5339 57.0046 53.6561 57.6674 53.2099C57.9696 53.0028 58.3407 52.4929 58.3672 52.4185C58.3937 52.3282 58.4308 50.1824 58.3407 50.1027C58.1286 49.9062 56.9516 49.6035 56.2677 49.6141C55.8648 49.6141 55.1755 50.193 54.8627 50.1771C53.9137 50.1346 52.742 49.4972 51.6339 49.5504C51.0083 49.5822 50.176 49.7947 49.614 50.0602C48.6225 50.5223 47.8008 50.9844 47.5781 50.9951C47.2335 51.011 45.3408 50.9313 45.3408 50.9313L45.3461 50.926ZM55.552 51.7227C55.6103 50.9579 56.2889 50.4639 56.8509 50.3418C57.4076 50.2196 58.0332 50.9526 57.9484 51.5368C57.8741 52.0573 57.5825 52.7691 56.7289 52.9497C55.8754 53.1303 55.5095 52.3282 55.552 51.7227ZM49.842 51.744C49.9215 51.1332 50.8599 50.4692 51.74 50.448C52.6254 50.4214 53.6115 51.0376 53.585 51.6484C53.5638 52.1795 53.2722 53.194 51.9361 53.2259C50.6001 53.2577 49.7677 52.3548 49.842 51.7493V51.744Z" fill="#263238"/>
<path d="M45.6749 51.4784C47.0693 51.4572 48.8984 47.2877 48.8984 47.2877C48.8984 47.2877 48.3894 49.1307 48.7499 49.1785C49.1051 49.2264 51.194 47.1018 51.8409 45.349C51.8409 45.349 53.1822 46.9053 54.6879 47.8401C56.1936 48.7749 58.0386 49.152 58.1128 48.8758C58.3355 48.0419 58.1659 45.6677 57.2434 44.5948C56.183 43.3572 54.5607 41.9975 51.6076 42.3056C48.6545 42.6136 47.4881 44.1433 46.73 45.3756C45.9718 46.6078 45.1659 51.4943 45.6749 51.489V51.4784Z" fill="#263238"/>
<path d="M47.1488 52.5407C47.1488 52.5407 45.7545 49.8531 44.5616 50.3205C43.3687 50.7879 44.1904 54.5218 45.4364 55.1805C46.6823 55.8391 47.3132 54.6971 47.3132 54.6971L47.1541 52.5354L47.1488 52.5407Z" fill="#EB9481"/>
<path d="M44.8214 51.3881C44.8214 51.3881 44.7948 51.4146 44.8107 51.42C45.6802 51.9139 46.0514 52.8275 46.274 53.757C46.0461 53.3799 45.6961 53.1462 45.2031 53.4117C45.1766 53.4277 45.1925 53.4649 45.219 53.4649C45.606 53.433 45.8658 53.5339 46.0832 53.8685C46.2369 54.1075 46.3218 54.3891 46.4172 54.6546C46.449 54.7449 46.6027 54.7184 46.5868 54.6174C46.5868 54.6121 46.5868 54.6015 46.5868 54.5962C46.7618 53.4277 46.0673 51.6696 44.8267 51.3881H44.8214Z" fill="#263238"/>
<path d="M55.0379 43.012C54.2957 42.4596 53.3944 41.8541 52.281 41.4398C51.1676 41.0308 48.8454 40.266 46.6717 41.4238C44.8691 42.3852 44.3973 44.8816 44.2594 45.3756C44.1216 45.8695 43.6444 48.9395 44.5722 49.9221C45.4947 50.9048 46.7831 45.8005 48.8985 44.4992C51.0139 43.1979 55.0379 43.012 55.0379 43.012Z" fill="#27AC75"/>
<path opacity="0.4" d="M55.0379 43.012C54.2957 42.4596 53.3944 41.8541 52.281 41.4398C51.1676 41.0308 48.8454 40.266 46.6717 41.4238C44.8691 42.3852 44.3973 44.8816 44.2594 45.3756C44.1216 45.8695 43.6444 48.9395 44.5722 49.9221C45.4947 50.9048 46.7831 45.8005 48.8985 44.4992C51.0139 43.1979 55.0379 43.012 55.0379 43.012Z" fill="black"/>
<path opacity="0.1" d="M55.0379 43.012C55.0379 43.012 51.0139 43.1979 48.8984 44.4992C46.783 45.8005 45.4947 50.9047 44.5669 49.9221C44.1587 49.4919 44.0367 48.9608 44.0261 48.1109C44.5987 46.6662 45.7439 44.4832 47.3609 43.1607C48.8772 41.9231 51.0616 41.6257 53.2671 41.8806C53.9404 42.2259 54.5236 42.6295 55.0326 43.012H55.0379Z" fill="black"/>
<path d="M44.1692 53.0346C44.5827 51.6909 46.8148 48.3553 48.7552 46.5972C50.6957 44.8391 55.2552 44.6054 55.8437 44.7754C57.2751 45.195 57.6675 45.7527 57.9273 45.673C58.187 45.5986 56.9464 44.1539 56.5912 43.8193C56.2413 43.4794 55.2764 42.6455 54.6402 42.518C54.004 42.3905 50.0223 41.87 48.225 43.2085C46.4277 44.5417 43.3474 48.7377 43.4428 50.0178C43.464 50.3258 43.8034 50.5967 43.8299 51.0322C43.867 51.6006 43.8299 52.2432 43.9094 52.6522C43.9677 52.9815 44.1374 53.1621 44.1692 53.0453V53.0346Z" fill="#27AC75"/>
<path opacity="0.4" d="M44.1692 53.0346C44.5827 51.6909 46.8148 48.3553 48.7552 46.5972C50.6957 44.8391 55.2552 44.6054 55.8437 44.7754C57.2751 45.195 57.6675 45.7527 57.9273 45.673C58.187 45.5986 56.9464 44.1539 56.5912 43.8193C56.2413 43.4794 55.2764 42.6455 54.6402 42.518C54.004 42.3905 50.0223 41.87 48.225 43.2085C46.4277 44.5417 43.3474 48.7377 43.4428 50.0178C43.464 50.3258 43.8034 50.5967 43.8299 51.0322C43.867 51.6006 43.8299 52.2432 43.9094 52.6522C43.9677 52.9815 44.1374 53.1621 44.1692 53.0453V53.0346Z" fill="black"/>
<path d="M49.3066 45.7314C49.0203 45.4446 48.7605 45.1471 48.522 44.8178C48.2887 44.4938 48.066 44.138 47.9123 43.7662C47.9017 43.7396 47.8592 43.7502 47.8699 43.7768C47.9918 44.1858 48.1402 44.5629 48.3788 44.9188C48.6121 45.2587 48.9143 45.5614 49.2589 45.7898C49.296 45.8164 49.3384 45.758 49.3066 45.7261V45.7314Z" fill="#263238"/>
<path d="M44.4715 51.6643C44.4556 51.558 44.4131 51.4571 44.3866 51.3509C44.3601 51.2287 44.3389 51.1066 44.3389 50.9844C44.3389 50.7454 44.3919 50.5223 44.3389 50.2833C44.2965 50.0974 44.2064 49.9274 44.1269 49.7522C44.0314 49.5556 43.936 49.3538 43.989 49.136C43.9943 49.1095 43.9519 49.0935 43.9413 49.1254C43.8459 49.5397 44.0526 49.9009 44.1534 50.2886C44.217 50.5382 44.1534 50.7879 44.1746 51.0428C44.1958 51.2553 44.2435 51.5368 44.4025 51.6961C44.4238 51.7174 44.4768 51.7015 44.4715 51.6643V51.6643Z" fill="#263238"/>
<path d="M45.2825 50.2992C45.1871 50.1133 45.0811 49.9434 45.0068 49.7469C44.9326 49.561 44.8796 49.3644 44.8319 49.1679C44.7842 48.9767 44.7577 48.7802 44.7152 48.5837C44.6675 48.3553 44.588 48.1269 44.5509 47.8985C44.5509 47.8666 44.5032 47.8825 44.5085 47.9091C44.5509 48.1481 44.5456 48.3978 44.5774 48.6368C44.6039 48.8439 44.6516 49.0511 44.7099 49.2529C44.763 49.4494 44.8319 49.6353 44.9167 49.8212C45.0015 49.9912 45.1182 50.1877 45.2666 50.3152C45.2772 50.3258 45.2931 50.3152 45.2878 50.2992H45.2825Z" fill="#263238"/>
<path d="M46.0885 49.0776C45.8605 48.7695 45.6696 48.4243 45.5424 48.0684C45.4151 47.7126 45.3091 47.3514 45.2084 46.9902C45.2031 46.9637 45.1606 46.969 45.1606 46.9955C45.2084 47.3833 45.2508 47.771 45.3886 48.1428C45.4575 48.3181 45.5318 48.4987 45.6378 48.6527C45.7544 48.8226 45.8976 48.9714 46.0513 49.1095C46.0725 49.1254 46.1044 49.1042 46.0885 49.0776V49.0776Z" fill="#263238"/>
<path d="M46.921 47.925C46.7885 47.7976 46.7195 47.6382 46.6453 47.4736C46.5605 47.293 46.4863 47.1124 46.412 46.9265C46.3431 46.7512 46.2689 46.5759 46.2 46.3954C46.131 46.2148 46.0621 46.0289 46.0727 45.8377C46.0727 45.8111 46.0303 45.8058 46.025 45.8323C45.9879 46.0236 46.0144 46.2148 46.0568 46.4007C46.1045 46.6078 46.1628 46.8096 46.2424 47.0062C46.3219 47.1974 46.412 47.3886 46.5128 47.5692C46.6029 47.7285 46.7142 47.8932 46.8839 47.9728C46.9157 47.9888 46.9528 47.9463 46.921 47.9197V47.925Z" fill="#263238"/>
<path d="M47.6843 46.39C47.5888 46.236 47.4881 46.082 47.4033 45.9226C47.3185 45.7633 47.2389 45.5986 47.1647 45.434C47.0852 45.2587 47.0057 45.0887 46.9367 44.9081C46.9261 44.8816 46.889 44.8922 46.8943 44.9188C46.9314 45.11 46.9685 45.2906 47.0322 45.4765C47.0958 45.6571 47.17 45.827 47.2601 45.9917C47.345 46.1563 47.4404 46.321 47.5464 46.4697C47.6472 46.6184 47.7638 46.7884 47.9176 46.884C47.9388 46.8999 47.9759 46.8734 47.9653 46.8468C47.9017 46.6822 47.7797 46.5334 47.6896 46.3847L47.6843 46.39Z" fill="#263238"/>
<path d="M50.5315 45.1949C50.4361 44.9984 50.3406 44.8019 50.2293 44.6107C50.1127 44.4195 49.9854 44.2336 49.8476 44.053C49.5825 43.7024 49.2909 43.3784 48.9516 43.0916C48.9304 43.0757 48.8985 43.0969 48.9145 43.1182C49.434 43.8193 49.9801 44.5045 50.4891 45.2109C50.505 45.2374 50.5421 45.2109 50.5315 45.1896V45.1949Z" fill="#263238"/>
<path d="M51.6236 44.2176C51.5228 44.0211 51.4062 43.8405 51.263 43.6706C50.9661 43.32 50.6109 43.0279 50.2451 42.7464C50.2239 42.7304 50.1921 42.757 50.2133 42.7782C50.5102 43.0969 50.8177 43.4103 51.0987 43.7449C51.2365 43.9096 51.3744 44.0795 51.4963 44.2601C51.6183 44.4407 51.6925 44.6426 51.8038 44.8231C51.8144 44.8391 51.8356 44.8338 51.8356 44.8125C51.8197 44.6054 51.719 44.3982 51.6236 44.2176V44.2176Z" fill="#263238"/>
<path d="M52.8853 43.9468C52.7952 43.7556 52.6838 43.575 52.5619 43.4103C52.3233 43.0916 52.0317 42.8207 51.703 42.5924C51.6818 42.5764 51.6553 42.6136 51.6765 42.6295C51.9628 42.9057 52.2226 43.2085 52.4612 43.5325C52.5778 43.6918 52.6891 43.8618 52.8005 44.0264C52.9118 44.1911 52.9913 44.3876 53.1186 44.5363C53.1292 44.547 53.1451 44.5363 53.1451 44.5204C53.0974 44.3239 52.9807 44.1274 52.8959 43.9468H52.8853Z" fill="#263238"/>
<path d="M53.8608 43.4528C53.7442 43.3041 53.6222 43.1607 53.495 43.0173C53.373 42.8739 53.2458 42.7358 53.0814 42.6402C53.0549 42.6242 53.039 42.6561 53.0549 42.6774C53.2829 42.9642 53.5056 43.2563 53.7283 43.5484C53.935 43.8246 54.0464 44.1433 54.1948 44.4514C54.2001 44.4673 54.2213 44.4567 54.2213 44.4407C54.1948 44.0796 54.0835 43.7396 53.8608 43.4528V43.4528Z" fill="#263238"/>
<path d="M54.9372 43.4741C54.7357 43.1554 54.46 42.9164 54.1578 42.6933C54.1366 42.6773 54.1101 42.7145 54.1313 42.7305C54.407 42.9535 54.6244 43.251 54.8153 43.5484C55.0114 43.8512 55.1546 44.1752 55.2818 44.5098C55.2871 44.5257 55.3136 44.5257 55.3136 44.5098C55.2765 44.1433 55.1334 43.7874 54.9372 43.4794V43.4741Z" fill="#263238"/>
<path d="M56.1354 44.3929C56.1195 44.3133 56.093 44.2336 56.0665 44.1592C56.0134 44.0052 55.9339 43.8565 55.8491 43.7184C55.6741 43.4316 55.4409 43.1872 55.2129 42.9429C55.1917 42.9217 55.1599 42.9535 55.1811 42.9748C55.409 43.2085 55.5999 43.4741 55.7643 43.7556C55.8438 43.8937 55.9127 44.0371 55.971 44.1858C56.0028 44.2602 56.024 44.3345 56.0453 44.4089C56.0665 44.4779 56.0771 44.5629 56.1142 44.6266C56.1248 44.6426 56.1513 44.6426 56.1566 44.6213C56.1672 44.5523 56.146 44.462 56.1354 44.3929V44.3929Z" fill="#263238"/>
<path d="M56.9412 44.6585C56.8882 44.531 56.8298 44.4142 56.7609 44.292C56.692 44.1752 56.6231 44.0636 56.5382 43.9521C56.4534 43.8406 56.3686 43.7343 56.289 43.6175C56.2678 43.5909 56.2307 43.6175 56.2519 43.644C56.3368 43.7556 56.4057 43.8777 56.4746 43.9999C56.5382 44.1167 56.6019 44.2283 56.6655 44.3451C56.7291 44.462 56.7927 44.5735 56.851 44.6904C56.9147 44.8072 56.9624 44.9347 57.0366 45.0462C57.0472 45.0622 57.0737 45.0516 57.0684 45.0303C57.0472 44.9028 56.9836 44.7754 56.9306 44.6532L56.9412 44.6585Z" fill="#263238"/>
<path d="M50.3139 65.4528C50.3139 65.4528 51.4485 63.4238 51.4803 63.0467C51.5121 62.6749 49.7784 62.3403 48.5537 61.4055C47.329 60.4706 45.1818 58.1549 44.9008 58.0699C44.6198 57.9849 43.5701 60.63 43.5701 60.63C43.5701 60.63 44.7153 66.9506 47.1329 67.588C49.5505 68.2253 50.3139 65.4475 50.3139 65.4475V65.4528Z" fill="#27AC75"/>
<path opacity="0.4" d="M50.3139 65.4528C50.3139 65.4528 51.4485 63.4238 51.4803 63.0467C51.5121 62.6749 49.7784 62.3403 48.5537 61.4055C47.329 60.4706 45.1818 58.1549 44.9008 58.0699C44.6198 57.9849 43.5701 60.63 43.5701 60.63C43.5701 60.63 44.7153 66.9506 47.1329 67.588C49.5505 68.2253 50.3139 65.4475 50.3139 65.4475V65.4528Z" fill="black"/>
<path d="M50.9183 63.1104C50.913 63.3547 50.8334 63.5566 50.738 63.7584C50.6373 63.9496 50.5153 64.1355 50.3245 64.2842C50.3298 64.0399 50.4093 63.8381 50.5047 63.6362C50.6108 63.445 50.7274 63.2591 50.9183 63.1104Z" fill="#263238"/>
<path d="M49.8262 62.643C49.8209 62.8873 49.7414 63.0892 49.646 63.291C49.5452 63.4822 49.4233 63.6681 49.2324 63.8168C49.2377 63.5725 49.3172 63.3707 49.4127 63.1688C49.5187 62.9776 49.6354 62.7917 49.8262 62.643Z" fill="#263238"/>
<path d="M48.8824 62.0534C48.8771 62.2978 48.7975 62.4996 48.7021 62.7014C48.6014 62.8926 48.4794 63.0785 48.2886 63.2273C48.2939 62.9829 48.3734 62.7811 48.4688 62.5793C48.5749 62.3881 48.6915 62.2022 48.8824 62.0534Z" fill="#263238"/>
<path d="M47.9651 61.4001C47.9598 61.6445 47.8803 61.8463 47.7849 62.0481C47.6841 62.2394 47.5622 62.4253 47.3713 62.574C47.3766 62.3296 47.4562 62.1278 47.5516 61.926C47.6576 61.7348 47.7743 61.5489 47.9651 61.4001Z" fill="#263238"/>
<path d="M46.9898 60.6247C46.9845 60.869 46.905 61.0708 46.8095 61.2727C46.7088 61.4639 46.5869 61.6498 46.396 61.7985C46.4013 61.5542 46.4808 61.3523 46.5763 61.1505C46.6823 60.9593 46.7989 60.7734 46.9898 60.6247Z" fill="#263238"/>
<path d="M46.1202 59.8705C46.1149 60.1148 46.0353 60.3166 45.9399 60.5184C45.8392 60.7097 45.7172 60.8956 45.5264 61.0443C45.5317 60.8 45.6112 60.5981 45.7066 60.3963C45.8127 60.2051 45.9293 60.0192 46.1202 59.8705Z" fill="#263238"/>
<path d="M45.2508 59.0366C45.2455 59.2809 45.166 59.4827 45.0705 59.6846C44.9698 59.8758 44.8478 60.0617 44.657 60.2104C44.6623 59.9661 44.7418 59.7642 44.8372 59.5624C44.9433 59.3712 45.0599 59.1853 45.2508 59.0366Z" fill="#263238"/>
</g>
<defs>
<clipPath id="clip0_155_680">
<rect width="292" height="216" fill="white"/>
</clipPath>
</defs>
</svg>
