<svg width="41" height="47" viewBox="0 0 41 47" fill="none" xmlns="http://www.w3.org/2000/svg">
<path d="M16.9997 43.6429H3.39994V3.35767H16.9997V13.429C17.0024 14.3185 17.3615 15.1709 17.9985 15.7999C18.6355 16.4289 19.4988 16.7834 20.3997 16.7861H30.5995V23.5003H33.9994V13.429C34.0054 13.2084 33.963 12.9891 33.8749 12.7863C33.7869 12.5834 33.6554 12.4018 33.4895 12.254L21.5896 0.504136C21.44 0.340216 21.2561 0.210306 21.0506 0.123369C20.8452 0.0364309 20.6231 -0.00546508 20.3997 0.000570775H3.39994C2.49905 0.00322746 1.63582 0.357774 0.998793 0.986778C0.361762 1.61578 0.00269059 2.46813 0 3.35767V43.6429C0.00269059 44.5324 0.361762 45.3848 0.998793 46.0138C1.63582 46.6428 2.49905 46.9973 3.39994 47H16.9997V43.6429ZM20.3997 4.02909L29.9195 13.429H20.3997V4.02909Z" fill="#4AB37D"/>
<path d="M41 36.8H34.2V30H30.8V36.8H24V40.2H30.8V47H34.2V40.2H41V36.8Z" fill="#4AB37D"/>
</svg>
