<svg width="49" height="49" viewBox="0 0 49 49" fill="none" xmlns="http://www.w3.org/2000/svg">
<path d="M45.9375 36.75H39.8125V30.625H36.75V36.75H30.625V39.8125H36.75V45.9375H39.8125V39.8125H45.9375V36.75Z" fill="url(#paint0_linear_65_14)"/>
<path d="M24.5 42.875H12.25V6.125H24.5V15.3125C24.5024 16.124 24.8259 16.9015 25.3997 17.4753C25.9735 18.0491 26.751 18.3726 27.5625 18.375H36.75V24.5H39.8125V15.3125C39.8179 15.1113 39.7796 14.9112 39.7003 14.7262C39.621 14.5412 39.5026 14.3755 39.3531 14.2406L28.6344 3.52188C28.4996 3.37234 28.3339 3.25383 28.1489 3.17452C27.9638 3.09522 27.7638 3.057 27.5625 3.0625H12.25C11.4385 3.06493 10.661 3.38836 10.0872 3.96216C9.51336 4.53597 9.18992 5.31352 9.1875 6.125V42.875C9.18992 43.6865 9.51336 44.464 10.0872 45.0378C10.661 45.6117 11.4385 45.9351 12.25 45.9375H24.5V42.875ZM27.5625 6.7375L36.1375 15.3125H27.5625V6.7375Z" fill="url(#paint1_linear_65_14)"/>
<defs>
<linearGradient id="paint0_linear_65_14" x1="30.625" y1="38.4105" x2="45.9375" y2="38.4105" gradientUnits="userSpaceOnUse">
<stop stop-color="#18BEE2"/>
<stop offset="1" stop-color="#64D2EA" stop-opacity="0.73"/>
</linearGradient>
<linearGradient id="paint1_linear_65_14" x1="9.1875" y1="24.8617" x2="39.813" y2="24.8617" gradientUnits="userSpaceOnUse">
<stop stop-color="#18BEE2"/>
<stop offset="1" stop-color="#64D2EA" stop-opacity="0.73"/>
</linearGradient>
</defs>
</svg>
