<svg width="125" height="125" viewBox="0 0 125 125" fill="none" xmlns="http://www.w3.org/2000/svg">
<rect x="0.5" y="0.5" width="124" height="124" rx="19.5" stroke="#D7D7D7"/>
<path d="M40.7778 45.7857L63.6349 62.5L85.2221 45.7857M88 51.9142V73.0856C88 76.2059 88.0006 77.7663 87.3951 78.9581C86.8624 80.0064 86.0114 80.8585 84.9661 81.3927C83.7777 81.9999 82.2231 82 79.1117 82H46.8894C43.778 82 42.2212 81.9999 41.0328 81.3927C39.9874 80.8585 39.1381 80.0064 38.6055 78.9581C38 77.7663 38 76.2059 38 73.0856V51.9142C38 48.7939 38 47.2339 38.6055 46.0421C39.1381 44.9938 39.9874 44.1414 41.0328 43.6072C42.2212 43 43.778 43 46.8894 43H79.1117C82.2231 43 83.7777 43 84.9661 43.6072C86.0114 44.1414 86.8624 44.9938 87.3951 46.0421C88.0006 47.2339 88 48.7939 88 51.9142Z" stroke="#162E5F" stroke-width="5" stroke-linecap="round" stroke-linejoin="round"/>
</svg>
