<svg width="533" height="421" viewBox="0 0 533 421" fill="none" xmlns="http://www.w3.org/2000/svg">
<g clip-path="url(#clip0_15_349)">
<path d="M28.5855 190.628C37.9659 289.495 -25.3083 365.962 188.07 389.214C225.835 393.333 278.038 396.288 322.08 395.436C357.771 394.741 397.019 391.595 431.699 382.663C488.975 367.873 531.658 337.843 532.983 279.346C534.343 219.494 474.643 180.426 484.198 155.835C513.768 79.7512 465.803 24.3825 371.11 4.70975C251.274 -20.1766 202.925 62.2508 154.053 51.5281C74.8423 34.1493 19.0307 89.9699 28.5855 190.628Z" fill="#F3FAFF"/>
<path d="M-24.0703 309.62L59.7605 360.539C112.695 328.962 131.09 318.066 131.107 318.031C133.409 315.389 144.254 302.008 150.374 298.167C144.393 286.141 141.29 279.919 138.762 274.845C138.762 274.775 141.133 179.175 141.081 179.14C136.565 184.475 79.0967 259.447 51.7052 273.889C50.7113 274.41 51.0252 274.184 50.8857 274.393C49.4211 276.791 17.2 290.451 -22.2221 306.578L-24.0878 309.62H-24.0703Z" fill="#FDBAA0"/>
<path d="M128.143 200.099C129.259 200.69 154.75 205.417 152.065 208.701C141.604 221.509 138.744 241.234 143.086 248.255C151.42 261.689 167.478 256.215 169.204 255.52L127.411 294.535C116.043 296.307 53.4662 298.793 53.5359 294.987C53.8324 279.398 125.284 198.587 128.126 200.116L128.143 200.099Z" fill="#FDBAA0"/>
<path d="M37.8264 283.569C37.8264 283.569 67.066 265.947 80.4217 243.667C98.9908 212.698 116.06 174.865 120.297 170.59C127.585 163.256 151.368 148.779 157.836 148.119C164.305 147.441 185.315 143.931 189.569 145.582C193.824 147.233 181.113 161.918 165.229 170.364C149.345 178.793 132.258 193.408 132.258 193.408L106.802 272.342L37.8264 283.552V283.569Z" fill="#FDBAA0"/>
<path d="M103.228 221.388C103.228 221.388 131.561 167.444 146.311 160.875C161.062 154.306 178.097 149.648 188.035 155.192C197.973 160.736 216.263 177.437 215.81 180.704C215.357 183.971 199.455 184.302 188.819 180.079C178.184 175.873 149.554 188.368 149.554 188.368L118.1 223.004L103.228 221.388Z" fill="#FDBAA0"/>
<path d="M106.017 274.775C106.017 274.775 133.653 188.316 141.081 179.14C148.491 169.964 181.845 172.449 192.237 174.378C202.611 176.29 223.011 200.933 222.993 208.024C222.976 216.73 205.087 210.7 193.771 202.532C183.379 195.024 168.333 199.143 163.172 199.126C161.672 199.126 158.708 201.35 155.57 204.67C151.455 208.997 147.009 215.149 145.004 220.571C138.204 238.94 158.987 257.188 158.987 257.188L106.017 274.775Z" fill="#FDBAA0"/>
<path d="M176.649 158.685C171.75 159.102 166.851 159.554 161.969 160.093C157.209 160.614 152.257 160.927 147.706 162.526C139.546 165.359 133.967 172.414 128.823 178.949C128.039 179.957 126.522 178.653 127.306 177.663C132.554 171.007 138.256 163.951 146.451 160.875C150.914 159.207 155.744 158.807 160.452 158.286C165.787 157.695 171.122 157.173 176.458 156.739C177.73 156.635 177.905 158.616 176.632 158.72L176.649 158.685Z" fill="#EF9F8A"/>
<path d="M376.654 421L137.07 369.385L204.773 57.1064L408.666 101.023L438.08 137.709L376.654 421Z" fill="white"/>
<path d="M299.17 140.82C296.816 151.664 290.766 160.771 282.623 167.079C278.23 170.485 273.226 173.092 267.855 174.726C260.672 176.916 252.843 177.35 244.962 175.647C237.57 174.048 230.996 170.763 225.539 166.262C220.117 161.796 215.827 156.148 212.968 149.805C209.115 141.272 207.877 131.47 210.004 121.616C215.322 97.0776 239.592 81.4889 264.211 86.7894C288.831 92.0899 304.47 116.281 299.153 140.82H299.17Z" fill="#E9F4F6"/>
<path d="M250.141 100.484C246.933 100.258 243.515 101.075 241.283 103.629C240.255 104.829 239.61 106.271 239.435 107.852C239.261 109.486 239.488 111.12 239.592 112.736C239.697 114.404 239.662 116.142 238.842 117.654C238.075 119.079 236.785 120.278 236.489 121.929C236.175 123.65 237.047 125.353 236.558 127.056C236.297 127.925 235.791 128.707 235.338 129.489C234.885 130.271 234.501 131.088 234.239 131.974C233.682 133.938 233.716 136.058 233.926 138.074C234.083 139.586 234.484 141.168 235.809 142.036C236.053 142.193 236.279 141.776 236.035 141.619C234.815 140.82 234.518 139.221 234.396 137.848C234.222 136.058 234.205 134.181 234.64 132.426C234.867 131.522 235.233 130.671 235.687 129.871C236.105 129.159 236.558 128.464 236.855 127.699C237.465 126.135 236.994 124.675 236.925 123.076C236.837 121.304 237.883 120.07 238.808 118.679C239.662 117.411 240.063 116.055 240.133 114.543C240.255 111.45 239.174 108.148 240.76 105.246C242.643 101.822 246.636 100.727 250.211 100.97C250.507 100.988 250.489 100.519 250.193 100.501L250.141 100.484Z" fill="#384955"/>
<path d="M259.73 123.667C260.515 119.444 261.544 115.256 262.799 111.137L251.065 100.432C248.606 100.727 246.061 101.318 244.195 102.987C241.388 105.524 240.917 109.799 241.179 113.588C241.44 117.376 242.208 121.269 241.144 124.936C240.011 128.829 236.907 131.974 236.035 135.937C235.076 140.299 237.116 144.921 240.412 147.789C243.707 150.674 248.049 152.012 252.373 152.516C252.582 152.533 252.808 152.568 253.018 152.481C253.401 152.342 253.611 151.908 253.767 151.525C257.307 142.697 257.969 133.017 259.73 123.667Z" fill="#384955"/>
<path d="M282.606 167.079C278.212 170.486 273.208 173.092 267.838 174.726C261.195 174.431 253 173.353 244.23 171.459C237.326 169.964 230.944 168.174 225.539 166.263C220.117 161.796 215.827 156.148 212.968 149.805C216.054 147.111 220.239 145.06 225.121 143.792C228.625 142.888 232.496 142.384 236.593 142.315C238.965 142.28 241.406 142.402 243.916 142.68C245.991 142.906 248.118 143.253 250.245 143.705C251.623 144 252.965 144.331 254.273 144.713C254.796 144.869 255.319 145.026 255.825 145.182C256.174 145.286 256.54 145.408 256.888 145.53C257.568 145.756 258.231 145.982 258.894 146.225C259.033 146.277 259.19 146.329 259.329 146.399C263.81 148.102 267.838 150.257 271.238 152.724C271.813 153.142 272.371 153.559 272.912 153.993C277.794 157.886 281.194 162.422 282.589 167.062L282.606 167.079Z" fill="#FCBFAF"/>
<path d="M282.606 167.079C278.212 170.485 273.208 173.092 267.838 174.726C260.655 176.916 252.826 177.35 244.945 175.647C237.552 174.048 230.979 170.764 225.522 166.262C220.099 161.796 215.81 156.148 212.95 149.805C216.037 147.111 220.221 145.06 225.103 143.792C225.103 143.792 241.772 169.564 270.785 152.968C270.924 152.881 271.081 152.794 271.221 152.707C271.796 153.124 272.354 153.541 272.894 153.976C277.776 157.869 281.176 162.404 282.571 167.045L282.606 167.079Z" fill="#27AC75"/>
<path d="M246.793 149.562C243.062 148.258 243.428 145.304 244.195 140.994L247.212 123.893C248.066 119.097 252.407 115.777 256.906 116.49C261.404 117.202 261.683 118.176 260.846 122.972L257.638 143.427C256.784 148.223 250.873 151.299 246.793 149.562Z" fill="#FCBFAF"/>
<path d="M251.518 102.535C251.518 102.535 233.437 120.852 240.499 130.028C244.84 135.659 252.913 134.633 263.566 130.897C272.737 127.682 272.145 92.0901 251.518 102.552V102.535Z" fill="#FCBFAF"/>
<path d="M253.157 134.79C249.67 135.276 246.462 134.929 243.445 133.173C242.8 132.808 243.411 131.731 244.056 132.113C246.915 133.764 249.914 134.042 253.192 133.573C253.942 133.469 253.907 134.685 253.157 134.79Z" fill="#F3A99C"/>
<path d="M274.15 124.953C274.708 122.416 274.743 119.792 274.777 117.185C274.812 114.509 274.83 111.78 273.906 109.278C272.371 105.107 268.501 102.378 264.63 100.345L257.133 102.309C258.719 102.778 259.748 104.238 259.573 105.559C259.399 106.879 259.016 108.2 259.138 109.521C259.382 112.284 261.701 114.317 262.834 116.82C263.601 118.506 262.834 120.47 262.468 122.312C262.154 123.928 262.416 125.457 262.398 127.091C262.398 127.908 262.538 128.724 262.363 129.506C262.171 130.341 261.613 131.036 261.23 131.783C260.62 132.965 260.428 134.407 260.829 135.659C261.23 136.927 262.293 137.97 263.566 138.231C265.763 138.648 267.751 136.771 269.128 134.963C271.412 131.974 273.313 128.62 274.132 124.936L274.15 124.953Z" fill="#384955"/>
<path d="M284.838 149.874C285.117 146.989 284.367 144.105 284.175 141.22C283.966 138.109 284.402 134.981 285.152 131.939C285.989 128.603 286.651 125.249 286.564 121.808C286.424 116.264 283.774 111.241 278.718 103.855C272.319 94.523 264.438 90.4217 256.017 92.5245C247.578 94.6447 249.496 104.742 249.879 104.307C256.47 96.7475 265.345 107.627 265.467 117.237L260.724 123.632C260.951 125.84 260.341 128.151 259.033 129.958C258.318 130.949 257.377 131.818 257.01 132.982C256.505 134.581 257.185 136.319 256.976 137.97C256.697 140.125 254.97 141.828 254.412 143.931C253.663 146.746 255.232 149.805 257.638 151.369C260.027 152.916 263.043 153.176 265.868 152.829C266.914 152.707 267.96 152.499 269.024 152.585C270.994 152.742 272.72 153.889 274.446 154.897C276.155 155.905 278.108 156.808 280.06 156.409C282.85 155.835 284.559 152.759 284.838 149.874Z" fill="#384955"/>
<path d="M259.103 122.85C259.103 122.85 263.043 119.427 264.595 121.147C266.147 122.85 264.299 127.247 262.171 127.421C260.044 127.595 258.911 124.137 259.016 123.493L259.103 122.85Z" fill="#FCBFAF"/>
<path d="M260.48 126.882C260.236 126.378 260.288 126.795 260.55 126.743C260.672 126.726 260.899 126.795 261.021 126.795C261.561 126.795 262.119 126.656 262.607 126.396C263.444 125.944 263.967 125.162 264.438 124.31C264.717 123.824 265.048 123.32 264.961 122.694C264.804 121.46 263.636 121.304 262.799 121.773C262.137 122.138 261.718 121.008 262.381 120.643C263.776 119.879 265.467 120.4 266.007 122.016C266.513 123.563 265.345 125.44 264.351 126.517C263.514 127.421 262.381 127.977 261.195 128.012C260.585 128.029 259.73 127.995 259.417 127.352C259.085 126.656 260.166 126.187 260.498 126.882H260.48Z" fill="#FDBAA0"/>
<path d="M256.487 102.031C258.091 100.449 260.742 100.31 262.398 101.84C263.165 102.552 263.688 103.525 263.828 104.585C263.985 105.732 263.619 106.845 263.322 107.939C263.043 108.965 262.764 110.042 262.973 111.102C263.183 112.093 263.81 112.892 264.525 113.553C265.292 114.248 266.129 114.839 266.827 115.621C267.559 116.438 268.152 117.394 268.553 118.419C269.39 120.574 269.372 122.989 268.361 125.11C267.855 126.152 267.141 127.091 266.251 127.803C265.449 128.446 264.49 128.933 263.88 129.785C262.45 131.783 263.845 134.181 264.49 136.145C264.909 137.431 264.944 138.682 264.316 139.916C263.741 141.029 262.851 141.915 261.945 142.749C260.219 144.348 258.022 146.312 258.405 148.971C258.737 151.265 261.038 152.203 262.939 152.846C263.218 152.933 263.322 152.481 263.043 152.377C261.056 151.699 258.545 150.604 258.859 147.997C259.172 145.443 261.474 143.948 263.113 142.28C263.932 141.463 264.665 140.507 265.031 139.395C265.414 138.283 265.31 137.153 264.961 136.058C264.578 134.859 263.967 133.73 263.793 132.461C263.619 131.123 264.037 130.063 265.083 129.228C265.955 128.533 266.879 127.995 267.611 127.126C268.291 126.309 268.814 125.37 269.163 124.345C269.878 122.26 269.739 119.983 268.884 117.984C268.483 117.063 267.96 116.212 267.315 115.464C266.6 114.63 265.728 114.005 264.926 113.292C264.054 112.51 263.357 111.589 263.34 110.355C263.322 109.191 263.758 108.078 264.037 106.966C264.333 105.819 264.421 104.655 264.02 103.508C263.653 102.5 262.991 101.631 262.119 101.04C260.271 99.7888 257.708 100.154 256.121 101.718C255.895 101.926 256.243 102.257 256.47 102.031H256.487Z" fill="#4D6371"/>
<path d="M257.69 101.005C261.23 98.1205 266.879 98.2248 270.035 101.562C270.889 102.465 271.569 103.647 271.691 104.916C271.831 106.393 271.029 107.54 270.488 108.826C269.477 111.259 270.017 114.022 271.151 116.281C272.389 118.749 274.342 120.748 275.998 122.92C277.567 124.971 279.032 127.386 279.084 130.08C279.101 131.331 278.84 132.617 278.212 133.695C277.567 134.824 276.573 135.502 275.423 136.024C274.394 136.475 273.295 136.84 272.424 137.605C271.534 138.37 271.011 139.499 270.976 140.681C270.889 143.01 272.772 144.574 274.202 146.086C275.091 147.024 275.806 148.084 276.19 149.353C276.591 150.622 276.835 152.499 275.771 153.524C275.283 153.993 274.586 154.219 273.975 153.941C273.696 153.819 273.487 154.236 273.749 154.358C274.725 154.793 275.858 154.323 276.434 153.437C277.184 152.29 277.044 150.761 276.713 149.509C276.381 148.258 275.754 147.146 274.917 146.19C274.115 145.269 273.173 144.487 272.441 143.496C271.656 142.454 271.221 141.22 271.534 139.899C271.901 138.422 273.034 137.588 274.342 137.014C275.44 136.528 276.591 136.145 277.497 135.328C278.387 134.529 278.979 133.417 279.293 132.27C280.81 126.465 275.597 122.19 272.72 118.019C271.081 115.638 269.808 112.58 270.697 109.625C271.116 108.235 272.075 107.088 272.162 105.593C272.232 104.377 271.796 103.195 271.133 102.222C268.501 98.3291 262.886 97.5123 258.893 99.6499C258.37 99.9279 257.882 100.258 257.429 100.64C257.202 100.832 257.429 101.231 257.673 101.04L257.69 101.005Z" fill="#4D6371"/>
<path d="M275.736 139.082C274.708 139.117 273.941 140.038 273.853 141.046C273.749 142.314 274.551 143.409 275.423 144.209C276.451 145.165 277.515 145.999 278.439 147.076C279.38 148.188 280.182 149.457 280.653 150.865C281.176 152.429 281.281 154.115 280.81 155.713C280.723 156.009 281.176 156.113 281.264 155.818C282.188 152.637 280.95 149.388 278.962 146.972C278.456 146.364 277.916 145.79 277.323 145.251C276.695 144.661 275.998 144.157 275.388 143.531C274.83 142.94 274.324 142.175 274.307 141.324C274.289 140.455 274.865 139.603 275.754 139.569C276.05 139.569 276.033 139.082 275.736 139.099V139.082Z" fill="#4D6371"/>
<path d="M265.798 132.443C265.868 133.243 266.077 134.007 266.426 134.737C266.548 135.015 266.949 134.737 266.827 134.477C266.53 133.834 266.339 133.139 266.269 132.426C266.234 132.131 265.781 132.148 265.798 132.461V132.443Z" fill="#4D6371"/>
<path d="M276.66 119.131C277.009 119.687 277.375 120.261 277.724 120.817C277.881 121.078 278.282 120.817 278.125 120.556C277.776 120 277.41 119.427 277.061 118.871C276.905 118.61 276.504 118.871 276.66 119.131Z" fill="#4D6371"/>
<path d="M269.529 336.765C245.555 331.604 230.264 307.968 235.442 284.073C240.621 260.177 264.333 244.936 288.307 250.097C312.282 255.259 327.573 278.894 322.394 302.807C317.216 326.703 293.503 341.944 269.529 336.782V336.765ZM286.878 256.753C266.6 252.391 246.514 265.286 242.138 285.498C237.761 305.709 250.699 325.712 270.976 330.092C291.254 334.454 311.34 321.559 315.716 301.347C320.093 281.118 307.155 261.115 286.878 256.753Z" fill="#EAE7D8"/>
<path d="M250.106 284.264C252.251 289.408 254.395 294.552 256.54 299.679C257.568 302.147 258.597 304.614 259.626 307.082C260.271 308.646 260.899 310.245 261.805 311.67C263.828 314.833 267.594 316.745 271.325 316.623C276.364 316.484 279.834 312.939 283.338 309.776C285.256 308.038 287.157 306.283 289.04 304.51C299.205 295.004 309.195 285.324 319.308 275.766C323.615 271.682 327.921 267.58 332.42 263.705C334.129 262.228 334.983 259.03 334.861 256.875C334.739 254.633 333.588 251.992 331.844 250.514C329.961 248.933 327.52 247.821 324.992 248.081C322.412 248.342 320.564 249.42 318.611 251.088C301.158 266.155 285.361 283.082 268.134 298.393C267.786 298.706 267.42 299.018 267.071 299.331C266.495 299.835 265.85 299.974 268.012 298.549C267.193 299.088 267.472 299.018 268.832 298.306C273.644 297.698 276.678 299.088 277.933 302.494C277.968 302.338 277.445 301.312 277.41 301.26C277.062 300.444 276.73 299.609 276.382 298.793C275.789 297.35 275.178 295.908 274.586 294.483C272.354 289.13 270.122 283.795 267.89 278.442C266.949 276.165 265.589 274.254 263.322 273.072C261.265 271.995 258.283 271.647 256.069 272.481C251.623 274.149 248.066 279.433 250.088 284.247L250.106 284.264Z" fill="#27AC75"/>
<path d="M208.138 185.848C230.212 190.401 252.303 194.972 274.376 199.525C276.538 199.977 277.253 196.64 275.091 196.189C253.018 191.635 230.927 187.065 208.853 182.511C206.691 182.06 205.976 185.396 208.138 185.848Z" fill="#EAE7D8"/>
<path d="M204.791 200.742C220.657 204.026 236.506 207.294 252.373 210.578C272.563 214.749 292.736 218.92 312.927 223.091C320.476 224.655 328.009 226.202 335.558 227.766C337.72 228.218 338.435 224.881 336.273 224.429C320.407 221.144 304.558 217.877 288.691 214.593C268.501 210.422 248.327 206.251 228.137 202.08C220.587 200.516 213.055 198.969 205.505 197.405C203.343 196.953 202.629 200.29 204.791 200.742Z" fill="#EAE7D8"/>
<path d="M285.832 202.636C298.908 205.347 312.003 208.041 325.079 210.752C340.806 214.002 356.533 217.252 372.26 220.501C378.729 221.84 385.198 223.178 391.684 224.516C393.846 224.968 394.561 221.631 392.399 221.179C379.322 218.468 366.228 215.774 353.151 213.063C337.424 209.813 321.697 206.564 305.97 203.314C299.501 201.976 293.033 200.637 286.546 199.299C284.384 198.847 283.67 202.184 285.832 202.636Z" fill="#EAE7D8"/>
<path d="M348.304 230.668C362.13 233.501 375.957 236.333 389.783 239.183C391.945 239.618 392.66 236.299 390.498 235.847C376.672 233.014 362.845 230.181 349.019 227.331C346.857 226.897 346.142 230.216 348.304 230.668Z" fill="#EAE7D8"/>
<path d="M200.257 214.506C221.128 218.381 241.876 222.9 262.468 228.026C264.612 228.565 265.327 225.228 263.183 224.69C242.591 219.545 221.843 215.044 200.972 211.169C198.81 210.769 198.078 214.106 200.257 214.506Z" fill="#EAE7D8"/>
<path d="M274.289 230.425C303.32 236.698 332.35 242.955 361.38 249.228C369.575 251.001 377.787 252.774 385.982 254.546C388.127 255.015 388.859 251.679 386.697 251.21C357.667 244.936 328.636 238.679 299.606 232.406C291.411 230.633 283.199 228.86 275.004 227.088C272.859 226.619 272.127 229.955 274.289 230.425Z" fill="#EAE7D8"/>
<path d="M331.478 130.253C357.004 135.432 382.53 140.629 408.038 145.807C410.183 146.242 410.915 142.923 408.753 142.488C383.227 137.309 357.702 132.113 332.193 126.934C330.049 126.5 329.316 129.819 331.478 130.253Z" fill="#EAE7D8"/>
<path d="M329.02 141.324C354.546 146.503 380.072 151.699 405.58 156.878C407.725 157.312 408.457 153.993 406.295 153.558C380.769 148.38 355.243 143.183 329.735 138.004C327.59 137.57 326.858 140.889 329.02 141.324Z" fill="#EAE7D8"/>
<path d="M327.032 155.209C351.965 160.336 376.881 165.463 401.814 170.589C403.958 171.024 404.691 167.722 402.529 167.27C377.596 162.143 352.68 157.017 327.747 151.89C325.602 151.455 324.87 154.757 327.032 155.209Z" fill="#EAE7D8"/>
<path d="M324.173 170.277C337.18 172.797 350.204 175.299 363.211 177.819C365.356 178.236 366.088 174.917 363.926 174.5C350.919 171.98 337.895 169.477 324.888 166.957C322.743 166.54 322.011 169.86 324.173 170.277Z" fill="#EAE7D8"/>
<path d="M373.585 180.687C382.774 182.703 391.963 184.736 401.151 186.752C403.296 187.221 404.011 183.902 401.866 183.433C392.678 181.417 383.489 179.383 374.3 177.367C372.156 176.898 371.441 180.217 373.585 180.687Z" fill="#EAE7D8"/>
<path d="M321.191 184.041C346.421 189.654 371.807 194.624 397.298 198.952C399.46 199.317 400.175 195.997 398.013 195.632C372.522 191.322 347.153 186.352 321.906 180.721C319.761 180.252 319.047 183.554 321.191 184.041Z" fill="#EAE7D8"/>
<path d="M408.666 101.022L402.372 130.01L438.08 137.709L408.666 101.022Z" fill="#EAE7D8"/>
<path d="M145.004 220.571C146.085 217.669 147.846 214.575 149.886 211.638C144.794 208.562 137.349 204.096 131.439 200.637C123.941 220.362 114.648 248.307 109.627 263.635L135.536 264.974L158.987 257.188C158.987 257.188 138.204 238.94 145.004 220.571Z" fill="#FDBAA0"/>
<path d="M121.675 324.878C151.158 319.578 185.018 285.411 192.899 274.219C207.65 253.278 229.392 243.163 229.288 239.097C229.183 235.03 220.029 226.254 200.571 234.926C182.089 243.181 168.559 258.37 156.999 256.667C152.431 255.989 124.22 254.459 124.22 254.459C124.22 254.459 110.394 326.894 121.657 324.878H121.675Z" fill="#FDBAA0"/>
<path d="M224.162 242.138C224.231 240.522 222.052 241.564 221.459 241.947C221.023 242.225 220.622 242.572 220.221 242.885C219.297 243.615 218.39 244.38 217.501 245.144C215.915 246.483 212.183 248.62 214.345 250.966C214.938 251.609 213.822 252.409 213.229 251.766C210.039 248.307 215.444 245.058 217.728 243.146C219.192 241.929 221.023 239.931 223.063 239.879C224.528 239.844 225.539 240.974 225.487 242.364C225.452 243.233 224.109 243.007 224.144 242.138H224.162Z" fill="#E79780"/>
<path d="M140.732 255.971C147.392 256.945 154.122 257.118 160.835 256.493C162.108 256.371 162.056 258.352 160.8 258.474C154.088 259.1 147.357 258.926 140.697 257.953C139.442 257.761 139.476 255.78 140.732 255.971Z" fill="#EF9F8A"/>
<path d="M126.347 324.791C120.071 325.608 113.794 325.087 107.726 323.262C106.54 322.897 107.203 321.107 108.389 321.455C115.624 323.644 119.216 323.783 126.016 322.897C127.237 322.741 127.568 324.635 126.33 324.791H126.347Z" fill="#EF9F8A"/>
<path d="M91.4062 349.122C89.8196 345.837 55.7154 288.922 51.5308 271.022C51.5308 271.022 51.6005 267.581 46.5268 268.971C41.4704 270.361 -0.846008 285.794 -0.846008 285.794L8.83081 341.996L54.8959 379.587C54.8959 379.587 92.9929 352.406 91.4062 349.139V349.122Z" fill="white"/>
<path d="M81.4854 350.79C82.1479 349.191 81.3808 347.366 79.7767 346.706C78.1726 346.045 76.3418 346.81 75.6793 348.409C75.0167 350.008 75.7839 351.832 77.388 352.493C78.9921 353.153 80.8228 352.389 81.4854 350.79Z" fill="#198DA5"/>
<path d="M-173.669 319.891L-87.2952 474.163C-87.2952 474.163 60.6672 389.944 66.0374 379.569C66.0374 379.569 72.9593 375.19 59.7605 360.539C59.7605 360.539 36.7628 330.648 31.567 319.891C31.567 319.891 23.5291 305.153 21.5938 296.951C21.5938 296.951 15.0554 271.699 -1.42133 274.967C-1.42133 274.967 -57.0935 285.324 -74.9825 292.901L-173.669 319.891Z" fill="#1D1D1D"/>
</g>
<defs>
<clipPath id="clip0_15_349">
<rect width="608" height="421" fill="white" transform="translate(-75)"/>
</clipPath>
</defs>
</svg>
