<svg width="1068" height="826" viewBox="0 0 1068 826" fill="none" xmlns="http://www.w3.org/2000/svg">
<g clip-path="url(#clip0_122_96)">
<path d="M919.187 791.235H165.888C164.508 791.235 163.389 792.348 163.389 793.72C163.389 795.093 164.508 796.205 165.888 796.205H919.187C920.567 796.205 921.685 795.093 921.685 793.72C921.685 792.348 920.567 791.235 919.187 791.235Z" fill="black"/>
<path d="M187.486 717.739C90.3657 687.521 -41.0968 536.288 12.329 388.851C42.7029 304.98 138.123 298.718 213.136 284.771C317.343 265.417 364.25 203.842 433.311 128.036C510.45 43.3585 685.608 -55.5975 840.595 76.2332C882.306 111.717 888.966 180.407 942.817 228.557C996.951 277.039 1067.57 277.229 1099.36 373.196C1124.12 447.959 1017.55 603.508 945.321 649.855C811.732 735.576 406.48 785.908 187.534 717.739H187.486Z" fill="#F3FAFF"/>
<path d="M1007.63 392.788C1007.63 393.357 1007.63 393.879 1007.63 394.448C1006.07 462.238 996.432 514.657 982.544 555.121L946.69 574.998L975.505 572.057L976.308 571.962C958.453 616.317 935.495 644.4 914.285 662.094C901.106 673.148 888.541 680.168 878.338 684.628C877.676 684.912 877.015 685.197 876.354 685.481C874.7 686.193 873.141 686.762 871.63 687.332H852.451C852.215 686.43 852.026 685.529 851.837 684.628C851.695 684.058 851.601 683.489 851.459 682.92C851.27 682.161 851.129 681.402 850.987 680.69C832.942 592.123 865.064 523.907 904.791 476.184C904.885 476.042 905.027 475.852 905.169 475.71C919.009 459.154 933.747 445.065 947.635 433.443L954.957 455.501L957.744 425.331C981.835 406.545 1001.63 395.872 1006.49 393.405C1007.25 393.025 1007.63 392.835 1007.63 392.835V392.788Z" fill="#1D1D1D"/>
<path d="M1008.29 393.12L1007.58 394.448L964.074 474.903L963.271 476.327L951.414 498.243L950.989 498.955L913.152 568.878L913.105 568.973L851.412 682.92L850.515 684.627L849.05 687.331H847.35L848.814 684.627L850.94 680.69L911.829 568.262L912.963 566.174L1006.49 393.357L1007.01 392.408L1008.29 393.12Z" fill="white"/>
<path d="M1001.18 467.603L950.774 498.671L951.441 499.763L1001.85 468.695L1001.18 467.603Z" fill="white"/>
<path d="M1002.37 451.323L962.864 475.652L963.531 476.744L1003.03 452.415L1002.37 451.323Z" fill="white"/>
<path d="M906.013 475.693L904.741 475.791L911.875 569.112L913.147 569.014L906.013 475.693Z" fill="white"/>
<path d="M843.949 701.942C843.949 701.942 888.116 725.804 954.532 690.605L934.172 679.552L968.184 682.73C994.259 666.364 1023.26 640.89 1054.01 601.895L1046.22 597.673L1056.52 598.622C1061.71 591.933 1066.96 584.865 1072.25 577.417C1072.25 577.417 1053.4 574.761 1026.19 576.469L1011.31 594.637L1016.18 577.322C960.437 582.825 878.385 607.73 843.901 701.99L843.949 701.942Z" fill="black"/>
<path d="M1071.95 576.764L840.386 696.841L841.058 698.147L1072.62 578.071L1071.95 576.764Z" fill="white"/>
<path d="M1012.07 608.478L1011.86 609.838L1043.88 614.861L1044.09 613.502L1012.07 608.478Z" fill="white"/>
<path d="M996.274 616.468L995.964 617.808L1033.14 626.496L1033.45 625.156L996.274 616.468Z" fill="white"/>
<path d="M901.201 621.772L900.114 620.444C919.859 604.599 943.478 592.692 970.404 585.007L970.876 586.668C944.187 594.258 920.757 606.07 901.201 621.772Z" fill="#2E4882"/>
<path d="M874.322 177.324H588.582C580.468 177.324 573.891 183.929 573.891 192.077V775.851C573.891 783.999 580.468 790.604 588.582 790.604H874.322C882.436 790.604 889.013 783.999 889.013 775.851V192.077C889.013 183.929 882.436 177.324 874.322 177.324Z" fill="#27AC75"/>
<path d="M860.718 177.324H574.977C566.864 177.324 560.286 183.929 560.286 192.077V775.851C560.286 783.999 566.864 790.604 574.977 790.604H860.718C868.832 790.604 875.409 783.999 875.409 775.851V192.077C875.409 183.929 868.832 177.324 860.718 177.324Z" fill="url(#paint0_linear_122_96)"/>
<path d="M853.774 252.608V715.32C853.774 724.76 846.641 732.397 837.855 732.397H597.793C589.007 732.397 581.874 724.76 581.874 715.32V252.608C581.874 243.168 589.007 235.53 597.793 235.53H837.855C846.641 235.53 853.774 243.168 853.774 252.608Z" fill="#E1EAFF"/>
<path d="M757.551 205.455H678.144C677.341 205.455 676.727 204.838 676.727 204.032C676.727 203.225 677.341 202.608 678.144 202.608H757.551C758.354 202.608 758.968 203.225 758.968 204.032C758.968 204.838 758.354 205.455 757.551 205.455Z" fill="#1D1D1D"/>
<path d="M647.487 540.842H788.208C796.947 540.842 804.033 547.958 804.033 556.734V562.806C804.033 571.582 796.947 578.698 788.208 578.698H647.487C638.748 578.698 631.662 571.582 631.662 562.806V556.734C631.662 547.958 638.748 540.842 647.487 540.842Z" fill="url(#paint1_linear_122_96)"/>
<path d="M840.973 735.766H594.77C583.905 735.766 575.072 726.563 575.072 715.272V252.608C575.072 241.318 583.905 232.115 594.77 232.115H840.973C851.837 232.115 860.671 241.318 860.671 252.608V715.32C860.671 726.61 851.837 735.813 840.973 735.813V735.766ZM594.77 238.993C587.637 238.993 581.874 245.113 581.874 252.655V715.367C581.874 722.91 587.684 729.029 594.77 729.029H840.973C848.105 729.029 853.868 722.91 853.868 715.367V252.608C853.868 245.065 848.058 238.946 840.973 238.946H594.77V238.993Z" fill="white"/>
<path d="M604.17 480.833L831.714 480.833C836.41 480.833 840.217 477.01 840.217 472.294V325.236C840.217 320.52 836.41 316.697 831.714 316.697H604.17C599.474 316.697 595.667 320.52 595.667 325.236V472.294C595.667 477.01 599.474 480.833 604.17 480.833Z" fill="#27AC75"/>
<path d="M819.196 441.602H765.251C763.711 441.602 762.464 442.855 762.464 444.401V451.327C762.464 452.872 763.711 454.126 765.251 454.126H819.196C820.735 454.126 821.983 452.872 821.983 451.327V444.401C821.983 442.855 820.735 441.602 819.196 441.602Z" fill="white"/>
<path d="M624.388 365.179V348.718C624.388 345.113 627.316 342.171 630.907 342.171H662.745C666.335 342.171 669.263 345.113 669.263 348.718V365.179C669.263 368.784 666.335 371.725 662.745 371.725H630.907C627.316 371.725 624.388 368.784 624.388 365.179ZM630.907 343.927C628.308 343.927 626.136 346.061 626.136 348.718V365.179C626.136 367.835 628.261 369.97 630.907 369.97H662.745C665.343 369.97 667.516 367.835 667.516 365.179V348.718C667.516 346.061 665.39 343.927 662.745 343.927H630.907Z" fill="white"/>
<path d="M814.378 354.648C814.378 354.648 814.472 354.221 814.614 354.078C821.794 346.868 821.794 335.198 814.614 327.987C814.283 327.655 814.283 327.181 814.614 326.849C814.945 326.517 815.417 326.517 815.748 326.849C823.542 334.676 823.542 347.39 815.748 355.169C815.417 355.502 814.945 355.502 814.614 355.169C814.472 355.027 814.378 354.79 814.378 354.6V354.648Z" fill="white"/>
<path d="M810.457 331.972C810.457 331.972 810.551 331.545 810.693 331.403C811.024 331.071 811.496 331.071 811.827 331.403C817.117 336.716 817.117 345.35 811.827 350.663C811.496 350.995 811.024 350.995 810.693 350.663C810.362 350.331 810.362 349.856 810.693 349.524C815.37 344.828 815.37 337.19 810.693 332.494C810.551 332.352 810.457 332.114 810.457 331.925V331.972Z" fill="white"/>
<path d="M806.678 345.919C806.678 345.919 806.772 345.492 806.914 345.35C809.276 342.978 809.276 339.135 806.914 336.764C806.584 336.431 806.584 335.957 806.914 335.625C807.245 335.293 807.717 335.293 808.048 335.625C811.024 338.614 811.024 343.5 808.048 346.488C807.717 346.82 807.245 346.82 806.914 346.488C806.772 346.346 806.678 346.109 806.678 345.919Z" fill="white"/>
<path d="M876.684 660.339H874.133V192.077C874.133 184.629 868.134 178.605 860.718 178.605H574.977C567.561 178.605 561.562 184.677 561.562 192.077V593.167H559.011V192.077C559.011 183.206 566.191 176.043 574.977 176.043H860.718C869.551 176.043 876.684 183.254 876.684 192.077V660.339V660.339Z" fill="black"/>
<path d="M607.855 791.885H574.977C566.144 791.885 559.011 784.674 559.011 775.851V708.346H561.562V775.851C561.562 783.299 567.561 789.323 574.977 789.323H607.855V791.885V791.885Z" fill="black"/>
<path d="M738.231 789.323H707.81V791.885H738.231V789.323Z" fill="black"/>
<path d="M841.067 356.925H839.367V324.382C839.367 320.16 835.918 316.697 831.714 316.697H686.789V314.989H831.714C836.863 314.989 841.067 319.211 841.067 324.382V356.925V356.925Z" fill="#2E4882"/>
<path d="M841.067 374.002H839.366V392.835H841.067V374.002Z" fill="#2E4882"/>
<path d="M668.083 314.942H638.559V316.65H668.083V314.942Z" fill="#2E4882"/>
<path d="M410.921 305.976L417.345 278.225L443.656 267.219L448.333 305.929C448.333 305.929 444.412 331.071 420.226 340.084C396.041 349.097 410.873 305.929 410.873 305.929L410.921 305.976Z" fill="#FCB47E"/>
<path d="M400.576 233.016C400.576 233.016 391.222 285.151 406.433 285.53C421.644 285.91 434.162 280.027 437.279 276.517C440.397 273.006 442.759 255.739 442.759 255.739C442.759 255.739 444.696 233.396 435.342 229.079C425.989 224.762 405.677 217.314 400.623 233.016H400.576Z" fill="#FCB47E"/>
<path d="M450.695 266.223C447.719 271.773 444.743 277.181 444.743 277.181C440.302 276.469 435.39 270.919 434.492 266.081C434.492 266.081 420.51 264.752 419.99 247.39C419.99 247.39 395.71 247.532 395.096 226.375C394.482 205.217 418.809 210.673 426.84 217.124C434.87 223.576 439.783 226.897 452.301 230.929C465.48 235.198 454.474 259.107 450.648 266.223H450.695Z" fill="#1D1D1D"/>
<path d="M439.31 769.779L436.335 738.944H403.929L410.968 768.878C410.968 768.878 414.747 778.887 425.612 778.555C436.098 778.175 439.31 769.779 439.31 769.779Z" fill="#FCB47E"/>
<path d="M598.974 673.384L574.08 655.121L552.539 679.457L584.472 695.728C584.472 695.728 588.44 696.534 596.423 689.514C604.312 682.588 599.021 673.384 599.021 673.384H598.974Z" fill="#FCB47E"/>
<path d="M466.614 748.574C447.861 755.69 423.864 753.745 398.025 748.574C397.269 746.771 396.513 744.969 395.805 743.119C346.536 618.072 381.444 436.479 381.444 436.479H458.914L457.166 496.488C453.765 512.332 451.451 528.414 449.939 544.353C440.114 649.049 466.661 748.574 466.661 748.574H466.614Z" fill="#1D1D1D"/>
<path d="M466.567 748.527C465.338 746.06 421.218 656.07 434.351 554.457L448.333 565.748C443.609 660.861 465.905 746.107 466.519 748.479L466.567 748.527Z" fill="black"/>
<path d="M591.794 640.842C584.661 660.908 577.103 676.468 568.883 685.529C565.057 689.751 561.089 692.597 556.932 693.83C545.076 687.711 534.164 681.069 524.244 674.049C522.874 673.1 521.551 672.151 520.229 671.155C518.481 669.874 516.733 668.546 515.032 667.217C514.229 666.601 513.474 666.032 512.718 665.415C511.206 664.229 509.695 662.996 508.23 661.762C506.908 660.671 505.632 659.58 504.357 658.441C497.649 652.654 491.508 646.629 485.84 640.51C485.273 639.941 484.753 639.324 484.234 638.755C483.856 638.328 483.43 637.901 483.053 637.474C404.921 550.235 419.282 436.431 419.282 436.431H487.257C493.067 545.539 591.841 640.794 591.841 640.794L591.794 640.842Z" fill="#1D1D1D"/>
<path d="M502.467 200.236C496.657 195.967 492.642 193.643 491.65 192.931C490.422 192.03 490.138 189.847 488.674 187.618C485.367 182.495 478.47 173.481 471.338 170.967C470.44 170.635 469.732 171.631 470.723 172.675C472.471 174.62 475.778 177.371 475.258 177.846C474.172 178.747 466.425 169.449 464.252 171.584C462.599 173.244 473.794 181.546 473.369 182.068C472.519 183.111 464.063 173.576 462.032 175.758C460.095 177.798 470.204 183.159 469.779 184.06C469.306 185.009 462.315 179.174 460.945 180.502C458.867 182.495 471.479 190.369 471.149 191.555C470.676 193.453 464.157 189.515 463.213 191.745C462.268 193.832 471.385 197.77 473.133 198.624C477.148 200.616 480.029 199.762 483.241 204.743C484.989 207.494 486.737 210.198 488.438 212.997L502.562 200.284L502.467 200.236Z" fill="#FCB47E"/>
<path d="M342.426 206.498C347.764 201.659 351.496 198.861 352.393 198.102C353.527 197.105 353.574 194.876 354.755 192.504C357.495 187.049 363.4 177.324 370.249 174.098C371.147 173.671 371.95 174.572 371.052 175.711C369.54 177.798 366.517 180.929 367.084 181.356C368.265 182.162 374.973 172.058 377.335 173.956C379.13 175.426 368.879 184.866 369.399 185.341C370.391 186.29 377.713 175.901 379.98 177.846C382.153 179.648 372.658 186.052 373.178 186.906C373.745 187.76 380.074 181.214 381.586 182.4C383.901 184.155 372.186 193.358 372.611 194.449C373.272 196.299 379.319 191.65 380.547 193.785C381.728 195.777 373.036 200.663 371.43 201.707C367.651 204.126 364.675 203.557 362.03 208.918C360.565 211.859 359.148 214.752 357.731 217.646L342.332 206.546L342.426 206.498Z" fill="#FCB47E"/>
<path d="M487.918 445.397C481.872 449.287 471.243 455.548 458.158 461.004C446.443 465.843 432.697 470.065 418.526 471.298C404.732 472.531 390.467 470.918 377.051 464.467C377.901 458.11 378.705 452.655 379.413 448.338C391.695 454.884 405.016 457.636 418.242 458.015C432.178 458.442 446.018 456.165 458.395 452.939C469.732 449.998 479.84 446.203 487.682 442.788C487.729 443.641 487.824 444.543 487.918 445.397V445.397Z" fill="black"/>
<path d="M364.297 437.095V351.232C364.297 351.232 287.489 338.139 302.557 263.424C312.147 215.938 345.874 199.003 345.874 199.003L364.58 214.088C364.58 214.088 324.806 275.141 377.146 296.346C377.146 296.346 406.622 295.445 414.275 303.746C414.275 303.746 431.138 317.314 448.947 294.828C448.947 294.828 467.039 287.76 482.486 291.887C495.193 295.302 511.537 263.709 481.163 210.056L500.2 192.789C500.2 192.789 611.586 300.331 502.326 353.651L496.232 439.419C496.232 439.419 411.676 487.569 364.25 437.048L364.297 437.095Z" fill="url(#paint2_linear_122_96)"/>
<path d="M437.185 263.139C437.185 266.508 434.492 269.212 431.138 269.212C427.784 269.212 425.092 266.508 425.092 263.139C425.092 259.771 427.784 257.067 431.138 257.067C434.492 257.067 437.185 259.771 437.185 263.139Z" fill="#FCB47E"/>
<path d="M447.672 587.047C433.406 559.201 424.053 528.271 419.896 495.017L421.218 494.827C425.375 527.892 434.634 558.679 448.852 586.383L447.672 587V587.047Z" fill="white"/>
<path d="M484.186 488.755C462.693 488.755 455.796 469.97 455.749 469.78L457.025 469.306C457.025 469.306 463.827 487.901 485.226 487.332V488.708C484.895 488.708 484.564 488.708 484.234 488.708L484.186 488.755Z" fill="white"/>
<path d="M425.045 314.989C424.62 314.989 424.242 314.989 423.817 314.942C414.133 314.041 409.267 302.703 409.078 302.228L410.307 301.707C410.307 301.707 415.078 312.76 423.958 313.614C431.422 314.325 439.641 307.874 448.427 294.543L449.561 295.302C440.917 308.395 432.697 315.037 425.045 315.037V314.989Z" fill="#1D1D1D"/>
<path d="M364.297 351.279C364.297 351.279 287.441 338.187 302.557 263.471C303.36 259.392 304.4 255.502 305.533 251.849C305.722 251.659 305.911 251.422 306.1 251.232C304.825 268.12 304.211 282.874 311.674 298.86C327.215 332.257 365.384 351.185 364.297 351.279V351.279Z" fill="#27AC75"/>
<path d="M502.373 353.699L496.279 439.467C496.279 439.467 478.707 449.477 455.088 455.596C459.15 452.465 476.345 426.09 479.226 412.759C484.375 388.851 485.037 375.093 485.698 349.572C511.112 342.93 540.116 320.445 550.083 282.921C552.35 308.538 541.533 334.581 502.373 353.699Z" fill="#27AC75"/>
<path d="M421.124 451.184C420.888 451.184 420.746 451.184 420.746 451.184V449.809C421.124 449.809 456.836 450.33 487.776 431.403L488.485 432.541C458.961 450.615 425.186 451.184 421.171 451.184H421.124Z" fill="#1D1D1D"/>
<path d="M568.883 685.529C565.057 689.751 561.089 692.597 556.932 693.83C545.076 687.711 534.164 681.069 524.244 674.049C522.874 673.1 521.551 672.151 520.229 671.155C518.481 669.874 516.733 668.546 515.033 667.218C514.229 666.601 513.474 666.032 512.718 665.415C511.206 664.229 509.695 662.996 508.23 661.762C506.908 660.671 505.632 659.58 504.357 658.442C497.649 652.654 491.508 646.629 485.84 640.51C485.273 639.941 484.753 639.324 484.234 638.755C483.856 638.328 483.431 637.901 483.053 637.474C529.534 676.041 559.247 683.916 568.836 685.529H568.883Z" fill="black"/>
<path d="M581.732 638.091C548.996 616.743 528.212 578.224 528.023 577.844L529.157 577.228C529.346 577.607 549.988 615.89 582.441 637L581.732 638.091V638.091Z" fill="white"/>
<path d="M443.42 794.304H369.871C367.32 794.304 365.242 792.122 365.478 789.561C365.478 789.561 365.478 789.513 365.478 789.466C365.525 788.896 365.62 788.327 365.667 787.758C365.903 785.813 366.47 783.821 367.367 782.587C370.863 777.938 377.618 775.804 389.711 771.012C397.269 767.976 403.693 763.991 406.527 762.094C407.425 761.477 408.653 761.62 409.456 762.379C424.005 776.657 432.933 773.621 435.626 767.739C437.657 763.232 440.539 764.181 441.342 765.509C443.798 769.637 445.121 781.686 445.688 787.758C445.735 788.422 445.829 788.991 445.829 789.466C445.924 790.604 445.971 791.268 445.971 791.268C446.254 792.834 445.026 794.304 443.467 794.304H443.42Z" fill="#1D1D1D"/>
<path d="M393.821 778.792C388.577 776.231 389.38 770.823 389.38 770.775L390.656 770.965C390.656 770.965 390.042 775.519 394.387 777.654L393.821 778.792Z" fill="white"/>
<path d="M387.396 780.927C382.578 778.223 383.098 773.479 383.145 773.289L384.42 773.432C384.42 773.432 383.995 777.511 388.058 779.788L387.443 780.879L387.396 780.927Z" fill="white"/>
<path d="M428.918 777.749C424.005 777.749 419.565 775.519 419.471 775.472L420.038 774.333C420.038 774.333 431.327 780.026 437.043 772.863L438.035 773.669C435.531 776.8 432.083 777.796 428.918 777.796V777.749Z" fill="white"/>
<path d="M436.807 788.564H393.962V789.845H436.807V788.564Z" fill="white"/>
<path d="M388.483 788.564H378.327V789.845H388.483V788.564Z" fill="white"/>
<path d="M620.939 677.844L584.991 742.312C583.763 744.542 580.835 745.301 578.709 743.878C578.709 743.878 578.709 743.878 578.662 743.878C578.189 743.545 577.717 743.213 577.244 742.834C575.686 741.648 574.221 740.225 573.607 738.802C571.293 733.489 572.757 726.515 574.457 713.565C575.544 705.453 575.166 697.863 574.93 694.447C574.835 693.356 575.544 692.36 576.63 692.075C596.14 686.288 597.887 676.99 594.061 671.772C591.132 667.787 593.4 665.7 594.911 665.652C599.682 665.51 610.83 670.206 616.31 672.72C616.924 672.958 617.444 673.195 617.916 673.432C618.955 673.906 619.569 674.191 619.569 674.191C621.081 674.713 621.742 676.468 620.987 677.891L620.939 677.844Z" fill="#1D1D1D"/>
<path d="M576.489 714.371C575.261 714.371 574.363 714.181 574.269 714.181L574.552 712.948C574.552 712.948 579.843 713.991 582.441 710.576L583.433 711.335C581.496 713.849 578.473 714.371 576.441 714.371H576.489Z" fill="white"/>
<path d="M575.922 721.344C574.694 721.344 573.796 721.155 573.702 721.155L573.985 719.921C573.985 719.921 579.276 720.965 581.874 717.549L582.866 718.308C580.929 720.823 577.906 721.344 575.875 721.344H575.922Z" fill="white"/>
<path d="M594.108 689.656L593.258 688.66C593.258 688.66 602.8 680.358 598.36 672.293L599.493 671.677C604.453 680.643 594.203 689.561 594.108 689.656V689.656Z" fill="white"/>
<path d="M611.788 682.206L591.266 719.975L592.385 720.588L612.908 682.819L611.788 682.206Z" fill="white"/>
<path d="M588.612 724.812L583.747 733.765L584.867 734.378L589.732 725.425L588.612 724.812Z" fill="white"/>
<path d="M376.957 297.2C376.295 297.01 360.613 292.409 352.44 277.323C346.819 266.934 346.252 254.221 350.74 239.468L352.346 239.99C348 254.221 348.52 266.508 353.905 276.47C361.699 290.891 377.24 295.492 377.382 295.54L376.91 297.2H376.957Z" fill="#1D1D1D"/>
<path d="M416.778 248.386C410.873 248.386 401.568 245.872 396.655 239.753C393.632 235.957 391.175 229.316 396.608 218.975L397.741 219.591C393.632 227.371 393.632 233.918 397.647 238.946C403.315 246.014 415.219 248.054 419.801 246.773L420.132 248.007C419.234 248.244 418.054 248.386 416.731 248.386H416.778Z" fill="#1D1D1D"/>
<path d="M411.299 249.619C407.189 249.619 402.323 248.481 396.986 244.97L397.694 243.879C411.629 253.13 422.352 245.16 422.447 245.065L423.202 246.062C423.202 246.062 418.479 249.572 411.299 249.572V249.619Z" fill="#1D1D1D"/>
<path d="M425.039 86.8765L443.675 110.791L452.95 41.9841C453.147 40.3591 453.812 38.8341 454.861 37.5999C455.875 36.4163 457.214 35.5686 458.709 35.164C459.727 34.909 460.783 34.8365 461.829 34.9498C462.915 35.0591 463.969 35.3919 464.929 35.928C465.85 36.4394 466.659 37.1385 467.305 37.9813C467.957 38.8314 468.442 39.8007 468.733 40.8352C469.051 41.9202 469.134 43.06 468.978 44.1763L457.114 131.542C456.91 133.173 456.234 134.7 455.172 135.932C454.11 137.163 452.709 138.043 451.148 138.46C449.554 138.901 447.865 138.873 446.277 138.379C444.684 137.865 443.285 136.855 442.279 135.493L422.044 109.511L417.632 142.262C417.422 143.891 416.744 145.415 415.683 146.646C414.622 147.876 413.224 148.758 411.665 149.18C410.069 149.635 408.373 149.608 406.782 149.102C405.203 148.584 403.812 147.591 402.795 146.255L348.636 76.7215C347.944 75.8465 347.434 74.8391 347.137 73.7608C346.854 72.7315 346.787 71.655 346.942 70.6019C347.1 69.5211 347.45 68.4804 347.975 67.5301C348.522 66.5681 349.263 65.7354 350.15 65.0854C350.968 64.4654 351.892 64.0029 352.876 63.7206C354.361 63.3285 355.931 63.3902 357.389 63.898C358.936 64.4198 360.298 65.3993 361.299 66.7101L403.941 121.494L413.293 52.6671C413.53 51.0317 414.239 49.509 415.33 48.2908C416.38 47.0946 417.752 46.2386 419.28 45.8274C420.298 45.5724 421.354 45.4999 422.4 45.6132C423.46 45.7268 424.486 46.0685 425.41 46.6155C426.314 47.1407 427.109 47.8421 427.748 48.6791C428.403 49.5264 428.881 50.5003 429.151 51.54C429.443 52.6334 429.513 53.7738 429.357 54.8914L425.039 86.8765Z" fill="url(#paint3_linear_122_96)"/>
</g>
<defs>
<linearGradient id="paint0_linear_122_96" x1="560.286" y1="483.964" x2="875.409" y2="483.964" gradientUnits="userSpaceOnUse">
<stop stop-color="#4BB27D"/>
<stop offset="0.02" stop-color="#4BB280"/>
<stop offset="0.34" stop-color="#4BB8AE"/>
<stop offset="0.62" stop-color="#4BBCD0"/>
<stop offset="0.85" stop-color="#4BBFE4"/>
<stop offset="1" stop-color="#4BC0EC"/>
</linearGradient>
<linearGradient id="paint1_linear_122_96" x1="631.662" y1="559.77" x2="804.033" y2="559.77" gradientUnits="userSpaceOnUse">
<stop stop-color="#4BB27D"/>
<stop offset="0.02" stop-color="#4BB280"/>
<stop offset="0.34" stop-color="#4BB8AE"/>
<stop offset="0.62" stop-color="#4BBCD0"/>
<stop offset="0.85" stop-color="#4BBFE4"/>
<stop offset="1" stop-color="#4BC0EC"/>
</linearGradient>
<linearGradient id="paint2_linear_122_96" x1="300.573" y1="326.517" x2="550.366" y2="326.517" gradientUnits="userSpaceOnUse">
<stop stop-color="#4BB27D"/>
<stop offset="0.02" stop-color="#4BB280"/>
<stop offset="0.34" stop-color="#4BB8AE"/>
<stop offset="0.62" stop-color="#4BBCD0"/>
<stop offset="0.85" stop-color="#4BBFE4"/>
<stop offset="1" stop-color="#4BC0EC"/>
</linearGradient>
<linearGradient id="paint3_linear_122_96" x1="357.97" y1="113.87" x2="479.589" y2="81.0216" gradientUnits="userSpaceOnUse">
<stop stop-color="#18BEE2"/>
<stop offset="1" stop-color="#64D2EA" stop-opacity="0.73"/>
</linearGradient>
<clipPath id="clip0_122_96">
<rect width="1103" height="825.424" fill="white"/>
</clipPath>
</defs>
</svg>
