<svg width="284" height="510" viewBox="0 0 284 510" fill="none" xmlns="http://www.w3.org/2000/svg">
<path d="M272.498 114.366C270.344 120.154 266.608 126.851 262.704 128.533C258.261 130.418 256.41 133.11 256.41 133.11L252.842 131.023L248.568 128.533C248.568 128.533 248.669 128.062 248.871 127.288C249.073 126.514 249.409 125.437 249.847 124.26C249.847 124.26 251.16 122.577 250.352 120.457C249.544 118.337 249.712 115.073 251.092 113.088C252.472 111.102 253.785 106.189 254.626 106.324C256.612 106.66 253.65 113.424 254.491 114.669C255.266 115.813 256.242 115.41 256.41 115.342C262.03 112.886 268.829 99.5599 271.858 101.377C272.969 102.05 273.406 111.977 272.498 114.434V114.366Z" fill="#FFAE73"/>
<path d="M270.807 95.3105L252.809 120.915C252.457 121.417 252.577 122.109 253.079 122.462L260.101 127.396C260.603 127.749 261.296 127.628 261.648 127.126L279.646 101.522C279.999 101.02 279.878 100.327 279.376 99.9747L272.354 95.0405C271.853 94.6879 271.16 94.8088 270.807 95.3105Z" fill="#25468F"/>
<path d="M277.629 99.7607L259.322 125.805C259.054 126.186 259.146 126.71 259.526 126.978L263.657 129.88C264.037 130.147 264.562 130.056 264.829 129.675L283.136 103.631C283.403 103.25 283.312 102.726 282.932 102.459L278.801 99.5562C278.421 99.289 277.896 99.3806 277.629 99.7607Z" fill="#1E3865"/>
<path d="M152.21 85.662C152.21 85.662 187.987 148.051 200.978 159.526L248.568 124.058C248.568 124.058 255.467 126.178 258.497 133.11C258.497 133.11 229.586 191.965 201.146 194.489C172.707 196.979 132.757 123.923 132.757 123.923L152.21 85.662Z" fill="url(#paint0_linear_15_420)"/>
<path d="M71.2671 510H50.6021C48.0106 508.587 45.6883 505.356 44.9479 500.544C43.9382 493.881 36.4665 490.247 34.851 484.796C33.2355 479.344 41.515 471.672 41.515 471.672L42.8949 469.888L44.3421 468.037L58.0738 471.268C58.0738 471.268 58.4104 474.532 58.6123 478.705C58.747 481.7 58.8479 485.166 58.6796 488.228C58.2758 495.497 60.699 503.304 67.161 504.717C71.9402 505.76 71.7046 508.587 71.2671 510Z" fill="#27AC75"/>
<path d="M191.218 510H143.931C141.642 507.241 142.484 496.977 142.854 493.646C142.921 492.973 142.988 492.569 142.988 492.569C142.988 492.569 159.143 479.647 161.365 489.54C161.432 489.843 161.499 490.146 161.6 490.449C164.394 499.703 176.914 503.909 184.15 505.053C188.862 505.827 190.578 508.25 191.251 509.966L191.218 510Z" fill="#27AC75"/>
<path d="M182.232 246.177C182.232 246.177 179.775 276.766 176.914 313.512C173.01 363.45 168.298 424.762 167.827 436.405C167.019 456.596 163.788 488.867 163.788 488.867C163.788 488.867 156.114 496.54 140.801 493.309C140.801 493.309 127.136 447.241 123.232 398.481C123.165 397.673 123.098 396.866 123.064 396.058C119.429 346.423 113.775 241.937 113.775 241.937L182.265 246.177H182.232Z" fill="#1D1D1D"/>
<path d="M182.232 246.177C182.232 246.177 179.775 276.766 176.914 313.512L123.232 398.447C123.165 397.64 123.098 396.832 123.064 396.024C119.429 346.389 113.775 241.903 113.775 241.903L182.265 246.143L182.232 246.177Z" fill="black"/>
<path d="M171.024 249.811C171.024 249.811 126.833 360.556 97.7881 412.581C68.7428 464.605 59.6556 479.142 59.6556 479.142C59.6556 479.142 42.9958 472.479 41.515 467.936C41.515 467.936 52.6215 367.455 72.0748 342.991C83.0804 329.16 95.9707 287.635 96.5765 273.098C97.1823 258.56 100.514 229.823 100.514 229.823L171.024 249.778V249.811Z" fill="#1D1D1D"/>
<path d="M160.018 88.3877C142.753 93.8392 112.866 79.1337 112.866 79.1337C112.866 79.1337 128.786 67.1876 127.944 42.3533L141.306 53.1216L150.359 60.4238C150.359 60.4238 150.325 64.7311 149.316 72.2689C149.047 74.2543 151.302 78.6289 153.22 81.0855C158.437 87.7147 159.951 88.3877 159.951 88.3877H160.018Z" fill="#FFAE73"/>
<path d="M150.393 60.3901C150.393 60.3901 150.359 64.6975 149.349 72.2353C139.286 70.5191 127.91 54.2656 127.91 54.2656C133.026 52.785 137.502 52.5158 141.306 53.0542L150.359 60.3564L150.393 60.3901Z" fill="#F9924F"/>
<path d="M155.677 59.9864C155.677 59.9864 127.17 64.7312 124.478 46.9299C121.785 29.1285 116.333 17.7545 134.406 13.9856C152.513 10.2167 157.057 16.4758 159.413 22.1964C161.735 27.9171 163.014 58.3039 155.677 60.0201V59.9864Z" fill="#FFAE73"/>
<path d="M184.116 248.734C183.611 249.172 183.006 249.441 182.299 249.441C175.803 249.34 156.922 252.941 140.902 251.325C127.406 250.047 115.491 246.042 102.668 240.288C100.952 239.514 97.0477 237.428 97.1487 235.543C97.216 233.457 97.4179 230.428 97.6872 226.626C98.5959 213.401 100.178 190.653 98.6296 164.405C98.3603 159.526 98.192 154.68 98.192 149.902C98.0574 114.333 105.125 83.0373 119.294 72.4372C120.506 71.5623 127.944 75.1966 134.776 78.5617C141.104 81.6912 147.397 82.0277 153.355 80.8163L159.312 86.0995C166.581 92.8297 174.524 102.016 177.991 115.914C180.919 127.759 182.669 149.094 183.611 171.236C184.049 181.264 184.386 191.393 184.487 200.984V201.32C184.554 202.262 184.554 203.306 184.554 204.248C184.89 228.88 184.554 248.432 184.116 248.768V248.734Z" fill="#27AC75"/>
<path d="M97.6872 226.592C98.5959 213.367 100.178 190.619 98.6296 164.372C98.3603 159.492 98.192 154.646 98.192 149.868C104.082 135.533 108.928 125.168 108.928 125.168H123.804C123.804 125.168 134.709 199.705 97.6872 226.626V226.592Z" fill="url(#paint1_linear_15_420)"/>
<path d="M12.4456 266.39L8.52374 293.908C7.3411 302.206 13.1103 309.891 21.4095 311.074L84.8834 320.117C93.1827 321.3 100.869 315.532 102.052 307.234L105.974 279.716C107.156 271.418 101.387 263.733 93.088 262.55L29.6141 253.507C21.3148 252.324 13.6282 258.092 12.4456 266.39Z" fill="black"/>
<path d="M96.7112 270.776C94.9274 266.3 91.0906 262.767 86.1767 261.589C85.7056 261.488 85.2007 261.387 84.6959 261.32L72.0411 259.536L72.8826 253.614C73.0845 252.301 72.7479 250.955 71.9402 249.878C71.1324 248.802 69.9545 248.095 68.6419 247.927L65.3436 247.456L52.083 245.571L49.6934 245.235C46.9673 244.831 44.4094 246.749 44.0055 249.508L43.1641 255.431L21.3549 252.335C13.0755 251.157 5.30089 256.979 4.12292 265.257L0.151485 293.086C-1.02648 301.364 4.79604 309.138 13.0755 310.316L76.4501 319.334C77.5608 319.502 78.6714 319.536 79.7484 319.435C81.4985 319.3 83.1477 318.863 84.6959 318.19C89.3404 316.137 92.908 311.796 93.6484 306.412L97.6199 278.583C97.9901 275.857 97.6199 273.232 96.6775 270.843L96.7112 270.776ZM47.1019 249.878C47.2365 249.037 47.876 248.431 48.6501 248.297C48.8184 248.297 49.0203 248.263 49.2222 248.297L52.0494 248.701L62.4828 250.181L68.1707 250.989C69.1804 251.124 69.9208 252.099 69.7525 253.109L68.9111 259.031L46.2268 255.801L47.0682 249.878H47.1019Z" fill="black"/>
<path d="M69.6852 229.15C69.6852 229.15 66.3533 233.591 66.2186 235.375C65.3099 247.388 70.8295 249.071 56.5929 255.734C56.5929 255.734 50.5012 258.056 50.4002 253.345C50.2992 248.633 54.6072 248.566 53.8331 241.937C52.9244 234.332 53.0254 234.264 58.0065 230.26L61.3048 224.775L69.6516 229.116L69.6852 229.15Z" fill="#FFAE73"/>
<path d="M61.2038 232.548C66.5552 233.591 72.3777 233.154 72.3777 233.154C72.3777 233.154 88.2971 183.99 90.3501 179.514C92.4032 175.039 137.637 121.87 137.637 121.87L118.79 74.7255C118.79 74.7255 69.8871 156.43 64.906 167.905C56.6939 186.884 53.8331 229.419 53.8331 229.419C53.8331 229.419 56.9968 231.741 61.2038 232.548Z" fill="#27AC75"/>
<path d="M124.444 45.2136C124.444 45.2136 127.372 44.7088 126.901 40.7044C126.43 36.6662 126.43 31.4167 129.728 32.3926C132.993 33.3685 133.161 35.9933 134.507 34.479C135.853 32.931 135.887 26.5037 145.614 26.0326C155.374 25.5951 159.312 28.9602 163.855 26.9748C168.399 24.9894 168.634 18.1246 168.634 18.1246C168.634 18.1246 167.356 20.5811 165.403 21.3551C165.403 21.3551 172.976 11.0243 164.226 3.92393C155.475 -3.17641 146.522 1.46742 141.474 1.77028C130.3 2.44329 123.098 3.11632 119.429 10.4522C115.794 17.7881 117.275 38.1469 124.444 45.2136Z" fill="black"/>
<path d="M64.4348 234.433C64.4348 234.433 67.6322 237.764 67.8341 239.178C68.4736 243.653 69.9881 245.571 69.214 246.076C67.6658 247.085 65.6128 243.788 64.6031 240.793C63.6271 237.831 64.4012 234.433 64.4012 234.433H64.4348Z" fill="#FFAE73"/>
<defs>
<linearGradient id="paint0_linear_15_420" x1="132.757" y1="140.109" x2="258.497" y2="140.109" gradientUnits="userSpaceOnUse">
<stop stop-color="#4BB27D"/>
<stop offset="0.02" stop-color="#4BB280"/>
<stop offset="0.34" stop-color="#4BB8AE"/>
<stop offset="0.62" stop-color="#4BBCD0"/>
<stop offset="0.85" stop-color="#4BBFE4"/>
<stop offset="1" stop-color="#4BC0EC"/>
</linearGradient>
<linearGradient id="paint1_linear_15_420" x1="97.6872" y1="175.846" x2="125.319" y2="175.846" gradientUnits="userSpaceOnUse">
<stop stop-color="#4BB27D"/>
<stop offset="0.02" stop-color="#4BB280"/>
<stop offset="0.34" stop-color="#4BB8AE"/>
<stop offset="0.62" stop-color="#4BBCD0"/>
<stop offset="0.85" stop-color="#4BBFE4"/>
<stop offset="1" stop-color="#4BC0EC"/>
</linearGradient>
</defs>
</svg>
