<svg width="125" height="125" viewBox="0 0 125 125" fill="none" xmlns="http://www.w3.org/2000/svg">
<rect x="0.5" y="0.5" width="124" height="124" rx="19.5" stroke="#D7D7D7"/>
<path d="M49.5285 84.6717C53.1993 86.7888 57.4584 88 62.0004 88C75.8075 88 87 76.8072 87 63.0001C87 49.1929 75.8071 38 62 38C48.1929 38 37 49.1929 37 63.0001C37 67.5421 38.2112 71.8012 40.3283 75.472L40.3301 75.4751C40.5381 75.8357 40.6423 76.0164 40.6893 76.1865C40.7332 76.3453 40.7477 76.487 40.7365 76.6513C40.7245 76.8257 40.6643 77.0065 40.5452 77.3636L40.5408 77.3769L38.4052 83.7838L38.4035 83.7888C37.9522 85.1426 37.7265 85.8198 37.8872 86.2705C38.0272 86.6631 38.3367 86.9722 38.7293 87.1123C39.1806 87.2732 39.8598 87.047 41.2169 86.5947L47.6237 84.4591L47.628 84.4576C47.9911 84.3366 48.1725 84.2761 48.3484 84.2641C48.5127 84.2529 48.6549 84.267 48.8137 84.3109C48.9843 84.358 49.1658 84.4625 49.5285 84.6717Z" stroke="#162E5F" stroke-width="6" stroke-linecap="round" stroke-linejoin="round"/>
</svg>
