<svg width="608" height="421" viewBox="0 0 608 421" fill="none" xmlns="http://www.w3.org/2000/svg">
<g clip-path="url(#clip0_15_349)">
<path d="M103.585 190.628C112.966 289.495 49.6917 365.962 263.07 389.214C300.835 393.333 353.038 396.288 397.08 395.436C432.771 394.741 472.019 391.595 506.699 382.663C563.975 367.873 606.658 337.843 607.983 279.346C609.343 219.494 549.643 180.426 559.198 155.835C588.768 79.7512 540.803 24.3825 446.11 4.70975C326.274 -20.1766 277.925 62.2508 229.053 51.5281C149.842 34.1493 94.0307 89.9699 103.585 190.628Z" fill="#F3FAFF"/>
<path d="M50.9297 309.62L134.76 360.539C187.695 328.962 206.09 318.066 206.107 318.031C208.409 315.389 219.254 302.008 225.374 298.167C219.393 286.141 216.29 279.919 213.762 274.845C213.762 274.775 216.133 179.175 216.081 179.14C211.565 184.475 154.097 259.447 126.705 273.889C125.711 274.41 126.025 274.184 125.886 274.393C124.421 276.791 92.2 290.451 52.7779 306.578L50.9122 309.62H50.9297Z" fill="#FDBAA0"/>
<path d="M203.143 200.099C204.259 200.69 229.75 205.417 227.065 208.701C216.604 221.509 213.744 241.234 218.086 248.255C226.42 261.689 242.478 256.215 244.204 255.52L202.411 294.535C191.043 296.307 128.466 298.793 128.536 294.987C128.832 279.398 200.284 198.587 203.126 200.116L203.143 200.099Z" fill="#FDBAA0"/>
<path d="M112.826 283.569C112.826 283.569 142.066 265.947 155.422 243.667C173.991 212.698 191.06 174.865 195.297 170.59C202.585 163.256 226.368 148.779 232.836 148.119C239.305 147.441 260.315 143.931 264.569 145.582C268.824 147.233 256.113 161.918 240.229 170.364C224.345 178.792 207.258 193.408 207.258 193.408L181.802 272.342L112.826 283.551V283.569Z" fill="#FDBAA0"/>
<path d="M178.228 221.388C178.228 221.388 206.561 167.444 221.311 160.875C236.062 154.306 253.097 149.648 263.035 155.192C272.973 160.736 291.263 177.437 290.81 180.704C290.357 183.971 274.455 184.302 263.819 180.079C253.184 175.873 224.554 188.368 224.554 188.368L193.1 223.004L178.228 221.388Z" fill="#FDBAA0"/>
<path d="M181.017 274.775C181.017 274.775 208.653 188.316 216.081 179.14C223.491 169.964 256.845 172.449 267.237 174.378C277.611 176.29 298.011 200.933 297.993 208.024C297.976 216.73 280.087 210.7 268.771 202.532C258.379 195.024 243.333 199.143 238.172 199.126C236.672 199.126 233.708 201.35 230.57 204.67C226.455 208.997 222.009 215.149 220.004 220.571C213.204 238.94 233.987 257.188 233.987 257.188L181.017 274.775Z" fill="#FDBAA0"/>
<path d="M251.649 158.685C246.75 159.102 241.851 159.554 236.969 160.093C232.209 160.614 227.257 160.927 222.706 162.526C214.546 165.359 208.967 172.414 203.823 178.949C203.039 179.957 201.522 178.653 202.306 177.663C207.554 171.007 213.256 163.951 221.451 160.875C225.914 159.207 230.744 158.807 235.452 158.286C240.787 157.695 246.122 157.173 251.458 156.739C252.73 156.635 252.905 158.616 251.632 158.72L251.649 158.685Z" fill="#EF9F8A"/>
<path d="M451.654 421L212.07 369.385L279.773 57.1064L483.666 101.023L513.08 137.709L451.654 421Z" fill="white"/>
<path d="M374.17 140.82C371.816 151.664 365.766 160.771 357.623 167.079C353.23 170.485 348.226 173.092 342.855 174.726C335.672 176.916 327.843 177.35 319.962 175.647C312.57 174.048 305.996 170.763 300.539 166.262C295.117 161.796 290.827 156.148 287.968 149.805C284.115 141.272 282.877 131.47 285.004 121.616C290.322 97.0776 314.592 81.4889 339.211 86.7894C363.831 92.0899 379.47 116.281 374.153 140.82H374.17Z" fill="#E9F4F6"/>
<path d="M325.141 100.484C321.933 100.258 318.515 101.075 316.283 103.629C315.255 104.829 314.61 106.271 314.435 107.852C314.261 109.486 314.488 111.12 314.592 112.736C314.697 114.404 314.662 116.142 313.842 117.654C313.075 119.079 311.785 120.278 311.489 121.929C311.175 123.65 312.047 125.353 311.558 127.056C311.297 127.925 310.791 128.707 310.338 129.489C309.885 130.271 309.501 131.088 309.239 131.974C308.682 133.938 308.716 136.058 308.926 138.074C309.083 139.586 309.484 141.168 310.809 142.036C311.053 142.193 311.279 141.776 311.035 141.619C309.815 140.82 309.518 139.221 309.396 137.848C309.222 136.058 309.205 134.181 309.64 132.426C309.867 131.522 310.233 130.671 310.687 129.871C311.105 129.159 311.558 128.464 311.855 127.699C312.465 126.135 311.994 124.675 311.925 123.076C311.837 121.304 312.883 120.07 313.808 118.679C314.662 117.411 315.063 116.055 315.133 114.543C315.255 111.45 314.174 108.148 315.76 105.246C317.643 101.822 321.636 100.727 325.211 100.97C325.507 100.988 325.489 100.519 325.193 100.501L325.141 100.484Z" fill="#384955"/>
<path d="M334.73 123.667C335.515 119.444 336.544 115.256 337.799 111.137L326.065 100.432C323.606 100.727 321.061 101.318 319.195 102.987C316.388 105.524 315.917 109.799 316.179 113.588C316.44 117.376 317.208 121.269 316.144 124.936C315.011 128.829 311.907 131.974 311.035 135.937C310.076 140.299 312.116 144.921 315.412 147.789C318.707 150.674 323.049 152.012 327.373 152.516C327.582 152.533 327.808 152.568 328.018 152.481C328.401 152.342 328.611 151.908 328.767 151.525C332.307 142.697 332.969 133.017 334.73 123.667Z" fill="#384955"/>
<path d="M357.606 167.079C353.212 170.485 348.208 173.092 342.838 174.726C336.195 174.43 328 173.353 319.23 171.459C312.326 169.964 305.944 168.174 300.539 166.262C295.117 161.796 290.827 156.148 287.968 149.805C291.054 147.111 295.239 145.06 300.121 143.792C303.625 142.888 307.496 142.384 311.593 142.314C313.965 142.28 316.406 142.401 318.916 142.679C320.991 142.905 323.118 143.253 325.245 143.705C326.623 144 327.965 144.33 329.273 144.713C329.796 144.869 330.319 145.025 330.825 145.182C331.174 145.286 331.54 145.408 331.888 145.529C332.568 145.755 333.231 145.981 333.894 146.225C334.033 146.277 334.19 146.329 334.329 146.398C338.81 148.102 342.838 150.256 346.238 152.724C346.813 153.141 347.371 153.558 347.912 153.993C352.794 157.886 356.194 162.422 357.589 167.062L357.606 167.079Z" fill="#FCBFAF"/>
<path d="M357.606 167.08C353.212 170.486 348.208 173.093 342.838 174.726C335.655 176.916 327.826 177.35 319.945 175.647C312.552 174.048 305.979 170.764 300.522 166.263C295.099 161.796 290.81 156.148 287.95 149.805C291.037 147.111 295.221 145.061 300.103 143.792C300.103 143.792 316.772 169.565 345.785 152.968C345.924 152.881 346.081 152.794 346.221 152.707C346.796 153.124 347.354 153.541 347.894 153.976C352.776 157.869 356.176 162.405 357.571 167.045L357.606 167.08Z" fill="#27AC75"/>
<path d="M321.793 149.562C318.062 148.258 318.428 145.304 319.195 140.994L322.212 123.893C323.066 119.097 327.407 115.777 331.906 116.49C336.404 117.202 336.683 118.176 335.846 122.972L332.638 143.427C331.784 148.223 325.873 151.299 321.793 149.562Z" fill="#FCBFAF"/>
<path d="M326.518 102.535C326.518 102.535 308.437 120.852 315.499 130.028C319.84 135.659 327.913 134.633 338.566 130.897C347.737 127.682 347.145 92.0901 326.518 102.552V102.535Z" fill="#FCBFAF"/>
<path d="M328.157 134.789C324.67 135.276 321.462 134.928 318.445 133.173C317.8 132.808 318.411 131.731 319.056 132.113C321.915 133.764 324.914 134.042 328.192 133.573C328.942 133.469 328.907 134.685 328.157 134.789Z" fill="#F3A99C"/>
<path d="M349.15 124.953C349.708 122.416 349.743 119.792 349.777 117.185C349.812 114.509 349.83 111.78 348.906 109.278C347.371 105.107 343.501 102.378 339.63 100.345L332.133 102.309C333.719 102.778 334.748 104.238 334.573 105.559C334.399 106.879 334.016 108.2 334.138 109.521C334.382 112.284 336.701 114.317 337.834 116.82C338.601 118.506 337.834 120.47 337.468 122.312C337.154 123.928 337.416 125.457 337.398 127.091C337.398 127.908 337.538 128.724 337.363 129.506C337.171 130.341 336.613 131.036 336.23 131.783C335.62 132.965 335.428 134.407 335.829 135.659C336.23 136.927 337.293 137.97 338.566 138.231C340.763 138.648 342.751 136.771 344.128 134.963C346.412 131.974 348.313 128.62 349.132 124.936L349.15 124.953Z" fill="#384955"/>
<path d="M359.838 149.874C360.117 146.989 359.367 144.105 359.175 141.22C358.966 138.109 359.402 134.981 360.152 131.939C360.989 128.603 361.651 125.249 361.564 121.808C361.424 116.264 358.774 111.241 353.718 103.855C347.319 94.523 339.438 90.4217 331.017 92.5245C322.578 94.6447 324.496 104.742 324.879 104.307C331.47 96.7475 340.345 107.627 340.467 117.237L335.724 123.632C335.951 125.84 335.341 128.151 334.033 129.958C333.318 130.949 332.377 131.818 332.01 132.982C331.505 134.581 332.185 136.319 331.976 137.97C331.697 140.125 329.97 141.828 329.413 143.931C328.663 146.746 330.232 149.805 332.638 151.369C335.027 152.916 338.043 153.176 340.868 152.829C341.914 152.707 342.96 152.499 344.024 152.585C345.994 152.742 347.72 153.889 349.446 154.897C351.155 155.905 353.108 156.808 355.06 156.409C357.85 155.835 359.559 152.759 359.838 149.874Z" fill="#384955"/>
<path d="M334.103 122.85C334.103 122.85 338.043 119.427 339.595 121.147C341.147 122.85 339.299 127.247 337.171 127.421C335.044 127.595 333.911 124.136 334.016 123.493L334.103 122.85Z" fill="#FCBFAF"/>
<path d="M335.48 126.882C335.236 126.378 335.288 126.795 335.55 126.743C335.672 126.726 335.899 126.795 336.021 126.795C336.561 126.795 337.119 126.656 337.607 126.395C338.444 125.944 338.967 125.162 339.438 124.31C339.717 123.823 340.048 123.319 339.961 122.694C339.804 121.46 338.636 121.303 337.799 121.773C337.137 122.138 336.718 121.008 337.381 120.643C338.776 119.878 340.467 120.4 341.007 122.016C341.513 123.563 340.345 125.44 339.351 126.517C338.514 127.421 337.381 127.977 336.195 128.012C335.585 128.029 334.73 127.994 334.417 127.351C334.085 126.656 335.166 126.187 335.498 126.882H335.48Z" fill="#FDBAA0"/>
<path d="M331.487 102.031C333.091 100.449 335.742 100.31 337.398 101.84C338.165 102.552 338.688 103.525 338.828 104.585C338.985 105.732 338.619 106.845 338.322 107.939C338.043 108.965 337.764 110.042 337.973 111.102C338.183 112.093 338.81 112.892 339.525 113.553C340.292 114.248 341.129 114.839 341.827 115.621C342.559 116.438 343.152 117.394 343.553 118.419C344.39 120.574 344.372 122.989 343.361 125.11C342.855 126.152 342.141 127.091 341.251 127.803C340.449 128.446 339.49 128.933 338.88 129.785C337.45 131.783 338.845 134.181 339.49 136.145C339.909 137.431 339.944 138.682 339.316 139.916C338.741 141.029 337.851 141.915 336.945 142.749C335.219 144.348 333.022 146.312 333.405 148.971C333.737 151.265 336.038 152.203 337.939 152.846C338.218 152.933 338.322 152.481 338.043 152.377C336.056 151.699 333.545 150.604 333.859 147.997C334.172 145.443 336.474 143.948 338.113 142.28C338.932 141.463 339.665 140.507 340.031 139.395C340.414 138.283 340.31 137.153 339.961 136.058C339.578 134.859 338.967 133.73 338.793 132.461C338.619 131.123 339.037 130.063 340.083 129.228C340.955 128.533 341.879 127.995 342.611 127.126C343.291 126.309 343.814 125.37 344.163 124.345C344.878 122.26 344.739 119.983 343.884 117.984C343.483 117.063 342.96 116.212 342.315 115.464C341.6 114.63 340.728 114.005 339.926 113.292C339.054 112.51 338.357 111.589 338.34 110.355C338.322 109.191 338.758 108.078 339.037 106.966C339.333 105.819 339.421 104.655 339.02 103.508C338.653 102.5 337.991 101.631 337.119 101.04C335.271 99.7888 332.708 100.154 331.121 101.718C330.895 101.926 331.243 102.257 331.47 102.031H331.487Z" fill="#4D6371"/>
<path d="M332.69 101.005C336.23 98.1205 341.879 98.2248 345.035 101.562C345.889 102.465 346.569 103.647 346.691 104.916C346.831 106.393 346.029 107.54 345.488 108.826C344.477 111.259 345.017 114.022 346.151 116.281C347.389 118.749 349.342 120.748 350.998 122.92C352.567 124.971 354.032 127.386 354.084 130.08C354.101 131.331 353.84 132.617 353.212 133.695C352.567 134.824 351.573 135.502 350.423 136.024C349.394 136.475 348.295 136.84 347.424 137.605C346.534 138.37 346.011 139.499 345.976 140.681C345.889 143.01 347.772 144.574 349.202 146.086C350.091 147.024 350.806 148.084 351.19 149.353C351.591 150.622 351.835 152.499 350.771 153.524C350.283 153.993 349.586 154.219 348.975 153.941C348.696 153.819 348.487 154.236 348.749 154.358C349.725 154.793 350.858 154.323 351.434 153.437C352.184 152.29 352.044 150.761 351.713 149.509C351.381 148.258 350.754 147.146 349.917 146.19C349.115 145.269 348.173 144.487 347.441 143.496C346.656 142.454 346.221 141.22 346.534 139.899C346.901 138.422 348.034 137.588 349.342 137.014C350.44 136.528 351.591 136.145 352.497 135.328C353.387 134.529 353.979 133.417 354.293 132.27C355.81 126.465 350.597 122.19 347.72 118.019C346.081 115.638 344.808 112.58 345.697 109.625C346.116 108.235 347.075 107.088 347.162 105.593C347.232 104.377 346.796 103.195 346.133 102.222C343.501 98.3291 337.886 97.5123 333.893 99.6499C333.37 99.9279 332.882 100.258 332.429 100.64C332.202 100.832 332.429 101.231 332.673 101.04L332.69 101.005Z" fill="#4D6371"/>
<path d="M350.736 139.082C349.708 139.117 348.94 140.038 348.853 141.046C348.749 142.314 349.551 143.409 350.423 144.209C351.451 145.165 352.515 145.999 353.439 147.076C354.38 148.188 355.182 149.457 355.653 150.865C356.176 152.429 356.281 154.115 355.81 155.713C355.723 156.009 356.176 156.113 356.263 155.818C357.188 152.637 355.95 149.388 353.962 146.972C353.456 146.364 352.916 145.79 352.323 145.251C351.695 144.661 350.998 144.157 350.388 143.531C349.83 142.94 349.324 142.175 349.307 141.324C349.289 140.455 349.865 139.603 350.754 139.569C351.05 139.569 351.033 139.082 350.736 139.099V139.082Z" fill="#4D6371"/>
<path d="M340.798 132.443C340.868 133.243 341.077 134.007 341.426 134.737C341.548 135.015 341.949 134.737 341.827 134.477C341.53 133.834 341.339 133.139 341.269 132.426C341.234 132.131 340.781 132.148 340.798 132.461V132.443Z" fill="#4D6371"/>
<path d="M351.66 119.131C352.009 119.687 352.375 120.261 352.724 120.817C352.881 121.078 353.282 120.817 353.125 120.556C352.776 120 352.41 119.427 352.061 118.871C351.905 118.61 351.504 118.871 351.66 119.131Z" fill="#4D6371"/>
<path d="M344.529 336.765C320.555 331.604 305.264 307.968 310.442 284.073C315.621 260.177 339.333 244.936 363.307 250.097C387.282 255.259 402.573 278.894 397.394 302.807C392.216 326.703 368.503 341.944 344.529 336.782V336.765ZM361.878 256.753C341.6 252.391 321.514 265.286 317.138 285.498C312.761 305.709 325.699 325.712 345.976 330.092C366.254 334.454 386.34 321.559 390.716 301.347C395.093 281.118 382.155 261.115 361.878 256.753Z" fill="#EAE7D8"/>
<path d="M325.106 284.264C327.25 289.408 329.395 294.552 331.54 299.679C332.568 302.147 333.597 304.614 334.626 307.082C335.271 308.646 335.899 310.245 336.805 311.67C338.828 314.833 342.594 316.745 346.325 316.623C351.364 316.484 354.834 312.939 358.338 309.776C360.256 308.038 362.157 306.283 364.04 304.51C374.205 295.004 384.195 285.324 394.308 275.766C398.615 271.682 402.921 267.58 407.42 263.705C409.128 262.228 409.983 259.03 409.861 256.875C409.739 254.633 408.588 251.992 406.844 250.514C404.961 248.933 402.52 247.821 399.992 248.081C397.412 248.342 395.564 249.42 393.611 251.088C376.158 266.155 360.361 283.082 343.134 298.393C342.786 298.706 342.42 299.018 342.071 299.331C341.495 299.835 340.85 299.974 343.012 298.549C342.193 299.088 342.472 299.018 343.832 298.306C348.644 297.698 351.678 299.088 352.933 302.494C352.968 302.338 352.445 301.312 352.41 301.26C352.061 300.444 351.73 299.609 351.381 298.793C350.789 297.35 350.178 295.908 349.586 294.483C347.354 289.13 345.122 283.795 342.89 278.442C341.949 276.165 340.589 274.254 338.322 273.072C336.265 271.995 333.283 271.647 331.069 272.481C326.623 274.149 323.066 279.433 325.088 284.247L325.106 284.264Z" fill="#27AC75"/>
<path d="M283.138 185.848C305.212 190.402 327.303 194.972 349.376 199.525C351.538 199.977 352.253 196.641 350.091 196.189C328.018 191.636 305.927 187.065 283.853 182.512C281.691 182.06 280.976 185.397 283.138 185.848Z" fill="#EAE7D8"/>
<path d="M279.791 200.742C295.657 204.027 311.506 207.294 327.373 210.578C347.563 214.749 367.736 218.92 387.927 223.091C395.476 224.655 403.009 226.202 410.558 227.766C412.72 228.218 413.435 224.881 411.273 224.429C395.407 221.145 379.558 217.877 363.691 214.593C343.501 210.422 323.327 206.251 303.137 202.08C295.587 200.516 288.055 198.969 280.505 197.405C278.343 196.953 277.629 200.29 279.791 200.742Z" fill="#EAE7D8"/>
<path d="M360.832 202.636C373.908 205.348 387.003 208.041 400.079 210.752C415.806 214.002 431.533 217.252 447.26 220.502C453.729 221.84 460.198 223.178 466.684 224.516C468.846 224.968 469.561 221.631 467.399 221.18C454.322 218.469 441.228 215.775 428.151 213.064C412.424 209.814 396.697 206.564 380.97 203.314C374.501 201.976 368.033 200.638 361.546 199.3C359.384 198.848 358.67 202.185 360.832 202.636Z" fill="#EAE7D8"/>
<path d="M423.304 230.668C437.13 233.501 450.957 236.334 464.783 239.184C466.945 239.618 467.66 236.299 465.498 235.847C451.672 233.014 437.845 230.182 424.019 227.332C421.857 226.897 421.142 230.216 423.304 230.668Z" fill="#EAE7D8"/>
<path d="M275.257 214.506C296.128 218.382 316.876 222.9 337.468 228.027C339.612 228.566 340.327 225.229 338.183 224.69C317.591 219.546 296.843 215.045 275.972 211.169C273.81 210.77 273.078 214.106 275.257 214.506Z" fill="#EAE7D8"/>
<path d="M349.289 230.425C378.32 236.699 407.35 242.955 436.38 249.229C444.575 251.001 452.787 252.774 460.982 254.546C463.127 255.016 463.859 251.679 461.697 251.21C432.667 244.936 403.636 238.68 374.606 232.406C366.411 230.633 358.199 228.861 350.004 227.088C347.859 226.619 347.127 229.956 349.289 230.425Z" fill="#EAE7D8"/>
<path d="M406.478 130.253C432.004 135.432 457.53 140.629 483.038 145.807C485.183 146.242 485.915 142.923 483.753 142.488C458.227 137.309 432.702 132.113 407.193 126.934C405.049 126.5 404.316 129.819 406.478 130.253Z" fill="#EAE7D8"/>
<path d="M404.02 141.324C429.546 146.503 455.072 151.699 480.58 156.878C482.725 157.312 483.457 153.993 481.295 153.558C455.769 148.38 430.243 143.183 404.735 138.004C402.59 137.57 401.858 140.889 404.02 141.324Z" fill="#EAE7D8"/>
<path d="M402.032 155.209C426.965 160.336 451.881 165.463 476.814 170.589C478.958 171.024 479.691 167.722 477.529 167.27C452.596 162.143 427.68 157.017 402.747 151.89C400.602 151.455 399.87 154.757 402.032 155.209Z" fill="#EAE7D8"/>
<path d="M399.173 170.277C412.18 172.797 425.204 175.299 438.211 177.819C440.356 178.236 441.088 174.917 438.926 174.5C425.919 171.98 412.895 169.477 399.888 166.958C397.743 166.54 397.011 169.86 399.173 170.277Z" fill="#EAE7D8"/>
<path d="M448.585 180.686C457.774 182.702 466.963 184.736 476.151 186.752C478.296 187.221 479.011 183.902 476.866 183.432C467.678 181.416 458.489 179.383 449.3 177.367C447.156 176.898 446.441 180.217 448.585 180.686Z" fill="#EAE7D8"/>
<path d="M396.191 184.041C421.421 189.654 446.807 194.624 472.298 198.952C474.46 199.317 475.175 195.997 473.013 195.632C447.522 191.322 422.153 186.352 396.906 180.721C394.761 180.252 394.047 183.554 396.191 184.041Z" fill="#EAE7D8"/>
<path d="M483.666 101.022L477.372 130.01L513.08 137.709L483.666 101.022Z" fill="#EAE7D8"/>
<path d="M220.004 220.571C221.085 217.669 222.846 214.575 224.886 211.638C219.794 208.562 212.349 204.096 206.439 200.638C198.941 220.363 189.648 248.308 184.627 263.636L210.536 264.974L233.987 257.188C233.987 257.188 213.204 238.94 220.004 220.571Z" fill="#FDBAA0"/>
<path d="M196.675 324.878C226.158 319.578 260.018 285.411 267.899 274.219C282.65 253.278 304.392 243.163 304.288 239.097C304.183 235.03 295.029 226.254 275.571 234.926C257.089 243.181 243.559 258.37 231.999 256.667C227.431 255.989 199.22 254.459 199.22 254.459C199.22 254.459 185.394 326.894 196.657 324.878H196.675Z" fill="#FDBAA0"/>
<path d="M299.162 242.138C299.231 240.522 297.052 241.564 296.459 241.947C296.023 242.225 295.622 242.572 295.221 242.885C294.297 243.615 293.39 244.38 292.501 245.144C290.915 246.483 287.183 248.62 289.345 250.966C289.938 251.609 288.822 252.409 288.229 251.766C285.039 248.307 290.444 245.058 292.728 243.146C294.192 241.929 296.023 239.931 298.063 239.879C299.528 239.844 300.539 240.974 300.487 242.364C300.452 243.233 299.109 243.007 299.144 242.138H299.162Z" fill="#E79780"/>
<path d="M215.732 255.971C222.392 256.945 229.122 257.118 235.835 256.493C237.108 256.371 237.056 258.352 235.8 258.474C229.088 259.1 222.357 258.926 215.697 257.953C214.442 257.761 214.476 255.78 215.732 255.971Z" fill="#EF9F8A"/>
<path d="M201.347 324.791C195.071 325.608 188.794 325.087 182.726 323.262C181.54 322.897 182.203 321.107 183.389 321.455C190.624 323.644 194.216 323.783 201.016 322.897C202.237 322.741 202.568 324.635 201.33 324.791H201.347Z" fill="#EF9F8A"/>
<path d="M166.406 349.122C164.82 345.837 130.715 288.922 126.531 271.022C126.531 271.022 126.601 267.581 121.527 268.971C116.47 270.361 74.154 285.794 74.154 285.794L83.8308 341.996L129.896 379.587C129.896 379.587 167.993 352.406 166.406 349.139V349.122Z" fill="white"/>
<path d="M156.485 350.79C157.148 349.191 156.381 347.366 154.777 346.706C153.173 346.045 151.342 346.81 150.679 348.409C150.017 350.008 150.784 351.832 152.388 352.493C153.992 353.153 155.823 352.389 156.485 350.79Z" fill="#198DA5"/>
<path d="M-98.6694 319.891L-12.2953 474.163C-12.2953 474.163 135.667 389.944 141.037 379.569C141.037 379.569 147.959 375.19 134.76 360.539C134.76 360.539 111.763 330.648 106.567 319.891C106.567 319.891 98.5291 305.153 96.5937 296.951C96.5937 296.951 90.0553 271.699 73.5786 274.967C73.5786 274.967 17.9064 285.324 0.0174255 292.901L-98.6694 319.891Z" fill="#1D1D1D"/>
</g>
<defs>
<clipPath id="clip0_15_349">
<rect width="608" height="421" fill="white"/>
</clipPath>
</defs>
</svg>
