<svg width="190" height="190" viewBox="0 0 190 190" fill="none" xmlns="http://www.w3.org/2000/svg">
<g filter="url(#filter0_d_15_1242)">
<rect x="35" y="35" width="120" height="120" rx="60" fill="#FCB47E"/>
</g>
<path d="M78.2 108.592V82.9923C78.2 80.8814 78.2 79.8259 78.6443 79.2013C79.032 78.6562 79.6296 78.2977 80.293 78.2121C81.0524 78.1142 81.9818 78.6098 83.8409 79.6014L83.8461 79.6042L107.846 92.4042C109.909 93.5043 110.94 94.0544 111.278 94.7869C111.573 95.425 111.573 96.1598 111.278 96.7979C110.94 97.5304 109.909 98.0805 107.846 99.1806L83.8461 111.981L83.8396 111.984C81.9813 112.975 81.0523 113.471 80.293 113.373C79.6296 113.287 79.032 112.929 78.6443 112.384C78.2 111.759 78.2 110.703 78.2 108.592Z" fill="white"/>
<defs>
<filter id="filter0_d_15_1242" x="0" y="0" width="190" height="190" filterUnits="userSpaceOnUse" color-interpolation-filters="sRGB">
<feFlood flood-opacity="0" result="BackgroundImageFix"/>
<feColorMatrix in="SourceAlpha" type="matrix" values="0 0 0 0 0 0 0 0 0 0 0 0 0 0 0 0 0 0 127 0" result="hardAlpha"/>
<feMorphology radius="5" operator="dilate" in="SourceAlpha" result="effect1_dropShadow_15_1242"/>
<feOffset/>
<feGaussianBlur stdDeviation="15"/>
<feComposite in2="hardAlpha" operator="out"/>
<feColorMatrix type="matrix" values="0 0 0 0 0.92549 0 0 0 0 0.545098 0 0 0 0 0.133333 0 0 0 0.5 0"/>
<feBlend mode="normal" in2="BackgroundImageFix" result="effect1_dropShadow_15_1242"/>
<feBlend mode="normal" in="SourceGraphic" in2="effect1_dropShadow_15_1242" result="shape"/>
</filter>
</defs>
</svg>
