<svg width="82" height="40" viewBox="0 0 82 40" fill="none" xmlns="http://www.w3.org/2000/svg">
<rect width="82" height="40" rx="20" fill="#FBD49B"/>
<path d="M39.6281 21.16L44.4742 16.3138M49.4316 13.3563L45.341 26.6509C44.9743 27.8427 44.791 28.4386 44.4748 28.6362C44.2005 28.8075 43.8606 28.8357 43.5619 28.7117C43.2175 28.5688 42.9383 28.0112 42.3807 26.8959L39.7897 21.714C39.7012 21.537 39.6569 21.4485 39.5978 21.3718C39.5453 21.3038 39.4846 21.2427 39.4165 21.1903C39.3399 21.1312 39.2511 21.0869 39.0741 20.9984L33.8922 18.4075C32.7769 17.8498 32.2192 17.5711 32.0763 17.2267C31.9524 16.928 31.9806 16.5877 32.152 16.3134C32.3496 15.9972 32.9455 15.8139 34.1374 15.4472L47.4319 11.3566C48.3689 11.0683 48.8372 10.9241 49.1537 11.0403C49.4294 11.1415 49.6468 11.3587 49.748 11.6344C49.8642 11.9509 49.7199 12.4194 49.4316 13.3563Z" stroke="#1D1D1D" stroke-width="2" stroke-linecap="round" stroke-linejoin="round"/>
</svg>
