<svg width="105" height="105" viewBox="0 0 105 105" fill="none" xmlns="http://www.w3.org/2000/svg">
<rect x="0.5" y="0.5" width="103.17" height="103.167" rx="19.5" stroke="#D7D7D7"/>
<path d="M67.0358 45.4518L66.3763 45.0844C66.2739 45.0273 66.2227 44.9987 66.1732 44.969C65.6815 44.6741 65.2673 44.2658 64.9649 43.7782C64.9344 43.7291 64.9046 43.6784 64.8459 43.5767C64.7872 43.4749 64.7577 43.4238 64.7304 43.3727C64.4591 42.8655 64.3131 42.3006 64.3043 41.7252C64.3035 41.6733 64.3044 41.6203 64.306 41.5251L64.3066 41.4905L64.3192 40.7386C64.34 39.5015 64.3503 38.8831 64.1773 38.3285C64.0244 37.8379 63.7688 37.3855 63.427 37.002C63.0414 36.5693 62.5067 36.2608 61.4399 35.6452L61.4344 35.642L60.5452 35.1288C59.4776 34.5128 58.9437 34.2049 58.3769 34.0874C57.8755 33.9835 57.3578 33.9877 56.8582 34.1C56.2949 34.2266 55.7682 34.5425 54.7164 35.1731L54.7084 35.1779L54.0713 35.5599C53.9705 35.6204 53.9195 35.6505 53.869 35.6786C53.3679 35.9576 52.8076 36.1128 52.2346 36.1313C52.1769 36.1331 52.1181 36.1331 52.0006 36.1331H51.9991C51.8824 36.1331 51.8244 36.1331 51.7667 36.1313C51.1925 36.1128 50.6304 35.9568 50.1285 35.6767C50.0798 35.6495 50.0313 35.6204 49.9376 35.564L49.9267 35.5574L49.2855 35.172L49.2807 35.1691C48.2226 34.533 47.6931 34.2147 47.127 34.0874C46.6253 33.9747 46.105 33.971 45.6018 34.0762C45.0329 34.1952 44.4974 34.5064 43.4268 35.1286L42.5487 35.639C41.4837 36.258 40.952 36.5673 40.5678 37.0004C40.2279 37.3835 39.9733 37.8348 39.8212 38.3241C39.6493 38.8772 39.659 39.4938 39.6797 40.7267L39.6926 41.4924C39.6945 41.6084 39.6958 41.6664 39.695 41.7235C39.6865 42.3 39.5398 42.8661 39.2677 43.3743C39.2408 43.4245 39.2118 43.4748 39.1539 43.5752L39.1539 43.5752C39.096 43.6756 39.067 43.7258 39.037 43.7742C38.7332 44.2644 38.3163 44.6747 37.8215 44.9701C37.7726 44.9994 37.7223 45.0275 37.6209 45.0837L36.9699 45.445L36.9696 45.4452C35.8865 46.0462 35.3451 46.3467 34.9511 46.7748C34.6025 47.1535 34.3386 47.6026 34.1779 48.0919C33.9964 48.6442 33.9978 49.2635 34.0006 50.5004L34.0006 50.5053L34.0029 51.5189L34.003 51.5299C34.0057 52.7545 34.0071 53.3684 34.1887 53.9161C34.3498 54.402 34.6124 54.848 34.959 55.2244C35.3504 55.6494 35.8875 55.9487 36.9602 56.5462L36.9637 56.5482L37.609 56.9077L37.618 56.9127C37.7218 56.9705 37.7754 57.0004 37.8269 57.0314C38.3173 57.3271 38.7296 57.7357 39.0308 58.2231C39.0634 58.2757 39.0946 58.3304 39.157 58.4396L39.1571 58.4397C39.2188 58.5476 39.25 58.6016 39.2785 58.6557C39.5426 59.1564 39.6854 59.7124 39.695 60.2786C39.696 60.3397 39.6951 60.4021 39.693 60.5264L39.6806 61.2613L39.6805 61.264C39.6597 62.4993 39.6493 63.1173 39.8221 63.6716C39.975 64.1622 40.2313 64.6144 40.573 64.9979C40.9593 65.4314 41.494 65.7405 42.5645 66.3583L43.4535 66.8713C44.5211 67.4873 45.0557 67.7952 45.6224 67.9127C46.1238 68.0166 46.6414 68.0123 47.141 67.9C47.7045 67.7733 48.2314 67.4574 49.2841 66.8262L49.2908 66.8222L49.9279 66.4402C50.0287 66.3797 50.0794 66.3496 50.1299 66.3215C50.631 66.0425 51.1911 65.8872 51.7641 65.8688C51.8219 65.867 51.8806 65.867 51.9981 65.867C52.1158 65.867 52.1755 65.867 52.2334 65.8688C52.8076 65.8873 53.3689 66.0431 53.8708 66.3233C53.9214 66.3515 53.9721 66.3819 54.073 66.4426L54.7142 66.828L54.7154 66.8288C55.7759 67.4663 56.3061 67.7851 56.8729 67.9124C57.3745 68.0251 57.8939 68.0292 58.3972 67.9239C58.966 67.8049 59.5019 67.4937 60.5724 66.8715L61.4506 66.3611C62.5156 65.7421 63.0474 65.4327 63.4316 64.9997C63.7715 64.6166 64.0262 64.1653 64.1782 63.676C64.3501 63.1229 64.3402 62.5064 64.3195 61.2735L64.3066 60.5077L64.3059 60.4693C64.3044 60.3782 64.3035 60.3272 64.3043 60.2768C64.3128 59.7002 64.4592 59.134 64.7313 58.6258C64.7582 58.5756 64.7872 58.5253 64.8451 58.4249C64.903 58.3245 64.9325 58.2742 64.9626 58.2257C65.2664 57.7355 65.6828 57.3255 66.1776 57.0301C66.225 57.0018 66.2743 56.9744 66.3693 56.9217L66.379 56.9163L67.0301 56.555C68.1133 55.9539 68.6545 55.6534 69.0485 55.2253C69.3971 54.8466 69.6605 54.3975 69.8212 53.9083C70.0029 53.3552 70.0022 52.7351 69.9994 51.4949L69.9971 50.4813C69.9943 49.2494 69.9928 48.6333 69.8107 48.084C69.6496 47.598 69.3867 47.152 69.0401 46.7756C68.6483 46.3501 68.1108 46.0506 67.0358 45.4518Z" stroke="#162E5F" stroke-width="3" stroke-linecap="round" stroke-linejoin="round"/>
</svg>
