<svg width="116" height="34" viewBox="0 0 116 34" fill="none" xmlns="http://www.w3.org/2000/svg">
<path d="M24.8116 6.78989C24.7926 6.61891 24.6406 6.54292 24.5266 6.52392C24.4127 6.50492 21.9239 6.33393 21.9239 6.33393C21.9239 6.33393 20.195 4.62409 20.0241 4.43411C19.8341 4.24412 19.4731 4.30112 19.3211 4.33912C19.3021 4.33912 18.9412 4.45311 18.3522 4.64309C17.8013 2.99024 16.7754 1.47038 14.9895 1.47038H14.8375C14.3246 0.805437 13.6976 0.501465 13.1657 0.501465C9.00506 0.520463 7.02924 5.70699 6.4023 8.34775C4.78744 8.84171 3.64755 9.20267 3.49556 9.24067C2.60264 9.52564 2.56464 9.54464 2.45065 10.3996C2.35566 11.0645 -0.00012207 29.3028 -0.00012207 29.3028L18.3712 32.7415L28.3263 30.5947C28.3263 30.5757 24.8306 6.96088 24.8116 6.78989ZM17.3453 4.96606C16.8893 5.11805 16.3574 5.27003 15.7874 5.44102V5.09905C15.7874 4.07314 15.6355 3.23722 15.4075 2.59127C16.3384 2.72426 16.9653 3.76917 17.3453 4.96606ZM14.2866 2.80026C14.5336 3.4462 14.7045 4.35811 14.7045 5.593V5.76399C13.6976 6.06796 12.5957 6.40993 11.4938 6.7519C12.1208 4.39611 13.2797 3.23722 14.2866 2.80026ZM13.0517 1.64136C13.2227 1.64136 13.4127 1.69836 13.5836 1.81235C12.2538 2.43929 10.8289 4.01614 10.2209 7.16986C9.34703 7.43583 8.47311 7.70181 7.67518 7.94879C8.39711 5.555 10.069 1.64136 13.0517 1.64136Z" fill="#95BF47"/>
<path d="M24.5267 6.52411C24.4127 6.50511 21.9239 6.33413 21.9239 6.33413C21.9239 6.33413 20.1951 4.62428 20.0241 4.4343C19.9481 4.35831 19.8531 4.32031 19.7581 4.32031L18.3712 32.7417L28.3263 30.5949C28.3263 30.5949 24.8307 6.96107 24.8117 6.80909C24.7927 6.6381 24.6407 6.54311 24.5267 6.52411Z" fill="#5E8E3E"/>
<path d="M39.9342 18.8726C38.9463 18.3406 38.4333 17.8847 38.4333 17.2577C38.4333 16.4598 39.1363 15.9468 40.2572 15.9468C41.5491 15.9468 42.689 16.4788 42.689 16.4788L43.6009 13.705C43.6009 13.705 42.765 13.0591 40.3142 13.0591C36.8945 13.0591 34.5197 15.0159 34.5197 17.7707C34.5197 19.3285 35.6216 20.5254 37.1035 21.3803C38.3004 22.0643 38.7183 22.5392 38.7183 23.2612C38.7183 24.0021 38.1294 24.591 37.0085 24.591C35.3556 24.591 33.7978 23.7361 33.7978 23.7361L32.8289 26.5099C32.8289 26.5099 34.2727 27.4788 36.6855 27.4788C40.2002 27.4788 42.727 25.7499 42.727 22.6342C42.746 20.9434 41.4731 19.7655 39.9342 18.8726ZM53.9549 13.0401C52.2261 13.0401 50.8582 13.857 49.8133 15.1109L49.7563 15.0919L51.2572 7.22662H47.3435L43.5439 27.2318H47.4575L48.7684 20.3924C49.2814 17.8087 50.6112 16.2128 51.8651 16.2128C52.739 16.2128 53.081 16.8018 53.081 17.6567C53.081 18.1886 53.024 18.8536 52.91 19.3855L51.4282 27.2128H55.3418L56.8807 19.1195C57.0517 18.2646 57.1656 17.2387 57.1656 16.5738C57.1466 14.37 55.9878 13.0401 53.9549 13.0401ZM65.9998 13.0401C61.2883 13.0401 58.1726 17.2957 58.1726 22.0263C58.1726 25.066 60.0534 27.4978 63.5681 27.4978C68.1846 27.4978 71.3194 23.3562 71.3194 18.5116C71.3194 15.6999 69.6665 13.0401 65.9998 13.0401ZM64.081 24.4961C62.7511 24.4961 62.1812 23.3562 62.1812 21.9503C62.1812 19.7085 63.3401 16.0418 65.4679 16.0418C66.8548 16.0418 67.3107 17.2387 67.3107 18.3976C67.3107 20.8104 66.1518 24.4961 64.081 24.4961ZM81.3314 13.0401C78.6907 13.0401 77.1898 15.3579 77.1898 15.3579H77.1328L77.3608 13.2681H73.9031C73.7321 14.6929 73.4282 16.8398 73.1052 18.4546L70.3884 32.7793H74.2831L75.366 26.9848H75.442C75.442 26.9848 76.2399 27.4978 77.7408 27.4978C82.3384 27.4978 85.3401 22.7862 85.3401 18.0176C85.3591 15.3959 84.1812 13.0401 81.3314 13.0401ZM77.5888 24.553C76.5629 24.553 75.9739 23.9831 75.9739 23.9831L76.6199 20.3164C77.0758 17.8847 78.3487 16.2508 79.7166 16.2508C80.9135 16.2508 81.2744 17.3527 81.2744 18.3976C81.2744 20.9434 79.7736 24.553 77.5888 24.553ZM90.9446 7.41661C89.6907 7.41661 88.7028 8.40452 88.7028 9.6774C88.7028 10.8363 89.4437 11.6342 90.5456 11.6342H90.6026C91.8185 11.6342 92.8634 10.8173 92.9014 9.37343C92.9014 8.23353 92.1415 7.41661 90.9446 7.41661ZM85.4731 27.2128H89.3867L92.0465 13.3441H88.1138L85.4731 27.2128ZM102.002 13.3251H99.2848L99.4178 12.6791C99.6458 11.3492 100.444 10.1524 101.736 10.1524C102.439 10.1524 102.989 10.3423 102.989 10.3423L103.749 7.28362C103.749 7.28362 103.065 6.94165 101.622 6.94165C100.235 6.94165 98.8479 7.34061 97.784 8.25253C96.4541 9.39243 95.8271 11.0263 95.5232 12.6791L95.4092 13.3251H93.5853L93.0154 16.2698H94.8392L92.7684 27.2128H96.701L98.7719 16.2698H101.47L102.002 13.3251ZM111.425 13.3441C111.425 13.3441 108.974 19.5185 107.872 22.8812H107.815C107.739 21.7983 106.846 13.3441 106.846 13.3441H102.724L105.079 26.0729C105.136 26.3579 105.098 26.5289 105.003 26.7188C104.547 27.5928 103.787 28.4477 102.875 29.0746C102.135 29.6066 101.318 29.9486 100.672 30.1765L101.755 33.5012C102.553 33.3302 104.186 32.6843 105.592 31.3734C107.378 29.7016 109.031 27.1178 110.722 23.6031L115.509 13.3441H111.425Z" fill="#162E5F"/>
<path d="M14.9895 12.0337L13.7546 15.6814C13.7546 15.6814 12.6717 15.1115 11.3608 15.1115C9.42299 15.1115 9.328 16.3274 9.328 16.6313C9.328 18.3032 13.6786 18.9301 13.6786 22.8438C13.6786 25.9215 11.7218 27.8973 9.10002 27.8973C5.9463 27.8973 4.33145 25.9405 4.33145 25.9405L5.16738 23.1477C5.16738 23.1477 6.82023 24.5726 8.2261 24.5726C9.13801 24.5726 9.51798 23.8507 9.51798 23.3187C9.51798 21.1339 5.9463 21.0389 5.9463 17.4673C5.9463 14.4655 8.11211 11.5398 12.4627 11.5398C14.1726 11.5588 14.9895 12.0337 14.9895 12.0337Z" fill="white"/>
</svg>
