<svg width="82" height="40" viewBox="0 0 82 40" fill="none" xmlns="http://www.w3.org/2000/svg">
<rect width="82" height="40" rx="20" fill="#FBD49B"/>
<path d="M27.3391 12.6381L28.2232 13.1052L27.3391 12.6381ZM28.6984 11.327L29.1393 12.2245L28.6984 11.327ZM28.6984 28.673L29.1393 27.7755L29.1393 27.7755L28.6984 28.673ZM27.3391 27.362L26.4549 27.8292L26.4549 27.8292L27.3391 27.362ZM54.6612 27.362L53.7771 26.8949L54.6612 27.362ZM53.301 28.673L52.86 27.7755L52.86 27.7755L53.301 28.673ZM54.6612 12.6381L53.7771 13.1052L53.7771 13.1052L54.6612 12.6381ZM53.301 11.327L53.742 10.4295L53.742 10.4295L53.301 11.327ZM40 29C40 29.5523 40.4477 30 41 30C41.5523 30 42 29.5523 42 29H40ZM30.6667 29C30.6667 29.5523 31.1144 30 31.6667 30C32.219 30 32.6667 29.5523 32.6667 29H30.6667ZM50.3333 24C50.8856 24 51.3333 23.5523 51.3333 23C51.3333 22.4477 50.8856 22 50.3333 22L50.3333 24ZM44.1111 22C43.5588 22 43.1111 22.4477 43.1111 23C43.1111 23.5523 43.5588 24 44.1111 24L44.1111 22ZM50.3333 19.5C50.8856 19.5 51.3333 19.0523 51.3333 18.5C51.3333 17.9477 50.8856 17.5 50.3333 17.5L50.3333 19.5ZM45.6667 17.5C45.1144 17.5 44.6667 17.9477 44.6667 18.5C44.6667 19.0523 45.1144 19.5 45.6667 19.5L45.6667 17.5ZM36.3333 20.5C35.1328 20.5 34.2222 19.5706 34.2222 18.5H32.2222C32.2222 20.7431 34.0974 22.5 36.3333 22.5V20.5ZM34.2222 18.5C34.2222 17.4294 35.1328 16.5 36.3333 16.5V14.5C34.0974 14.5 32.2222 16.2569 32.2222 18.5H34.2222ZM36.3333 16.5C37.5339 16.5 38.4444 17.4294 38.4444 18.5H40.4444C40.4444 16.2569 38.5692 14.5 36.3333 14.5V16.5ZM38.4444 18.5C38.4444 19.5706 37.5339 20.5 36.3333 20.5V22.5C38.5692 22.5 40.4444 20.7431 40.4444 18.5H38.4444ZM54 15.7999V24.1999H56V15.7999H54ZM50.0225 28H31.9781V30H50.0225V28ZM28 24.1999V15.7999H26V24.1999H28ZM31.9781 12H50.0225V10H31.9781V12ZM28 15.7999C28 14.9427 28.0008 14.3622 28.0388 13.914C28.0757 13.4786 28.1423 13.2585 28.2232 13.1052L26.4549 12.1709C26.1968 12.6594 26.0938 13.1801 26.046 13.7452C25.9992 14.2974 26 14.977 26 15.7999H28ZM31.9781 10C31.1228 10 30.4232 9.99928 29.8559 10.044C29.278 10.0895 28.7514 10.1867 28.2574 10.4295L29.1393 12.2245C29.3108 12.1402 29.5529 12.074 30.0129 12.0378C30.4835 12.0007 31.091 12 31.9781 12V10ZM28.2232 13.1052C28.4208 12.7314 28.7392 12.4211 29.1393 12.2245L28.2574 10.4295C27.4867 10.8081 26.8539 11.4157 26.4549 12.1709L28.2232 13.1052ZM31.9781 28C31.091 28 30.4835 27.9993 30.0129 27.9622C29.5529 27.926 29.3108 27.8597 29.1393 27.7755L28.2574 29.5705C28.7514 29.8132 29.2779 29.9105 29.8558 29.956C30.4232 30.0007 31.1228 30 31.9781 30V28ZM26 24.1999C26 25.0229 25.9992 25.7025 26.046 26.2548C26.0938 26.8199 26.1968 27.3407 26.4549 27.8292L28.2232 26.8949C28.1423 26.7416 28.0757 26.5215 28.0388 26.086C28.0008 25.6377 28 25.0571 28 24.1999H26ZM29.1393 27.7755C28.7391 27.5788 28.4207 27.2686 28.2232 26.8949L26.4549 27.8292C26.854 28.5845 27.4868 29.1919 28.2574 29.5705L29.1393 27.7755ZM54 24.1999C54 25.0572 53.9992 25.6378 53.9613 26.0861C53.9245 26.5217 53.858 26.7417 53.7771 26.8949L55.5454 27.8292C55.8036 27.3406 55.9064 26.8197 55.9542 26.2547C56.0009 25.7024 56 25.0228 56 24.1999H54ZM50.0225 30C50.8778 30 51.5771 30.0007 52.1442 29.956C52.7219 29.9105 53.2481 29.8132 53.742 29.5705L52.86 27.7755C52.6884 27.8598 52.4465 27.926 51.987 27.9622C51.5168 27.9993 50.9096 28 50.0225 28V30ZM53.7771 26.8949C53.5799 27.2679 53.2609 27.5785 52.86 27.7755L53.742 29.5705C54.5119 29.1922 55.146 28.5851 55.5454 27.8292L53.7771 26.8949ZM56 15.7999C56 14.9771 56.0009 14.2975 55.9542 13.7453C55.9064 13.1803 55.8036 12.6595 55.5454 12.1709L53.7771 13.1052C53.858 13.2584 53.9245 13.4784 53.9613 13.9139C53.9992 14.3621 54 14.9426 54 15.7999H56ZM50.0225 12C50.9096 12 51.5168 12.0007 51.987 12.0378C52.4465 12.074 52.6884 12.1402 52.86 12.2245L53.742 10.4295C53.2481 10.1868 52.7219 10.0895 52.1442 10.044C51.5771 9.99928 50.8778 10 50.0225 10V12ZM55.5454 12.1709C55.146 11.4151 54.512 10.8078 53.742 10.4295L52.86 12.2245C53.2608 12.4214 53.5799 12.7321 53.7771 13.1052L55.5454 12.1709ZM42 29C42 27.716 41.1918 26.6919 40.1739 26.0375C39.1453 25.3763 37.7847 25 36.3333 25V27C37.4593 27 38.432 27.2953 39.0924 27.7199C39.7635 28.1513 40 28.6272 40 29H42ZM36.3333 25C34.8819 25 33.5213 25.3763 32.4927 26.0375C31.4749 26.6919 30.6667 27.716 30.6667 29H32.6667C32.6667 28.6272 32.9031 28.1513 33.5743 27.7199C34.2347 27.2953 35.2074 27 36.3333 27V25ZM50.3333 22L44.1111 22L44.1111 24L50.3333 24L50.3333 22ZM50.3333 17.5L45.6667 17.5L45.6667 19.5L50.3333 19.5L50.3333 17.5Z" fill="#1D1D1D"/>
</svg>
