<svg width="1090" height="1089" viewBox="0 0 1090 1089" fill="none" xmlns="http://www.w3.org/2000/svg">
<path d="M332.799 67.08H352.319V73H325.519V17.24H332.799V67.08ZM400.051 49.4C400.051 50.7867 399.971 52.2533 399.811 53.8H364.771C365.037 58.12 366.504 61.5067 369.171 63.96C371.891 66.36 375.171 67.56 379.011 67.56C382.157 67.56 384.771 66.84 386.851 65.4C388.984 63.9067 390.477 61.9333 391.331 59.48H399.171C397.997 63.6933 395.651 67.1333 392.131 69.8C388.611 72.4133 384.237 73.72 379.011 73.72C374.851 73.72 371.117 72.7867 367.811 70.92C364.557 69.0533 361.997 66.4133 360.131 63C358.264 59.5333 357.331 55.5333 357.331 51C357.331 46.4667 358.237 42.4933 360.051 39.08C361.864 35.6667 364.397 33.0533 367.651 31.24C370.957 29.3733 374.744 28.44 379.011 28.44C383.171 28.44 386.851 29.3467 390.051 31.16C393.251 32.9733 395.704 35.48 397.411 38.68C399.171 41.8267 400.051 45.4 400.051 49.4ZM392.531 47.88C392.531 45.1067 391.917 42.7333 390.691 40.76C389.464 38.7333 387.784 37.2133 385.651 36.2C383.571 35.1333 381.251 34.6 378.691 34.6C375.011 34.6 371.864 35.7733 369.251 38.12C366.691 40.4667 365.224 43.72 364.851 47.88H392.531ZM418.54 35.16V61C418.54 63.1333 418.993 64.6533 419.9 65.56C420.807 66.4133 422.38 66.84 424.62 66.84H429.98V73H423.42C419.367 73 416.327 72.0667 414.3 70.2C412.273 68.3333 411.26 65.2667 411.26 61V35.16H405.58V29.16H411.26V18.12H418.54V29.16H429.98V35.16H418.54ZM439.921 17.24H448.001L440.321 35.4H435.201L439.921 17.24ZM471.821 73.72C468.461 73.72 465.447 73.16 462.781 72.04C460.114 70.8667 458.007 69.2667 456.461 67.24C454.914 65.16 454.061 62.7867 453.901 60.12H461.421C461.634 62.3067 462.647 64.0933 464.461 65.48C466.327 66.8667 468.754 67.56 471.741 67.56C474.514 67.56 476.701 66.9467 478.301 65.72C479.901 64.4933 480.701 62.9467 480.701 61.08C480.701 59.16 479.847 57.7467 478.141 56.84C476.434 55.88 473.794 54.9467 470.221 54.04C466.967 53.1867 464.301 52.3333 462.221 51.48C460.194 50.5733 458.434 49.2667 456.941 47.56C455.501 45.8 454.781 43.5067 454.781 40.68C454.781 38.44 455.447 36.3867 456.781 34.52C458.114 32.6533 460.007 31.1867 462.461 30.12C464.914 29 467.714 28.44 470.861 28.44C475.714 28.44 479.634 29.6667 482.621 32.12C485.607 34.5733 487.207 37.9333 487.421 42.2H480.141C479.981 39.9067 479.047 38.0667 477.341 36.68C475.687 35.2933 473.447 34.6 470.621 34.6C468.007 34.6 465.927 35.16 464.381 36.28C462.834 37.4 462.061 38.8667 462.061 40.68C462.061 42.12 462.514 43.32 463.421 44.28C464.381 45.1867 465.554 45.9333 466.941 46.52C468.381 47.0533 470.354 47.6667 472.861 48.36C476.007 49.2133 478.567 50.0667 480.541 50.92C482.514 51.72 484.194 52.9467 485.581 54.6C487.021 56.2533 487.767 58.4133 487.821 61.08C487.821 63.48 487.154 65.64 485.821 67.56C484.487 69.48 482.594 71 480.141 72.12C477.741 73.1867 474.967 73.72 471.821 73.72ZM572.146 28.36C575.559 28.36 578.599 29.08 581.266 30.52C583.932 31.9067 586.039 34.0133 587.586 36.84C589.132 39.6667 589.906 43.1067 589.906 47.16V73H582.706V48.2C582.706 43.8267 581.612 40.4933 579.426 38.2C577.292 35.8533 574.386 34.68 570.706 34.68C566.919 34.68 563.906 35.9067 561.666 38.36C559.426 40.76 558.306 44.2533 558.306 48.84V73H551.106V48.2C551.106 43.8267 550.012 40.4933 547.826 38.2C545.692 35.8533 542.786 34.68 539.106 34.68C535.319 34.68 532.306 35.9067 530.066 38.36C527.826 40.76 526.706 44.2533 526.706 48.84V73H519.426V29.16H526.706V35.48C528.146 33.1867 530.066 31.4267 532.466 30.2C534.919 28.9733 537.612 28.36 540.546 28.36C544.226 28.36 547.479 29.1867 550.306 30.84C553.132 32.4933 555.239 34.92 556.626 38.12C557.852 35.0267 559.879 32.6267 562.706 30.92C565.532 29.2133 568.679 28.36 572.146 28.36ZM641.848 49.4C641.848 50.7867 641.768 52.2533 641.608 53.8H606.568C606.834 58.12 608.301 61.5067 610.968 63.96C613.688 66.36 616.968 67.56 620.808 67.56C623.954 67.56 626.568 66.84 628.648 65.4C630.781 63.9067 632.274 61.9333 633.128 59.48H640.968C639.794 63.6933 637.448 67.1333 633.928 69.8C630.408 72.4133 626.034 73.72 620.808 73.72C616.648 73.72 612.914 72.7867 609.608 70.92C606.354 69.0533 603.794 66.4133 601.928 63C600.061 59.5333 599.128 55.5333 599.128 51C599.128 46.4667 600.034 42.4933 601.848 39.08C603.661 35.6667 606.194 33.0533 609.448 31.24C612.754 29.3733 616.541 28.44 620.808 28.44C624.968 28.44 628.648 29.3467 631.848 31.16C635.048 32.9733 637.501 35.48 639.208 38.68C640.968 41.8267 641.848 45.4 641.848 49.4ZM634.328 47.88C634.328 45.1067 633.714 42.7333 632.488 40.76C631.261 38.7333 629.581 37.2133 627.448 36.2C625.368 35.1333 623.048 34.6 620.488 34.6C616.808 34.6 613.661 35.7733 611.048 38.12C608.488 40.4667 607.021 43.72 606.648 47.88H634.328ZM691.457 49.4C691.457 50.7867 691.377 52.2533 691.217 53.8H656.177C656.444 58.12 657.91 61.5067 660.577 63.96C663.297 66.36 666.577 67.56 670.417 67.56C673.564 67.56 676.177 66.84 678.257 65.4C680.39 63.9067 681.884 61.9333 682.737 59.48H690.577C689.404 63.6933 687.057 67.1333 683.537 69.8C680.017 72.4133 675.644 73.72 670.417 73.72C666.257 73.72 662.524 72.7867 659.217 70.92C655.964 69.0533 653.404 66.4133 651.537 63C649.67 59.5333 648.737 55.5333 648.737 51C648.737 46.4667 649.644 42.4933 651.457 39.08C653.27 35.6667 655.804 33.0533 659.057 31.24C662.364 29.3733 666.15 28.44 670.417 28.44C674.577 28.44 678.257 29.3467 681.457 31.16C684.657 32.9733 687.11 35.48 688.817 38.68C690.577 41.8267 691.457 45.4 691.457 49.4ZM683.937 47.88C683.937 45.1067 683.324 42.7333 682.097 40.76C680.87 38.7333 679.19 37.2133 677.057 36.2C674.977 35.1333 672.657 34.6 670.097 34.6C666.417 34.6 663.27 35.7733 660.657 38.12C658.097 40.4667 656.63 43.72 656.257 47.88H683.937ZM709.946 35.16V61C709.946 63.1333 710.4 64.6533 711.306 65.56C712.213 66.4133 713.786 66.84 716.026 66.84H721.386V73H714.826C710.773 73 707.733 72.0667 705.706 70.2C703.68 68.3333 702.666 65.2667 702.666 61V35.16H696.986V29.16H702.666V18.12H709.946V29.16H721.386V35.16H709.946ZM809.935 29.16L796.255 73H788.735L778.175 38.2L767.615 73H760.095L746.335 29.16H753.775L763.855 65.96L774.735 29.16H782.175L792.815 66.04L802.735 29.16H809.935ZM820.92 22.04C819.533 22.04 818.36 21.56 817.4 20.6C816.44 19.64 815.96 18.4667 815.96 17.08C815.96 15.6933 816.44 14.52 817.4 13.56C818.36 12.6 819.533 12.12 820.92 12.12C822.253 12.12 823.373 12.6 824.28 13.56C825.24 14.52 825.72 15.6933 825.72 17.08C825.72 18.4667 825.24 19.64 824.28 20.6C823.373 21.56 822.253 22.04 820.92 22.04ZM824.44 29.16V73H817.16V29.16H824.44ZM845.728 35.16V61C845.728 63.1333 846.181 64.6533 847.088 65.56C847.994 66.4133 849.568 66.84 851.807 66.84H857.168V73H850.608C846.554 73 843.514 72.0667 841.488 70.2C839.461 68.3333 838.448 65.2667 838.448 61V35.16H832.768V29.16H838.448V18.12H845.728V29.16H857.168V35.16H845.728ZM887.748 28.36C891.055 28.36 894.041 29.08 896.708 30.52C899.375 31.9067 901.455 34.0133 902.948 36.84C904.495 39.6667 905.268 43.1067 905.268 47.16V73H898.068V48.2C898.068 43.8267 896.975 40.4933 894.788 38.2C892.601 35.8533 889.615 34.68 885.828 34.68C881.988 34.68 878.921 35.88 876.628 38.28C874.388 40.68 873.268 44.1733 873.268 48.76V73H865.988V13.8H873.268V35.4C874.708 33.16 876.681 31.4267 879.188 30.2C881.748 28.9733 884.601 28.36 887.748 28.36Z" fill="#1D1D1D"/>
<path d="M384.874 131.96V117.88H392.314C397.754 117.88 400.074 120.6 400.074 124.92C400.074 129.24 397.754 131.96 392.314 131.96H384.874ZM413.994 124.92C413.994 114.6 407.114 106.84 393.354 106.84H371.194V163H384.874V142.84H393.354C407.674 142.84 413.994 134.2 413.994 124.92ZM434.796 142.28C434.796 134.6 438.556 132.36 445.036 132.36H448.796V117.88C442.796 117.88 437.916 121.08 434.796 125.8V118.36H421.116V163H434.796V142.28ZM499.015 140.68C499.015 126.52 488.935 117.72 475.815 117.72C462.775 117.72 452.615 126.52 452.615 140.68C452.615 154.84 462.535 163.64 475.655 163.64C488.775 163.64 499.015 154.84 499.015 140.68ZM466.535 140.68C466.535 133.08 470.855 129.56 475.815 129.56C480.615 129.56 485.095 133.08 485.095 140.68C485.095 148.2 480.535 151.8 475.655 151.8C470.695 151.8 466.535 148.2 466.535 140.68ZM507.633 163H521.312V129.72H528.673V118.36H521.312V117.96C521.312 113.24 523.153 111.64 528.433 111.96V100.36C514.833 99.64 507.633 105.4 507.633 117.08V118.36H502.673V129.72H507.633V163ZM535.101 163H548.781V118.36H535.101V163ZM541.981 113.72C546.781 113.72 550.061 110.44 550.061 106.36C550.061 102.2 546.781 98.92 541.981 98.92C537.101 98.92 533.821 102.2 533.821 106.36C533.821 110.44 537.101 113.72 541.981 113.72ZM558.694 163H572.374V103.8H558.694V163ZM601.968 128.68C606.528 128.68 610.368 131.48 610.368 136.36H593.248C594.048 131.4 597.488 128.68 601.968 128.68ZM623.328 148.2H608.768C607.648 150.6 605.488 152.52 601.648 152.52C597.248 152.52 593.648 149.8 593.168 143.96H624.128C624.288 142.6 624.368 141.24 624.368 139.96C624.368 126.36 615.168 117.72 602.128 117.72C588.848 117.72 579.568 126.52 579.568 140.68C579.568 154.84 589.008 163.64 602.128 163.64C613.248 163.64 621.168 156.92 623.328 148.2ZM659.818 163H676.378L685.658 126.04L694.618 163H711.178L725.818 106.84H711.098L702.938 147.72L693.338 106.84H678.298L668.298 147.72L660.218 106.84H645.578L659.818 163ZM729.959 140.6C729.959 154.68 738.679 163.64 749.559 163.64C756.199 163.64 760.919 160.6 763.399 156.68V163H777.079V118.36H763.399V124.68C760.999 120.76 756.279 117.72 749.639 117.72C738.679 117.72 729.959 126.52 729.959 140.6ZM763.399 140.68C763.399 147.8 758.839 151.72 753.639 151.72C748.519 151.72 743.879 147.72 743.879 140.6C743.879 133.48 748.519 129.64 753.639 129.64C758.839 129.64 763.399 133.56 763.399 140.68ZM786.976 163H800.656V103.8H786.976V163ZM810.569 163H824.249V103.8H810.569V163ZM853.843 128.68C858.403 128.68 862.243 131.48 862.243 136.36H845.123C845.923 131.4 849.363 128.68 853.843 128.68ZM875.203 148.2H860.643C859.523 150.6 857.363 152.52 853.523 152.52C849.123 152.52 845.523 149.8 845.043 143.96H876.003C876.163 142.6 876.243 141.24 876.243 139.96C876.243 126.36 867.043 117.72 854.003 117.72C840.723 117.72 831.443 126.52 831.443 140.68C831.443 154.84 840.883 163.64 854.003 163.64C865.123 163.64 873.043 156.92 875.203 148.2ZM885.62 147.48C885.62 159.08 892.1 163 901.38 163H908.34V151.4H903.46C900.42 151.4 899.3 150.28 899.3 147.64V129.72H908.26V118.36H899.3V107.48H885.62V118.36H880.18V129.72H885.62V147.48Z" fill="#162E5F"/>
<g clip-path="url(#clip0_122_94)">
<path d="M941.187 1054.23H187.888C186.508 1054.23 185.389 1055.35 185.389 1056.72C185.389 1058.09 186.508 1059.21 187.888 1059.21H941.187C942.567 1059.21 943.685 1058.09 943.685 1056.72C943.685 1055.35 942.567 1054.23 941.187 1054.23Z" fill="black"/>
<path d="M209.486 980.739C112.366 950.521 -19.0968 799.288 34.329 651.851C64.7029 567.98 160.123 561.718 235.136 547.771C339.343 528.417 386.25 466.842 455.311 391.036C532.45 306.359 707.608 207.403 862.595 339.233C904.305 374.717 910.966 443.407 964.817 491.557C1018.95 540.039 1089.57 540.229 1121.36 636.196C1146.12 710.959 1039.55 866.508 967.321 912.855C833.732 998.576 428.48 1048.91 209.534 980.739H209.486Z" fill="#F3FAFF"/>
<path d="M1029.63 655.788C1029.63 656.357 1029.63 656.879 1029.63 657.448C1028.07 725.238 1018.43 777.657 1004.54 818.121L968.69 837.998L997.505 835.057L998.308 834.962C980.453 879.317 957.495 907.4 936.285 925.094C923.106 936.148 910.541 943.168 900.338 947.628C899.676 947.912 899.015 948.197 898.354 948.481C896.7 949.193 895.141 949.762 893.63 950.332H874.451C874.215 949.43 874.026 948.529 873.837 947.628C873.695 947.058 873.601 946.489 873.459 945.92C873.27 945.161 873.129 944.402 872.987 943.69C854.942 855.123 887.064 786.907 926.791 739.184C926.885 739.042 927.027 738.852 927.169 738.71C941.009 722.154 955.747 708.065 969.635 696.443L976.957 718.501L979.744 688.331C1003.84 669.545 1023.63 658.872 1028.49 656.405C1029.25 656.025 1029.63 655.835 1029.63 655.835V655.788Z" fill="#1D1D1D"/>
<path d="M1030.29 656.12L1029.58 657.448L986.074 737.903L985.271 739.327L973.414 761.243L972.989 761.955L935.152 831.878L935.105 831.973L873.412 945.92L872.515 947.627L871.05 950.331H869.35L870.814 947.627L872.94 943.69L933.829 831.262L934.963 829.174L1028.49 656.357L1029.01 655.408L1030.29 656.12Z" fill="white"/>
<path d="M1023.18 730.603L972.774 761.671L973.441 762.763L1023.85 731.695L1023.18 730.603Z" fill="white"/>
<path d="M1024.37 714.323L984.864 738.652L985.531 739.744L1025.03 715.415L1024.37 714.323Z" fill="white"/>
<path d="M928.013 738.693L926.741 738.791L933.875 832.112L935.147 832.014L928.013 738.693Z" fill="white"/>
<path d="M865.949 964.942C865.949 964.942 910.116 988.804 976.532 953.605L956.172 942.552L990.184 945.73C1016.26 929.364 1045.26 903.89 1076.01 864.895L1068.22 860.673L1078.52 861.622C1083.71 854.933 1088.96 847.865 1094.25 840.417C1094.25 840.417 1075.4 837.761 1048.19 839.469L1033.31 857.637L1038.18 840.322C982.437 845.825 900.385 870.73 865.901 964.99L865.949 964.942Z" fill="black"/>
<path d="M1093.95 839.764L862.386 959.841L863.058 961.147L1094.62 841.071L1093.95 839.764Z" fill="white"/>
<path d="M1034.07 871.478L1033.86 872.838L1065.88 877.861L1066.09 876.502L1034.07 871.478Z" fill="white"/>
<path d="M1018.27 879.468L1017.96 880.808L1055.14 889.496L1055.45 888.156L1018.27 879.468Z" fill="white"/>
<path d="M923.201 884.772L922.114 883.444C941.859 867.599 965.478 855.692 992.404 848.007L992.876 849.668C966.187 857.258 942.757 869.07 923.201 884.772Z" fill="#2E4882"/>
<path d="M896.322 440.324H610.582C602.468 440.324 595.891 446.929 595.891 455.077V1038.85C595.891 1047 602.468 1053.6 610.582 1053.6H896.322C904.436 1053.6 911.013 1047 911.013 1038.85V455.077C911.013 446.929 904.436 440.324 896.322 440.324Z" fill="#27AC75"/>
<path d="M882.718 440.324H596.977C588.864 440.324 582.286 446.929 582.286 455.077V1038.85C582.286 1047 588.864 1053.6 596.977 1053.6H882.718C890.832 1053.6 897.409 1047 897.409 1038.85V455.077C897.409 446.929 890.832 440.324 882.718 440.324Z" fill="url(#paint0_linear_122_94)"/>
<path d="M875.774 515.608V978.32C875.774 987.76 868.641 995.397 859.855 995.397H619.793C611.007 995.397 603.874 987.76 603.874 978.32V515.608C603.874 506.168 611.007 498.53 619.793 498.53H859.855C868.641 498.53 875.774 506.168 875.774 515.608Z" fill="#E1EAFF"/>
<path d="M779.551 468.455H700.144C699.341 468.455 698.727 467.838 698.727 467.032C698.727 466.225 699.341 465.608 700.144 465.608H779.551C780.354 465.608 780.968 466.225 780.968 467.032C780.968 467.838 780.354 468.455 779.551 468.455Z" fill="#1D1D1D"/>
<path d="M669.487 803.842H810.208C818.947 803.842 826.033 810.958 826.033 819.734V825.806C826.033 834.582 818.947 841.698 810.208 841.698H669.487C660.748 841.698 653.662 834.582 653.662 825.806V819.734C653.662 810.958 660.748 803.842 669.487 803.842Z" fill="url(#paint1_linear_122_94)"/>
<path d="M862.973 998.766H616.77C605.905 998.766 597.072 989.563 597.072 978.272V515.608C597.072 504.318 605.905 495.115 616.77 495.115H862.973C873.837 495.115 882.671 504.318 882.671 515.608V978.32C882.671 989.61 873.837 998.813 862.973 998.813V998.766ZM616.77 501.993C609.637 501.993 603.874 508.113 603.874 515.655V978.367C603.874 985.91 609.684 992.029 616.77 992.029H862.973C870.105 992.029 875.868 985.91 875.868 978.367V515.608C875.868 508.065 870.058 501.946 862.973 501.946H616.77V501.993Z" fill="white"/>
<path d="M626.17 743.833H853.714C858.41 743.833 862.217 740.01 862.217 735.294V588.236C862.217 583.52 858.41 579.697 853.714 579.697H626.17C621.474 579.697 617.667 583.52 617.667 588.236V735.294C617.667 740.01 621.474 743.833 626.17 743.833Z" fill="#27AC75"/>
<path d="M841.196 704.602H787.251C785.711 704.602 784.464 705.855 784.464 707.401V714.327C784.464 715.872 785.711 717.126 787.251 717.126H841.196C842.735 717.126 843.983 715.872 843.983 714.327V707.401C843.983 705.855 842.735 704.602 841.196 704.602Z" fill="white"/>
<path d="M646.388 628.179V611.718C646.388 608.113 649.316 605.171 652.907 605.171H684.745C688.335 605.171 691.263 608.113 691.263 611.718V628.179C691.263 631.784 688.335 634.725 684.745 634.725H652.907C649.316 634.725 646.388 631.784 646.388 628.179ZM652.907 606.927C650.308 606.927 648.136 609.061 648.136 611.718V628.179C648.136 630.835 650.261 632.97 652.907 632.97H684.745C687.343 632.97 689.516 630.835 689.516 628.179V611.718C689.516 609.061 687.39 606.927 684.745 606.927H652.907Z" fill="white"/>
<path d="M836.378 617.648C836.378 617.648 836.472 617.221 836.614 617.078C843.794 609.868 843.794 598.198 836.614 590.987C836.283 590.655 836.283 590.181 836.614 589.849C836.945 589.517 837.417 589.517 837.748 589.849C845.542 597.676 845.542 610.39 837.748 618.169C837.417 618.502 836.945 618.502 836.614 618.169C836.472 618.027 836.378 617.79 836.378 617.6V617.648Z" fill="white"/>
<path d="M832.457 594.972C832.457 594.972 832.551 594.545 832.693 594.403C833.024 594.071 833.496 594.071 833.827 594.403C839.117 599.716 839.117 608.35 833.827 613.663C833.496 613.995 833.024 613.995 832.693 613.663C832.362 613.331 832.362 612.856 832.693 612.524C837.37 607.828 837.37 600.19 832.693 595.494C832.551 595.352 832.457 595.114 832.457 594.925V594.972Z" fill="white"/>
<path d="M828.678 608.919C828.678 608.919 828.772 608.492 828.914 608.35C831.276 605.978 831.276 602.135 828.914 599.764C828.584 599.431 828.584 598.957 828.914 598.625C829.245 598.293 829.717 598.293 830.048 598.625C833.024 601.614 833.024 606.5 830.048 609.488C829.717 609.82 829.245 609.82 828.914 609.488C828.772 609.346 828.678 609.109 828.678 608.919Z" fill="white"/>
<path d="M898.684 923.339H896.133V455.077C896.133 447.629 890.134 441.605 882.718 441.605H596.977C589.561 441.605 583.562 447.677 583.562 455.077V856.167H581.011V455.077C581.011 446.206 588.191 439.043 596.977 439.043H882.718C891.551 439.043 898.684 446.254 898.684 455.077V923.339Z" fill="black"/>
<path d="M629.855 1054.88H596.977C588.144 1054.88 581.011 1047.67 581.011 1038.85V971.346H583.562V1038.85C583.562 1046.3 589.561 1052.32 596.977 1052.32H629.855V1054.88Z" fill="black"/>
<path d="M760.231 1052.32H729.81V1054.88H760.231V1052.32Z" fill="black"/>
<path d="M863.067 619.925H861.367V587.382C861.367 583.16 857.918 579.697 853.714 579.697H708.789V577.989H853.714C858.863 577.989 863.067 582.211 863.067 587.382V619.925Z" fill="#2E4882"/>
<path d="M863.067 637.002H861.366V655.835H863.067V637.002Z" fill="#2E4882"/>
<path d="M690.083 577.942H660.559V579.65H690.083V577.942Z" fill="#2E4882"/>
<path d="M432.921 568.976L439.345 541.225L465.656 530.219L470.333 568.929C470.333 568.929 466.412 594.071 442.226 603.084C418.041 612.097 432.873 568.929 432.873 568.929L432.921 568.976Z" fill="#FCB47E"/>
<path d="M422.576 496.016C422.576 496.016 413.222 548.151 428.433 548.53C443.644 548.91 456.162 543.027 459.279 539.517C462.397 536.006 464.759 518.739 464.759 518.739C464.759 518.739 466.696 496.396 457.342 492.079C447.989 487.762 427.677 480.314 422.623 496.016H422.576Z" fill="#FCB47E"/>
<path d="M472.695 529.223C469.719 534.773 466.743 540.181 466.743 540.181C462.302 539.469 457.39 533.919 456.492 529.081C456.492 529.081 442.51 527.752 441.99 510.39C441.99 510.39 417.71 510.532 417.096 489.375C416.482 468.217 440.809 473.673 448.84 480.124C456.87 486.576 461.783 489.897 474.301 493.929C487.48 498.198 476.474 522.107 472.648 529.223H472.695Z" fill="#1D1D1D"/>
<path d="M461.31 1032.78L458.335 1001.94H425.929L432.968 1031.88C432.968 1031.88 436.747 1041.89 447.612 1041.55C458.098 1041.18 461.31 1032.78 461.31 1032.78Z" fill="#FCB47E"/>
<path d="M620.974 936.384L596.08 918.121L574.539 942.457L606.472 958.728C606.472 958.728 610.44 959.534 618.423 952.514C626.312 945.588 621.021 936.384 621.021 936.384H620.974Z" fill="#FCB47E"/>
<path d="M488.614 1011.57C469.861 1018.69 445.864 1016.74 420.025 1011.57C419.269 1009.77 418.513 1007.97 417.805 1006.12C368.536 881.072 403.444 699.479 403.444 699.479H480.914L479.166 759.488C475.765 775.332 473.451 791.414 471.939 807.353C462.114 912.049 488.661 1011.57 488.661 1011.57H488.614Z" fill="#1D1D1D"/>
<path d="M488.567 1011.53C487.338 1009.06 443.218 919.07 456.351 817.457L470.333 828.748C465.609 923.861 487.905 1009.11 488.519 1011.48L488.567 1011.53Z" fill="black"/>
<path d="M613.794 903.842C606.661 923.908 599.103 939.468 590.883 948.529C587.057 952.751 583.089 955.597 578.932 956.83C567.076 950.711 556.164 944.069 546.244 937.049C544.874 936.1 543.551 935.151 542.229 934.155C540.481 932.874 538.733 931.546 537.032 930.217C536.229 929.601 535.474 929.032 534.718 928.415C533.206 927.229 531.695 925.996 530.23 924.762C528.908 923.671 527.632 922.58 526.357 921.441C519.649 915.654 513.508 909.629 507.84 903.51C507.273 902.941 506.753 902.324 506.234 901.755C505.856 901.328 505.43 900.901 505.053 900.474C426.921 813.235 441.282 699.431 441.282 699.431H509.257C515.067 808.539 613.841 903.794 613.841 903.794L613.794 903.842Z" fill="#1D1D1D"/>
<path d="M524.467 463.236C518.657 458.967 514.642 456.643 513.65 455.931C512.422 455.03 512.138 452.847 510.674 450.618C507.367 445.495 500.47 436.481 493.338 433.967C492.44 433.635 491.732 434.631 492.723 435.675C494.471 437.62 497.778 440.371 497.258 440.846C496.172 441.747 488.425 432.449 486.252 434.584C484.599 436.244 495.794 444.546 495.369 445.068C494.519 446.111 486.063 436.576 484.032 438.758C482.095 440.798 492.204 446.159 491.779 447.06C491.306 448.009 484.315 442.174 482.945 443.502C480.867 445.495 493.479 453.369 493.149 454.555C492.676 456.453 486.157 452.515 485.213 454.745C484.268 456.832 493.385 460.77 495.133 461.624C499.148 463.616 502.029 462.762 505.241 467.743C506.989 470.494 508.737 473.198 510.438 475.997L524.562 463.284L524.467 463.236Z" fill="#FCB47E"/>
<path d="M364.426 469.498C369.764 464.659 373.496 461.861 374.393 461.102C375.527 460.105 375.574 457.876 376.755 455.504C379.495 450.049 385.4 440.324 392.249 437.098C393.147 436.671 393.95 437.572 393.052 438.711C391.54 440.798 388.517 443.929 389.084 444.356C390.265 445.162 396.973 435.058 399.335 436.956C401.13 438.426 390.879 447.866 391.399 448.341C392.391 449.29 399.713 438.901 401.98 440.846C404.153 442.648 394.658 449.052 395.178 449.906C395.745 450.76 402.074 444.214 403.586 445.4C405.901 447.155 394.186 456.358 394.611 457.449C395.272 459.299 401.319 454.65 402.547 456.785C403.728 458.777 395.036 463.663 393.43 464.707C389.651 467.126 386.675 466.557 384.03 471.918C382.565 474.859 381.148 477.752 379.731 480.646L364.332 469.546L364.426 469.498Z" fill="#FCB47E"/>
<path d="M509.918 708.397C503.872 712.287 493.243 718.548 480.158 724.004C468.443 728.843 454.697 733.065 440.526 734.298C426.732 735.531 412.467 733.918 399.051 727.467C399.901 721.11 400.705 715.655 401.413 711.338C413.695 717.884 427.016 720.636 440.242 721.015C454.178 721.442 468.018 719.165 480.395 715.939C491.732 712.998 501.84 709.203 509.682 705.788C509.729 706.641 509.824 707.543 509.918 708.397Z" fill="black"/>
<path d="M386.297 700.095V614.232C386.297 614.232 309.489 601.139 324.557 526.424C334.147 478.938 367.874 462.003 367.874 462.003L386.58 477.088C386.58 477.088 346.806 538.141 399.146 559.346C399.146 559.346 428.622 558.445 436.275 566.746C436.275 566.746 453.138 580.314 470.947 557.828C470.947 557.828 489.039 550.76 504.486 554.887C517.193 558.302 533.537 526.709 503.163 473.056L522.2 455.789C522.2 455.789 633.586 563.331 524.326 616.651L518.232 702.419C518.232 702.419 433.676 750.569 386.25 700.048L386.297 700.095Z" fill="url(#paint2_linear_122_94)"/>
<path d="M459.185 526.139C459.185 529.508 456.492 532.212 453.138 532.212C449.784 532.212 447.092 529.508 447.092 526.139C447.092 522.771 449.784 520.067 453.138 520.067C456.492 520.067 459.185 522.771 459.185 526.139Z" fill="#FCB47E"/>
<path d="M469.672 850.047C455.406 822.201 446.053 791.271 441.896 758.017L443.218 757.827C447.375 790.892 456.634 821.679 470.852 849.383L469.672 850V850.047Z" fill="white"/>
<path d="M506.186 751.755C484.693 751.755 477.796 732.97 477.749 732.78L479.025 732.306C479.025 732.306 485.827 750.901 507.226 750.332V751.708C506.895 751.708 506.564 751.708 506.234 751.708L506.186 751.755Z" fill="white"/>
<path d="M447.045 577.989C446.62 577.989 446.242 577.989 445.817 577.942C436.133 577.041 431.267 565.703 431.078 565.228L432.307 564.707C432.307 564.707 437.078 575.76 445.958 576.614C453.422 577.325 461.641 570.874 470.427 557.543L471.561 558.302C462.917 571.395 454.697 578.037 447.045 578.037V577.989Z" fill="#1D1D1D"/>
<path d="M386.297 614.279C386.297 614.279 309.441 601.187 324.557 526.471C325.36 522.392 326.4 518.502 327.533 514.849C327.722 514.659 327.911 514.422 328.1 514.232C326.825 531.12 326.211 545.874 333.674 561.86C349.215 595.257 387.384 614.185 386.297 614.279Z" fill="#27AC75"/>
<path d="M524.373 616.699L518.279 702.467C518.279 702.467 500.707 712.477 477.088 718.596C481.15 715.465 498.345 689.09 501.226 675.759C506.375 651.851 507.037 638.093 507.698 612.572C533.112 605.93 562.116 583.445 572.083 545.921C574.35 571.538 563.533 597.581 524.373 616.699Z" fill="#27AC75"/>
<path d="M443.124 714.184C442.888 714.184 442.746 714.184 442.746 714.184V712.809C443.124 712.809 478.836 713.33 509.776 694.403L510.485 695.541C480.961 713.615 447.186 714.184 443.171 714.184H443.124Z" fill="#1D1D1D"/>
<path d="M590.883 948.529C587.057 952.751 583.089 955.597 578.932 956.83C567.076 950.711 556.164 944.069 546.244 937.049C544.874 936.1 543.551 935.151 542.229 934.155C540.481 932.874 538.733 931.546 537.033 930.218C536.229 929.601 535.474 929.032 534.718 928.415C533.206 927.229 531.695 925.996 530.23 924.762C528.908 923.671 527.632 922.58 526.357 921.442C519.649 915.654 513.508 909.629 507.84 903.51C507.273 902.941 506.753 902.324 506.234 901.755C505.856 901.328 505.431 900.901 505.053 900.474C551.534 939.041 581.247 946.916 590.836 948.529H590.883Z" fill="black"/>
<path d="M603.732 901.091C570.996 879.743 550.212 841.224 550.023 840.844L551.157 840.228C551.346 840.607 571.988 878.89 604.441 900L603.732 901.091Z" fill="white"/>
<path d="M465.42 1057.3H391.871C389.32 1057.3 387.242 1055.12 387.478 1052.56C387.478 1052.56 387.478 1052.51 387.478 1052.47C387.525 1051.9 387.62 1051.33 387.667 1050.76C387.903 1048.81 388.47 1046.82 389.367 1045.59C392.863 1040.94 399.618 1038.8 411.711 1034.01C419.269 1030.98 425.693 1026.99 428.527 1025.09C429.425 1024.48 430.653 1024.62 431.456 1025.38C446.005 1039.66 454.933 1036.62 457.626 1030.74C459.657 1026.23 462.539 1027.18 463.342 1028.51C465.798 1032.64 467.121 1044.69 467.688 1050.76C467.735 1051.42 467.829 1051.99 467.829 1052.47C467.924 1053.6 467.971 1054.27 467.971 1054.27C468.254 1055.83 467.026 1057.3 465.467 1057.3H465.42Z" fill="#1D1D1D"/>
<path d="M415.821 1041.79C410.577 1039.23 411.38 1033.82 411.38 1033.78L412.656 1033.96C412.656 1033.96 412.042 1038.52 416.387 1040.65L415.821 1041.79Z" fill="white"/>
<path d="M409.396 1043.93C404.578 1041.22 405.098 1036.48 405.145 1036.29L406.42 1036.43C406.42 1036.43 405.995 1040.51 410.058 1042.79L409.443 1043.88L409.396 1043.93Z" fill="white"/>
<path d="M450.918 1040.75C446.005 1040.75 441.565 1038.52 441.471 1038.47L442.038 1037.33C442.038 1037.33 453.327 1043.03 459.043 1035.86L460.035 1036.67C457.531 1039.8 454.083 1040.8 450.918 1040.8V1040.75Z" fill="white"/>
<path d="M458.807 1051.56H415.962V1052.85H458.807V1051.56Z" fill="white"/>
<path d="M410.483 1051.56H400.327V1052.85H410.483V1051.56Z" fill="white"/>
<path d="M642.939 940.844L606.991 1005.31C605.763 1007.54 602.835 1008.3 600.709 1006.88C600.709 1006.88 600.709 1006.88 600.662 1006.88C600.189 1006.55 599.717 1006.21 599.244 1005.83C597.686 1004.65 596.221 1003.22 595.607 1001.8C593.293 996.489 594.757 989.515 596.457 976.565C597.544 968.453 597.166 960.863 596.93 957.447C596.835 956.356 597.544 955.36 598.63 955.075C618.14 949.288 619.887 939.99 616.061 934.772C613.132 930.787 615.4 928.7 616.911 928.652C621.682 928.51 632.83 933.206 638.31 935.72C638.924 935.958 639.444 936.195 639.916 936.432C640.955 936.906 641.569 937.191 641.569 937.191C643.081 937.713 643.742 939.468 642.987 940.891L642.939 940.844Z" fill="#1D1D1D"/>
<path d="M598.489 977.371C597.261 977.371 596.363 977.181 596.269 977.181L596.552 975.948C596.552 975.948 601.843 976.991 604.441 973.576L605.433 974.335C603.496 976.849 600.473 977.371 598.441 977.371H598.489Z" fill="white"/>
<path d="M597.922 984.344C596.694 984.344 595.796 984.155 595.702 984.155L595.985 982.921C595.985 982.921 601.276 983.965 603.874 980.549L604.866 981.308C602.929 983.823 599.906 984.344 597.875 984.344H597.922Z" fill="white"/>
<path d="M616.108 952.656L615.258 951.66C615.258 951.66 624.8 943.358 620.36 935.293L621.493 934.677C626.453 943.643 616.203 952.561 616.108 952.656Z" fill="white"/>
<path d="M633.788 945.206L613.266 982.975L614.385 983.588L634.908 945.819L633.788 945.206Z" fill="white"/>
<path d="M610.612 987.812L605.747 996.765L606.867 997.378L611.732 988.425L610.612 987.812Z" fill="white"/>
<path d="M398.957 560.2C398.295 560.01 382.613 555.409 374.44 540.323C368.819 529.934 368.252 517.221 372.74 502.468L374.346 502.99C370 517.221 370.52 529.508 375.905 539.47C383.699 553.891 399.24 558.492 399.382 558.54L398.91 560.2H398.957Z" fill="#1D1D1D"/>
<path d="M438.778 511.386C432.873 511.386 423.568 508.872 418.655 502.753C415.632 498.957 413.175 492.316 418.608 481.975L419.741 482.591C415.632 490.371 415.632 496.918 419.647 501.946C425.315 509.014 437.219 511.054 441.801 509.773L442.132 511.007C441.234 511.244 440.054 511.386 438.731 511.386H438.778Z" fill="#1D1D1D"/>
<path d="M433.299 512.619C429.189 512.619 424.323 511.481 418.986 507.97L419.694 506.879C433.629 516.13 444.352 508.16 444.447 508.065L445.202 509.062C445.202 509.062 440.479 512.572 433.299 512.572V512.619Z" fill="#1D1D1D"/>
<path d="M447.039 349.876L465.675 373.791L474.95 304.984C475.147 303.359 475.812 301.834 476.861 300.6C477.875 299.416 479.214 298.569 480.709 298.164C481.727 297.909 482.783 297.836 483.829 297.95C484.915 298.059 485.969 298.392 486.929 298.928C487.85 299.439 488.659 300.139 489.305 300.981C489.957 301.831 490.442 302.801 490.733 303.835C491.051 304.92 491.134 306.06 490.978 307.176L479.114 394.542C478.91 396.173 478.234 397.7 477.172 398.932C476.11 400.163 474.709 401.043 473.148 401.46C471.554 401.901 469.865 401.873 468.277 401.379C466.684 400.865 465.285 399.855 464.279 398.493L444.044 372.511L439.632 405.262C439.422 406.891 438.744 408.415 437.683 409.646C436.622 410.876 435.224 411.758 433.665 412.18C432.069 412.635 430.373 412.608 428.782 412.102C427.203 411.584 425.812 410.591 424.795 409.255L370.636 339.722C369.944 338.847 369.434 337.839 369.137 336.761C368.854 335.732 368.787 334.655 368.942 333.602C369.1 332.521 369.45 331.48 369.975 330.53C370.522 329.568 371.263 328.735 372.15 328.085C372.968 327.465 373.892 327.003 374.876 326.721C376.361 326.328 377.931 326.39 379.389 326.898C380.936 327.42 382.298 328.399 383.299 329.71L425.941 384.494L435.293 315.667C435.53 314.032 436.239 312.509 437.33 311.291C438.38 310.095 439.752 309.239 441.28 308.827C442.298 308.572 443.354 308.5 444.4 308.613C445.46 308.727 446.486 309.068 447.41 309.616C448.314 310.141 449.109 310.842 449.748 311.679C450.403 312.526 450.881 313.5 451.151 314.54C451.443 315.633 451.513 316.774 451.357 317.891L447.039 349.876Z" fill="url(#paint3_linear_122_94)"/>
</g>
<defs>
<linearGradient id="paint0_linear_122_94" x1="582.286" y1="746.964" x2="897.409" y2="746.964" gradientUnits="userSpaceOnUse">
<stop stop-color="#4BB27D"/>
<stop offset="0.02" stop-color="#4BB280"/>
<stop offset="0.34" stop-color="#4BB8AE"/>
<stop offset="0.62" stop-color="#4BBCD0"/>
<stop offset="0.85" stop-color="#4BBFE4"/>
<stop offset="1" stop-color="#4BC0EC"/>
</linearGradient>
<linearGradient id="paint1_linear_122_94" x1="653.662" y1="822.77" x2="826.033" y2="822.77" gradientUnits="userSpaceOnUse">
<stop stop-color="#4BB27D"/>
<stop offset="0.02" stop-color="#4BB280"/>
<stop offset="0.34" stop-color="#4BB8AE"/>
<stop offset="0.62" stop-color="#4BBCD0"/>
<stop offset="0.85" stop-color="#4BBFE4"/>
<stop offset="1" stop-color="#4BC0EC"/>
</linearGradient>
<linearGradient id="paint2_linear_122_94" x1="322.573" y1="589.517" x2="572.366" y2="589.517" gradientUnits="userSpaceOnUse">
<stop stop-color="#4BB27D"/>
<stop offset="0.02" stop-color="#4BB280"/>
<stop offset="0.34" stop-color="#4BB8AE"/>
<stop offset="0.62" stop-color="#4BBCD0"/>
<stop offset="0.85" stop-color="#4BBFE4"/>
<stop offset="1" stop-color="#4BC0EC"/>
</linearGradient>
<linearGradient id="paint3_linear_122_94" x1="379.97" y1="376.87" x2="501.589" y2="344.022" gradientUnits="userSpaceOnUse">
<stop stop-color="#18BEE2"/>
<stop offset="1" stop-color="#64D2EA" stop-opacity="0.73"/>
</linearGradient>
<clipPath id="clip0_122_94">
<rect width="1103" height="825.424" fill="white" transform="translate(22 263)"/>
</clipPath>
</defs>
</svg>
