<svg width="44" height="34" viewBox="0 0 44 34" fill="none" xmlns="http://www.w3.org/2000/svg">
<path d="M25.0732 14.3083L29.179 24.0205L38.5728 1.77565C38.7873 1.24833 39.1504 0.796918 39.6165 0.477881C40.0662 0.172645 40.595 0.00959619 41.136 0.00937218C41.5025 0.016052 41.8651 0.0873915 42.2075 0.2202C42.5636 0.355239 42.8889 0.562476 43.1635 0.829263C43.4276 1.08434 43.6368 1.39223 43.7777 1.73348C43.9202 2.07783 43.9955 2.44697 43.9994 2.82043C44.0077 3.21325 43.9321 3.60323 43.7777 3.96359L31.8207 32.2006C31.6033 32.7291 31.2363 33.1804 30.766 33.4973C30.2958 33.8142 29.7435 33.9825 29.179 33.981C28.6013 33.9846 28.0345 33.8222 27.5441 33.5125C27.0536 33.1955 26.6739 32.7299 26.4588 32.1819L22.002 21.6311L17.5314 32.2194C17.3125 32.7468 16.9451 33.197 16.4752 33.5137C16.0053 33.8303 15.4538 33.9994 14.8897 33.9997C14.31 34.0079 13.7404 33.8452 13.2502 33.5312C12.765 33.2144 12.3864 32.7552 12.1649 32.2147L0.235577 3.97764C0.0821896 3.62144 0.00203863 3.23724 3.53883e-05 2.84854C-0.00187623 2.4775 0.0736797 2.11025 0.221723 1.77096C0.373593 1.42271 0.586403 1.10525 0.84983 0.833946C1.12214 0.56083 1.44778 0.348571 1.80583 0.210828C2.13827 0.0769668 2.49195 0.0055305 2.84958 0C3.38588 0.0029913 3.90948 0.165921 4.35518 0.468509C4.82914 0.783702 5.19912 1.23573 5.4174 1.76628L14.8066 24.0111L24.2281 1.76628C24.4571 1.2391 24.8347 0.792441 25.3134 0.482564C25.7763 0.176356 26.3172 0.0135564 26.8698 0.0140547C27.2363 0.0207345 27.5989 0.092074 27.9413 0.224882C28.2883 0.359034 28.6032 0.566666 28.8649 0.833946C29.1221 1.09209 29.3261 1.39944 29.4653 1.73817C29.6091 2.0818 29.6814 2.45183 29.6778 2.82511C29.6768 3.21845 29.5966 3.60744 29.4422 3.96827L25.0732 14.3083Z" fill="#1D1D1D"/>
</svg>
