<svg width="55" height="43" viewBox="0 0 55 43" fill="none" xmlns="http://www.w3.org/2000/svg">
<path d="M31.3416 18.0957L36.4737 30.3788L48.216 2.24567C48.4841 1.57877 48.938 1.00787 49.5207 0.604379C50.0827 0.218346 50.7437 0.0121364 51.42 0.0118531C51.8781 0.020301 52.3313 0.110525 52.7593 0.278488C53.2045 0.449273 53.6111 0.711367 53.9543 1.04877C54.2846 1.37137 54.546 1.76076 54.7221 2.19235C54.9003 2.62785 54.9944 3.0947 54.9992 3.56701C55.0096 4.06381 54.9151 4.55703 54.7221 5.01278L39.7759 40.7243C39.5041 41.3927 39.0453 41.9634 38.4576 42.3642C37.8698 42.765 37.1794 42.9779 36.4737 42.9759C35.7517 42.9805 35.0431 42.7751 34.4301 42.3834C33.8171 41.9825 33.3424 41.3938 33.0735 40.7006L27.5025 27.3569L21.9143 40.748C21.6406 41.4151 21.1814 41.9844 20.594 42.3849C20.0067 42.7854 19.3173 42.9992 18.6121 42.9996C17.8875 43.01 17.1755 42.8042 16.5627 42.4071C15.9562 42.0064 15.483 41.4257 15.2061 40.7421L0.294472 5.03055C0.102737 4.58006 0.00254829 4.09415 4.42354e-05 3.60256C-0.00234529 3.13331 0.0920996 2.66885 0.277154 2.23975C0.466992 1.79931 0.733004 1.39781 1.06229 1.0547C1.40267 0.709285 1.80972 0.44084 2.25728 0.266635C2.67284 0.0973404 3.11493 0.00699445 3.56198 0C4.23235 0.00378312 4.88684 0.209841 5.44398 0.592526C6.03642 0.991153 6.4989 1.56284 6.77176 2.23383L18.5082 30.367L30.2851 2.23383C30.5713 1.5671 31.0434 1.00221 31.6418 0.610301C32.2204 0.223038 32.8965 0.0171448 33.5873 0.0177751C34.0454 0.026223 34.4986 0.116447 34.9266 0.28441C35.3604 0.454072 35.754 0.716666 36.0812 1.0547C36.4026 1.38117 36.6577 1.76988 36.8317 2.19828C37.0114 2.63286 37.1018 3.10084 37.0972 3.57293C37.0959 4.07039 36.9957 4.56236 36.8028 5.0187L31.3416 18.0957Z" fill="url(#paint0_linear_120_474)"/>
<defs>
<linearGradient id="paint0_linear_120_474" x1="0" y1="21.863" x2="55" y2="21.863" gradientUnits="userSpaceOnUse">
<stop stop-color="#4AB37D"/>
<stop offset="1" stop-color="#4AB37D" stop-opacity="0.73"/>
</linearGradient>
</defs>
</svg>
