<svg width="43" height="32" viewBox="0 0 43 32" fill="none" xmlns="http://www.w3.org/2000/svg">
<path d="M24.5034 13.4666L28.5158 22.6075L37.6961 1.6712C37.9058 1.1749 38.2606 0.750041 38.7162 0.449771C39.1556 0.16249 39.6723 0.00903171 40.2011 0.00882088C40.5592 0.0151078 40.9136 0.0822508 41.2482 0.207247C41.5962 0.334342 41.9141 0.529389 42.1825 0.780483C42.4406 1.02055 42.6451 1.31033 42.7828 1.63151C42.922 1.95561 42.9956 2.30304 42.9994 2.65452C43.0075 3.02423 42.9336 3.39128 42.7828 3.73044L31.0975 30.3065C30.885 30.8039 30.5264 31.2286 30.0668 31.5269C29.6073 31.8251 29.0675 31.9835 28.5158 31.9821C27.9513 31.9855 27.3973 31.8326 26.9181 31.5411C26.4388 31.2428 26.0677 30.8047 25.8574 30.2888L21.502 20.3587L17.133 30.3241C16.919 30.8205 16.56 31.2442 16.1008 31.5423C15.6416 31.8403 15.1026 31.9994 14.5513 31.9997C13.9848 32.0075 13.4281 31.8543 12.949 31.5588C12.4749 31.2606 12.1049 30.8284 11.8884 30.3197L0.230223 3.74367C0.0803217 3.40842 0.0019923 3.04681 3.4584e-05 2.68098C-0.00183359 2.33176 0.0720051 1.98612 0.216684 1.66679C0.365103 1.33902 0.573076 1.04023 0.830516 0.78489C1.09663 0.52784 1.41488 0.328067 1.76478 0.198426C2.08968 0.0724393 2.43531 0.00520517 2.78482 0C3.30893 0.00281534 3.82062 0.156161 4.2562 0.44095C4.71938 0.737602 5.08096 1.16304 5.29428 1.66238L14.4701 22.5987L23.6774 1.66238C23.9012 1.16621 24.2703 0.745827 24.7381 0.454178C25.1905 0.165982 25.719 0.0127589 26.2591 0.013228C26.6173 0.0195148 26.9716 0.0866579 27.3062 0.211654C27.6454 0.337914 27.9531 0.533333 28.2089 0.78489C28.4602 1.02785 28.6596 1.31712 28.7957 1.63593C28.9362 1.95934 29.0069 2.3076 29.0033 2.65893C29.0023 3.02913 28.9239 3.39524 28.7731 3.73485L24.5034 13.4666Z" fill="url(#paint0_linear_65_11)"/>
<defs>
<linearGradient id="paint0_linear_65_11" x1="0" y1="16.2702" x2="43" y2="16.2702" gradientUnits="userSpaceOnUse">
<stop stop-color="#18BEE2"/>
<stop offset="1" stop-color="#64D2EA" stop-opacity="0.73"/>
</linearGradient>
</defs>
</svg>
