<svg width="260" height="260" viewBox="0 0 260 260" fill="none" xmlns="http://www.w3.org/2000/svg">
<g filter="url(#filter0_d_670_15)">
<rect x="70" y="70" width="120" height="120" rx="60" fill="white"/>
</g>
<path d="M133.073 127.308L137.179 137.02L146.573 114.776C146.787 114.248 147.15 113.797 147.617 113.478C148.066 113.173 148.595 113.01 149.136 113.009C149.502 113.016 149.865 113.087 150.207 113.22C150.564 113.355 150.889 113.562 151.163 113.829C151.428 114.084 151.637 114.392 151.778 114.733C151.92 115.078 151.996 115.447 151.999 115.82C152.008 116.213 151.932 116.603 151.778 116.964L139.821 145.201C139.603 145.729 139.236 146.18 138.766 146.497C138.296 146.814 137.744 146.983 137.179 146.981C136.601 146.985 136.034 146.822 135.544 146.512C135.054 146.195 134.674 145.73 134.459 145.182L130.002 134.631L125.531 145.219C125.313 145.747 124.945 146.197 124.475 146.514C124.005 146.83 123.454 146.999 122.89 147C122.31 147.008 121.74 146.845 121.25 146.531C120.765 146.214 120.386 145.755 120.165 145.215L108.236 116.978C108.082 116.621 108.002 116.237 108 115.849C107.998 115.477 108.074 115.11 108.222 114.771C108.374 114.423 108.586 114.105 108.85 113.834C109.122 113.561 109.448 113.349 109.806 113.211C110.138 113.077 110.492 113.006 110.85 113C111.386 113.003 111.909 113.166 112.355 113.469C112.829 113.784 113.199 114.236 113.417 114.766L122.807 137.011L132.228 114.766C132.457 114.239 132.835 113.792 133.313 113.483C133.776 113.176 134.317 113.014 134.87 113.014C135.236 113.021 135.599 113.092 135.941 113.225C136.288 113.359 136.603 113.567 136.865 113.834C137.122 114.092 137.326 114.399 137.465 114.738C137.609 115.082 137.681 115.452 137.678 115.825C137.677 116.218 137.597 116.607 137.442 116.968L133.073 127.308Z" fill="#1D1D1D"/>
<defs>
<filter id="filter0_d_670_15" x="0" y="0" width="260" height="260" filterUnits="userSpaceOnUse" color-interpolation-filters="sRGB">
<feFlood flood-opacity="0" result="BackgroundImageFix"/>
<feColorMatrix in="SourceAlpha" type="matrix" values="0 0 0 0 0 0 0 0 0 0 0 0 0 0 0 0 0 0 127 0" result="hardAlpha"/>
<feOffset/>
<feGaussianBlur stdDeviation="35"/>
<feComposite in2="hardAlpha" operator="out"/>
<feColorMatrix type="matrix" values="0 0 0 0 1 0 0 0 0 1 0 0 0 0 1 0 0 0 1 0"/>
<feBlend mode="normal" in2="BackgroundImageFix" result="effect1_dropShadow_670_15"/>
<feBlend mode="normal" in="SourceGraphic" in2="effect1_dropShadow_670_15" result="shape"/>
</filter>
</defs>
</svg>
