<svg width="599" height="466" viewBox="0 0 599 466" fill="none" xmlns="http://www.w3.org/2000/svg">
<path d="M341.338 196.107L397.232 329.222L525.116 24.3368C528.036 17.1095 532.979 10.9225 539.325 6.54978C545.446 2.36626 552.645 0.131524 560.01 0.128454C565 0.220007 569.936 1.19778 574.597 3.01803C579.445 4.86886 583.874 7.70923 587.612 11.3658C591.208 14.8618 594.056 19.0817 595.974 23.7589C597.914 28.4785 598.939 33.538 598.992 38.6564C599.105 44.0404 598.075 49.3855 595.974 54.3245L433.196 441.338C430.236 448.582 425.239 454.767 418.838 459.11C412.436 463.453 404.918 465.76 397.232 465.739C389.368 465.789 381.651 463.563 374.975 459.318C368.298 454.973 363.129 448.593 360.2 441.081L299.528 296.473L238.667 441.595C235.686 448.824 230.685 454.994 224.288 459.334C217.891 463.675 210.383 465.992 202.703 465.996C194.811 466.109 187.057 463.878 180.383 459.575C173.778 455.232 168.624 448.938 165.608 441.531L3.20707 54.5171C1.1189 49.6351 0.0277532 44.3692 0.000481763 39.0417C-0.0255423 33.9563 1.00305 28.9229 3.01845 24.2726C5.08597 19.4995 7.98308 15.1484 11.5693 11.43C15.2764 7.68668 19.7095 4.77747 24.5838 2.88958C29.1097 1.0549 33.9245 0.0758003 38.7932 0C46.0942 0.0409984 53.2222 2.2741 59.2899 6.42133C65.7421 10.7413 70.7789 16.9368 73.7506 24.2084L201.571 329.093L329.832 24.2084C332.949 16.983 338.09 10.8611 344.608 6.61396C350.91 2.41711 358.272 0.185802 365.796 0.192632C370.785 0.284185 375.721 1.26196 380.382 3.08221C385.107 4.92087 389.393 7.76666 392.957 11.43C396.457 14.9681 399.235 19.1805 401.13 23.8232C403.088 28.5329 404.072 33.6044 404.022 38.7206C404.009 44.1117 402.917 49.4432 400.816 54.3887L341.338 196.107Z" fill="#F7F7F7"/>
</svg>
