<svg width="454" height="466" viewBox="0 0 454 466" fill="none" xmlns="http://www.w3.org/2000/svg">
<path d="M196.338 196.107L252.232 329.222L380.116 24.3368C383.036 17.1095 387.979 10.9225 394.325 6.54979C400.446 2.36626 407.645 0.131524 415.01 0.128454C420 0.220007 424.936 1.19778 429.597 3.01803C434.445 4.86886 438.874 7.70923 442.612 11.3658C446.208 14.8618 449.056 19.0817 450.974 23.7589C452.914 28.4785 453.939 33.538 453.992 38.6564C454.105 44.0404 453.075 49.3855 450.974 54.3245L288.196 441.338C285.236 448.582 280.239 454.767 273.838 459.11C267.436 463.453 259.918 465.76 252.232 465.739C244.368 465.789 236.651 463.563 229.975 459.318C223.298 454.973 218.129 448.593 215.2 441.081L154.528 296.473L93.6665 441.595C90.6861 448.824 85.6846 454.994 79.2878 459.334C72.8909 463.675 65.3829 465.992 57.7032 465.996C49.8112 466.109 42.057 463.878 35.3831 459.575C28.7778 455.232 23.6243 448.938 20.6081 441.531L-141.793 54.5171C-143.881 49.6351 -144.972 44.3692 -145 39.0417C-145.026 33.9563 -143.997 28.9229 -141.982 24.2726C-139.914 19.4995 -137.017 15.1484 -133.431 11.43C-129.724 7.68668 -125.29 4.77747 -120.416 2.88958C-115.89 1.0549 -111.076 0.0758003 -106.207 0C-98.9058 0.0409984 -91.7778 2.2741 -85.7101 6.42133C-79.2579 10.7413 -74.2211 16.9368 -71.2494 24.2084L56.5715 329.093L184.832 24.2084C187.949 16.983 193.09 10.8611 199.608 6.61396C205.91 2.41711 213.272 0.185802 220.796 0.192632C225.785 0.284185 230.721 1.26196 235.382 3.08221C240.107 4.92087 244.393 7.76666 247.957 11.43C251.457 14.9681 254.235 19.1805 256.13 23.8232C258.088 28.5329 259.072 33.6044 259.022 38.7206C259.009 44.1117 257.917 49.4432 255.816 54.3887L196.338 196.107Z" fill="#F7F7F7"/>
</svg>
