<svg width="336" height="428" viewBox="0 0 336 428" fill="none" xmlns="http://www.w3.org/2000/svg">
<g clip-path="url(#clip0_72_22)">
<path d="M114.418 45.9038C157.756 22.4898 213.203 33.4826 253.8 58.1479C273.809 70.3027 291.542 89.0661 292.845 113.65C293.409 124.289 290.761 135.25 283.843 143.525C279.64 148.563 273.304 153.258 266.405 151.436C255.916 148.673 258.548 136.648 266.691 132.768C281.841 125.565 295.425 146.59 300.672 157.725C306.837 170.775 309.476 185.093 311.037 199.344C311.484 203.408 317.708 202.112 317.248 198.067C315.28 181.016 311.635 163.699 302.832 148.748C296.444 137.898 286.371 126.059 272.782 125.647C262.85 125.347 252.327 134.008 253.144 144.561C254.007 155.665 266.65 160.106 275.992 156.879C302.009 147.866 302.729 110.923 293.069 90.1603C279.609 61.273 246.622 45.0177 217.743 36.1626C183.304 25.5836 145.036 25.071 113.117 43.3554C111.544 44.2555 112.79 46.7814 114.418 45.9038Z" fill="#FBD49B"/>
<path d="M289.665 180.226C295.356 176.834 305.512 195.408 307.433 198.338C309.082 200.849 310.954 203.873 314.537 202.967C318.359 201.995 319.568 196.199 320.797 193.215C323.827 185.841 327.088 178.52 329.79 171.027C331.115 167.361 325.747 165.751 324.193 169.124C321.481 175.008 319.187 181.112 316.752 187.108C316.215 188.44 314.291 195.689 312.619 195.694C312.249 195.702 309.794 190.914 309.627 190.677C305.712 184.951 297.693 175.132 289.935 175.539C288.916 175.596 288.158 176.023 287.765 176.986C287.612 177.391 287.439 177.783 287.285 178.188C286.748 179.519 288.403 180.994 289.668 180.242L289.665 180.226Z" fill="#FBD49B"/>
</g>
<path d="M101.531 392.875C100.459 394.263 100.381 395.723 101.021 397.268C102.224 400.115 105.855 403.174 110.072 406.203C110.618 406.576 111.103 406.953 111.491 407.273C111.589 407.361 111.717 407.447 111.815 407.535C111.911 407.592 111.977 407.681 112.073 407.738C116.024 410.997 114.646 411.875 121.782 418.557C129.897 426.179 135.215 426.021 136.691 425.231C137.924 424.546 135.105 420.422 131.979 415.788C131.813 415.58 131.677 415.34 131.509 415.101C131.104 414.472 130.67 413.876 130.265 413.247C126.595 407.682 127.316 404.919 127.667 396.323C127.947 389.341 136.42 356.906 136.42 356.906L121.524 355.155C121.524 355.155 118.422 380.803 113.717 384.954C111.203 387.192 108.269 387.347 105.849 389.024C105.669 389.126 105.521 389.258 105.342 389.391C103.972 390.424 102.54 391.459 101.468 392.847L101.531 392.875Z" fill="#FFC194"/>
<path d="M101.531 392.875C100.459 394.263 100.381 395.723 101.021 397.268C102.471 400.102 106.007 403.135 110.101 406.17C110.618 406.576 111.101 406.922 111.522 407.271C111.62 407.359 111.748 407.445 111.846 407.533C111.942 407.59 112.008 407.679 112.104 407.736C116.055 410.995 114.677 411.873 121.813 418.555C129.927 426.177 135.246 426.019 136.722 425.229C137.955 424.545 135.136 420.421 132.01 415.786C130.467 415.311 123.37 412.868 117.731 406.385C112.785 400.702 109.295 393.269 105.88 389.022C105.7 389.124 105.552 389.256 105.373 389.389C104.003 390.422 102.571 391.457 101.499 392.846L101.531 392.875Z" fill="#606060"/>
<path d="M161.015 289.68L149.651 326.015L134.819 373.464C134.819 373.464 130.149 374.175 125.602 373.115C121.4 372.13 116.479 369.263 116.479 369.263C116.479 369.263 118.623 319.048 126.063 289.919C127.959 282.449 130.238 276.353 132.901 272.836C145.931 255.705 161.016 289.711 161.016 289.711L161.015 289.68Z" fill="black"/>
<path d="M149.651 326.015L134.819 373.464C134.819 373.464 130.149 374.175 125.602 373.115C121.4 372.13 116.479 369.263 116.479 369.263C116.479 369.263 118.623 319.048 126.063 289.919L149.622 326.047L149.651 326.015Z" fill="#1D1D1D"/>
<path d="M224.87 381.344C225.798 385.921 232.292 385.148 239.56 383.385C246.828 381.623 245.096 383.725 255.456 382.581C265.786 381.437 268.94 377.572 269.25 376.057C269.528 374.696 264.425 374.201 258.951 373.583C258.271 373.49 257.559 373.428 256.879 373.336C250.694 372.563 246.147 368.574 240.519 365.296C235.199 362.204 227.251 349.526 227.251 349.526L213.056 350.639C213.056 350.639 220.509 361.956 223.386 366.873C225.087 369.749 224.994 373.583 224.777 376.551C224.654 378.159 224.561 379.798 224.901 381.406L224.87 381.344Z" fill="#FFC194"/>
<path d="M239.56 383.354C246.828 381.592 245.096 383.694 255.456 382.55C265.786 381.406 268.94 377.541 269.25 376.026C269.528 374.665 264.425 374.17 258.951 373.552L258.889 373.645C258.889 373.645 252.673 378.036 244.075 378.252C237.055 378.438 229.633 376.397 224.777 376.49C224.654 378.097 224.561 379.736 224.901 381.344C225.829 385.921 232.323 385.148 239.591 383.385L239.56 383.354Z" fill="#606060"/>
<path d="M157.017 233.972C148.729 231.312 125.874 234.435 102.216 238.95C100.082 239.352 97.9167 238.393 96.7725 236.538L93.4324 231.034L39.6512 226.829C39.6512 226.829 25.7652 258.369 31.6722 284.59C33.1257 291.022 40.981 299.34 52.9805 300.082C86.6595 302.185 109.39 290.496 144.337 278.19C150.43 276.056 153.182 289.569 159.491 302.834C165.8 316.099 218.901 361.616 218.901 361.616C218.901 361.616 227.066 361.709 230.437 360.441C234.055 359.08 235.385 357.318 235.385 357.318C235.385 357.318 176.563 240.28 156.955 233.972H157.017Z" fill="#1D1D1D"/>
<path d="M91.3288 74.5088C84.4322 70.8909 73.9481 70.3962 72.2472 70.1798C51.8666 67.4277 39.6197 97.0507 38.8774 106.018C37.5476 122.561 28.7954 125.066 16.4867 135.424C-8.19266 156.173 -0.955902 180.323 12.5281 189.259C20.6308 194.639 34.9189 189.259 34.9189 189.259C35.1353 189.414 73.9481 167.552 93.1226 157.008C121.822 152.926 108.864 83.7234 91.3288 74.5088Z" fill="black"/>
<path d="M77.1032 148.041C77.1032 148.041 67.6706 151.349 61.3307 148.535C55.3619 145.907 50.8156 136.074 50.9084 136.043C53.6299 135.919 56.5989 133.538 58.9184 117.954L60.0627 118.356L79.5464 125.375C79.5464 125.375 78.1238 131.621 77.2269 137.558C76.4537 142.537 76.0517 147.329 77.1032 148.041Z" fill="#FFAE73"/>
<path d="M79.5155 125.375C79.5155 125.375 78.5258 129.797 77.4743 135.857C66.2789 133.847 61.64 124.416 60.0627 118.356L79.5465 125.375H79.5155Z" fill="#F9924F"/>
<path d="M82.4225 131.559C82.4225 131.559 55.7948 127.972 58.2689 111.429C60.7431 94.8862 58.9803 83.2596 76.1136 84.8366C93.2159 86.4136 95.5663 93.2164 96.092 98.9678C96.6178 104.688 89.4428 132.054 82.4534 131.559H82.4225Z" fill="#FFAE73"/>
<path d="M95.1025 89.9078C95.1025 89.9078 78.0619 104.596 66.4336 105.802C54.8361 106.977 50.4446 103.266 50.4446 103.266C50.4446 103.266 57.2793 97.5764 61.3925 88.4236C62.5987 85.7334 65.1656 83.8781 68.1036 83.6307C76.3919 82.9195 92.1026 82.5794 95.0715 89.9387L95.1025 89.9078Z" fill="black"/>
<path d="M84.4637 88.578C84.4637 88.578 90.1542 94.0821 91.9789 98.1946C93.7107 102.153 94.2365 111.584 92.8448 115.325C92.8448 115.325 101.721 98.04 96.7106 89.6603C91.3603 80.7548 84.4637 88.578 84.4637 88.578Z" fill="black"/>
<path d="M99.5249 187.28C101.566 235.363 98.3497 232.704 93.4015 235.054C91.7005 235.858 87.9893 237.033 82.7318 237.373C66.1861 238.455 37.1152 235.734 36.0328 232.704C32.2288 222.129 34.9194 218.851 31.734 202.648C31.3938 200.916 30.9918 199.061 30.497 197.02C27.8373 185.888 25.2704 182.116 34.672 164.274C43.2077 148.102 52.0836 134.96 52.8877 135.424C75.4022 148.782 77.2269 137.558 77.2269 137.558C77.2269 137.558 98.4425 160.996 99.5559 187.28H99.5249Z" fill="#27AC75"/>
<path d="M77.196 137.558C77.196 137.558 100.36 141.485 103.081 151.473C105.803 161.46 121.823 220.088 121.823 220.088C121.823 220.088 110.04 222.19 104.597 216.748C99.1538 211.306 85.6699 166.253 85.6699 166.253L77.196 137.527V137.558Z" fill="#27AC75"/>
<path d="M82.7319 237.373C66.1862 238.455 37.1152 235.734 36.0328 232.704C32.2289 222.129 34.9195 218.851 31.734 202.648L39.7131 180.199C39.7131 180.199 38.3832 205.214 45.7747 211.77C53.1352 218.356 75.959 224.479 79.5464 229.952C81.2783 232.58 82.4226 235.239 82.7319 237.373Z" fill="url(#paint0_linear_72_22)"/>
<path d="M63.7739 226.86C63.7739 226.86 80.1031 223.242 82.7318 224.664C85.3606 226.118 91.7933 231.374 92.5974 233.23C93.4015 235.054 86.7523 231.838 84.5565 231.251C83.1648 230.88 79.4536 232.147 77.6289 232.766C69.9283 235.332 65.1965 234.003 65.1965 234.003L63.743 226.829L63.7739 226.86Z" fill="#FFAE73"/>
<path d="M52.8568 135.424C52.8568 135.424 30.9609 136.785 23.3529 147.36C12.6833 162.233 -8.50135 225.685 3.65276 234.157C17.3223 243.681 65.846 236.662 65.846 236.662C65.846 236.662 67.4541 229.117 65.2274 225.468C63.0007 221.819 26.4456 215.913 24.7756 214.244C23.1055 212.574 45.8365 181.374 45.8365 176.334C45.8365 171.293 52.8568 135.486 52.8568 135.486V135.424Z" fill="#27AC75"/>
<path d="M83.505 229.21C83.505 229.21 86.9379 233.632 88.0512 234.157C89.1646 234.683 89.9068 234.559 89.9068 234.559L87.6182 230.416L83.5359 229.241L83.505 229.21Z" fill="#FFAE73"/>
<path d="M82.7318 224.664L92.6592 229.488C92.6592 229.488 92.2263 230.168 91.0201 230.137C89.7831 230.075 86.7213 228.962 86.7213 228.962L82.7318 224.695V224.664Z" fill="#FFAE73"/>
<path d="M88.0512 240.898H166.666L190.325 182.085H111.834L88.0512 240.898Z" fill="black"/>
<path d="M167.594 238.61H63.7739V240.898H166.666L167.594 238.61Z" fill="black"/>
<path d="M146.842 211.492C147.43 209.42 146.255 207.75 144.183 207.75C142.111 207.75 139.946 209.42 139.358 211.492C138.771 213.563 139.946 215.233 142.018 215.233C144.09 215.233 146.255 213.563 146.842 211.492Z" fill="#E8F2FA"/>
<defs>
<linearGradient id="paint0_linear_72_22" x1="31.7031" y1="208.894" x2="82.7319" y2="208.894" gradientUnits="userSpaceOnUse">
<stop stop-color="#4BB27D"/>
<stop offset="0.02" stop-color="#4BB280"/>
<stop offset="0.34" stop-color="#4BB8AE"/>
<stop offset="0.62" stop-color="#4BBCD0"/>
<stop offset="0.85" stop-color="#4BBFE4"/>
<stop offset="1" stop-color="#4BC0EC"/>
</linearGradient>
<clipPath id="clip0_72_22">
<rect width="195.115" height="202.703" fill="white" transform="translate(104 39.2924) rotate(-11.6177)"/>
</clipPath>
</defs>
</svg>
