<svg width="321" height="85" viewBox="0 0 321 85" fill="none" xmlns="http://www.w3.org/2000/svg">
<path d="M103.4 30.6184C104.558 30.6083 105.707 30.8373 106.772 31.291C107.795 31.7242 108.727 32.3465 109.517 33.1248C110.305 33.9074 110.932 34.8352 111.364 35.8564C111.815 36.9157 112.043 38.0561 112.033 39.2067C112.042 40.351 111.811 41.4845 111.355 42.5348C110.683 44.0854 109.567 45.4046 108.147 46.3281C106.728 47.2516 105.067 47.7386 103.371 47.7283H98.7438V51.6973C98.7444 51.9567 98.6925 52.2135 98.5909 52.4524C98.4946 52.683 98.3502 52.8906 98.1673 53.0615C97.9854 53.2315 97.7753 53.3689 97.5463 53.4676C97.3047 53.5682 97.0455 53.62 96.7836 53.62C96.5217 53.62 96.2625 53.5682 96.0209 53.4676C95.7842 53.3746 95.5679 53.2367 95.384 53.0615C95.205 52.8886 95.0631 52.6814 94.9668 52.4524C94.8728 52.2119 94.8284 51.9552 94.8362 51.6973V32.5759C94.8342 32.3103 94.8862 32.0469 94.9891 31.8018C95.085 31.5651 95.2268 31.3495 95.4063 31.1673C95.5882 30.988 95.8049 30.8477 96.0432 30.7548C96.2828 30.6532 96.5407 30.6013 96.8011 30.6026L103.4 30.6184ZM98.7438 34.5176V43.826H103.454C104.084 43.8312 104.708 43.7025 105.285 43.4485C105.842 43.2084 106.347 42.8637 106.772 42.4332C107.193 42.0089 107.53 41.5096 107.766 40.9612C108.006 40.406 108.13 39.808 108.13 39.2035C108.13 38.5991 108.006 38.001 107.766 37.4459C107.525 36.8905 107.186 36.3824 106.766 35.9452C106.343 35.5074 105.841 35.1542 105.285 34.9046C104.714 34.644 104.092 34.5118 103.463 34.5176H98.7438Z" fill="white"/>
<path d="M119.058 51.6974C119.059 51.9559 119.011 52.2121 118.915 52.4525C118.824 52.6814 118.687 52.889 118.511 53.0616C118.334 53.2306 118.129 53.368 117.905 53.4677C117.672 53.5701 117.419 53.622 117.163 53.62C116.895 53.6213 116.628 53.5696 116.38 53.4677C116.145 53.3712 115.929 53.2337 115.743 53.0616C115.559 52.8895 115.412 52.6823 115.31 52.4525C115.202 52.2152 115.147 51.9577 115.148 51.6974V45.8915C115.139 44.6914 115.382 43.5027 115.861 42.4016C116.784 40.248 118.505 38.532 120.667 37.611C121.762 37.1413 122.942 36.9016 124.135 36.9067H124.17C124.445 36.8896 124.721 36.9296 124.98 37.0241C125.24 37.1185 125.477 37.2654 125.676 37.4555C125.853 37.6409 125.991 37.8596 126.082 38.0987C126.174 38.3378 126.216 38.5926 126.208 38.8483C126.21 39.1149 126.154 39.3788 126.045 39.6224C125.942 39.8556 125.792 40.0659 125.606 40.2411C125.42 40.4161 125.204 40.5568 124.969 40.6567C124.719 40.7586 124.452 40.8103 124.182 40.809H124.135C123.462 40.8061 122.795 40.94 122.176 41.2024C121.573 41.4554 121.025 41.8216 120.561 42.2811C120.102 42.7401 119.729 43.2773 119.46 43.8674C119.182 44.4838 119.041 45.1525 119.046 45.8281L119.058 51.6974Z" fill="white"/>
<path d="M128.297 45.2672C128.29 44.1203 128.523 42.9845 128.982 41.9327C129.425 40.9165 130.056 39.992 130.842 39.2075C131.626 38.4261 132.554 37.8015 133.574 37.3674C134.625 36.9149 135.758 36.6848 136.902 36.6916C138.056 36.6841 139.199 36.9142 140.259 37.3674C141.281 37.7984 142.209 38.4234 142.991 39.2075C143.771 39.9908 144.393 40.9159 144.822 41.9327C145.264 42.9882 145.492 44.1204 145.492 45.264C145.492 46.4076 145.264 47.5398 144.822 48.5952C144.394 49.6144 143.772 50.5418 142.991 51.3269C142.209 52.1109 141.281 52.7359 140.259 53.167C139.199 53.6201 138.056 53.8502 136.902 53.8427C135.758 53.8495 134.625 53.6194 133.574 53.167C132.554 52.7328 131.626 52.1082 130.842 51.3269C130.055 50.5405 129.424 49.6139 128.982 48.5952C128.524 47.5452 128.291 46.4118 128.297 45.2672V45.2672ZM132.211 45.2672C132.208 45.8881 132.335 46.5029 132.584 47.0724C132.82 47.6297 133.163 48.1361 133.593 48.5635C134.021 48.9895 134.525 49.3308 135.081 49.5692C135.655 49.8191 136.276 49.9456 136.902 49.9404C137.532 49.9446 138.155 49.8182 138.733 49.5692C139.292 49.3346 139.798 48.9928 140.224 48.5635C140.647 48.1345 140.983 47.6282 141.214 47.0724C141.457 46.5014 141.58 45.8872 141.577 45.2672C141.581 44.6399 141.458 44.0182 141.214 43.4397C140.985 42.886 140.648 42.3826 140.224 41.9581C139.796 41.5337 139.29 41.1955 138.733 40.9619C138.155 40.7155 137.531 40.5902 136.902 40.5939C136.279 40.5915 135.662 40.7167 135.09 40.9619C134.533 41.1978 134.025 41.5357 133.593 41.9581C133.155 42.3911 132.806 42.9066 132.569 43.4746C132.332 44.0426 132.21 44.6519 132.211 45.2672V45.2672Z" fill="white"/>
<path d="M150.74 38.652V36.2979C150.737 35.5225 150.894 34.7548 151.201 34.0422C151.787 32.6427 152.896 31.5245 154.294 30.9235C155.011 30.6112 155.785 30.4523 156.568 30.4571C156.894 30.456 157.216 30.5353 157.504 30.6882C157.792 30.841 158.038 31.0626 158.219 31.3331C158.401 31.6036 158.512 31.9147 158.543 32.2385C158.575 32.5623 158.525 32.8887 158.399 33.1888C158.303 33.4198 158.159 33.6276 157.975 33.7979C157.788 33.9694 157.573 34.1068 157.338 34.204C157.092 34.3064 156.828 34.3582 156.561 34.3563H156.472C156.217 34.3653 155.967 34.4292 155.74 34.5435C155.522 34.6548 155.327 34.8041 155.163 34.9845C154.998 35.1703 154.869 35.3856 154.784 35.619C154.694 35.8572 154.649 36.1099 154.65 36.3645V38.6647H155.982C156.248 38.6627 156.513 38.7145 156.759 38.817C156.996 38.9114 157.212 39.0516 157.396 39.2294C157.571 39.406 157.713 39.6136 157.813 39.8417C157.915 40.0838 157.967 40.3438 157.966 40.6063C157.966 40.8709 157.914 41.1329 157.813 41.3773C157.716 41.6136 157.574 41.8291 157.396 42.0118C157.212 42.1896 156.996 42.3298 156.759 42.4242C156.513 42.5267 156.248 42.5785 155.982 42.5765H154.666V51.6724C154.667 52.1969 154.458 52.7001 154.087 53.0715C153.909 53.2515 153.698 53.3958 153.466 53.4967C153.229 53.5984 152.975 53.6502 152.717 53.649C152.457 53.6502 152.199 53.5984 151.959 53.4967C151.721 53.3979 151.505 53.2535 151.322 53.0715C150.953 52.6988 150.746 52.1961 150.746 51.6724V42.5511H149.826C149.565 42.5518 149.307 42.5 149.068 42.3989C148.83 42.3008 148.614 42.1574 148.431 41.9769C148.251 41.794 148.107 41.5787 148.007 41.3424C147.906 41.1035 147.854 40.8467 147.854 40.5873C147.851 40.3308 147.901 40.0764 148 39.8396C148.099 39.6028 148.246 39.3887 148.431 39.2104C148.616 39.0348 148.832 38.895 149.068 38.7979C149.307 38.6968 149.565 38.645 149.826 38.6457L150.74 38.652Z" fill="white"/>
<path d="M162.303 32.9349C162.301 32.6448 162.359 32.3574 162.475 32.091C162.583 31.836 162.74 31.6043 162.936 31.4089C163.134 31.2134 163.368 31.0573 163.624 30.9488C163.887 30.8379 164.169 30.7808 164.454 30.7808C164.739 30.7808 165.021 30.8379 165.283 30.9488C165.541 31.0592 165.776 31.215 165.978 31.4089C166.179 31.6023 166.338 31.8344 166.446 32.091C166.561 32.3574 166.62 32.6448 166.618 32.9349C166.619 33.2168 166.561 33.4958 166.446 33.7534C166.337 34.0067 166.178 34.2355 165.978 34.426C165.776 34.6201 165.539 34.775 165.28 34.8829C165.018 34.9959 164.736 35.0543 164.451 35.0543C164.165 35.0543 163.883 34.9959 163.621 34.8829C163.108 34.6645 162.698 34.2594 162.475 33.7502C162.36 33.4936 162.302 33.2157 162.303 32.9349ZM166.417 51.6977C166.417 52.2121 166.213 52.7055 165.85 53.0715C165.674 53.2477 165.465 53.3888 165.236 53.4871C164.993 53.5901 164.732 53.6419 164.468 53.6394C164.208 53.6401 163.95 53.5883 163.71 53.4871C163.474 53.3889 163.258 53.248 163.073 53.0715C162.89 52.8971 162.746 52.6863 162.65 52.4528C162.548 52.2141 162.496 51.9572 162.497 51.6977V38.8486C162.496 38.5913 162.551 38.3368 162.659 38.1031C162.763 37.8665 162.91 37.6513 163.092 37.4686C163.276 37.2837 163.495 37.1373 163.736 37.0381C163.977 36.939 164.236 36.889 164.497 36.8911C164.758 36.8876 165.016 36.9395 165.255 37.0434C165.713 37.2511 166.075 37.6241 166.268 38.0872C166.364 38.3241 166.412 38.5773 166.411 38.8328L166.417 51.6977Z" fill="white"/>
<path d="M177.803 49.7241C178.069 49.7223 178.333 49.7775 178.576 49.8859C178.81 49.9878 179.019 50.1369 179.191 50.3238C179.359 50.511 179.494 50.7257 179.589 50.9583C179.685 51.1986 179.733 51.4549 179.733 51.7134C179.741 51.9671 179.696 52.2199 179.602 52.4557C179.507 52.6916 179.365 52.9056 179.184 53.0842C179.003 53.2629 178.787 53.4024 178.549 53.494C178.311 53.5857 178.057 53.6275 177.803 53.6169C177.017 53.6225 176.237 53.4815 175.503 53.2013C174.807 52.9405 174.166 52.5508 173.615 52.0528C173.072 51.553 172.638 50.9472 172.341 50.273C172.022 49.5472 171.851 48.7652 171.838 47.9728V32.4143C171.836 32.1487 171.888 31.8854 171.991 31.6402C172.085 31.4054 172.222 31.1902 172.395 31.0057C172.565 30.8308 172.767 30.6907 172.991 30.5933C173.223 30.491 173.475 30.439 173.729 30.441C173.996 30.439 174.26 30.4908 174.506 30.5933C174.742 30.6912 174.958 30.8309 175.143 31.0057C175.333 31.1848 175.484 31.4008 175.586 31.6402C175.695 31.8838 175.75 32.1477 175.749 32.4143V47.8523C175.729 48.1146 175.771 48.3778 175.871 48.6212C175.971 48.8646 176.126 49.0815 176.325 49.2546C176.747 49.5798 177.27 49.7461 177.803 49.7241V49.7241Z" fill="white"/>
<path d="M186.965 47.0082C187.117 47.4451 187.34 47.8545 187.624 48.2202C187.9 48.5871 188.232 48.9083 188.608 49.172C188.984 49.4316 189.397 49.6318 189.834 49.7652C190.29 49.9053 190.765 49.9749 191.242 49.9715C192.482 49.9715 193.456 49.6479 194.165 49.0006C194.381 48.8463 194.616 48.7224 194.866 48.6326C195.071 48.5604 195.286 48.5208 195.503 48.5152C195.823 48.5113 196.138 48.6018 196.407 48.7754C196.667 48.9512 196.884 49.182 197.044 49.4512C197.163 49.6426 197.251 49.8514 197.305 50.0698C197.372 50.2885 197.398 50.5176 197.382 50.7456C197.35 50.9807 197.276 51.2083 197.165 51.4182C197.039 51.6526 196.864 51.858 196.653 52.021C196.37 52.2748 196.067 52.5061 195.748 52.7126C195.383 52.9492 194.994 53.145 194.586 53.2964C194.105 53.4763 193.61 53.6122 193.105 53.7025C192.495 53.8094 191.877 53.8604 191.258 53.8547C190.104 53.8622 188.961 53.6321 187.901 53.179C186.877 52.7458 185.947 52.1211 185.159 51.3389C184.375 50.5534 183.744 49.6292 183.299 48.6136C182.849 47.5602 182.617 46.4272 182.617 45.2823C182.617 44.1375 182.849 43.0045 183.299 41.9511C184.187 39.8984 185.835 38.2663 187.901 37.3952C188.96 36.952 190.097 36.7236 191.245 36.7236C192.393 36.7236 193.53 36.952 194.589 37.3952C195.606 37.8242 196.536 38.4361 197.331 39.2004C198.124 39.9677 198.761 40.8801 199.207 41.8876C199.673 42.9292 199.916 44.0562 199.92 45.1967C199.929 45.4444 199.887 45.6914 199.795 45.9219C199.704 46.1524 199.565 46.3613 199.388 46.5355C199.201 46.7085 198.98 46.8427 198.74 46.9304C198.5 47.0181 198.245 47.0575 197.99 47.0463L186.965 47.0082ZM195.882 43.7722C195.63 42.8239 195.048 41.9961 194.239 41.4371C193.832 41.1535 193.381 40.939 192.904 40.8026C192.393 40.6572 191.863 40.5866 191.331 40.5932C190.802 40.5885 190.276 40.6645 189.77 40.8185C189.3 40.9569 188.856 41.1713 188.455 41.453C188.067 41.7317 187.728 42.0726 187.452 42.4619C187.173 42.8565 186.967 43.2968 186.841 43.7627L195.882 43.7722Z" fill="white"/>
<path d="M227.258 40.2763L230.09 46.8532L236.567 31.7928C236.713 31.4345 236.964 31.1283 237.287 30.914C237.596 30.7055 237.961 30.5949 238.335 30.5967C238.588 30.6008 238.838 30.6503 239.073 30.7426C239.319 30.8336 239.544 30.974 239.733 31.1551C239.913 31.3281 240.057 31.5352 240.156 31.7642C240.253 31.9989 240.305 32.2497 240.309 32.5034C240.315 32.7685 240.263 33.0316 240.156 33.2744L231.911 52.3989C231.76 52.7557 231.507 53.0602 231.183 53.2741C230.858 53.488 230.478 53.6018 230.09 53.6013C229.691 53.6043 229.3 53.4943 228.962 53.2841C228.624 53.0702 228.363 52.7562 228.214 52.3862L225.128 45.2478L222.042 52.418C221.891 52.7748 221.637 53.0792 221.313 53.2931C220.989 53.507 220.609 53.6208 220.22 53.6204C219.822 53.6255 219.43 53.5153 219.093 53.3031C218.758 53.0899 218.497 52.7799 218.345 52.4148L210.119 33.2902C210.012 33.0493 209.957 32.789 209.956 32.5256C209.955 32.2754 210.007 32.0278 210.109 31.7991C210.211 31.5617 210.358 31.3463 210.542 31.1646C210.727 30.978 210.951 30.8339 211.198 30.7426C211.428 30.6495 211.673 30.6001 211.921 30.5967C212.291 30.5978 212.652 30.7082 212.959 30.914C213.286 31.1268 213.54 31.4332 213.689 31.7928L220.166 46.8532L226.663 31.7928C226.818 31.4402 227.073 31.1402 227.396 30.9295C227.72 30.7188 228.098 30.6065 228.484 30.6062C228.737 30.6106 228.988 30.6601 229.223 30.7522C229.462 30.8433 229.679 30.9839 229.86 31.1646C230.036 31.3397 230.176 31.5464 230.274 31.7737C230.371 32.0082 230.42 32.2595 230.418 32.513C230.417 32.7783 230.362 33.0408 230.255 33.2839L227.258 40.2763Z" fill="white"/>
<path d="M240.555 45.1259C240.548 43.979 240.781 42.8432 241.24 41.7914C241.684 40.7765 242.315 39.8533 243.1 39.0693C243.886 38.2887 244.813 37.6633 245.832 37.226C246.884 36.7783 248.017 36.5514 249.16 36.5598C250.314 36.5528 251.456 36.7817 252.517 37.2324C254.574 38.1059 256.209 39.7435 257.074 41.7978C257.523 42.852 257.751 43.9869 257.743 45.1322V51.4965C257.745 51.7561 257.695 52.0135 257.596 52.2537C257.497 52.4939 257.351 52.7121 257.166 52.8956C256.983 53.0776 256.767 53.2239 256.53 53.3271C256.281 53.435 256.014 53.4901 255.743 53.4889C255.309 53.5014 254.885 53.3546 254.552 53.0764C254.235 52.8048 254.012 52.4407 253.915 52.0358C253.234 52.5468 252.483 52.9582 251.686 53.2573C250.88 53.5563 250.026 53.7078 249.167 53.7046C248.023 53.7125 246.889 53.4835 245.839 53.032C243.776 52.1492 242.133 50.5117 241.246 48.4571C240.786 47.4066 240.551 46.272 240.555 45.1259V45.1259ZM244.469 45.1259C244.466 45.7479 244.593 46.3637 244.842 46.9343C245.321 48.0555 246.215 48.9497 247.339 49.4311C247.914 49.6778 248.534 49.8032 249.16 49.7991C249.778 49.8008 250.389 49.6802 250.959 49.4444C251.53 49.2086 252.047 48.8622 252.482 48.4254C252.905 47.9963 253.241 47.4901 253.472 46.9343C253.832 46.0795 253.93 45.1379 253.753 44.2279C253.577 43.3179 253.135 42.4801 252.482 41.82C252.053 41.396 251.547 41.0568 250.991 40.8206C250.413 40.5742 249.79 40.4489 249.16 40.4526C248.537 40.4502 247.92 40.5754 247.348 40.8206C246.792 41.0587 246.284 41.3976 245.851 41.82C245.421 42.2436 245.078 42.7469 244.842 43.3016C244.592 43.8774 244.465 44.4986 244.469 45.1259V45.1259Z" fill="white"/>
<path d="M268.77 49.8389C269.037 49.8368 269.301 49.8919 269.544 50.0007C269.778 50.1026 269.988 50.2529 270.159 50.4417C270.329 50.6277 270.464 50.8426 270.557 51.0762C270.653 51.3165 270.702 51.5728 270.7 51.8313C270.708 52.0851 270.664 52.3378 270.57 52.5737C270.475 52.8096 270.333 53.0235 270.152 53.2021C269.971 53.3808 269.755 53.5203 269.517 53.612C269.279 53.7036 269.025 53.7455 268.77 53.7349C267.985 53.7414 267.205 53.6015 266.471 53.3224C265.776 53.0603 265.137 52.6708 264.586 52.1739C264.043 51.674 263.61 51.0681 263.312 50.3941C262.992 49.6673 262.821 48.8842 262.809 48.0908V32.545C262.807 32.2793 262.859 32.016 262.962 31.7709C263.056 31.5363 263.193 31.3211 263.366 31.1363C263.536 30.9611 263.738 30.82 263.962 30.7207C264.195 30.6181 264.448 30.5662 264.704 30.5684C264.969 30.5665 265.233 30.6183 265.478 30.7207C265.713 30.8198 265.929 30.9606 266.114 31.1363C266.306 31.3147 266.458 31.5304 266.562 31.77C266.666 32.0097 266.72 32.268 266.72 32.5291V47.9671C266.7 48.2293 266.742 48.4924 266.842 48.7357C266.942 48.979 267.098 49.1959 267.296 49.3694C267.717 49.6926 268.239 49.8587 268.77 49.8389V49.8389Z" fill="white"/>
<path d="M280.26 49.7115C280.528 49.7096 280.793 49.7648 281.037 49.8733C281.27 49.9752 281.479 50.1255 281.649 50.3143C281.819 50.5002 281.953 50.7152 282.047 50.9488C282.143 51.189 282.191 51.4454 282.19 51.7039C282.199 51.9561 282.155 52.2074 282.062 52.4421C281.969 52.6769 281.828 52.8899 281.649 53.0681C281.467 53.2482 281.25 53.389 281.011 53.4818C280.772 53.5746 280.516 53.6174 280.26 53.6074C279.475 53.6137 278.695 53.4738 277.961 53.195C277.266 52.9329 276.626 52.5433 276.076 52.0465C275.532 51.5476 275.098 50.9415 274.802 50.2667C274.482 49.5396 274.31 48.7568 274.295 47.9633V32.4175C274.293 32.1519 274.345 31.8885 274.448 31.6434C274.542 31.408 274.681 31.1927 274.856 31.0089C275.025 30.833 275.228 30.6919 275.451 30.5933C275.684 30.4906 275.936 30.4387 276.19 30.441C276.457 30.439 276.721 30.4908 276.967 30.5933C277.202 30.6938 277.418 30.8345 277.604 31.0089C277.793 31.1885 277.944 31.4043 278.047 31.6434C278.156 31.887 278.211 32.1509 278.209 32.4175V47.8555C278.19 48.1177 278.232 48.3808 278.332 48.6241C278.432 48.8674 278.587 49.0843 278.786 49.2578C279.209 49.5761 279.731 49.7366 280.26 49.7115V49.7115Z" fill="white"/>
<path d="M289.426 46.9988C289.579 47.4354 289.801 47.8446 290.085 48.2108C290.362 48.5769 290.694 48.898 291.069 49.1625C291.445 49.421 291.859 49.621 292.295 49.7558C292.751 49.8946 293.226 49.9641 293.703 49.962C294.94 49.962 295.915 49.6384 296.626 48.9912C296.84 48.8351 297.077 48.7111 297.327 48.6232C297.531 48.5495 297.746 48.5099 297.964 48.5058C298.285 48.4997 298.6 48.5904 298.868 48.766C299.127 48.9421 299.344 49.1714 299.505 49.4386C299.627 49.6343 299.717 49.8486 299.769 50.0731C299.822 50.2932 299.834 50.5212 299.805 50.7457C299.771 50.9815 299.698 51.2101 299.588 51.4214C299.461 51.6559 299.287 51.8612 299.075 52.0242C298.792 52.2771 298.489 52.5083 298.171 52.7159C297.805 52.9513 297.416 53.147 297.008 53.2996C296.528 53.4784 296.032 53.6133 295.528 53.7026C294.918 53.8094 294.3 53.8604 293.68 53.8548C292.527 53.8634 291.384 53.6344 290.324 53.1822C289.3 52.7479 288.369 52.1222 287.582 51.339C286.796 50.5561 286.165 49.6326 285.722 48.6169C285.272 47.5633 285.041 46.4303 285.041 45.2856C285.041 44.1409 285.272 43.0079 285.722 41.9544C286.609 39.9017 288.258 38.2695 290.324 37.3985C291.383 36.9563 292.519 36.7285 293.668 36.7285C294.816 36.7285 295.953 36.9563 297.012 37.3985C298.03 37.8251 298.96 38.4373 299.754 39.2037C300.546 39.9714 301.183 40.8837 301.629 41.8909C302.094 42.932 302.337 44.0576 302.343 45.1968C302.352 45.4445 302.31 45.6915 302.218 45.9221C302.127 46.1526 301.988 46.3616 301.811 46.5356C301.624 46.7102 301.404 46.8457 301.164 46.934C300.924 47.0223 300.668 47.0616 300.413 47.0496L289.426 46.9988ZM298.343 43.7628C298.213 43.2849 297.997 42.8346 297.706 42.4334C297.427 42.0408 297.083 41.6994 296.687 41.4245C296.28 41.1421 295.829 40.9278 295.352 40.79C294.842 40.6443 294.313 40.5717 293.782 40.5743C293.254 40.5711 292.728 40.6471 292.222 40.7995C291.75 40.9372 291.305 41.1516 290.903 41.4341C290.517 41.7126 290.179 42.0523 289.903 42.4398C289.624 42.8351 289.417 43.2765 289.292 43.7437L298.343 43.7628Z" fill="white"/>
<path d="M310.085 36.8975H316.362C316.628 36.8955 316.893 36.9473 317.139 37.0498C317.376 37.1491 317.592 37.2922 317.776 37.4717C317.96 37.6561 318.105 37.8749 318.204 38.1156C318.303 38.3562 318.353 38.614 318.352 38.874C318.352 39.1273 318.302 39.3781 318.203 39.6114C318.103 39.8448 317.958 40.0558 317.776 40.2319C317.591 40.4075 317.375 40.5473 317.139 40.6443C316.893 40.7468 316.628 40.7986 316.362 40.7966H310.085V45.3462C310.079 45.9609 310.205 46.5697 310.454 47.1323C310.69 47.6772 311.03 48.1716 311.454 48.5886C311.884 49.0064 312.39 49.3391 312.944 49.5689C313.525 49.8093 314.147 49.9312 314.776 49.9274C315.316 49.9316 315.853 49.8503 316.368 49.6863C316.875 49.5166 317.342 49.2432 317.737 48.8836C317.943 48.6932 318.174 48.533 318.425 48.4077C318.748 48.2449 319.115 48.1861 319.473 48.2396C319.831 48.293 320.164 48.456 320.425 48.706C320.637 48.8889 320.796 49.1242 320.887 49.3881C320.977 49.6511 321.014 49.9293 320.995 50.2066C320.977 50.4897 320.906 50.767 320.788 51.0251C320.666 51.289 320.494 51.527 320.282 51.7263C319.57 52.4159 318.722 52.9507 317.791 53.2967C315.726 54.0449 313.454 53.9974 311.422 53.1635C310.405 52.7349 309.478 52.1192 308.69 51.3488C307.903 50.5747 307.274 49.6556 306.839 48.6425C306.384 47.5898 306.153 46.4544 306.161 45.3081V33.7693C306.159 33.5037 306.214 33.2407 306.324 32.9983C306.428 32.7626 306.575 32.5477 306.757 32.3638C306.94 32.1839 307.156 32.0407 307.394 31.9419C307.633 31.8402 307.891 31.7883 308.151 31.7896C308.409 31.7883 308.664 31.8401 308.9 31.9419C309.129 32.0413 309.337 32.1846 309.511 32.3638C309.689 32.5475 309.831 32.7627 309.929 32.9983C310.032 33.2423 310.084 33.5046 310.081 33.7693L310.085 36.8975Z" fill="white"/>
<path d="M72.1817 11.5044C68.3648 5.21111 60.994 -0.989802 47.0808 0.132436L0 3.93484V19.5273L22.6624 18.1631C23.0361 18.1401 23.4106 18.1908 23.7646 18.3123C24.1186 18.4337 24.4451 18.6236 24.7253 18.8709C25.0056 19.1182 25.2341 19.4181 25.3979 19.7536C25.5616 20.089 25.6574 20.4533 25.6796 20.8256L26.2252 29.8189C26.2705 30.5707 26.0145 31.3097 25.5134 31.8737C25.0124 32.4377 24.3071 32.7805 23.5525 32.827L0 34.2463V84.298C0 84.298 3.97586 53.4013 29.1563 53.8678L49.7313 54.2485C49.7313 54.2485 72.027 55.3113 75.6561 30.1468C76.5993 23.6136 75.5015 16.9704 72.1817 11.5" fill="#28AC75"/>
<path d="M31.2591 1.36685L0 3.89079V19.4855L22.6602 18.119C23.415 18.0733 24.1571 18.3281 24.7233 18.8274C25.2896 19.3267 25.6336 20.0296 25.6796 20.7816L26.2252 29.7749C26.2485 30.1476 26.1979 30.5212 26.0762 30.8743C25.9544 31.2275 25.764 31.5533 25.5158 31.8331C25.2675 32.1129 24.9664 32.3412 24.6295 32.5049C24.2926 32.6686 23.9267 32.7646 23.5525 32.7873L0 34.2022V68.3688C0 68.3688 8.51275 48.5646 27.3473 48.7209L33.2625 48.7737C33.4612 48.7737 33.6578 48.7737 33.8544 48.7869C35.7606 48.8551 49.6761 48.8309 54.5311 34.1208C56.9608 26.7448 56.4152 18.6559 52.7817 12.1007C49.7645 6.65677 44.1298 1.26343 33.8169 1.26123C32.993 1.26123 32.1426 1.29644 31.2591 1.36685" fill="url(#paint0_linear_392_15)"/>
<path d="M15.7489 25.7568C15.7489 27.0474 16.804 28.0937 18.0947 28.0937C19.3853 28.0937 20.4404 27.0474 20.4404 25.7568C20.4404 24.4662 19.3853 23.4199 18.0947 23.4199C16.804 23.4199 15.7489 24.4662 15.7489 25.7568Z" fill="url(#paint1_linear_392_15)"/>
<defs>
<linearGradient id="paint0_linear_392_15" x1="0" y1="34.8161" x2="56.0132" y2="34.8161" gradientUnits="userSpaceOnUse">
<stop stop-color="#4AB37D"/>
<stop offset="0.27" stop-color="#4AB8A4"/>
<stop offset="0.59" stop-color="#49BDCC"/>
<stop offset="0.84" stop-color="#49C0E4"/>
<stop offset="1" stop-color="#49C1ED"/>
</linearGradient>
<linearGradient id="paint1_linear_392_15" x1="11.6795" y1="26.3964" x2="16.3634" y2="26.3964" gradientUnits="userSpaceOnUse">
<stop stop-color="#4AB37D"/>
<stop offset="0.27" stop-color="#4AB8A4"/>
<stop offset="0.59" stop-color="#49BDCC"/>
<stop offset="0.84" stop-color="#49C0E4"/>
<stop offset="1" stop-color="#49C1ED"/>
</linearGradient>
</defs>
</svg>
