<svg width="323" height="85" viewBox="0 0 323 85" fill="none" xmlns="http://www.w3.org/2000/svg">
<path d="M104.044 30.8094C105.21 30.7993 106.365 31.0297 107.437 31.4862C108.467 31.9222 109.404 32.5482 110.2 33.3314C110.992 34.1189 111.624 35.0525 112.058 36.0801C112.512 37.146 112.741 38.2934 112.731 39.4512C112.74 40.6026 112.508 41.7432 112.049 42.8C111.372 44.3603 110.25 45.6878 108.821 46.617C107.393 47.5463 105.721 48.0363 104.015 48.026H99.359V52.0196C99.3597 52.2806 99.3074 52.5391 99.2052 52.7794C99.1083 53.0115 98.963 53.2204 98.779 53.3924C98.5959 53.5634 98.3845 53.7016 98.1541 53.801C97.911 53.9022 97.6501 53.9543 97.3866 53.9543C97.1231 53.9543 96.8623 53.9022 96.6192 53.801C96.381 53.7074 96.1633 53.5686 95.9783 53.3924C95.7982 53.2184 95.6554 53.0099 95.5585 52.7794C95.4639 52.5375 95.4193 52.2791 95.4271 52.0196V32.7791C95.4251 32.5118 95.4774 32.2469 95.5809 32.0002C95.6775 31.762 95.8201 31.5451 96.0007 31.3617C96.1837 31.1814 96.4018 31.0401 96.6416 30.9467C96.8827 30.8444 97.1422 30.7922 97.4043 30.7935L104.044 30.8094ZM99.359 34.7329V44.0993H104.098C104.733 44.1046 105.361 43.9751 105.941 43.7194C106.501 43.4779 107.009 43.131 107.437 42.6979C107.861 42.2709 108.2 41.7684 108.437 41.2166C108.679 40.658 108.803 40.0562 108.803 39.448C108.803 38.8398 108.679 38.238 108.437 37.6794C108.195 37.1206 107.854 36.6093 107.431 36.1694C107.006 35.7289 106.5 35.3735 105.941 35.1223C105.366 34.8601 104.74 34.7271 104.108 34.7329H99.359Z" fill="white"/>
<path d="M119.8 52.0196C119.801 52.2797 119.752 52.5376 119.656 52.7794C119.565 53.0098 119.426 53.2186 119.249 53.3923C119.071 53.5624 118.865 53.7006 118.64 53.801C118.405 53.904 118.15 53.9562 117.893 53.9542C117.623 53.9555 117.355 53.9035 117.105 53.801C116.869 53.7039 116.652 53.5655 116.464 53.3923C116.279 53.2191 116.131 53.0107 116.028 52.7794C115.92 52.5407 115.864 52.2816 115.865 52.0196V46.1775C115.856 44.97 116.1 43.7738 116.583 42.6659C117.512 40.4989 119.244 38.7722 121.418 37.8454C122.52 37.3729 123.708 37.1316 124.908 37.1367H124.943C125.221 37.1196 125.498 37.1598 125.759 37.2549C126.02 37.3499 126.258 37.4977 126.459 37.689C126.637 37.8756 126.776 38.0956 126.868 38.3362C126.96 38.5768 127.003 38.8332 126.994 39.0905C126.996 39.3587 126.94 39.6243 126.831 39.8694C126.726 40.1041 126.576 40.3157 126.389 40.4919C126.201 40.668 125.984 40.8096 125.748 40.9101C125.496 41.0126 125.228 41.0647 124.956 41.0634H124.908C124.231 41.0605 123.56 41.1951 122.937 41.4592C122.331 41.7138 121.779 42.0823 121.313 42.5446C120.85 43.0065 120.475 43.5471 120.204 44.1408C119.925 44.7611 119.783 45.4339 119.787 46.1137L119.8 52.0196Z" fill="white"/>
<path d="M129.097 45.5487C129.089 44.3947 129.324 43.2518 129.786 42.1935C130.232 41.1709 130.866 40.2407 131.657 39.4512C132.446 38.665 133.38 38.0365 134.406 37.5997C135.463 37.1444 136.604 36.9128 137.755 36.9197C138.916 36.9122 140.066 37.1437 141.133 37.5997C142.161 38.0334 143.095 38.6623 143.882 39.4512C144.667 40.2394 145.292 41.1704 145.725 42.1935C146.169 43.2555 146.398 44.3948 146.398 45.5455C146.398 46.6962 146.169 47.8355 145.725 48.8975C145.293 49.923 144.668 50.8562 143.882 51.6461C143.095 52.4351 142.161 53.064 141.133 53.4977C140.066 53.9537 138.916 54.1852 137.755 54.1777C136.604 54.1845 135.463 53.953 134.406 53.4977C133.38 53.0609 132.446 52.4324 131.657 51.6461C130.866 50.8549 130.231 49.9225 129.786 48.8975C129.325 47.8409 129.09 46.7005 129.097 45.5487ZM133.035 45.5487C133.032 46.1735 133.16 46.7921 133.41 47.3651C133.648 47.926 133.993 48.4355 134.426 48.8656C134.856 49.2942 135.363 49.6376 135.922 49.8776C136.5 50.129 137.125 50.2563 137.755 50.2511C138.389 50.2553 139.016 50.128 139.598 49.8776C140.159 49.6414 140.669 49.2976 141.097 48.8656C141.523 48.4338 141.862 47.9244 142.094 47.3651C142.338 46.7906 142.462 46.1726 142.459 45.5487C142.463 44.9175 142.339 44.292 142.094 43.7099C141.863 43.1527 141.524 42.6461 141.097 42.219C140.667 41.792 140.158 41.4516 139.598 41.2166C139.015 40.9686 138.388 40.8426 137.755 40.8463C137.128 40.8438 136.508 40.9699 135.932 41.2166C135.371 41.4539 134.86 41.794 134.426 42.219C133.984 42.6547 133.634 43.1734 133.395 43.7449C133.156 44.3165 133.034 44.9296 133.035 45.5487Z" fill="white"/>
<path d="M151.679 38.8926V36.5238C151.676 35.7436 151.835 34.9711 152.143 34.254C152.733 32.8458 153.849 31.7207 155.255 31.1159C155.976 30.8017 156.756 30.6418 157.543 30.6467C157.872 30.6455 158.195 30.7253 158.485 30.8791C158.775 31.033 159.023 31.2559 159.205 31.5281C159.388 31.8003 159.5 32.1133 159.531 32.4391C159.563 32.7649 159.513 33.0934 159.386 33.3953C159.289 33.6278 159.144 33.8369 158.959 34.0082C158.771 34.1808 158.554 34.3191 158.318 34.4169C158.071 34.5199 157.805 34.5721 157.537 34.5701H157.447C157.19 34.5792 156.939 34.6434 156.71 34.7584C156.491 34.8704 156.295 35.0207 156.13 35.2022C155.963 35.3892 155.834 35.6058 155.748 35.8407C155.658 36.0804 155.612 36.3347 155.614 36.5909V38.9053H156.953C157.222 38.9034 157.488 38.9555 157.735 39.0586C157.974 39.1536 158.192 39.2946 158.376 39.4736C158.553 39.6513 158.696 39.8602 158.796 40.0897C158.898 40.3333 158.951 40.5949 158.95 40.8591C158.95 41.1252 158.898 41.3889 158.796 41.6348C158.699 41.8726 158.556 42.0894 158.376 42.2733C158.192 42.4522 157.974 42.5933 157.735 42.6883C157.488 42.7914 157.222 42.8435 156.953 42.8416H155.63V51.9941C155.63 52.5218 155.421 53.0282 155.047 53.402C154.868 53.583 154.656 53.7282 154.422 53.8297C154.184 53.9321 153.928 53.9843 153.669 53.983C153.407 53.9842 153.147 53.9321 152.906 53.8297C152.666 53.7304 152.449 53.585 152.265 53.402C151.894 53.0269 151.685 52.5211 151.685 51.9941V42.816H150.759C150.497 42.8167 150.238 42.7646 149.996 42.6628C149.757 42.5641 149.539 42.4199 149.356 42.2382C149.174 42.0541 149.03 41.8375 148.929 41.5997C148.827 41.3594 148.775 41.1009 148.776 40.8399C148.772 40.5818 148.822 40.3258 148.922 40.0876C149.022 39.8493 149.169 39.6339 149.356 39.4544C149.542 39.2778 149.759 39.1371 149.996 39.0394C150.238 38.9376 150.497 38.8855 150.759 38.8862L151.679 38.8926Z" fill="white"/>
<path d="M163.314 33.1399C163.312 32.848 163.371 32.5588 163.487 32.2907C163.596 32.0341 163.754 31.801 163.952 31.6044C164.151 31.4077 164.386 31.2506 164.644 31.1415C164.908 31.0299 165.192 30.9724 165.479 30.9724C165.765 30.9724 166.049 31.0299 166.313 31.1415C166.572 31.2525 166.809 31.4093 167.012 31.6044C167.214 31.799 167.374 32.0325 167.483 32.2907C167.599 32.5588 167.658 32.848 167.656 33.1399C167.657 33.4235 167.598 33.7043 167.483 33.9635C167.373 34.2184 167.213 34.4486 167.012 34.6403C166.809 34.8356 166.571 34.9915 166.31 35.1C166.047 35.2138 165.762 35.2725 165.475 35.2725C165.188 35.2725 164.904 35.2138 164.641 35.1C164.124 34.8803 163.712 34.4727 163.487 33.9603C163.372 33.7021 163.313 33.4225 163.314 33.1399ZM167.454 52.0196C167.454 52.5372 167.249 53.0337 166.884 53.402C166.706 53.5793 166.496 53.7213 166.265 53.8202C166.021 53.9238 165.758 53.9759 165.493 53.9734C165.231 53.9741 164.972 53.922 164.73 53.8202C164.493 53.7214 164.275 53.5796 164.089 53.402C163.905 53.2265 163.76 53.0144 163.663 52.7794C163.56 52.5393 163.508 52.2807 163.509 52.0196V39.0905C163.508 38.8315 163.564 38.5755 163.673 38.3403C163.777 38.1022 163.925 37.8857 164.109 37.7018C164.293 37.5158 164.513 37.3685 164.756 37.2687C164.999 37.1689 165.259 37.1186 165.522 37.1208C165.784 37.1172 166.044 37.1695 166.284 37.274C166.745 37.483 167.11 37.8583 167.303 38.3243C167.4 38.5626 167.449 38.8175 167.448 39.0745L167.454 52.0196Z" fill="white"/>
<path d="M178.91 50.034C179.179 50.0321 179.444 50.0876 179.689 50.1968C179.924 50.2993 180.134 50.4493 180.308 50.6373C180.477 50.8258 180.612 51.0417 180.708 51.2758C180.804 51.5176 180.853 51.7755 180.852 52.0356C180.86 52.291 180.816 52.5453 180.721 52.7826C180.626 53.0199 180.483 53.2352 180.3 53.415C180.118 53.5947 179.901 53.7351 179.662 53.8274C179.422 53.9196 179.167 53.9617 178.91 53.951C178.12 53.9566 177.335 53.8148 176.597 53.5328C175.896 53.2703 175.251 52.8782 174.696 52.3772C174.15 51.8743 173.714 51.2646 173.415 50.5863C173.093 49.8559 172.921 49.0691 172.908 48.2718V32.6163C172.906 32.349 172.959 32.084 173.062 31.8374C173.157 31.6011 173.295 31.3846 173.469 31.1989C173.64 31.0229 173.843 30.8819 174.068 30.7839C174.303 30.681 174.556 30.6287 174.812 30.6307C175.08 30.6287 175.346 30.6808 175.594 30.7839C175.831 30.8824 176.048 31.0231 176.235 31.1989C176.425 31.3792 176.577 31.5965 176.68 31.8374C176.79 32.0825 176.845 32.3481 176.843 32.6163V48.1505C176.824 48.4144 176.866 48.6793 176.966 48.9242C177.067 49.1691 177.224 49.3873 177.424 49.5615C177.848 49.8887 178.374 50.056 178.91 50.034Z" fill="white"/>
<path d="M188.13 47.3013C188.283 47.7409 188.507 48.1528 188.793 48.5208C189.07 48.89 189.405 49.2133 189.783 49.4785C190.161 49.7398 190.577 49.9412 191.017 50.0755C191.476 50.2165 191.953 50.2864 192.433 50.283C193.681 50.283 194.662 49.9574 195.375 49.3061C195.592 49.1508 195.829 49.0262 196.08 48.9358C196.286 48.8631 196.502 48.8233 196.721 48.8177C197.044 48.8137 197.36 48.9048 197.631 49.0795C197.892 49.2564 198.111 49.4886 198.272 49.7595C198.391 49.9521 198.48 50.1621 198.535 50.382C198.602 50.602 198.628 50.8325 198.612 51.062C198.579 51.2985 198.505 51.5276 198.394 51.7387C198.266 51.9746 198.09 52.1813 197.878 52.3453C197.593 52.6007 197.289 52.8334 196.968 53.0412C196.601 53.2793 196.208 53.4763 195.798 53.6286C195.315 53.8097 194.816 53.9465 194.308 54.0373C193.694 54.1449 193.072 54.1962 192.449 54.1905C191.289 54.198 190.139 53.9665 189.072 53.5105C188.042 53.0746 187.105 52.4461 186.313 51.6589C185.523 50.8686 184.889 49.9386 184.441 48.9167C183.989 47.8567 183.755 46.7166 183.755 45.5647C183.755 44.4127 183.989 43.2726 184.441 42.2127C185.334 40.1472 186.993 38.5049 189.072 37.6284C190.137 37.1824 191.281 36.9526 192.437 36.9526C193.592 36.9526 194.736 37.1824 195.801 37.6284C196.825 38.06 197.76 38.6758 198.56 39.4449C199.358 40.217 199.999 41.135 200.448 42.1488C200.917 43.1968 201.162 44.3309 201.166 45.4785C201.175 45.7277 201.132 45.9762 201.04 46.2082C200.948 46.4401 200.809 46.6504 200.63 46.8257C200.442 46.9997 200.22 47.1348 199.979 47.223C199.737 47.3112 199.481 47.3509 199.224 47.3396L188.13 47.3013ZM197.102 44.0451C196.849 43.0909 196.263 42.2579 195.449 41.6955C195.04 41.4101 194.586 41.1943 194.106 41.057C193.591 40.9107 193.058 40.8397 192.523 40.8463C191.991 40.8416 191.462 40.918 190.953 41.073C190.48 41.2123 190.033 41.428 189.629 41.7115C189.239 41.9919 188.898 42.335 188.62 42.7266C188.34 43.1237 188.131 43.5667 188.005 44.0355L197.102 44.0451Z" fill="white"/>
<path d="M228.674 40.527L231.523 47.1448L238.041 31.9906C238.188 31.6301 238.44 31.322 238.765 31.1063C239.076 30.8965 239.444 30.7853 239.82 30.7871C240.074 30.7912 240.326 30.841 240.563 30.9339C240.81 31.0254 241.036 31.1667 241.226 31.3489C241.408 31.523 241.553 31.7314 241.653 31.9619C241.75 32.198 241.802 32.4503 241.806 32.7057C241.812 32.9724 241.76 33.2371 241.653 33.4814L233.356 52.7251C233.204 53.0842 232.949 53.3905 232.623 53.6057C232.297 53.821 231.914 53.9355 231.523 53.935C231.122 53.938 230.729 53.8273 230.389 53.6158C230.049 53.4006 229.786 53.0846 229.636 52.7124L226.531 45.5295L223.425 52.7443C223.273 53.1033 223.018 53.4096 222.692 53.6249C222.366 53.8401 221.984 53.9547 221.592 53.9542C221.191 53.9594 220.797 53.8485 220.458 53.635C220.121 53.4204 219.859 53.1085 219.705 52.7411L211.428 33.4974C211.32 33.255 211.265 32.993 211.264 32.728C211.263 32.4762 211.315 32.227 211.418 31.997C211.521 31.7581 211.669 31.5413 211.854 31.3585C212.04 31.1707 212.266 31.0258 212.514 30.9339C212.745 30.8402 212.992 30.7904 213.242 30.7871C213.614 30.7882 213.977 30.8993 214.286 31.1063C214.615 31.3205 214.871 31.6288 215.02 31.9906L221.538 47.1448L228.075 31.9906C228.231 31.6358 228.488 31.3339 228.813 31.1219C229.139 30.9099 229.519 30.7969 229.908 30.7966C230.163 30.8011 230.414 30.8508 230.652 30.9435C230.892 31.0353 231.111 31.1767 231.292 31.3585C231.469 31.5347 231.61 31.7427 231.709 31.9714C231.806 32.2073 231.855 32.4602 231.853 32.7153C231.853 32.9823 231.797 33.2464 231.69 33.491L228.674 40.527Z" fill="white"/>
<path d="M242.054 45.4074C242.047 44.2534 242.281 43.1105 242.743 42.0522C243.19 41.031 243.825 40.102 244.615 39.3131C245.405 38.5277 246.338 37.8983 247.364 37.4583C248.422 37.0078 249.562 36.7795 250.713 36.7879C251.873 36.7809 253.023 37.0112 254.09 37.4647C256.16 38.3437 257.805 39.9915 258.676 42.0586C259.128 43.1194 259.357 44.2613 259.349 45.4138V51.8177C259.351 52.0789 259.3 52.338 259.201 52.5797C259.101 52.8214 258.954 53.0409 258.769 53.2255C258.584 53.4087 258.367 53.5559 258.128 53.6597C257.878 53.7683 257.609 53.8237 257.336 53.8225C256.899 53.8351 256.473 53.6874 256.138 53.4075C255.819 53.1341 255.595 52.7678 255.497 52.3604C254.812 52.8746 254.057 53.2885 253.254 53.5895C252.443 53.8903 251.584 54.0428 250.719 54.0396C249.568 54.0475 248.427 53.8171 247.37 53.3628C245.295 52.4745 243.641 50.8267 242.75 48.7594C242.286 47.7023 242.05 46.5607 242.054 45.4074ZM245.992 45.4074C245.99 46.0333 246.117 46.6529 246.367 47.227C246.849 48.3553 247.749 49.2551 248.88 49.7394C249.458 49.9877 250.083 50.1138 250.713 50.1098C251.334 50.1115 251.949 49.9901 252.523 49.7528C253.097 49.5155 253.618 49.167 254.055 48.7275C254.481 48.2957 254.819 47.7863 255.052 47.227C255.413 46.367 255.512 45.4195 255.335 44.5038C255.157 43.5881 254.712 42.7452 254.055 42.0809C253.623 41.6542 253.114 41.313 252.555 41.0753C251.973 40.8273 251.346 40.7013 250.713 40.705C250.086 40.7025 249.465 40.8286 248.889 41.0753C248.329 41.3149 247.819 41.6559 247.383 42.0809C246.95 42.5071 246.605 43.0136 246.367 43.5718C246.116 44.1511 245.988 44.7762 245.992 45.4074Z" fill="white"/>
<path d="M270.445 50.1496C270.713 50.1474 270.979 50.2029 271.224 50.3124C271.459 50.4149 271.67 50.5662 271.842 50.7561C272.013 50.9433 272.149 51.1595 272.243 51.3946C272.339 51.6364 272.388 51.8943 272.387 52.1544C272.395 52.4098 272.35 52.6641 272.255 52.9014C272.16 53.1387 272.017 53.354 271.835 53.5338C271.653 53.7135 271.435 53.8539 271.196 53.9462C270.957 54.0384 270.701 54.0805 270.445 54.0698C269.655 54.0764 268.87 53.9357 268.131 53.6548C267.432 53.3911 266.789 52.9991 266.234 52.4992C265.688 51.9961 265.252 51.3865 264.953 50.7082C264.631 49.9769 264.459 49.189 264.446 48.3906V32.7479C264.444 32.4806 264.497 32.2156 264.6 31.969C264.695 31.7329 264.833 31.5164 265.007 31.3305C265.178 31.1542 265.382 31.0122 265.606 30.9123C265.841 30.809 266.096 30.7568 266.353 30.759C266.62 30.7571 266.885 30.8092 267.132 30.9123C267.369 31.012 267.586 31.1537 267.773 31.3305C267.965 31.51 268.118 31.7271 268.223 31.9681C268.328 32.2092 268.382 32.4692 268.381 32.7319V48.2661C268.362 48.5299 268.404 48.7947 268.505 49.0395C268.606 49.2843 268.762 49.5026 268.961 49.6771C269.385 50.0024 269.91 50.1695 270.445 50.1496Z" fill="white"/>
<path d="M282.006 50.0212C282.276 50.0194 282.542 50.0749 282.788 50.184C283.023 50.2866 283.233 50.4379 283.404 50.6278C283.574 50.8149 283.71 51.0312 283.804 51.2663C283.9 51.508 283.949 51.7659 283.948 52.026C283.957 52.2799 283.913 52.5327 283.819 52.7689C283.726 53.0051 283.584 53.2195 283.404 53.3988C283.221 53.58 283.002 53.7217 282.762 53.8151C282.521 53.9085 282.264 53.9515 282.006 53.9415C281.216 53.9478 280.431 53.807 279.693 53.5265C278.993 53.2627 278.35 52.8707 277.796 52.3708C277.248 51.8688 276.812 51.2589 276.514 50.5799C276.193 49.8483 276.019 49.0607 276.004 48.2622V32.6195C276.002 32.3522 276.055 32.0873 276.158 31.8406C276.253 31.6038 276.392 31.3871 276.568 31.2021C276.739 31.0252 276.942 30.8831 277.168 30.7839C277.402 30.6806 277.655 30.6284 277.911 30.6307C278.179 30.6287 278.445 30.6808 278.693 30.7839C278.929 30.8851 279.146 31.0266 279.334 31.2021C279.524 31.3828 279.676 31.6 279.779 31.8406C279.889 32.0857 279.945 32.3513 279.943 32.6195V48.1537C279.923 48.4175 279.966 48.6823 280.066 48.9271C280.167 49.1719 280.323 49.3902 280.523 49.5647C280.948 49.885 281.473 50.0466 282.006 50.0212Z" fill="white"/>
<path d="M291.229 47.2917C291.383 47.731 291.607 48.1428 291.892 48.5112C292.171 48.8796 292.505 49.2027 292.883 49.4689C293.261 49.729 293.677 49.9303 294.116 50.0659C294.575 50.2055 295.053 50.2755 295.533 50.2734C296.778 50.2734 297.759 49.9478 298.474 49.2965C298.69 49.1394 298.927 49.0147 299.179 48.9262C299.385 48.8521 299.602 48.8122 299.82 48.8081C300.143 48.802 300.46 48.8932 300.73 49.0699C300.99 49.2471 301.209 49.4779 301.371 49.7467C301.494 49.9436 301.584 50.1593 301.637 50.3851C301.691 50.6067 301.702 50.8361 301.672 51.0619C301.639 51.2993 301.565 51.5292 301.455 51.7419C301.327 51.9778 301.151 52.1844 300.939 52.3485C300.653 52.6029 300.349 52.8355 300.029 53.0444C299.661 53.2812 299.269 53.4782 298.859 53.6318C298.376 53.8117 297.877 53.9474 297.369 54.0372C296.755 54.1447 296.133 54.196 295.51 54.1905C294.35 54.1991 293.2 53.9686 292.133 53.5137C291.103 53.0766 290.166 52.447 289.374 51.6589C288.583 50.8712 287.948 49.9419 287.502 48.9198C287.05 47.8598 286.817 46.7197 286.817 45.5678C286.817 44.416 287.05 43.2759 287.502 42.2158C288.395 40.1503 290.054 38.508 292.133 37.6316C293.198 37.1866 294.342 36.9574 295.497 36.9574C296.653 36.9574 297.797 37.1866 298.862 37.6316C299.887 38.0609 300.823 38.6769 301.621 39.448C302.419 40.2205 303.059 41.1385 303.509 42.152C303.976 43.1995 304.22 44.3321 304.226 45.4784C304.236 45.7277 304.194 45.9763 304.101 46.2082C304.009 46.4402 303.87 46.6505 303.691 46.8256C303.504 47.0013 303.282 47.1376 303.041 47.2265C302.799 47.3153 302.542 47.3549 302.285 47.3428L291.229 47.2917ZM300.202 44.0355C300.071 43.5547 299.854 43.1015 299.561 42.6979C299.281 42.3028 298.934 41.9593 298.535 41.6827C298.126 41.3985 297.672 41.1829 297.193 41.0442C296.679 40.8976 296.147 40.8245 295.613 40.8271C295.081 40.824 294.552 40.9004 294.043 41.0538C293.568 41.1923 293.12 41.4081 292.716 41.6923C292.327 41.9725 291.987 42.3144 291.71 42.7043C291.429 43.102 291.22 43.5462 291.094 44.0163L300.202 44.0355Z" fill="white"/>
<path d="M312.017 37.1272H318.333C318.601 37.1252 318.867 37.1774 319.115 37.2805C319.353 37.3804 319.571 37.5244 319.755 37.705C319.941 37.8906 320.087 38.1107 320.187 38.3529C320.286 38.595 320.337 38.8544 320.335 39.1161C320.336 39.371 320.285 39.6233 320.185 39.8581C320.085 40.0929 319.939 40.3052 319.755 40.4824C319.569 40.6591 319.352 40.7998 319.115 40.8974C318.867 41.0005 318.601 41.0526 318.333 41.0507H312.017V45.6285C312.011 46.2471 312.138 46.8597 312.388 47.4258C312.626 47.9741 312.968 48.4715 313.395 48.8911C313.827 49.3116 314.336 49.6463 314.894 49.8776C315.478 50.1195 316.105 50.2421 316.737 50.2383C317.28 50.2426 317.821 50.1607 318.339 49.9957C318.85 49.8249 319.319 49.5498 319.717 49.188C319.924 48.9965 320.157 48.8352 320.409 48.7092C320.734 48.5453 321.103 48.4862 321.463 48.54C321.824 48.5937 322.159 48.7577 322.422 49.0093C322.634 49.1934 322.795 49.4301 322.886 49.6956C322.977 49.9603 323.014 50.2402 322.995 50.5193C322.976 50.8041 322.906 51.0832 322.787 51.3429C322.664 51.6084 322.491 51.8479 322.277 52.0484C321.561 52.7423 320.708 53.2804 319.771 53.6286C317.693 54.3814 315.407 54.3336 313.362 53.4946C312.339 53.0633 311.406 52.4438 310.613 51.6685C309.821 50.8897 309.189 49.9648 308.751 48.9454C308.293 47.8862 308.061 46.7436 308.069 45.5902V33.9795C308.066 33.7122 308.122 33.4476 308.232 33.2038C308.338 32.9666 308.485 32.7503 308.668 32.5653C308.852 32.3843 309.07 32.2401 309.309 32.1407C309.55 32.0384 309.809 31.9862 310.071 31.9875C310.33 31.9862 310.587 32.0384 310.825 32.1407C311.056 32.2407 311.265 32.385 311.44 32.5653C311.619 32.7501 311.761 32.9667 311.86 33.2038C311.963 33.4492 312.016 33.7132 312.013 33.9795L312.017 37.1272Z" fill="white"/>
<path d="M72.6314 11.5761C68.7908 5.24358 61.3741 -0.995969 47.3741 0.133261L0 3.95936V19.649L22.8036 18.2762C23.1796 18.2531 23.5565 18.3042 23.9127 18.4264C24.2689 18.5486 24.5974 18.7396 24.8794 18.9885C25.1614 19.2373 25.3914 19.5391 25.5561 19.8766C25.7209 20.2142 25.8172 20.5807 25.8396 20.9554L26.3886 30.0047C26.4342 30.7612 26.1766 31.5048 25.6724 32.0723C25.1682 32.6398 24.4586 32.9847 23.6993 33.0315L0 34.4596V84.8233C0 84.8233 4.00063 53.734 29.3379 54.2034L50.0412 54.5865C50.0412 54.5865 72.4758 55.6559 76.1275 30.3346C77.0765 23.7607 75.9719 17.0761 72.6314 11.5717" fill="#28AC75"/>
<path d="M31.4538 1.37548L0 3.91514V19.607L22.8014 18.232C23.5609 18.186 24.3076 18.4424 24.8774 18.9448C25.4472 19.4472 25.7933 20.1545 25.8396 20.9112L26.3886 29.9605C26.4121 30.3355 26.3611 30.7114 26.2386 31.0668C26.1161 31.4222 25.9245 31.75 25.6747 32.0315C25.425 32.3131 25.1219 32.5428 24.783 32.7075C24.444 32.8723 24.0757 32.9689 23.6993 32.9917L0 34.4154V68.7949C0 68.7949 8.56579 48.8673 27.5176 49.0245L33.4697 49.0777C33.6697 49.0777 33.8675 49.0777 34.0653 49.091C35.9834 49.1596 49.9856 49.1353 54.8708 34.3335C57.3157 26.9116 56.7667 18.7723 53.1106 12.1762C50.0745 6.69836 44.4047 1.27141 34.0276 1.2692C33.1985 1.2692 32.3428 1.30462 31.4538 1.37548Z" fill="url(#paint0_linear_275_13)"/>
<path d="M15.847 25.9174C15.847 27.216 16.9087 28.2688 18.2074 28.2688C19.5061 28.2688 20.5678 27.216 20.5678 25.9174C20.5678 24.6187 19.5061 23.5659 18.2074 23.5659C16.9087 23.5659 15.847 24.6187 15.847 25.9174Z" fill="url(#paint1_linear_275_13)"/>
<defs>
<linearGradient id="paint0_linear_275_13" x1="0" y1="35.0332" x2="56.3622" y2="35.0332" gradientUnits="userSpaceOnUse">
<stop stop-color="#4AB37D"/>
<stop offset="0.27" stop-color="#4AB8A4"/>
<stop offset="0.59" stop-color="#49BDCC"/>
<stop offset="0.84" stop-color="#49C0E4"/>
<stop offset="1" stop-color="#49C1ED"/>
</linearGradient>
<linearGradient id="paint1_linear_275_13" x1="11.7523" y1="26.561" x2="16.4654" y2="26.561" gradientUnits="userSpaceOnUse">
<stop stop-color="#4AB37D"/>
<stop offset="0.27" stop-color="#4AB8A4"/>
<stop offset="0.59" stop-color="#49BDCC"/>
<stop offset="0.84" stop-color="#49C0E4"/>
<stop offset="1" stop-color="#49C1ED"/>
</linearGradient>
</defs>
</svg>
