<svg width="77" height="85" viewBox="0 0 77 85" fill="none" xmlns="http://www.w3.org/2000/svg">
<path d="M72.6314 11.5761C68.7908 5.24358 61.3741 -0.995969 47.3741 0.133261L0 3.95936V19.649L22.8036 18.2762C23.1796 18.2531 23.5565 18.3042 23.9127 18.4264C24.2689 18.5486 24.5974 18.7396 24.8794 18.9885C25.1614 19.2373 25.3914 19.5391 25.5561 19.8766C25.7209 20.2142 25.8172 20.5807 25.8396 20.9554L26.3886 30.0047C26.4342 30.7612 26.1766 31.5048 25.6724 32.0723C25.1682 32.6398 24.4586 32.9847 23.6993 33.0315L0 34.4596V84.8233C0 84.8233 4.00063 53.734 29.3379 54.2034L50.0412 54.5865C50.0412 54.5865 72.4758 55.6559 76.1275 30.3346C77.0765 23.7607 75.9719 17.0761 72.6314 11.5717" fill="#28AC75"/>
<path d="M31.4538 1.37548L0 3.91514V19.607L22.8014 18.232C23.5609 18.186 24.3076 18.4424 24.8774 18.9448C25.4472 19.4472 25.7933 20.1545 25.8396 20.9112L26.3886 29.9605C26.4121 30.3355 26.3611 30.7114 26.2386 31.0668C26.1161 31.4222 25.9245 31.75 25.6747 32.0315C25.425 32.3131 25.1219 32.5428 24.783 32.7075C24.444 32.8723 24.0757 32.9689 23.6993 32.9917L0 34.4154V68.7949C0 68.7949 8.56579 48.8673 27.5176 49.0245L33.4697 49.0777C33.6697 49.0777 33.8675 49.0777 34.0653 49.091C35.9834 49.1596 49.9856 49.1353 54.8708 34.3335C57.3157 26.9116 56.7667 18.7723 53.1106 12.1762C50.0745 6.69836 44.4047 1.27141 34.0276 1.2692C33.1985 1.2692 32.3428 1.30462 31.4538 1.37548Z" fill="url(#paint0_linear_2_24)"/>
<path d="M15.847 25.9174C15.847 27.216 16.9087 28.2688 18.2074 28.2688C19.5061 28.2688 20.5678 27.216 20.5678 25.9174C20.5678 24.6187 19.5061 23.5659 18.2074 23.5659C16.9087 23.5659 15.847 24.6187 15.847 25.9174Z" fill="url(#paint1_linear_2_24)"/>
<defs>
<linearGradient id="paint0_linear_2_24" x1="0" y1="35.0332" x2="56.3622" y2="35.0332" gradientUnits="userSpaceOnUse">
<stop stop-color="#4AB37D"/>
<stop offset="0.27" stop-color="#4AB8A4"/>
<stop offset="0.59" stop-color="#49BDCC"/>
<stop offset="0.84" stop-color="#49C0E4"/>
<stop offset="1" stop-color="#49C1ED"/>
</linearGradient>
<linearGradient id="paint1_linear_2_24" x1="11.7523" y1="26.561" x2="16.4654" y2="26.561" gradientUnits="userSpaceOnUse">
<stop stop-color="#4AB37D"/>
<stop offset="0.27" stop-color="#4AB8A4"/>
<stop offset="0.59" stop-color="#49BDCC"/>
<stop offset="0.84" stop-color="#49C0E4"/>
<stop offset="1" stop-color="#49C1ED"/>
</linearGradient>
</defs>
</svg>
