<svg width="628" height="650" viewBox="0 0 628 650" fill="none" xmlns="http://www.w3.org/2000/svg">
<g clip-path="url(#clip0_155_27)">
<path d="M580.475 129.616C587.237 126.784 592.048 119.801 592.078 111.586C592.122 100.817 583.981 92.0588 573.889 92.0148C563.798 91.9708 555.583 100.656 555.539 111.424C555.51 119.713 560.351 126.77 567.186 129.616C539.067 133.856 540.343 164.415 540.343 164.415L606.834 164.723C606.834 164.723 608.345 133.826 580.475 129.616Z" fill="#F5F5F5"/>
<path d="M187.59 15.3749L144.129 0L101.092 15.1695C95.5919 17.7222 90.7808 19.2626 90.7808 24.2947V49.3962C90.7808 66.825 95.4159 84.0924 104.95 99.35C112.974 112.187 125.412 125.39 144.539 133.797C162.126 128.163 175.254 113.17 183.292 100.333C192.827 85.09 197.462 67.808 197.462 50.3792V27.8156C197.462 20.627 193.589 17.1207 187.576 15.3896L187.59 15.3749Z" fill="#F5F5F5"/>
<path d="M158.562 55.8806C158.562 49.2347 153.179 43.8506 146.534 43.8506C139.89 43.8506 134.506 49.2347 134.506 55.8806C134.506 61.3821 138.217 65.974 143.249 67.3971V85.3833H149.82V67.3971C154.851 65.9593 158.562 61.3674 158.562 55.8806Z" fill="#EBEBEB"/>
<path d="M557.109 248.008L564.516 252.013L561.187 257.588L553.706 253.172L553.838 261.403H547.443L547.516 253.099L540.035 257.588L536.764 252.013L544.172 248.008L536.764 243.93L540.035 238.355L547.516 242.844L547.443 234.541H553.838L553.706 242.844L561.187 238.355L564.516 243.93L557.109 248.008Z" fill="#E0E0E0"/>
<path d="M587.971 248.008L595.378 252.013L592.048 257.588L584.568 253.172L584.7 261.403H578.304L578.378 253.099L570.897 257.588L567.626 252.013L575.033 248.008L567.626 243.93L570.897 238.355L578.378 242.844L578.304 234.541H584.7L584.568 242.844L592.048 238.355L595.378 243.93L587.971 248.008Z" fill="#E0E0E0"/>
<path d="M618.832 248.008L626.24 252.013L622.91 257.588L615.429 253.172L615.561 261.403H609.166L609.239 253.099L601.759 257.588L598.488 252.013L605.895 248.008L598.488 243.93L601.759 238.355L609.239 242.844L609.166 234.541H615.561L615.429 242.844L622.91 238.355L626.24 243.93L618.832 248.008Z" fill="#E0E0E0"/>
<path d="M304.803 599.166V644.733H371.44H444.927V599.166H304.803Z" fill="#F5F5F5"/>
<path d="M298.936 586.432V599.166H449.827V586.432H371.44H298.936Z" fill="#EBEBEB"/>
<path d="M374.374 644.733H444.927V599.166H449.827V586.432H371.44V597.992L374.374 644.733Z" fill="#EBEBEB"/>
<path d="M352.812 606.516H324.4V613.382H352.812V606.516Z" fill="#E0E0E0"/>
<path d="M357.242 621.949H320.747V636.429H357.242V621.949Z" fill="white"/>
<path d="M326.365 540.923V586.491H393.002H466.489V540.923H326.365Z" fill="#F5F5F5"/>
<path d="M320.483 528.174V540.923H471.389V528.174H393.002H320.483Z" fill="#EBEBEB"/>
<path d="M395.936 586.49H466.489V540.923H471.389V528.174H393.002V539.735L395.936 586.49Z" fill="#EBEBEB"/>
<path d="M374.374 548.273H345.962V555.139H374.374V548.273Z" fill="#E0E0E0"/>
<path d="M378.804 563.707H342.309V578.187H378.804V563.707Z" fill="white"/>
<path d="M628 645.086C628 645.291 487.406 645.467 314.015 645.467C140.623 645.467 0 645.291 0 645.086C0 644.88 140.564 644.704 314.015 644.704C487.465 644.704 628 644.88 628 645.086Z" fill="#263238"/>
<path d="M498.392 27.6394H236.362C231.047 27.6394 226.739 31.9482 226.739 37.2634V278.376C226.739 283.691 231.047 288 236.362 288H498.392C503.707 288 508.015 283.691 508.015 278.376V37.2634C508.015 31.9482 503.707 27.6394 498.392 27.6394Z" fill="white"/>
<path d="M498.393 288C498.393 288 498.627 287.971 499.082 287.942C499.537 287.912 500.226 287.81 501.091 287.56C501.957 287.296 503.013 286.841 504.084 286.035C505.155 285.228 506.255 284.069 507.003 282.47C507.839 280.885 508 278.875 507.927 276.689C507.927 274.503 507.927 272.097 507.912 269.501C507.912 264.307 507.897 258.307 507.883 251.558C507.853 224.55 507.809 185.496 507.765 137.244C507.765 113.111 507.736 86.6744 507.721 58.3013C507.721 51.2153 507.692 44.012 507.677 36.6767C507.501 33.1264 505.052 29.7814 501.649 28.5491C499.962 27.8449 498.128 27.9623 496.236 27.9623C494.359 27.9623 492.481 27.9623 490.589 27.9623C475.481 27.9623 459.918 27.9623 443.974 27.9769C380.168 27.9769 310.025 27.9916 236.406 28.0063C234.191 28.0063 232.005 28.8132 230.333 30.2656C228.661 31.7033 227.531 33.7572 227.238 35.9285C227.091 36.9994 227.15 38.1584 227.135 39.3027V42.721C227.135 44.995 227.135 47.2836 227.135 49.5575C227.135 58.6534 227.135 67.6905 227.135 76.6543C227.135 94.5819 227.135 112.26 227.135 129.63C227.135 164.356 227.121 197.864 227.106 229.772C227.106 245.734 227.106 261.285 227.091 276.396C227.091 277.335 227.062 278.303 227.135 279.198C227.238 280.093 227.414 281.003 227.766 281.839C228.441 283.526 229.614 284.978 231.096 286.005C232.577 287.032 234.337 287.604 236.127 287.648C237.975 287.648 239.809 287.648 241.642 287.663C248.976 287.663 256.193 287.663 263.278 287.663C291.646 287.678 318.078 287.692 342.207 287.707C390.45 287.766 429.496 287.795 456.5 287.824C469.98 287.854 480.453 287.883 487.567 287.898C491.117 287.912 493.816 287.927 495.65 287.942C497.468 287.942 498.407 287.986 498.407 287.986C498.407 287.986 497.468 288.015 495.65 288.03C493.816 288.03 491.117 288.044 487.567 288.074C480.453 288.088 469.98 288.118 456.5 288.147C429.511 288.176 390.465 288.221 342.207 288.265C318.078 288.265 291.646 288.294 263.278 288.309C256.178 288.309 248.976 288.309 241.642 288.309C239.809 288.309 237.96 288.309 236.112 288.309C234.205 288.265 232.299 287.648 230.714 286.548C229.13 285.448 227.869 283.893 227.15 282.088C226.769 281.193 226.578 280.225 226.475 279.257C226.402 278.274 226.446 277.349 226.431 276.396C226.431 261.285 226.431 245.719 226.417 229.772C226.417 197.864 226.417 164.37 226.387 129.63C226.387 112.26 226.387 94.5966 226.387 76.6543C226.387 67.6905 226.387 58.6534 226.387 49.5575C226.387 47.2836 226.387 45.0096 226.387 42.721V39.3027C226.387 38.1584 226.329 37.0288 226.505 35.8258C226.827 33.4638 228.03 31.2338 229.849 29.6934C231.653 28.1237 234.029 27.2434 236.42 27.2434C310.039 27.2434 380.182 27.2581 443.989 27.2728C459.933 27.2728 475.496 27.2728 490.604 27.2874C492.496 27.2874 494.373 27.2874 496.251 27.2874C498.085 27.2874 500.094 27.1701 501.898 27.9329C505.536 29.2533 508.161 32.8329 508.337 36.6327C508.337 43.968 508.337 51.186 508.352 58.2866C508.337 86.6597 508.323 113.096 508.308 137.23C508.264 185.482 508.22 224.55 508.191 251.544C508.191 258.292 508.161 264.278 508.161 269.486C508.161 272.083 508.161 274.474 508.147 276.675C508.22 278.846 508.029 280.929 507.179 282.528C506.416 284.157 505.286 285.33 504.201 286.123C503.101 286.929 502.03 287.37 501.165 287.619C500.285 287.854 499.595 287.942 499.126 287.956C498.671 287.971 498.437 287.971 498.437 287.971L498.393 288Z" fill="#263238"/>
<path d="M247.964 45.6846C247.964 48.3694 245.793 50.5406 243.094 50.5406C240.395 50.5406 238.239 48.3694 238.239 45.6846C238.239 42.9999 240.41 40.814 243.094 40.814C245.778 40.814 247.964 42.9852 247.964 45.6846Z" fill="#263238"/>
<path d="M257.308 50.5406C259.989 50.5406 262.163 48.3665 262.163 45.6846C262.163 43.0027 259.989 40.8286 257.308 40.8286C254.626 40.8286 252.453 43.0027 252.453 45.6846C252.453 48.3665 254.626 50.5406 257.308 50.5406Z" fill="#263238"/>
<path d="M271.506 50.5406C274.188 50.5406 276.361 48.3665 276.361 45.6846C276.361 43.0027 274.188 40.8286 271.506 40.8286C268.825 40.8286 266.651 43.0027 266.651 45.6846C266.651 48.3665 268.825 50.5406 271.506 50.5406Z" fill="#263238"/>
<path d="M508.015 59.4898C508.015 59.6952 445.045 59.8713 367.392 59.8713C289.739 59.8713 226.754 59.6952 226.754 59.4898C226.754 59.2844 289.709 59.1084 367.392 59.1084C445.074 59.1084 508.015 59.2844 508.015 59.4898Z" fill="#263238"/>
<path d="M407.113 157.563C407.113 157.563 407.23 157.402 407.45 157.108C407.509 157.035 407.568 156.947 407.641 156.859C407.7 156.756 407.759 156.653 407.832 156.536C407.964 156.301 408.14 156.023 408.257 155.685C408.331 155.524 408.404 155.348 408.477 155.157C408.536 154.966 408.595 154.761 408.653 154.541C408.727 154.321 408.756 154.101 408.8 153.851C408.829 153.602 408.903 153.367 408.903 153.088C409.02 152.032 408.947 150.8 408.741 149.435C408.316 146.707 407.157 143.494 405.397 140.002C403.622 136.496 401.187 132.74 398.195 128.808C395.203 124.877 391.609 120.828 387.458 116.749C383.321 112.685 378.628 108.592 373.376 104.719C370.751 102.783 367.979 100.905 365.045 99.1442C362.126 97.3691 359.046 95.726 355.789 94.2882C352.548 92.8798 349.115 91.6475 345.492 91.0607C343.688 90.7819 341.825 90.6499 340.007 90.9286C339.097 91.0753 338.202 91.3248 337.352 91.6915C336.516 92.1023 335.753 92.6304 335.122 93.32C334.521 94.0242 334.066 94.8457 333.758 95.7113C333.479 96.5915 333.333 97.5158 333.289 98.44C333.215 100.289 333.567 102.122 334.051 103.883C335.034 107.404 336.648 110.675 338.422 113.742C340.212 116.808 342.207 119.683 344.29 122.383C346.373 125.082 348.558 127.635 350.773 130.026C355.217 134.809 359.809 139.005 364.326 142.658C368.844 146.311 373.288 149.421 377.528 151.944C381.767 154.467 385.786 156.463 389.467 157.827C393.134 159.191 396.464 159.969 399.222 160.086C400.601 160.145 401.833 160.072 402.859 159.837C403.123 159.793 403.358 159.705 403.593 159.646C403.827 159.588 404.062 159.514 404.253 159.426C404.458 159.338 404.664 159.265 404.84 159.191C405.016 159.103 405.192 159.001 405.353 158.913C405.676 158.751 405.925 158.546 406.16 158.385C406.262 158.296 406.38 158.238 406.468 158.164C406.556 158.091 406.629 158.018 406.688 157.944C406.952 157.68 407.098 157.563 407.098 157.563C407.098 157.563 406.966 157.695 406.702 157.959C406.629 158.032 406.556 158.106 406.482 158.179C406.394 158.252 406.292 158.326 406.174 158.414C405.954 158.575 405.705 158.781 405.382 158.942C405.221 159.03 405.06 159.133 404.869 159.221C404.678 159.294 404.488 159.382 404.267 159.47C404.062 159.558 403.842 159.632 403.593 159.69C403.358 159.749 403.109 159.852 402.845 159.881C401.803 160.116 400.571 160.204 399.178 160.145C396.405 160.042 393.061 159.279 389.379 157.915C385.683 156.565 381.664 154.585 377.41 152.061C373.156 149.538 368.712 146.428 364.18 142.775C359.662 139.122 355.056 134.926 350.597 130.143C348.367 127.752 346.182 125.199 344.099 122.485C342.001 119.786 340.007 116.896 338.202 113.83C336.428 110.749 334.799 107.477 333.802 103.912C333.318 102.137 332.966 100.289 333.039 98.4107C333.069 97.4718 333.23 96.5329 333.509 95.6233C333.831 94.7284 334.286 93.8775 334.917 93.1586C335.562 92.4544 336.354 91.8969 337.205 91.4861C338.07 91.09 338.994 90.8406 339.919 90.6939C341.781 90.4152 343.659 90.5472 345.478 90.8259C349.115 91.4128 352.562 92.6598 355.819 94.0682C359.075 95.5059 362.17 97.1637 365.089 98.9388C368.023 100.714 370.795 102.592 373.435 104.528C378.701 108.416 383.395 112.509 387.531 116.588C391.668 120.666 395.261 124.745 398.254 128.676C401.246 132.608 403.681 136.393 405.441 139.914C407.201 143.42 408.36 146.648 408.771 149.391C408.976 150.756 409.035 152.003 408.917 153.059C408.917 153.323 408.844 153.573 408.8 153.822C408.756 154.071 408.727 154.291 408.653 154.511C408.595 154.732 408.536 154.937 408.477 155.128C408.404 155.318 408.331 155.494 408.257 155.67C408.125 156.008 407.964 156.287 407.817 156.521C407.744 156.639 407.685 156.756 407.626 156.844C407.553 156.932 407.494 157.02 407.436 157.093C407.201 157.387 407.084 157.534 407.084 157.534L407.113 157.563Z" fill="#27AC75"/>
<path d="M420.417 125.42C420.417 125.42 420.402 125.229 420.373 124.862C420.373 124.774 420.358 124.671 420.344 124.554C420.329 124.437 420.3 124.319 420.27 124.187C420.212 123.923 420.153 123.6 420.021 123.263C419.962 123.087 419.904 122.911 419.83 122.72C419.742 122.544 419.64 122.353 419.551 122.148C419.463 121.943 419.331 121.752 419.199 121.546C419.067 121.341 418.95 121.121 418.774 120.916C418.158 120.05 417.278 119.184 416.222 118.304C414.095 116.544 411.088 114.915 407.436 113.492C403.783 112.055 399.456 110.866 394.616 109.927C389.775 108.988 384.377 108.358 378.584 108.079C372.79 107.8 366.57 107.873 360.072 108.49C356.831 108.798 353.501 109.252 350.142 109.869C346.783 110.499 343.38 111.306 340.006 112.407C336.647 113.522 333.259 114.886 330.179 116.852C328.653 117.849 327.172 118.979 325.998 120.402C325.412 121.121 324.913 121.899 324.532 122.735C324.18 123.586 323.974 124.495 323.96 125.434C323.974 126.358 324.18 127.283 324.532 128.134C324.913 128.985 325.412 129.762 325.998 130.481C327.172 131.904 328.653 133.048 330.179 134.031C333.259 136.012 336.647 137.361 340.006 138.476C343.38 139.577 346.783 140.398 350.142 141.014C353.501 141.645 356.816 142.085 360.072 142.394C366.57 143.01 372.79 143.068 378.598 142.804C384.392 142.526 389.775 141.895 394.63 140.956C399.471 140.017 403.798 138.829 407.45 137.391C411.103 135.968 414.095 134.339 416.236 132.579C417.293 131.699 418.173 130.833 418.789 129.967C418.965 129.762 419.082 129.527 419.214 129.337C419.346 129.131 419.478 128.941 419.566 128.735C419.669 128.53 419.757 128.339 419.845 128.163C419.918 127.972 419.977 127.796 420.036 127.62C420.168 127.283 420.226 126.96 420.285 126.696C420.314 126.564 420.344 126.432 420.358 126.329C420.358 126.212 420.373 126.109 420.388 126.021C420.417 125.654 420.432 125.464 420.432 125.464C420.432 125.464 420.432 125.654 420.402 126.021C420.402 126.109 420.402 126.226 420.388 126.329C420.388 126.446 420.344 126.564 420.314 126.711C420.256 126.975 420.212 127.297 420.08 127.635C420.021 127.811 419.962 127.987 419.889 128.178C419.801 128.368 419.713 128.559 419.61 128.75C419.522 128.955 419.39 129.161 419.258 129.366C419.126 129.571 419.009 129.806 418.833 130.011C418.217 130.892 417.351 131.772 416.28 132.652C414.154 134.427 411.147 136.07 407.494 137.508C403.842 138.961 399.515 140.164 394.66 141.103C389.805 142.056 384.421 142.687 378.613 142.98C372.804 143.259 366.585 143.2 360.072 142.599C356.816 142.291 353.486 141.851 350.127 141.22C346.768 140.604 343.351 139.782 339.962 138.682C336.589 137.567 333.2 136.203 330.076 134.207C328.536 133.21 327.04 132.065 325.837 130.613C325.236 129.894 324.722 129.087 324.341 128.222C323.989 127.341 323.769 126.402 323.754 125.434C323.769 124.481 323.989 123.527 324.356 122.647C324.737 121.781 325.265 120.974 325.852 120.255C327.054 118.803 328.551 117.659 330.091 116.661C333.2 114.681 336.589 113.302 339.962 112.201C343.351 111.101 346.754 110.279 350.127 109.663C353.486 109.032 356.816 108.592 360.072 108.284C366.585 107.683 372.804 107.609 378.613 107.903C384.421 108.196 389.805 108.842 394.66 109.781C399.515 110.734 403.842 111.937 407.494 113.375C411.147 114.813 414.154 116.456 416.28 118.231C417.351 119.111 418.217 119.991 418.833 120.872C419.009 121.077 419.126 121.312 419.258 121.517C419.39 121.723 419.522 121.928 419.61 122.133C419.713 122.339 419.801 122.529 419.889 122.705C419.962 122.896 420.021 123.087 420.08 123.248C420.212 123.586 420.27 123.908 420.314 124.173C420.344 124.305 420.373 124.437 420.388 124.554C420.388 124.671 420.388 124.774 420.402 124.862C420.432 125.229 420.432 125.42 420.432 125.42H420.417Z" fill="#27AC75"/>
<path d="M402.786 85.398C402.786 85.398 402.624 85.2953 402.316 85.0899C402.243 85.0459 402.155 84.9872 402.052 84.9139C401.95 84.8552 401.832 84.8112 401.715 84.7525C401.466 84.6351 401.187 84.4884 400.835 84.3857C400.659 84.327 400.483 84.2683 400.292 84.2097C400.087 84.1657 399.882 84.1216 399.662 84.0776C399.442 84.0189 399.207 84.0043 398.972 83.9896C398.723 83.9749 398.473 83.9309 398.209 83.9309C397.153 83.8869 395.921 84.0483 394.586 84.3417C391.887 84.9432 388.763 86.3222 385.404 88.3321C382.03 90.342 378.451 93.0267 374.74 96.2836C371.029 99.5405 367.23 103.414 363.461 107.815C359.691 112.231 355.936 117.189 352.43 122.706C350.685 125.464 348.998 128.354 347.443 131.405C345.874 134.442 344.451 137.626 343.248 140.971C342.06 144.316 341.077 147.822 340.74 151.46C340.593 153.279 340.578 155.142 340.989 156.947C341.194 157.842 341.503 158.722 341.943 159.544C342.397 160.351 342.999 161.069 343.717 161.656C344.465 162.214 345.316 162.61 346.196 162.859C347.091 163.079 348.015 163.167 348.939 163.138C350.787 163.079 352.592 162.61 354.308 162.008C357.755 160.776 360.908 158.942 363.842 156.962C366.776 154.966 369.504 152.781 372.056 150.507C374.608 148.233 376.999 145.885 379.229 143.509C383.688 138.741 387.56 133.87 390.89 129.117C394.22 124.363 397.021 119.713 399.251 115.312C401.48 110.91 403.182 106.759 404.297 103.003C405.397 99.2471 405.954 95.8729 405.881 93.1148C405.837 91.7357 405.69 90.5181 405.382 89.4911C405.323 89.227 405.221 88.9923 405.147 88.7722C405.074 88.5375 404.986 88.3175 404.883 88.1267C404.781 87.9214 404.693 87.7306 404.605 87.5546C404.502 87.3785 404.399 87.2172 404.297 87.0704C404.121 86.7477 403.901 86.513 403.725 86.3076C403.637 86.2049 403.563 86.1022 403.475 86.0142C403.387 85.9408 403.314 85.8675 403.241 85.8088C402.962 85.5594 402.83 85.4273 402.83 85.4273C402.83 85.4273 402.977 85.5447 403.255 85.7941C403.329 85.8528 403.402 85.9261 403.49 85.9995C403.578 86.0875 403.651 86.1755 403.739 86.2782C403.915 86.4836 404.135 86.7184 404.326 87.0411C404.429 87.1878 404.531 87.3492 404.634 87.5252C404.722 87.7013 404.825 87.9067 404.913 88.0974C405.015 88.2881 405.103 88.5229 405.177 88.7429C405.25 88.9776 405.367 89.2124 405.426 89.4764C405.734 90.5034 405.895 91.7211 405.954 93.1148C406.057 95.8875 405.514 99.2765 404.414 103.047C403.314 106.817 401.612 110.984 399.398 115.4C397.168 119.815 394.381 124.466 391.051 129.234C387.722 134.002 383.849 138.887 379.39 143.655C377.161 146.047 374.77 148.394 372.203 150.668C369.651 152.942 366.908 155.142 363.974 157.138C361.026 159.133 357.872 160.967 354.396 162.214C352.665 162.815 350.831 163.299 348.954 163.358C348.015 163.387 347.062 163.299 346.138 163.079C345.228 162.83 344.348 162.419 343.571 161.847C342.823 161.245 342.207 160.497 341.737 159.676C341.282 158.84 340.974 157.945 340.769 157.02C340.358 155.187 340.373 153.294 340.52 151.475C340.857 147.792 341.855 144.286 343.043 140.927C344.245 137.582 345.683 134.383 347.252 131.347C348.822 128.295 350.509 125.405 352.254 122.647C355.76 117.131 359.53 112.172 363.314 107.756C367.098 103.34 370.912 99.4819 374.638 96.225C378.363 92.9681 381.957 90.2833 385.345 88.2881C388.719 86.2782 391.858 84.9139 394.572 84.3124C395.921 84.0189 397.153 83.8576 398.224 83.9163C398.488 83.9163 398.752 83.9603 398.987 83.9749C399.236 83.9896 399.471 84.0189 399.691 84.0776C399.911 84.1216 400.116 84.1657 400.322 84.2097C400.512 84.2683 400.703 84.3417 400.864 84.3857C401.216 84.4884 401.495 84.6351 401.744 84.7671C401.862 84.8258 401.979 84.8845 402.082 84.9432C402.184 85.0019 402.258 85.0606 402.346 85.1192C402.654 85.3246 402.815 85.442 402.815 85.442L402.786 85.398Z" fill="#27AC75"/>
<path d="M323.314 145.357C324.018 146.061 324.018 147.191 323.314 147.895C322.61 148.599 321.481 148.599 320.777 147.895C320.073 147.191 320.073 146.061 320.777 145.357C321.481 144.653 322.61 144.653 323.314 145.357Z" fill="#27AC75"/>
<path d="M424.509 89.7698C424.509 90.7674 423.703 91.5596 422.72 91.5596C421.737 91.5596 420.93 90.7527 420.93 89.7698C420.93 88.7869 421.737 87.98 422.72 87.98C423.703 87.98 424.509 88.7869 424.509 89.7698Z" fill="#27AC75"/>
<path d="M334.638 151.255C334.638 151.504 334.433 151.709 334.183 151.709C333.934 151.709 333.729 151.504 333.729 151.255C333.729 151.005 333.934 150.8 334.183 150.8C334.433 150.8 334.638 151.005 334.638 151.255Z" fill="#27AC75"/>
<path d="M344.363 100.993C344.363 101.242 344.157 101.448 343.908 101.448C343.659 101.448 343.453 101.242 343.453 100.993C343.453 100.743 343.659 100.538 343.908 100.538C344.157 100.538 344.363 100.743 344.363 100.993Z" fill="#27AC75"/>
<path d="M415.489 125.42C415.489 125.669 415.283 125.874 415.034 125.874C414.784 125.874 414.579 125.669 414.579 125.42C414.579 125.17 414.784 124.965 415.034 124.965C415.283 124.965 415.489 125.17 415.489 125.42Z" fill="#27AC75"/>
<path d="M421.825 104.162C421.825 104.411 421.62 104.617 421.37 104.617C421.121 104.617 420.916 104.411 420.916 104.162C420.916 103.912 421.121 103.707 421.37 103.707C421.62 103.707 421.825 103.912 421.825 104.162Z" fill="#27AC75"/>
<path d="M391.11 135.44H385.478V104.749C385.478 97.5307 379.596 91.6477 372.379 91.6477C365.162 91.6477 359.28 97.5307 359.28 104.749V135.44H353.648V104.749C353.648 94.4205 362.053 86.0142 372.379 86.0142C382.705 86.0142 391.11 94.4205 391.11 104.749V135.44Z" fill="#142C5B"/>
<g opacity="0.3">
<path d="M391.11 135.44H385.478V104.749C385.478 97.5307 379.596 91.6477 372.379 91.6477C365.162 91.6477 359.28 97.5307 359.28 104.749V135.44H353.648V104.749C353.648 94.4205 362.053 86.0142 372.379 86.0142C382.705 86.0142 391.11 94.4205 391.11 104.749V135.44Z" fill="black"/>
</g>
<path d="M394.323 121.796H350.436C348.613 121.796 347.135 123.274 347.135 125.097V150.888C347.135 152.711 348.613 154.189 350.436 154.189H394.323C396.145 154.189 397.623 152.711 397.623 150.888V125.097C397.623 123.274 396.145 121.796 394.323 121.796Z" fill="#142C5B"/>
<g opacity="0.3">
<path d="M376.603 133.767C376.603 131.435 374.711 129.542 372.379 129.542C370.047 129.542 368.155 131.435 368.155 133.767C368.155 135.689 369.46 137.303 371.22 137.802V144.11H373.523V137.802C375.283 137.303 376.589 135.689 376.589 133.767H376.603Z" fill="black"/>
</g>
<path d="M349.82 151.123C349.702 151.123 349.614 145.724 349.614 139.063C349.614 132.403 349.702 126.989 349.82 126.989C349.937 126.989 350.025 132.388 350.025 139.063C350.025 145.738 349.937 151.123 349.82 151.123Z" fill="#FAFAFA"/>
<path d="M369.079 139.181C369.079 139.181 368.888 139.122 368.58 138.902C368.287 138.682 367.891 138.33 367.495 137.787C366.702 136.76 365.984 134.882 366.453 132.858C366.937 130.833 368.433 129.483 369.592 128.911C370.179 128.618 370.692 128.471 371.059 128.412C371.426 128.354 371.631 128.354 371.631 128.383C371.646 128.456 370.824 128.544 369.739 129.175C368.668 129.777 367.319 131.082 366.864 132.96C366.424 134.823 367.055 136.599 367.744 137.626C368.433 138.682 369.137 139.122 369.079 139.181Z" fill="#FAFAFA"/>
<path d="M447.333 181.946H291.895C284.345 181.946 278.224 188.067 278.224 195.619V197.291C278.224 204.843 284.345 210.964 291.895 210.964H447.333C454.883 210.964 461.004 204.843 461.004 197.291V195.619C461.004 188.067 454.883 181.946 447.333 181.946Z" fill="#F5F5F5"/>
<path d="M448.668 221.748H293.23C285.68 221.748 279.559 227.869 279.559 235.421V237.093C279.559 244.645 285.68 250.766 293.23 250.766H448.668C456.218 250.766 462.338 244.645 462.338 237.093V235.421C462.338 227.869 456.218 221.748 448.668 221.748Z" fill="#F5F5F5"/>
<path d="M307.106 196.235V192.025H308.837V196.162C308.837 197.585 309.453 198.172 310.509 198.172C311.565 198.172 312.181 197.585 312.181 196.162V192.025H313.897V196.235C313.897 198.451 312.636 199.668 310.494 199.668C308.353 199.668 307.091 198.451 307.091 196.235H307.106Z" fill="#263238"/>
<path d="M314.939 199.008L315.496 197.805C316.009 198.143 316.787 198.363 317.506 198.363C318.283 198.363 318.562 198.157 318.562 197.834C318.562 196.896 315.085 197.849 315.085 195.546C315.085 194.445 316.068 193.683 317.755 193.683C318.547 193.683 319.427 193.859 319.97 194.181L319.412 195.37C318.84 195.047 318.268 194.944 317.755 194.944C317.007 194.944 316.684 195.179 316.684 195.487C316.684 196.47 320.175 195.516 320.175 197.79C320.175 198.861 319.178 199.624 317.447 199.624C316.464 199.624 315.481 199.36 314.953 199.008H314.939Z" fill="#263238"/>
<path d="M326.82 197.13H322.463C322.625 197.849 323.241 198.289 324.106 198.289C324.722 198.289 325.162 198.113 325.558 197.732L326.453 198.7C325.91 199.316 325.118 199.639 324.077 199.639C322.082 199.639 320.791 198.377 320.791 196.675C320.791 194.974 322.111 193.712 323.872 193.712C325.632 193.712 326.879 194.842 326.879 196.705C326.879 196.837 326.864 197.013 326.849 197.16L326.82 197.13ZM322.434 196.147H325.28C325.162 195.414 324.62 194.944 323.872 194.944C323.123 194.944 322.566 195.399 322.449 196.147H322.434Z" fill="#263238"/>
<path d="M331.543 193.683V195.223C331.396 195.223 331.294 195.208 331.162 195.208C330.238 195.208 329.622 195.707 329.622 196.822V199.551H327.949V193.785H329.548V194.548C329.959 193.991 330.648 193.697 331.528 193.697L331.543 193.683Z" fill="#263238"/>
<path d="M338.437 196.235V199.536H336.765V196.485C336.765 195.546 336.34 195.12 335.591 195.12C334.785 195.12 334.213 195.619 334.213 196.675V199.522H332.541V193.756H334.139V194.431C334.594 193.932 335.269 193.668 336.046 193.668C337.41 193.668 338.437 194.46 338.437 196.221V196.235Z" fill="#263238"/>
<path d="M345.052 196.25V199.536H343.483V198.817C343.175 199.346 342.573 199.624 341.723 199.624C340.373 199.624 339.566 198.876 339.566 197.878C339.566 196.881 340.285 196.147 342.045 196.147H343.38C343.38 195.428 342.955 195.018 342.045 195.018C341.429 195.018 340.799 195.223 340.388 195.56L339.786 194.387C340.417 193.932 341.356 193.683 342.28 193.683C344.04 193.683 345.052 194.504 345.052 196.25ZM343.38 197.717V197.13H342.236C341.459 197.13 341.209 197.424 341.209 197.805C341.209 198.231 341.561 198.509 342.148 198.509C342.705 198.509 343.189 198.245 343.38 197.732V197.717Z" fill="#263238"/>
<path d="M356.303 196.235V199.536H354.631V196.485C354.631 195.546 354.205 195.12 353.531 195.12C352.783 195.12 352.254 195.605 352.254 196.631V199.522H350.582V196.47C350.582 195.531 350.186 195.106 349.482 195.106C348.749 195.106 348.221 195.59 348.221 196.617V199.507H346.549V193.741H348.147V194.402C348.573 193.903 349.218 193.653 349.966 193.653C350.773 193.653 351.462 193.961 351.858 194.592C352.313 194.005 353.076 193.653 353.941 193.653C355.32 193.653 356.303 194.446 356.303 196.206V196.235Z" fill="#263238"/>
<path d="M363.49 197.13H359.134C359.295 197.849 359.911 198.289 360.777 198.289C361.393 198.289 361.833 198.113 362.229 197.732L363.124 198.7C362.581 199.316 361.789 199.639 360.747 199.639C358.752 199.639 357.462 198.377 357.462 196.675C357.462 194.974 358.782 193.712 360.542 193.712C362.302 193.712 363.549 194.842 363.549 196.705C363.549 196.837 363.534 197.013 363.52 197.16L363.49 197.13ZM359.105 196.147H361.95C361.833 195.414 361.29 194.944 360.542 194.944C359.794 194.944 359.237 195.399 359.119 196.147H359.105Z" fill="#263238"/>
<path d="M374.55 196.602C374.55 198.524 373.67 199.61 372.35 199.61C371.616 199.61 371.103 199.287 370.883 198.671C370.502 199.272 369.9 199.61 369.049 199.61C367.671 199.61 366.57 198.51 366.57 196.896C366.57 195.282 367.656 194.196 369.049 194.196C369.753 194.196 370.311 194.446 370.707 194.901V194.27H372.159V197.747C372.159 198.26 372.379 198.436 372.672 198.436C373.171 198.436 373.464 197.864 373.464 196.617C373.464 194.446 371.851 192.935 369.475 192.935C367.098 192.935 365.485 194.563 365.485 196.808C365.485 199.052 367.054 200.71 369.431 200.71C370.105 200.71 370.868 200.563 371.543 200.241L371.88 201.224C371.22 201.561 370.267 201.737 369.431 201.737C366.336 201.737 364.282 199.639 364.282 196.808C364.282 193.976 366.35 191.922 369.475 191.922C372.599 191.922 374.55 193.903 374.55 196.602ZM370.722 196.896C370.722 195.957 370.149 195.443 369.387 195.443C368.624 195.443 368.052 195.986 368.052 196.896C368.052 197.805 368.595 198.377 369.387 198.377C370.179 198.377 370.722 197.835 370.722 196.896Z" fill="#263238"/>
<path d="M385.478 196.235V199.536H383.806V196.485C383.806 195.546 383.38 195.12 382.705 195.12C381.957 195.12 381.429 195.605 381.429 196.631V199.522H379.757V196.47C379.757 195.531 379.361 195.106 378.657 195.106C377.924 195.106 377.396 195.59 377.396 196.617V199.507H375.723V193.741H377.322V194.402C377.748 193.903 378.393 193.653 379.141 193.653C379.948 193.653 380.637 193.961 381.033 194.592C381.488 194.005 382.251 193.653 383.116 193.653C384.495 193.653 385.478 194.446 385.478 196.206V196.235Z" fill="#263238"/>
<path d="M392.078 196.25V199.536H390.509V198.817C390.201 199.346 389.599 199.624 388.748 199.624C387.399 199.624 386.592 198.876 386.592 197.878C386.592 196.881 387.311 196.147 389.071 196.147H390.406C390.406 195.428 389.981 195.018 389.071 195.018C388.455 195.018 387.824 195.223 387.414 195.56L386.812 194.387C387.443 193.932 388.382 193.683 389.306 193.683C391.066 193.683 392.078 194.504 392.078 196.25ZM390.406 197.717V197.13H389.262C388.484 197.13 388.235 197.424 388.235 197.805C388.235 198.231 388.587 198.509 389.174 198.509C389.731 198.509 390.215 198.245 390.406 197.732V197.717Z" fill="#263238"/>
<path d="M393.398 192.025C393.398 191.497 393.824 191.086 394.44 191.086C395.056 191.086 395.481 191.467 395.481 191.981C395.481 192.538 395.056 192.949 394.44 192.949C393.824 192.949 393.398 192.538 393.398 192.01V192.025ZM393.604 193.756H395.276V199.522H393.604V193.756Z" fill="#263238"/>
<path d="M396.816 191.585H398.488V199.536H396.816V191.585Z" fill="#263238"/>
<path d="M399.647 198.568C399.647 197.952 400.102 197.541 400.688 197.541C401.275 197.541 401.73 197.952 401.73 198.568C401.73 199.184 401.275 199.624 400.688 199.624C400.102 199.624 399.647 199.184 399.647 198.568Z" fill="#263238"/>
<path d="M402.361 196.646C402.361 194.915 403.695 193.683 405.573 193.683C406.79 193.683 407.744 194.211 408.155 195.15L406.864 195.854C406.556 195.311 406.086 195.062 405.573 195.062C404.722 195.062 404.062 195.648 404.062 196.661C404.062 197.673 404.722 198.26 405.573 198.26C406.101 198.26 406.556 198.025 406.864 197.468L408.155 198.172C407.729 199.096 406.776 199.624 405.573 199.624C403.695 199.624 402.361 198.392 402.361 196.661V196.646Z" fill="#263238"/>
<path d="M408.609 196.646C408.609 194.915 409.944 193.683 411.777 193.683C413.611 193.683 414.946 194.915 414.946 196.646C414.946 198.377 413.611 199.61 411.777 199.61C409.944 199.61 408.609 198.377 408.609 196.646ZM413.244 196.646C413.244 195.648 412.614 195.047 411.777 195.047C410.941 195.047 410.296 195.648 410.296 196.646C410.296 197.644 410.941 198.245 411.777 198.245C412.614 198.245 413.244 197.644 413.244 196.646Z" fill="#263238"/>
<path d="M425.815 196.235V199.536H424.143V196.485C424.143 195.546 423.717 195.12 423.043 195.12C422.295 195.12 421.766 195.605 421.766 196.631V199.522H420.094V196.47C420.094 195.531 419.698 195.106 418.994 195.106C418.261 195.106 417.733 195.59 417.733 196.617V199.507H416.061V193.741H417.659V194.402C418.085 193.903 418.73 193.653 419.478 193.653C420.285 193.653 420.974 193.961 421.37 194.592C421.825 194.005 422.588 193.653 423.453 193.653C424.832 193.653 425.815 194.446 425.815 196.206V196.235Z" fill="#263238"/>
<path d="M329.504 236.418L332.218 237.885L331 239.924L328.257 238.311L328.301 241.333H325.954L325.984 238.296L323.241 239.939L322.038 237.9L324.752 236.433L322.038 234.936L323.241 232.897L325.984 234.54L325.954 231.503H328.301L328.257 234.54L331 232.897L332.218 234.936L329.504 236.433V236.418Z" fill="#263238"/>
<path d="M340.813 236.418L343.527 237.885L342.309 239.924L339.566 238.311L339.61 241.333H337.264L337.293 238.296L334.55 239.939L333.347 237.9L336.061 236.433L333.347 234.936L334.55 232.897L337.293 234.54L337.264 231.503H339.61L339.566 234.54L342.309 232.897L343.527 234.936L340.813 236.433V236.418Z" fill="#263238"/>
<path d="M352.122 236.418L354.836 237.885L353.618 239.924L350.876 238.311L350.92 241.333H348.573L348.602 238.296L345.859 239.939L344.656 237.9L347.37 236.433L344.656 234.936L345.859 232.897L348.602 234.54L348.573 231.503H350.92L350.876 234.54L353.618 232.897L354.836 234.936L352.122 236.433V236.418Z" fill="#263238"/>
<path d="M363.417 236.418L366.13 237.885L364.913 239.924L362.17 238.311L362.214 241.333H359.867L359.896 238.296L357.153 239.939L355.951 237.9L358.664 236.433L355.951 234.936L357.153 232.897L359.896 234.54L359.867 231.503H362.214L362.17 234.54L364.913 232.897L366.13 234.936L363.417 236.433V236.418Z" fill="#263238"/>
<path d="M374.726 236.418L377.439 237.885L376.222 239.924L373.479 238.311L373.523 241.333H371.176L371.205 238.296L368.463 239.939L367.26 237.9L369.973 236.433L367.26 234.936L368.463 232.897L371.205 234.54L371.176 231.503H373.523L373.479 234.54L376.222 232.897L377.439 234.936L374.726 236.433V236.418Z" fill="#263238"/>
<path d="M386.035 236.418L388.749 237.885L387.531 239.924L384.788 238.311L384.832 241.333H382.485L382.515 238.296L379.772 239.939L378.569 237.9L381.282 236.433L378.569 234.936L379.772 232.897L382.515 234.54L382.485 231.503H384.832L384.788 234.54L387.531 232.897L388.749 234.936L386.035 236.433V236.418Z" fill="#263238"/>
<path d="M397.329 236.418L400.043 237.885L398.825 239.924L396.083 238.311L396.127 241.333H393.78L393.809 238.296L391.066 239.939L389.863 237.9L392.577 236.433L389.863 234.936L391.066 232.897L393.809 234.54L393.78 231.503H396.127L396.083 234.54L398.825 232.897L400.043 234.936L397.329 236.433V236.418Z" fill="#263238"/>
<path d="M408.638 236.418L411.352 237.885L410.135 239.924L407.392 238.311L407.436 241.333H405.089L405.118 238.296L402.375 239.939L401.172 237.9L403.886 236.433L401.172 234.936L402.375 232.897L405.118 234.54L405.089 231.503H407.436L407.392 234.54L410.135 232.897L411.352 234.936L408.638 236.433V236.418Z" fill="#263238"/>
<path d="M532.246 317.298H313.662C308.494 317.298 304.304 321.488 304.304 326.658V439.828C304.304 444.997 308.494 449.187 313.662 449.187H532.246C537.415 449.187 541.605 444.997 541.605 439.828V326.658C541.605 321.488 537.415 317.298 532.246 317.298Z" fill="white"/>
<path d="M532.246 449.188C532.246 449.188 532.877 449.188 534.095 448.967C535.268 448.703 537.087 448.102 538.803 446.4C539.639 445.549 540.417 444.434 540.915 443.055C541.194 442.366 541.326 441.603 541.443 440.811C541.502 440.018 541.487 439.167 541.487 438.287C541.487 434.766 541.473 430.702 541.458 426.14C541.429 407.845 541.385 381.409 541.341 348.737C541.341 344.659 541.341 340.463 541.341 336.194C541.341 334.052 541.341 331.895 541.341 329.709C541.282 327.523 541.575 325.279 540.681 323.284C539.874 321.288 538.319 319.572 536.339 318.574C535.356 318.075 534.285 317.767 533.171 317.65C532.085 317.562 530.897 317.621 529.738 317.606C525.103 317.606 520.38 317.606 515.584 317.606C496.368 317.606 475.848 317.635 454.242 317.635C411.044 317.635 363.549 317.65 313.692 317.665C312.196 317.665 310.714 318.046 309.394 318.75C308.103 319.484 306.959 320.496 306.152 321.758C305.36 323.005 304.832 324.443 304.744 325.924C304.671 327.406 304.73 328.99 304.715 330.516C304.715 336.678 304.715 342.796 304.715 348.869C304.715 361.017 304.715 372.973 304.715 384.739C304.715 396.49 304.715 408.051 304.715 419.362C304.715 425.01 304.715 430.614 304.715 436.145C304.715 437.524 304.686 438.933 304.73 440.268C304.788 441.588 305.155 442.894 305.756 444.053C306.989 446.385 309.277 448.087 311.829 448.63C313.09 448.923 314.425 448.806 315.775 448.835C317.11 448.835 318.459 448.835 319.794 448.835C322.463 448.835 325.104 448.835 327.744 448.835C333.01 448.835 338.202 448.835 343.321 448.835C353.56 448.835 363.49 448.835 373.098 448.85C392.313 448.865 410.208 448.879 426.548 448.894C459.214 448.938 485.646 448.982 503.937 449.011C513.061 449.041 520.16 449.07 524.971 449.085C527.362 449.099 529.196 449.114 530.442 449.129C531.674 449.129 532.305 449.173 532.305 449.173C532.305 449.173 531.674 449.202 530.442 449.217C529.196 449.217 527.362 449.232 524.971 449.261C520.145 449.276 513.061 449.305 503.937 449.334C485.646 449.364 459.214 449.408 426.548 449.452C410.208 449.452 392.313 449.481 373.098 449.496C363.49 449.496 353.56 449.496 343.321 449.51C338.202 449.51 333.01 449.51 327.744 449.51C325.118 449.51 322.463 449.51 319.794 449.51C318.459 449.51 317.124 449.51 315.775 449.51C314.455 449.481 313.076 449.613 311.682 449.305C308.939 448.733 306.475 446.884 305.14 444.376C304.48 443.129 304.084 441.72 304.026 440.297C303.982 438.889 304.026 437.539 303.996 436.145C303.996 430.614 303.996 425.01 303.996 419.362C303.996 408.051 303.996 396.505 303.996 384.739C303.996 372.988 303.996 361.017 303.996 348.869C303.996 342.796 303.996 336.678 303.996 330.516C304.011 328.961 303.952 327.465 304.04 325.866C304.143 324.252 304.715 322.697 305.58 321.347C306.446 319.983 307.693 318.882 309.101 318.09C310.524 317.327 312.137 316.917 313.765 316.917C363.622 316.917 411.117 316.931 454.315 316.946C475.921 316.946 496.442 316.975 515.657 316.975C520.453 316.975 525.177 316.975 529.812 316.975C530.985 316.99 532.1 316.931 533.303 317.019C534.476 317.137 535.635 317.474 536.676 318.017C538.774 319.073 540.431 320.907 541.282 323.034C541.722 324.105 541.942 325.235 541.971 326.379C541.971 327.479 541.971 328.58 541.971 329.68C541.971 331.866 541.971 334.023 541.971 336.164C541.971 340.434 541.971 344.629 541.971 348.708C541.927 381.38 541.883 407.816 541.854 426.111C541.854 430.673 541.825 434.737 541.825 438.258C541.825 439.138 541.825 439.989 541.766 440.811C541.649 441.617 541.502 442.395 541.209 443.099C540.681 444.508 539.889 445.637 539.023 446.488C537.263 448.19 535.415 448.791 534.227 449.026C533.611 449.129 533.156 449.173 532.833 449.173C532.525 449.173 532.364 449.173 532.364 449.173L532.246 449.188Z" fill="#263238"/>
<path d="M386.988 363.906V365.55H380.124V356.674H386.827V358.317H382.162V360.239H386.284V361.838H382.162V363.892H386.988V363.906Z" fill="#263238"/>
<path d="M396.757 356.674V365.55H395.07L390.655 360.165V365.55H388.631V356.674H390.333L394.748 362.058V356.674H396.772H396.757Z" fill="#263238"/>
<path d="M400.688 358.346H397.857V356.674H405.587V358.346H402.756V365.55H400.703V358.346H400.688Z" fill="#263238"/>
<path d="M413.552 363.906V365.55H406.688V356.674H413.391V358.317H408.726V360.239H412.848V361.838H408.726V363.892H413.552V363.906Z" fill="#263238"/>
<path d="M420.842 365.55L419.126 363.085H417.234V365.55H415.18V356.674H419.023C421.385 356.674 422.866 357.906 422.866 359.887C422.866 361.222 422.192 362.19 421.047 362.689L423.042 365.535H420.842V365.55ZM418.921 358.346H417.248V361.442H418.921C420.182 361.442 420.813 360.855 420.813 359.901C420.813 358.948 420.182 358.361 418.921 358.361V358.346Z" fill="#263238"/>
<path d="M427.531 361.119C427.531 358.449 429.584 356.527 432.342 356.527C433.867 356.527 435.158 357.085 435.994 358.097L434.674 359.315C434.073 358.625 433.325 358.273 432.445 358.273C430.787 358.273 429.614 359.432 429.614 361.105C429.614 362.777 430.787 363.936 432.445 363.936C433.325 363.936 434.073 363.584 434.674 362.88L435.994 364.097C435.158 365.124 433.882 365.682 432.327 365.682C429.584 365.682 427.531 363.775 427.531 361.09V361.119Z" fill="#263238"/>
<path d="M436.625 361.119C436.625 358.479 438.679 356.527 441.48 356.527C444.282 356.527 446.335 358.464 446.335 361.119C446.335 363.775 444.267 365.711 441.48 365.711C438.693 365.711 436.625 363.76 436.625 361.119ZM444.252 361.119C444.252 359.432 443.064 358.288 441.48 358.288C439.896 358.288 438.708 359.447 438.708 361.119C438.708 362.792 439.896 363.951 441.48 363.951C443.064 363.951 444.252 362.792 444.252 361.119Z" fill="#263238"/>
<path d="M447.89 356.674H451.924C454.828 356.674 456.808 358.42 456.808 361.104C456.808 363.789 454.813 365.535 451.924 365.535H447.89V356.659V356.674ZM451.821 363.862C453.581 363.862 454.74 362.806 454.74 361.119C454.74 359.432 453.581 358.376 451.821 358.376H449.944V363.877H451.821V363.862Z" fill="#263238"/>
<path d="M465.213 363.906V365.55H458.349V356.674H465.052V358.317H460.387V360.239H464.509V361.838H460.387V363.892H465.213V363.906Z" fill="#263238"/>
<path d="M353.34 379.707H331.792C328.592 379.707 325.998 382.301 325.998 385.502V419.054C325.998 422.254 328.592 424.849 331.792 424.849H353.34C356.54 424.849 359.134 422.254 359.134 419.054V385.502C359.134 382.301 356.54 379.707 353.34 379.707Z" fill="#EBEBEB"/>
<path d="M394.719 379.707H373.171C369.971 379.707 367.377 382.301 367.377 385.502V419.054C367.377 422.254 369.971 424.849 373.171 424.849H394.719C397.918 424.849 400.512 422.254 400.512 419.054V385.502C400.512 382.301 397.918 379.707 394.719 379.707Z" fill="#EBEBEB"/>
<path d="M436.097 379.707H414.55C411.35 379.707 408.756 382.301 408.756 385.502V419.054C408.756 422.254 411.35 424.849 414.55 424.849H436.097C439.297 424.849 441.891 422.254 441.891 419.054V385.502C441.891 382.301 439.297 379.707 436.097 379.707Z" fill="#EBEBEB"/>
<path d="M477.461 379.707H455.914C452.714 379.707 450.12 382.301 450.12 385.502V419.054C450.12 422.254 452.714 424.849 455.914 424.849H477.461C480.661 424.849 483.255 422.254 483.255 419.054V385.502C483.255 382.301 480.661 379.707 477.461 379.707Z" fill="#EBEBEB"/>
<path d="M518.84 379.707H497.292C494.093 379.707 491.499 382.301 491.499 385.502V419.054C491.499 422.254 494.093 424.849 497.292 424.849H518.84C522.04 424.849 524.634 422.254 524.634 419.054V385.502C524.634 382.301 522.04 379.707 518.84 379.707Z" fill="#EBEBEB"/>
<path d="M349.79 405.762C349.79 408.99 347.296 411.073 343.923 411.073C339.288 411.073 336.853 407.743 336.853 402.227C336.853 396.256 340.021 393.189 344.686 393.189C346.196 393.189 347.605 393.439 348.69 394.099L348.162 395.126C347.252 394.554 346.02 394.319 344.686 394.319C340.725 394.319 338.144 396.916 338.144 402.021C338.144 402.549 338.173 403.327 338.29 404.134C339.024 401.816 341.239 400.51 343.908 400.51C347.429 400.51 349.805 402.579 349.805 405.748L349.79 405.762ZM348.499 405.792C348.499 403.268 346.68 401.64 343.717 401.64C340.755 401.64 338.833 403.474 338.833 405.85C338.833 407.919 340.564 409.973 343.864 409.973C346.607 409.973 348.499 408.33 348.499 405.792Z" fill="#27AC75"/>
<path d="M390.714 406.07H387.018V410.955H385.756V406.07H375.708V405.131L385.272 393.321H386.71L377.322 404.926H385.785V400.613H387.018V404.926H390.714V406.055V406.07Z" fill="#27AC75"/>
<path d="M433.384 413.464C433.384 413.67 429.951 413.846 425.712 413.846C421.473 413.846 418.041 413.67 418.041 413.464C418.041 413.259 421.473 413.083 425.712 413.083C429.951 413.083 433.384 413.259 433.384 413.464Z" fill="#27AC75"/>
<path d="M319.368 334.052C321.353 334.052 322.962 332.443 322.962 330.458C322.962 328.473 321.353 326.863 319.368 326.863C317.384 326.863 315.775 328.473 315.775 330.458C315.775 332.443 317.384 334.052 319.368 334.052Z" fill="#263238"/>
<path d="M333.318 330.458C333.318 332.438 331.704 334.052 329.724 334.052C327.744 334.052 326.13 332.438 326.13 330.458C326.13 328.477 327.744 326.863 329.724 326.863C331.704 326.863 333.318 328.477 333.318 330.458Z" fill="#263238"/>
<path d="M339.889 334.052C341.874 334.052 343.483 332.443 343.483 330.458C343.483 328.473 341.874 326.863 339.889 326.863C337.904 326.863 336.295 328.473 336.295 330.458C336.295 332.443 337.904 334.052 339.889 334.052Z" fill="#263238"/>
<path d="M541.957 340.58C541.957 340.786 488.829 340.962 423.307 340.962C357.784 340.962 304.642 340.786 304.642 340.58C304.642 340.375 357.755 340.199 423.307 340.199C488.858 340.199 541.957 340.375 541.957 340.58Z" fill="#263238"/>
<path d="M275.423 155.377H161.158C157.873 155.377 155.218 158.033 155.218 161.319V213.385C155.218 216.672 157.873 219.327 161.158 219.327H209.094L219.273 232.384L227.752 219.327H275.408C278.694 219.327 281.349 216.672 281.349 213.385V161.319C281.349 158.033 278.694 155.377 275.408 155.377H275.423Z" fill="white"/>
<path d="M275.423 155.378C275.423 155.378 275.614 155.378 275.995 155.378C276.362 155.422 276.934 155.466 277.623 155.744C278.312 156.008 279.149 156.463 279.882 157.27C280.63 158.062 281.275 159.236 281.451 160.674C281.554 166.351 281.539 174.581 281.583 185.027C281.583 190.25 281.613 196.015 281.627 202.265C281.627 205.39 281.627 208.647 281.642 212.006C281.627 212.843 281.701 213.708 281.525 214.603C281.349 215.483 280.982 216.334 280.439 217.068C279.369 218.55 277.594 219.547 275.702 219.606C261.327 219.621 245.207 219.65 227.766 219.679L228.06 219.518C225.39 223.626 222.515 228.056 219.581 232.575L219.303 233L218.995 232.604C215.782 228.482 212.321 224.051 208.8 219.547L209.094 219.694C195.892 219.694 182.075 219.694 167.906 219.694H162.963C162.126 219.679 161.349 219.723 160.454 219.65C159.589 219.547 158.738 219.268 157.99 218.828C156.479 217.963 155.379 216.452 154.998 214.75C154.792 213.899 154.851 213.033 154.836 212.241V209.821C154.836 203.38 154.836 197.028 154.836 190.778C154.836 184.543 154.836 178.411 154.836 172.396C154.836 169.388 154.836 166.425 154.836 163.49V161.29C154.836 160.512 154.983 159.749 155.262 159.031C155.819 157.593 156.905 156.39 158.254 155.7C158.929 155.348 159.662 155.128 160.41 155.04C161.173 154.967 161.862 155.011 162.581 154.996C163.989 154.996 165.397 154.996 166.806 154.996C169.593 154.996 172.35 154.996 175.078 154.996C180.506 154.996 185.786 154.996 190.891 155.011C201.085 155.025 210.59 155.04 219.259 155.055C236.582 155.099 250.619 155.143 260.344 155.172C265.17 155.201 268.94 155.231 271.506 155.245C272.768 155.26 273.736 155.275 274.411 155.29C275.071 155.29 275.394 155.334 275.394 155.334C275.394 155.334 275.056 155.363 274.411 155.378C273.736 155.378 272.768 155.392 271.506 155.422C268.925 155.436 265.17 155.466 260.344 155.495C250.619 155.524 236.582 155.568 219.259 155.612C210.59 155.612 201.085 155.642 190.891 155.656C185.786 155.656 180.52 155.656 175.078 155.671C172.365 155.671 169.607 155.671 166.806 155.671C165.412 155.671 164.004 155.671 162.581 155.671C161.877 155.671 161.144 155.656 160.498 155.715C159.838 155.788 159.178 155.994 158.577 156.302C157.374 156.918 156.406 157.989 155.922 159.265C155.673 159.896 155.555 160.586 155.54 161.275V163.476C155.54 166.41 155.54 169.388 155.54 172.381C155.54 178.381 155.54 184.514 155.54 190.763C155.54 196.998 155.54 203.351 155.54 209.806V212.226C155.54 213.048 155.496 213.826 155.687 214.559C156.01 216.041 156.993 217.376 158.313 218.139C158.973 218.52 159.706 218.77 160.469 218.858C161.202 218.931 162.082 218.887 162.889 218.902C164.532 218.902 166.19 218.902 167.832 218.902C182.002 218.902 195.819 218.902 209.02 218.902H209.196L209.314 219.048C212.819 223.552 216.281 227.983 219.493 232.105L218.907 232.135C221.84 227.616 224.73 223.186 227.4 219.078L227.502 218.916H227.693C245.119 218.931 261.239 218.946 275.599 218.96C277.315 218.902 278.929 218.007 279.897 216.672C280.381 216.012 280.733 215.234 280.894 214.442C281.055 213.65 280.997 212.799 281.011 211.962C281.011 208.603 281.011 205.346 281.026 202.221C281.041 195.971 281.055 190.206 281.07 184.983C281.099 174.567 281.114 166.322 281.129 160.644C280.982 159.265 280.381 158.121 279.662 157.343C278.958 156.537 278.151 156.082 277.491 155.803C276.127 155.26 275.335 155.392 275.335 155.334L275.423 155.378Z" fill="#263238"/>
<path d="M196.89 170.063V171.985H195.628V170.048L193.516 166.557H194.851L196.303 168.977L197.755 166.557H198.987L196.875 170.063H196.89Z" fill="#263238"/>
<path d="M198.958 169.271C198.958 167.657 200.219 166.454 201.936 166.454C203.652 166.454 204.913 167.642 204.913 169.271C204.913 170.899 203.652 172.088 201.936 172.088C200.219 172.088 198.958 170.885 198.958 169.271ZM203.637 169.271C203.637 168.244 202.904 167.525 201.936 167.525C200.968 167.525 200.234 168.229 200.234 169.271C200.234 170.312 200.968 171.017 201.936 171.017C202.904 171.017 203.637 170.312 203.637 169.271Z" fill="#263238"/>
<path d="M205.823 169.608V166.557H207.084V169.549C207.084 170.576 207.539 171.017 208.302 171.017C209.064 171.017 209.519 170.591 209.519 169.549V166.557H210.766V169.608C210.766 171.207 209.856 172.088 208.302 172.088C206.747 172.088 205.837 171.207 205.837 169.608H205.823Z" fill="#263238"/>
<path d="M215.46 171.999L214.418 170.488H213.26V171.999H211.998V166.557H214.345C215.797 166.557 216.707 167.305 216.707 168.523C216.707 169.344 216.296 169.931 215.592 170.239L216.809 171.985H215.46V171.999ZM214.286 167.584H213.26V169.476H214.286C215.049 169.476 215.445 169.124 215.445 168.523C215.445 167.921 215.064 167.569 214.286 167.569V167.584Z" fill="#263238"/>
<path d="M219.567 169.271C219.567 167.628 220.828 166.454 222.515 166.454C223.454 166.454 224.246 166.792 224.745 167.422L223.938 168.171C223.571 167.745 223.116 167.54 222.574 167.54C221.562 167.54 220.828 168.259 220.828 169.286C220.828 170.312 221.547 171.031 222.574 171.031C223.116 171.031 223.571 170.811 223.938 170.386L224.745 171.134C224.231 171.765 223.454 172.102 222.5 172.102C220.813 172.102 219.552 170.929 219.552 169.286L219.567 169.271Z" fill="#263238"/>
<path d="M225.155 169.271C225.155 167.657 226.417 166.454 228.133 166.454C229.849 166.454 231.111 167.642 231.111 169.271C231.111 170.899 229.849 172.088 228.133 172.088C226.417 172.088 225.155 170.885 225.155 169.271ZM229.834 169.271C229.834 168.244 229.101 167.525 228.133 167.525C227.165 167.525 226.431 168.229 226.431 169.271C226.431 170.312 227.165 171.017 228.133 171.017C229.101 171.017 229.834 170.312 229.834 169.271Z" fill="#263238"/>
<path d="M232.049 166.557H234.514C236.288 166.557 237.506 167.628 237.506 169.271C237.506 170.914 236.288 171.985 234.514 171.985H232.049V166.542V166.557ZM234.455 170.958C235.54 170.958 236.244 170.312 236.244 169.271C236.244 168.229 235.54 167.584 234.455 167.584H233.311V170.958H234.455Z" fill="#263238"/>
<path d="M242.684 170.987V171.999H238.474V166.557H242.581V167.569H239.721V168.743H242.244V169.726H239.721V170.987H242.684Z" fill="#263238"/>
<path d="M264.26 177.707H172.306C169.43 177.707 167.099 180.038 167.099 182.915V202.339C167.099 205.215 169.43 207.547 172.306 207.547H264.26C267.136 207.547 269.468 205.215 269.468 202.339V182.915C269.468 180.038 267.136 177.707 264.26 177.707Z" fill="#F5F5F5"/>
<path d="M187.913 194.446C187.913 197.087 185.874 198.803 183.102 198.803C179.303 198.803 177.308 196.074 177.308 191.556C177.308 186.67 179.904 184.147 183.718 184.147C184.95 184.147 186.109 184.352 187.003 184.895L186.563 185.746C185.815 185.277 184.803 185.086 183.718 185.086C180.476 185.086 178.349 187.213 178.349 191.394C178.349 191.834 178.364 192.465 178.467 193.125C179.068 191.233 180.887 190.147 183.072 190.147C185.962 190.147 187.898 191.834 187.898 194.446H187.913ZM186.857 194.46C186.857 192.392 185.375 191.057 182.94 191.057C180.506 191.057 178.936 192.568 178.936 194.504C178.936 196.192 180.359 197.893 183.058 197.893C185.302 197.893 186.857 196.558 186.857 194.475V194.46Z" fill="#27AC75"/>
<path d="M207.084 194.695H204.048V198.7H203.021V194.695H194.792V193.932L202.64 184.25H203.813L196.112 193.771H203.05V190.235H204.062V193.771H207.099V194.695H207.084Z" fill="#27AC75"/>
<path d="M223.131 194.636C223.131 197.028 221.4 198.803 218.071 198.803C215.944 198.803 213.978 198.025 212.981 196.866L213.523 196.059C214.404 197.072 216.105 197.835 218.085 197.835C220.681 197.835 222.075 196.602 222.075 194.636C222.075 192.67 220.755 191.438 217.865 191.438H216.956V190.675L221.224 185.203H213.523V184.25H222.588V184.998L218.261 190.558C221.547 190.646 223.146 192.289 223.146 194.651L223.131 194.636Z" fill="#27AC75"/>
<path d="M240.586 184.25V184.998L234.382 198.7H233.223L239.369 185.203H231.257V187.976H230.23V184.264H240.586V184.25Z" fill="#27AC75"/>
<path d="M247.964 191.482C247.964 186.964 250.296 184.162 253.611 184.162C256.926 184.162 259.259 186.964 259.259 191.482C259.259 196.001 256.926 198.803 253.611 198.803C250.296 198.803 247.964 196.001 247.964 191.482ZM258.217 191.482C258.217 187.463 256.34 185.13 253.611 185.13C250.883 185.13 249.006 187.463 249.006 191.482C249.006 195.502 250.883 197.835 253.611 197.835C256.34 197.835 258.217 195.502 258.217 191.482Z" fill="#27AC75"/>
<path d="M562.478 569.326C581.678 561.169 603.915 545.134 613.831 525.475C593.119 533.793 574.858 549.403 562.478 569.326Z" fill="#263238"/>
<path d="M566.57 538.811C585.771 530.654 608.008 514.619 617.923 494.96C597.212 503.278 578.95 518.888 566.57 538.811Z" fill="#263238"/>
<path d="M572.115 509.132C591.315 500.975 613.552 484.94 623.468 465.281C602.756 473.6 584.495 489.209 572.115 509.132Z" fill="#263238"/>
<path d="M579.082 478.059C597.197 467.306 617.395 448.322 624.92 427.475C605.323 438.61 589.012 456.596 579.082 478.059Z" fill="#263238"/>
<path d="M586.533 454.278C599.735 437.011 612.041 411.308 611.88 389.038C597.432 407.259 588.411 430.468 586.533 454.278Z" fill="#263238"/>
<path d="M582.837 465.575C580.168 442.219 571.088 412.863 555.672 395.346C558.121 420.374 567.788 445.344 582.837 465.575Z" fill="#263238"/>
<path d="M576.633 491.116C571.939 467.042 560.058 437.26 542.544 420.374C547.15 446.209 559.28 471.369 576.633 491.116Z" fill="#263238"/>
<path d="M569.504 522.277C564.81 498.202 552.929 468.421 535.415 451.535C540.021 477.37 552.151 502.53 569.504 522.277Z" fill="#263238"/>
<path d="M563.783 560.509C559.089 536.434 547.208 506.653 529.695 489.767C534.3 515.602 546.431 540.762 563.783 560.509Z" fill="#263238"/>
<path d="M587.428 449.701C587.428 449.701 587.37 449.819 587.282 450.068C587.179 450.347 587.062 450.713 586.915 451.139C586.592 452.151 586.152 453.545 585.58 455.305C584.421 458.929 582.866 464.196 581.033 470.739C579.199 477.282 577.175 485.102 575.078 493.845C573.024 502.589 570.941 512.242 569.02 522.424C567.113 532.62 565.558 542.361 564.297 551.266C563.065 560.157 562.111 568.196 561.451 574.96C560.776 581.723 560.322 587.195 560.072 590.98C559.955 592.828 559.867 594.296 559.794 595.337C559.779 595.807 559.75 596.173 559.735 596.467C559.735 596.716 559.735 596.848 559.735 596.863C559.735 596.863 559.764 596.731 559.808 596.481C559.838 596.188 559.882 595.807 559.94 595.352C560.043 594.296 560.175 592.843 560.351 590.995C560.674 587.21 561.216 581.752 561.964 575.004C562.698 568.255 563.695 560.245 564.971 551.354C566.277 542.479 567.846 532.737 569.753 522.556C571.675 512.389 573.743 502.736 575.752 493.992C577.806 485.263 579.771 477.429 581.546 470.871C583.306 464.313 584.788 459.032 585.859 455.393C586.372 453.604 586.768 452.21 587.062 451.183C587.179 450.728 587.282 450.376 587.355 450.083C587.414 449.833 587.443 449.701 587.428 449.701Z" fill="#263238"/>
<path d="M553.119 582.045C561.26 564.983 567.186 541.011 563.182 522.292C554.146 540.395 550.567 561.638 553.119 582.045Z" fill="#455A64"/>
<path d="M539.581 559.966C547.722 542.904 553.648 518.932 549.643 500.212C540.608 518.316 537.029 539.559 539.581 559.966Z" fill="#455A64"/>
<path d="M527.436 537.505C535.576 520.443 541.502 496.471 537.498 477.751C528.462 495.855 524.883 517.098 527.436 537.505Z" fill="#455A64"/>
<path d="M515.467 513.284C521.525 495.224 524.561 470.622 518.386 452.606C511.565 471.825 510.538 493.39 515.467 513.284Z" fill="#455A64"/>
<path d="M507.678 493.449C507.076 474.245 501.429 450.185 489.504 435.999C489.797 456.582 496.251 477.018 507.678 493.449Z" fill="#455A64"/>
<path d="M511.271 502.97C497.146 489.635 475.672 476.402 456.354 474.67C471.227 489.209 490.751 499.273 511.271 502.97Z" fill="#455A64"/>
<path d="M520.806 523.172C504.979 510.628 481.451 498.848 461.121 498.804C477.828 512.535 499.053 521.206 520.806 523.172Z" fill="#455A64"/>
<path d="M532.702 547.54C516.875 534.996 493.347 523.216 473.017 523.172C489.724 536.904 510.949 545.574 532.702 547.54Z" fill="#455A64"/>
<path d="M549.291 575.59C533.464 563.047 509.937 551.266 489.607 551.222C506.314 564.954 527.538 573.624 549.291 575.59Z" fill="#455A64"/>
<path d="M505.83 489.958C505.83 489.958 505.844 490.075 505.918 490.28C506.006 490.53 506.108 490.823 506.24 491.19C506.563 492.041 507.003 493.185 507.56 494.638C508.719 497.63 510.479 501.944 512.738 507.21C517.256 517.773 523.945 532.18 532.262 547.613C536.427 555.33 540.608 562.563 544.524 569.077C548.47 575.561 552.122 581.356 555.32 586.124C558.488 590.907 561.128 594.736 563.006 597.347C563.915 598.609 564.634 599.606 565.177 600.34C565.411 600.648 565.602 600.897 565.749 601.103C565.881 601.279 565.954 601.352 565.969 601.352C565.969 601.352 565.925 601.25 565.807 601.059C565.661 600.839 565.499 600.575 565.294 600.252C564.795 599.504 564.106 598.477 563.241 597.186C561.436 594.53 558.869 590.657 555.745 585.845C552.621 581.033 549.012 575.238 545.096 568.739C541.224 562.211 537.073 554.978 532.907 547.276C524.605 531.857 517.843 517.509 513.208 507.005C510.89 501.753 509.057 497.484 507.824 494.52C507.208 493.082 506.724 491.953 506.372 491.117C506.211 490.764 506.079 490.471 505.976 490.236C505.888 490.046 505.83 489.943 505.815 489.943L505.83 489.958Z" fill="#263238"/>
<path d="M514.337 584.099H595.246V599.709H586.929L579.933 644.19H529.914L522.712 599.709H514.337V584.099Z" fill="#142C5B"/>
<path d="M514.337 599.372C514.337 599.166 532.32 598.99 554.498 598.99C576.676 598.99 594.659 599.152 594.659 599.372C594.659 599.592 576.676 599.753 554.498 599.753C532.32 599.753 514.337 599.592 514.337 599.372Z" fill="#111B20"/>
<path d="M50.8691 644.205H37.7411L32.8713 585.083H48.3315L50.8691 644.205Z" fill="#263238"/>
<path d="M164.679 644.205H177.821L182.691 585.083H167.216L164.679 644.205Z" fill="#263238"/>
<path d="M191.712 592.564L22.6769 596.54L17.5284 487.346C17.0297 476.651 25.5518 467.717 36.2596 467.717H180.286C191.155 467.717 199.75 476.93 198.987 487.772L191.712 592.579V592.564Z" fill="#142C5B"/>
<path d="M200.381 486.965C200.381 486.965 200.219 486.994 199.911 487.009C199.559 487.009 199.105 487.038 198.533 487.053C197.271 487.067 195.482 487.097 193.208 487.126C188.529 487.141 181.855 487.17 173.612 487.199C157.066 487.229 134.213 487.038 108.984 487.625C83.7401 488.461 60.8725 488.314 44.3269 488.065C36.0541 487.933 29.3654 487.772 24.7303 487.64C22.4568 487.566 20.6673 487.507 19.4058 487.463C18.8337 487.434 18.379 487.419 18.027 487.39C17.719 487.375 17.5576 487.361 17.5576 487.346C17.5576 487.331 17.719 487.317 18.027 487.317C18.379 487.317 18.8337 487.317 19.4058 487.317C20.6673 487.317 22.4568 487.346 24.7303 487.361C29.4094 487.405 36.0834 487.463 44.3269 487.551C60.8725 487.669 83.7254 487.728 108.969 486.877C134.213 486.29 157.081 486.569 173.626 486.671C181.855 486.745 188.544 486.803 193.223 486.847C195.496 486.877 197.286 486.891 198.547 486.906C199.119 486.906 199.574 486.935 199.926 486.935C200.234 486.935 200.395 486.965 200.395 486.979L200.381 486.965Z" fill="white"/>
<path d="M79.193 469.419C79.237 469.668 73.8978 469.771 68.2213 472.72C62.5007 475.595 59.2884 479.864 59.1124 479.674C59.039 479.63 59.7431 478.5 61.2099 476.959C62.6767 475.419 64.9796 473.527 67.8839 472.045C70.7882 470.563 73.6778 469.815 75.7753 469.536C77.8875 469.257 79.2077 469.345 79.2077 469.433L79.193 469.419Z" fill="white"/>
<path d="M148.72 270.88L169.387 308.628L199.662 291.698L214.374 296.554C214.374 296.554 177.235 336.825 171.206 338.879C165.177 340.932 153.766 341.299 147.253 333.142C141.312 325.704 124.019 286.666 124.019 286.666L148.72 270.88Z" fill="#FFBE9D"/>
<path d="M233.78 246.233C233.237 245.573 232.401 245.236 231.551 245.353L217.161 247.334C215.9 247.524 214.785 248.258 214.081 249.329L184.187 295.277L186.49 296.568L202.405 296.07L234.235 246.805L233.78 246.248V246.233Z" fill="#263238"/>
<path d="M223.586 252.204C223.894 252.469 224.437 252.366 224.789 251.955C225.141 251.544 225.185 251.001 224.877 250.723C224.569 250.444 224.026 250.561 223.674 250.972C223.322 251.383 223.278 251.926 223.586 252.204Z" fill="white"/>
<path d="M234.235 246.791C234.235 246.791 233.252 247.04 231.448 247.348C229.497 247.657 226.93 248.053 223.82 248.537C222.192 248.771 220.432 249.036 218.54 249.314C217.63 249.402 216.824 249.872 216.31 250.62C215.753 251.471 215.196 252.366 214.609 253.261C212.247 256.884 209.68 260.86 206.981 265.027C201.54 273.36 196.582 280.886 192.959 286.314C191.199 288.925 189.732 291.082 188.632 292.71C187.59 294.207 186.989 295.028 186.945 294.984C186.901 294.955 187.4 294.075 188.353 292.519C189.394 290.847 190.788 288.646 192.46 285.976C195.951 280.475 200.836 272.89 206.277 264.557C209.006 260.405 211.602 256.444 213.963 252.821C214.565 251.926 215.137 251.045 215.709 250.18C216.34 249.241 217.44 248.654 218.452 248.595C220.344 248.361 222.119 248.126 223.747 247.921C226.871 247.554 229.468 247.246 231.419 247.011C233.237 246.82 234.235 246.732 234.249 246.791H234.235Z" fill="#455A64"/>
<path d="M218.261 263.222C218.261 263.222 216.97 262.987 216.281 266.508C215.577 270.015 213.318 280.093 213.318 280.093L206.6 276.529L198.195 277.629C198.195 277.629 196.362 279.331 197.711 280.24C199.061 281.164 204.371 282.103 204.371 282.103L208.287 287.737L197.036 282.309C197.036 282.309 193.281 283.292 194.382 285.58C195.482 287.869 203.065 295.043 203.065 295.043L197.433 294.617L190.729 290.554C190.729 290.554 188.676 290.642 189.438 292.402C190.201 294.148 197.183 300.486 197.183 300.486L205.632 304.594C205.632 304.594 210.252 304.227 210.692 302.877C211.133 301.527 211.25 299.591 211.25 299.591C211.25 299.591 213.699 298.931 214.154 297.742C214.609 296.554 214.316 294.676 214.316 294.676C214.316 294.676 218.159 295.351 218.643 293.209C219.127 291.067 218.716 286.842 218.335 285.199C217.953 283.556 219.977 268.225 219.816 267.755C219.655 267.286 220.696 262.239 218.291 263.252L218.261 263.222Z" fill="#FFBE9D"/>
<path d="M210.971 302.863C211 302.965 210.179 303.317 208.771 303.552C207.363 303.787 205.338 303.802 203.197 303.303C201.055 302.789 199.266 301.865 198.107 301.014C196.948 300.178 196.376 299.488 196.45 299.415C196.611 299.195 199.281 301.513 203.402 302.467C207.495 303.479 210.927 302.613 210.971 302.877V302.863Z" fill="#EB996E"/>
<path d="M208.962 299.84C208.83 300.031 207.333 299.253 205.735 297.933C204.136 296.627 203.065 295.307 203.241 295.145C203.417 294.969 204.723 295.982 206.292 297.273C207.862 298.564 209.108 299.649 208.976 299.84H208.962Z" fill="#EB996E"/>
<path d="M213.421 292.534C213.289 292.725 211.807 291.962 210.311 290.569C208.8 289.19 207.92 287.766 208.111 287.62C208.302 287.473 209.446 288.603 210.898 289.938C212.335 291.273 213.568 292.329 213.421 292.534Z" fill="#EB996E"/>
<path d="M218.085 286.666C217.85 286.769 217 285.17 215.665 283.453C214.345 281.707 213.025 280.49 213.171 280.284C213.303 280.093 214.932 281.076 216.34 282.925C217.762 284.759 218.291 286.593 218.07 286.666H218.085Z" fill="#EB996E"/>
<path d="M223.806 558.749C223.806 558.749 223.909 558.25 223.762 557.355C223.615 556.475 223.249 555.184 222.354 553.819C222.119 553.482 221.899 553.13 221.518 552.792C221.166 552.469 220.535 552.22 219.948 552.44C219.655 552.543 219.362 552.807 219.259 553.144C219.141 553.482 219.2 553.819 219.288 554.083C219.479 554.641 219.772 555.037 220.022 555.506C220.564 556.431 221.019 557.34 221.708 558.367C222.06 558.895 222.853 559.335 223.571 559.203C224.29 559.115 224.862 558.763 225.375 558.411C226.373 557.678 227.268 556.856 228.03 555.961C228.412 555.521 228.764 555.066 229.072 554.597C229.365 554.142 229.717 553.672 229.864 553.042C229.996 552.425 229.761 551.619 229.072 551.34C228.368 551.09 227.781 551.443 227.4 551.721C226.593 552.381 226.124 553.071 225.625 553.731C224.701 555.052 224.173 556.255 223.894 557.105C223.615 557.956 223.542 558.44 223.586 558.455C223.733 558.514 224.202 556.563 226.094 554.083C226.564 553.496 227.15 552.778 227.796 552.293C228.133 552.059 228.544 551.897 228.793 552.029C229.057 552.117 229.204 552.528 229.116 552.91C229.028 553.306 228.734 553.731 228.426 554.171C228.118 554.611 227.781 555.037 227.414 555.448C226.681 556.284 225.845 557.061 224.891 557.751C224.437 558.074 223.938 558.352 223.483 558.396C223.014 558.455 222.662 558.264 222.354 557.868C221.767 557.032 221.224 555.99 220.682 555.125C220.418 554.67 220.11 554.23 219.978 553.863C219.831 553.467 219.919 553.203 220.198 553.1C220.828 552.836 221.459 553.555 221.884 554.171C223.674 556.709 223.645 558.822 223.821 558.763L223.806 558.749Z" fill="#263238"/>
<path d="M187.767 559.981L169.871 598.785L140.99 585.435L159.501 537.417L187.767 559.981Z" fill="#FFBE9D"/>
<path d="M173.245 596.188L162.786 616.14C162.786 616.14 189.556 643.824 187.047 650.015L124.121 619.837L141.415 579.83L173.259 596.203L173.245 596.188Z" fill="#455A64"/>
<path d="M144.642 604.081C143.263 603.831 141.767 604.8 141.459 606.164C141.151 607.528 142.119 609.069 143.498 609.333C144.877 609.612 146.71 608.497 146.857 607.118C147.004 605.724 145.772 603.993 144.378 604.051" fill="#E0E0E0"/>
<g opacity="0.6">
<path d="M124.122 619.823L126.733 614.805L186.08 645.614C186.08 645.614 188.295 648.181 187.033 650L124.107 619.823H124.122Z" fill="white"/>
</g>
<path d="M163.96 616.302C163.799 616.61 162.2 616.008 160.22 616.272C158.225 616.478 156.817 617.446 156.582 617.182C156.333 616.991 157.668 615.363 160.073 615.099C162.479 614.805 164.166 616.052 163.96 616.302Z" fill="#263238"/>
<path d="M169.255 622.199C169.182 622.536 167.598 622.419 165.94 623.211C164.254 623.959 163.315 625.236 163.007 625.074C162.699 624.986 163.344 623.079 165.442 622.125C167.525 621.157 169.387 621.891 169.255 622.184V622.199Z" fill="#263238"/>
<path d="M169.211 631.896C168.903 631.823 169.211 630.092 170.81 628.786C172.394 627.466 174.169 627.495 174.169 627.818C174.228 628.155 172.849 628.61 171.558 629.696C170.238 630.752 169.534 632.014 169.211 631.896Z" fill="#263238"/>
<path d="M166.967 608.614C166.703 608.834 165.5 607.734 163.711 607.015C161.936 606.267 160.308 606.193 160.264 605.856C160.19 605.548 162.053 605.049 164.151 605.915C166.263 606.765 167.231 608.438 166.967 608.614Z" fill="#263238"/>
<path d="M179.142 591.009L226.314 472.91C226.314 472.91 225.258 452.767 221.547 446.4C217.836 440.033 105.449 402.916 105.449 402.916C105.449 402.916 76.817 396.021 57.7338 402.916C38.6506 409.811 24.3346 433.666 26.9895 446.928C29.6444 460.191 40.8215 469.917 40.8215 469.917L123.476 472.367L168.522 488.798L138.188 575.752L179.142 590.98V591.009Z" fill="#263238"/>
<path d="M221.107 510.32L222.163 553.027L190.363 553.804L185.786 502.545L221.107 510.32Z" fill="#FFBE9D"/>
<path d="M224.07 549.212L223.483 571.732C223.483 571.732 259.713 584.745 260.197 591.42L190.421 592.124L188.28 548.596L224.07 549.227V549.212Z" fill="#455A64"/>
<path d="M201.877 568.915C200.528 569.297 199.618 570.822 199.941 572.187C200.264 573.551 201.819 574.49 203.168 574.138C204.517 573.786 205.676 571.981 205.207 570.661C204.723 569.341 202.86 568.328 201.628 569.003" fill="#E0E0E0"/>
<g opacity="0.6">
<path d="M190.407 592.11L190.539 586.447L257.396 587.885C257.396 587.885 260.52 589.205 260.183 591.391L190.407 592.095V592.11Z" fill="white"/>
</g>
<path d="M224.613 571.365C224.613 571.702 222.897 571.878 221.239 572.993C219.538 574.064 218.702 575.546 218.379 575.414C218.071 575.355 218.555 573.302 220.594 571.996C222.618 570.661 224.686 571.057 224.613 571.365Z" fill="#263238"/>
<path d="M231.961 574.314C232.049 574.636 230.568 575.238 229.424 576.69C228.236 578.113 227.957 579.668 227.62 579.654C227.297 579.712 227.048 577.717 228.5 575.942C229.937 574.152 231.947 573.991 231.947 574.314H231.961Z" fill="#263238"/>
<path d="M236.2 583.028C235.892 583.102 235.394 581.4 236.259 579.537C237.095 577.659 238.694 576.896 238.855 577.189C239.046 577.468 238.019 578.48 237.345 580.036C236.626 581.576 236.552 583.014 236.215 583.043L236.2 583.028Z" fill="#263238"/>
<path d="M223.909 563.135C223.762 563.443 222.207 562.988 220.271 563.135C218.349 563.252 216.853 563.913 216.677 563.619C216.472 563.37 217.924 562.093 220.198 561.947C222.471 561.785 224.07 562.856 223.909 563.12V563.135Z" fill="#263238"/>
<path d="M202.537 391.722C202.537 391.722 221.591 390.197 223.718 410.882C225.845 431.568 227.928 528.072 227.928 528.072L183.395 531.784L176.501 433.167L105.464 402.946C105.464 402.946 189.82 389.096 202.552 391.737L202.537 391.722Z" fill="#263238"/>
<path d="M123.99 363.819C123.99 363.819 135.548 396.256 133.348 399.865C131.148 403.474 101.401 418.35 101.401 418.35L26.9895 446.928C26.9895 446.928 19.3474 434.766 19.3474 416.091C19.3474 397.415 45.2366 363.804 45.2366 363.804H123.99V363.819Z" fill="#263238"/>
<path d="M101.929 401.273C101.929 401.273 102.046 401.347 102.281 401.464C102.559 401.596 102.897 401.757 103.337 401.948C104.32 402.388 105.698 403.004 107.459 403.782C111.111 405.381 116.362 407.655 122.933 410.516C136.208 416.237 154.807 424.248 176.34 433.505L176.105 433.167C176.78 442.909 177.513 453.428 178.261 464.313C180.066 489.752 181.738 513.225 183.058 531.784L183.087 532.121L183.425 532.092C196.963 530.904 208.082 529.921 215.87 529.246C219.699 528.894 222.706 528.6 224.803 528.41C225.786 528.307 226.564 528.219 227.136 528.16C227.664 528.102 227.928 528.057 227.928 528.043C227.928 528.028 227.649 528.043 227.121 528.057C226.549 528.087 225.771 528.146 224.774 528.204C222.677 528.366 219.655 528.586 215.826 528.864C208.038 529.481 196.919 530.361 183.366 531.432L183.718 531.74C182.442 513.167 180.828 489.708 179.083 464.255C178.32 453.369 177.572 442.85 176.897 433.109V432.859L176.663 432.771C155.086 423.617 136.443 415.695 123.139 410.046C116.538 407.274 111.258 405.058 107.576 403.518C105.786 402.784 104.393 402.212 103.41 401.801C102.955 401.625 102.603 401.479 102.325 401.376C102.075 401.288 101.958 401.244 101.943 401.259L101.929 401.273Z" fill="#455A64"/>
<path d="M42.7429 404.516C42.7429 404.516 43.5057 404.369 44.8258 403.943C46.3073 403.474 48.1848 402.858 50.429 402.139C55.1522 400.643 61.7088 398.545 69.1749 397.4C76.6409 396.241 83.5496 396.608 88.3754 397.65C93.2159 398.647 96.0028 400.041 96.0615 399.88C96.0761 399.836 95.4014 399.454 94.1253 398.897C92.8492 398.339 90.9276 397.664 88.4927 397.078C83.6376 395.875 76.5969 395.42 69.0428 396.579C61.4888 397.738 54.9175 399.938 50.2237 401.582C47.8768 402.418 45.9993 403.122 44.6938 403.635C43.403 404.149 42.6989 404.457 42.7136 404.516H42.7429Z" fill="#455A64"/>
<path d="M53.26 387.424C53.2747 387.556 55.7536 387.072 59.7726 387.38C61.7822 387.527 64.1584 387.82 66.8133 388.128C69.4683 388.451 72.3725 388.803 75.3942 389.375C81.4374 390.446 86.6446 392.559 89.9743 394.789C93.3333 396.975 94.9174 398.97 95.0348 398.867C95.0641 398.838 94.7267 398.31 93.9493 397.473C93.1719 396.637 91.9838 395.478 90.297 394.319C86.982 391.913 81.6574 389.669 75.5408 388.583C72.4899 388.011 69.5563 387.673 66.9013 387.395C64.2464 387.131 61.8408 386.881 59.802 386.808C57.7631 386.734 56.1056 386.852 54.9908 387.028C53.8614 387.204 53.26 387.395 53.2747 387.439L53.26 387.424Z" fill="#455A64"/>
<path d="M86.1313 126.799C77.5651 125.347 70.0404 128.647 62.8237 133.474C55.607 138.301 50.1651 145.592 47.0262 153.69C43.7258 162.229 42.9191 171.823 45.4567 180.611C47.9943 189.399 54.0228 197.262 62.1783 201.414C73.3114 207.077 87.5688 205.096 97.5284 197.57C107.488 190.03 113.194 177.574 113.663 165.089C113.986 156.492 111.932 147.69 107.136 140.545C102.325 133.401 94.6535 128.061 86.146 126.814" fill="#263238"/>
<path d="M61.7824 155.92C63.0292 152.649 62.5451 148.981 63.0438 145.519C64.1293 137.875 70.2899 131.743 77.4186 128.765C84.0486 125.992 92.1454 126.594 100.125 129.176C105.596 130.951 110.744 134.032 114.397 138.477C119.237 144.374 120.939 152.722 118.812 160.043L79.6921 154.35C76.0251 157.387 72.2847 160.468 67.8403 162.155C66.5349 162.654 65.1414 163.021 63.7626 162.801C62.3838 162.581 61.049 161.642 60.7263 160.292C60.3743 158.81 61.2543 157.358 61.7971 155.935L61.7824 155.92Z" fill="#263238"/>
<path d="M100.961 139.973L66.8134 147.206C63.5131 147.426 60.9168 150.14 60.8582 153.455L61.2689 227.381C61.2982 232.428 62.985 237.328 66.08 241.318L69.3363 245.514C76.7584 255.094 91.8078 254.126 97.4697 243.416C97.8658 242.668 98.1445 242.008 98.2618 241.48C98.3791 240.819 98.5552 240.379 98.5845 239.807L99.2299 232.604C99.5673 226.017 99.6113 219.342 99.6113 219.4C99.6113 219.4 113.59 217.64 117.169 199.624C118.944 190.66 119.076 175.872 118.782 163.769C118.518 152.869 111.83 139.254 100.961 139.973Z" fill="#FFBE9D"/>
<path d="M113.59 177.633C113.59 178.865 112.549 179.878 111.258 179.892C109.982 179.907 108.94 178.939 108.94 177.706C108.94 176.474 109.982 175.462 111.272 175.447C112.549 175.432 113.59 176.401 113.59 177.633Z" fill="#263238"/>
<path d="M115.277 171.324C114.983 171.618 113.267 170.239 110.774 170.151C108.28 170.019 106.388 171.236 106.138 170.928C106.006 170.782 106.329 170.254 107.151 169.696C107.957 169.153 109.321 168.64 110.876 168.698C112.431 168.772 113.722 169.388 114.455 170.004C115.203 170.62 115.438 171.178 115.291 171.31L115.277 171.324Z" fill="#263238"/>
<path d="M91.1771 177.075C91.1771 178.308 90.1357 179.32 88.8449 179.335C87.5688 179.349 86.5273 178.381 86.5273 177.149C86.5273 175.916 87.5688 174.904 88.8596 174.889C90.1357 174.875 91.1771 175.843 91.1771 177.075Z" fill="#263238"/>
<path d="M91.5438 170.723C91.2358 171.016 89.5343 169.637 87.026 169.549C84.5325 169.417 82.6403 170.635 82.3909 170.327C82.2589 170.18 82.5816 169.652 83.403 169.094C84.2098 168.552 85.5739 168.038 87.1287 168.097C88.6835 168.17 89.9743 168.786 90.7077 169.403C91.4558 170.019 91.6905 170.576 91.5438 170.708V170.723Z" fill="#263238"/>
<path d="M99.0392 189.736C99.0392 189.59 100.594 189.384 103.132 189.164C103.777 189.12 104.378 189.017 104.51 188.592C104.672 188.137 104.437 187.433 104.158 186.685C103.616 185.115 103.058 183.472 102.457 181.755C100.11 174.728 98.4231 168.963 98.7165 168.875C98.9952 168.787 101.137 174.405 103.498 181.433C104.056 183.164 104.598 184.822 105.112 186.391C105.332 187.125 105.713 187.961 105.346 188.915C105.156 189.384 104.672 189.707 104.261 189.81C103.85 189.912 103.484 189.912 103.176 189.912C100.638 189.956 99.0685 189.912 99.0539 189.766L99.0392 189.736Z" fill="#263238"/>
<path d="M99.6259 219.4C99.6259 219.4 87.4074 219.708 75.6143 211.992C75.6143 211.992 81.2321 224.77 99.4353 223.787L99.6406 219.415L99.6259 219.4Z" fill="#EB996E"/>
<path d="M97.7485 195.722C96.8978 194.504 95.3429 193.785 93.7735 193.888C92.688 193.961 91.5732 194.446 90.8692 195.297C90.1798 196.147 89.9891 197.409 90.5611 198.275C91.1919 199.243 92.6 199.522 93.8028 199.228C95.0056 198.935 96.0617 198.187 97.0738 197.438C97.3525 197.233 97.6312 197.013 97.8219 196.72C97.9979 196.426 98.0565 196.045 97.8512 195.795" fill="#EB996E"/>
<path d="M91.6173 191.188C92.028 191.188 91.9253 193.902 94.1695 195.912C96.4137 197.937 99.318 197.746 99.318 198.128C99.3474 198.304 98.658 198.626 97.4258 198.612C96.2231 198.612 94.4922 198.157 93.1134 196.925C91.7346 195.692 91.1919 194.093 91.1479 192.964C91.0892 191.819 91.4119 191.159 91.6026 191.188H91.6173Z" fill="#263238"/>
<path d="M91.3973 163.3C91.1186 163.974 88.6397 163.549 85.6914 163.784C82.7431 163.96 80.3375 164.737 79.9708 164.106C79.8095 163.813 80.2495 163.182 81.2323 162.566C82.2004 161.95 83.7405 161.378 85.5154 161.246C87.2902 161.128 88.889 161.466 89.9305 161.935C90.9866 162.405 91.5146 162.962 91.3973 163.285V163.3Z" fill="#263238"/>
<path d="M114.983 160.366C114.529 160.923 112.827 160.263 110.744 160.146C108.676 159.97 106.901 160.38 106.52 159.764C106.359 159.471 106.652 158.913 107.444 158.4C108.221 157.886 109.498 157.505 110.92 157.608C112.343 157.71 113.561 158.268 114.25 158.884C114.954 159.5 115.174 160.087 114.969 160.366H114.983Z" fill="#263238"/>
<path d="M55.519 150.654C59.054 140.252 74.5141 126.08 85.4565 127.063L102.75 137.905C101.577 143.846 96.8683 148.952 91.0304 150.595C87.9208 151.475 84.1804 151.666 82.2882 154.277C80.352 156.962 81.3788 160.938 79.5746 163.696C77.0811 167.525 70.4511 167.217 68.5589 171.383C67.7228 173.202 68.1042 175.403 67.2388 177.208C66.0947 179.614 59.8901 182.562 57.3671 181.711C54.8442 180.861 54.9176 176.533 54.1402 174.244C52.8054 170.342 53.4214 168.346 53.9348 166.19C55.1376 161.084 53.8468 155.598 55.5336 150.639L55.519 150.654Z" fill="#263238"/>
<path d="M64.8186 184.015C64.8626 182.665 63.4251 179.423 62.105 179.159C58.57 178.469 52.1453 178.498 51.7346 187.536C51.1772 199.888 63.6891 197.908 63.7331 197.556C63.7625 197.277 64.6572 188.68 64.8186 184.015Z" fill="#FFBE9D"/>
<path d="M60.1688 192.7C60.1688 192.7 59.9488 192.847 59.582 192.993C59.2153 193.14 58.5993 193.228 57.9686 192.949C56.6924 192.406 55.6803 190.294 55.7243 188.064C55.739 186.934 56.0324 185.878 56.4724 185.012C56.8831 184.132 57.4992 183.516 58.1592 183.428C58.8193 183.311 59.2594 183.721 59.406 184.073C59.5527 184.426 59.4647 184.675 59.538 184.69C59.5674 184.719 59.8167 184.499 59.7287 183.985C59.6847 183.736 59.5527 183.443 59.274 183.193C58.9953 182.944 58.5553 182.797 58.1006 182.826C57.1471 182.856 56.2524 183.692 55.7683 184.646C55.2403 185.599 54.8883 186.788 54.8736 188.049C54.8443 190.543 56.003 192.935 57.7632 193.521C58.614 193.785 59.362 193.565 59.7434 193.287C60.1394 192.993 60.2128 192.729 60.1688 192.7Z" fill="#EB996E"/>
<path d="M52.8787 147.441C52.9227 143.582 48.0969 141.044 44.3272 140.179C40.5575 139.298 36.5824 140.443 33.1941 142.306C31.2139 143.391 29.219 144.932 28.779 147.162C28.3389 149.377 30.4658 152.018 32.578 151.226C28.5296 152.619 26.4614 158.033 28.5736 161.759C30.6858 165.486 36.3917 166.512 39.6627 163.754C38.6066 167.29 36.3037 170.444 33.2381 172.527C39.5894 173.437 46.3367 170.723 50.2971 165.662C54.2575 160.615 55.2696 153.412 52.864 147.455L52.8787 147.441Z" fill="#263238"/>
<path d="M44.3124 167.099C44.2244 167.099 43.8871 165.706 43.8577 163.388C43.8137 161.07 44.1511 157.842 45.2805 154.468C46.4247 151.108 48.0968 148.321 49.549 146.502C50.9864 144.683 52.1012 143.758 52.1599 143.832C52.3946 143.993 48.2435 148.101 46.058 154.717C43.7844 161.319 44.6058 167.085 44.3271 167.085L44.3124 167.099Z" fill="#FF725E"/>
<path d="M99.1565 134.163C100.286 139.195 107.943 145.636 111.287 149.553C117.682 157.02 118.944 159.5 118.885 176.21C121.907 170.444 124.224 164.796 123.99 158.282C123.755 151.768 121.364 145.254 116.832 140.575C112.314 135.895 105.596 133.239 99.1418 134.163" fill="#263238"/>
<path d="M151.551 271.613C151.551 271.613 138.247 249.417 134.551 244.927C131.089 240.717 126.63 238.238 123.652 236.932C121.995 236.213 120.249 235.714 118.474 235.406L99.3325 231.166C99.3325 231.166 99.3031 244.238 85.6031 245.045C71.9178 245.852 60.3887 226.78 60.3887 226.78C60.3887 226.78 38.2692 230.198 32.974 232.927C27.6788 235.656 19.362 239.103 14.7856 262.033L11.5732 284.45L49.7103 287.971L53.3627 344.644L72.2698 357.818C72.2698 357.818 124.708 371.448 128.053 372.357C131.397 373.252 132.512 287.971 132.512 287.971C132.512 287.971 145.977 279.257 151.551 271.628V271.613Z" fill="#263238"/>
<path d="M126.439 262.078C126.439 262.078 126.747 262.635 127.173 263.706C127.613 264.777 128.17 266.347 128.786 268.313C130.033 272.244 131.397 277.805 132.16 284.069C132.923 290.333 132.937 296.055 132.688 300.177C132.556 302.231 132.409 303.904 132.233 305.033C132.072 306.178 131.969 306.809 131.91 306.794C131.852 306.794 131.866 306.148 131.94 305.004C132.013 303.86 132.086 302.202 132.145 300.148C132.262 296.055 132.145 290.377 131.412 284.157C130.649 277.951 129.373 272.421 128.273 268.459C127.73 266.479 127.246 264.894 126.894 263.794C126.557 262.694 126.395 262.078 126.439 262.063V262.078Z" fill="#455A64"/>
<path d="M124.811 354.928L53.0106 339.289L49.6956 287.957L17.7632 285.008C17.7632 285.008 18.9513 320.1 20.1688 330.531C21.9289 345.539 30.8031 366.005 35.9956 370.098C41.1881 374.191 128.038 372.342 128.038 372.342L124.811 354.914V354.928Z" fill="#FFBE9D"/>
<path d="M165.574 364.229C165.075 365.227 164.019 365.887 162.904 365.785C162.684 365.77 162.449 365.726 162.215 365.638C160.63 365.124 160.777 361.897 160.777 361.897L153.164 360.65C153.164 360.65 143.263 367.032 139.743 371.257C136.223 375.482 127.246 372.064 127.246 372.064L124.136 355.838L138.144 343.162C138.144 343.162 137.279 343.911 138.247 341.549C139.215 339.172 143.615 340.082 143.615 340.082C144.305 338.908 147.18 338.497 147.18 338.497L159.472 339.92C162.009 340.214 164.268 341.637 165.632 343.793L170.825 352.023C170.825 352.023 173.568 357.95 173.128 359.329C172.468 361.413 170.267 360.943 170.267 360.943C170.267 360.943 169.666 364.831 168.639 364.978C167.612 365.11 165.603 364.244 165.603 364.244L165.574 364.229Z" fill="#FFBE9D"/>
<path d="M139.421 352.581C139.421 352.713 141.063 352.552 143.689 352.669C146.3 352.801 149.923 353.256 153.722 354.547C155.614 355.178 157.36 355.955 158.885 356.762C160.367 357.599 161.921 358.288 162.391 359.374C162.625 359.902 162.523 360.445 162.259 360.841C161.995 361.237 161.643 361.501 161.335 361.618C160.689 361.882 160.279 361.706 160.264 361.78C160.235 361.794 160.645 362.117 161.437 361.912C161.819 361.809 162.259 361.545 162.625 361.09C162.992 360.65 163.197 359.873 162.919 359.168C162.655 358.449 162.039 357.892 161.393 357.437C160.719 356.997 160.029 356.557 159.237 356.131C157.697 355.266 155.907 354.459 153.971 353.814C150.099 352.493 146.373 352.112 143.704 352.126C141.034 352.156 139.406 352.508 139.421 352.596V352.581Z" fill="#EB996E"/>
<path d="M138.57 360.415C138.57 360.65 143.586 360.444 149.732 360.796C155.878 361.134 160.821 361.911 160.865 361.677C160.88 361.574 159.662 361.251 157.667 360.899C155.673 360.547 152.886 360.195 149.776 360.019C146.681 359.843 143.865 359.887 141.841 360.019C139.816 360.136 138.57 360.327 138.57 360.43V360.415Z" fill="#EB996E"/>
<path d="M165.5 363.907C165.5 363.907 165.603 363.452 165.662 362.601C165.706 361.75 165.764 360.533 165.662 359.007C165.603 358.244 165.53 357.408 165.324 356.513C165.134 355.618 164.708 354.664 164.121 353.828C163.021 352.156 161.481 350.41 159.516 349.119C157.565 347.828 155.614 346.742 153.634 346.155C151.668 345.569 149.835 345.422 148.324 345.349C146.798 345.29 145.581 345.334 144.73 345.349C143.88 345.378 143.425 345.422 143.425 345.481C143.425 345.613 145.302 345.671 148.295 345.891C149.791 346.023 151.566 346.229 153.414 346.83C155.262 347.417 157.169 348.517 159.061 349.75C160.953 351.011 162.391 352.611 163.52 354.224C164.708 355.779 164.928 357.555 165.119 359.036C165.412 362.014 165.339 363.907 165.515 363.892L165.5 363.907Z" fill="#EB996E"/>
<path d="M147.752 341.622C147.752 341.739 149.585 341.783 152.519 342.121C155.35 342.561 159.868 342.766 162.449 346.654C165.236 350.204 167.613 353.549 168.654 356.293C169.754 359.021 169.651 360.914 169.813 360.899C169.857 360.899 169.93 360.43 169.886 359.593C169.857 358.757 169.666 357.525 169.167 356.102C168.229 353.197 165.867 349.735 163.065 346.17C162.347 345.275 161.569 344.424 160.675 343.749C159.78 343.06 158.738 342.663 157.785 342.385C155.849 341.842 154.059 341.681 152.578 341.563C149.6 341.358 147.752 341.519 147.752 341.607V341.622Z" fill="#EB996E"/>
<path d="M142.427 368.645C142.427 368.645 142.691 368.469 143.161 368.088C143.689 367.662 144.364 367.12 145.214 366.43C147.033 365.022 149.732 363.026 153.282 360.87L153.106 360.899C155.379 361.281 157.932 361.721 160.704 362.19L160.44 361.868C160.425 362.484 160.454 363.1 160.586 363.731C160.718 364.347 160.909 365.022 161.452 365.565C161.731 365.829 162.127 365.99 162.464 366.034C162.801 366.122 163.168 366.151 163.535 366.093C164.253 365.99 164.943 365.609 165.427 365.051C165.544 364.919 165.662 364.758 165.764 364.596L165.838 364.479L165.867 364.42V364.391H165.882C165.984 364.347 165.031 364.699 165.442 364.552H165.456L165.691 364.655C166.014 364.787 166.336 364.904 166.674 365.007C167.011 365.11 167.348 365.198 167.715 365.271C167.891 365.3 168.082 365.33 168.287 365.33C168.478 365.33 168.698 365.33 168.991 365.198C169.417 364.89 169.578 364.538 169.739 364.185C169.886 363.833 170.018 363.496 170.121 363.144C170.326 362.44 170.487 361.735 170.605 360.987L170.165 361.295C171.147 361.471 172.321 361.237 172.996 360.327C173.304 359.902 173.553 359.388 173.524 358.801C173.494 358.273 173.377 357.804 173.26 357.334C172.732 355.471 171.969 353.681 171.162 351.862L171.147 351.818C170.267 350.424 169.329 348.928 168.375 347.432C167.788 346.493 167.202 345.568 166.615 344.644C166.028 343.749 165.515 342.752 164.694 341.945C163.901 341.152 162.963 340.522 161.936 340.111C160.924 339.671 159.794 339.568 158.797 339.465C154.719 339.011 150.847 338.57 147.209 338.16H147.165H147.121C146.402 338.277 145.742 338.453 145.097 338.688C144.466 338.952 143.791 339.231 143.337 339.92L143.762 339.788C142.457 339.26 140.961 339.245 139.816 340.008C138.672 340.756 138.144 341.974 137.866 343.118L137.954 342.957C133.935 346.581 130.649 349.529 128.302 351.642C127.217 352.64 126.351 353.432 125.706 354.033C125.119 354.591 124.811 354.884 124.84 354.914C124.855 354.928 125.192 354.679 125.823 354.165C126.498 353.593 127.407 352.83 128.522 351.891C130.913 349.823 134.257 346.947 138.35 343.397L138.423 343.338L138.452 343.236C138.716 342.223 139.23 341.123 140.168 340.536C141.093 339.92 142.413 339.935 143.498 340.39L143.762 340.507L143.923 340.258C144.188 339.847 144.774 339.539 145.361 339.319C145.948 339.099 146.608 338.937 147.253 338.835H147.165C150.788 339.26 154.675 339.715 158.738 340.199C159.78 340.316 160.748 340.404 161.672 340.815C162.596 341.182 163.447 341.754 164.165 342.473C164.884 343.177 165.383 344.116 165.984 345.04C166.571 345.964 167.143 346.889 167.744 347.828C168.698 349.324 169.637 350.82 170.517 352.214L170.487 352.17C171.294 353.945 172.042 355.735 172.556 357.51C172.673 357.95 172.79 358.405 172.805 358.801C172.849 359.153 172.673 359.535 172.438 359.843C171.998 360.474 171.103 360.665 170.355 360.547L169.974 360.488L169.915 360.855C169.798 361.545 169.651 362.249 169.461 362.909C169.285 363.54 169.006 364.303 168.669 364.552C168.654 364.552 168.522 364.596 168.361 364.582C168.214 364.582 168.053 364.552 167.891 364.538C167.568 364.479 167.26 364.406 166.938 364.303C166.615 364.2 166.307 364.097 165.999 363.98L165.779 363.892C166.175 363.745 165.236 364.097 165.324 364.053V364.083L165.295 364.127L165.236 364.23C165.163 364.347 165.075 364.479 164.972 364.582C164.591 365.022 164.063 365.33 163.505 365.418C163.227 365.462 162.948 365.447 162.669 365.374C162.361 365.33 162.171 365.242 161.98 365.08C161.261 364.332 161.159 362.982 161.144 361.897V361.618L160.88 361.574C158.108 361.134 155.541 360.738 153.267 360.386H153.164L153.091 360.415C149.527 362.66 146.872 364.728 145.112 366.195C144.232 366.944 143.571 367.545 143.131 367.956C142.691 368.381 142.486 368.601 142.501 368.616L142.427 368.645Z" fill="#EB996E"/>
<path d="M258.731 317.034L164.151 317.797C161.085 317.797 158.151 319.264 157.697 322.3L147.356 391.238H98.643C97.0735 391.238 95.7974 392.514 95.7974 394.084C95.7974 395.654 97.0735 396.93 98.643 396.93H254.228L264.862 324.164C265.434 320.408 262.53 317.034 258.731 317.034Z" fill="#E0E0E0"/>
<path d="M258.731 317.034C258.731 317.034 259.244 316.975 260.227 317.181C261.18 317.401 262.662 317.987 263.835 319.572C264.422 320.349 264.862 321.391 265.009 322.594C265.17 323.812 264.818 325.103 264.657 326.482C264.261 329.269 263.806 332.482 263.292 336.076C261.21 350.527 258.217 371.359 254.521 396.974L254.492 397.224H254.242C213.978 397.253 161.07 397.283 103.293 397.312H99.2298C98.599 397.341 97.7336 397.312 97.0735 396.901C96.3988 396.534 95.8854 395.918 95.6214 395.199C95.0493 393.762 95.7387 391.986 97.0882 391.268C97.7336 390.871 98.599 390.842 99.2151 390.871H101.21C106.534 390.871 111.815 390.871 117.022 390.871C127.437 390.871 137.572 390.871 147.356 390.871L146.989 391.18C150.715 366.489 154.176 343.456 157.301 322.785C157.403 321.479 158.005 320.056 159.046 319.176C160.073 318.266 161.378 317.782 162.669 317.577C163.989 317.371 165.236 317.489 166.483 317.445C167.73 317.445 168.962 317.43 170.194 317.415C175.108 317.386 179.86 317.357 184.437 317.313C193.59 317.254 202.053 317.195 209.739 317.151C225.097 317.078 237.33 317.004 245.764 316.96C249.959 316.96 253.186 316.96 255.401 316.946C256.486 316.946 257.308 316.946 257.895 316.946C258.452 316.946 258.745 316.975 258.745 316.975C258.745 316.975 258.467 317.004 257.895 317.019C257.308 317.019 256.486 317.049 255.401 317.078C253.186 317.107 249.944 317.151 245.764 317.21C237.33 317.298 225.097 317.445 209.739 317.606C202.053 317.679 193.59 317.767 184.437 317.855C179.86 317.899 175.108 317.943 170.194 317.987C168.962 317.987 167.73 318.017 166.483 318.017C165.236 318.061 163.96 317.958 162.757 318.149C161.554 318.34 160.366 318.794 159.457 319.601C158.533 320.408 158.034 321.538 157.917 322.829C154.837 343.5 151.404 366.533 147.708 391.238L147.664 391.546H147.341C137.572 391.546 127.422 391.546 117.007 391.546C111.8 391.546 106.534 391.546 101.195 391.546H99.2004C98.4963 391.532 97.9683 391.546 97.4402 391.854C96.3988 392.397 95.8854 393.747 96.3255 394.847C96.5308 395.39 96.9269 395.874 97.4402 396.153C97.9683 396.461 98.4963 396.49 99.2151 396.461C100.565 396.461 101.914 396.461 103.278 396.461C161.056 396.49 213.964 396.534 254.228 396.549L253.934 396.798C257.733 371.198 260.814 350.38 262.955 335.944C263.498 332.335 263.982 329.137 264.393 326.35C264.554 324.956 264.921 323.68 264.774 322.521C264.657 321.362 264.231 320.349 263.674 319.587C262.559 318.017 261.107 317.415 260.183 317.181C259.229 316.946 258.716 316.99 258.716 316.96L258.731 317.034Z" fill="#263238"/>
<path d="M207.436 362.043C210.709 362.043 213.362 359.39 213.362 356.116C213.362 352.843 210.709 350.189 207.436 350.189C204.164 350.189 201.51 352.843 201.51 356.116C201.51 359.39 204.164 362.043 207.436 362.043Z" fill="white"/>
<path d="M151.199 396.3C151.331 396.329 154.338 378.768 157.917 357.1C161.496 335.416 164.283 317.826 164.151 317.812C164.019 317.782 161.012 335.343 157.433 357.026C153.854 378.695 151.067 396.285 151.199 396.314V396.3Z" fill="#263238"/>
</g>
<defs>
<clipPath id="clip0_155_27">
<rect width="628" height="650" fill="white"/>
</clipPath>
</defs>
</svg>
