<svg width="273" height="217" viewBox="0 0 273 217" fill="none" xmlns="http://www.w3.org/2000/svg">
<g clip-path="url(#clip0_155_525)">
<path d="M39.9811 196.172C93.2854 223.941 179.714 223.941 233.019 196.172C286.323 168.402 286.323 123.378 233.019 95.6091C179.714 67.8399 93.2854 67.8399 39.9811 95.6091C-13.3231 123.378 -13.3231 168.402 39.9811 196.172V196.172Z" fill="#F5F5F5"/>
<path d="M25.098 150.637L7.77075 140.657V103.601L25.098 113.575V150.637Z" fill="#E0E0E0"/>
<path d="M25.0979 113.575L49.8546 99.3226V136.385L25.0979 150.637V113.575Z" fill="#EBEBEB"/>
<path d="M49.8547 99.3226L25.098 113.575L7.77075 103.601L32.5274 89.3429L49.8547 99.3226Z" fill="#F5F5F5"/>
<path d="M27.5725 115.003L47.3803 103.601L47.8374 103.863V117.586L28.0296 128.988L27.5725 128.727V115.003Z" fill="#E0E0E0"/>
<path d="M28.0295 115.265L47.8373 103.863V117.586L28.0295 128.988V115.265Z" fill="#F5F5F5"/>
<path d="M35.7943 113.119L39.1646 111.18C39.6035 110.931 39.9569 111.047 39.9569 111.436C39.9569 111.825 39.6035 112.353 39.1646 112.602L35.7943 114.541C35.3554 114.79 35.002 114.681 35.002 114.286C35.002 113.891 35.3554 113.368 35.7943 113.119V113.119Z" fill="#E0E0E0"/>
<path d="M27.1213 132.373L46.923 120.965V134.695L47.3801 134.956L27.5723 146.358L27.1152 146.097L27.1213 132.373Z" fill="#E0E0E0"/>
<path d="M27.5723 132.635L47.38 121.233V134.956L27.5723 146.358V132.635Z" fill="#F5F5F5"/>
<path d="M35.337 130.489L38.7074 128.55C39.1462 128.301 39.4997 128.417 39.4997 128.806C39.4997 129.195 39.1462 129.723 38.7074 129.973L35.337 131.911C34.8982 132.161 34.5447 132.045 34.5447 131.656C34.5447 131.261 34.8982 130.738 35.337 130.489V130.489Z" fill="#E0E0E0"/>
<path d="M25.098 111.442L7.77075 101.462V64.3998L25.098 74.3795V111.442Z" fill="#E0E0E0"/>
<path d="M25.0979 74.3795L49.8546 60.1272V97.1832L25.0979 111.442V74.3795Z" fill="#EBEBEB"/>
<path d="M49.8547 60.1272L25.098 74.3795L7.77075 64.3998L32.5274 50.1475L49.8547 60.1272Z" fill="#F5F5F5"/>
<path d="M27.5725 75.8017L47.3803 64.3998L47.8374 64.6673L47.8313 78.3908L28.0296 89.7927L27.5725 89.5313V75.8017Z" fill="#E0E0E0"/>
<path d="M35.7943 73.9237L39.1646 71.9849C39.6035 71.7357 39.9569 71.8451 39.9569 72.2401C39.9569 72.6352 39.6035 73.1579 39.1646 73.4071L35.7943 75.3459C35.3554 75.5951 35.002 75.4857 35.002 75.0906C35.002 74.6956 35.3554 74.1729 35.7943 73.9237V73.9237Z" fill="#E0E0E0"/>
<path d="M27.1152 93.1719L46.923 81.7701V95.4997L47.3801 95.761L27.5723 107.163L27.1152 106.902V93.1719Z" fill="#E0E0E0"/>
<path d="M27.5723 93.4393L47.38 82.0314V95.761L27.5723 107.163V93.4393Z" fill="#F5F5F5"/>
<path d="M35.337 91.2939L38.7074 89.3551C39.1462 89.1059 39.4997 89.2153 39.4997 89.6104C39.4997 90.0054 39.1462 90.5281 38.7074 90.7773L35.337 92.7161C34.8982 92.9653 34.5447 92.8559 34.5447 92.4608C34.5447 92.0658 34.8982 91.5431 35.337 91.2939V91.2939Z" fill="#E0E0E0"/>
<path d="M27.5725 75.8017L47.3803 64.3998V78.1295L27.5725 89.5313V75.8017Z" fill="#E0E0E0"/>
<path d="M57.2841 71.1826L46.4417 64.9408V77.0355L57.2841 83.2773V71.1826Z" fill="#E0E0E0"/>
<path d="M35.002 91.4823V74.3795L39.25 71.9241L39.9509 72.9512L52.3292 65.8281V81.5087L35.002 91.4823Z" fill="#EBEBEB"/>
<path d="M35.002 91.4823L36.2392 76.5189L53.5664 66.5392L52.3292 81.5087L35.002 91.4823Z" fill="#F5F5F5"/>
<path d="M37.4763 82.5845L28.0295 77.1449V89.2396L37.4763 94.6792V82.5845Z" fill="#EBEBEB"/>
<path d="M37.4763 81.5087L57.2841 70.1008L57.278 83.8304L37.4763 95.2323V81.5087Z" fill="#F5F5F5"/>
<path d="M45.241 79.3633L48.6114 77.4245C49.0502 77.1753 49.4037 77.2847 49.4037 77.6797C49.4037 78.0748 49.0502 78.5975 48.6114 78.8467L45.241 80.7855C44.8022 81.0346 44.4487 80.9252 44.4487 80.5302C44.4487 80.1351 44.8022 79.6125 45.241 79.3633V79.3633Z" fill="#E0E0E0"/>
<path d="M37.4763 81.5087L36.8181 81.1258V94.8494L37.4763 95.2323V81.5087Z" fill="#E0E0E0"/>
<path d="M36.8181 81.1258L56.6198 69.7239L57.2841 70.1008L37.4763 81.5087L36.8181 81.1258Z" fill="#EBEBEB"/>
<path d="M229.807 128.18L212.474 118.206V81.144L229.807 91.1237V128.18Z" fill="#E0E0E0"/>
<path d="M229.807 91.1237L254.564 76.8714V113.927L229.807 128.18V91.1237Z" fill="#EBEBEB"/>
<path d="M254.564 76.8714L229.807 91.1237L212.474 81.144L237.23 66.8917L254.564 76.8714Z" fill="#F5F5F5"/>
<path d="M232.281 92.5459L252.089 81.144L252.54 81.4054V95.135L232.739 106.537L232.281 106.276V92.5459Z" fill="#E0E0E0"/>
<path d="M232.739 92.8073L252.54 81.4054V95.135L232.739 106.537V92.8073Z" fill="#F5F5F5"/>
<path d="M240.503 90.6679L243.874 88.7291C244.312 88.4799 244.666 88.5893 244.666 88.9843C244.666 89.3794 244.312 89.9021 243.874 90.1513L240.503 92.0901C240.064 92.3393 239.711 92.2299 239.711 91.8348C239.711 91.4398 240.064 90.9171 240.503 90.6679Z" fill="#E0E0E0"/>
<path d="M231.824 109.916L251.632 98.5143V112.238L252.089 112.505L232.281 123.907L231.824 123.646V109.916Z" fill="#E0E0E0"/>
<path d="M232.281 110.177L252.089 98.7756V112.505L232.281 123.907V110.177Z" fill="#F5F5F5"/>
<path d="M240.046 108.038L243.416 106.099C243.855 105.85 244.209 105.966 244.209 106.355C244.209 106.744 243.855 107.272 243.416 107.521L240.046 109.46C239.607 109.709 239.254 109.6 239.254 109.205C239.254 108.81 239.607 108.287 240.046 108.038Z" fill="#E0E0E0"/>
<path d="M64.9148 166.919C64.9148 166.919 64.9879 157.28 58.8932 150.054C53.4933 143.654 50.6227 139.594 52.3293 137.722C54.0358 135.85 57.6804 135.4 62.611 140.572C67.5416 145.744 67.9256 160.094 67.243 163.34L64.9087 166.919H64.9148Z" fill="#1C3871"/>
<path opacity="0.2" d="M64.9148 166.919C64.9148 166.919 64.9879 157.28 58.8932 150.054C53.4933 143.654 50.6227 139.594 52.3293 137.722C54.0358 135.85 57.6804 135.4 62.611 140.572C67.5416 145.744 67.9256 160.094 67.243 163.34L64.9087 166.919H64.9148Z" fill="black"/>
<path d="M65.9691 156.557C65.8289 156.557 65.7009 156.46 65.6705 156.314C63.5373 146.364 58.0582 140.864 54.9865 138.469C54.8524 138.366 54.828 138.178 54.9316 138.044C55.0352 137.91 55.2242 137.886 55.3582 137.989C58.497 140.433 64.0919 146.048 66.2617 156.186C66.2982 156.35 66.1946 156.514 66.0301 156.545C66.0057 156.545 65.9874 156.551 65.9691 156.551V156.557Z" fill="white"/>
<path d="M64.7076 170.505L62.2331 171.933C62.2331 171.933 61.5993 169.715 58.8932 169.083C56.1872 168.451 53.3653 168.579 51.4699 166.233C49.5744 163.887 51.8843 161.34 51.4699 159.608C51.0554 157.882 50.7812 157.383 47.3864 155.657C43.9856 153.931 42.6447 151.069 45.2045 149.124C47.7643 147.179 51.9209 148.607 54.4197 150.309C56.6504 151.828 58.7713 152.229 61.264 152.533C63.7507 152.837 67.8159 154.229 67.1942 159.997C66.5725 165.771 64.7197 170.499 64.7197 170.499L64.7076 170.505Z" fill="#1C3871"/>
<path d="M55.1754 162.908C55.0474 162.908 54.9255 162.829 54.8828 162.695C54.8341 162.537 54.9194 162.361 55.0779 162.312C55.3034 162.239 60.5753 160.58 62.8059 162.367C62.94 162.47 62.9583 162.665 62.8547 162.793C62.7511 162.926 62.5561 162.944 62.4281 162.841C60.4534 161.261 55.3216 162.878 55.2668 162.896C55.2363 162.908 55.2058 162.908 55.1754 162.908V162.908Z" fill="white"/>
<path d="M64.988 170.037C64.8356 170.037 64.7015 169.922 64.6832 169.764C63.3241 156.964 47.8619 150.892 47.7095 150.832C47.551 150.771 47.4718 150.595 47.5328 150.436C47.5937 150.278 47.7705 150.199 47.9289 150.26C48.0874 150.321 63.897 156.526 65.2927 169.697C65.311 169.861 65.1891 170.013 65.0246 170.031C65.0124 170.031 65.0002 170.031 64.9941 170.031L64.988 170.037Z" fill="white"/>
<path d="M216.581 162.088C216.655 161.881 219.263 148.455 216.581 138.937C214.119 130.21 210.962 126.989 206.428 126.277C201.893 125.566 199.925 128.824 202.332 133.23C204.739 137.643 210.529 143.502 211.956 153.36C212.541 157.42 213.028 160.945 213.028 160.945L216.575 162.088H216.581Z" fill="#1C3871"/>
<path opacity="0.2" d="M216.581 162.088C216.655 161.881 219.263 148.455 216.581 138.937C214.119 130.21 210.962 126.989 206.428 126.277C201.893 125.566 199.925 128.824 202.332 133.23C204.739 137.643 210.529 143.502 211.956 153.36C212.541 157.42 213.028 160.945 213.028 160.945L216.575 162.088H216.581Z" fill="black"/>
<path d="M215.052 154.381C215.052 154.381 215.039 154.381 215.033 154.381C214.863 154.369 214.735 154.229 214.747 154.059C215.368 143.192 211.797 133.492 205.416 128.733C205.282 128.63 205.251 128.441 205.355 128.307C205.452 128.174 205.647 128.143 205.782 128.247C212.321 133.121 215.99 143.022 215.356 154.089C215.35 154.253 215.21 154.375 215.052 154.375V154.381Z" fill="white"/>
<path d="M223.596 169.077C223.249 166.579 224.687 162.835 228.106 161.948C231.526 161.066 233.049 159.103 231.818 156.964C230.581 154.825 230.873 152.861 233.976 151.974C237.078 151.087 239.796 149.531 238.01 146.273C236.712 143.909 236.426 142.383 239.607 137.722C242.246 133.856 240.089 131.589 236.785 132.021C233.482 132.452 231.44 136.366 229.38 137.029C227.32 137.691 226.833 134.178 224.108 135.747C221.384 137.315 221.555 141.332 221.463 144.134C221.378 146.936 221.195 147.568 218.733 147.227C216.271 146.887 213.863 147.288 213.912 153.226C213.955 158.319 216.679 164.628 216.679 164.628L223.596 169.077V169.077Z" fill="#1C3871"/>
<path d="M219.275 165.278C219.275 165.278 219.251 165.278 219.239 165.278C219.074 165.26 218.952 165.108 218.971 164.944C220.689 149.628 233.866 136.719 237.303 134.099C237.438 133.996 237.626 134.02 237.73 134.154C237.834 134.288 237.809 134.476 237.675 134.58C234.287 137.163 221.274 149.908 219.58 165.011C219.562 165.169 219.428 165.278 219.275 165.278Z" fill="white"/>
<path d="M225.285 148.917C225.163 148.917 225.047 148.844 224.998 148.716C224.937 148.558 225.022 148.382 225.175 148.327C230.093 146.504 235.658 147.361 235.895 147.398C236.06 147.422 236.176 147.58 236.145 147.744C236.121 147.908 235.956 148.017 235.798 147.999C235.743 147.987 230.148 147.13 225.388 148.893C225.352 148.905 225.315 148.911 225.285 148.911V148.917Z" fill="white"/>
<path d="M220.908 158.113C220.823 158.113 220.738 158.076 220.683 158.009C217.404 154.308 216.697 149.889 216.667 149.701C216.642 149.537 216.758 149.379 216.923 149.355C217.093 149.33 217.246 149.446 217.27 149.61C217.276 149.652 217.983 154.041 221.14 157.608C221.25 157.736 221.238 157.924 221.116 158.04C221.061 158.088 220.988 158.113 220.915 158.113H220.908Z" fill="white"/>
<path d="M64.7075 76.4338V170.505L161.26 114.918V29.392L89.4642 70.7268L86.9898 63.6037L64.7075 76.4338Z" fill="#1C3871"/>
<path opacity="0.7" d="M64.7075 76.4338V170.505L161.26 114.918V29.392L89.4642 70.7268L86.9898 63.6037L64.7075 76.4338Z" fill="black"/>
<path d="M64.7075 170.505L69.6625 84.9852L166.215 29.392L161.26 114.918L64.7075 170.505Z" fill="#E0E0E0"/>
<path d="M64.7075 170.505L72.137 86.4074L168.689 30.8203L161.26 114.918L64.7075 170.505Z" fill="#1C3871"/>
<path opacity="0.7" d="M64.7075 170.505L72.137 86.4074L168.689 30.8203L161.26 114.918L64.7075 170.505Z" fill="black"/>
<path d="M79.5664 84.9852V179.057L176.119 123.469V37.9434L104.323 79.2842L101.849 72.155L79.5664 84.9852Z" fill="#1C3871"/>
<path opacity="0.5" d="M79.5664 84.9852V179.057L176.119 123.469V37.9434L104.323 79.2842L101.849 72.155L79.5664 84.9852Z" fill="black"/>
<path d="M79.5664 179.057L84.5153 93.5366L181.068 37.9434L176.119 123.469L79.5664 179.057Z" fill="#E0E0E0"/>
<path d="M79.5664 179.057L86.9897 94.9588L183.542 39.3717L176.119 123.47L79.5664 179.057Z" fill="#1C3871"/>
<path opacity="0.5" d="M79.5664 179.057L86.9897 94.9588L183.542 39.3717L176.119 123.47L79.5664 179.057Z" fill="black"/>
<path d="M161.26 208.99C143.932 199.01 127.855 188.167 120.51 175.434L142.793 162.604L161.26 208.99Z" fill="#E0E0E0"/>
<path d="M96.8936 94.9588V189.036L193.446 133.443V47.9231L121.65 89.2578L119.176 82.1347L96.8936 94.9588Z" fill="#1C3871"/>
<path opacity="0.2" d="M96.8936 94.9588V189.036L193.446 133.443V47.9231L121.65 89.2578L119.176 82.1347L96.8936 94.9588Z" fill="black"/>
<path d="M124.71 122.777C124.466 122.777 124.429 122.497 124.429 122.327V42.0884C124.429 41.5232 124.844 40.8121 125.331 40.5264L195.018 0.407216C195.134 0.340361 195.244 0.303894 195.335 0.303894C195.579 0.303894 195.616 0.583471 195.616 0.753648V80.9921C195.616 81.5573 195.201 82.2684 194.714 82.5541L125.027 122.673C124.911 122.74 124.801 122.777 124.71 122.777V122.777Z" fill="white"/>
<path d="M195.299 0.613853C195.299 0.613853 195.317 0.686786 195.317 0.753641V80.9921C195.317 81.4419 194.957 82.0618 194.567 82.2867L124.88 122.406C124.826 122.436 124.783 122.455 124.753 122.461C124.746 122.43 124.74 122.388 124.74 122.321V42.0884C124.74 41.6387 125.1 41.0187 125.49 40.7939L195.171 0.668553C195.226 0.638164 195.268 0.619931 195.299 0.613853ZM195.335 0C195.195 0 195.031 0.048622 194.866 0.145866L125.179 40.2651C124.594 40.5994 124.125 41.4199 124.125 42.0884V122.327C124.125 122.801 124.362 123.081 124.71 123.081C124.85 123.081 125.015 123.032 125.179 122.935L194.866 82.8154C195.451 82.4811 195.92 81.6607 195.92 80.9921V0.753641C195.92 0.273499 195.683 0 195.335 0Z" fill="#1C3871"/>
<path opacity="0.7" d="M195.299 0.613853C195.299 0.613853 195.317 0.686786 195.317 0.753641V80.9921C195.317 81.4419 194.957 82.0618 194.567 82.2867L124.88 122.406C124.826 122.436 124.783 122.455 124.753 122.461C124.746 122.43 124.74 122.388 124.74 122.321V42.0884C124.74 41.6387 125.1 41.0187 125.49 40.7939L195.171 0.668553C195.226 0.638164 195.268 0.619931 195.299 0.613853ZM195.335 0C195.195 0 195.031 0.048622 194.866 0.145866L125.179 40.2651C124.594 40.5994 124.125 41.4199 124.125 42.0884V122.327C124.125 122.801 124.362 123.081 124.71 123.081C124.85 123.081 125.015 123.032 125.179 122.935L194.866 82.8154C195.451 82.4811 195.92 81.6607 195.92 80.9921V0.753641C195.92 0.273499 195.683 0 195.335 0Z" fill="white"/>
<path d="M131.554 45.1455L156.311 30.8932V59.4039L131.554 73.6563V45.1455Z" fill="#1C3871"/>
<path opacity="0.8" d="M131.554 45.1455L156.311 30.8932V59.4039L131.554 73.6563V45.1455Z" fill="white"/>
<path d="M152.593 38.0224V46.5738L151.819 47.0053V44.3858C151.819 42.9393 150.637 42.447 149.18 43.2858L138.679 49.3331C137.222 50.1719 136.04 52.0256 136.04 53.4721V56.0916L135.266 56.5535V48.0021L152.593 38.0224V38.0224Z" fill="white"/>
<path d="M147.821 59.8172C146.553 60.5466 145.523 59.7808 145.523 58.1033V44.3858L142.342 46.1119V59.9327C142.342 61.6102 141.312 63.5672 140.044 64.2965L137.746 65.6215V66.5271L150.125 59.3979V58.4923C150.125 58.4923 149.095 59.0879 147.827 59.8172H147.821Z" fill="white"/>
<path d="M161.26 29.471C161.26 30.2611 161.967 30.486 162.844 29.9876L186.912 16.1303C187.784 15.6259 188.497 14.5805 188.497 13.7904C188.497 13.0003 187.79 12.7754 186.912 13.2738L162.844 27.1311C161.967 27.6355 161.26 28.6809 161.26 29.471Z" fill="#27AC75"/>
<path d="M161.26 38.0224C161.26 38.8125 161.967 39.0374 162.844 38.539L186.912 24.6817C187.784 24.1773 188.497 23.1319 188.497 22.3418C188.497 21.5517 187.79 21.3268 186.912 21.8252L162.844 35.6825C161.967 36.1869 161.26 37.2323 161.26 38.0224V38.0224Z" fill="#27AC75"/>
<path d="M161.26 46.5738C161.26 47.3639 161.967 47.5888 162.844 47.0904L186.912 33.2331C187.784 32.7287 188.497 31.6833 188.497 30.8932C188.497 30.1031 187.79 29.8782 186.912 30.3766L162.844 44.2339C161.967 44.7383 161.26 45.7837 161.26 46.5738V46.5738Z" fill="#27AC75"/>
<path d="M161.26 55.1252C161.26 55.9153 161.967 56.1402 162.844 55.6418L186.912 41.7845C187.784 41.2801 188.497 40.2347 188.497 39.4446C188.497 38.6545 187.79 38.4296 186.912 38.928L162.844 52.7853C161.967 53.2897 161.26 54.3351 161.26 55.1252Z" fill="#27AC75"/>
<path d="M131.554 80.7855C131.554 81.5756 132.261 81.8004 133.139 81.3021L186.912 50.342C187.784 49.8376 188.497 48.7922 188.497 48.0021C188.497 47.212 187.79 46.9871 186.912 47.4855L133.139 78.4455C132.267 78.95 131.554 79.9953 131.554 80.7855Z" fill="#27AC75"/>
<path d="M131.554 89.3368C131.554 90.127 132.261 90.3518 133.139 89.8535L186.912 58.8934C187.784 58.3889 188.497 57.3436 188.497 56.5535C188.497 55.7634 187.79 55.5385 186.912 56.0369L133.139 86.9969C132.267 87.5014 131.554 88.5467 131.554 89.3368Z" fill="#27AC75"/>
<path d="M131.554 97.8882C131.554 98.6783 132.261 98.9032 133.139 98.4048L186.912 67.4448C187.784 66.9403 188.497 65.895 188.497 65.1049C188.497 64.3147 187.79 64.0899 186.912 64.5882L133.139 95.5483C132.267 96.0528 131.554 97.0981 131.554 97.8882Z" fill="#27AC75"/>
<path d="M96.8936 189.036L114.221 113.49L210.773 57.9027L193.446 133.443L96.8936 189.036Z" fill="#1C3871"/>
<path d="M120.517 119.41V175.434L142.793 162.604V106.579L120.517 119.41Z" fill="#1C3871"/>
<path opacity="0.2" d="M120.517 119.41V175.434L142.793 162.604V106.579L120.517 119.41Z" fill="black"/>
<path d="M161.284 208.625C159.389 207.221 141.123 193.291 131.834 173.398C121.949 152.223 121.955 127.523 121.961 118.23V117.939L188.198 79.8069C188.198 89.191 188.21 113.921 198.133 135.169C207.208 154.6 224.779 168.366 227.564 170.469L161.296 208.625H161.284Z" fill="white"/>
<path d="M187.887 80.3357C187.887 90.1087 188.076 114.377 197.846 135.303C206.616 154.077 223.291 167.588 227.003 170.438L161.302 208.266C158.736 206.334 141.147 192.646 132.103 173.271C122.241 152.156 122.253 127.511 122.253 118.23V118.115L187.881 80.3296M188.491 79.2782L121.644 117.762C121.644 126.508 121.461 151.919 131.548 173.526C141.452 194.731 161.253 208.99 161.253 208.99L228.1 170.505C228.1 170.505 208.292 156.253 198.389 135.042C188.302 113.435 188.485 88.0241 188.485 79.2782H188.491Z" fill="#1C3871"/>
<path opacity="0.7" d="M187.887 80.3357C187.887 90.1087 188.076 114.377 197.846 135.303C206.616 154.077 223.291 167.588 227.003 170.438L161.302 208.266C158.736 206.334 141.147 192.646 132.103 173.271C122.241 152.156 122.253 127.511 122.253 118.23V118.115L187.881 80.3296M188.491 79.2782L121.644 117.762C121.644 126.508 121.461 151.919 131.548 173.526C141.452 194.731 161.253 208.99 161.253 208.99L228.1 170.505C228.1 170.505 208.292 156.253 198.389 135.042C188.302 113.435 188.485 88.0241 188.485 79.2782H188.491Z" fill="white"/>
<path d="M180.933 92.1873L159.791 104.361C158.913 104.866 158.224 105.899 158.255 106.665C158.285 107.436 159.023 107.649 159.9 107.145L181.043 94.9709C181.915 94.4665 182.597 93.4332 182.567 92.6675C182.536 91.8956 181.811 91.6829 180.933 92.1873Z" fill="#27AC75"/>
<path d="M181.384 100.477L160.242 112.651C159.364 113.156 158.706 114.171 158.767 114.924C158.834 115.672 159.602 115.872 160.473 115.368L181.616 103.194C182.487 102.69 183.14 101.675 183.073 100.927C183.005 100.18 182.25 99.979 181.378 100.483L181.384 100.477Z" fill="#27AC75"/>
<path d="M182.231 108.543L161.089 120.716C160.211 121.221 159.583 122.217 159.687 122.947C159.791 123.676 160.589 123.858 161.467 123.354L182.609 111.18C183.481 110.676 184.102 109.679 183.999 108.95C183.895 108.22 183.109 108.038 182.231 108.543Z" fill="#27AC75"/>
<path d="M183.499 116.365L162.357 128.538C161.479 129.043 160.882 130.021 161.028 130.726C161.174 131.431 162.003 131.589 162.881 131.091L184.023 118.917C184.895 118.413 185.486 117.434 185.34 116.729C185.193 116.024 184.377 115.86 183.505 116.365H183.499Z" fill="#27AC75"/>
<path d="M185.218 123.931L164.075 136.105C163.204 136.61 162.637 137.57 162.826 138.251C163.015 138.931 163.88 139.071 164.758 138.567L185.9 126.393C186.778 125.888 187.327 124.934 187.138 124.254C186.949 123.573 186.095 123.427 185.224 123.931H185.218Z" fill="#27AC75"/>
<path d="M187.418 131.219L135.893 160.884C135.022 161.389 134.492 162.325 134.729 162.981C134.967 163.631 135.875 163.747 136.747 163.248L188.271 133.583C189.143 133.078 189.655 132.142 189.417 131.492C189.179 130.842 188.289 130.72 187.412 131.225L187.418 131.219Z" fill="#27AC75"/>
<path d="M190.161 138.172L138.636 167.837C137.764 168.342 137.283 169.253 137.569 169.873C137.856 170.493 138.807 170.584 139.678 170.086L191.203 140.42C192.08 139.916 192.55 139.01 192.257 138.384C191.971 137.764 191.032 137.667 190.154 138.172H190.161Z" fill="#27AC75"/>
<path d="M193.525 144.808L142 174.474C141.129 174.978 140.69 175.866 141.037 176.455C141.385 177.045 142.384 177.106 143.256 176.601L194.78 146.936C195.658 146.431 196.072 145.55 195.725 144.966C195.378 144.377 194.396 144.304 193.519 144.808H193.525Z" fill="#27AC75"/>
<path d="M197.486 151.075L145.962 180.74C145.09 181.245 144.694 182.108 145.096 182.667C145.499 183.226 146.535 183.262 147.406 182.758L198.931 153.092C199.802 152.588 200.186 151.731 199.784 151.178C199.382 150.619 198.358 150.57 197.486 151.075Z" fill="#27AC75"/>
<path d="M201.984 157.037L150.46 186.702C149.588 187.207 149.229 188.052 149.673 188.58C150.118 189.109 151.191 189.127 152.069 188.623L203.593 158.957C204.465 158.453 204.812 157.62 204.367 157.092C203.922 156.563 202.856 156.532 201.984 157.037V157.037Z" fill="#27AC75"/>
<path d="M206.964 162.72L155.439 192.385C154.561 192.89 154.245 193.71 154.732 194.221C155.22 194.725 156.329 194.725 157.2 194.221L208.725 164.555C209.597 164.051 209.907 163.236 209.42 162.732C208.932 162.227 207.835 162.215 206.958 162.72H206.964Z" fill="#27AC75"/>
<path d="M212.412 168.141L160.888 197.806C160.016 198.311 159.73 199.113 160.26 199.599C160.79 200.08 161.93 200.061 162.807 199.557L214.332 169.891C215.204 169.387 215.484 168.597 214.954 168.111C214.424 167.63 213.29 167.643 212.418 168.141H212.412Z" fill="#27AC75"/>
<path d="M152.136 108.767L127.83 122.764C128.098 131.541 129.104 144.213 132.791 156.97L157.097 142.973C153.416 130.216 152.41 117.55 152.136 108.767V108.767Z" fill="#1C3871"/>
<path opacity="0.8" d="M152.136 108.767L127.83 122.764C128.098 131.541 129.104 144.213 132.791 156.97L157.097 142.973C153.416 130.216 152.41 117.55 152.136 108.767V108.767Z" fill="white"/>
<path d="M137.74 120.82C137.74 119.458 137.295 118.413 136.552 117.738L127.824 122.764C127.897 125.086 128.019 127.681 128.232 130.471C129.189 130.629 130.317 130.453 131.536 129.894C134.961 128.301 137.74 124.235 137.74 120.82V120.82Z" fill="#1C3871"/>
<path opacity="0.6" d="M137.74 120.82C137.74 119.458 137.295 118.413 136.552 117.738L127.824 122.764C127.897 125.086 128.019 127.681 128.232 130.471C129.189 130.629 130.317 130.453 131.536 129.894C134.961 128.301 137.74 124.235 137.74 120.82V120.82Z" fill="white"/>
<path d="M155.031 134.586C153.41 132.544 150.112 126.259 148.704 123.518C148.455 123.032 147.742 123.099 147.577 123.621C145.145 131.413 144.938 139.576 144.938 139.576C142.982 138.032 141.58 136.5 139.776 133.85C139.514 133.467 138.922 133.571 138.807 134.02C136.149 144.225 137.484 154.265 137.484 154.265L157.091 142.979C156.28 140.165 155.604 137.357 155.031 134.592V134.586Z" fill="#1C3871"/>
<path opacity="0.6" d="M155.031 134.586C153.41 132.544 150.112 126.259 148.704 123.518C148.455 123.032 147.742 123.099 147.577 123.621C145.145 131.413 144.938 139.576 144.938 139.576C142.982 138.032 141.58 136.5 139.776 133.85C139.514 133.467 138.922 133.571 138.807 134.02C136.149 144.225 137.484 154.265 137.484 154.265L157.091 142.979C156.28 140.165 155.604 137.357 155.031 134.592V134.586Z" fill="white"/>
</g>
<defs>
<clipPath id="clip0_155_525">
<rect width="273" height="217" fill="white"/>
</clipPath>
</defs>
</svg>
