<svg width="844" height="629" viewBox="0 0 844 629" fill="none" xmlns="http://www.w3.org/2000/svg">
<g clip-path="url(#clip0_165_5966)">
<path d="M844 552.766H0V553.188H844V552.766Z" fill="#EBEBEB"/>
<path d="M759.431 579.927H703.524V580.349H759.431V579.927Z" fill="#EBEBEB"/>
<path d="M559.099 584.519H544.431V584.941H559.099V584.519Z" fill="#EBEBEB"/>
<path d="M701.837 564.262H669.444V564.684H701.837V564.262Z" fill="#EBEBEB"/>
<path d="M161.457 567.098H88.5527V567.52H161.457V567.098Z" fill="#EBEBEB"/>
<path d="M187.182 567.098H176.497V567.52H187.182V567.098Z" fill="#EBEBEB"/>
<path d="M380.053 574.221H221.921V574.643H380.053V574.221Z" fill="#EBEBEB"/>
<path d="M400.073 477.477H74.1199C68.8027 477.477 64.4814 473.155 64.4814 467.838V9.63901C64.4814 4.32152 68.8027 0 74.1199 0H400.073C405.39 0 409.711 4.32152 409.711 9.63901V467.838C409.711 473.155 405.39 477.477 400.073 477.477ZM74.1199 0.422023C69.039 0.422023 64.9034 4.55785 64.9034 9.63901V467.838C64.9034 472.919 69.039 477.055 74.1199 477.055H400.073C405.154 477.055 409.289 472.919 409.289 467.838V9.63901C409.289 4.55785 405.154 0.422023 400.073 0.422023H74.1199Z" fill="#EBEBEB"/>
<path d="M765.187 477.477H439.234C433.917 477.477 429.596 473.155 429.596 467.838V9.63901C429.596 4.32152 433.917 0 439.234 0H765.187C770.504 0 774.825 4.32152 774.825 9.63901V467.838C774.825 473.155 770.504 477.477 765.187 477.477ZM439.234 0.422023C434.153 0.422023 430.018 4.55785 430.018 9.63901V467.838C430.018 472.919 434.153 477.055 439.234 477.055H765.187C770.268 477.055 774.403 472.919 774.403 467.838V9.63901C774.403 4.55785 770.268 0.422023 765.187 0.422023H439.234Z" fill="#EBEBEB"/>
<path d="M751.869 105.033H342.9V499.27H751.869V105.033Z" fill="#E0E0E0"/>
<path d="M751.869 112.191H349.467V492.383H751.869V112.191Z" fill="#F5F5F5"/>
<path d="M352.438 400.314V285.963H364.304V270.854L391.042 258.346V242.9H395.499V285.963H399.955V400.314H405.897V340.91H419.266V309.731H423.722V400.314H434.103V366.164H441.53V357.251H457.87V326.055H466.783V305.275H477.181V274.079H481.637V305.275H492.035V326.055H500.931V357.251H517.271V366.164H524.698V400.314H533.611V357.251H549.951V262.194H554.407V251.796H590.041V262.194H597.468V330.512H627.177V337.939H637.558V342.396H627.177V369.135H658.354V280.021H664.296V262.194H679.15V193.877H683.606V262.194H694.004V280.021H751.869V492.4H349.467V400.314H352.438Z" fill="#E6E6E6"/>
<path d="M720.945 284.68H716.742V288.883H720.945V284.68Z" fill="#F0F0F0"/>
<path d="M720.945 291.736H716.742V295.939H720.945V291.736Z" fill="#F0F0F0"/>
<path d="M720.945 319.944H716.742V324.147H720.945V319.944Z" fill="#F0F0F0"/>
<path d="M720.945 327H716.742V331.204H720.945V327Z" fill="#F0F0F0"/>
<path d="M720.945 334.057H716.742V338.26H720.945V334.057Z" fill="#F0F0F0"/>
<path d="M720.945 355.225H716.742V359.429H720.945V355.225Z" fill="#F0F0F0"/>
<path d="M720.945 362.281H716.742V366.485H720.945V362.281Z" fill="#F0F0F0"/>
<path d="M714.261 312.888H710.058V317.091H714.261V312.888Z" fill="#F0F0F0"/>
<path d="M714.261 319.944H710.058V324.147H714.261V319.944Z" fill="#F0F0F0"/>
<path d="M714.261 327H710.058V331.204H714.261V327Z" fill="#F0F0F0"/>
<path d="M714.261 334.057H710.058V338.26H714.261V334.057Z" fill="#F0F0F0"/>
<path d="M714.261 341.113H710.058V345.316H714.261V341.113Z" fill="#F0F0F0"/>
<path d="M714.261 355.225H710.058V359.429H714.261V355.225Z" fill="#F0F0F0"/>
<path d="M714.261 362.281H710.058V366.485H714.261V362.281Z" fill="#F0F0F0"/>
<path d="M707.576 284.68H703.373V288.883H707.576V284.68Z" fill="#F0F0F0"/>
<path d="M707.576 291.736H703.373V295.939H707.576V291.736Z" fill="#F0F0F0"/>
<path d="M707.576 298.792H703.373V302.996H707.576V298.792Z" fill="#F0F0F0"/>
<path d="M707.576 305.849H703.373V310.052H707.576V305.849Z" fill="#F0F0F0"/>
<path d="M707.576 312.888H703.373V317.091H707.576V312.888Z" fill="#F0F0F0"/>
<path d="M707.576 319.944H703.373V324.147H707.576V319.944Z" fill="#F0F0F0"/>
<path d="M707.576 327H703.373V331.204H707.576V327Z" fill="#F0F0F0"/>
<path d="M707.576 334.057H703.373V338.26H707.576V334.057Z" fill="#F0F0F0"/>
<path d="M707.576 341.113H703.373V345.316H707.576V341.113Z" fill="#F0F0F0"/>
<path d="M707.576 348.169H703.373V352.372H707.576V348.169Z" fill="#F0F0F0"/>
<path d="M707.576 362.281H703.373V366.485H707.576V362.281Z" fill="#F0F0F0"/>
<path d="M700.892 284.68H696.688V288.883H700.892V284.68Z" fill="#F0F0F0"/>
<path d="M700.892 291.736H696.688V295.939H700.892V291.736Z" fill="#F0F0F0"/>
<path d="M700.892 298.792H696.688V302.996H700.892V298.792Z" fill="#F0F0F0"/>
<path d="M700.892 305.849H696.688V310.052H700.892V305.849Z" fill="#F0F0F0"/>
<path d="M700.892 312.888H696.688V317.091H700.892V312.888Z" fill="#F0F0F0"/>
<path d="M700.892 319.944H696.688V324.147H700.892V319.944Z" fill="#F0F0F0"/>
<path d="M700.892 327H696.688V331.204H700.892V327Z" fill="#F0F0F0"/>
<path d="M700.892 390.489H696.688V394.693H700.892V390.489Z" fill="#F0F0F0"/>
<path d="M694.207 284.68H690.004V288.883H694.207V284.68Z" fill="#F0F0F0"/>
<path d="M694.207 291.736H690.004V295.939H694.207V291.736Z" fill="#F0F0F0"/>
<path d="M694.207 298.792H690.004V302.996H694.207V298.792Z" fill="#F0F0F0"/>
<path d="M694.207 305.849H690.004V310.052H694.207V305.849Z" fill="#F0F0F0"/>
<path d="M694.207 312.888H690.004V317.091H694.207V312.888Z" fill="#F0F0F0"/>
<path d="M694.207 319.944H690.004V324.147H694.207V319.944Z" fill="#F0F0F0"/>
<path d="M694.207 327H690.004V331.204H694.207V327Z" fill="#F0F0F0"/>
<path d="M694.207 334.057H690.004V338.26H694.207V334.057Z" fill="#F0F0F0"/>
<path d="M694.207 376.394H690.004V380.597H694.207V376.394Z" fill="#F0F0F0"/>
<path d="M694.207 383.433H690.004V387.637H694.207V383.433Z" fill="#F0F0F0"/>
<path d="M694.207 390.489H690.004V394.693H694.207V390.489Z" fill="#F0F0F0"/>
<path d="M694.207 397.546H690.004V401.749H694.207V397.546Z" fill="#F0F0F0"/>
<path d="M694.207 425.771H690.004V429.974H694.207V425.771Z" fill="#F0F0F0"/>
<path d="M687.522 284.68H683.319V288.883H687.522V284.68Z" fill="#F0F0F0"/>
<path d="M687.522 291.736H683.319V295.939H687.522V291.736Z" fill="#F0F0F0"/>
<path d="M687.522 298.792H683.319V302.996H687.522V298.792Z" fill="#F0F0F0"/>
<path d="M687.522 305.849H683.319V310.052H687.522V305.849Z" fill="#F0F0F0"/>
<path d="M687.522 312.888H683.319V317.091H687.522V312.888Z" fill="#F0F0F0"/>
<path d="M687.522 319.944H683.319V324.147H687.522V319.944Z" fill="#F0F0F0"/>
<path d="M687.522 327H683.319V331.204H687.522V327Z" fill="#F0F0F0"/>
<path d="M687.522 334.057H683.319V338.26H687.522V334.057Z" fill="#F0F0F0"/>
<path d="M687.522 341.113H683.319V345.316H687.522V341.113Z" fill="#F0F0F0"/>
<path d="M687.522 348.169H683.319V352.372H687.522V348.169Z" fill="#F0F0F0"/>
<path d="M687.522 369.338H683.319V373.541H687.522V369.338Z" fill="#F0F0F0"/>
<path d="M687.522 376.394H683.319V380.597H687.522V376.394Z" fill="#F0F0F0"/>
<path d="M687.522 383.433H683.319V387.637H687.522V383.433Z" fill="#F0F0F0"/>
<path d="M687.522 390.489H683.319V394.693H687.522V390.489Z" fill="#F0F0F0"/>
<path d="M687.522 397.546H683.319V401.749H687.522V397.546Z" fill="#F0F0F0"/>
<path d="M687.522 425.771H683.319V429.974H687.522V425.771Z" fill="#F0F0F0"/>
<path d="M680.838 284.68H676.635V288.883H680.838V284.68Z" fill="#F0F0F0"/>
<path d="M680.838 291.736H676.635V295.939H680.838V291.736Z" fill="#F0F0F0"/>
<path d="M680.838 298.792H676.635V302.996H680.838V298.792Z" fill="#F0F0F0"/>
<path d="M680.838 305.849H676.635V310.052H680.838V305.849Z" fill="#F0F0F0"/>
<path d="M680.838 312.888H676.635V317.091H680.838V312.888Z" fill="#F0F0F0"/>
<path d="M680.838 319.944H676.635V324.147H680.838V319.944Z" fill="#F0F0F0"/>
<path d="M680.838 327H676.635V331.204H680.838V327Z" fill="#F0F0F0"/>
<path d="M680.838 334.057H676.635V338.26H680.838V334.057Z" fill="#F0F0F0"/>
<path d="M680.838 341.113H676.635V345.316H680.838V341.113Z" fill="#F0F0F0"/>
<path d="M680.838 348.169H676.635V352.372H680.838V348.169Z" fill="#F0F0F0"/>
<path d="M680.838 355.225H676.635V359.429H680.838V355.225Z" fill="#F0F0F0"/>
<path d="M680.838 362.281H676.635V366.485H680.838V362.281Z" fill="#F0F0F0"/>
<path d="M680.838 369.338H676.635V373.541H680.838V369.338Z" fill="#F0F0F0"/>
<path d="M680.838 376.394H676.635V380.597H680.838V376.394Z" fill="#F0F0F0"/>
<path d="M680.838 383.433H676.635V387.637H680.838V383.433Z" fill="#F0F0F0"/>
<path d="M680.838 390.489H676.635V394.693H680.838V390.489Z" fill="#F0F0F0"/>
<path d="M680.838 397.546H676.635V401.749H680.838V397.546Z" fill="#F0F0F0"/>
<path d="M680.838 404.602H676.635V408.805H680.838V404.602Z" fill="#F0F0F0"/>
<path d="M674.153 284.68H669.95V288.883H674.153V284.68Z" fill="#F0F0F0"/>
<path d="M674.153 291.736H669.95V295.939H674.153V291.736Z" fill="#F0F0F0"/>
<path d="M674.153 298.792H669.95V302.996H674.153V298.792Z" fill="#F0F0F0"/>
<path d="M674.153 305.849H669.95V310.052H674.153V305.849Z" fill="#F0F0F0"/>
<path d="M674.153 312.888H669.95V317.091H674.153V312.888Z" fill="#F0F0F0"/>
<path d="M674.153 319.944H669.95V324.147H674.153V319.944Z" fill="#F0F0F0"/>
<path d="M674.153 327H669.95V331.204H674.153V327Z" fill="#F0F0F0"/>
<path d="M674.153 334.057H669.95V338.26H674.153V334.057Z" fill="#F0F0F0"/>
<path d="M674.153 341.113H669.95V345.316H674.153V341.113Z" fill="#F0F0F0"/>
<path d="M674.153 348.169H669.95V352.372H674.153V348.169Z" fill="#F0F0F0"/>
<path d="M674.153 369.338H669.95V373.541H674.153V369.338Z" fill="#F0F0F0"/>
<path d="M674.153 376.394H669.95V380.597H674.153V376.394Z" fill="#F0F0F0"/>
<path d="M674.153 383.433H669.95V387.637H674.153V383.433Z" fill="#F0F0F0"/>
<path d="M674.153 390.489H669.95V394.693H674.153V390.489Z" fill="#F0F0F0"/>
<path d="M667.486 284.68H663.283V288.883H667.486V284.68Z" fill="#F0F0F0"/>
<path d="M667.486 291.736H663.283V295.939H667.486V291.736Z" fill="#F0F0F0"/>
<path d="M667.486 298.792H663.283V302.996H667.486V298.792Z" fill="#F0F0F0"/>
<path d="M667.486 305.849H663.283V310.052H667.486V305.849Z" fill="#F0F0F0"/>
<path d="M667.486 312.888H663.283V317.091H667.486V312.888Z" fill="#F0F0F0"/>
<path d="M667.486 319.944H663.283V324.147H667.486V319.944Z" fill="#F0F0F0"/>
<path d="M667.486 327H663.283V331.204H667.486V327Z" fill="#F0F0F0"/>
<path d="M667.486 334.057H663.283V338.26H667.486V334.057Z" fill="#F0F0F0"/>
<path d="M667.486 341.113H663.283V345.316H667.486V341.113Z" fill="#F0F0F0"/>
<path d="M667.486 348.169H663.283V352.372H667.486V348.169Z" fill="#F0F0F0"/>
<path d="M667.486 369.338H663.283V373.541H667.486V369.338Z" fill="#F0F0F0"/>
<path d="M667.486 376.394H663.283V380.597H667.486V376.394Z" fill="#F0F0F0"/>
<path d="M667.486 383.433H663.283V387.637H667.486V383.433Z" fill="#F0F0F0"/>
<path d="M592.235 266.364H588.032V270.567H592.235V266.364Z" fill="#F0F0F0"/>
<path d="M592.235 273.42H588.032V277.624H592.235V273.42Z" fill="#F0F0F0"/>
<path d="M592.235 280.476H588.032V284.68H592.235V280.476Z" fill="#F0F0F0"/>
<path d="M592.235 287.516H588.032V291.719H592.235V287.516Z" fill="#F0F0F0"/>
<path d="M592.235 294.572H588.032V298.775H592.235V294.572Z" fill="#F0F0F0"/>
<path d="M592.235 301.628H588.032V305.832H592.235V301.628Z" fill="#F0F0F0"/>
<path d="M592.235 308.685H588.032V312.888H592.235V308.685Z" fill="#F0F0F0"/>
<path d="M592.235 315.741H588.032V319.944H592.235V315.741Z" fill="#F0F0F0"/>
<path d="M592.235 336.909H588.032V341.113H592.235V336.909Z" fill="#F0F0F0"/>
<path d="M592.235 343.966H588.032V348.169H592.235V343.966Z" fill="#F0F0F0"/>
<path d="M585.551 266.364H581.348V270.567H585.551V266.364Z" fill="#F0F0F0"/>
<path d="M585.551 273.42H581.348V277.624H585.551V273.42Z" fill="#F0F0F0"/>
<path d="M585.551 280.476H581.348V284.68H585.551V280.476Z" fill="#F0F0F0"/>
<path d="M585.551 287.516H581.348V291.719H585.551V287.516Z" fill="#F0F0F0"/>
<path d="M585.551 294.572H581.348V298.775H585.551V294.572Z" fill="#F0F0F0"/>
<path d="M585.551 301.628H581.348V305.832H585.551V301.628Z" fill="#F0F0F0"/>
<path d="M585.551 308.685H581.348V312.888H585.551V308.685Z" fill="#F0F0F0"/>
<path d="M585.551 315.741H581.348V319.944H585.551V315.741Z" fill="#F0F0F0"/>
<path d="M585.551 343.966H581.348V348.169H585.551V343.966Z" fill="#F0F0F0"/>
<path d="M578.866 266.364H574.663V270.567H578.866V266.364Z" fill="#F0F0F0"/>
<path d="M578.866 273.42H574.663V277.624H578.866V273.42Z" fill="#F0F0F0"/>
<path d="M578.866 280.476H574.663V284.68H578.866V280.476Z" fill="#F0F0F0"/>
<path d="M578.866 287.516H574.663V291.719H578.866V287.516Z" fill="#F0F0F0"/>
<path d="M578.866 294.572H574.663V298.775H578.866V294.572Z" fill="#F0F0F0"/>
<path d="M578.866 301.628H574.663V305.832H578.866V301.628Z" fill="#F0F0F0"/>
<path d="M578.866 308.685H574.663V312.888H578.866V308.685Z" fill="#F0F0F0"/>
<path d="M578.866 315.741H574.663V319.944H578.866V315.741Z" fill="#F0F0F0"/>
<path d="M572.182 266.364H567.979V270.567H572.182V266.364Z" fill="#F0F0F0"/>
<path d="M572.182 273.42H567.979V277.624H572.182V273.42Z" fill="#F0F0F0"/>
<path d="M572.182 280.476H567.979V284.68H572.182V280.476Z" fill="#F0F0F0"/>
<path d="M572.182 287.516H567.979V291.719H572.182V287.516Z" fill="#F0F0F0"/>
<path d="M572.182 294.572H567.979V298.775H572.182V294.572Z" fill="#F0F0F0"/>
<path d="M572.182 301.628H567.979V305.832H572.182V301.628Z" fill="#F0F0F0"/>
<path d="M572.182 315.741H567.979V319.944H572.182V315.741Z" fill="#F0F0F0"/>
<path d="M572.182 322.797H567.979V327H572.182V322.797Z" fill="#F0F0F0"/>
<path d="M572.182 343.966H567.979V348.169H572.182V343.966Z" fill="#F0F0F0"/>
<path d="M572.182 351.022H567.979V355.225H572.182V351.022Z" fill="#F0F0F0"/>
<path d="M572.182 358.061H567.979V362.265H572.182V358.061Z" fill="#F0F0F0"/>
<path d="M572.182 365.117H567.979V369.321H572.182V365.117Z" fill="#F0F0F0"/>
<path d="M572.182 372.174H567.979V376.377H572.182V372.174Z" fill="#F0F0F0"/>
<path d="M572.182 379.23H567.979V383.433H572.182V379.23Z" fill="#F0F0F0"/>
<path d="M572.182 386.286H567.979V390.489H572.182V386.286Z" fill="#F0F0F0"/>
<path d="M565.497 266.364H561.294V270.567H565.497V266.364Z" fill="#F0F0F0"/>
<path d="M565.497 273.42H561.294V277.624H565.497V273.42Z" fill="#F0F0F0"/>
<path d="M565.497 280.476H561.294V284.68H565.497V280.476Z" fill="#F0F0F0"/>
<path d="M565.497 287.516H561.294V291.719H565.497V287.516Z" fill="#F0F0F0"/>
<path d="M565.497 294.572H561.294V298.775H565.497V294.572Z" fill="#F0F0F0"/>
<path d="M565.497 301.628H561.294V305.832H565.497V301.628Z" fill="#F0F0F0"/>
<path d="M565.497 322.797H561.294V327H565.497V322.797Z" fill="#F0F0F0"/>
<path d="M565.497 329.853H561.294V334.057H565.497V329.853Z" fill="#F0F0F0"/>
<path d="M565.497 336.909H561.294V341.113H565.497V336.909Z" fill="#F0F0F0"/>
<path d="M565.497 343.966H561.294V348.169H565.497V343.966Z" fill="#F0F0F0"/>
<path d="M565.497 351.022H561.294V355.225H565.497V351.022Z" fill="#F0F0F0"/>
<path d="M565.497 358.061H561.294V362.265H565.497V358.061Z" fill="#F0F0F0"/>
<path d="M565.497 365.117H561.294V369.321H565.497V365.117Z" fill="#F0F0F0"/>
<path d="M565.497 372.174H561.294V376.377H565.497V372.174Z" fill="#F0F0F0"/>
<path d="M565.497 379.23H561.294V383.433H565.497V379.23Z" fill="#F0F0F0"/>
<path d="M565.497 386.286H561.294V390.489H565.497V386.286Z" fill="#F0F0F0"/>
<path d="M565.497 393.342H561.294V397.546H565.497V393.342Z" fill="#F0F0F0"/>
<path d="M565.497 407.455H561.294V411.658H565.497V407.455Z" fill="#F0F0F0"/>
<path d="M558.812 266.364H554.609V270.567H558.812V266.364Z" fill="#F0F0F0"/>
<path d="M558.812 273.42H554.609V277.624H558.812V273.42Z" fill="#F0F0F0"/>
<path d="M558.812 280.476H554.609V284.68H558.812V280.476Z" fill="#F0F0F0"/>
<path d="M558.812 287.516H554.609V291.719H558.812V287.516Z" fill="#F0F0F0"/>
<path d="M558.812 294.572H554.609V298.775H558.812V294.572Z" fill="#F0F0F0"/>
<path d="M558.812 301.628H554.609V305.832H558.812V301.628Z" fill="#F0F0F0"/>
<path d="M558.812 322.797H554.609V327H558.812V322.797Z" fill="#F0F0F0"/>
<path d="M558.812 329.853H554.609V334.057H558.812V329.853Z" fill="#F0F0F0"/>
<path d="M558.812 336.909H554.609V341.113H558.812V336.909Z" fill="#F0F0F0"/>
<path d="M558.812 343.966H554.609V348.169H558.812V343.966Z" fill="#F0F0F0"/>
<path d="M558.812 365.117H554.609V369.321H558.812V365.117Z" fill="#F0F0F0"/>
<path d="M558.812 372.174H554.609V376.377H558.812V372.174Z" fill="#F0F0F0"/>
<path d="M558.812 379.23H554.609V383.433H558.812V379.23Z" fill="#F0F0F0"/>
<path d="M558.812 386.286H554.609V390.489H558.812V386.286Z" fill="#F0F0F0"/>
<path d="M558.812 393.342H554.609V397.546H558.812V393.342Z" fill="#F0F0F0"/>
<path d="M558.812 407.455H554.609V411.658H558.812V407.455Z" fill="#F0F0F0"/>
<path d="M558.812 414.511H554.609V418.714H558.812V414.511Z" fill="#F0F0F0"/>
<path d="M498.18 331.946H493.977V336.15H498.18V331.946Z" fill="#F0F0F0"/>
<path d="M498.18 339.003H493.977V343.206H498.18V339.003Z" fill="#F0F0F0"/>
<path d="M498.18 346.059H493.977V350.262H498.18V346.059Z" fill="#F0F0F0"/>
<path d="M498.18 353.115H493.977V357.318H498.18V353.115Z" fill="#F0F0F0"/>
<path d="M498.18 360.171H493.977V364.375H498.18V360.171Z" fill="#F0F0F0"/>
<path d="M498.18 367.228H493.977V371.431H498.18V367.228Z" fill="#F0F0F0"/>
<path d="M498.18 374.284H493.977V378.487H498.18V374.284Z" fill="#F0F0F0"/>
<path d="M498.18 395.452H493.977V399.656H498.18V395.452Z" fill="#F0F0F0"/>
<path d="M498.18 402.492H493.977V406.695H498.18V402.492Z" fill="#F0F0F0"/>
<path d="M498.18 409.548H493.977V413.751H498.18V409.548Z" fill="#F0F0F0"/>
<path d="M491.495 331.946H487.292V336.15H491.495V331.946Z" fill="#F0F0F0"/>
<path d="M491.495 339.003H487.292V343.206H491.495V339.003Z" fill="#F0F0F0"/>
<path d="M491.495 346.059H487.292V350.262H491.495V346.059Z" fill="#F0F0F0"/>
<path d="M491.495 353.115H487.292V357.318H491.495V353.115Z" fill="#F0F0F0"/>
<path d="M491.495 360.171H487.292V364.375H491.495V360.171Z" fill="#F0F0F0"/>
<path d="M491.495 367.228H487.292V371.431H491.495V367.228Z" fill="#F0F0F0"/>
<path d="M491.495 374.284H487.292V378.487H491.495V374.284Z" fill="#F0F0F0"/>
<path d="M484.811 331.946H480.607V336.15H484.811V331.946Z" fill="#F0F0F0"/>
<path d="M484.811 339.003H480.607V343.206H484.811V339.003Z" fill="#F0F0F0"/>
<path d="M484.811 346.059H480.607V350.262H484.811V346.059Z" fill="#F0F0F0"/>
<path d="M484.811 353.115H480.607V357.318H484.811V353.115Z" fill="#F0F0F0"/>
<path d="M484.811 360.171H480.607V364.375H484.811V360.171Z" fill="#F0F0F0"/>
<path d="M484.811 367.228H480.607V371.431H484.811V367.228Z" fill="#F0F0F0"/>
<path d="M484.811 374.284H480.607V378.487H484.811V374.284Z" fill="#F0F0F0"/>
<path d="M478.126 331.946H473.923V336.15H478.126V331.946Z" fill="#F0F0F0"/>
<path d="M478.126 339.003H473.923V343.206H478.126V339.003Z" fill="#F0F0F0"/>
<path d="M478.126 346.059H473.923V350.262H478.126V346.059Z" fill="#F0F0F0"/>
<path d="M478.126 353.115H473.923V357.318H478.126V353.115Z" fill="#F0F0F0"/>
<path d="M478.126 360.171H473.923V364.375H478.126V360.171Z" fill="#F0F0F0"/>
<path d="M478.126 367.228H473.923V371.431H478.126V367.228Z" fill="#F0F0F0"/>
<path d="M478.126 374.284H473.923V378.487H478.126V374.284Z" fill="#F0F0F0"/>
<path d="M478.126 381.34H473.923V385.543H478.126V381.34Z" fill="#F0F0F0"/>
<path d="M478.126 388.396H473.923V392.6H478.126V388.396Z" fill="#F0F0F0"/>
<path d="M478.126 395.452H473.923V399.656H478.126V395.452Z" fill="#F0F0F0"/>
<path d="M478.126 402.492H473.923V406.695H478.126V402.492Z" fill="#F0F0F0"/>
<path d="M471.441 331.946H467.238V336.15H471.441V331.946Z" fill="#F0F0F0"/>
<path d="M471.441 339.003H467.238V343.206H471.441V339.003Z" fill="#F0F0F0"/>
<path d="M471.441 346.059H467.238V350.262H471.441V346.059Z" fill="#F0F0F0"/>
<path d="M471.441 353.115H467.238V357.318H471.441V353.115Z" fill="#F0F0F0"/>
<path d="M471.441 360.171H467.238V364.375H471.441V360.171Z" fill="#F0F0F0"/>
<path d="M471.441 367.228H467.238V371.431H471.441V367.228Z" fill="#F0F0F0"/>
<path d="M471.441 374.284H467.238V378.487H471.441V374.284Z" fill="#F0F0F0"/>
<path d="M471.441 381.34H467.238V385.543H471.441V381.34Z" fill="#F0F0F0"/>
<path d="M471.441 388.396H467.238V392.6H471.441V388.396Z" fill="#F0F0F0"/>
<path d="M471.441 395.452H467.238V399.656H471.441V395.452Z" fill="#F0F0F0"/>
<path d="M471.441 402.492H467.238V406.695H471.441V402.492Z" fill="#F0F0F0"/>
<path d="M471.441 409.548H467.238V413.751H471.441V409.548Z" fill="#F0F0F0"/>
<path d="M471.441 430.717H467.238V434.92H471.441V430.717Z" fill="#F0F0F0"/>
<path d="M471.441 437.773H467.238V441.976H471.441V437.773Z" fill="#F0F0F0"/>
<path d="M464.757 331.946H460.554V336.15H464.757V331.946Z" fill="#F0F0F0"/>
<path d="M464.757 339.003H460.554V343.206H464.757V339.003Z" fill="#F0F0F0"/>
<path d="M464.757 346.059H460.554V350.262H464.757V346.059Z" fill="#F0F0F0"/>
<path d="M464.757 367.228H460.554V371.431H464.757V367.228Z" fill="#F0F0F0"/>
<path d="M464.757 374.284H460.554V378.487H464.757V374.284Z" fill="#F0F0F0"/>
<path d="M464.757 381.34H460.554V385.543H464.757V381.34Z" fill="#F0F0F0"/>
<path d="M464.757 388.396H460.554V392.6H464.757V388.396Z" fill="#F0F0F0"/>
<path d="M464.757 395.452H460.554V399.656H464.757V395.452Z" fill="#F0F0F0"/>
<path d="M464.757 402.492H460.554V406.695H464.757V402.492Z" fill="#F0F0F0"/>
<path d="M464.757 409.548H460.554V413.751H464.757V409.548Z" fill="#F0F0F0"/>
<path d="M464.757 430.717H460.554V434.92H464.757V430.717Z" fill="#F0F0F0"/>
<path d="M464.757 437.773H460.554V441.976H464.757V437.773Z" fill="#F0F0F0"/>
<path d="M464.757 444.829H460.554V449.032H464.757V444.829Z" fill="#F0F0F0"/>
<path d="M394.723 289.626H390.52V293.829H394.723V289.626Z" fill="#F0F0F0"/>
<path d="M394.723 296.682H390.52V300.886H394.723V296.682Z" fill="#F0F0F0"/>
<path d="M394.723 303.738H390.52V307.942H394.723V303.738Z" fill="#F0F0F0"/>
<path d="M394.723 310.795H390.52V314.998H394.723V310.795Z" fill="#F0F0F0"/>
<path d="M394.723 317.851H390.52V322.054H394.723V317.851Z" fill="#F0F0F0"/>
<path d="M394.723 324.907H390.52V329.11H394.723V324.907Z" fill="#F0F0F0"/>
<path d="M394.723 331.946H390.52V336.15H394.723V331.946Z" fill="#F0F0F0"/>
<path d="M394.723 339.003H390.52V343.206H394.723V339.003Z" fill="#F0F0F0"/>
<path d="M394.723 346.059H390.52V350.262H394.723V346.059Z" fill="#F0F0F0"/>
<path d="M394.723 353.115H390.52V357.318H394.723V353.115Z" fill="#F0F0F0"/>
<path d="M394.723 360.171H390.52V364.375H394.723V360.171Z" fill="#F0F0F0"/>
<path d="M394.723 367.228H390.52V371.431H394.723V367.228Z" fill="#F0F0F0"/>
<path d="M394.723 374.284H390.52V378.487H394.723V374.284Z" fill="#F0F0F0"/>
<path d="M394.723 381.34H390.52V385.543H394.723V381.34Z" fill="#F0F0F0"/>
<path d="M394.723 388.396H390.52V392.6H394.723V388.396Z" fill="#F0F0F0"/>
<path d="M394.723 395.452H390.52V399.656H394.723V395.452Z" fill="#F0F0F0"/>
<path d="M394.723 402.492H390.52V406.695H394.723V402.492Z" fill="#F0F0F0"/>
<path d="M394.723 409.548H390.52V413.751H394.723V409.548Z" fill="#F0F0F0"/>
<path d="M394.723 416.604H390.52V420.808H394.723V416.604Z" fill="#F0F0F0"/>
<path d="M394.723 423.66H390.52V427.864H394.723V423.66Z" fill="#F0F0F0"/>
<path d="M394.723 430.717H390.52V434.92H394.723V430.717Z" fill="#F0F0F0"/>
<path d="M394.723 437.773H390.52V441.976H394.723V437.773Z" fill="#F0F0F0"/>
<path d="M394.723 444.829H390.52V449.032H394.723V444.829Z" fill="#F0F0F0"/>
<path d="M388.038 289.626H383.835V293.829H388.038V289.626Z" fill="#F0F0F0"/>
<path d="M388.038 296.682H383.835V300.886H388.038V296.682Z" fill="#F0F0F0"/>
<path d="M388.038 303.738H383.835V307.942H388.038V303.738Z" fill="#F0F0F0"/>
<path d="M388.038 310.795H383.835V314.998H388.038V310.795Z" fill="#F0F0F0"/>
<path d="M388.038 317.851H383.835V322.054H388.038V317.851Z" fill="#F0F0F0"/>
<path d="M388.038 324.907H383.835V329.11H388.038V324.907Z" fill="#F0F0F0"/>
<path d="M388.038 331.946H383.835V336.15H388.038V331.946Z" fill="#F0F0F0"/>
<path d="M388.038 339.003H383.835V343.206H388.038V339.003Z" fill="#F0F0F0"/>
<path d="M388.038 346.059H383.835V350.262H388.038V346.059Z" fill="#F0F0F0"/>
<path d="M388.038 353.115H383.835V357.318H388.038V353.115Z" fill="#F0F0F0"/>
<path d="M388.038 360.171H383.835V364.375H388.038V360.171Z" fill="#F0F0F0"/>
<path d="M388.038 367.228H383.835V371.431H388.038V367.228Z" fill="#F0F0F0"/>
<path d="M388.038 374.284H383.835V378.487H388.038V374.284Z" fill="#F0F0F0"/>
<path d="M388.038 381.34H383.835V385.543H388.038V381.34Z" fill="#F0F0F0"/>
<path d="M388.038 388.396H383.835V392.6H388.038V388.396Z" fill="#F0F0F0"/>
<path d="M388.038 395.452H383.835V399.656H388.038V395.452Z" fill="#F0F0F0"/>
<path d="M388.038 402.492H383.835V406.695H388.038V402.492Z" fill="#F0F0F0"/>
<path d="M388.038 409.548H383.835V413.751H388.038V409.548Z" fill="#F0F0F0"/>
<path d="M388.038 416.604H383.835V420.808H388.038V416.604Z" fill="#F0F0F0"/>
<path d="M381.354 289.626H377.15V293.829H381.354V289.626Z" fill="#F0F0F0"/>
<path d="M381.354 296.682H377.15V300.886H381.354V296.682Z" fill="#F0F0F0"/>
<path d="M381.354 303.738H377.15V307.942H381.354V303.738Z" fill="#F0F0F0"/>
<path d="M381.354 310.795H377.15V314.998H381.354V310.795Z" fill="#F0F0F0"/>
<path d="M381.354 317.851H377.15V322.054H381.354V317.851Z" fill="#F0F0F0"/>
<path d="M381.354 324.907H377.15V329.11H381.354V324.907Z" fill="#F0F0F0"/>
<path d="M381.354 331.946H377.15V336.15H381.354V331.946Z" fill="#F0F0F0"/>
<path d="M381.354 339.003H377.15V343.206H381.354V339.003Z" fill="#F0F0F0"/>
<path d="M381.354 346.059H377.15V350.262H381.354V346.059Z" fill="#F0F0F0"/>
<path d="M381.354 353.115H377.15V357.318H381.354V353.115Z" fill="#F0F0F0"/>
<path d="M381.354 360.171H377.15V364.375H381.354V360.171Z" fill="#F0F0F0"/>
<path d="M381.354 367.228H377.15V371.431H381.354V367.228Z" fill="#F0F0F0"/>
<path d="M381.354 374.284H377.15V378.487H381.354V374.284Z" fill="#F0F0F0"/>
<path d="M381.354 381.34H377.15V385.543H381.354V381.34Z" fill="#F0F0F0"/>
<path d="M381.354 388.396H377.15V392.6H381.354V388.396Z" fill="#F0F0F0"/>
<path d="M381.354 395.452H377.15V399.656H381.354V395.452Z" fill="#F0F0F0"/>
<path d="M381.354 402.492H377.15V406.695H381.354V402.492Z" fill="#F0F0F0"/>
<path d="M381.354 409.548H377.15V413.751H381.354V409.548Z" fill="#F0F0F0"/>
<path d="M381.354 416.604H377.15V420.808H381.354V416.604Z" fill="#F0F0F0"/>
<path d="M374.669 289.626H370.466V293.829H374.669V289.626Z" fill="#F0F0F0"/>
<path d="M374.669 296.682H370.466V300.886H374.669V296.682Z" fill="#F0F0F0"/>
<path d="M374.669 303.738H370.466V307.942H374.669V303.738Z" fill="#F0F0F0"/>
<path d="M374.669 310.795H370.466V314.998H374.669V310.795Z" fill="#F0F0F0"/>
<path d="M374.669 317.851H370.466V322.054H374.669V317.851Z" fill="#F0F0F0"/>
<path d="M374.669 324.907H370.466V329.11H374.669V324.907Z" fill="#F0F0F0"/>
<path d="M374.669 331.946H370.466V336.15H374.669V331.946Z" fill="#F0F0F0"/>
<path d="M374.669 339.003H370.466V343.206H374.669V339.003Z" fill="#F0F0F0"/>
<path d="M374.669 346.059H370.466V350.262H374.669V346.059Z" fill="#F0F0F0"/>
<path d="M374.669 353.115H370.466V357.318H374.669V353.115Z" fill="#F0F0F0"/>
<path d="M374.669 360.171H370.466V364.375H374.669V360.171Z" fill="#F0F0F0"/>
<path d="M374.669 367.228H370.466V371.431H374.669V367.228Z" fill="#F0F0F0"/>
<path d="M374.669 374.284H370.466V378.487H374.669V374.284Z" fill="#F0F0F0"/>
<path d="M374.669 381.34H370.466V385.543H374.669V381.34Z" fill="#F0F0F0"/>
<path d="M374.669 388.396H370.466V392.6H374.669V388.396Z" fill="#F0F0F0"/>
<path d="M367.984 289.626H363.781V293.829H367.984V289.626Z" fill="#F0F0F0"/>
<path d="M367.984 296.682H363.781V300.886H367.984V296.682Z" fill="#F0F0F0"/>
<path d="M367.984 303.738H363.781V307.942H367.984V303.738Z" fill="#F0F0F0"/>
<path d="M367.984 310.795H363.781V314.998H367.984V310.795Z" fill="#F0F0F0"/>
<path d="M367.984 317.851H363.781V322.054H367.984V317.851Z" fill="#F0F0F0"/>
<path d="M367.984 324.907H363.781V329.11H367.984V324.907Z" fill="#F0F0F0"/>
<path d="M367.984 331.946H363.781V336.15H367.984V331.946Z" fill="#F0F0F0"/>
<path d="M367.984 339.003H363.781V343.206H367.984V339.003Z" fill="#F0F0F0"/>
<path d="M367.984 346.059H363.781V350.262H367.984V346.059Z" fill="#F0F0F0"/>
<path d="M367.984 353.115H363.781V357.318H367.984V353.115Z" fill="#F0F0F0"/>
<path d="M367.984 360.171H363.781V364.375H367.984V360.171Z" fill="#F0F0F0"/>
<path d="M367.984 367.228H363.781V371.431H367.984V367.228Z" fill="#F0F0F0"/>
<path d="M367.984 374.284H363.781V378.487H367.984V374.284Z" fill="#F0F0F0"/>
<path d="M361.3 289.626H357.097V293.829H361.3V289.626Z" fill="#F0F0F0"/>
<path d="M361.3 296.682H357.097V300.886H361.3V296.682Z" fill="#F0F0F0"/>
<path d="M361.3 303.738H357.097V307.942H361.3V303.738Z" fill="#F0F0F0"/>
<path d="M361.3 310.795H357.097V314.998H361.3V310.795Z" fill="#F0F0F0"/>
<path d="M361.3 317.851H357.097V322.054H361.3V317.851Z" fill="#F0F0F0"/>
<path d="M361.3 324.907H357.097V329.11H361.3V324.907Z" fill="#F0F0F0"/>
<path d="M361.3 331.946H357.097V336.15H361.3V331.946Z" fill="#F0F0F0"/>
<path d="M361.3 339.003H357.097V343.206H361.3V339.003Z" fill="#F0F0F0"/>
<path d="M361.3 346.059H357.097V350.262H361.3V346.059Z" fill="#F0F0F0"/>
<path d="M361.3 353.115H357.097V357.318H361.3V353.115Z" fill="#F0F0F0"/>
<path d="M361.3 360.171H357.097V364.375H361.3V360.171Z" fill="#F0F0F0"/>
<path d="M361.3 367.228H357.097V371.431H361.3V367.228Z" fill="#F0F0F0"/>
<path d="M751.38 287.516H747.177V291.719H751.38V287.516Z" fill="#F0F0F0"/>
<path d="M751.38 294.572H747.177V298.775H751.38V294.572Z" fill="#F0F0F0"/>
<path d="M751.38 301.628H747.177V305.832H751.38V301.628Z" fill="#F0F0F0"/>
<path d="M751.38 308.685H747.177V312.888H751.38V308.685Z" fill="#F0F0F0"/>
<path d="M751.38 315.741H747.177V319.944H751.38V315.741Z" fill="#F0F0F0"/>
<path d="M751.38 322.797H747.177V327H751.38V322.797Z" fill="#F0F0F0"/>
<path d="M751.38 329.853H747.177V334.057H751.38V329.853Z" fill="#F0F0F0"/>
<path d="M751.38 336.909H747.177V341.113H751.38V336.909Z" fill="#F0F0F0"/>
<path d="M751.38 343.966H747.177V348.169H751.38V343.966Z" fill="#F0F0F0"/>
<path d="M751.38 351.022H747.177V355.225H751.38V351.022Z" fill="#F0F0F0"/>
<path d="M751.38 358.061H747.177V362.265H751.38V358.061Z" fill="#F0F0F0"/>
<path d="M751.38 365.117H747.177V369.321H751.38V365.117Z" fill="#F0F0F0"/>
<path d="M751.38 372.174H747.177V376.377H751.38V372.174Z" fill="#F0F0F0"/>
<path d="M751.38 379.23H747.177V383.433H751.38V379.23Z" fill="#F0F0F0"/>
<path d="M751.38 386.286H747.177V390.489H751.38V386.286Z" fill="#F0F0F0"/>
<path d="M751.38 393.342H747.177V397.546H751.38V393.342Z" fill="#F0F0F0"/>
<path d="M751.38 400.399H747.177V404.602H751.38V400.399Z" fill="#F0F0F0"/>
<path d="M751.38 414.511H747.177V418.714H751.38V414.511Z" fill="#F0F0F0"/>
<path d="M751.38 421.567H747.177V425.771H751.38V421.567Z" fill="#F0F0F0"/>
<path d="M751.38 428.607H747.177V432.81H751.38V428.607Z" fill="#F0F0F0"/>
<path d="M751.38 435.663H747.177V439.866H751.38V435.663Z" fill="#F0F0F0"/>
<path d="M751.38 442.719H747.177V446.922H751.38V442.719Z" fill="#F0F0F0"/>
<path d="M744.695 287.516H740.492V291.719H744.695V287.516Z" fill="#F0F0F0"/>
<path d="M744.695 294.572H740.492V298.775H744.695V294.572Z" fill="#F0F0F0"/>
<path d="M744.695 301.628H740.492V305.832H744.695V301.628Z" fill="#F0F0F0"/>
<path d="M744.695 308.685H740.492V312.888H744.695V308.685Z" fill="#F0F0F0"/>
<path d="M744.695 315.741H740.492V319.944H744.695V315.741Z" fill="#F0F0F0"/>
<path d="M744.695 322.797H740.492V327H744.695V322.797Z" fill="#F0F0F0"/>
<path d="M744.695 329.853H740.492V334.057H744.695V329.853Z" fill="#F0F0F0"/>
<path d="M744.695 336.909H740.492V341.113H744.695V336.909Z" fill="#F0F0F0"/>
<path d="M744.695 343.966H740.492V348.169H744.695V343.966Z" fill="#F0F0F0"/>
<path d="M744.695 351.022H740.492V355.225H744.695V351.022Z" fill="#F0F0F0"/>
<path d="M744.695 358.061H740.492V362.265H744.695V358.061Z" fill="#F0F0F0"/>
<path d="M744.695 365.117H740.492V369.321H744.695V365.117Z" fill="#F0F0F0"/>
<path d="M744.695 372.174H740.492V376.377H744.695V372.174Z" fill="#F0F0F0"/>
<path d="M744.695 379.23H740.492V383.433H744.695V379.23Z" fill="#F0F0F0"/>
<path d="M744.695 386.286H740.492V390.489H744.695V386.286Z" fill="#F0F0F0"/>
<path d="M744.695 393.342H740.492V397.546H744.695V393.342Z" fill="#F0F0F0"/>
<path d="M744.695 435.663H740.492V439.866H744.695V435.663Z" fill="#F0F0F0"/>
<path d="M744.695 442.719H740.492V446.922H744.695V442.719Z" fill="#F0F0F0"/>
<path d="M738.027 287.516H733.824V291.719H738.027V287.516Z" fill="#F0F0F0"/>
<path d="M738.027 294.572H733.824V298.775H738.027V294.572Z" fill="#F0F0F0"/>
<path d="M738.027 301.628H733.824V305.832H738.027V301.628Z" fill="#F0F0F0"/>
<path d="M738.027 308.685H733.824V312.888H738.027V308.685Z" fill="#F0F0F0"/>
<path d="M738.027 315.741H733.824V319.944H738.027V315.741Z" fill="#F0F0F0"/>
<path d="M738.027 322.797H733.824V327H738.027V322.797Z" fill="#F0F0F0"/>
<path d="M738.027 329.853H733.824V334.057H738.027V329.853Z" fill="#F0F0F0"/>
<path d="M738.027 336.909H733.824V341.113H738.027V336.909Z" fill="#F0F0F0"/>
<path d="M738.027 343.966H733.824V348.169H738.027V343.966Z" fill="#F0F0F0"/>
<path d="M738.027 351.022H733.824V355.225H738.027V351.022Z" fill="#F0F0F0"/>
<path d="M738.027 358.061H733.824V362.265H738.027V358.061Z" fill="#F0F0F0"/>
<path d="M738.027 365.117H733.824V369.321H738.027V365.117Z" fill="#F0F0F0"/>
<path d="M738.027 372.174H733.824V376.377H738.027V372.174Z" fill="#F0F0F0"/>
<path d="M738.027 379.23H733.824V383.433H738.027V379.23Z" fill="#F0F0F0"/>
<path d="M738.027 386.286H733.824V390.489H738.027V386.286Z" fill="#F0F0F0"/>
<path d="M738.027 393.342H733.824V397.546H738.027V393.342Z" fill="#F0F0F0"/>
<path d="M738.027 407.455H733.824V411.658H738.027V407.455Z" fill="#F0F0F0"/>
<path d="M738.027 414.511H733.824V418.714H738.027V414.511Z" fill="#F0F0F0"/>
<path d="M738.027 421.567H733.824V425.771H738.027V421.567Z" fill="#F0F0F0"/>
<path d="M738.027 428.607H733.824V432.81H738.027V428.607Z" fill="#F0F0F0"/>
<path d="M738.027 442.719H733.824V446.922H738.027V442.719Z" fill="#F0F0F0"/>
<path d="M621.437 336.909H617.234V341.113H621.437V336.909Z" fill="#F0F0F0"/>
<path d="M621.437 343.966H617.234V348.169H621.437V343.966Z" fill="#F0F0F0"/>
<path d="M621.437 351.022H617.234V355.225H621.437V351.022Z" fill="#F0F0F0"/>
<path d="M621.437 358.061H617.234V362.265H621.437V358.061Z" fill="#F0F0F0"/>
<path d="M621.437 365.117H617.234V369.321H621.437V365.117Z" fill="#F0F0F0"/>
<path d="M621.437 372.174H617.234V376.377H621.437V372.174Z" fill="#F0F0F0"/>
<path d="M621.437 379.23H617.234V383.433H621.437V379.23Z" fill="#F0F0F0"/>
<path d="M621.437 386.286H617.234V390.489H621.437V386.286Z" fill="#F0F0F0"/>
<path d="M621.437 393.342H617.234V397.546H621.437V393.342Z" fill="#F0F0F0"/>
<path d="M621.437 400.399H617.234V404.602H621.437V400.399Z" fill="#F0F0F0"/>
<path d="M621.437 407.455H617.234V411.658H621.437V407.455Z" fill="#F0F0F0"/>
<path d="M621.437 414.511H617.234V418.714H621.437V414.511Z" fill="#F0F0F0"/>
<path d="M621.437 421.567H617.234V425.771H621.437V421.567Z" fill="#F0F0F0"/>
<path d="M621.437 435.663H617.234V439.866H621.437V435.663Z" fill="#F0F0F0"/>
<path d="M621.437 442.719H617.234V446.922H621.437V442.719Z" fill="#F0F0F0"/>
<path d="M621.437 449.775H617.234V453.979H621.437V449.775Z" fill="#F0F0F0"/>
<path d="M621.437 456.831H617.234V461.035H621.437V456.831Z" fill="#F0F0F0"/>
<path d="M621.437 470.944H617.234V475.147H621.437V470.944Z" fill="#F0F0F0"/>
<path d="M621.437 478H617.234V482.204H621.437V478Z" fill="#F0F0F0"/>
<path d="M621.437 485.056H617.234V489.26H621.437V485.056Z" fill="#F0F0F0"/>
<path d="M614.753 336.909H610.55V341.113H614.753V336.909Z" fill="#F0F0F0"/>
<path d="M614.753 343.966H610.55V348.169H614.753V343.966Z" fill="#F0F0F0"/>
<path d="M614.753 351.022H610.55V355.225H614.753V351.022Z" fill="#F0F0F0"/>
<path d="M614.753 358.061H610.55V362.265H614.753V358.061Z" fill="#F0F0F0"/>
<path d="M614.753 365.117H610.55V369.321H614.753V365.117Z" fill="#F0F0F0"/>
<path d="M614.753 372.174H610.55V376.377H614.753V372.174Z" fill="#F0F0F0"/>
<path d="M614.753 379.23H610.55V383.433H614.753V379.23Z" fill="#F0F0F0"/>
<path d="M614.753 386.286H610.55V390.489H614.753V386.286Z" fill="#F0F0F0"/>
<path d="M614.753 393.342H610.55V397.546H614.753V393.342Z" fill="#F0F0F0"/>
<path d="M614.753 400.399H610.55V404.602H614.753V400.399Z" fill="#F0F0F0"/>
<path d="M614.753 407.455H610.55V411.658H614.753V407.455Z" fill="#F0F0F0"/>
<path d="M614.753 414.511H610.55V418.714H614.753V414.511Z" fill="#F0F0F0"/>
<path d="M614.753 421.567H610.55V425.771H614.753V421.567Z" fill="#F0F0F0"/>
<path d="M614.753 442.719H610.55V446.922H614.753V442.719Z" fill="#F0F0F0"/>
<path d="M614.753 449.775H610.55V453.979H614.753V449.775Z" fill="#F0F0F0"/>
<path d="M614.753 463.888H610.55V468.091H614.753V463.888Z" fill="#F0F0F0"/>
<path d="M614.753 470.944H610.55V475.147H614.753V470.944Z" fill="#F0F0F0"/>
<path d="M614.753 478H610.55V482.204H614.753V478Z" fill="#F0F0F0"/>
<path d="M614.753 485.056H610.55V489.26H614.753V485.056Z" fill="#F0F0F0"/>
<path d="M608.068 336.909H603.865V341.113H608.068V336.909Z" fill="#F0F0F0"/>
<path d="M608.068 343.966H603.865V348.169H608.068V343.966Z" fill="#F0F0F0"/>
<path d="M608.068 351.022H603.865V355.225H608.068V351.022Z" fill="#F0F0F0"/>
<path d="M608.068 358.061H603.865V362.265H608.068V358.061Z" fill="#F0F0F0"/>
<path d="M608.068 365.117H603.865V369.321H608.068V365.117Z" fill="#F0F0F0"/>
<path d="M608.068 372.174H603.865V376.377H608.068V372.174Z" fill="#F0F0F0"/>
<path d="M608.068 379.23H603.865V383.433H608.068V379.23Z" fill="#F0F0F0"/>
<path d="M608.068 386.286H603.865V390.489H608.068V386.286Z" fill="#F0F0F0"/>
<path d="M608.068 393.342H603.865V397.546H608.068V393.342Z" fill="#F0F0F0"/>
<path d="M608.068 400.399H603.865V404.602H608.068V400.399Z" fill="#F0F0F0"/>
<path d="M608.068 407.455H603.865V411.658H608.068V407.455Z" fill="#F0F0F0"/>
<path d="M608.068 414.511H603.865V418.714H608.068V414.511Z" fill="#F0F0F0"/>
<path d="M608.068 421.567H603.865V425.771H608.068V421.567Z" fill="#F0F0F0"/>
<path d="M608.068 428.607H603.865V432.81H608.068V428.607Z" fill="#F0F0F0"/>
<path d="M608.068 442.719H603.865V446.922H608.068V442.719Z" fill="#F0F0F0"/>
<path d="M608.068 456.831H603.865V461.035H608.068V456.831Z" fill="#F0F0F0"/>
<path d="M608.068 463.888H603.865V468.091H608.068V463.888Z" fill="#F0F0F0"/>
<path d="M608.068 470.944H603.865V475.147H608.068V470.944Z" fill="#F0F0F0"/>
<path d="M608.068 478H603.865V482.204H608.068V478Z" fill="#F0F0F0"/>
<path d="M608.068 485.056H603.865V489.26H608.068V485.056Z" fill="#F0F0F0"/>
<path d="M648.665 377.137H644.462V381.34H648.665V377.137Z" fill="#F0F0F0"/>
<path d="M648.665 384.176H644.462V388.379H648.665V384.176Z" fill="#F0F0F0"/>
<path d="M648.665 391.232H644.462V395.436H648.665V391.232Z" fill="#F0F0F0"/>
<path d="M648.665 398.288H644.462V402.492H648.665V398.288Z" fill="#F0F0F0"/>
<path d="M648.665 405.345H644.462V409.548H648.665V405.345Z" fill="#F0F0F0"/>
<path d="M648.665 412.401H644.462V416.604H648.665V412.401Z" fill="#F0F0F0"/>
<path d="M648.665 433.57H644.462V437.773H648.665V433.57Z" fill="#F0F0F0"/>
<path d="M648.665 440.626H644.462V444.829H648.665V440.626Z" fill="#F0F0F0"/>
<path d="M648.665 447.665H644.462V451.868H648.665V447.665Z" fill="#F0F0F0"/>
<path d="M648.665 454.721H644.462V458.925H648.665V454.721Z" fill="#F0F0F0"/>
<path d="M648.665 461.778H644.462V465.981H648.665V461.778Z" fill="#F0F0F0"/>
<path d="M648.665 468.834H644.462V473.037H648.665V468.834Z" fill="#F0F0F0"/>
<path d="M648.665 475.89H644.462V480.093H648.665V475.89Z" fill="#F0F0F0"/>
<path d="M641.98 377.137H637.777V381.34H641.98V377.137Z" fill="#F0F0F0"/>
<path d="M641.98 384.176H637.777V388.379H641.98V384.176Z" fill="#F0F0F0"/>
<path d="M641.98 391.232H637.777V395.436H641.98V391.232Z" fill="#F0F0F0"/>
<path d="M641.98 398.288H637.777V402.492H641.98V398.288Z" fill="#F0F0F0"/>
<path d="M641.98 405.345H637.777V409.548H641.98V405.345Z" fill="#F0F0F0"/>
<path d="M641.98 412.401H637.777V416.604H641.98V412.401Z" fill="#F0F0F0"/>
<path d="M641.98 433.57H637.777V437.773H641.98V433.57Z" fill="#F0F0F0"/>
<path d="M641.98 440.626H637.777V444.829H641.98V440.626Z" fill="#F0F0F0"/>
<path d="M641.98 447.665H637.777V451.868H641.98V447.665Z" fill="#F0F0F0"/>
<path d="M641.98 454.721H637.777V458.925H641.98V454.721Z" fill="#F0F0F0"/>
<path d="M641.98 461.778H637.777V465.981H641.98V461.778Z" fill="#F0F0F0"/>
<path d="M641.98 468.834H637.777V473.037H641.98V468.834Z" fill="#F0F0F0"/>
<path d="M641.98 482.946H637.777V487.15H641.98V482.946Z" fill="#F0F0F0"/>
<path d="M419.958 346.059H415.755V350.262H419.958V346.059Z" fill="#F0F0F0"/>
<path d="M419.958 353.115H415.755V357.318H419.958V353.115Z" fill="#F0F0F0"/>
<path d="M419.958 360.171H415.755V364.375H419.958V360.171Z" fill="#F0F0F0"/>
<path d="M419.958 367.228H415.755V371.431H419.958V367.228Z" fill="#F0F0F0"/>
<path d="M419.958 374.284H415.755V378.487H419.958V374.284Z" fill="#F0F0F0"/>
<path d="M419.958 381.34H415.755V385.543H419.958V381.34Z" fill="#F0F0F0"/>
<path d="M419.958 388.396H415.755V392.6H419.958V388.396Z" fill="#F0F0F0"/>
<path d="M419.958 395.452H415.755V399.656H419.958V395.452Z" fill="#F0F0F0"/>
<path d="M419.958 402.492H415.755V406.695H419.958V402.492Z" fill="#F0F0F0"/>
<path d="M419.958 409.548H415.755V413.751H419.958V409.548Z" fill="#F0F0F0"/>
<path d="M419.958 416.604H415.755V420.808H419.958V416.604Z" fill="#F0F0F0"/>
<path d="M419.958 430.717H415.755V434.92H419.958V430.717Z" fill="#F0F0F0"/>
<path d="M419.958 437.773H415.755V441.976H419.958V437.773Z" fill="#F0F0F0"/>
<path d="M419.958 444.829H415.755V449.032H419.958V444.829Z" fill="#F0F0F0"/>
<path d="M419.958 451.885H415.755V456.089H419.958V451.885Z" fill="#F0F0F0"/>
<path d="M419.958 458.942H415.755V463.145H419.958V458.942Z" fill="#F0F0F0"/>
<path d="M419.958 465.998H415.755V470.201H419.958V465.998Z" fill="#F0F0F0"/>
<path d="M419.958 473.037H415.755V477.241H419.958V473.037Z" fill="#F0F0F0"/>
<path d="M419.958 480.093H415.755V484.297H419.958V480.093Z" fill="#F0F0F0"/>
<path d="M413.29 346.059H409.087V350.262H413.29V346.059Z" fill="#F0F0F0"/>
<path d="M413.29 353.115H409.087V357.318H413.29V353.115Z" fill="#F0F0F0"/>
<path d="M413.29 360.171H409.087V364.375H413.29V360.171Z" fill="#F0F0F0"/>
<path d="M413.29 367.228H409.087V371.431H413.29V367.228Z" fill="#F0F0F0"/>
<path d="M413.29 374.284H409.087V378.487H413.29V374.284Z" fill="#F0F0F0"/>
<path d="M413.29 381.34H409.087V385.543H413.29V381.34Z" fill="#F0F0F0"/>
<path d="M413.29 388.396H409.087V392.6H413.29V388.396Z" fill="#F0F0F0"/>
<path d="M413.29 395.452H409.087V399.656H413.29V395.452Z" fill="#F0F0F0"/>
<path d="M413.29 402.492H409.087V406.695H413.29V402.492Z" fill="#F0F0F0"/>
<path d="M413.29 409.548H409.087V413.751H413.29V409.548Z" fill="#F0F0F0"/>
<path d="M413.29 416.604H409.087V420.808H413.29V416.604Z" fill="#F0F0F0"/>
<path d="M413.29 423.66H409.087V427.864H413.29V423.66Z" fill="#F0F0F0"/>
<path d="M413.29 430.717H409.087V434.92H413.29V430.717Z" fill="#F0F0F0"/>
<path d="M413.29 437.773H409.087V441.976H413.29V437.773Z" fill="#F0F0F0"/>
<path d="M413.29 444.829H409.087V449.032H413.29V444.829Z" fill="#F0F0F0"/>
<path d="M413.29 451.885H409.087V456.089H413.29V451.885Z" fill="#F0F0F0"/>
<path d="M413.29 458.942H409.087V463.145H413.29V458.942Z" fill="#F0F0F0"/>
<path d="M413.29 465.998H409.087V470.201H413.29V465.998Z" fill="#F0F0F0"/>
<path d="M413.29 473.037H409.087V477.241H413.29V473.037Z" fill="#F0F0F0"/>
<path d="M413.29 480.093H409.087V484.297H413.29V480.093Z" fill="#F0F0F0"/>
<path d="M452.891 373.541H448.688V377.744H452.891V373.541Z" fill="#F0F0F0"/>
<path d="M452.891 380.597H448.688V384.801H452.891V380.597Z" fill="#F0F0F0"/>
<path d="M452.891 387.653H448.688V391.857H452.891V387.653Z" fill="#F0F0F0"/>
<path d="M452.891 394.71H448.688V398.913H452.891V394.71Z" fill="#F0F0F0"/>
<path d="M452.891 401.749H448.688V405.952H452.891V401.749Z" fill="#F0F0F0"/>
<path d="M452.891 408.805H448.688V413.009H452.891V408.805Z" fill="#F0F0F0"/>
<path d="M452.891 415.862H448.688V420.065H452.891V415.862Z" fill="#F0F0F0"/>
<path d="M452.891 422.918H448.688V427.121H452.891V422.918Z" fill="#F0F0F0"/>
<path d="M452.891 429.974H448.688V434.177H452.891V429.974Z" fill="#F0F0F0"/>
<path d="M452.891 437.03H448.688V441.234H452.891V437.03Z" fill="#F0F0F0"/>
<path d="M446.206 373.541H442.003V377.744H446.206V373.541Z" fill="#F0F0F0"/>
<path d="M446.206 380.597H442.003V384.801H446.206V380.597Z" fill="#F0F0F0"/>
<path d="M446.206 387.653H442.003V391.857H446.206V387.653Z" fill="#F0F0F0"/>
<path d="M446.206 394.71H442.003V398.913H446.206V394.71Z" fill="#F0F0F0"/>
<path d="M446.206 401.749H442.003V405.952H446.206V401.749Z" fill="#F0F0F0"/>
<path d="M446.206 408.805H442.003V413.009H446.206V408.805Z" fill="#F0F0F0"/>
<path d="M446.206 415.862H442.003V420.065H446.206V415.862Z" fill="#F0F0F0"/>
<path d="M446.206 422.918H442.003V427.121H446.206V422.918Z" fill="#F0F0F0"/>
<path d="M446.206 429.974H442.003V434.177H446.206V429.974Z" fill="#F0F0F0"/>
<path d="M485.958 105.826H478.902V499.287H485.958V105.826Z" fill="#E0E0E0"/>
<path d="M618.82 105.826H611.765V499.287H618.82V105.826Z" fill="#E0E0E0"/>
<path d="M751.666 105.826H744.61V499.287H751.666V105.826Z" fill="#E0E0E0"/>
<path d="M249.52 461.001H293.037C297.138 461.001 300.481 464.327 300.481 468.446V552.563H242.093V468.446C242.093 464.343 245.418 461.001 249.537 461.001H249.52Z" fill="#F0F0F0"/>
<path d="M300.481 473.375H242.093V479.941H300.481V473.375Z" fill="#E6E6E6"/>
<path d="M275.295 541.472H289.846C292.057 541.472 293.847 543.262 293.847 545.473V552.563H271.295V545.473C271.295 543.262 273.084 541.472 275.295 541.472Z" fill="#E0E0E0"/>
<path d="M293.914 552.563H277.726C276.292 552.563 275.127 551.398 275.127 549.964C275.127 548.529 276.292 547.364 277.726 547.364H293.914C295.349 547.364 296.514 548.529 296.514 549.964C296.514 551.398 295.349 552.563 293.914 552.563Z" fill="#E6E6E6"/>
<path d="M553.173 87.3492C574.541 82.3057 587.774 60.8944 582.731 39.5256C577.688 18.1569 556.278 4.92269 534.91 9.96617C513.543 15.0096 500.309 36.421 505.352 57.7897C510.395 79.1584 531.806 92.3926 553.173 87.3492Z" fill="#E0E0E0"/>
<path d="M549.463 81.9877C567.895 78.9956 580.412 61.6273 577.42 43.1944C574.428 24.7615 557.061 12.2443 538.629 15.2364C520.197 18.2285 507.68 35.5968 510.672 54.0297C513.664 72.4625 531.032 84.9798 549.463 81.9877Z" fill="#F0F0F0"/>
<path d="M545.63 25.4564V49.0897L561.295 40.2272" fill="#F0F0F0"/>
<path d="M545.63 25.4564V49.0897L561.295 40.2272" stroke="#E0E0E0" stroke-width="2" stroke-linecap="round" stroke-linejoin="round"/>
<path d="M163.618 436.693C160.58 431.696 155.583 436.034 155.583 436.034C156.292 426.446 147.481 419.896 147.481 419.896C147.481 419.896 157.727 419.896 159.162 410.122C160.597 400.348 155.583 404.889 150.891 404.821C146.198 404.754 141.286 418.461 147.481 426.176C153.676 433.89 152.005 447.057 137.724 459.718C134.23 462.807 131.867 466.926 130.263 471.366C131.344 459.735 131.951 443.344 128.525 432.405C122.718 413.819 133.791 408.822 136.998 399.521C140.222 390.236 128.525 382.37 128.525 382.37C128.525 382.37 139.513 377.373 134.146 371.65C128.778 365.928 117.705 366.704 117.705 374.183C117.705 381.661 125.216 384.514 125.216 384.514C125.216 384.514 133.791 393.444 133.791 398.103C133.791 402.762 125.216 412.755 125.216 412.755C125.216 412.755 129.149 404.197 121.283 403.825C113.417 403.454 110.919 413.819 114.143 418.478C117.367 423.12 122.718 419.187 122.718 419.187C122.718 419.187 123.342 429.197 125.182 435.275C125.993 437.942 125.604 448.425 124.929 459.33C123.342 455.397 121.097 451.784 117.975 448.999C103.677 436.338 102.023 423.171 108.218 415.456C114.413 407.742 109.501 394.034 104.808 394.102C100.116 394.17 95.1022 389.612 96.537 399.403C97.9718 409.194 108.218 409.177 108.218 409.177C108.218 409.177 99.3897 415.743 100.116 425.315C100.116 425.315 95.1191 420.96 92.0807 425.973C86.6622 434.903 99.2209 440.44 101.348 436.051C101.348 436.051 128.001 454.924 121.57 482.085L123.072 484.297C122.887 486.491 122.752 487.808 122.752 487.808L124.845 486.913L127.225 490.408C127.107 497.194 127.833 502.207 127.833 502.207L134.213 492.805C127.782 465.643 154.435 446.77 154.435 446.77C156.545 451.16 169.121 445.623 163.702 436.693H163.618Z" fill="#E0E0E0"/>
<path opacity="0.2" d="M163.618 436.693C160.58 431.696 155.583 436.034 155.583 436.034C156.292 426.446 147.481 419.896 147.481 419.896C147.481 419.896 157.727 419.896 159.162 410.122C160.597 400.348 155.583 404.889 150.891 404.821C146.198 404.754 141.286 418.461 147.481 426.176C153.676 433.89 152.005 447.057 137.724 459.718C134.23 462.807 131.867 466.926 130.263 471.366C131.344 459.735 131.951 443.344 128.525 432.405C122.718 413.819 133.791 408.822 136.998 399.521C140.222 390.236 128.525 382.37 128.525 382.37C128.525 382.37 139.513 377.373 134.146 371.65C128.778 365.928 117.705 366.704 117.705 374.183C117.705 381.661 125.216 384.514 125.216 384.514C125.216 384.514 133.791 393.444 133.791 398.103C133.791 402.762 125.216 412.755 125.216 412.755C125.216 412.755 129.149 404.197 121.283 403.825C113.417 403.454 110.919 413.819 114.143 418.478C117.367 423.12 122.718 419.187 122.718 419.187C122.718 419.187 123.342 429.197 125.182 435.275C125.993 437.942 125.604 448.425 124.929 459.33C123.342 455.397 121.097 451.784 117.975 448.999C103.677 436.338 102.023 423.171 108.218 415.456C114.413 407.742 109.501 394.034 104.808 394.102C100.116 394.17 95.1022 389.612 96.537 399.403C97.9718 409.194 108.218 409.177 108.218 409.177C108.218 409.177 99.3897 415.743 100.116 425.315C100.116 425.315 95.1191 420.96 92.0807 425.973C86.6622 434.903 99.2209 440.44 101.348 436.051C101.348 436.051 128.001 454.924 121.57 482.085L123.072 484.297C122.887 486.491 122.752 487.808 122.752 487.808L124.845 486.913L127.225 490.408C127.107 497.194 127.833 502.207 127.833 502.207L134.213 492.805C127.782 465.643 154.435 446.77 154.435 446.77C156.545 451.16 169.121 445.623 163.702 436.693H163.618Z" fill="#E0E0E0"/>
<path d="M158.402 552.563H97.3471L90.7471 485.698H164.985L158.402 552.563Z" fill="#E6E6E6"/>
<path d="M168.243 478.321H87.4893V493.075H168.243V478.321Z" fill="#F0F0F0"/>
<path d="M422 629C602.755 629 749.287 620.445 749.287 609.891C749.287 599.337 602.755 590.782 422 590.782C241.245 590.782 94.7139 599.337 94.7139 609.891C94.7139 620.445 241.245 629 422 629Z" fill="#F5F5F5"/>
<path d="M692.839 556.665C693.092 554.943 699 514.176 687.167 500.097C684.551 496.974 681.242 495.354 677.343 495.252C653.458 494.695 650.183 513.889 650.149 514.075L652.968 514.514C653.07 513.822 655.906 497.582 677.276 498.105C680.365 498.173 682.897 499.439 684.99 501.937C696.012 515.037 690.087 555.838 690.02 556.243L692.839 556.665Z" fill="#27AC75"/>
<path d="M694.274 554.808L697.127 554.724C697.127 554.353 696.181 517.164 714.496 509.483C732.457 501.954 740.525 517.434 740.863 518.092L743.412 516.809C743.31 516.624 733.841 498.274 713.399 506.85C693.278 515.29 694.223 553.205 694.274 554.808Z" fill="#27AC75"/>
<path d="M694.19 557.729C694.19 557.138 694.358 498.325 705.82 481.123C716.826 464.614 734.583 472.379 735.343 472.716L736.525 470.117C736.322 470.015 715.83 460.984 703.457 479.536C691.523 497.447 691.337 555.264 691.337 557.729H694.19Z" fill="#27AC75"/>
<path d="M673.917 496.687C673.917 496.687 684.348 500.536 681.243 509.618C678.137 518.7 645.153 533.64 645.153 533.64C645.153 533.64 631.345 520.979 644.022 500.384C656.716 479.79 673.63 490.205 673.9 496.687H673.917Z" fill="#27AC75"/>
<path d="M706.343 478.034C706.343 478.034 698.933 477.241 699.54 472.733C700.148 468.226 728.321 456.612 744.964 475.384C744.964 475.384 734.313 493.683 718.919 493.919C703.524 494.155 706.36 478.034 706.36 478.034H706.343Z" fill="#27AC75"/>
<path d="M713.956 508.166C713.956 508.166 708.841 504.047 714.361 502.022C719.881 500.013 746.939 500.587 747.226 527.394C747.226 527.394 715.711 532.627 711.812 522.414C707.913 512.201 713.973 508.166 713.973 508.166H713.956Z" fill="#27AC75"/>
<path opacity="0.2" d="M673.917 496.687C673.917 496.687 684.348 500.536 681.243 509.618C678.137 518.7 645.153 533.64 645.153 533.64C645.153 533.64 631.345 520.979 644.022 500.384C656.716 479.79 673.63 490.205 673.9 496.687H673.917Z" fill="#1C3871"/>
<path opacity="0.2" d="M706.343 478.034C706.343 478.034 698.933 477.241 699.54 472.733C700.148 468.226 728.321 456.612 744.964 475.384C744.964 475.384 734.313 493.683 718.919 493.919C703.524 494.155 706.36 478.034 706.36 478.034H706.343Z" fill="#1C3871"/>
<path opacity="0.2" d="M713.956 508.166C713.956 508.166 708.841 504.047 714.361 502.022C719.881 500.013 746.939 500.587 747.226 527.394C747.226 527.394 715.711 532.627 711.812 522.414C707.913 512.201 713.973 508.166 713.973 508.166H713.956Z" fill="#1C3871"/>
<path d="M668.313 611.292H717.231L722.497 557.729H663.046L668.313 611.292Z" fill="#27AC75"/>
<path opacity="0.5" d="M668.313 611.292H717.231L722.497 557.729H663.046L668.313 611.292Z" fill="white"/>
<path d="M660.429 563.654H725.113V551.837H660.429V563.654Z" fill="#27AC75"/>
<path opacity="0.2" d="M660.429 563.654H725.113V551.837H660.429V563.654Z" fill="white"/>
<path d="M612.946 572.905L564.315 568.127V499.777H545.038V568.111L496.204 572.905C491.36 573.377 487.663 577.463 487.663 582.324V589.634H621.488V582.324C621.488 577.446 617.791 573.377 612.946 572.905Z" fill="#263238"/>
<path opacity="0.2" d="M612.946 572.905L564.315 568.127V499.777H545.038V568.111L496.204 572.905C491.36 573.377 487.663 577.463 487.663 582.324V589.634H621.488V582.324C621.488 577.446 617.791 573.377 612.946 572.905Z" fill="white"/>
<path d="M492.812 611.292C499.775 611.292 505.421 605.646 505.421 598.682C505.421 591.718 499.775 586.072 492.812 586.072C485.848 586.072 480.202 591.718 480.202 598.682C480.202 605.646 485.848 611.292 492.812 611.292Z" fill="#263238"/>
<path d="M616.356 611.292C623.32 611.292 628.966 605.646 628.966 598.682C628.966 591.718 623.32 586.072 616.356 586.072C609.392 586.072 603.747 591.718 603.747 598.682C603.747 605.646 609.392 611.292 616.356 611.292Z" fill="#263238"/>
<path d="M541.729 453.573H567.64V507.474C567.64 511.323 564.517 514.446 560.669 514.446H548.701C544.852 514.446 541.729 511.323 541.729 507.474V453.573Z" fill="#263238"/>
<path opacity="0.3" d="M541.729 453.573H567.64V507.474C567.64 511.323 564.517 514.446 560.669 514.446H548.701C544.852 514.446 541.729 511.323 541.729 507.474V453.573Z" fill="white"/>
<path d="M600.759 346.734C600.759 346.734 604.439 437.891 579.052 453.573H608.018C608.018 453.573 630.468 422.513 624.121 346.734H600.743H600.759Z" fill="#263238"/>
<path opacity="0.3" d="M600.759 346.734C600.759 346.734 604.439 437.891 579.052 453.573H608.018C608.018 453.573 630.468 422.513 624.121 346.734H600.743H600.759Z" fill="white"/>
<path d="M617.893 460.562H488.052V449.269C488.052 444.61 491.833 440.828 496.492 440.828H609.453C614.111 440.828 617.893 444.61 617.893 449.269V460.562Z" fill="#263238"/>
<path d="M486.026 460.562H619.901C621.775 460.562 623.294 459.043 623.294 457.169V454.097C623.294 452.223 621.775 450.704 619.901 450.704H486.026C484.152 450.704 482.633 452.223 482.633 454.097V457.169C482.633 459.043 484.152 460.562 486.026 460.562Z" fill="#263238"/>
<path opacity="0.6" d="M486.026 460.562H619.901C621.775 460.562 623.294 459.043 623.294 457.169V454.097C623.294 452.223 621.775 450.704 619.901 450.704H486.026C484.152 450.704 482.633 452.223 482.633 454.097V457.169C482.633 459.043 484.152 460.562 486.026 460.562Z" fill="white"/>
<path d="M631.244 297.864H584.824C571.232 297.864 560.213 308.883 560.213 322.476V340.64C560.213 354.233 571.232 365.252 584.824 365.252H631.244C644.836 365.252 655.855 354.233 655.855 340.64V322.476C655.855 308.883 644.836 297.864 631.244 297.864Z" fill="#263238"/>
<path d="M444.028 223.385L434.761 198.959C434.761 198.959 438.728 195.279 436.01 191.548C433.293 187.817 416.193 177.317 413.07 179.174C409.948 181.014 403.044 187.969 406.774 191.835C410.521 195.701 427.081 202.132 427.081 202.132L435.267 234.189L444.011 223.385H444.028Z" fill="#E4897B"/>
<path d="M508.73 269.825C508.73 269.825 466.581 261.165 462.006 259.088C457.432 257.012 440.467 207.331 440.467 207.331L427.47 213.409C427.47 213.409 437.935 263.275 448.637 275.142C459.339 286.993 505 297.037 505 297.037L508.73 269.842V269.825Z" fill="#27AC75"/>
<path opacity="0.2" d="M505 297.003C505 297.003 504.729 296.952 504.223 296.817C501.911 296.294 494.72 294.606 486.161 292.091C472.269 288.056 454.748 281.878 448.637 275.108C437.952 263.241 427.47 213.375 427.47 213.375L440.467 207.298C440.467 207.298 457.432 256.995 462.023 259.055C466.598 261.114 508.73 269.774 508.73 269.774L505 296.969V297.003Z" fill="#1C3871"/>
<path d="M440.686 206.352L443.37 211.535L426.659 217.291L427.301 210.961L440.686 206.352Z" fill="#27AC75"/>
<path opacity="0.2" d="M505.32 296.328C502.973 295.99 495.664 294.859 486.938 293.019C491.917 284.427 506.501 280.004 506.501 280.004L505.32 296.328Z" fill="#1C3871"/>
<path d="M568.147 235.421C568.147 235.421 570.628 258.768 561.969 264.507C553.326 270.247 510.772 263.528 505.944 254.125C501.117 244.74 519.279 219.233 519.279 219.233L568.13 235.421H568.147Z" fill="#263238"/>
<path d="M395.988 542.62L407.095 545.304L412.716 529.977L417.814 516.033L405.171 510.648L400.31 527.563L395.988 542.62Z" fill="#E4897B"/>
<path opacity="0.2" d="M400.31 527.563L412.716 529.977L417.814 516.033L405.171 510.648L400.31 527.563Z" fill="#1C3871"/>
<path d="M401.424 519.477L416.818 525.199C416.818 525.199 457.887 422.513 466.327 422.158C474.767 421.804 560.704 461.305 582.242 439.394C603.781 417.499 572.638 364.712 572.638 364.712C572.638 364.712 520.833 357.318 516.934 369.017C516.174 371.279 515.347 375.719 514.739 379.517C514.148 383.096 513.743 386.1 513.743 386.1C513.743 386.1 513.726 386.1 513.71 386.1C512.106 385.695 460.099 372.275 439.606 386.1C418.793 400.179 401.424 519.477 401.424 519.477Z" fill="#27AC75"/>
<path opacity="0.6" d="M401.424 519.477L416.818 525.199C416.818 525.199 457.887 422.513 466.327 422.158C474.767 421.804 560.704 461.305 582.242 439.394C603.781 417.499 572.638 364.712 572.638 364.712C572.638 364.712 520.833 357.318 516.934 369.017C516.174 371.279 515.347 375.719 514.739 379.517C514.148 383.096 513.743 386.1 513.743 386.1C513.743 386.1 513.726 386.1 513.71 386.1C512.106 385.695 460.099 372.275 439.606 386.1C418.793 400.179 401.424 519.477 401.424 519.477Z" fill="white"/>
<path d="M489.976 586.426L501.032 583.59L498.906 567.722L496.931 553.171L483.258 554.403L486.803 571.352L489.976 586.426Z" fill="#E4897B"/>
<path opacity="0.2" d="M486.887 571.706L498.973 568.026L496.964 553.323L483.274 554.471L486.887 571.706Z" fill="#1C3871"/>
<path d="M423.182 519.493L400.748 511.88L399.803 521.063L416.801 527.073L423.182 519.493Z" fill="#27AC75"/>
<path d="M545.039 444.66C545.039 444.66 541.528 444.745 487.191 442.213C487.191 442.213 495.31 510.158 499.75 561.004L483.494 563.772C483.494 563.772 444.67 454.873 445.092 437.57C445.514 420.267 465.348 415.203 465.348 415.203C465.348 415.203 504.054 437.57 545.039 444.66Z" fill="#27AC75"/>
<path opacity="0.6" d="M545.039 444.66C545.039 444.66 541.528 444.745 487.191 442.213C487.191 442.213 495.31 510.158 499.75 561.004L483.494 563.772C483.494 563.772 444.67 454.873 445.092 437.57C445.514 420.267 465.348 415.203 465.348 415.203C465.348 415.203 504.054 437.57 545.039 444.66Z" fill="white"/>
<path opacity="0.1" d="M545.039 444.66C545.039 444.66 541.528 444.745 487.191 442.213C487.191 442.213 495.31 510.158 499.75 561.004L483.494 563.772C483.494 563.772 444.67 454.873 445.092 437.57C445.514 420.267 465.348 415.203 465.348 415.203C465.348 415.203 504.054 437.57 545.039 444.66Z" fill="#1C3871"/>
<path d="M502.112 556.074L479.78 558.607L484.102 567.368L502.18 565.055L502.112 556.074Z" fill="#27AC75"/>
<path opacity="0.1" d="M513.743 386.1L544.043 392.414C544.043 392.414 527.298 383.163 514.739 379.517C514.148 383.096 513.743 386.1 513.743 386.1Z" fill="#1C3871"/>
<path d="M571.389 356.643L572.638 364.712L516.934 369L515.448 359.479L571.389 356.643Z" fill="#263238"/>
<path opacity="0.2" d="M571.389 356.643L572.638 364.712L516.934 369L515.448 359.479L571.389 356.643Z" fill="#1C3871"/>
<path d="M553.821 370.154L556.575 369.871L555.134 355.849L552.38 356.132L553.821 370.154Z" fill="#27AC75"/>
<path d="M529.084 368.745L541.28 367.961L540.685 358.712L528.49 359.496L529.084 368.745Z" fill="white"/>
<path d="M519.642 371.61L522.396 371.327L520.954 357.306L518.2 357.589L519.642 371.61Z" fill="#27AC75"/>
<path opacity="0.6" d="M553.821 370.154L556.575 369.871L555.134 355.849L552.38 356.132L553.821 370.154Z" fill="white"/>
<path opacity="0.6" d="M519.642 371.61L522.396 371.327L520.954 357.306L518.2 357.589L519.642 371.61Z" fill="white"/>
<path d="M507.717 269.048C507.717 269.048 521.93 273.505 539.806 272.593C557.682 271.682 579.052 280.358 579.052 280.358L571.372 356.643L515.448 359.462C515.448 359.462 496.661 295.754 507.717 269.048Z" fill="#27AC75"/>
<path d="M516.714 225.968C516.714 225.968 519.854 188.914 550.828 202.385C589.703 219.283 558.796 264.406 539.806 255.138C520.816 245.871 516.714 225.968 516.714 225.968Z" fill="#263238"/>
<path opacity="0.2" d="M525.39 274.669L526.285 295.602L533.222 285.76C533.222 285.76 530.741 308.921 532.193 321.514C532.193 321.514 533.526 298.91 536.666 285.76L544.042 295.602L554.626 274.805C554.626 274.805 537.493 268.643 525.373 274.669H525.39Z" fill="#1C3871"/>
<path d="M534.978 278.552L550.998 274.028C541.123 267.242 546.102 252.049 546.102 252.049L530.235 257.62C531.079 260.253 531.619 262.481 531.94 264.406C533.594 274.298 529.121 275.092 529.121 275.092L534.978 278.552Z" fill="#E4897B"/>
<path opacity="0.2" d="M530.234 257.637C531.078 260.27 531.619 262.498 531.939 264.423C539.535 261.384 546.102 252.066 546.102 252.066L530.234 257.637Z" fill="#1C3871"/>
<path d="M540.599 210.167C526.555 207.061 520.36 213.577 516.123 227.825C510.84 245.634 512.004 259.375 530.421 259.392C555.437 259.426 563.927 215.316 540.599 210.151V210.167Z" fill="#E4897B"/>
<path d="M525.373 229.057C525.373 229.057 522.622 232.298 519.988 233.986C519.988 233.986 520.765 236.164 523.347 236.4L525.373 229.074V229.057Z" fill="#DE5753"/>
<path d="M534.235 229.8C533.948 230.948 534.336 232.028 535.113 232.214C535.872 232.4 536.733 231.623 537.003 230.475C537.29 229.327 536.902 228.247 536.126 228.061C535.366 227.876 534.505 228.652 534.235 229.8Z" fill="#263238"/>
<path d="M536.43 228.196L534.168 226.61C534.168 226.61 534.894 229.023 536.43 228.196Z" fill="#263238"/>
<path d="M520.022 226.052C519.735 227.2 520.123 228.281 520.9 228.466C521.66 228.652 522.52 227.876 522.79 226.728C523.077 225.58 522.689 224.499 521.913 224.314C521.153 224.128 520.292 224.905 520.022 226.052Z" fill="#263238"/>
<path d="M522.217 224.449L519.955 222.862C519.955 222.862 520.681 225.276 522.217 224.449Z" fill="#263238"/>
<path d="M536.514 220.127C536.514 220.127 540.582 220.482 542.135 223.605" stroke="#263238" stroke-width="0.72" stroke-linecap="round" stroke-linejoin="round"/>
<path d="M526.436 217.274C526.436 217.274 524.158 215.806 520.579 217.19" stroke="#263238" stroke-width="0.72" stroke-linecap="round" stroke-linejoin="round"/>
<path d="M550.71 237.244C550.71 237.244 546.693 224.246 549.664 215.552C549.664 215.552 524.344 198.013 516.714 225.968C516.714 225.968 519.55 200.275 543.823 205.053C568.063 209.83 560.18 245.145 545.376 252.91C545.376 252.91 553.175 245.347 550.71 237.228V237.244Z" fill="#263238"/>
<path d="M547.756 239.692C548.347 237.447 551.537 234.138 555.639 235.523C559.893 236.958 559.977 246.36 548.684 246.107C547.064 246.073 546.524 244.351 547.756 239.675V239.692Z" fill="#E4897B"/>
<path d="M520.833 241.718C521.323 243.575 521.559 246.934 521.559 246.934C521.863 246.968 522.183 247.002 522.487 247.019C526.674 247.373 528.75 246.158 529.763 244.689C530.32 243.896 530.539 243.001 530.64 242.275C530.758 241.431 530.64 240.806 530.64 240.806C528.311 241.954 524.361 241.92 522.268 241.802C521.39 241.769 520.833 241.701 520.833 241.701V241.718Z" fill="#263238"/>
<path d="M522.268 241.819L522.521 243.355C526.471 243.676 529.307 243.389 530.64 242.292C530.758 241.448 530.64 240.823 530.64 240.823C528.311 241.971 524.361 241.937 522.268 241.819Z" fill="white"/>
<path d="M522.487 247.019C526.674 247.373 528.75 246.158 529.763 244.689C528.328 244.621 526.589 244.689 525.019 245.212C523.821 245.601 523.027 246.293 522.487 247.002V247.019Z" fill="#DE5753"/>
<path d="M540.65 211.282C540.65 211.282 541.19 235.658 555.808 238.578C570.426 241.498 554.441 207.264 554.441 207.264C554.441 207.264 532.665 193.05 518.166 203.061C503.649 213.088 516.697 225.968 516.697 225.968C516.697 225.968 519.769 207.872 540.633 211.282H540.65Z" fill="#263238"/>
<path d="M541.156 209.678C541.156 209.678 535.94 225.09 546.237 233.176" stroke="#263238" stroke-width="0.5" stroke-linecap="round" stroke-linejoin="round"/>
<path d="M560.079 243.592C558.222 248.555 553.445 251.34 549.411 249.821C545.376 248.301 543.621 243.068 545.478 238.105C547.334 233.142 552.111 230.357 556.146 231.876C560.18 233.396 561.936 238.629 560.079 243.592Z" fill="#27AC75"/>
<path opacity="0.4" d="M560.079 243.592C558.222 248.555 553.445 251.34 549.411 249.821C545.376 248.301 543.621 243.068 545.478 238.105C547.334 233.142 552.111 230.357 556.146 231.876C560.18 233.396 561.936 238.629 560.079 243.592Z" fill="#1C3871"/>
<path d="M555.42 235.472C555.42 235.472 561.48 208.344 547.892 201.237C547.892 201.237 550.727 201.626 552.483 202.132C554.238 202.639 565.092 213.645 559.606 238.021L555.42 235.472Z" fill="#27AC75"/>
<path opacity="0.2" d="M555.42 235.472C555.42 235.472 561.48 208.344 547.892 201.237C547.892 201.237 550.727 201.626 552.483 202.132C554.238 202.639 565.092 213.645 559.606 238.021L555.42 235.472Z" fill="#1C3871"/>
<path d="M529.948 251.002C529.611 250.952 529.273 250.901 528.936 250.851L529.206 249.179C541.444 251.171 550.542 244.706 550.626 244.638L551.622 246.006C551.234 246.276 542.389 252.64 529.948 251.002Z" fill="#27AC75"/>
<g opacity="0.2">
<path d="M529.948 251.002C529.611 250.952 529.273 250.901 528.936 250.851L529.206 249.179C541.444 251.171 550.542 244.706 550.626 244.638L551.622 246.006C551.234 246.276 542.389 252.64 529.948 251.002Z" fill="#1C3871"/>
</g>
<path d="M559.505 242.916C558.273 246.191 555.116 248.031 552.449 247.035C549.782 246.039 548.618 242.562 549.85 239.287C551.082 236.012 554.239 234.172 556.906 235.168C559.573 236.164 560.738 239.642 559.505 242.916Z" fill="#27AC75"/>
<path d="M528.446 251.543L527.095 251.357C526.083 251.222 525.374 250.31 525.509 249.297C525.644 248.285 526.555 247.576 527.568 247.711L528.918 247.896C529.931 248.031 530.64 248.943 530.505 249.956C530.37 250.969 529.459 251.678 528.446 251.543Z" fill="#27AC75"/>
<path opacity="0.4" d="M528.446 251.543L527.095 251.357C526.083 251.222 525.374 250.31 525.509 249.297C525.644 248.285 526.555 247.576 527.568 247.711L528.918 247.896C529.931 248.031 530.64 248.943 530.505 249.956C530.37 250.969 529.459 251.678 528.446 251.543Z" fill="#1C3871"/>
<path d="M546.693 268.238L536.666 278.079L540.683 290.149L554.626 274.788L546.693 268.238Z" fill="#27AC75"/>
<path d="M532.193 270.297L533.814 277.877L528.632 288.596L525.391 274.669L532.193 270.297Z" fill="#27AC75"/>
<path d="M544.549 276.78L550.372 255.459C550.372 255.459 547.553 250.141 548.161 249.044C548.769 247.93 551.807 233.615 553.968 232.062C556.128 230.509 565.007 233.159 565.919 234.611C566.83 236.063 557.411 255.459 557.411 255.459L553.985 278.552L544.566 276.78H544.549Z" fill="#E4897B"/>
<path d="M579.052 280.358C595.071 296.767 562.948 333.938 544.549 332.352C526.15 330.765 545.005 263.376 545.005 263.376L556.787 265.317C556.787 265.317 552.652 294.488 553.951 296.767C555.251 299.062 573.65 274.838 579.035 280.358H579.052Z" fill="#27AC75"/>
<path opacity="0.2" d="M579.052 280.358C595.071 296.767 562.948 333.938 544.549 332.352C526.15 330.765 545.005 263.376 545.005 263.376L556.787 265.317C556.787 265.317 552.652 294.488 553.951 296.767C555.251 299.062 573.65 274.838 579.035 280.358H579.052Z" fill="#1C3871"/>
<path d="M544.042 261.215L542.304 266.786L558.728 268.238V263.376L544.042 261.215Z" fill="#27AC75"/>
<path opacity="0.6" d="M519.144 305.291H512.494C511.757 305.291 511.16 305.889 511.16 306.625V319.184C511.16 319.921 511.757 320.518 512.494 320.518H519.144C519.881 320.518 520.478 319.921 520.478 319.184V306.625C520.478 305.889 519.881 305.291 519.144 305.291Z" fill="white"/>
<path opacity="0.2" d="M519.279 306.287H511.717V316.635H519.279V306.287Z" fill="#1C3871"/>
<path d="M516.511 301.611H514.84V307.705H516.511V301.611Z" fill="#263238"/>
<path d="M377.623 564.194C379.311 563.418 381.134 562.962 382.974 562.827C382.974 562.827 389.388 559.045 395.735 544.393L402.875 544.359C405.357 544.393 407.534 545.963 408.361 548.292C408.479 548.613 408.547 548.951 408.564 549.288C408.496 551.01 408.311 552.732 408.007 554.437C407.365 559.788 403.837 571.25 403.837 571.25L402.622 570.947L404.816 560.278C405.542 556.648 401.744 560.16 399.972 563.806C398.199 567.452 395.499 571.132 387.599 569.326C378.399 567.182 374.702 565.849 377.572 564.194H377.623Z" fill="#27AC75"/>
<path d="M397.035 540.544C397.035 540.544 388.105 559.214 382.974 562.827C382.974 562.827 389.861 566.929 397.035 557.796C406.302 545.98 408.581 549.271 408.581 549.271C408.581 549.271 408.192 545.22 407.467 543.245C406.065 539.43 397.035 540.544 397.035 540.544Z" fill="#E4897B"/>
<path d="M475.898 608.675C477.349 607.528 479.004 606.65 480.776 606.076C480.776 606.076 486.11 600.893 488.811 585.143L495.749 583.405C498.162 582.848 500.661 583.844 502.011 585.92C502.197 586.207 502.349 586.511 502.45 586.831C502.788 588.52 503.024 590.241 503.142 591.963C503.784 597.315 503.075 609.283 503.075 609.283H501.825L501.437 598.395C501.285 594.698 498.416 599.003 497.572 602.97C496.728 606.937 494.955 611.157 486.87 611.275C477.434 611.359 473.518 610.954 475.915 608.675H475.898Z" fill="#27AC75"/>
<path d="M489.149 581.109C489.149 581.109 484.912 601.366 480.776 606.076C480.776 606.076 488.44 608.439 493.234 597.855C499.446 584.164 502.433 586.848 502.433 586.848C502.433 586.848 501.1 583.016 499.918 581.261C497.656 577.885 489.149 581.109 489.149 581.109Z" fill="#E4897B"/>
<path d="M681.441 142.441H587.17C582.444 142.441 578.612 146.273 578.612 151V206.268C578.612 210.995 582.444 214.827 587.17 214.827H681.441C686.168 214.827 690 210.995 690 206.268V151C690 146.273 686.168 142.441 681.441 142.441Z" fill="#27AC75"/>
<path d="M639.051 174.517L644.463 187.085L656.846 158.298C657.129 157.615 657.607 157.031 658.222 156.618C658.815 156.223 659.512 156.012 660.225 156.012C660.708 156.021 661.186 156.113 661.637 156.285C662.107 156.46 662.535 156.728 662.897 157.073C663.246 157.403 663.521 157.802 663.707 158.243C663.895 158.689 663.994 159.167 663.999 159.65C664.01 160.158 663.91 160.663 663.707 161.129L647.945 197.671C647.659 198.355 647.175 198.939 646.555 199.349C645.935 199.76 645.207 199.977 644.463 199.975C643.702 199.98 642.955 199.77 642.308 199.369C641.662 198.959 641.161 198.356 640.877 197.647L635.003 183.993L629.11 197.696C628.821 198.378 628.337 198.961 627.717 199.371C627.098 199.78 626.371 199.999 625.627 200C624.863 200.01 624.112 199.8 623.466 199.393C622.827 198.983 622.328 198.389 622.036 197.69L606.311 161.148C606.108 160.687 606.003 160.189 606 159.686C605.998 159.206 606.097 158.731 606.292 158.292C606.492 157.841 606.773 157.43 607.12 157.079C607.479 156.726 607.908 156.451 608.38 156.273C608.819 156.1 609.285 156.007 609.756 156C610.463 156.004 611.153 156.215 611.741 156.606C612.366 157.014 612.853 157.599 613.141 158.286L625.518 187.073L637.937 158.286C638.239 157.604 638.737 157.026 639.368 156.624C639.978 156.228 640.691 156.018 641.419 156.018C641.902 156.027 642.38 156.119 642.832 156.291C643.289 156.465 643.704 156.733 644.049 157.079C644.388 157.413 644.657 157.811 644.841 158.249C645.03 158.694 645.126 159.173 645.121 159.656C645.119 160.165 645.014 160.668 644.81 161.135L639.051 174.517Z" fill="white"/>
<path d="M598.986 210.016L581.229 234.155L609.874 211.636L598.986 210.016Z" fill="#27AC75"/>
<path d="M424.824 152.57L382.782 129.922C381.65 129.312 380.237 129.736 379.627 130.868L366.21 155.777C365.6 156.91 366.023 158.322 367.156 158.933L409.198 181.581C410.331 182.191 411.743 181.767 412.354 180.634L425.77 155.726C426.38 154.593 425.957 153.18 424.824 152.57Z" fill="#27AC75"/>
<path opacity="0.7" d="M424.824 152.57L382.782 129.922C381.65 129.312 380.237 129.736 379.627 130.868L366.21 155.777C365.6 156.91 366.023 158.322 367.156 158.933L409.198 181.581C410.331 182.191 411.743 181.767 412.354 180.634L425.77 155.726C426.38 154.593 425.957 153.18 424.824 152.57Z" fill="white"/>
<path opacity="0.2" d="M378.534 132.92L391.684 157.482C392.714 159.39 394.79 160.504 396.934 160.284L424.296 157.583L396.427 161.685C393.929 162.057 391.481 160.74 390.418 158.444L378.518 132.92H378.534Z" fill="#1C3871"/>
<path d="M346.614 128.346C347.053 118.96 354.007 100.036 362.464 94.2462C370.921 88.456 365.351 96.4745 365.351 96.4745C365.351 96.4745 373.369 88.6755 377.589 88.9118C381.809 89.1481 377.589 94.0267 377.589 94.0267C377.589 94.0267 386.265 88.6755 390.283 88.8949C394.283 89.1144 390.283 93.7904 390.283 93.7904C390.283 93.7904 397.406 88.6755 400.292 91.1232C403.179 93.571 363.342 119.838 358.886 130.523C354.429 141.209 346.141 137.85 346.597 128.346H346.614Z" fill="#27AC75"/>
<path opacity="0.4" d="M346.614 128.346C347.053 118.96 354.007 100.036 362.464 94.2462C370.921 88.456 365.351 96.4745 365.351 96.4745C365.351 96.4745 373.369 88.6755 377.589 88.9118C381.809 89.1481 377.589 94.0267 377.589 94.0267C377.589 94.0267 386.265 88.6755 390.283 88.8949C394.283 89.1144 390.283 93.7904 390.283 93.7904C390.283 93.7904 397.406 88.6755 400.292 91.1232C403.179 93.571 363.342 119.838 358.886 130.523C354.429 141.209 346.141 137.85 346.597 128.346H346.614Z" fill="white"/>
<path d="M380.847 126.961L386.164 130.371C386.552 130.625 386.349 131.215 385.894 131.182L380.306 130.743L380.779 135.03C380.83 135.503 380.256 135.756 379.935 135.402L376.711 131.756L380.83 126.961H380.847Z" fill="#27AC75"/>
<path opacity="0.3" d="M380.847 126.961L386.164 130.371C386.552 130.625 386.349 131.215 385.894 131.182L380.306 130.743L380.779 135.03C380.83 135.503 380.256 135.756 379.935 135.402L376.711 131.756L380.83 126.961H380.847Z" fill="white"/>
<path d="M306.152 105.827C306.152 105.827 313.495 100.712 324.636 104.037C324.636 104.037 327.843 118.724 336.587 123.619C341.398 126.303 353.163 126.084 362.481 123.062C373.537 119.483 378.956 119.483 380.948 123.619C382.838 127.535 380.728 132.076 372.271 134.085C363.814 136.094 357.13 150.78 341.769 151C326.408 151.219 318.323 135.824 322.188 122.285C322.188 122.285 317.513 112.191 306.169 105.81L306.152 105.827Z" fill="#27AC75"/>
<path opacity="0.5" d="M306.152 105.827C306.152 105.827 313.495 100.712 324.636 104.037C324.636 104.037 327.843 118.724 336.587 123.619C341.398 126.303 353.163 126.084 362.481 123.062C373.537 119.483 378.956 119.483 380.948 123.619C382.838 127.535 380.728 132.076 372.271 134.085C363.814 136.094 357.13 150.78 341.769 151C326.408 151.219 318.323 135.824 322.188 122.285C322.188 122.285 317.513 112.191 306.169 105.81L306.152 105.827Z" fill="white"/>
<path d="M376.728 126.404C376.728 126.826 376.391 127.164 375.969 127.164C375.547 127.164 375.209 126.826 375.209 126.404C375.209 125.982 375.547 125.645 375.969 125.645C376.391 125.645 376.728 125.982 376.728 126.404Z" fill="#263238"/>
<path d="M338.208 138.778C329.143 141.26 308.989 140.483 300.869 134.22C292.75 127.957 302.102 130.777 302.102 130.777C302.102 130.777 292.21 125.56 291.13 121.475C290.032 117.39 295.991 119.888 295.991 119.888C295.991 119.888 288.226 113.288 287.197 109.405C286.184 105.523 291.855 107.886 291.855 107.886C291.855 107.886 284.783 102.687 286.218 99.1754C287.652 95.6642 324.94 125.459 336.469 126.404C347.998 127.333 347.374 136.263 338.191 138.778H338.208Z" fill="#27AC75"/>
<path opacity="0.4" d="M338.208 138.778C329.143 141.26 308.989 140.483 300.869 134.22C292.75 127.957 302.102 130.777 302.102 130.777C302.102 130.777 292.21 125.56 291.13 121.475C290.032 117.39 295.991 119.888 295.991 119.888C295.991 119.888 288.226 113.288 287.197 109.405C286.184 105.523 291.855 107.886 291.855 107.886C291.855 107.886 284.783 102.687 286.218 99.1754C287.652 95.6642 324.94 125.459 336.469 126.404C347.998 127.333 347.374 136.263 338.191 138.778H338.208Z" fill="white"/>
<path d="M278.79 97.0822C277.204 96.5251 275.6 95.9849 273.979 95.4954" stroke="#27AC75" stroke-width="0.75" stroke-linecap="round" stroke-linejoin="round"/>
<path d="M264.121 92.9801C258.213 91.7478 252.187 90.9375 246.212 90.5155C229.804 89.3676 204.062 87.747 194.019 104.105C184.853 119.01 200.619 144.433 206.206 158.276C213.059 175.224 221.213 196.173 213.11 214.118C196.466 250.986 125.25 231.843 101.229 197.878" stroke="#27AC75" stroke-width="0.75" stroke-linecap="round" stroke-linejoin="round"/>
<path d="M98.5116 193.607C97.6676 192.122 96.908 190.602 96.2666 189.066" stroke="#27AC75" stroke-width="0.75" stroke-linecap="round" stroke-linejoin="round"/>
<path d="M303.52 327.642H239.443V340.775H303.52V327.642Z" fill="white"/>
<path opacity="0.1" d="M303.52 327.642H239.443V340.775H303.52V327.642Z" fill="#1C3871"/>
<path opacity="0.1" d="M266.434 327.642H239.443V340.775H266.434V327.642Z" fill="#1C3871"/>
<path opacity="0.1" d="M239.443 329.532H296.481L239.443 331.153V329.532Z" fill="#1C3871"/>
<path opacity="0.1" d="M303.52 331.811L254.078 333.044H303.52V331.811Z" fill="#1C3871"/>
<path opacity="0.1" d="M242.06 335.491L266.434 334.479L302.271 335.491L266.434 336.049L242.06 335.491Z" fill="#1C3871"/>
<path opacity="0.1" d="M239.443 338.277H281.677L239.443 339.273V338.277Z" fill="#1C3871"/>
<path opacity="0.1" d="M303.418 339.273L275.229 339.796H303.519L303.418 339.273Z" fill="#1C3871"/>
<path d="M294.607 314.492H230.53V327.625H294.607V314.492Z" fill="white"/>
<path opacity="0.1" d="M294.607 314.492H230.53V327.625H294.607V314.492Z" fill="#1C3871"/>
<path opacity="0.1" d="M257.521 314.492H230.53V327.625H257.521V314.492Z" fill="#1C3871"/>
<path opacity="0.1" d="M230.53 316.399H287.568L230.53 318.003V316.399Z" fill="#1C3871"/>
<path opacity="0.1" d="M294.607 318.678L245.165 319.893H294.607V318.678Z" fill="#1C3871"/>
<path opacity="0.1" d="M233.13 322.341L257.505 321.345L293.341 322.341L257.505 322.898L233.13 322.341Z" fill="#1C3871"/>
<path opacity="0.1" d="M230.53 325.127H272.764L230.53 326.123V325.127Z" fill="#1C3871"/>
<path opacity="0.1" d="M294.505 326.123L266.299 326.646H294.607L294.505 326.123Z" fill="#1C3871"/>
<path d="M301.915 301.358H237.839V314.492H301.915V301.358Z" fill="white"/>
<path opacity="0.1" d="M301.915 301.358H237.839V314.492H301.915V301.358Z" fill="#1C3871"/>
<path opacity="0.1" d="M264.83 301.358H237.839V314.492H264.83V301.358Z" fill="#1C3871"/>
<path opacity="0.1" d="M237.839 303.249H294.876L237.839 304.869V303.249Z" fill="#1C3871"/>
<path opacity="0.1" d="M301.915 305.528L252.474 306.76H301.915V305.528Z" fill="#1C3871"/>
<path opacity="0.1" d="M240.455 309.208L264.83 308.195L300.666 309.208L264.83 309.765L240.455 309.208Z" fill="#1C3871"/>
<path opacity="0.1" d="M237.839 311.993H280.073L237.839 312.989V311.993Z" fill="#1C3871"/>
<path opacity="0.1" d="M301.83 312.989L273.624 313.512H301.915L301.83 312.989Z" fill="#1C3871"/>
<path d="M344.605 340.505L346.26 334.208H414.708L446.24 337.365L447.438 340.505H344.605Z" fill="#263238"/>
<path opacity="0.4" d="M414.708 334.208V340.505H344.605L346.26 334.208H414.708Z" fill="#1C3871"/>
<path d="M400.968 304.076C401.272 307.402 398.841 310.103 395.533 310.103H290.674C287.349 310.103 284.412 307.402 284.108 304.076L277.879 236.941C277.811 236.249 277.862 235.59 278.014 234.982C278.605 232.619 280.681 230.914 283.314 230.914H388.173C391.498 230.914 394.435 233.615 394.739 236.941L400.968 304.076Z" fill="#263238"/>
<path opacity="0.4" d="M395.161 310.103H290.674C287.349 310.103 284.412 307.402 284.108 304.076L277.879 236.941C277.811 236.249 277.862 235.59 278.014 234.982H382.501C385.81 234.982 388.747 237.683 389.068 241.009L395.296 308.144C395.364 308.836 395.296 309.495 395.161 310.103Z" fill="#1C3871"/>
<path d="M323.117 268.913H344.808L339.035 331.035L373.335 336.184V340.505H301.089V336.184L315.893 331.035L323.117 268.913Z" fill="#263238"/>
<path opacity="0.1" d="M344.808 268.913L328.738 339.526L315.893 339.138L323.117 268.913H344.808Z" fill="white"/>
<path d="M344.706 611.292H334.376L315.791 352.592H329.514L344.706 611.292Z" fill="#263238"/>
<path opacity="0.4" d="M344.723 611.292H334.376L316.703 365.438L315.791 353.014H329.514L330.257 365.438L344.723 611.292Z" fill="white"/>
<path opacity="0.2" d="M330.257 364.83H316.703L315.791 353.014H329.514L330.257 364.83Z" fill="#1C3871"/>
<path d="M420.599 611.292H410.268L408.58 352.592H422.287L420.599 611.292Z" fill="#263238"/>
<path opacity="0.5" d="M422.304 353.014L422.033 394.743L420.616 611.292H410.268L408.85 394.743L408.58 353.014H422.304Z" fill="white"/>
<path opacity="0.2" d="M422.304 353.014L422.033 395.216H408.85L408.58 353.014H422.304Z" fill="#1C3871"/>
<path d="M530.386 611.292H520.056L501.471 352.592H515.194L530.386 611.292Z" fill="#263238"/>
<path opacity="0.5" d="M530.403 611.292H520.056L502.382 365.438L501.471 353.014H515.194L515.937 365.438L530.403 611.292Z" fill="white"/>
<path opacity="0.2" d="M515.937 364.83H502.382L501.471 353.014H515.194L515.937 364.83Z" fill="#1C3871"/>
<path d="M226.412 611.292H216.081L231.273 352.592H244.997L226.412 611.292Z" fill="#263238"/>
<path opacity="0.5" d="M244.997 353.014L244.085 365.438L226.412 611.292H216.081L230.53 365.438L231.273 353.014H244.997Z" fill="white"/>
<path opacity="0.2" d="M231.273 353.014H244.996L244.085 364.83H230.53L231.273 353.014Z" fill="#1C3871"/>
<path d="M220.402 346.11H526.065V355.411C526.065 357.42 524.428 359.057 522.419 359.057H224.048C222.04 359.057 220.402 357.42 220.402 355.411V346.11Z" fill="#27AC75"/>
<path opacity="0.6" d="M220.402 346.11H526.065V355.411C526.065 357.42 524.428 359.057 522.419 359.057H224.048C222.04 359.057 220.402 357.42 220.402 355.411V346.11Z" fill="white"/>
<path opacity="0.2" d="M526.065 346.11H220.402V352.592H526.065V346.11Z" fill="#1C3871"/>
<path d="M532.48 347.814H213.988C211.979 347.814 210.342 346.177 210.342 344.168C210.342 342.159 211.979 340.522 213.988 340.522H532.48C534.488 340.522 536.126 342.159 536.126 344.168C536.126 346.177 534.488 347.814 532.48 347.814Z" fill="#27AC75"/>
<path opacity="0.6" d="M532.48 347.814H213.988C211.979 347.814 210.342 346.177 210.342 344.168C210.342 342.159 211.979 340.522 213.988 340.522H532.48C534.488 340.522 536.126 342.159 536.126 344.168C536.126 346.177 534.488 347.814 532.48 347.814Z" fill="white"/>
<path d="M457.128 329.262L461.044 323.388C461.821 322.223 463.137 321.514 464.555 321.514H469.518C469.94 321.514 470.345 321.582 470.734 321.7L488.441 327.068C489.453 327.372 490.297 328.047 490.838 328.942L493.37 333.213L457.111 329.262H457.128Z" fill="#27AC75"/>
<path opacity="0.2" d="M493.386 333.213L467.61 330.41L457.128 329.262L461.044 323.388C461.821 322.223 463.137 321.514 464.555 321.514H469.518C469.94 321.514 470.345 321.582 470.75 321.7L471.138 321.818L488.44 327.068C489.453 327.372 490.314 328.03 490.854 328.942L493.386 333.213Z" fill="#1C3871"/>
<path opacity="0.2" d="M493.386 333.213L467.61 330.41L471.138 321.818L488.44 327.068C489.453 327.372 490.314 328.03 490.854 328.942L493.386 333.213Z" fill="#1C3871"/>
<path d="M505.641 339.948V340.505H450.916L452.942 332.588C453.735 329.617 456.436 327.541 459.508 327.541H483.781C484.592 327.541 485.385 327.676 486.145 327.963L489.183 329.094L501.235 333.584C503.885 334.58 505.641 337.112 505.641 339.948Z" fill="#27AC75"/>
<path opacity="0.2" d="M505.641 339.948V340.505H483.174L484.372 331.946C484.693 329.684 487.039 328.3 489.183 329.094L501.235 333.584C503.886 334.58 505.641 337.112 505.641 339.948Z" fill="#1C3871"/>
<path d="M486.668 334.681L493.808 313.226C494.112 312.297 495.175 311.875 496.053 312.314C496.712 312.652 497.049 313.411 496.864 314.137L490.837 337.044C490.837 337.044 486.837 338.665 486.668 334.681Z" fill="#263238"/>
<path opacity="0.2" d="M457.128 338.733H453.954L454.562 335.61H457.735L457.128 338.733Z" fill="#1C3871"/>
<path opacity="0.2" d="M461.854 338.598H458.681L459.288 335.491H462.462L461.854 338.598Z" fill="#1C3871"/>
</g>
<defs>
<clipPath id="clip0_165_5966">
<rect width="844" height="629" fill="white"/>
</clipPath>
</defs>
</svg>
