<svg width="792" height="666" viewBox="0 0 792 666" fill="none" xmlns="http://www.w3.org/2000/svg">
<g clip-path="url(#clip0_407_21)">
<path d="M132.419 609.622C279.645 684.804 518.332 684.804 665.558 609.622C812.783 534.44 812.783 412.555 665.558 337.374C518.332 262.192 279.645 262.192 132.419 337.374C-14.8065 412.555 -14.8065 534.44 132.419 609.622Z" fill="#F5F5F5"/>
<path d="M613.906 489.51C621.967 494.165 637.824 492.558 649.319 485.931L715.567 447.512C727.062 440.885 729.815 431.74 721.738 427.068C713.66 422.413 697.786 424.003 686.291 430.63L620.109 469.066C608.615 475.693 605.844 484.855 613.922 489.493L613.906 489.51Z" fill="#EBEBEB"/>
<path d="M215.122 524.947L147.729 486.097L215.105 447.231L215.122 524.947Z" fill="#EBEBEB"/>
<path d="M405.54 548.191L296.945 485.534L405.573 422.993L405.54 548.191Z" fill="#EBEBEB"/>
<path d="M123.976 434.093C124.159 418.354 113.162 385.617 97.0558 364.975C80.9499 344.332 55.4226 329.09 37.0774 335.104C19.9928 340.704 21.5686 363.02 42.0369 378.046C62.5052 393.056 93.2906 411.992 102.065 437.638L120.725 469.199L123.976 434.093Z" fill="#27AC75"/>
<path opacity="0.1" d="M123.976 434.093C124.159 418.354 113.162 385.617 97.0558 364.975C80.9499 344.332 55.4226 329.09 37.0774 335.104C19.9928 340.704 21.5686 363.02 42.0369 378.046C62.5052 393.056 93.2906 411.992 102.065 437.638L120.725 469.199L123.976 434.093Z" fill="black"/>
<path d="M124.872 455.647C124.375 455.597 123.943 455.233 123.844 454.702C113.941 400.843 70.948 356.641 45.006 346.684C44.4088 346.453 44.1103 345.79 44.3425 345.193C44.5747 344.597 45.2216 344.299 45.8353 344.531C72.2584 354.686 116.048 399.6 126.1 454.288C126.216 454.918 125.801 455.514 125.171 455.63C125.071 455.647 124.955 455.647 124.856 455.63L124.872 455.647Z" fill="white"/>
<path d="M116.43 489.957C114.008 481.077 103.359 466.349 86.0091 454.073C66.818 440.504 42.3854 434.076 36.8619 423.622C30.2271 411.064 40.8925 399.401 60.7471 402.102C80.6017 404.802 115.235 432.32 120.344 473.191L116.43 489.957Z" fill="#27AC75"/>
<path d="M120.394 480.713C119.962 480.68 119.564 480.382 119.415 479.934C103.475 433.712 68.5097 417.128 52.2379 414.825C51.6076 414.742 51.1763 414.146 51.2592 413.533C51.3422 412.903 51.9061 412.473 52.553 412.556C70.5333 415.107 105.3 432.005 121.588 479.205C121.787 479.802 121.472 480.464 120.875 480.663C120.709 480.713 120.56 480.729 120.394 480.729V480.713Z" fill="white"/>
<path d="M712.084 389.295C712.084 389.295 714.29 356.111 733.879 331.476C753.452 306.84 752.258 296.701 738.756 291.731C725.254 286.761 693.888 316.449 700.871 356.211C707.854 395.972 712.084 389.312 712.084 389.312V389.295Z" fill="#27AC75"/>
<path opacity="0.1" d="M712.084 389.295C712.084 389.295 714.29 356.111 733.879 331.476C753.452 306.84 752.258 296.701 738.756 291.731C725.254 286.761 693.888 316.449 700.871 356.211C707.854 395.972 712.084 389.312 712.084 389.312V389.295Z" fill="black"/>
<path d="M706.096 370.342C705.698 370.342 705.35 370.028 705.333 369.613C703.044 333.066 728.887 303.08 738.557 296.304C738.905 296.055 739.386 296.138 739.635 296.486C739.884 296.834 739.801 297.314 739.453 297.563C729.965 304.223 704.637 333.63 706.876 369.531C706.909 369.961 706.577 370.326 706.146 370.342C706.146 370.342 706.113 370.342 706.096 370.342Z" fill="white"/>
<path d="M706.76 416.697C706.76 416.697 718.553 420.789 733.73 423.175C748.891 425.577 755.592 418.337 755.592 418.337C755.592 418.337 749.62 404.139 741.012 400.147C741.012 400.147 755.608 403.112 767.335 410.932C767.335 410.932 776.591 411.064 780.273 396.966C780.273 396.966 774.783 388.467 756.388 383.878C756.388 383.878 767.584 381.061 783.723 385.17C784.934 385.65 790.093 367.393 791.652 358.977C793.211 350.561 789.827 350.644 783.259 348.888C776.69 347.132 754.928 342.261 750.815 345.856C746.701 349.468 744.611 361.81 744.611 361.81C744.611 361.81 741.907 354.521 743.997 346.171C743.997 346.171 738.076 343.868 728.903 346.535C721.389 348.722 721.024 353.825 721.373 359.59C721.622 363.798 722.633 368.288 724.624 374.236C724.624 374.236 718.769 366.747 718.586 350.512C718.586 350.512 703.227 358.132 700.606 373.358C699.196 381.592 697.172 405.763 706.793 416.714L706.76 416.697Z" fill="#27AC75"/>
<path d="M709.662 413.748C709.978 413.748 710.276 413.566 710.426 413.268C722.667 387.87 768.148 358.381 784.453 355.217C784.918 355.134 785.216 354.686 785.133 354.223C785.05 353.759 784.586 353.46 784.138 353.543C767.568 356.757 721.34 386.744 708.916 412.539C708.717 412.97 708.883 413.467 709.314 413.682C709.43 413.748 709.563 413.765 709.679 413.765L709.662 413.748Z" fill="white"/>
<path d="M118.038 501.687C116.164 501.687 115.036 500.13 115.036 497.529V218.869L456.711 21.8355V299.385C456.711 303.643 453.709 308.845 450.01 310.966L120.759 500.842C119.797 501.405 118.851 501.687 118.038 501.687Z" fill="#FAFAFA"/>
<path d="M455.732 23.5088V299.385C455.732 303.262 452.896 308.182 449.529 310.137L120.261 499.997C119.448 500.461 118.669 500.709 118.022 500.709C116.181 500.709 115.982 498.489 115.982 497.528V219.415L455.732 23.5088ZM457.673 20.1457L114.058 218.305V497.545C114.058 500.792 115.683 502.664 118.038 502.664C119.001 502.664 120.095 502.35 121.24 501.687L450.491 311.811C454.455 309.524 457.673 303.958 457.673 299.385V20.1457Z" fill="#E0E0E0"/>
<path d="M114.058 218.305V264.926L457.673 66.7822V20.1457L114.058 218.305Z" fill="#27AC75"/>
<path d="M141.011 220.791V227.484C141.011 228.842 141.99 229.406 143.168 228.726L248.81 167.809V156.146L143.168 217.063C141.99 217.742 141.011 219.432 141.011 220.791Z" fill="#FAFAFA"/>
<path d="M260.122 149.618C261.317 148.939 262.279 149.486 262.279 150.861V157.554C262.279 158.929 261.317 160.602 260.122 161.281L248.793 167.809V156.146L260.122 149.618Z" fill="#1C3871"/>
<path d="M114.058 203.279C114.058 198.707 117.275 193.14 121.24 190.854L450.491 0.977458C454.455 -1.30881 457.673 0.546712 457.673 5.11925V20.1457L114.058 218.306V203.279Z" fill="#1C3871"/>
<path d="M419.49 26.6566C417.632 27.7334 416.123 30.3345 416.123 32.4882C416.123 34.6419 417.632 35.5034 419.49 34.4266C421.348 33.3497 422.857 30.7487 422.857 28.5949C422.857 26.4412 421.348 25.5797 419.49 26.6566Z" fill="#27AC75"/>
<path d="M430.156 20.4936C428.298 21.5705 426.789 24.1715 426.789 26.3252C426.789 28.479 428.298 29.3405 430.156 28.2636C432.013 27.1867 433.523 24.5857 433.523 22.432C433.523 20.2782 432.013 19.4167 430.156 20.4936Z" fill="#27AC75"/>
<path d="M440.837 14.3306C438.98 15.4075 437.47 18.0085 437.47 20.1623C437.47 22.316 438.98 23.1775 440.837 22.1006C442.695 21.0237 444.205 18.4227 444.205 16.269C444.205 14.1152 442.695 13.2537 440.837 14.3306Z" fill="#27AC75"/>
<g opacity="0.1">
<path d="M349.874 97.1333C345.811 99.4858 342.51 105.185 342.51 109.873C342.51 114.562 345.811 116.467 349.874 114.115C353.938 111.762 357.239 106.063 357.239 101.374C357.239 96.686 353.938 94.7807 349.874 97.1333Z" fill="black"/>
<path d="M316.186 116.567C312.123 118.919 308.822 124.618 308.822 129.307C308.822 133.995 312.123 135.9 316.186 133.548C320.25 131.195 323.551 125.496 323.551 120.808C323.551 116.119 320.25 114.214 316.186 116.567Z" fill="black"/>
<path d="M383.563 77.7166C379.499 80.0691 376.198 85.7682 376.198 90.4567C376.198 95.1452 379.499 97.0505 383.563 94.6979C387.627 92.3454 390.927 86.6463 390.927 81.9578C390.927 77.2693 387.627 75.364 383.563 77.7166Z" fill="black"/>
<path d="M417.251 58.2501C413.187 60.6027 409.886 66.3018 409.886 70.9903C409.886 75.6788 413.187 77.584 417.251 75.2315C421.315 72.8789 424.615 67.1798 424.615 62.4913C424.615 57.8028 421.315 55.8976 417.251 58.2501Z" fill="black"/>
</g>
<path d="M148.193 268.554L228.159 222.447C232.123 220.161 235.341 222.017 235.341 226.589V303.279C235.341 307.851 232.123 313.418 228.159 315.704L148.193 361.81C144.229 364.097 141.011 362.241 141.011 357.669V280.979C141.011 276.407 144.229 270.84 148.193 268.554Z" fill="#E0E0E0"/>
<path d="M262.727 202.517L430.271 105.897C434.236 103.611 437.454 105.467 437.454 110.039V186.729C437.454 191.301 434.236 196.868 430.271 199.154L262.727 295.774C258.762 298.06 255.544 296.204 255.544 291.632V214.942C255.544 210.37 258.762 204.803 262.727 202.517Z" fill="#E0E0E0"/>
<path d="M148.193 385.12L275.316 311.811C279.28 309.524 282.498 311.148 282.498 315.439C282.498 319.73 279.28 325.064 275.316 327.351L148.193 400.66C144.229 402.947 141.011 401.323 141.011 397.032C141.011 392.741 144.229 387.407 148.193 385.12Z" fill="#E0E0E0"/>
<path d="M148.193 412.324L275.316 339.014C279.28 336.728 282.498 338.351 282.498 342.642C282.498 346.933 279.28 352.268 275.316 354.554L148.193 427.864C144.229 430.15 141.011 428.526 141.011 424.235C141.011 419.944 144.229 414.61 148.193 412.324Z" fill="#E0E0E0"/>
<path d="M148.193 439.51L275.316 366.201C279.28 363.914 282.498 365.538 282.498 369.829C282.498 374.12 279.28 379.454 275.316 381.741L148.193 455.05C144.229 457.337 141.011 455.713 141.011 451.422C141.011 447.131 144.229 441.797 148.193 439.51Z" fill="#E0E0E0"/>
<path d="M208.388 347.297C208.388 344.547 210.312 341.217 212.7 339.842L433.158 212.706C435.53 211.331 439.394 211.331 441.783 212.706L446.643 215.506C449.015 216.881 450.955 220.211 450.955 222.961V391.747C450.955 394.481 449.015 397.827 446.643 399.202L226.185 526.339C223.814 527.697 219.932 527.697 217.56 526.339L212.7 523.539C210.328 522.18 208.388 518.817 208.388 516.084V347.297Z" fill="#27AC75"/>
<path opacity="0.4" d="M209.632 343.056L221.856 350.097L449.662 218.72C448.882 217.378 447.804 216.201 446.626 215.506L441.75 212.722C439.378 211.331 435.513 211.331 433.141 212.722L212.7 339.842C211.49 340.538 210.411 341.714 209.648 343.056H209.632Z" fill="white"/>
<path opacity="0.1" d="M208.371 347.297V516.084C208.371 518.834 210.312 522.164 212.7 523.539L217.56 526.355C217.925 526.554 218.307 526.736 218.738 526.886C219.285 527.068 219.882 527.217 220.513 527.3C221.641 527.449 222.818 527.399 223.913 527.184C224.195 527.117 224.477 527.035 224.742 526.952C224.925 526.886 225.091 526.836 225.257 526.753C224.46 527.035 223.764 527.001 223.2 526.72C222.387 526.289 221.873 525.312 221.873 523.887V355.101C221.873 353.328 222.769 351.986 224.112 351.439L221.873 350.13L209.648 343.089C208.869 344.431 208.388 345.956 208.388 347.331L208.371 347.297Z" fill="black"/>
<path opacity="0.2" d="M221.873 350.097L323.966 388.202C331.247 390.902 339.425 388.218 343.655 381.724L360.042 356.641L450.475 218.256L363.31 357.586L450.922 391.83C450.906 393.222 450.392 394.762 449.579 396.121L363.078 357.967L344.019 388.417C339.64 395.408 330.783 398.126 323.253 394.796L309.684 388.815L223.2 526.687C222.387 526.256 221.873 525.279 221.873 523.854V521.037L309.27 388.633L221.873 350.097Z" fill="black"/>
<path d="M403.782 156.328V543.834C403.782 548.406 407 550.262 410.964 547.976L585.26 447.463C589.224 445.176 592.442 439.61 592.442 435.037V47.5477C592.442 42.9752 589.224 41.1197 585.26 43.406L410.964 143.919C407 146.205 403.782 151.772 403.782 156.344V156.328Z" fill="#FAFAFA" stroke="#E0E0E0" stroke-width="1.17" stroke-miterlimit="10"/>
<path d="M413.884 163.551C413.884 162.474 414.713 161.132 415.758 160.536L435.613 149.088C436.641 148.491 437.487 148.889 437.487 149.949C437.487 151.01 436.658 152.368 435.613 152.965L415.758 164.413C414.73 165.009 413.884 164.611 413.884 163.551Z" fill="#1C3871"/>
<path d="M413.884 171.271C413.884 170.194 414.713 168.853 415.758 168.256L435.613 156.808C436.641 156.212 437.487 156.609 437.487 157.67C437.487 158.73 436.658 160.088 435.613 160.685L415.758 172.133C414.73 172.729 413.884 172.332 413.884 171.271Z" fill="#1C3871"/>
<path d="M413.884 178.992C413.884 177.915 414.713 176.573 415.758 175.976L435.613 164.528C436.641 163.932 437.487 164.33 437.487 165.39C437.487 166.45 436.658 167.809 435.613 168.405L415.758 179.853C414.73 180.45 413.884 180.052 413.884 178.992Z" fill="#1C3871"/>
<path d="M578.957 79.6218V76.5237C578.957 76.3415 578.824 76.2586 578.659 76.3249L576.27 77.4018C576.104 77.4846 575.922 77.4018 575.872 77.2195C575.739 76.7888 575.557 76.3912 575.341 76.0433C575.242 75.8776 575.225 75.6291 575.308 75.4634L576.9 72.2494C576.983 72.0837 576.917 71.8684 576.751 71.7855L575.026 70.7915C574.86 70.6921 574.661 70.7418 574.545 70.9075L572.555 73.8895C572.455 74.0386 572.223 74.1546 572.04 74.1546C571.626 74.1546 571.194 74.1878 570.747 74.2872C570.564 74.3203 570.415 74.2209 570.382 74.0386L570.116 71.4376C570.1 71.2554 569.95 71.1725 569.801 71.2719L567.114 72.8127C566.948 72.9121 566.815 73.1275 566.799 73.3097L566.533 76.2918C566.517 76.474 566.384 76.7225 566.251 76.8551C565.737 77.3355 565.223 77.8657 564.759 78.4289C564.643 78.578 564.41 78.6443 564.228 78.578L562.503 77.9816C562.32 77.9154 562.105 77.9982 562.022 78.1639L560.048 81.5767C559.948 81.7424 559.998 81.9577 560.131 82.0903L561.508 83.2831C561.64 83.3991 561.707 83.6476 561.64 83.8133C561.392 84.5091 561.176 85.2049 561.027 85.8842C560.993 86.0664 560.828 86.2984 560.678 86.3978L558.223 88.1207C558.074 88.2201 557.941 88.4686 557.941 88.6509V91.7489C557.941 91.9312 558.074 92.014 558.24 91.9478L560.629 90.8709C560.794 90.788 560.977 90.8709 561.027 91.0531C561.159 91.4839 561.342 91.8815 561.557 92.2294C561.657 92.3951 561.673 92.6436 561.591 92.8092L559.998 96.0067C559.915 96.1724 559.982 96.3878 560.148 96.4706L561.873 97.4646C562.038 97.564 562.237 97.5143 562.354 97.3486L564.344 94.3666C564.444 94.2175 564.676 94.1015 564.858 94.1015C565.273 94.1015 565.704 94.0683 566.152 93.9689C566.334 93.9358 566.484 94.0352 566.517 94.2175L566.782 96.8185C566.799 97.0007 566.948 97.0836 567.097 96.9842L569.785 95.4434C569.95 95.344 570.083 95.1286 570.1 94.9464L570.365 91.9643C570.382 91.7821 570.514 91.5336 570.647 91.401C571.161 90.9206 571.675 90.3904 572.14 89.8272C572.256 89.6781 572.488 89.6118 572.671 89.6781L574.396 90.2745C574.578 90.3407 574.794 90.2579 574.877 90.0922L576.851 86.6794C576.95 86.5137 576.9 86.2983 576.768 86.1658L575.391 84.973C575.258 84.857 575.192 84.6085 575.258 84.4428C575.507 83.747 575.723 83.0512 575.872 82.3719C575.905 82.1897 576.071 81.9578 576.22 81.8583L578.675 80.1354C578.824 80.036 578.957 79.7875 578.957 79.6052V79.6218ZM568.458 89.3467C565.953 90.788 563.929 89.6118 563.929 86.7291C563.929 83.8464 565.953 80.3342 568.458 78.8928C570.962 77.4515 572.986 78.6278 572.986 81.5104C572.986 84.3931 570.962 87.9054 568.458 89.3467Z" fill="#37474F"/>
<path d="M498.112 155.996C518.481 144.25 534.985 153.776 534.985 177.252C534.985 200.728 518.481 229.306 498.112 241.036C477.743 252.782 461.239 243.256 461.239 219.763C461.239 196.271 477.743 167.709 498.112 155.98V155.996Z" fill="#1C3871"/>
<path d="M497.847 174.485C504.448 170.675 509.806 173.756 509.806 181.377C509.806 188.998 504.448 198.259 497.847 202.07C491.245 205.88 485.888 202.799 485.888 195.178C485.888 187.557 491.245 178.296 497.847 174.485Z" fill="#27AC75"/>
<path d="M521.417 215.108C521.417 202.583 512.609 197.514 501.761 203.776L494.977 207.686C484.129 213.948 475.322 229.174 475.322 241.682V245.095C477.279 245.741 479.402 246.072 481.658 246.072C486.601 246.072 492.191 244.448 498.096 241.036C506.937 235.933 515.064 227.649 521.417 217.991V215.091V215.108Z" fill="#27AC75"/>
<path d="M464.822 275.992L531.386 237.606C533.376 236.463 534.985 237.275 534.985 239.429C534.985 241.582 533.376 244.233 531.386 245.393L464.822 283.779C462.832 284.922 461.223 284.11 461.223 281.957C461.223 279.803 462.832 277.152 464.822 275.992Z" fill="#27AC75"/>
<path d="M457.673 303.444L538.518 256.774C540.508 255.631 542.117 256.443 542.117 258.597C542.117 260.751 540.508 263.401 538.518 264.561L457.673 311.231C455.683 312.374 454.074 311.562 454.074 309.408C454.074 307.255 455.683 304.604 457.673 303.444Z" fill="#1C3871"/>
<path d="M540.691 294.398L563.332 281.344C564.526 280.664 565.488 280.979 565.488 282.039C565.488 283.1 564.526 284.541 563.332 285.22L540.691 298.275C539.497 298.954 538.535 298.656 538.535 297.579C538.535 296.503 539.497 295.078 540.691 294.398Z" fill="#37474F"/>
<path d="M427.585 351.87L460.825 332.702C462.815 331.559 464.424 332.486 464.424 334.773V357.569C464.424 359.855 462.815 362.639 460.842 363.782L427.601 382.95C425.611 384.093 424.002 383.165 424.002 380.879V358.083C424.002 355.796 425.611 353.013 427.601 351.87H427.585Z" fill="#27AC75"/>
<path d="M432.876 355.051L455.517 341.996C456.711 341.317 457.674 341.631 457.674 342.692C457.674 343.752 456.711 345.193 455.517 345.873L432.876 358.928C431.682 359.607 430.72 359.292 430.72 358.232C430.72 357.171 431.682 355.73 432.876 355.051Z" fill="#FAFAFA"/>
<path d="M430.736 366.548V373.242C430.736 374.617 431.698 375.163 432.893 374.484L455.534 361.429C456.728 360.75 457.69 359.077 457.69 357.702V351.008C457.69 349.633 456.728 349.087 455.534 349.766L432.893 362.821C431.698 363.5 430.736 365.173 430.736 366.548Z" fill="#FAFAFA"/>
<path d="M481.475 320.79L514.716 301.622C516.706 300.479 518.315 301.406 518.315 303.693V326.489C518.315 328.775 516.706 331.559 514.716 332.702L481.475 351.87C479.485 353.013 477.876 352.085 477.876 349.799V327.003C477.876 324.716 479.485 321.933 481.475 320.79Z" fill="#27AC75"/>
<path d="M486.783 323.971L509.424 310.916C510.619 310.237 511.581 310.551 511.581 311.612C511.581 312.672 510.619 314.113 509.424 314.793L486.783 327.848C485.589 328.527 484.627 328.212 484.627 327.152C484.627 326.091 485.589 324.65 486.783 323.971Z" fill="#FAFAFA"/>
<path d="M484.627 335.468V342.162C484.627 343.537 485.589 344.083 486.783 343.404L509.424 330.349C510.619 329.67 511.581 327.997 511.581 326.622V319.928C511.581 318.553 510.619 318.007 509.424 318.686L486.783 331.741C485.589 332.42 484.627 334.093 484.627 335.468Z" fill="#FAFAFA"/>
<path d="M535.383 289.693L568.623 270.525C570.614 269.382 572.223 270.31 572.223 272.596V295.393C572.223 297.679 570.614 300.462 568.623 301.605L535.383 320.773C533.393 321.917 531.784 320.989 531.784 318.703V295.906C531.784 293.62 533.393 290.837 535.366 289.693H535.383Z" fill="#27AC75"/>
<path d="M540.691 292.891L563.332 279.836C564.526 279.157 565.488 279.455 565.488 280.532C565.488 281.609 564.526 283.033 563.332 283.713L540.691 296.768C539.497 297.447 538.535 297.149 538.535 296.072C538.535 294.995 539.497 293.57 540.691 292.891Z" fill="#FAFAFA"/>
<path d="M538.535 304.388V311.082C538.535 312.457 539.497 313.003 540.691 312.324L563.332 299.269C564.526 298.59 565.488 296.917 565.488 295.542V288.848C565.488 287.473 564.526 286.927 563.332 287.606L540.691 300.661C539.497 301.34 538.535 303.013 538.535 304.388Z" fill="#FAFAFA"/>
<path d="M431.167 404.189L565.024 327.003C568.989 324.716 572.206 326.34 572.206 330.631C572.206 334.922 568.989 340.256 565.024 342.543L431.167 419.729C427.203 422.015 423.985 420.392 423.985 416.101C423.985 411.81 427.203 406.475 431.167 404.189Z" fill="#E0E0E0"/>
<path d="M431.167 435.269L565.024 358.083C568.989 355.796 572.206 357.42 572.206 361.711C572.206 366.002 568.989 371.336 565.024 373.623L431.167 450.809C427.203 453.095 423.985 451.472 423.985 447.181C423.985 442.89 427.203 437.555 431.167 435.269Z" fill="#E0E0E0"/>
<path d="M474.741 449.003L521.467 422.065C523.457 420.922 525.066 421.85 525.066 424.136V439.162C525.066 441.449 523.457 444.232 521.467 445.375L474.741 472.313C472.751 473.456 471.142 472.529 471.142 470.242V455.216C471.142 452.93 472.751 450.146 474.725 449.003H474.741Z" fill="#27AC75"/>
<path d="M434.103 406.475C432.245 407.552 430.736 410.153 430.736 412.307C430.736 414.461 432.245 415.322 434.103 414.245C435.961 413.168 437.47 410.567 437.47 408.414C437.47 406.26 435.961 405.399 434.103 406.475Z" fill="#FAFAFA"/>
<path d="M444.769 400.312C442.911 401.389 441.401 403.99 441.401 406.144C441.401 408.298 442.911 409.159 444.769 408.082C446.626 407.006 448.136 404.404 448.136 402.251C448.136 400.097 446.626 399.236 444.769 400.312Z" fill="#FAFAFA"/>
<path d="M455.434 394.149C453.576 395.226 452.067 397.827 452.067 399.981C452.067 402.135 453.576 402.996 455.434 401.919C457.292 400.843 458.801 398.241 458.801 396.088C458.801 393.934 457.292 393.073 455.434 394.149Z" fill="#FAFAFA"/>
<path d="M466.116 387.986C464.258 389.063 462.749 391.664 462.749 393.818C462.749 395.972 464.258 396.833 466.116 395.756C467.973 394.68 469.483 392.078 469.483 389.925C469.483 387.771 467.973 386.91 466.116 387.986Z" fill="#FAFAFA"/>
<path d="M476.781 381.823C474.923 382.9 473.414 385.501 473.414 387.655C473.414 389.809 474.923 390.67 476.781 389.593C478.639 388.517 480.148 385.916 480.148 383.762C480.148 381.608 478.639 380.747 476.781 381.823Z" fill="#FAFAFA"/>
<path d="M487.463 375.66C485.606 376.737 484.096 379.338 484.096 381.492C484.096 383.646 485.606 384.507 487.463 383.43C489.321 382.354 490.83 379.753 490.83 377.599C490.83 375.445 489.321 374.584 487.463 375.66Z" fill="#FAFAFA"/>
<path d="M498.129 369.497C496.271 370.574 494.762 373.175 494.762 375.329C494.762 377.483 496.271 378.344 498.129 377.267C499.987 376.191 501.496 373.59 501.496 371.436C501.496 369.282 499.987 368.421 498.129 369.497Z" fill="#FAFAFA"/>
<path d="M434.103 437.588C432.245 438.665 430.736 441.266 430.736 443.42C430.736 445.574 432.245 446.435 434.103 445.358C435.961 444.282 437.47 441.681 437.47 439.527C437.47 437.373 435.961 436.512 434.103 437.588Z" fill="#FAFAFA"/>
<path d="M444.769 431.425C442.911 432.502 441.401 435.103 441.401 437.257C441.401 439.411 442.911 440.272 444.769 439.195C446.626 438.119 448.136 435.518 448.136 433.364C448.136 431.21 446.626 430.349 444.769 431.425Z" fill="#FAFAFA"/>
<path d="M455.434 425.263C453.576 426.339 452.067 428.94 452.067 431.094C452.067 433.248 453.576 434.109 455.434 433.033C457.292 431.956 458.801 429.355 458.801 427.201C458.801 425.047 457.292 424.186 455.434 425.263Z" fill="#FAFAFA"/>
<path d="M466.116 419.1C464.258 420.176 462.749 422.777 462.749 424.931C462.749 427.085 464.258 427.946 466.116 426.87C467.973 425.793 469.483 423.192 469.483 421.038C469.483 418.884 467.973 418.023 466.116 419.1Z" fill="#FAFAFA"/>
<path d="M476.781 412.937C474.923 414.013 473.414 416.614 473.414 418.768C473.414 420.922 474.923 421.783 476.781 420.707C478.639 419.63 480.148 417.029 480.148 414.875C480.148 412.721 478.639 411.86 476.781 412.937Z" fill="#FAFAFA"/>
<path d="M487.463 406.774C485.606 407.85 484.096 410.451 484.096 412.605C484.096 414.759 485.606 415.62 487.463 414.544C489.321 413.467 490.83 410.866 490.83 408.712C490.83 406.558 489.321 405.697 487.463 406.774Z" fill="#FAFAFA"/>
<path d="M498.129 400.611C496.271 401.687 494.762 404.288 494.762 406.442C494.762 408.596 496.271 409.457 498.129 408.381C499.987 407.304 501.496 404.703 501.496 402.549C501.496 400.395 499.987 399.534 498.129 400.611Z" fill="#FAFAFA"/>
<path d="M647.826 470.657C642.004 470.657 636.497 469.232 631.488 466.349C619.529 459.457 612.678 445.027 612.678 426.77C612.678 394.663 633.113 357.718 659.205 342.675C673.254 334.574 687.203 333.696 698.483 340.207C710.442 347.099 717.292 361.529 717.292 379.786C717.292 411.893 696.857 448.838 670.766 463.881C662.937 468.387 655.141 470.657 647.826 470.657ZM682.095 359.027C677.915 359.027 673.486 361.131 670.766 362.688C651.823 373.606 635.817 402.963 635.817 426.77C635.817 436.412 638.521 443.718 643.049 446.336C648.208 449.318 655.373 446.071 659.188 443.867C678.13 432.95 694.137 403.593 694.137 379.786C694.137 370.144 691.433 362.837 686.905 360.22C685.429 359.358 683.77 359.027 682.095 359.027Z" fill="#1C3871"/>
<path d="M698.283 384.921C698.283 366.88 686.905 360.22 686.905 360.22C691.433 362.837 694.137 370.144 694.137 379.786C694.137 403.593 678.13 432.933 659.188 443.867C655.373 446.071 648.207 449.318 643.049 446.336C643.049 446.336 652.653 452.284 665.906 445.06C685.113 434.59 698.267 408.745 698.267 384.938L698.283 384.921Z" fill="#37474F"/>
<path d="M680.038 159.459C680.038 152.865 674.68 147.514 668.079 147.514C661.477 147.514 656.12 152.865 656.12 159.459C656.12 159.459 656.12 159.476 656.12 159.492V349.534C656.12 351.307 657.281 353.063 659.62 354.405C664.297 357.105 671.861 357.105 676.538 354.405C678.877 353.063 680.038 351.29 680.038 349.534V159.492C680.038 159.492 680.038 159.476 680.038 159.459Z" fill="#37474F"/>
<path d="M670.484 201.921C670.484 197.514 667.399 192.163 663.567 189.976C661.626 188.849 659.885 188.783 658.624 189.545L629.099 206.526L628.386 206.957C628.287 207.007 628.187 207.056 628.104 207.123C627.59 207.471 627.125 207.852 626.694 208.282C624.903 210.055 623.808 212.507 623.808 215.207C623.808 218.918 625.865 222.133 628.9 223.806C630.294 224.551 631.869 224.982 633.578 224.982C635.286 224.982 636.862 224.551 638.239 223.806C638.421 223.706 638.62 223.59 638.803 223.491L668.51 206.394C669.737 205.665 670.5 204.124 670.5 201.937L670.484 201.921Z" fill="#1C3871"/>
<path d="M670.484 249.518C670.484 245.111 667.399 239.76 663.567 237.573C661.626 236.447 659.885 236.38 658.624 237.142L624.024 256.973L623.31 257.404C623.211 257.454 623.111 257.503 623.028 257.57C622.514 257.901 622.05 258.299 621.619 258.729C619.827 260.502 618.732 262.954 618.732 265.654C618.732 269.366 620.789 272.58 623.825 274.253C625.218 274.998 626.794 275.429 628.502 275.429C630.211 275.429 631.786 274.998 633.163 274.253C633.346 274.153 633.545 274.037 633.727 273.938L668.51 253.991C669.737 253.262 670.5 251.721 670.5 249.535L670.484 249.518Z" fill="#1C3871"/>
</g>
<path d="M124.227 162.175L144.569 208.45L191.111 102.46C192.173 99.9479 193.972 97.7971 196.282 96.277C198.51 94.8226 201.13 94.0457 203.81 94.0447C205.626 94.0765 207.422 94.4164 209.119 95.0492C210.883 95.6926 212.495 96.68 213.855 97.9512C215.164 99.1666 216.201 100.634 216.899 102.26C217.605 103.9 217.978 105.659 217.997 107.439C218.038 109.31 217.663 111.168 216.899 112.885L157.657 247.427C156.58 249.945 154.761 252.095 152.432 253.605C150.102 255.115 147.366 255.917 144.569 255.909C141.707 255.927 138.898 255.153 136.468 253.677C134.038 252.167 132.157 249.949 131.091 247.337L109.01 197.066L86.8603 247.516C85.7756 250.029 83.9553 252.174 81.6273 253.683C79.2992 255.192 76.5667 255.997 73.7718 255.999C70.8996 256.038 68.0775 255.262 65.6486 253.766C63.2447 252.257 61.3691 250.069 60.2714 247.493L1.16718 112.952C0.407212 111.255 0.0101005 109.424 0.000175333 107.572C-0.00929587 105.805 0.365049 104.055 1.09854 102.438C1.85099 100.779 2.90536 99.2662 4.21052 97.9735C5.55968 96.6722 7.17309 95.6608 8.94704 95.0045C10.5942 94.3667 12.3465 94.0264 14.1184 94C16.7755 94.0143 19.3697 94.7906 21.5779 96.2323C23.9262 97.7341 25.7593 99.8879 26.8408 102.416L73.3599 208.406L120.039 102.416C121.174 99.904 123.045 97.7758 125.416 96.2993C127.71 94.8403 130.39 94.0646 133.128 94.067C134.944 94.0988 136.74 94.4387 138.436 95.0715C140.156 95.7107 141.716 96.7 143.013 97.9735C144.287 99.2035 145.298 100.668 145.987 102.282C146.7 103.919 147.058 105.682 147.04 107.461C147.035 109.335 146.638 111.188 145.873 112.908L124.227 162.175Z" fill="url(#paint0_linear_407_21)"/>
<defs>
<linearGradient id="paint0_linear_407_21" x1="0" y1="176.368" x2="218" y2="176.368" gradientUnits="userSpaceOnUse">
<stop stop-color="#18BEE2"/>
<stop offset="1" stop-color="#64D2EA" stop-opacity="0.73"/>
</linearGradient>
<clipPath id="clip0_407_21">
<rect width="770" height="666" fill="white" transform="translate(22)"/>
</clipPath>
</defs>
</svg>
