<svg width="24" height="22" viewBox="0 0 24 22" fill="none" xmlns="http://www.w3.org/2000/svg">
<path d="M7.75312 3.5H16.2469C16.8844 3.5 17.4516 3.90313 17.6625 4.50313L18.8859 8H5.11406L6.3375 4.50313C6.54844 3.90313 7.11562 3.5 7.75312 3.5V3.5ZM3.50625 3.51406L1.85625 8.225C0.76875 8.675 0 9.74844 0 11V14.75C0 15.8609 0.604687 16.8312 1.5 17.3469V20C1.5 20.8297 2.17031 21.5 3 21.5H4.5C5.32969 21.5 6 20.8297 6 20V17.75H18V20C18 20.8297 18.6703 21.5 19.5 21.5H21C21.8297 21.5 22.5 20.8297 22.5 20V17.3469C23.3953 16.8266 24 15.8609 24 14.75V11C24 9.74844 23.2312 8.675 22.1437 8.225L20.4938 3.51406C19.8609 1.70938 18.1594 0.5 16.2469 0.5H7.75312C5.84062 0.5 4.13906 1.70938 3.50625 3.51406ZM9.75 11.75H14.25C14.6625 11.75 15 12.0875 15 12.5V14C15 14.4125 14.6625 14.75 14.25 14.75H9.75C9.3375 14.75 9 14.4125 9 14V12.5C9 12.0875 9.3375 11.75 9.75 11.75ZM2.25 12.125C2.25 11.5016 2.75156 11 3.375 11H4.875C5.49844 11 6 11.5016 6 12.125C6 12.7484 5.49844 13.25 4.875 13.25H3.375C2.75156 13.25 2.25 12.7484 2.25 12.125ZM19.125 11H20.625C21.2484 11 21.75 11.5016 21.75 12.125C21.75 12.7484 21.2484 13.25 20.625 13.25H19.125C18.5016 13.25 18 12.7484 18 12.125C18 11.5016 18.5016 11 19.125 11Z" fill="url(#paint0_linear_1027_274)"/>
<defs>
<linearGradient id="paint0_linear_1027_274" x1="0" y1="11.1773" x2="24" y2="11.1773" gradientUnits="userSpaceOnUse">
<stop stop-color="#18BEE2"/>
<stop offset="1" stop-color="#64D2EA" stop-opacity="0.73"/>
</linearGradient>
</defs>
</svg>
