<svg width="28" height="24" viewBox="0 0 28 24" fill="none" xmlns="http://www.w3.org/2000/svg">
<path d="M14.8332 20H2.33317C1.89114 20 1.46722 19.8244 1.15466 19.5118C0.842099 19.1993 0.666504 18.7754 0.666504 18.3333V1.66667C0.666504 1.22464 0.842099 0.800716 1.15466 0.488155C1.46722 0.175595 1.89114 0 2.33317 0H25.6665C26.1085 0 26.5325 0.175595 26.845 0.488155C27.1576 0.800716 27.3332 1.22464 27.3332 1.66667V10.3083C26.223 8.89436 24.6081 7.96558 22.8276 7.71704C21.0472 7.4685 19.2396 7.91954 17.7847 8.97544C16.3297 10.0313 15.3405 11.6099 15.0248 13.3797C14.7091 15.1495 15.0914 16.9728 16.0915 18.4667L15.3165 19.4167L14.8332 20ZM4.83317 5V6.33333H18.9998V5H4.83317ZM4.83317 9.66667H13.9998V8.33333H4.83317V9.66667ZM4.83317 15.5H13.1665V14.1667H4.83317V15.5Z" fill="url(#paint0_linear_1027_356)"/>
<path d="M27.1918 14.6582C27.1941 13.7796 26.9782 12.9141 26.5635 12.1394C26.1488 11.3648 25.5483 10.7052 24.8158 10.2198C24.0834 9.73444 23.2419 9.43848 22.3669 9.35848C21.4918 9.27847 20.6107 9.41693 19.8023 9.76142C18.994 10.1059 18.2838 10.6457 17.7355 11.3323C17.1872 12.0189 16.8179 12.8308 16.6608 13.6954C16.5036 14.5599 16.5635 15.4498 16.8351 16.2855C17.1067 17.1211 17.5815 17.8763 18.2168 18.4832L16.6002 20.4582L17.3502 23.4666L20.4002 19.7499C21.3656 20.0354 22.3931 20.0354 23.3585 19.7499L26.4085 23.4666L27.1585 20.4582L25.5418 18.4832C26.0617 17.9908 26.4761 17.3978 26.7597 16.7402C27.0434 16.0827 27.1904 15.3743 27.1918 14.6582V14.6582ZM18.2418 14.6582C18.2319 13.9359 18.437 13.227 18.8311 12.6216C19.2252 12.0162 19.7904 11.5416 20.4549 11.2583C21.1194 10.975 21.8531 10.8957 22.5628 11.0305C23.2725 11.1654 23.926 11.5082 24.4404 12.0154C24.9547 12.5227 25.3065 13.1714 25.4511 13.8792C25.5957 14.5869 25.5266 15.3217 25.2525 15.99C24.9784 16.6584 24.5117 17.2301 23.9118 17.6325C23.3119 18.0349 22.6059 18.2498 21.8835 18.2499C20.9264 18.2521 20.0073 17.8758 19.3266 17.2029C18.6459 16.53 18.259 15.6153 18.2502 14.6582H18.2418Z" fill="url(#paint1_linear_1027_356)"/>
<defs>
<linearGradient id="paint0_linear_1027_356" x1="0.666504" y1="10.1689" x2="27.3332" y2="10.1689" gradientUnits="userSpaceOnUse">
<stop stop-color="#18BEE2"/>
<stop offset="1" stop-color="#64D2EA" stop-opacity="0.73"/>
</linearGradient>
<linearGradient id="paint1_linear_1027_356" x1="16.5752" y1="16.5208" x2="27.1919" y2="16.5208" gradientUnits="userSpaceOnUse">
<stop stop-color="#18BEE2"/>
<stop offset="1" stop-color="#64D2EA" stop-opacity="0.73"/>
</linearGradient>
</defs>
</svg>
