<svg width="22" height="24" viewBox="0 0 22 24" fill="none" xmlns="http://www.w3.org/2000/svg">
<path d="M6.33333 14.3334C6.00278 14.3334 5.7255 14.2214 5.5015 13.9974C5.27828 13.7742 5.16667 13.4973 5.16667 13.1667C5.16667 12.8362 5.27828 12.5589 5.5015 12.3349C5.7255 12.1117 6.00278 12 6.33333 12C6.66389 12 6.94117 12.1117 7.16517 12.3349C7.38839 12.5589 7.5 12.8362 7.5 13.1667C7.5 13.4973 7.38839 13.7742 7.16517 13.9974C6.94117 14.2214 6.66389 14.3334 6.33333 14.3334ZM11 14.3334C10.6694 14.3334 10.3926 14.2214 10.1693 13.9974C9.94533 13.7742 9.83333 13.4973 9.83333 13.1667C9.83333 12.8362 9.94533 12.5589 10.1693 12.3349C10.3926 12.1117 10.6694 12 11 12C11.3306 12 11.6078 12.1117 11.8318 12.3349C12.0551 12.5589 12.1667 12.8362 12.1667 13.1667C12.1667 13.4973 12.0551 13.7742 11.8318 13.9974C11.6078 14.2214 11.3306 14.3334 11 14.3334ZM15.6667 14.3334C15.3361 14.3334 15.0592 14.2214 14.836 13.9974C14.612 13.7742 14.5 13.4973 14.5 13.1667C14.5 12.8362 14.612 12.5589 14.836 12.3349C15.0592 12.1117 15.3361 12 15.6667 12C15.9972 12 16.2741 12.1117 16.4973 12.3349C16.7213 12.5589 16.8333 12.8362 16.8333 13.1667C16.8333 13.4973 16.7213 13.7742 16.4973 13.9974C16.2741 14.2214 15.9972 14.3334 15.6667 14.3334ZM2.83333 23.6667C2.19167 23.6667 1.64217 23.4384 1.18483 22.9819C0.728278 22.5245 0.5 21.975 0.5 21.3334V5.00004C0.5 4.35837 0.728278 3.80926 1.18483 3.35271C1.64217 2.89537 2.19167 2.66671 2.83333 2.66671H4V1.47087C4 1.14032 4.11161 0.868096 4.33483 0.654207C4.55883 0.440319 4.83611 0.333374 5.16667 0.333374C5.49722 0.333374 5.7745 0.444985 5.9985 0.668207C6.22172 0.892207 6.33333 1.16949 6.33333 1.50004V2.66671H15.6667V1.47087C15.6667 1.14032 15.7787 0.868096 16.0027 0.654207C16.2259 0.440319 16.5028 0.333374 16.8333 0.333374C17.1639 0.333374 17.4408 0.444985 17.664 0.668207C17.888 0.892207 18 1.16949 18 1.50004V2.66671H19.1667C19.8083 2.66671 20.3578 2.89537 20.8152 3.35271C21.2717 3.80926 21.5 4.35837 21.5 5.00004V21.3334C21.5 21.975 21.2717 22.5245 20.8152 22.9819C20.3578 23.4384 19.8083 23.6667 19.1667 23.6667H2.83333ZM2.83333 21.3334H19.1667V9.66671H2.83333V21.3334Z" fill="url(#paint0_linear_1027_241)"/>
<defs>
<linearGradient id="paint0_linear_1027_241" x1="0.5" y1="12.197" x2="21.5" y2="12.197" gradientUnits="userSpaceOnUse">
<stop stop-color="#18BEE2"/>
<stop offset="1" stop-color="#64D2EA" stop-opacity="0.73"/>
</linearGradient>
</defs>
</svg>
