<svg width="24" height="22" viewBox="0 0 24 22" fill="none" xmlns="http://www.w3.org/2000/svg">
<path d="M23.7588 5.19795L20.9088 3.00195C20.7151 2.87762 20.5046 2.78184 20.2836 2.71755C20.0635 2.64632 19.8344 2.60673 19.6032 2.59995H11.4L12.3612 8.59995H19.6032C19.8 8.59995 20.046 8.55555 20.2824 8.48235C20.5188 8.40915 20.7468 8.30835 20.9076 8.19915L23.7576 6.00075C23.9196 5.89155 24 5.74635 24 5.59995C24 5.45355 23.9196 5.30835 23.7588 5.19795V5.19795ZM10.2 0.199951H9C8.84087 0.199951 8.68826 0.263165 8.57574 0.375687C8.46321 0.488209 8.4 0.640821 8.4 0.799951V4.99995H4.3968C4.1976 4.99995 3.9528 5.04435 3.7164 5.11875C3.4788 5.19075 3.252 5.29035 3.0912 5.40195L0.2412 7.59795C0.0792 7.70715 0 7.85355 0 7.99995C0 8.14515 0.0792 8.29035 0.2412 8.40195L3.0912 10.6004C3.252 10.7096 3.4788 10.8104 3.7164 10.8824C3.9528 10.9556 4.1976 11 4.3968 11H8.4V21.2C8.4 21.3591 8.46321 21.5117 8.57574 21.6242C8.68826 21.7367 8.84087 21.8 9 21.8H10.2C10.3591 21.8 10.5117 21.7367 10.6243 21.6242C10.7368 21.5117 10.8 21.3591 10.8 21.2V0.799951C10.8 0.640821 10.7368 0.488209 10.6243 0.375687C10.5117 0.263165 10.3591 0.199951 10.2 0.199951V0.199951Z" fill="url(#paint0_linear_1027_300)"/>
<defs>
<linearGradient id="paint0_linear_1027_300" x1="0" y1="11.1823" x2="24" y2="11.1823" gradientUnits="userSpaceOnUse">
<stop stop-color="#18BEE2"/>
<stop offset="1" stop-color="#64D2EA" stop-opacity="0.73"/>
</linearGradient>
</defs>
</svg>
