<svg width="27" height="22" viewBox="0 0 27 22" fill="none" xmlns="http://www.w3.org/2000/svg">
<path d="M25.5 17.0024C25.1458 17.0024 24.8492 16.8838 24.61 16.6466C24.37 16.4102 24.25 16.117 24.25 15.767V8.47795L14.2188 13.883C14.0313 13.9859 13.8383 14.0629 13.64 14.114C13.4425 14.1659 13.2292 14.1918 13 14.1918C12.7708 14.1918 12.5575 14.1659 12.36 14.114C12.1617 14.0629 11.9688 13.9859 11.7813 13.883L1.25 8.19998C1.04167 8.09703 0.880417 7.94754 0.76625 7.75152C0.65125 7.55632 0.59375 7.34547 0.59375 7.11898C0.59375 6.89248 0.65125 6.68163 0.76625 6.48644C0.880417 6.29041 1.04167 6.14093 1.25 6.03798L11.8125 0.355C12 0.252047 12.1925 0.174627 12.39 0.122739C12.5883 0.0716745 12.7917 0.0461426 13 0.0461426C13.2083 0.0461426 13.4117 0.0716745 13.61 0.122739C13.8075 0.174627 14 0.252047 14.1875 0.355L26.0938 6.77923C26.3021 6.88219 26.4638 7.03126 26.5788 7.22646C26.6929 7.42248 26.75 7.63374 26.75 7.86023V15.767C26.75 16.117 26.63 16.4102 26.39 16.6466C26.1508 16.8838 25.8542 17.0024 25.5 17.0024ZM13 21.6044C12.7917 21.6044 12.5883 21.5789 12.39 21.5278C12.1925 21.4759 12 21.3985 11.8125 21.2955L5.5625 17.9599C5.14583 17.7334 4.82292 17.4299 4.59375 17.0494C4.36458 16.668 4.25 16.2406 4.25 15.767V11.0723L11.3438 14.8713C11.6146 15.0154 11.8854 15.1439 12.1563 15.2568C12.4271 15.3704 12.7083 15.4272 13 15.4272C13.2917 15.4272 13.5783 15.3655 13.86 15.2419C14.1408 15.1184 14.4167 14.9845 14.6875 14.8404L21.75 11.0723V15.767C21.75 16.2406 21.6354 16.668 21.4062 17.0494C21.1771 17.4299 20.8542 17.7334 20.4375 17.9599L14.1875 21.2955C14 21.3985 13.8075 21.4759 13.61 21.5278C13.4117 21.5789 13.2083 21.6044 13 21.6044Z" fill="url(#paint0_linear_1027_165)"/>
<defs>
<linearGradient id="paint0_linear_1027_165" x1="0.59375" y1="11.0073" x2="26.75" y2="11.0073" gradientUnits="userSpaceOnUse">
<stop stop-color="#18BEE2"/>
<stop offset="1" stop-color="#64D2EA" stop-opacity="0.73"/>
</linearGradient>
</defs>
</svg>
