<svg width="16" height="12" viewBox="0 0 16 12" fill="none" xmlns="http://www.w3.org/2000/svg">
<path d="M0 4.496V9C0 9.79565 0.316071 10.5587 0.87868 11.1213C1.44129 11.6839 2.20435 12 3 12H13C13.7956 12 14.5587 11.6839 15.1213 11.1213C15.6839 10.5587 16 9.79565 16 9V4.496L8.41 7.912C8.28108 7.96995 8.14134 7.99991 8 7.99991C7.85866 7.99991 7.71892 7.96995 7.59 7.912L0 4.496ZM0.0739999 2.336L8 5.904L15.926 2.336C15.7754 1.67255 15.4038 1.07998 14.8721 0.655519C14.3405 0.231056 13.6803 -9.18964e-05 13 2.74069e-08H3C2.31968 -9.18964e-05 1.65952 0.231056 1.12786 0.655519C0.596187 1.07998 0.224578 1.67255 0.0739999 2.336Z" fill="url(#paint0_linear_490_355)"/>
<defs>
<linearGradient id="paint0_linear_490_355" x1="0" y1="6.10131" x2="16" y2="6.10131" gradientUnits="userSpaceOnUse">
<stop stop-color="#18BEE2"/>
<stop offset="1" stop-color="#64D2EA" stop-opacity="0.73"/>
</linearGradient>
</defs>
</svg>
