<svg width="20" height="16" viewBox="0 0 20 16" fill="none" xmlns="http://www.w3.org/2000/svg">
<path d="M18 0H2C0.897 0 0 0.897 0 2V14C0 15.103 0.897 16 2 16H18C19.103 16 20 15.103 20 14V2C20 0.897 19.103 0 18 0ZM6.715 4C7.866 4 8.715 4.849 8.715 6C8.715 7.151 7.866 8 6.715 8C5.564 8 4.715 7.151 4.715 6C4.715 4.849 5.563 4 6.715 4ZM10.43 12H3V11.535C3 10.162 4.676 8.75 6.715 8.75C8.754 8.75 10.43 10.162 10.43 11.535V12ZM17 11H13V9H17V11ZM17 7H12V5H17V7Z" fill="url(#paint0_linear_1027_276)"/>
<defs>
<linearGradient id="paint0_linear_1027_276" x1="0" y1="8.13509" x2="20" y2="8.13509" gradientUnits="userSpaceOnUse">
<stop stop-color="#18BEE2"/>
<stop offset="1" stop-color="#64D2EA" stop-opacity="0.73"/>
</linearGradient>
</defs>
</svg>
