<svg width="30" height="27" viewBox="0 0 30 27" fill="none" xmlns="http://www.w3.org/2000/svg">
<g clip-path="url(#clip0_1027_350)">
<path d="M18.7629 7.12794V6.12411H24.1613V7.12794C24.1613 7.93195 24.8247 8.58608 25.6409 8.58608H28.4779C29.2941 8.58608 29.9588 7.93253 29.9588 7.12853V1.73676C29.9588 0.932752 29.2947 0.278616 28.4779 0.278616H25.6409C24.8247 0.278616 24.1613 0.932165 24.1613 1.73676V2.74059H18.7629V1.73676C18.7629 0.932752 18.0995 0.278616 17.2833 0.278616H14.4463C13.6301 0.278616 12.9666 0.932165 12.9666 1.73676V7.12794C12.9666 7.93195 13.6301 8.58549 14.4463 8.58549H17.2833C18.0995 8.58549 18.7629 7.93195 18.7629 7.12794V7.12794ZM25.2054 1.73676C25.2054 1.50049 25.4011 1.30772 25.6409 1.30772H28.4779C28.719 1.30772 28.9147 1.50049 28.9147 1.73676V7.12794C28.9147 7.36421 28.719 7.55698 28.4779 7.55698H25.6409C25.4011 7.55698 25.2054 7.36421 25.2054 7.12794V1.73676ZM24.1613 3.7691V5.0956H18.7629V3.7691H24.1613ZM17.7188 7.12853C17.7188 7.36479 17.5231 7.55757 17.2833 7.55757H14.4463C14.2064 7.55757 14.0107 7.36479 14.0107 7.12853V1.73676C14.0107 1.50049 14.2064 1.30772 14.4463 1.30772H17.2833C17.5231 1.30772 17.7188 1.50049 17.7188 1.73676V7.12794V7.12853ZM29.9988 11.7145C29.9988 11.4301 29.7655 11.2003 29.4767 11.2003H20.8106C19.106 11.2003 17.72 12.5656 17.72 14.2447V24.1319C17.72 24.1384 17.7188 24.1455 17.7188 24.1519C17.7188 25.7223 19.0153 27 20.6101 27H29.4779C29.7667 27 29.9999 26.7702 29.9999 26.4858L29.9988 11.7145V11.7145ZM20.8106 12.2288H28.9546V21.3044H20.6101C19.9085 21.3044 19.2653 21.5524 18.7641 21.9627V14.2441C18.7641 13.1327 19.6823 12.2282 20.8106 12.2282V12.2288ZM28.9558 25.9721H20.6101C19.5922 25.9721 18.7641 25.1569 18.7629 24.1549H18.7641V24.1431C18.7701 23.1452 19.5952 22.3341 20.6101 22.3341H28.9558V25.9727V25.9721ZM13.1104 16.7131V16.25C13.1104 15.4701 12.469 14.8359 11.6797 14.8359H10.354C9.5652 14.8359 8.92441 15.4701 8.92441 16.25V16.6549H6.52773V16.25C6.52773 15.4701 5.88635 14.8359 5.09819 14.8359H3.77187C2.98312 14.8359 2.34114 15.4701 2.34114 16.25V16.7131C1.29882 16.9365 0.486204 17.8151 0.407448 18.8994L0.00650979 24.3653C-0.0436075 25.0435 0.197433 25.7182 0.668178 26.2166C1.13892 26.715 1.80477 27.0006 2.49507 27.0006C3.27667 27.0006 4.02306 26.6327 4.49141 26.0168L5.80282 24.2947C6.03551 23.9885 6.40661 23.8063 6.79443 23.8063H8.65354C9.04195 23.8063 9.41246 23.9885 9.64515 24.2942L10.9571 26.0168C11.4255 26.6327 12.1719 27.0006 12.9529 27.0006C13.6438 27.0006 14.3096 26.715 14.7798 26.2166C15.2499 25.7188 15.4916 25.0441 15.4415 24.3653L15.0417 18.9006C14.963 17.8163 14.1509 16.9376 13.1086 16.7137L13.1104 16.7131ZM9.96733 16.25C9.96733 16.0378 10.141 15.8644 10.3528 15.8644H11.6791C11.8921 15.8644 12.0657 16.0378 12.0657 16.25V16.6549H9.96673V16.25H9.96733ZM3.77068 15.8644H5.097C5.3094 15.8644 5.48243 16.0378 5.48243 16.25V16.6549H3.38406V16.25C3.38406 16.0378 3.55768 15.8644 3.77068 15.8644ZM14.0167 25.5154C13.7387 25.8093 13.3616 25.9715 12.9535 25.9715C12.4994 25.9715 12.0657 25.7576 11.7924 25.3997L10.4804 23.677C10.0521 23.1134 9.36891 22.7772 8.65354 22.7772H6.79443C6.07966 22.7772 5.39651 23.1134 4.96753 23.677L3.65613 25.3997C3.38346 25.7576 2.94911 25.9715 2.49448 25.9715C2.08698 25.9715 1.70931 25.8099 1.43127 25.5154C1.15444 25.2216 1.01721 24.8396 1.04644 24.4393L1.44738 18.9741C1.50048 18.25 2.11919 17.6829 2.85664 17.6829H12.5931C13.3306 17.6829 13.9493 18.25 14.0024 18.9741L14.4021 24.4387C14.4308 24.8396 14.2947 25.2216 14.0173 25.5154H14.0167ZM4.26529 18.6244C3.27726 18.6244 2.473 19.4166 2.473 20.3899C2.473 21.3632 3.27726 22.156 4.26529 22.156C5.25332 22.156 6.05818 21.3638 6.05818 20.3899C6.05818 19.4161 5.25451 18.6244 4.26529 18.6244ZM4.26529 21.1269C3.85302 21.1269 3.51711 20.7954 3.51711 20.3893C3.51711 19.9832 3.85242 19.6523 4.26529 19.6523C4.67816 19.6523 5.01407 19.9826 5.01407 20.3893C5.01407 20.796 4.67876 21.1269 4.26529 21.1269ZM11.1839 18.6244C10.1952 18.6244 9.39098 19.4166 9.39098 20.3899C9.39098 21.3632 10.1952 22.156 11.1839 22.156C12.1725 22.156 12.9762 21.3638 12.9762 20.3899C12.9762 19.4161 12.1719 18.6244 11.1839 18.6244ZM11.1839 21.1269C10.7716 21.1269 10.4351 20.7954 10.4351 20.3893C10.4351 19.9832 10.7716 19.6523 11.1839 19.6523C11.5961 19.6523 11.9321 19.9826 11.9321 20.3893C11.9321 20.796 11.5961 21.1269 11.1839 21.1269ZM2.85664 3.90017C3.30232 4.09588 3.77963 4.19168 4.25634 4.19168C4.67458 4.19168 5.08924 4.10881 5.48481 3.96305V5.89196H1.73138C1.57566 5.89196 1.42889 5.96072 1.32925 6.07768C1.23021 6.19523 1.18844 6.35038 1.21828 6.50143L2.09652 11.0904C2.27193 12.0107 3.08992 12.679 4.04096 12.679H7.97218C8.92262 12.679 9.74061 12.0107 9.91721 11.091L10.7955 6.50143C10.8247 6.35097 10.7841 6.19523 10.6845 6.07768C10.586 5.96014 10.4381 5.89196 10.2824 5.89196H6.52892V3.96364C6.9239 4.1094 7.33856 4.19168 7.7568 4.19168C8.23351 4.19168 8.71022 4.09529 9.1565 3.90017C10.2782 3.40707 11.0586 2.34446 11.1916 1.1267C11.2119 0.943331 11.1302 0.762313 10.9774 0.654171C9.96852 -0.0628508 8.64399 -0.200378 7.52292 0.292722C6.8869 0.57189 6.36724 1.03854 6.00687 1.60805C5.6459 1.03795 5.12683 0.572478 4.49082 0.292722C3.36676 -0.201553 2.04402 -0.0616754 1.03511 0.654171C0.882967 0.762313 0.800631 0.943331 0.820917 1.1267C0.954563 2.34505 1.73436 3.40707 2.85604 3.89958L2.85664 3.90017ZM8.8916 10.9011C8.80807 11.336 8.42145 11.6516 7.97218 11.6516H4.04036C3.59169 11.6516 3.20447 11.3366 3.12154 10.9011L2.36023 6.92165H9.65231L8.891 10.9011H8.8916ZM7.94712 1.2319C8.64757 0.923936 9.43155 0.962138 10.0998 1.323C9.92616 2.05354 9.43036 2.65361 8.73051 2.96157C8.03065 3.26778 7.24608 3.23075 6.57785 2.87048C6.75147 2.13994 7.24727 1.53987 7.94712 1.2319V1.2319ZM4.06482 1.2319C4.76467 1.53987 5.26048 2.13935 5.4341 2.87048C4.76646 3.23075 3.98308 3.26719 3.28204 2.96157C2.58159 2.65361 2.08578 2.05413 1.91216 1.323C2.58039 0.962138 3.36437 0.925112 4.06482 1.2319V1.2319Z" fill="url(#paint0_linear_1027_350)"/>
</g>
<defs>
<linearGradient id="paint0_linear_1027_350" x1="0" y1="13.7284" x2="29.9999" y2="13.7284" gradientUnits="userSpaceOnUse">
<stop stop-color="#18BEE2"/>
<stop offset="1" stop-color="#64D2EA" stop-opacity="0.73"/>
</linearGradient>
<clipPath id="clip0_1027_350">
<rect width="30" height="27" fill="white"/>
</clipPath>
</defs>
</svg>
